<svg version="1.1" id="accessibility" xmlns="http://www.w3.org/2000/svg" xmlns:xlink="http://www.w3.org/1999/xlink" x="0px" y="0px" width="24px" height="24px" viewBox="0 0 48 48" enable-background="new 0 0 48 48" xml:space="preserve">
<path fill="#3F51B5" d="M24,5C13.504,5,5,13.504,5,24s8.504,19,19,19c10.494,0,19-8.504,19-19S34.494,5,24,5z"></path>
<g>
	<path fill="#FFFFFF" d="M24,12.478c1.535,0,2.785,1.272,2.785,2.839s-1.25,2.838-2.785,2.838s-2.785-1.271-2.785-2.838
		S22.465,12.478,24,12.478z M32.246,20.444c-1.739,0.288-3.52,0.446-5.245,0.533c-0.611-0.003-0.991,0.364-1.006,0.787
		c-0.192,5.388,2.027,11.88,2.052,11.95c0.181,0.522-0.097,1.092-0.618,1.272c-0.108,0.037-0.219,0.056-0.327,0.056
		c-0.415,0-0.802-0.261-0.945-0.674c-0.066-0.192-0.948-2.935-1.617-6.367c-0.18-0.924-0.789-0.814-0.93-0.027
		c-0.617,3.456-1.556,6.202-1.622,6.395c-0.144,0.413-0.53,0.674-0.945,0.674c-0.108,0-0.219-0.019-0.326-0.056
		c-0.522-0.181-0.799-0.75-0.619-1.271c0.024-0.071,2.226-6.52,2.054-11.89c-0.013-0.4-0.35-0.707-0.951-0.811
		c-3.062-0.111-5.23-0.376-5.407-0.398c-0.548-0.068-0.936-0.568-0.867-1.115c0.068-0.549,0.563-0.939,1.116-0.869
		c0.084,0.01,8.57,1.048,15.879-0.161c0.544-0.099,1.06,0.278,1.149,0.823C33.16,19.839,32.791,20.354,32.246,20.444z"></path>
	<circle fill="none" stroke="#FFFFFF" stroke-width="2" cx="24" cy="24" r="15"></circle>
</g>
</svg>