<?xml version="1.0" encoding="utf-8"?>
<!-- Generator: Adobe Illustrator 19.1.0, SVG Export Plug-In . SVG Version: 6.00 Build 0)  -->
<!DOCTYPE svg PUBLIC "-//W3C//DTD SVG 1.1//EN" "http://www.w3.org/Graphics/SVG/1.1/DTD/svg11.dtd">
<svg version="1.1" id="Layer_1" xmlns="http://www.w3.org/2000/svg" xmlns:xlink="http://www.w3.org/1999/xlink" x="0px" y="0px"
	 viewBox="0 0 687.6 223" enable-background="new 0 0 687.6 223" xml:space="preserve">
<g>
	<path fill="#A6D8F2" stroke="#333333" stroke-width="2" stroke-miterlimit="10" d="M211.7,213.3h-193c-2.8,0-5-2.2-5-5v-193
		c0-2.8,2.2-5,5-5h193c2.8,0,5,2.2,5,5v193C216.7,211.1,214.4,213.3,211.7,213.3z"/>
	<path fill="#BEDB39" stroke="#333333" stroke-width="2" stroke-miterlimit="10" d="M217,112H115V10.3h97c2.8,0,5,2.2,5,5V112z"/>
	<line fill="#EEEEEE" stroke="#333333" stroke-width="2" stroke-miterlimit="10" x1="14" y1="112" x2="217" y2="112"/>
	<line fill="#EEEEEE" stroke="#333333" stroke-width="2" stroke-miterlimit="10" x1="115" y1="10" x2="115" y2="213"/>
	<text transform="matrix(1 0 0 1 55.3332 66.0002)" fill="#FFFFFF" font-family="'ArialMT'" font-size="21px">¼</text>
	<text transform="matrix(1 0 0 1 157.6665 66)" fill="#FFFFFF" font-family="'ArialMT'" font-size="21px">¼</text>
	<text transform="matrix(1 0 0 1 55.333 168.6667)" fill="#FFFFFF" font-family="'ArialMT'" font-size="21px">¼</text>
	<text transform="matrix(1 0 0 1 157.6664 168.6665)" fill="#FFFFFF" font-family="'ArialMT'" font-size="21px">¼</text>
</g>
<g>
	<path fill="#CB9EE5" stroke="#333333" stroke-width="2" stroke-miterlimit="10" d="M441.7,213.3h-193c-2.8,0-5-2.2-5-5v-193
		c0-2.8,2.2-5,5-5h193c2.8,0,5,2.2,5,5v193C446.7,211.1,444.4,213.3,441.7,213.3z"/>
	<line fill="#EEEEEE" stroke="#333333" stroke-width="2" stroke-miterlimit="10" x1="244" y1="112" x2="447" y2="112"/>
	<line fill="#EEEEEE" stroke="#333333" stroke-width="2" stroke-miterlimit="10" x1="345" y1="10" x2="345" y2="213"/>
	<path fill="#BEDB39" stroke="#333333" stroke-width="2" stroke-miterlimit="10" d="M345.7,112h-102V15.3c0-2.8,2.2-5,5-5h97V112z"
		/>
	<path fill="#BEDB39" stroke="#333333" stroke-width="2" stroke-miterlimit="10" d="M345.7,213.7h-97c-2.8,0-5-2.2-5-5V112h102
		V213.7z"/>
	<text transform="matrix(1 0 0 1 285.3332 66.0002)" fill="#FFFFFF" font-family="'ArialMT'" font-size="21px">¼</text>
	<text transform="matrix(1 0 0 1 387.6665 66)" fill="#FFFFFF" font-family="'ArialMT'" font-size="21px">¼</text>
	<text transform="matrix(1 0 0 1 285.333 168.6667)" fill="#FFFFFF" font-family="'ArialMT'" font-size="21px">¼</text>
	<text transform="matrix(1 0 0 1 387.6664 168.6665)" fill="#FFFFFF" font-family="'ArialMT'" font-size="21px">¼</text>
</g>
<g>
	<path fill="#F9BE70" stroke="#333333" stroke-width="2" stroke-miterlimit="10" d="M671.7,213.3h-193c-2.8,0-5-2.2-5-5v-193
		c0-2.8,2.2-5,5-5h193c2.8,0,5,2.2,5,5v193C676.7,211.1,674.4,213.3,671.7,213.3z"/>
	<path fill="#CB9EE5" stroke="#333333" stroke-width="2" stroke-miterlimit="10" d="M575,112H473.7V15.3c0-2.8,2.2-5,5-5H575V112z"
		/>
	<line fill="#EEEEEE" stroke="#333333" stroke-width="2" stroke-miterlimit="10" x1="474" y1="112" x2="677" y2="112"/>
	<line fill="#EEEEEE" stroke="#333333" stroke-width="2" stroke-miterlimit="10" x1="575" y1="10" x2="575" y2="213"/>
	<text transform="matrix(1 0 0 1 515.3331 66.0002)" fill="#FFFFFF" font-family="'ArialMT'" font-size="21px">¼</text>
	<text transform="matrix(1 0 0 1 617.6665 66)" fill="#FFFFFF" font-family="'ArialMT'" font-size="21px">¼</text>
	<text transform="matrix(1 0 0 1 515.333 168.6667)" fill="#FFFFFF" font-family="'ArialMT'" font-size="21px">¼</text>
	<text transform="matrix(1 0 0 1 617.6664 168.6665)" fill="#FFFFFF" font-family="'ArialMT'" font-size="21px">¼</text>
</g>
</svg>
