<?xml version="1.0" encoding="utf-8"?>
<!-- Generator: Adobe Illustrator 18.1.1, SVG Export Plug-In . SVG Version: 6.00 Build 0)  -->
<svg version="1.1" id="Layer_1" xmlns="http://www.w3.org/2000/svg" xmlns:xlink="http://www.w3.org/1999/xlink" x="0px" y="0px"
	 width="660px" height="323.4px" viewBox="0 0 660 323.4" enable-background="new 0 0 660 323.4" xml:space="preserve">
<g>
	<path fill="#F7F6F5" d="M112.8,42.3H12c-0.3,0-0.5-0.2-0.5-0.5v-32c0-0.3,0.2-0.5,0.5-0.5h100.7c0.3,0,0.5,0.2,0.5,0.5v32
		C113.3,42.1,113,42.3,112.8,42.3z"/>
	<g>
		<g>
			<g>
				<g>
					<path fill="#4F4F4F" d="M112.8,42.2c-0.2,0,0,0.1,0.3,0c0,0,0.1-0.2,0.1-0.2c0,0,0,0.1-0.1,0.2
						C112.9,42.2,112.8,42.2,112.8,42.2z"/>
					<path fill="#4F4F4F" d="M113.3,40c0-0.5-0.1-1-0.1-0.7c0.1,0.5,0,0.6,0.1,1.1c0,0.4,0,0.7,0,0.6c0,0.1,0,0.6,0,0.8
						C113.3,41.3,113.3,40.6,113.3,40C113.2,39.8,113.3,40,113.3,40z"/>
					<path fill="#4F4F4F" d="M105.6,9.2l0.2,0C105.8,9.2,105.7,9.2,105.6,9.2z"/>
					<path fill="#4F4F4F" d="M82,9.2c0.2,0,0.3,0,0.3,0C82.1,9.2,82,9.2,82,9.2z"/>
					<path fill="#4F4F4F" d="M78,9.1c0.1,0,0.2,0,0.2,0C78.1,9.1,78,9.1,78,9.1z"/>
					<path fill="#4F4F4F" d="M105.6,9.2l-0.6,0C105,9.2,105.3,9.2,105.6,9.2z"/>
					<path fill="#4F4F4F" d="M113.1,34.7c0,0.1,0,0.2,0,0.3L113.1,34.7L113.1,34.7z"/>
					<polygon fill="#4F4F4F" points="113.4,12.3 113.4,12.5 113.4,12.6 					"/>
					<path fill="#4F4F4F" d="M113.4,20.3c0-0.2,0-0.2-0.1-0.3C113.4,20.1,113.4,20.2,113.4,20.3C113.4,20.4,113.4,20.3,113.4,20.3z"
						/>
					<path fill="#4F4F4F" d="M113.3,32.9l0,0.2C113.3,33.1,113.3,33,113.3,32.9z"/>
					<path fill="#4F4F4F" d="M110.3,9.2C110.3,9.2,110.3,9.2,110.3,9.2C110.2,9.2,110.3,9.2,110.3,9.2z"/>
					<path fill="#4F4F4F" d="M103.5,42.1C103.5,42.1,103.5,42.1,103.5,42.1C103.5,42.1,103.6,42.1,103.5,42.1z"/>
					<path fill="#4F4F4F" d="M112.8,42.3l-0.1,0c0,0,0,0,0,0L112.8,42.3z"/>
					<path fill="#4F4F4F" d="M70.6,9.1C70.6,9.1,70.6,9.1,70.6,9.1C70.8,9.1,70.7,9.1,70.6,9.1z"/>
					<path fill="#4F4F4F" d="M11.3,18.1c0-0.8,0.1,1.2,0.1,0.1C11.4,18.3,11.3,17.2,11.3,18.1z"/>
					<path fill="#4F4F4F" d="M113.1,34.5l0-0.3C113.1,34.3,113.1,34.4,113.1,34.5z"/>
					<path fill="#4F4F4F" d="M11.4,18.2L11.4,18.2l0-0.1C11.4,18.2,11.4,18.2,11.4,18.2z"/>
					<path fill="#4F4F4F" d="M53.6,9.1c0,0,0.1,0,0.2,0C53.8,9.1,53.8,9.1,53.6,9.1z"/>
					<path fill="#4F4F4F" d="M66.3,9.2l-0.3,0C66.1,9.2,66.2,9.2,66.3,9.2z"/>
					<path fill="#4F4F4F" d="M47,9.2c-0.2,0-0.2,0-0.5,0c0,0,0,0,0.1,0C46.7,9.2,46.9,9.2,47,9.2z"/>
					<path fill="#4F4F4F" d="M40.2,9.2c0,0,0.1,0,0.1,0c0.1,0,0.1,0,0.2,0L40.2,9.2z"/>
					<path fill="#4F4F4F" d="M82.7,42.1c0.1,0,0.2,0,0.3,0C82.9,42.1,83.9,42.1,82.7,42.1z"/>
					<path fill="#4F4F4F" d="M113.2,34.7c0,0,0-0.1,0-0.2C113.1,34.6,113.1,34.7,113.2,34.7C113.1,34.8,113.2,34.8,113.2,34.7z"/>
					<path fill="#4F4F4F" d="M46.8,9.6l-1.1,0C46,9.6,46.4,9.6,46.8,9.6z"/>
					<path fill="#4F4F4F" d="M33.6,42.1l0.2,0C33.8,42.1,33.7,42.1,33.6,42.1z"/>
					<path fill="#4F4F4F" d="M42.5,9.6c-0.2,0-0.4,0-0.6,0c0,0-0.1,0-0.1,0L42.5,9.6z"/>
					<path fill="#4F4F4F" d="M83,42.2L83,42.2L83,42.2z"/>
					<path fill="#4F4F4F" d="M90.2,42c-1,0-0.5,0.1-0.7,0.1c-1.2,0-0.6,0-1-0.1c-0.8,0-1.4,0.1-1.9,0.1c0,0-0.2,0,0,0
						c-0.8,0.1-2.4,0-3.4,0.1c-0.1,0-0.1,0-0.1,0c0.2,0,0.2,0.1,0.1,0.1c-0.5,0-0.9,0-1,0c0.3,0,0.3,0,0.4,0l-0.5,0
						c-0.4-0.1,0.7,0,0.7-0.1c-0.9,0-2.1,0.1-2.8,0.1c-0.2-0.1,1.7,0,0.7-0.1l1.1,0c-0.9-0.1,0.7,0-0.1-0.1c-1.5,0-1.7,0-3.1,0
						c-0.3,0,0.1,0-0.2,0.1c-2.1,0.1-1.7-0.1-3.2-0.1c-0.4,0-0.6,0.1-1.7,0.1l0.4-0.1c-1.4,0-0.8,0.1-2.3,0.1c0.3,0,1.1,0,0.9,0
						c-1-0.1-0.7,0-1.4,0l-0.2-0.1c-1.5,0-3.2,0-4.9,0.1c0.1,0,0.4,0,0-0.1c-2.1,0-4.6,0-6.6,0l-0.8,0.1c-0.2,0-0.3,0-0.1,0
						c-0.8,0,0,0-0.4,0.1c-0.5,0-0.6,0-0.3,0c-1.4,0-4,0.1-5.5,0l0.3,0c-1.2,0-1.3,0.1-2.4,0.1l0.2,0c-2.5,0-5.3,0-7.2-0.1
						c-0.4,0.1-2.5,0-2.7,0.1c-1.4-0.1-1-0.1-3.1-0.1c-0.5,0-0.8,0.1-1.5,0.1l0-0.1L35,42.2l-0.5-0.1l-0.6,0c0.2,0,0.5,0,0.5,0
						c-0.5,0-1.1,0-1.6,0s-0.8,0-0.8-0.1l-2.3,0c0.1,0,0.4,0,0.7,0c-1.2,0.1-0.2-0.1-1.4,0c0.2,0-0.1,0-0.1,0c-0.6,0-1.9,0-2.8,0
						l0.2,0c-1.7,0-3.6,0-5.6,0c0.7,0,0.5,0.1,0,0.1l-0.2-0.1c-0.4,0,0.6,0-0.2,0.1c-0.7,0-0.5-0.1-0.1-0.1l-0.9,0
						c-0.1,0,0.2,0,0.2,0c-0.4,0-1.5-0.1-2,0l0,0c-1.9,0-2.8,0-4.4,0c0,0-0.6,0-1.1,0.1c-0.2,0-0.4-0.2-0.3-0.4c0-0.3,0-0.6,0-0.9
						c0-0.6,0-1.3,0-2c0-1,0-0.3-0.1-0.7c0-0.1,0-1.5,0.1-0.7c0-1.7,0-2.1,0-4.2c0,0.2,0,0.5,0,0.4c0-0.4,0-0.9,0-0.8l0,0.1
						c-0.1-2.4,0.1-5.5,0-7.4l0,0.1l0-2c0-0.9,0,0.5,0.1-0.1c-0.1-2.1,0-3.3,0-5.1c0.1-1.3,0-4.8,0.1-6.6l0,0.1c0-0.5,0-0.6,0-0.9
						c0,0,0,0.5,0,0.2l0-0.7c0-0.2,0-0.6,0-0.7c0-0.1,0.1-0.1,0.2-0.2c0.1,0,0.1,0,0.3,0l0.8,0c1,0,2,0,3.1,0c2.1,0,4.1,0,6.2,0.1
						c1.5,0,0.8-0.2,2.7-0.1l-0.5,0.1c3-0.1,6.2,0,9.1-0.1c-0.2,0-0.2,0-0.5,0c0.3,0,0.9,0,1.4,0c0.2,0,0.5,0,0.6,0
						c0.2,0,0.3,0,0.3,0c0.5,0,0.1,0,0.4,0c0.6,0,1.6-0.1,1.9,0c0.1,0-0.2,0-0.3,0c0.4,0,1.9,0,1.5,0c1.1,0,2.1,0,3,0
						c0.6-0.1,1.9,0,2.1-0.1c-0.1,0.1,1.9,0.1,2.6,0c-0.2,0,0.6,0,0.3,0.1c0.8,0,1.5,0,1.4-0.1c1.5,0.1,3-0.1,3.8,0
						c2.4,0,4.6-0.1,6.7-0.1c-0.1,0.1-2.4,0-2.3,0.1c2,0,3.2-0.1,5.2-0.1c0.5,0-0.3,0-0.5,0c2,0,3.9,0,5.7,0c0,0-0.2,0-0.4,0
						c0.4,0,0.8,0,0.8,0l-0.3,0c-0.6-0.1,1.4-0.1,1.5-0.1c-0.6,0.1,1.8,0,0.8,0.2c0.2,0,0.5,0,0.5,0c0.3,0,0.5,0,0.1,0
						c1.3,0,0.8-0.1,2-0.1c0,0-0.2,0-0.4,0c0.6,0,1.2-0.1,2.1-0.1c-0.1,0,0.1,0-0.2,0c1.7,0,2.8-0.1,4.7-0.1c-0.5,0.1,0.6,0,0.7,0.1
						l1,0l-0.4,0c0.9,0,1.6,0,2.4,0l-0.6,0l1.6,0l-0.9,0c0.9,0-0.1-0.1,1.1-0.1c-0.2,0,0.9,0,1.3,0l0,0c0.4,0,0.9,0,1.5,0
						c0.2,0-0.1,0.1,0,0.1c0.4-0.1,2,0,2.6-0.1c-0.2,0-0.2,0-0.1,0.1l0.4,0c0.4,0,0.5,0,0.4,0c1.2,0-0.4-0.1,1,0c-0.1,0-0.1,0-0.3,0
						c1.4,0,2.8,0,4.1,0c0.4,0.1-1.1,0-0.7,0.1c1.9,0,3.9-0.1,5.8-0.1l-0.3,0c0.3-0.1,1.4,0,2.3,0c-0.2,0-0.3,0.1-0.2,0
						c1.3,0,2.6,0,4.5-0.1l-0.2,0c0.7,0,2,0,2.8,0c0.2,0,0.7,0,0.4-0.1c1.2,0.1,2.4,0,3.6,0c0.3,0,0.6,0,0.9,0
						c0.3,0,0.6-0.1,0.8,0.1c0.2,0.1,0.2,0.4,0.2,0.7c0,0.3,0,0.5,0,0.8c0-0.3,0-0.6,0-0.4l0,1.9c0-0.1,0-0.2,0.1-0.6
						c0,0.2,0,0.8,0,1.2c0-0.8-0.1,0-0.1,0.4c0-0.1,0,0.1,0,0c-0.1,1,0.1,0.2,0,1.5l0-0.1c0,0.5,0,1,0,1.5c0,0.2,0-0.5-0.1-0.6
						c0,0.8,0.1,1.5,0,2.2c0-0.3,0-0.8,0-1.1c-0.1,0.7,0,0.8,0,1.4l0-0.1l0,1.3l0-0.3c0.1,0.9,0,1.9,0.1,3.2c-0.1-1.2,0-0.2-0.1-0.3
						c0,0.3,0,0.8,0,0.7c0,0.6,0,1,0,1.9c0,0,0,0.6,0,0.5c0,0.8,0-0.2,0.1-0.1c0.1,1.2-0.1,2.8,0,4.6c0.1,1.5,0.1,1.8,0.1,3.2
						c0,0.5-0.1-0.4-0.1-0.4c0,0.8,0,1.3,0,2c0-0.1,0,0,0,0.2c0,0.6,0.1,0.4,0,1.1c0-0.1,0-0.3-0.1-0.6c0,0.7,0,1.3,0.1,2
						c0,0.2,0-0.4-0.1-0.7c0,0.8,0,2,0.1,2.3l0-0.5c0,0.3,0,0.1,0-0.1c0-0.7,0-1,0-1l0,0.5c0.1-0.5,0-2,0-3l0.1,0.4l-0.1-1
						c0-0.2,0.1-0.4,0.1,0.1c0-0.7,0-0.6,0-1.2c0-0.1,0,0,0,0l0-0.7c0,0.1,0.1-0.1,0,0.3c0-1.3-0.1-2,0-2.5l0,0.1
						c0-1.7-0.1-0.2-0.1-1.5l0.1-0.9l-0.1-0.2c0-0.2,0-0.5,0-0.5c0-0.7,0,0.1-0.1-0.3c0-0.9,0-2.4,0.1-2.6c0-0.3,0,0.8-0.1-0.1
						c0.1-0.3,0-1.1,0-1.9c0,0.2,0,1,0.1,0.2c-0.1-0.5,0-1.5,0-2.2c-0.1,0,0-1.4,0-2.6c0,0.1,0-2.1,0.1-3.1l0,0
						c-0.1-0.2-0.1-1.3-0.1-2.1c0,0,0.1,0.2,0.1,0.6l0-0.7c0-0.2,0-0.4,0-0.9l0,0.2c0-0.5,0-1,0-1.5c0-0.1,0-0.3,0-0.4
						c0-0.1,0-0.3-0.2-0.5c-0.1-0.1-0.3-0.2-0.5-0.2c-0.1,0-0.3,0-0.5,0c-0.1,0,1,0.1-0.3,0.2c0,0-0.1-0.1,0.2-0.1
						c-0.1,0-0.4,0-0.6,0l0.5,0c-0.6,0-0.3,0-0.8,0c0,0-0.3,0-0.3-0.1c0.1,0,0.4,0,0.6,0c-0.5,0-1.1,0-1.3-0.1c0,0,0,0-0.4,0.1
						c-1,0-0.3,0-0.9-0.1c-0.2,0-0.9,0-0.9,0.1c-0.3,0-0.3,0-0.4,0c-0.5,0-2.4,0-1.8,0.1l0.1,0c0,0-0.1,0-0.1,0h0h0
						c-1.7,0.1-3.4,0-5.1,0l0,0c-1,0-2.2,0-2.9,0c-0.3,0-0.7,0-0.6-0.1c-0.8,0-0.8,0-1.9,0c0.8,0-0.3,0,0.8,0c-1,0-1.2,0-2.2,0
						c0.4,0-0.7-0.1-1.2,0l0.7,0c-0.5,0-1,0-1.4,0l0.3-0.1c-2-0.1-3.6,0.1-5.1,0c-0.5,0,1.1,0,0.6,0.1c-0.9,0-1.9-0.1-2.2-0.1
						c-1.3,0-1.2,0.1-2.5,0.1c0.2,0,0.3,0.1-0.7,0.1c-0.9,0-1.1-0.1-0.5-0.1c0.2,0,0.3,0,0.3,0c0.3,0,0.7,0,0.3,0l-0.1,0
						c-0.5,0-1.7,0-1.4-0.1c-0.7,0-0.3,0,0.2,0c-1.2,0-1.8,0-3.1,0c0.2,0,0.4,0,0.2,0c-1.8,0-0.8,0-2,0c-0.7,0,0.2-0.1-1,0
						c-0.7,0-0.2-0.1,0.1-0.1c-1.1,0-2.1,0-2.7,0l0.6,0c-0.4,0-0.6,0-0.9,0l0.3,0c-0.3,0-0.6,0-0.6,0c-0.4,0,0.3,0.1-0.4,0.1
						c-0.5,0-1.4,0-1.5,0c1.4,0-0.2-0.1,1.1-0.1c-0.2,0-0.5,0-0.9,0c-0.1,0,0,0,0.1,0c-1.4,0-0.6,0.1-2.1,0.1c0.2,0-0.3-0.1-0.6-0.1
						c0.6,0,0.3,0.1-0.3,0.1c-0.9,0-1,0-1.5,0l0.5,0c-0.2,0-0.6,0-1.3,0c-0.1,0,0.6,0,0.4,0c-0.7,0.1-1.6-0.1-2.6,0
						c-0.5,0,0-0.1-0.4-0.1c-1.1,0-1.2,0-2.4,0c0.3,0,0.4,0-0.4,0.1l1.9,0l-1.2,0.1c0.6,0,1.2,0,1.6,0c-0.6,0-0.5,0-0.2,0.1
						c-0.8-0.1-1.6,0-2.5,0l0-0.1c-1.4,0-2.4,0.1-4.2,0l0.6,0c-0.2,0-1.1,0-1.7,0c0.1,0-0.3,0-0.6-0.1c0,0-1.3,0-1.5,0.1l-0.8,0
						c-1.4,0-1.6,0.1-3,0.1c0.4,0-0.2-0.1,0.7-0.1c-0.5,0-0.9,0-0.9,0c-0.3,0-1.3,0-1.7,0c-0.2,0-0.3,0.1-0.8,0c-0.1,0,0,0,0,0
						c0,0-0.8,0-0.4,0.1c-1.4-0.1-4,0-5.2-0.1c-1,0-2.2,0-3.1,0c0.1,0,0,0,0.2,0c-1.3,0-0.8,0.1-2.2,0.1c-0.7-0.1,0.8,0,0.3-0.1
						c-0.2-0.1-1.7,0-2.7-0.1l0.2,0c-0.7,0-1.8,0-3,0c0,0,0.1,0,0,0c-0.8,0.1-2.4,0.1-3.5,0.1c0.4,0,0.5,0,0.3-0.1
						c-0.5,0,0.2,0.1-0.9,0.1c-0.3,0-1.1,0-1.2-0.1l1,0c-0.5-0.1-1.3,0-1.8,0l0.1,0c-1.5,0-1.5,0.1-3.1,0.1l0.2,0
						c-0.9,0.1-0.7,0-1.6,0l-0.3-0.1c-0.6,0-2,0.1-3.1,0.1c0.6-0.1,1.8-0.1,2.6-0.1c-0.6,0-2,0-2.3,0c0.2,0,0.5,0,0.8,0
						c-0.7,0.1-1.6,0.1-2.8,0.1c0.1-0.1-0.6-0.1-1.5-0.1c-0.2,0-0.4,0-0.7,0c-0.2,0-0.6,0-0.7,0.3c-0.1,0.1-0.1,0.2-0.1,0.4
						c0,0.1,0,0.2,0,0.3c0,0.2,0,0.3,0,0.4c0,2,0,4,0,6.4c0.1-0.8,0,0.7,0.1,0.5c0,0.5,0,0.8,0,0.8l-0.1,1.7c0,0.4,0-0.5,0-0.5
						c0,1.2,0,0.5-0.1,1.3c0-0.2,0.1,0.4,0,1.1l0-1c0.1,1.7-0.1,1.5,0,3.2l0-0.5c0,0.9,0,3.2,0.1,4.1c0,0.2,0,0.4,0,0
						c0,2.1,0.1,4.6,0,6.2l0-0.2c0,0.4,0,0.7,0,1.2c0,0,0-0.2,0,0c0,0.2,0,1,0,1.5l0-0.4c0,2,0.1,3.1,0.1,4.8c0,0-0.1,0.4-0.1,0.9
						l0,0.2c0,0.1,0,0.2,0,0.3c0.1,0.2,0.2,0.3,0.4,0.4c0.2,0.1,0.4,0.1,0.5,0.1c0.1,0,0.2,0,0.3,0l0,0c2.4,0,4-0.1,6.2-0.1
						c1.4,0.1,4.6,0,6.8,0.1c-0.3,0,0.1-0.1,0.4-0.1c0.5,0,1.4-0.1,1.3,0l-0.2,0c0.4,0.1,1.4,0.1,2.3,0.1l0.1-0.1
						c2.2,0.1,5.6,0,6.8,0.1c0.5,0,1.2,0,1.7,0l0,0c1.4,0,2.2,0,3.9,0l-0.4,0c1,0,1.3-0.1,2.2-0.1l0.3,0.1c1.7,0,3.5,0.1,5.2,0
						c0,0-0.1,0-0.4,0c0.8,0,3.2,0,2.9-0.1c0,0.1,1.8,0,2.7,0l-0.1,0c0.8-0.1,0.8-0.1,1.9-0.1c0.3,0,0.2,0-0.1,0c0.9,0,0.7,0,1.8,0
						l-0.4,0c0.9,0,0.8,0,1.3,0c0.6,0,1.7,0,1.8,0.1c0.1,0,0.6-0.1,1.2,0c0.1,0-0.1,0-0.2,0c1.5,0,2.2-0.1,3.3,0c0,0,0.1,0,0.2,0
						c-1.2,0-2,0-2.1,0c0,0,1,0.1,0.2,0.1c0.8,0,2.1-0.1,3.1-0.1l0.1,0l-0.1,0c0.2,0,0.4,0,0.6,0c0.3,0,0.5,0,0.8,0
						c0.1,0,1.1,0,1.6,0c0,0,0.6,0,0-0.1c0.1,0-0.1,0-0.4,0c-0.1,0-0.2,0-0.2,0l0,0c-0.3,0-0.7,0-1.2,0c0.4,0,0.8,0,1.3,0
						c0.3,0,0.5-0.1,0.7-0.1c0.7,0.1,1.9,0.1,2.1,0.1c1.5,0,3.5,0,4.4-0.1c0.4,0,0.5,0,0.6,0c-0.2,0-0.5,0-0.7,0
						c0.8,0,2.5,0,2.7-0.1c1.1,0-0.6,0.1,0.9,0l-0.2,0c2.9,0.1,4.7-0.2,7.8,0c-0.2,0-0.3,0-0.4,0c3.6,0.1,7.5-0.1,11,0
						c1,0,1.1,0,1.7-0.1l0.2,0.1l1.1-0.1c1.5,0,2.6,0.1,4.5,0l-0.2,0c0.7,0,2.2,0,2,0c0.1,0,0.2,0,0.5,0l0,0l1.7,0
						c1.3,0-0.2,0.1,1.7,0.1c0.7,0,2-0.1,1.7-0.1c-0.3,0-0.7,0-0.7,0l0.6,0c0.1-0.1,0.6-0.2-1-0.2l-1.1,0l-0.4,0l0.9,0
						c-0.5,0-0.9,0-1.2,0c-0.1,0-0.2,0-0.5,0l-1.1,0.1c-0.1,0,0.5-0.1-0.2-0.1c-0.5,0,0.5,0.1-0.4,0.1c-0.5,0-0.4-0.1-1,0
						c-0.1,0,0,0,0.3,0c-0.6,0-1.5,0-1.7,0.1c-0.5,0-1.9,0-1.8-0.1c-0.2,0-1,0.1-1.5,0.1c0.9-0.1-1.9,0-1.7-0.1
						c-0.7,0.1-2.5,0-3.7,0.1c0.1,0,0.2,0,0.3,0c-0.7,0-0.9,0-1.3,0c-0.1,0.1-1.2,0.1-1.7,0.1c-0.8-0.1,0.5-0.1,0.2-0.1
						c0,0.1-1.5,0.1-1.2,0.1c-0.6,0-0.6,0-0.9-0.1c-0.1,0.1-0.6,0-1.1,0.1c-0.9,0-0.2-0.1-1.3-0.1C89.3,42.1,90.2,42,90.2,42z
						 M66,42.2L66,42.2c0.2,0,0.4,0,0.5,0C66.4,42.2,66.2,42.2,66,42.2z M64,42.2c0.2,0,0.6,0,0.9,0c0.1,0,0,0-0.2,0
						C64.7,42.2,64.3,42.2,64,42.2z M68.3,42.5c-0.3,0-0.4,0-0.5,0C67.9,42.5,68.1,42.5,68.3,42.5c0.1,0,0.1,0,0.1,0
						C68.4,42.5,68.3,42.5,68.3,42.5z"/>
					<path fill="#4F4F4F" d="M68.8,42.5c0,0,0.1,0,0.1,0C68.9,42.5,68.8,42.4,68.8,42.5c-0.1,0-0.1,0-0.2,0
						C68.7,42.5,68.8,42.5,68.8,42.5z"/>
					<path fill="#4F4F4F" d="M105.9,9.2L105.9,9.2C105.9,9.2,105.9,9.2,105.9,9.2C105.9,9.2,105.9,9.2,105.9,9.2z"/>
					<polygon fill="#4F4F4F" points="35.9,42.1 35.9,42.1 36.1,42.1 					"/>
					<path fill="#4F4F4F" d="M113.2,13.4c0,0,0,0.1,0,0.1C113.2,13.5,113.2,13.5,113.2,13.4z"/>
					<path fill="#4F4F4F" d="M113.2,18.2l0,0.7C113.2,18.6,113.2,18.4,113.2,18.2z"/>
					<path fill="#4F4F4F" d="M113.1,21.9C113.2,22,113.2,22,113.1,21.9L113.1,21.9L113.1,21.9z"/>
					<path fill="#4F4F4F" d="M66.5,9.5c0,0-0.1,0-0.1,0C66.1,9.5,66.3,9.5,66.5,9.5z"/>
					<path fill="#4F4F4F" d="M84.1,9.4c-0.2,0-0.4,0-0.6,0C83.9,9.4,84.1,9.4,84.1,9.4z"/>
					<path fill="#4F4F4F" d="M46.9,9.6L46.9,9.6c0,0-0.1,0-0.1,0L46.9,9.6z"/>
					<path fill="#4F4F4F" d="M82.8,9.4c0.3,0,0.6,0,0.8,0C83.3,9.4,83,9.4,82.8,9.4z"/>
					<path fill="#4F4F4F" d="M113.1,38.1l0,0.2c0,0,0,0,0,0L113.1,38.1z"/>
					<path fill="#4F4F4F" d="M113.1,38.3l0,0.2C113.1,38.4,113.1,38.3,113.1,38.3z"/>
					<path fill="#4F4F4F" d="M113.1,38.9l0-0.4C113.1,38.6,113.1,38.8,113.1,38.9z"/>
					<path fill="#4F4F4F" d="M113.1,33.1L113.1,33.1C113.1,33.1,113.1,33.1,113.1,33.1z"/>
					<path fill="#4F4F4F" d="M113.1,31.6c0,0.4,0,0.9,0,1.4l0,0C113.1,32.8,113.2,32,113.1,31.6z"/>
					<path fill="#4F4F4F" d="M113.4,25.4l0,1.3c0-0.2,0-0.5,0,0.1C113.5,25.1,113.4,27,113.4,25.4z"/>
					<path fill="#4F4F4F" d="M113.4,21.5C113.4,22.2,113.4,21.5,113.4,21.5C113.4,21.1,113.4,21,113.4,21.5z"/>
					<path fill="#4F4F4F" d="M97.1,9.2L97.1,9.2C96.7,9.2,97.2,9.2,97.1,9.2z"/>
					<polygon fill="#4F4F4F" points="91.8,9.4 92.3,9.5 92.5,9.4 					"/>
					<polygon fill="#4F4F4F" points="88.6,9.1 88.8,9.1 88,9.1 					"/>
					<path fill="#4F4F4F" d="M41.4,9.1l0.2,0.1C41.9,9.2,42,9.1,41.4,9.1z"/>
					<path fill="#4F4F4F" d="M21.1,9.2c-0.2,0-0.8,0-1.1,0C20.4,9.2,20.8,9.2,21.1,9.2z"/>
					<polygon fill="#4F4F4F" points="30.5,42.5 30.1,42.5 30.8,42.5 					"/>
				</g>
			</g>
		</g>
	</g>
</g>
<rect x="10.3" y="18.4" fill="none" width="105.9" height="15.9"/>
<text transform="matrix(1 0 0 1 35.5389 27.0234)" font-family="'ArialMT'" font-size="12">ANALYSE</text>
<g>
	<path fill="#F6F6FA" d="M12.4,33.8h636.7c0.9,0,1.7,0.7,1.7,1.7v115.9c0,1.4-1.1,2.6-2.6,2.6H12.4c-0.9,0-1.7-0.7-1.7-1.7V35.5
		C10.7,34.6,11.5,33.8,12.4,33.8z"/>
	<g>
		<g>
			<g>
				<g>
					<path fill="#9B99CA" d="M12.4,34.4c0.4,0,0.5-0.1,0.2-0.1c-0.2,0-0.3-0.1-0.6,0c-0.2,0.1-0.6,0.3-0.8,0.7c0,0-0.1,0.3,0,0.6
						c0.1,0.4,0.1,0.8,0.1,0.8s0-0.2,0-0.5c0-0.1,0-0.2,0-0.3c0-0.1,0-0.1,0-0.2c0-0.1,0.1-0.3,0.1-0.4
						C11.8,34.4,12.4,34.4,12.4,34.4z"/>
					<path fill="#9B99CA" d="M10.8,47.7c0.1,2.6,0.4,5.6,0.6,3.9c-0.3-2.6-0.2-3.2-0.5-5.9c0-2.2,0.1-3.8,0.2-3.5
						c-0.1-0.8,0.1-3.4-0.1-4.6c-0.2,2.9-0.2,6.5,0,10.3C10.9,48.6,10.8,47.9,10.8,47.7z"/>
					<path fill="#9B99CA" d="M120.3,154.3l-1.4,0C119.3,154.3,119.8,154.3,120.3,154.3z"/>
					<path fill="#9B99CA" d="M253.6,154.5c-1,0-1.4,0-1.5,0.1C253,154.5,253.8,154.5,253.6,154.5z"/>
					<path fill="#9B99CA" d="M276.3,154.8c-0.5,0-0.9,0-1.3,0C275.5,154.8,276,154.8,276.3,154.8z"/>
					<path fill="#9B99CA" d="M120.3,154.3l3.6,0.1C124.1,154.3,122,154.3,120.3,154.3z"/>
					<path fill="#9B99CA" d="M11.4,77.3c0-0.7,0-1.4-0.1-1.9c0,0.6,0,1.2,0,1.8C11.4,77.2,11.4,77.3,11.4,77.3z"/>
					<path fill="#9B99CA" d="M61.5,154.6l-1.1,0c-0.3,0-0.6,0.1-0.9,0.1L61.5,154.6z"/>
					<path fill="#9B99CA" d="M16.4,154.6c1,0,1.4-0.2,1.8-0.3c-0.6,0.1-1.3,0.1-2.2,0.2C16,154.5,16.1,154.5,16.4,154.6z"/>
					<path fill="#9B99CA" d="M10.5,87.4l0-1.3C10.5,86.5,10.5,87.1,10.5,87.4z"/>
					<path fill="#9B99CA" d="M93.8,154.6c0.1,0,0.2,0.1,0.4,0.1C94.2,154.7,94.1,154.6,93.8,154.6z"/>
					<path fill="#9B99CA" d="M64.7,34.9C64.7,34.9,64.6,34.9,64.7,34.9C64.4,34.9,64.3,34.9,64.7,34.9z"/>
					<path fill="#9B99CA" d="M12.4,33.8l0.7,0c0.1,0,0.2-0.1,0.2-0.1L12.4,33.8z"/>
					<path fill="#9B99CA" d="M318,155.1c-0.1,0-0.1,0-0.2,0C316.7,155.1,317.3,155.1,318,155.1z"/>
					<path fill="#9B99CA" d="M651.7,103.2c-0.2,4.3-0.3-7-0.5-0.5C651.3,102.1,651.6,108.6,651.7,103.2z"/>
					<path fill="#9B99CA" d="M11.4,78.5c0,0.6,0,1.2,0,1.8C11.4,79.5,11.4,78.9,11.4,78.5z"/>
					<path fill="#9B99CA" d="M651.2,102.7L651.2,102.7l0,0.7C651.2,103.1,651.2,102.9,651.2,102.7z"/>
					<path fill="#9B99CA" d="M414,154.9c-0.2,0-0.6-0.1-1-0.1C413,154.9,413.2,154.9,414,154.9z"/>
					<path fill="#9B99CA" d="M342.5,154.6l1.8,0C343.5,154.6,343,154.6,342.5,154.6z"/>
					<path fill="#9B99CA" d="M451.1,154.6c1,0,1.3,0.1,2.6,0c-0.1,0-0.2,0-0.4,0C452.8,154.6,452.2,154.7,451.1,154.6z"/>
					<path fill="#9B99CA" d="M489.7,154.6c-0.2,0-0.5,0-0.7,0c-0.4,0-0.8,0-1.2,0L489.7,154.6z"/>
					<path fill="#9B99CA" d="M182.1,34.8c-0.8-0.1-1.4-0.1-1.8-0.2C180.9,34.8,175.2,34.8,182.1,34.8z"/>
					<path fill="#9B99CA" d="M11.3,77.4c0.1,0.2,0.1,0.6,0.1,1.1c0-0.4,0-0.9,0-1.3C11.4,77.1,11.3,77.1,11.3,77.4z"/>
					<path fill="#9B99CA" d="M452.6,152.8l6.1,0C457.1,152.8,454.8,152.8,452.6,152.8z"/>
					<path fill="#9B99CA" d="M459.3,34.8l-1.4,0C458.4,34.8,458.9,34.8,459.3,34.8z"/>
					<path fill="#9B99CA" d="M477,152.8c1.1,0.1,2.3,0.1,3.5,0.2c0.3,0,0.5,0,0.7-0.1L477,152.8z"/>
					<path fill="#9B99CA" d="M180.3,34.6C180.3,34.6,180.3,34.6,180.3,34.6C180.3,34.6,180.3,34.6,180.3,34.6z"/>
					<path fill="#9B99CA" d="M139.9,35.1c5.8,0,2.7-0.3,4-0.5c7-0.1,3.2,0.2,5.6,0.4c4.4-0.1,7.7-0.4,11-0.4
						c0.2,0.1,0.9,0.1,0.1,0.1c4.6-0.2,13.7,0,19-0.3c0.4,0,0.6,0.1,0.7,0.1c-0.9-0.2-1-0.3-0.8-0.4c2.6,0,4.9-0.2,5.9,0
						c-1.6,0-1.7,0.1-2.5,0.1l2.7-0.1c2.5,0.3-3.8,0.1-3.8,0.3c5.4-0.1,11.6-0.3,15.7-0.3c0.9,0.3-9.6,0.1-4.1,0.3l-6.4-0.1
						c4.9,0.4-3.9,0,0.6,0.4c8.4,0.1,9.4-0.1,17.7-0.1c1.9-0.2-0.6-0.2,1.3-0.4c11.9-0.3,9.3,0.7,18,0.3c2.3-0.2,3.1-0.5,9.3-0.4
						l-2.1,0.3c8.1,0,4.6-0.5,13.1-0.2c-1.5,0.1-6.4,0.1-5.1,0.1c5.5,0.3,3.9-0.2,8.1-0.2l0.9,0.3c8.6-0.1,18.1-0.2,27.7-0.3
						c-0.5,0.1-2.2,0.2,0.1,0.3c12-0.1,25.7,0,37.3,0.2l4.4-0.2c1,0,1.9,0.1,0.8,0.2c4.5,0.1,0.2-0.2,2.4-0.3c2.6,0,3.4,0.1,1.8,0.2
						c8-0.2,22.7-0.4,31.2-0.2l-1.6,0.1c6.6,0.1,7.4-0.5,13.5-0.3l-1.2,0c14.2,0.1,29.9-0.1,40.8,0.3c2.1-0.4,14.1,0.2,15-0.3
						c8.1,0.2,5.8,0.3,17.2,0.5c3.1,0,4.6-0.3,8.3-0.4l0.1,0.3l5.1-0.3l2.7,0.3l3.5-0.1c-1.4,0-3-0.1-2.8-0.2c2.8-0.1,6.1,0,8.8,0.1
						c1.3,0,2.5,0.1,3.4,0.1s1.4,0.1,1.4,0.1l13.1-0.2c-0.3,0.1-2.5,0.1-4.2,0.2c7-0.3,1.3,0.3,7.7,0c-0.9-0.1,0.5-0.2,0.6-0.2
						c3.2,0.2,10.5,0.2,15.8,0.1l-1,0.2c9.7,0,20.5-0.1,31.4-0.1c-3.9-0.1-3-0.4,0.2-0.4l1.3,0.3c2.1-0.2-3.3-0.1,0.9-0.3
						c4.1,0,2.7,0.3,0.4,0.4l4.9-0.1c0.3,0.1-0.9,0.1-1.2,0.2c2-0.2,8.5,0.3,11.5,0l0.3,0.1c10.9,0,15.8-0.1,24.7-0.1
						c0.2-0.2,3.6-0.2,6.3-0.4c6.5,0.1,13.8,0.3,21.6,0.2c5.5-0.1,1.6-0.2,4.1-0.3c0.4,0.2,8.3,0.2,4.2,0.3c9.4,0,12,0,24-0.2
						c-1.3-0.1-2.7-0.1-2-0.2c2.2,0,4.9,0.1,4.6,0.2l-0.6,0c3.3-0.1,6.9-0.1,10.6,0c2.4-0.1,2.1,0.3,2.1,2.6c0,1.9-0.1,3.7-0.1,5.6
						c-0.1,7.4-0.3,14.4,0,19.7l0-0.6l0.2,11.1c0,5.1-0.2-3-0.3,0.7c0.4,11.9-0.1,18.8,0.2,28.6c-0.6,7.6,0,27-0.4,37.2l0.1-0.6
						c0.1,2.7-0.1,3.2-0.1,5.2c0.1-0.3,0.1-2.9,0.2-1.2c0,2.8,0,5.6,0,8.5c0,0.5-0.2,0.9-0.5,1.2c-0.2,0.2-0.4,0.3-0.6,0.3
						c-0.1,0-0.2,0.1-0.3,0.1c-0.1,0-0.2,0-0.4,0c-1.4,0-2.9,0-4.3,0c-5.8,0-11.6-0.1-17.4-0.1c-11.7-0.1-23.4-0.2-34.9-0.3
						c-8.4,0-4.8,0.8-15.4,0.4l3-0.3c-17,0.3-34.7,0-51.4,0.3c1-0.1,1-0.1,2.6-0.1c-1.8-0.1-5-0.1-7.8-0.1c-1.4,0-2.7,0.1-3.7,0.1
						s-1.6,0.1-1.6,0.1c-2.6,0-0.6-0.1-2.2-0.2c-3.5-0.1-8.8,0.3-10.7,0.1c-0.3,0,1-0.1,1.6-0.1c-2.3,0.1-10.7,0-8.5,0.2
						c-6.2-0.1-11.9,0.1-16.9,0c-3.2,0.3-10.7-0.1-11.7,0.2c0.4-0.4-10.9-0.3-14.9-0.1c1.3-0.1-3.4-0.1-1.9-0.3
						c-4.5,0-8.6,0.1-7.8,0.3c-8.3-0.5-16.7,0.4-21.4-0.2c-13.4,0.2-25.8,0.3-37.8,0.4c0.4-0.4,13.3,0,12.8-0.4
						c-11.4,0.2-18,0.5-29.3,0.4c-2.9-0.1,1.7-0.2,2.7-0.2c-11.4,0.2-22.1,0-32.2,0.2c0,0,1.1-0.1,2.2-0.1c-2,0-4.7-0.1-4.4,0.1l2,0
						c3.2,0.2-7.9,0.5-8.3,0.7c3.4-0.5-10-0.1-4.6-0.7c-1.3,0-3,0.1-2.7,0.2c-2,0-2.6-0.1-0.6-0.2c-7.2,0.1-4.6,0.3-11.1,0.3
						c0-0.1,1.3-0.1,2-0.2c-3.3,0.2-6.6,0.3-12.1,0.3c0.3,0-0.3-0.1,1.3-0.1c-9.4,0-16.1,0.4-26.4,0.3c3-0.4-3.5-0.1-4.1-0.4
						l-5.6,0.1l2.2,0.2c-4.9,0-9.2,0.2-13.4,0.1l3.6-0.1l-9.1,0.1l5.2,0.1c-4.9,0.2,0.5,0.4-6,0.3c1.3,0-4.9,0-7.4-0.2l0,0
						c-2.4,0.1-4.9,0.2-8.5,0.1c-0.9-0.1,0.8-0.3,0.1-0.4c-2.4,0.3-11.4,0.1-14.4,0.3c1-0.1,1.1-0.2,0.7-0.3l-2,0.2
						c-2.3-0.1-2.6-0.1-2.2-0.2c-6.8,0,2.2,0.4-5.9,0.2c0.6,0,0.3,0,1.6-0.1c-8.1-0.1-15.6,0.1-23.1,0c-2.2-0.3,6.5-0.1,4-0.3
						c-10.7,0.1-22.2,0.4-32.6,0.3l1.9,0c-1.4,0.4-7.7-0.2-13,0c1.3,0,1.7-0.2,1.3-0.2c-7.1-0.1-14.5,0.1-25.3,0.2l1.3-0.1
						c-4.2-0.1-11-0.1-15.5-0.1c-1.3,0.1-3.9,0.1-2.4,0.3C94,153,81.4,154,69,153.4c1.5,0,3.5-0.1,2.3-0.1l-10.5,0.1
						c0.8,0.2,1.4,0.1,3.6,0.3c-1.3,0.1-4.3,0.2-6.9,0.2c4.7-0.1,0-0.3-2.1-0.4c0.3,0.1-0.4,0.1-0.2,0.2c-5.5-0.3-0.9,0.4-8.4,0.2
						l0.4-0.1c-2.8,0.1-5.4,0.2-8.4,0.2c-1.3-0.2,3-0.1,3.2-0.3c-4.3,0-8.4,0.4-12.3,0.2c1.8,0,4.4-0.1,6.2-0.1
						c-4.2-0.3-4.7-0.2-7.8-0.2l0.3,0l-7.2-0.1l1.8,0.1c-2.7,0.3-5.4,0.3-8.3,0.3c-1.4-0.1-3.4,0.5-3.8-1.1c-0.1-1.5-0.1-3.3-0.2-5
						c0.4,7,0.2,1.2,0.5,1.7c0.1-1.8,0.1-4.6,0.2-3.8c-0.2-3.4,0.2-5.7-0.1-10.5c0.1-0.2,0-3.6,0.2-2.9c-0.1-4.4-0.1,1-0.2,0.7
						c-0.3-6.8,0.3-16,0-25.8c-0.2-8.4-0.4-10-0.6-17.8c0.1-2.6,0.3,2.2,0.3,2.2c0.1-4.3,0.1-7.5,0-11.5c0.1,0.8,0.1,0,0.2-1.2
						c0-3.2-0.3-2.2-0.2-6.4c0.1,0.7,0.2,1.7,0.3,3.2c-0.1-3.8-0.2-7.5-0.3-11.5c0.1-1,0.2,2.4,0.3,3.8c-0.1-4.4-0.1-11.4-0.4-12.8
						l-0.1,2.8c0-1.6,0.2-0.8,0.2,0.4c0.2,3.8-0.1,5.5-0.2,5.7L11,60.9c-0.5,2.9,0.1,11.2,0,16.9l-0.3-2.3l0.3,5.8
						c-0.1,1.2-0.3,2.1-0.3-0.7c-0.2,4,0.1,3.6-0.1,7c0,0.4,0,0.2-0.1-0.1l0.1,3.9c-0.1-0.8-0.2,0.7-0.2-1.8
						c-0.2,7.1,0.3,11.4,0,14.1l0-0.6c0.1,9.8,0.3,1,0.6,8.3l-0.6,5l0.3,1c0,1,0,3-0.1,2.7c0.2,3.8,0.1-0.6,0.3,1.5
						c-0.2,4.9,0.1,13.5-0.3,14.6c0.2,1.8,0.1-4.7,0.3,0.5c-0.4,1.5,0.1,6-0.1,10.5c-0.2-1.4-0.1-5.6-0.3-1.1
						c0.2,1.3,0.2,3.5,0.1,5.8l0,0.4c0,0.2,0,0.4,0.1,0.5c0.1,0.3,0.3,0.7,0.5,0.9c0.3,0.3,0.6,0.5,0.9,0.6c0.2,0.1,0.4,0.1,0.5,0.1
						l0.4,0c1.1,0,2.2,0,3.2,0c0.2-0.3,8.2-0.1,14.5-0.2c-0.4,0.1,11.9,0.2,17.8,0.3l-0.2,0.1c1.1-0.3,7.2-0.2,11.6-0.3
						c-0.2,0.2-1,0.3-3.4,0.3l4.1,0c1-0.1,2.3-0.1,5-0.2l-1,0.2c5.5,0,11.1-0.3,18.2-0.1c0.4-0.2-5.6-0.6,1.9-0.7
						c0.3,0.1,0.6,0.3-1.4,0.4c0.6,0,2.3-0.1,3.6,0l-3,0.2c3.2,0.1,1.7-0.2,4.3-0.1c-0.1,0.2,1.9,0.1,1.5,0.2c-0.7,0-2.3-0.1-3.2,0
						c2.9,0,6.4,0.1,7.6,0.3c-0.3-0.1,0-0.2,2.1-0.2c5.5,0,1.9,0.2,5.1,0.3c1.3-0.1,4.9,0,5-0.2c1.6,0,1.9,0.1,2.5,0.2
						c2.9-0.1,13.3,0,10.1-0.3l-0.7,0c0.1,0,0.3,0,0.5,0c0,0,0,0,0,0h0c9.4-0.2,19.4,0.1,28.7,0l0,0.1c5.5-0.1,12.3-0.1,16.3-0.2
						c1.6,0,3.9,0.2,3.2,0.2c4.2-0.1,4.7-0.2,10.8,0c-4.3,0.1,1.5,0.1-4.4,0.1c5.5,0.1,6.8,0.2,12.7,0c-2,0.2,4.1,0.3,6.8,0.2
						l-3.9-0.2c2.9,0,5.5,0,8.1,0l-1.4,0.3c11.3,0.3,20.3-0.6,28.9,0c3-0.2-6.1-0.1-3.5-0.4c5.2,0,10.6,0.4,12.2,0.4
						c7.1,0.2,6.6-0.4,14.1-0.3c-1-0.1-1.8-0.4,3.7-0.5c5.2,0,6.4,0.4,3.1,0.5c-1.2,0-1.8,0-1.8-0.1c-1.7,0-3.9,0.1-1.8,0.2l0.7-0.1
						c2.6,0.1,9.7,0.1,8,0.3c3.9-0.1,1.7-0.2-1.2-0.2c6.7,0.1,10.4,0,17.2,0.1c-1.1-0.1-2.1-0.2-1-0.2c10,0.1,4.4-0.2,11.2-0.2
						c3.9,0.2-1.4,0.4,5.5,0.2c4.2,0.1,0.9,0.3-0.8,0.3c6.2-0.2,11.7,0.1,15.2,0.2l-3.3,0.1c2,0,3.6,0,5.2,0l-1.9-0.2
						c1.9,0,3.6,0,3.5,0.1c2-0.1-1.5-0.3,2.4-0.5c2.6,0.1,7.8-0.1,8.7,0.2c-8.1-0.1,0.9,0.3-6,0.3c1.3,0,2.9,0,4.9,0
						c0.3,0-0.3,0.1-0.8,0.1c7.7,0.2,3.6-0.3,11.6-0.3c-1,0.1,1.9,0.3,3.2,0.2c-3.2,0-1.5-0.2,1.4-0.4c5.1,0.1,5.6-0.1,8.3-0.1
						l-3.1-0.1c1-0.1,3.6-0.1,7.2-0.2c0.3,0.1-3.3,0.1-2,0.1c4-0.3,9,0.3,14.6,0.1c2.6,0.1,0.2,0.3,2.5,0.3c6.2-0.2,6.7,0.2,13.3,0
						c-1.9-0.2-2.2-0.2,2.4-0.3l-10.8,0.1l6.9-0.3c-3.2,0-6.9,0.1-8.8,0.1c3.3-0.2,3-0.1,1.4-0.3c4.4,0.3,8.8-0.2,13.9,0l-0.2,0.5
						c7.7,0.2,13.7-0.3,23.7-0.1l-3.2-0.1c1.3-0.2,6.2,0,9.4-0.1c-0.3,0.2,1.7,0.2,3.1,0.3c-0.2-0.1,7.3,0,8.3-0.3l4.5,0.2
						c8.1,0.1,9.2-0.5,17-0.4c-2.3,0.2,1.2,0.3-4,0.4c2.6,0,4.9,0,5-0.1c1.5,0.1,7.2-0.2,9.6-0.1c1.1-0.1,1.5-0.2,4.4-0.2
						c0.3,0,0,0.1,0,0.1c0-0.1,4.6-0.1,2-0.3c8,0.5,22.4,0,29.3,0.4c5.7,0,12.5-0.1,17.7-0.1c-0.3,0,0,0.1-1,0.1
						c7.1,0.2,4.4-0.5,12.4-0.3c4.1,0.3-4.3,0.1-1.7,0.2c1.1,0.5,9.8-0.1,15.2,0.2l-1.3,0c4.2,0.2,10.1-0.2,16.9-0.2
						c0,0-0.3,0,0,0.1c4.6-0.3,13.4-0.4,20-0.4c-2,0.2-3,0.1-1.7,0.3c2.9,0-0.9-0.3,5-0.4c1.9,0.1,6.1,0.2,6.7,0.4l-5.5,0
						c2.8,0.3,7.1,0,10,0l-0.4,0.1c8.5,0,8.6-0.4,17.7-0.3l-0.9-0.1c5-0.3,4.2,0.2,9.1-0.1l1.5,0.3c3.3-0.1,11.5-0.3,17.3-0.4
						c-3.3,0.2-10.2,0.4-14.5,0.5c3.2,0,11,0,12.7-0.2c-1.3,0-3,0.1-4.2,0.1c4-0.3,9.2-0.4,15.7-0.4c-0.6,0.3,3.6,0.4,8.6,0.4
						c1.2,0,2.5,0,3.8,0c0.7,0,1.6-0.2,2.2-0.7c0.6-0.5,1-1.2,1.2-1.9c0.1-0.4,0.1-0.7,0.1-1c0-0.3,0-0.6,0-0.8c0-0.5,0-1,0-1.5
						c0-0.9,0.1-1.7,0.1-2.3c-0.2-11.4,0.1-22.7,0.1-36c-0.5,4.7,0-3.9-0.5-3.1c0-3.1,0-4.3,0-4.6l0.3-9.4c0.1-2.2,0.1,3,0.2,2.7
						c0-6.8,0.2-2.9,0.4-7.4c-0.2,0.9-0.3-2.4-0.2-6.2l-0.2,5.5c-0.3-9.5,0.4-8.2,0.2-17.8l0.2,3c-0.1-4.9,0-18.1-0.4-23
						c0.1-0.9,0.2-2,0.2,0.1c0-2.9,0-6,0-9.2c0-1.6,0-3.2-0.1-4.7l0-0.6l0-0.3c0-0.2,0-0.3-0.1-0.5c-0.1-0.6-0.5-1.2-1-1.5
						c-0.5-0.4-1.1-0.6-1.7-0.6l-1.2,0c-6.2,0.1-12.1,0.1-16.7,0l0.9-0.1c-2.2,0-3.8,0.2-6.6,0.1c0.1-0.1,0.9-0.1-0.1-0.1
						c-1.2,0-5.8,0.2-8.7,0.1l2.5-0.1c-11.5-0.2-17.6,0.3-27.2,0.4c0-0.4-9-0.5-13.5-0.5l0.2-0.1c-13.3,0-22.7,0.3-35,0.4
						c-7.7-0.4-26-0.2-38.3-0.4c1.9,0.1-0.3,0.3-2.5,0.3c-2.9-0.1-8,0.3-7.5-0.1l1,0c-2.2-0.3-8.1-0.2-12.8-0.3l-0.8,0.4
						c-12.1-0.6-31.8,0.2-38.4-0.3c-2.9,0.1-6.6,0.2-9.5,0.2l0.2-0.2c-8.1-0.1-12.2-0.1-22.2,0l2-0.2c-5.7,0-7.1,0.7-12.4,0.7
						l-1.6-0.4c-9.9,0-19.9-0.3-29.6,0c0.2-0.1,0.5-0.2,2-0.2c-4.6,0-18-0.2-16.3,0.2c-0.1-0.3-10.2,0-15.5,0.1l0.8-0.2
						c-4.5,0.3-4.6,0.4-10.9,0.5c-1.5,0-1.3-0.2,0.7-0.1c-5-0.1-3.9,0.2-9.9,0.1l2.2-0.1c-5.1,0-4.7,0.1-7.5,0.2
						c-3.2,0.1-9.7-0.1-10.4-0.3c-0.7,0.1-3.5,0.3-6.5,0.2c-0.4-0.1,0.7-0.1,1.2-0.2c-8.5-0.2-12.7,0.3-18.6,0
						c-0.1-0.1-0.5-0.1-1-0.1c6.8,0,12.2,0,11.7,0c0-0.2-5.5-0.3-1.1-0.5c-4.4,0.2-11.9,0.5-17.3,0.4c-0.3,0-0.5,0-0.7-0.1l0.6,0
						c-1.2,0-2.3,0-3.4,0c-1.7,0-2.8-0.1-4.4-0.1c-0.6-0.2-6.3-0.1-9-0.1c0.2,0.2-3.4,0.2,0,0.4c-0.4,0,0.5,0,2.3,0
						c0.4,0,0.9,0,1.2,0c-0.1,0-0.1,0-0.2,0c1.8,0,4.1,0,6.8,0c-2.2,0.1-4.4,0.2-7.4,0.1c-1.4,0.1-2.9,0.3-3.8,0.4
						c-3.7-0.3-10.9-0.5-11.9-0.7c-8.3,0.1-19.7,0.1-24.9,0.5c-2.4,0.1-2.7-0.1-3.6-0.2c1.4,0,3,0,3.7-0.1c-4.7,0.1-14.1,0-15.2,0.4
						c-6-0.1,3.4-0.3-4.9-0.2l1.1-0.1c-16.2-0.5-26.3,0.8-44.2,0.2c1.2,0,1.9,0.1,2.1,0.1c-20.4-0.3-42.1,0.3-62.2-0.2
						c-5.7-0.1-6.3,0.1-9.8,0.3l-1.2-0.3l-6,0.3c-8.5,0.2-14.7-0.6-25.4-0.2l1.4,0.2c-3.9,0-12.2,0.1-11.6-0.1
						c-0.4,0-1.3,0.2-2.8,0.1l-0.1-0.1l-9.5,0.2c-7.3-0.1,1.1-0.5-9.6-0.5c-4,0.1-11.3,0.4-9.8,0.5c1.6,0,4.1,0.1,4.2,0.2l-3.6,0.1
						c-0.7,0.4-3.5,0.8,5.5,1.1l6.2-0.2l2,0.2l-5.2,0c3,0.2,4.9,0,7-0.1c0.5,0.1,1.4,0.2,2.6,0.2l6.1-0.4c0.7,0.2-2.7,0.3,1.4,0.4
						c2.9-0.2-2.7-0.3,2-0.5c3,0.2,2.1,0.3,5.6,0.2c0.5,0.1-0.2,0.2-1.6,0.2c3.1-0.1,8.2-0.1,9.8-0.3c3.1,0.2,10.5-0.1,10.2,0.3
						c1-0.1,5.5-0.3,8.3-0.3c-5.2,0.4,10.7,0,9.3,0.5c3.9-0.4,14-0.2,20.8-0.4c-0.4,0-1.1,0.1-1.7,0.1c3.9,0,5,0.2,7.5,0.2
						c0.5-0.3,6.5-0.4,9.7-0.6c4.7,0.3-2.9,0.4-1.4,0.7c-0.2-0.3,8.2-0.3,6.6-0.5c3.6,0.2,3.1,0.1,5,0.4c0.6-0.4,3.4-0.1,6.4-0.3
						c5.2,0.2,1.3,0.4,7.1,0.3C145,35,139.9,35.1,139.9,35.1z M276.5,34.4L276.5,34.4c-1.2,0-2.2,0-2.8,0
						C274.2,34.5,275,34.4,276.5,34.4z M287.9,34.4c-1.4,0-3.1,0-5,0c-0.4-0.1,0-0.2,1.2-0.2C283.5,34.3,286.2,34.4,287.9,34.4z
						 M263.7,32.8c1.8,0,2.4,0,2.7,0.1c-0.9,0-1.9,0-3.2,0c-0.1,0-0.2,0-0.2,0C263.1,32.9,263.3,32.8,263.7,32.8z"/>
					<path fill="#9B99CA" d="M260.4,33.1c-0.3,0-0.4,0-0.7,0c0.4,0,0.7,0,1.1,0.1c0.2,0,0.4-0.1,0.6-0.1
						C261,33.1,260.7,33.1,260.4,33.1z"/>
					<path fill="#9B99CA" d="M118.7,154.3l0.2,0c-0.2,0-0.4,0-0.5,0C118.6,154.3,118.6,154.3,118.7,154.3z"/>
					<polygon fill="#9B99CA" points="446.5,34.9 446.5,34.8 445.5,34.9 					"/>
					<path fill="#9B99CA" d="M55.4,153.5c-0.1,0-0.4,0-0.8-0.1C54.6,153.4,55,153.5,55.4,153.5z"/>
					<path fill="#9B99CA" d="M28.1,153.4l-3.9-0.1C25.9,153.4,27.1,153.4,28.1,153.4z"/>
					<path fill="#9B99CA" d="M11.3,149.6c0-0.3-0.1-0.3-0.1-0.4c0,0,0,0,0,0L11.3,149.6z"/>
					<path fill="#9B99CA" d="M341,153c0.3,0,0.6,0,0.8,0C343.7,153,342.4,153,341,153z"/>
					<path fill="#9B99CA" d="M241.7,153.6c1.1,0,2.1-0.1,3.2-0.1C243.1,153.5,241.7,153.5,241.7,153.6z"/>
					<path fill="#9B99CA" d="M452,152.8C452,152.8,452,152.8,452,152.8c0.2,0,0.4,0,0.7,0L452,152.8z"/>
					<path fill="#9B99CA" d="M249.5,153.5c-1.8,0-3.2,0-4.6,0C246.3,153.5,248,153.5,249.5,153.5z"/>
					<path fill="#9B99CA" d="M11.5,58.6l0-1c0,0,0,0,0-0.1L11.5,58.6z"/>
					<path fill="#9B99CA" d="M11.4,57.5l0-1.1C11.4,56.9,11.4,57.3,11.4,57.5z"/>
					<path fill="#9B99CA" d="M11.3,54l0.1,2.4C11.4,55.5,11.4,54.5,11.3,54z"/>
					<path fill="#9B99CA" d="M11.3,86.4l0.1,0.3C11.4,86.6,11.4,86.4,11.3,86.4z"/>
					<path fill="#9B99CA" d="M11.4,94.9c0-2,0.2-5.1,0.1-7.9l-0.1-0.3C11.6,88,11.2,92.9,11.4,94.9z"/>
					<path fill="#9B99CA" d="M10.3,130.1l0.1-7.1c-0.1,1.2-0.2,2.9-0.2-0.4C9.9,131.6,10.4,120.8,10.3,130.1z"/>
					<path fill="#9B99CA" d="M10.2,152.1c0-3.8-0.1,0-0.2-0.2c0,0.2,0,0.3,0,0.5c0,0.2,0,0.4,0.1,0.5c0.1,0.3,0.3,0.6,0.4,0.8
						c0.3,0.4,0.6,0.5,0.6,0.5c0.1,0-0.1-0.1-0.4-0.4c-0.1-0.2-0.3-0.4-0.4-0.7c-0.1-0.2-0.1-0.3-0.1-0.5
						C10.2,152.4,10.2,152.2,10.2,152.1z"/>
					<path fill="#9B99CA" d="M168.2,154.5l-0.4,0.2C170.7,154.7,167.8,154.6,168.2,154.5z"/>
					<polygon fill="#9B99CA" points="198.5,153.4 195.7,153.2 194.3,153.4 					"/>
					<polygon fill="#9B99CA" points="216.4,154.9 215.1,154.9 220,154.8 					"/>
					<path fill="#9B99CA" d="M482.8,154.8l-0.9-0.3C480,154.6,479.6,154.9,482.8,154.8z"/>
					<path fill="#9B99CA" d="M597.9,154.6c1.3,0.1,4.5,0.2,6.5,0.1C601.7,154.6,599.2,154.5,597.9,154.6z"/>
					<polygon fill="#9B99CA" points="477,32.8 479.3,32.7 474.9,32.8 					"/>
				</g>
			</g>
		</g>
	</g>
</g>
<g>
	<path fill="#F6F6FA" d="M11.6,161.8l636.2,0c1,0,1.9,0.8,1.9,1.9V311c0,1.6-1.3,2.9-2.9,2.9H11.6c-1,0-1.9-0.8-1.9-1.9V163.7
		C9.7,162.7,10.6,161.8,11.6,161.8z"/>
	<g>
		<g>
			<g>
				<g>
					<path fill="#9B99CA" d="M11.6,162.4c0.4,0,0.5-0.1,0.2-0.2c-0.2,0-0.4-0.1-0.6,0c-0.3,0.1-0.6,0.2-0.8,0.6c0,0-0.1,0.3-0.1,0.6
						c0.1,0.4,0.1,0.8,0.1,0.8s0-0.2,0-0.6c0-0.3,0-0.5,0.2-0.8c0.2-0.2,0.4-0.4,0.6-0.5C11.4,162.4,11.6,162.4,11.6,162.4z"/>
					<path fill="#9B99CA" d="M9.8,176.2c0.2,2.7,0.4,5.8,0.7,4.1c-0.3-2.7-0.2-3.3-0.5-6.2c0-2.3,0.1-4,0.2-3.6
						c-0.1-0.8,0.1-3.6-0.1-4.8c-0.2,3-0.3,6.8-0.1,10.7C9.9,177.2,9.8,176.4,9.8,176.2z"/>
					<path fill="#9B99CA" d="M96.9,314.4l-1.4,0C95.9,314.3,96.4,314.4,96.9,314.4z"/>
					<path fill="#9B99CA" d="M235.8,314.5c-1.1,0-1.5,0-1.6,0.1C235.2,314.6,236,314.6,235.8,314.5z"/>
					<path fill="#9B99CA" d="M259.5,314.9c-0.5,0-0.9,0-1.4,0C258.6,314.9,259.2,314.9,259.5,314.9z"/>
					<path fill="#9B99CA" d="M96.9,314.4l3.7,0.1C100.9,314.4,98.7,314.4,96.9,314.4z"/>
					<path fill="#9B99CA" d="M10.5,207.1c0-0.8,0-1.4-0.1-2c0,0.6,0,1.3,0,1.9C10.5,207,10.5,207,10.5,207.1z"/>
					<path fill="#9B99CA" d="M35.7,314.6l-1.1,0c-0.3,0-0.6,0.1-0.9,0.1L35.7,314.6z"/>
					<path fill="#9B99CA" d="M9,292.1c0,1.1,0.3,1.4,0.4,1.8c-0.1-0.6-0.2-1.4-0.2-2.3C9.1,291.6,9.1,291.8,9,292.1z"/>
					<path fill="#9B99CA" d="M9.5,217.6l0-1.3C9.4,216.6,9.4,217.2,9.5,217.6z"/>
					<path fill="#9B99CA" d="M69.3,314.7c0.1,0,0.2,0.1,0.4,0.1C69.7,314.7,69.6,314.7,69.3,314.7z"/>
					<path fill="#9B99CA" d="M66.1,163.1C66.1,163,66,163,66.1,163.1C65.8,163,65.7,163.1,66.1,163.1z"/>
					<path fill="#9B99CA" d="M11.6,161.7l0.8,0c0.1,0,0.2-0.1,0.2-0.1L11.6,161.7z"/>
					<path fill="#9B99CA" d="M302.9,315.2c-0.1,0-0.1,0-0.2,0C301.6,315.2,302.2,315.2,302.9,315.2z"/>
					<path fill="#9B99CA" d="M650.8,261.1c-0.2,4.5-0.3-7.3-0.6-0.6C650.4,260,650.7,266.8,650.8,261.1z"/>
					<path fill="#9B99CA" d="M10.5,208.3c0,0.6,0,1.3,0,1.9C10.5,209.3,10.5,208.8,10.5,208.3z"/>
					<path fill="#9B99CA" d="M650.2,260.6L650.2,260.6l0,0.7C650.2,261,650.2,260.8,650.2,260.6z"/>
					<path fill="#9B99CA" d="M402.9,315.1c-0.2,0-0.6-0.1-1-0.1C401.9,315,402.1,315,402.9,315.1z"/>
					<path fill="#9B99CA" d="M328.4,314.7l1.8,0C329.5,314.7,328.9,314.7,328.4,314.7z"/>
					<path fill="#9B99CA" d="M441.6,314.7c1,0,1.3,0.1,2.7,0c-0.1,0-0.3,0-0.4,0C443.4,314.7,442.7,314.7,441.6,314.7z"/>
					<path fill="#9B99CA" d="M481.8,314.7c-0.2,0-0.5,0-0.7-0.1c-0.4,0-0.9,0-1.3,0L481.8,314.7z"/>
					<path fill="#9B99CA" d="M188.4,162.9c-0.9-0.1-1.4-0.2-1.9-0.2C187.2,162.9,181.2,162.9,188.4,162.9z"/>
					<path fill="#9B99CA" d="M10.4,207.1c0.1,0.2,0.1,0.6,0.1,1.2c0-0.5,0-0.9,0-1.3C10.4,206.8,10.4,206.8,10.4,207.1z"/>
					<path fill="#9B99CA" d="M443.2,312.6l6.4,0C447.8,312.6,445.5,312.6,443.2,312.6z"/>
					<path fill="#9B99CA" d="M477.2,162.9l-1.5,0C476.3,162.9,476.8,162.9,477.2,162.9z"/>
					<path fill="#9B99CA" d="M468.6,312.6c1.1,0.1,2.4,0.1,3.6,0.2c0.3,0,0.6,0,0.7-0.1L468.6,312.6z"/>
					<path fill="#9B99CA" d="M186.5,162.7C186.5,162.7,186.5,162.7,186.5,162.7C186.5,162.7,186.5,162.7,186.5,162.7z"/>
					<path fill="#9B99CA" d="M144.4,163.3c6.1,0,2.9-0.3,4.2-0.5c7.3-0.1,3.4,0.3,5.8,0.4c4.5-0.1,8-0.4,11.4-0.4
						c0.3,0.1,0.9,0.1,0.1,0.1c4.8-0.3,14.3,0,19.8-0.4c0.4,0,0.6,0.1,0.7,0.1c-0.9-0.2-1-0.4-0.9-0.5c2.7,0,5.1-0.2,6.1,0
						c-1.7,0-1.8,0.1-2.6,0.2l2.9-0.1c2.6,0.3-3.9,0.1-3.9,0.4c5.6-0.1,12.1-0.4,16.4-0.3c0.9,0.3-10,0.1-4.3,0.4l-6.6-0.1
						c5.1,0.5-4,0,0.6,0.5c8.7,0.1,9.7-0.2,18.4-0.1c2-0.2-0.6-0.3,1.3-0.4c12.3-0.3,9.7,0.8,18.8,0.4c2.4-0.2,3.3-0.6,9.7-0.4
						l-2.2,0.4c8.4,0,4.8-0.5,13.6-0.3c-1.6,0.1-6.6,0.1-5.4,0.2c5.7,0.3,4-0.2,8.4-0.2l0.9,0.3c9-0.1,18.9-0.2,28.8-0.3
						c-0.6,0.1-2.3,0.2,0.1,0.3c12.5-0.2,26.8,0,38.9,0.2l4.6-0.3c1.1,0,2,0.1,0.8,0.2c4.7,0.1,0.2-0.2,2.5-0.3
						c2.7,0,3.5,0.2,1.8,0.2c8.3-0.2,23.7-0.5,32.5-0.2l-1.7,0.1c6.8,0.1,7.7-0.6,14-0.3l-1.2,0c14.8,0.1,31.2-0.1,42.5,0.3
						c2.1-0.4,14.7,0.2,15.6-0.4c8.5,0.3,6,0.4,17.9,0.6c3.2,0,4.7-0.3,8.7-0.4l0.1,0.3l5.3-0.3l2.8,0.3l3.7-0.1
						c-1.5,0-3.1-0.1-2.9-0.2c2.9-0.1,6.4,0,9.2,0.1c2.8,0.1,4.9,0.2,5,0.3l13.6-0.2c-0.3,0.1-2.6,0.2-4.4,0.2c7.3-0.3,1.3,0.3,8,0
						c-0.9-0.1,0.5-0.2,0.6-0.2c3.3,0.2,10.9,0.2,16.5,0.1l-1.1,0.2c10.1,0.1,21.3-0.1,32.7-0.1c-4.1-0.1-3.1-0.4,0.2-0.5l1.3,0.3
						c2.1-0.2-3.5-0.1,0.9-0.3c4.2,0,2.9,0.3,0.4,0.4l5.2-0.1c0.3,0.1-0.9,0.1-1.2,0.3c2.1-0.2,8.9,0.3,11.9,0l0.3,0.1
						c11.3-0.1,16.5-0.1,25.7-0.1c0.2-0.3,3.8-0.2,6.5-0.4c6.8,0.1,14.3,0.3,22.5,0.3c5.8-0.1,1.7-0.2,4.3-0.4
						c0.4,0.2,8.6,0.2,4.4,0.4c4.9,0,8,0,11.5-0.1c0.4,0,1,0,1.1,0c0.2,0,0.4,0.1,0.5,0.3c0.1,0.1,0.1,0.2,0.1,0.3
						c0,0.1,0,0.2,0,0.5c0,0.5,0,1,0,1.6c0,2.2,0.1,4.7,0.1,7.8c0.1-1.3,0.1-2.9,0.2-2.1c0,2.3-0.1,5.1-0.2,4.8l0-0.6
						c0.4,13.9-0.7,32.2-0.2,43.3l0-0.6l0.3,11.5c0,5.3-0.2-3.2-0.3,0.7c0.4,12.4-0.1,19.6,0.2,29.9c-0.7,7.9,0,28.1-0.4,38.8
						l0.2-0.6c0.2,2.8-0.1,3.3-0.1,5.4c0.1-0.3,0.2-3,0.2-1.3c0,2.9,0,5.8,0,8.7c-0.1,0.9-0.9,1.7-2,1.7c-1.5,0-3,0-4.5,0
						c-6,0-12.1-0.1-18.1-0.1c-12.1-0.1-24.4-0.2-36.4-0.3c-8.8,0-5,0.9-16,0.5l3.1-0.3c-17.7,0.4-36.2,0-53.5,0.3
						c1-0.1,1.1-0.2,2.8-0.2c-1.8-0.1-5.2-0.1-8.1-0.1c-1.5,0-2.8,0.1-3.8,0.1c-1,0-1.6,0.1-1.6,0.1c-2.7,0-0.6-0.2-2.3-0.3
						c-3.7-0.1-9.2,0.3-11.2,0.1c-0.3,0,1-0.1,1.7-0.1c-2.4,0.1-11.1,0-8.9,0.2c-6.5-0.1-12.4,0.1-17.6,0
						c-3.4,0.3-11.1-0.1-12.2,0.3c0.5-0.4-11.4-0.3-15.5-0.1c1.4-0.1-3.6-0.1-2-0.3c-4.7,0-9,0.1-8.2,0.3
						c-8.6-0.5-17.4,0.4-22.2-0.2c-13.9,0.2-26.8,0.4-39.4,0.5c0.5-0.4,13.9,0,13.3-0.5c-11.9,0.2-18.8,0.5-30.6,0.4
						c-3.1-0.1,1.7-0.2,2.8-0.3c-11.9,0.2-23,0-33.6,0.2c0,0,1.2-0.1,2.2-0.1c-2.1,0-4.8-0.1-4.6,0.1l2-0.1c3.3,0.3-8.3,0.6-8.7,0.7
						c3.5-0.6-10.4-0.1-4.8-0.8c-1.4,0-3.1,0.1-2.8,0.3c-2,0-2.7-0.1-0.6-0.3c-7.5,0.1-4.8,0.3-11.6,0.3c0-0.1,1.4-0.1,2.1-0.2
						c-3.4,0.2-6.9,0.4-12.6,0.3c0.3-0.1-0.3-0.1,1.4-0.1c-9.8,0-16.7,0.5-27.5,0.3c3.2-0.4-3.7-0.1-4.2-0.5l-5.8,0.1l2.3,0.2
						c-5.1,0-9.6,0.2-13.9,0.1l3.8-0.1l-9.5,0.1l5.4,0.1c-5.1,0.2,0.6,0.4-6.2,0.3c1.4,0-5.1,0-7.7-0.2l0,0
						c-2.5,0.1-5.1,0.2-8.8,0.1c-1-0.1,0.8-0.4,0.1-0.5c-2.5,0.3-11.9,0.1-15,0.4c1-0.1,1.1-0.3,0.8-0.3l-2.1,0.2
						c-2.4-0.1-2.7-0.1-2.3-0.3c-7.1,0,2.2,0.4-6.1,0.3c0.7,0,0.3-0.1,1.7-0.1c-8.4-0.1-16.3,0.2-24,0c-2.3-0.4,6.8-0.1,4.2-0.4
						c-11.2,0.1-23.1,0.4-33.9,0.3l2,0c-1.5,0.5-8-0.2-13.5,0c1.3,0,1.8-0.3,1.4-0.2c-7.4-0.1-15.1,0.1-26.3,0.3l1.4-0.1
						c-4.4-0.1-11.5-0.1-16.2-0.1c-1.4,0.1-4.1,0.1-2.5,0.3c-14.5-0.7-27.7,0.4-40.6-0.2c1.5,0,3.7-0.1,2.4-0.1l-11,0.1
						c0.9,0.2,1.4,0.1,3.7,0.3c-1.4,0.1-4.5,0.2-7.2,0.2c4.9-0.1,0-0.3-2.2-0.5c0.4,0.1-0.4,0.1-0.2,0.2c-5.7-0.4-1,0.4-8.8,0.2
						l0.4-0.1c-2.9,0.1-5.6,0.2-8.8,0.2c-1.3-0.3,3.1-0.1,3.3-0.3c-1.1,0-2.2,0-3.3,0.1c-0.3,0-0.5,0-0.8,0c-0.2,0-0.4-0.1-0.6-0.3
						c-0.4-0.3-0.7-0.7-0.7-1.2c-0.1-2.1-0.1-4.2,0-6.2c0,0.9,0,2.1,0.1,3.2c0,0.6,0,1.1,0,1.7c0,0.3,0,0.5,0,0.8
						c0,0.3,0,0.5,0.1,0.7c0-0.2,0-0.5,0-0.7c0-0.2,0-0.5,0-0.7c0-0.4,0-0.8,0.1-1.2c0-0.7,0-1.3,0.1-1.8c0-1.1,0-2,0-3.6l0,0.3
						l0.1-7.5l-0.1,1.9c-0.7-5.6-0.1-11.3-0.5-18.8c0.4,7.3,0.2,1.2,0.5,1.8c0.1-1.9,0.2-4.8,0.2-4c-0.2-3.5,0.2-5.9-0.2-10.9
						c0.1-0.2,0-3.8,0.2-3c-0.1-4.6-0.2,1.1-0.3,0.7c-0.3-7.1,0.4-16.7,0-26.8c-0.2-8.8-0.5-10.4-0.6-18.6c0.1-2.8,0.3,2.3,0.3,2.3
						c0.1-4.4,0.1-7.8,0-12c0.1,0.8,0.1,0,0.3-1.3c0-3.4-0.3-2.2-0.2-6.7c0.1,0.8,0.3,1.7,0.4,3.4c-0.1-4-0.2-7.9-0.3-12
						c0.2-1.1,0.2,2.5,0.3,3.9c-0.1-4.6-0.1-11.9-0.4-13.4l-0.1,3c0-1.7,0.2-0.9,0.3,0.4c0.2,3.9-0.1,5.7-0.2,5.9L10,190
						c-0.5,3,0.1,11.7,0.1,17.6l-0.4-2.4l0.3,6c-0.1,1.3-0.3,2.2-0.4-0.7c-0.2,4.2,0.1,3.7-0.1,7.3c0,0.4-0.1,0.2-0.1-0.2l0.1,4.1
						c-0.1-0.8-0.3,0.7-0.2-1.8c-0.2,7.4,0.3,11.9,0,14.7l0-0.6c0.1,10.2,0.3,1,0.6,8.7l-0.7,5.2l0.3,1c0,1.1,0,3.1-0.1,2.8
						c0.2,3.9,0.1-0.7,0.3,1.6c-0.3,5.1,0.1,14-0.3,15.2c0.2,1.8,0.2-4.9,0.3,0.6c-0.5,1.5,0.1,6.3-0.1,10.9
						c-0.3-1.4-0.1-5.8-0.3-1.2c0.4,2.8-0.1,9,0,13c0.3,0.2,0.1,8.5,0.3,15.1c0-0.1-0.1,0.6-0.1,1.9c0,0.6,0,1.4,0,2.2
						c0,0.4,0,0.9,0,1.3c0,0.6,0.2,1.1,0.7,1.6c0.4,0.4,1,0.7,1.7,0.7c0.5,0,1,0,1.5,0c1,0,2.1,0,3.1,0c2.1,0,4,0.1,5.5,0.1
						l-0.2,0.1c1.2-0.3,7.5-0.3,12.1-0.4c-0.2,0.2-1,0.3-3.5,0.4l4.3,0c1-0.1,2.4-0.2,5.2-0.2l-1.1,0.3c5.8,0,11.6-0.3,19-0.1
						c0.4-0.2-5.9-0.7,1.9-0.8c0.3,0.1,0.6,0.4-1.5,0.4c0.7,0,2.4-0.1,3.7-0.1l-3.1,0.2c3.4,0.1,1.8-0.2,4.5-0.2
						c-0.1,0.2,2,0.1,1.6,0.3c-0.7,0-2.4-0.1-3.4,0c3,0,6.7,0.1,7.9,0.3c-0.3-0.1,0-0.2,2.2-0.3c5.8,0,2,0.2,5.3,0.3
						c1.4-0.1,5.1,0,5.2-0.3c1.7,0,2,0.1,2.6,0.2c3-0.1,13.9,0,10.5-0.3l-0.8,0c0.1,0,0.3,0,0.5,0c0,0,0,0,0,0h0
						c9.8-0.3,20.3,0.2,29.9,0l0,0.1c5.8-0.1,12.9-0.1,17-0.3c1.7,0,4,0.2,3.3,0.3c4.4-0.1,4.9-0.2,11.3,0c-4.4,0.2,1.5,0.1-4.6,0.1
						c5.7,0.1,7,0.2,13.2,0c-2.1,0.2,4.3,0.3,7,0.2l-4-0.2c3.1,0,5.7,0,8.5,0l-1.5,0.3c11.7,0.4,21.2-0.6,30.1,0
						c3.1-0.2-6.4-0.2-3.6-0.4c5.4,0,11,0.5,12.7,0.5c7.4,0.2,6.9-0.5,14.6-0.3c-1-0.1-1.9-0.4,3.9-0.5c5.4,0,6.6,0.5,3.2,0.6
						c-1.3,0-1.9,0-1.9-0.1c-1.7,0-4,0.1-1.9,0.2l0.7-0.1c2.7,0.1,10.1,0.1,8.4,0.3c4.1-0.1,1.7-0.2-1.3-0.2c6.9,0.2,10.8,0,18,0.1
						c-1.1-0.1-2.2-0.2-1.1-0.2c10.5,0.1,4.6-0.2,11.7-0.3c4,0.2-1.4,0.4,5.7,0.3c4.4,0.1,0.9,0.3-0.8,0.4
						c6.5-0.2,12.2,0.1,15.9,0.2l-3.4,0.1c2-0.1,3.7-0.1,5.4-0.1l-2-0.2c2,0,3.7,0,3.7,0.1c2.1-0.1-1.6-0.4,2.5-0.6
						c2.7,0.1,8.2-0.1,9.1,0.2c-8.4-0.1,0.9,0.3-6.2,0.3c1.4,0,3.1,0,5.1,0c0.3,0-0.3,0.1-0.8,0.1c8.1,0.3,3.7-0.3,12.1-0.3
						c-1.1,0.2,1.9,0.3,3.3,0.3c-3.4,0-1.6-0.3,1.5-0.4c5.4,0.1,5.8-0.1,8.6-0.1l-3.2-0.1c1.1-0.2,3.8-0.1,7.5-0.2
						c0.3,0.1-3.4,0.1-2.1,0.1c4.2-0.3,9.4,0.3,15.2,0.1c2.7,0.1,0.3,0.3,2.6,0.4c6.5-0.2,7,0.2,13.8,0c-2-0.2-2.3-0.2,2.5-0.4
						l-11.2,0.2l7.2-0.3c-3.4,0-7.1,0.1-9.2,0.1c3.4-0.2,3.1-0.1,1.5-0.3c4.6,0.3,9.2-0.2,14.5,0l-0.2,0.6c8,0.2,14.3-0.3,24.7-0.1
						l-3.4-0.1c1.4-0.2,6.5,0,9.8-0.1c-0.3,0.2,1.8,0.3,3.2,0.4c-0.2-0.1,7.6,0,8.6-0.4l4.7,0.2c8.4,0.1,9.6-0.5,17.7-0.5
						c-2.4,0.2,1.2,0.3-4.2,0.5c2.7,0,5.1,0,5.2-0.1c1.6,0.1,7.5-0.2,10-0.1c1.1-0.1,1.5-0.3,4.6-0.3c0.3,0,0,0.1,0,0.1
						c0-0.1,4.8-0.1,2.1-0.3c8.3,0.6,23.3,0,30.6,0.5c5.9,0,13-0.1,18.4-0.1c-0.3,0.1,0,0.1-1,0.1c7.4,0.2,4.5-0.5,13-0.3
						c4.3,0.3-4.5,0.2-1.8,0.3c1.2,0.6,10.2-0.1,15.8,0.3l-1.4,0c4.3,0.2,10.6-0.2,17.6-0.2c0,0-0.3,0.1,0,0.1
						c4.8-0.3,14-0.4,20.8-0.5c-2.1,0.2-3.1,0.1-1.8,0.4c3.1,0-0.9-0.4,5.2-0.5c2,0.1,6.4,0.2,7,0.5l-5.7,0c2.9,0.3,7.4,0,10.5,0
						l-0.4,0.1c8.8,0,8.9-0.4,18.4-0.4l-1-0.1c5.2-0.4,4.3,0.2,9.5-0.1l1.6,0.4c3.4-0.1,12-0.4,18.1-0.4c-3.5,0.3-10.6,0.4-15.1,0.6
						c3.4,0,11.5,0,13.3-0.2c-1.4,0-3.1,0.1-4.4,0.1c4.2-0.3,9.6-0.4,16.4-0.4c-0.6,0.4,3.8,0.4,8.9,0.4c1.3,0,2.6,0,3.9,0
						c0.8,0,1.6-0.2,2.3-0.7c0.7-0.5,1.1-1.2,1.4-1.9c0.1-0.4,0.2-0.8,0.2-1.1c0-0.3,0-0.6,0-0.9c0-0.6,0-1.1,0.1-1.6
						c0-1,0.1-1.8,0.2-2.4c-0.3-11.9,0.1-23.7,0.1-37.5c-0.6,4.9,0-4.1-0.6-3.2c0-3.2,0-4.5,0-4.8l0.3-9.8c0.2-2.3,0.1,3.1,0.3,2.8
						c0-7.1,0.2-3,0.4-7.7c-0.2,1-0.3-2.5-0.2-6.5l-0.3,5.7c-0.3-9.9,0.5-8.6,0.2-18.5l0.2,3.2c-0.1-5.1,0-18.9-0.5-23.9
						c0.1-0.9,0.2-2.1,0.3,0.2c0.1-12.2-0.5-27.2-0.2-36.8l0.1,0.9c0-1.1-0.1-2.1-0.1-3.2c0-0.5,0-1.1,0-1.7c0-0.3,0-0.6,0-0.9
						c0-0.3,0.1-0.6,0-1.2c0.1,0.1,0.1,0.5,0.2,0.6c0,0,0,0.1,0-0.1c0-0.1,0-0.4-0.1-0.8c-0.1-0.5-0.5-1.3-1.5-1.8
						c-0.2-0.1-0.5-0.2-0.8-0.3c-0.3-0.1-0.6-0.1-0.8,0c-0.4,0-0.8,0-1.3,0c-1.7,0-3.7,0.1-5.2,0l2.6-0.2
						c-11.9-0.2-18.3,0.4-28.3,0.5c0-0.4-9.4-0.5-14.1-0.6l0.2-0.1c-13.9-0.1-23.6,0.3-36.5,0.5c-8-0.4-27.1-0.2-39.9-0.4
						c2,0.1-0.3,0.3-2.6,0.4c-3-0.1-8.3,0.3-7.9-0.1l1.1,0c-2.3-0.4-8.5-0.3-13.3-0.3l-0.8,0.5c-12.6-0.7-33.1,0.3-40-0.4
						c-3.1,0.1-6.8,0.1-9.9,0.2l0.2-0.3c-8.5-0.1-12.7-0.1-23.1,0l2.1-0.2c-5.9,0-7.4,0.8-12.9,0.8l-1.6-0.4
						c-10.3,0-20.7-0.3-30.9,0c0.2-0.1,0.5-0.2,2.1-0.2c-4.8,0-18.7-0.3-17,0.3c-0.1-0.4-10.6,0-16.2,0.1l0.9-0.3
						c-4.7,0.3-4.8,0.4-11.4,0.5c-1.6,0-1.4-0.2,0.7-0.1c-5.2-0.1-4,0.2-10.3,0.1l2.3-0.2c-5.3,0-4.9,0.1-7.8,0.3
						c-3.3,0.1-10.1-0.1-10.9-0.3c-0.7,0.1-3.6,0.3-6.8,0.3c-0.4-0.1,0.7-0.1,1.3-0.2c-8.9-0.2-13.2,0.3-19.3,0
						c-0.1-0.1-0.5-0.1-1-0.2c7.1,0,12.8,0,12.2,0c0-0.2-5.7-0.3-1.2-0.6c-4.6,0.2-12.4,0.6-18,0.5c-0.3,0-0.5,0-0.7-0.1l0.6,0
						c-1.3,0-2.4,0-3.5,0c-1.8,0-2.9-0.1-4.6-0.1c-0.7-0.2-6.5-0.1-9.4-0.1c0.2,0.3-3.5,0.2,0,0.4c-0.5,0,0.5,0,2.4,0
						c0.4,0,0.9,0,1.2,0c-0.1,0-0.1,0-0.2,0c1.9,0,4.3,0,7.1,0c-2.2,0.1-4.6,0.2-7.7,0.1c-1.5,0.2-3.1,0.3-4,0.4
						c-3.9-0.4-11.4-0.6-12.5-0.8c-8.7,0.1-20.5,0.1-25.9,0.6c-2.5,0.1-2.8-0.1-3.8-0.2c1.4-0.1,3.1,0,3.9-0.1
						c-4.9,0.1-14.6,0-15.8,0.4c-6.2-0.2,3.5-0.3-5.1-0.3l1.2-0.1c-16.8-0.6-27.4,0.9-46,0.2c1.3,0,1.9,0.1,2.2,0.1
						c-21.3-0.3-43.9,0.3-64.9-0.2c-6-0.1-6.6,0.1-10.3,0.3l-1.3-0.3l-6.2,0.3c-8.8,0.2-15.3-0.7-26.5-0.2l1.4,0.2
						c-4,0-12.7,0.1-12-0.1c-0.4,0-1.3,0.2-2.9,0.1l-0.1-0.1l-9.9,0.3c-7.6-0.1,1.2-0.6-10-0.6c-4.1,0.1-11.8,0.4-10.3,0.5
						c1.7,0,4.3,0.1,4.4,0.2l-3.8,0.1c-0.7,0.4-3.6,0.9,5.7,1.2l6.5-0.3l2.1,0.2l-5.5,0c3.1,0.2,5.1,0,7.3-0.1
						c0.5,0.1,1.4,0.2,2.7,0.2l6.4-0.4c0.8,0.2-2.9,0.3,1.4,0.4c3-0.2-2.9-0.4,2.1-0.5c3.1,0.2,2.2,0.4,5.8,0.2
						c0.5,0.1-0.3,0.2-1.7,0.2c3.2-0.1,8.6-0.1,10.3-0.3c3.2,0.2,11-0.1,10.6,0.4c1-0.1,5.7-0.3,8.7-0.3c-5.4,0.5,11.2,0,9.7,0.6
						c4-0.4,14.6-0.2,21.7-0.4c-0.4,0-1.2,0.1-1.8,0.1c4,0,5.2,0.2,7.8,0.3c0.5-0.4,6.8-0.5,10.1-0.7c4.9,0.4-3,0.4-1.4,0.8
						c-0.2-0.3,8.6-0.3,6.9-0.5c3.8,0.2,3.2,0.1,5.2,0.4c0.7-0.5,3.5-0.1,6.6-0.4c5.4,0.2,1.4,0.4,7.4,0.3
						C149.7,163.1,144.4,163.3,144.4,163.3z M286.7,162.5L286.7,162.5c-1.2,0-2.3,0-2.9,0C284.4,162.5,285.3,162.5,286.7,162.5z
						 M298.7,162.5c-1.5,0-3.3,0-5.2,0c-0.4-0.1,0-0.2,1.2-0.2C294.1,162.4,296.9,162.4,298.7,162.5z M273.4,160.7
						c1.9,0,2.5,0,2.8,0.1c-0.9,0-1.9,0-3.3,0c-0.1,0-0.2,0-0.2,0C272.8,160.8,273,160.7,273.4,160.7z"/>
					<path fill="#9B99CA" d="M270,161c-0.3,0-0.4,0-0.8,0c0.4,0,0.8,0,1.1,0.1c0.2,0,0.5-0.1,0.7-0.1C270.7,161,270.3,161,270,161z"
						/>
					<path fill="#9B99CA" d="M95.2,314.3l0.3,0c-0.2,0-0.4,0-0.5,0C95.1,314.3,95.1,314.3,95.2,314.3z"/>
					<polygon fill="#9B99CA" points="463.9,163 463.9,163 462.8,163 					"/>
					<path fill="#9B99CA" d="M29.3,313.4c-0.1,0-0.4,0-0.9-0.1C28.5,313.4,28.9,313.4,29.3,313.4z"/>
					<path fill="#9B99CA" d="M10.3,304.3l0.1-4C10.3,302,10.3,303.3,10.3,304.3z"/>
					<path fill="#9B99CA" d="M10.4,282.4c0-0.3-0.1-0.4-0.1-0.4c0,0,0,0,0,0L10.4,282.4z"/>
					<path fill="#9B99CA" d="M326.9,312.9c0.3,0,0.6,0,0.8,0C329.7,312.9,328.4,312.9,326.9,312.9z"/>
					<path fill="#9B99CA" d="M223.4,313.5c1.1,0,2.2-0.1,3.3-0.1C224.8,313.4,223.4,313.4,223.4,313.5z"/>
					<path fill="#9B99CA" d="M442.5,312.6C442.5,312.6,442.5,312.6,442.5,312.6c0.2,0,0.5,0,0.7,0L442.5,312.6z"/>
					<path fill="#9B99CA" d="M231.5,313.4c-1.8-0.1-3.4,0-4.8,0C228.2,313.4,230,313.5,231.5,313.4z"/>
					<path fill="#9B99CA" d="M10.5,187.6l0-1.1c0,0,0,0,0-0.1L10.5,187.6z"/>
					<path fill="#9B99CA" d="M10.5,186.4l0-1.2C10.5,185.8,10.5,186.2,10.5,186.4z"/>
					<path fill="#9B99CA" d="M10.4,182.8l0.1,2.5C10.5,184.4,10.5,183.3,10.4,182.8z"/>
					<path fill="#9B99CA" d="M10.4,216.5l0.1,0.3C10.5,216.7,10.5,216.6,10.4,216.5z"/>
					<path fill="#9B99CA" d="M10.5,225.3c0-2.1,0.2-5.3,0.1-8.2l-0.1-0.3C10.7,218.2,10.3,223.3,10.5,225.3z"/>
					<path fill="#9B99CA" d="M9.3,262.1l0.1-7.4c-0.1,1.3-0.2,3-0.3-0.4C8.8,263.6,9.3,252.4,9.3,262.1z"/>
					<path fill="#9B99CA" d="M9.1,284.9c0-4-0.1,0-0.2-0.2C9,287.3,9,287.9,9.1,284.9z"/>
					<path fill="#9B99CA" d="M146.8,314.5l-0.4,0.2C149.5,314.7,146.4,314.7,146.8,314.5z"/>
					<polygon fill="#9B99CA" points="178.4,313.3 175.4,313.1 174,313.4 					"/>
					<polygon fill="#9B99CA" points="197.1,315 195.7,315 200.8,315 					"/>
					<path fill="#9B99CA" d="M474.7,314.9l-0.9-0.3C471.7,314.7,471.2,315,474.7,314.9z"/>
					<path fill="#9B99CA" d="M594.5,314.6c1.3,0.1,4.7,0.2,6.8,0.1C598.5,314.7,595.9,314.6,594.5,314.6z"/>
					<polygon fill="#9B99CA" points="495.7,160.6 498.1,160.5 493.5,160.6 					"/>
				</g>
			</g>
		</g>
	</g>
</g>
</svg>
