<?xml version="1.0" encoding="utf-8"?>
<!-- Generator: Adobe Illustrator 18.1.1, SVG Export Plug-In . SVG Version: 6.00 Build 0)  -->
<svg version="1.1" id="Layer_1" xmlns="http://www.w3.org/2000/svg" xmlns:xlink="http://www.w3.org/1999/xlink" x="0px" y="0px"
	 width="76.3px" height="183.9px" viewBox="0 0 76.3 183.9" enable-background="new 0 0 76.3 183.9" xml:space="preserve">
<g>
	<g>
		<g>
			<g>
				<g>
					<path fill="#4F4F4F" d="M55.5,17.1c0.1,0.1,0,0.4-0.3,0.3L55,17L55.5,17.1z"/>
					<path fill="#4F4F4F" d="M53.4,17.9c-0.4-0.2-0.8-0.6-0.5-1c0.4,0.4,0.4,0.2,0.8,0.7c0.3,0.1,0.5-0.1,0.5-0.3
						c0.1,0.1,0.5-0.1,0.6,0.2c-0.4,0.3-0.9,0.3-1.4,0.1C53.3,17.7,53.4,17.9,53.4,17.9z"/>
					<path fill="#4F4F4F" d="M23.6,19.1c0,0,0.2-0.1,0.2-0.1C23.7,19.1,23.7,19.1,23.6,19.1z"/>
					<path fill="#4F4F4F" d="M14.7,32.7c0-0.1,0.1-0.2,0.1-0.2C14.8,32.6,14.8,32.7,14.7,32.7z"/>
					<path fill="#4F4F4F" d="M15.2,35.8c0-0.1,0-0.1,0-0.2C15.2,35.7,15.2,35.8,15.2,35.8z"/>
					<path fill="#4F4F4F" d="M23.6,19.1l-0.4,0.3C23.1,19.3,23.4,19.2,23.6,19.1z"/>
					<path fill="#4F4F4F" d="M49.3,16.9c0.1,0,0.2,0.1,0.3,0.1C49.5,17,49.4,17,49.3,16.9C49.3,16.9,49.3,16.9,49.3,16.9z"/>
					<path fill="#4F4F4F" d="M31.6,19l0.2,0c0,0,0.1,0.1,0.1,0.2L31.6,19z"/>
					<path fill="#4F4F4F" d="M37.9,19c-0.1,0-0.2-0.3-0.2-0.5c0.1,0.1,0.2,0.2,0.3,0.2C38,18.8,37.9,18.9,37.9,19z"/>
					<path fill="#4F4F4F" d="M47.9,18.4l0.2,0.1C48,18.4,47.9,18.4,47.9,18.4z"/>
					<path fill="#4F4F4F" d="M27.1,19.1c0,0.1,0,0.1,0,0.1C27.1,19.1,27.1,19.1,27.1,19.1z"/>
					<path fill="#4F4F4F" d="M45.5,162.1C45.5,162.1,45.5,162.1,45.5,162.1C45.5,162.1,45.5,162.1,45.5,162.1z"/>
					<path fill="#4F4F4F" d="M52.8,160.3l-0.1,0c0-0.1,0-0.1,0-0.2L52.8,160.3z"/>
					<path fill="#4F4F4F" d="M15.7,41.7C15.7,41.6,15.7,41.6,15.7,41.7C15.7,41.5,15.7,41.6,15.7,41.7z"/>
					<path fill="#4F4F4F" d="M15.4,95c-0.3-0.6-0.4,1-0.8,0.1C14.8,95.2,15.2,94.3,15.4,95z"/>
					<path fill="#4F4F4F" d="M49.1,17c-0.1,0-0.2,0-0.3,0C49,16.9,49.1,16.9,49.1,17z"/>
					<path fill="#4F4F4F" d="M14.6,95.1L14.6,95.1L14.6,95.1C14.6,95.1,14.6,95.1,14.6,95.1z"/>
					<path fill="#4F4F4F" d="M15.4,55.1c-0.1,0-0.1-0.1-0.2-0.1C15.3,54.9,15.4,55,15.4,55.1z"/>
					<path fill="#4F4F4F" d="M14.9,45.1l0,0.2C14.9,45.2,14.9,45.1,14.9,45.1z"/>
					<path fill="#4F4F4F" d="M14.9,60.2c0,0.1,0.1,0.2,0,0.4c0,0,0,0,0-0.1C15,60.5,15,60.4,14.9,60.2z"/>
					<path fill="#4F4F4F" d="M14.9,65.6C14.9,65.6,14.9,65.6,14.9,65.6c-0.1-0.2-0.1-0.2-0.1-0.3L14.9,65.6z"/>
					<path fill="#4F4F4F" d="M29.1,162c0.1-0.1,0.2-0.2,0.2-0.3C29.2,161.9,30,162,29.1,162z"/>
					<path fill="#4F4F4F" d="M49.3,17.1c0-0.1-0.1-0.1-0.2-0.2c0.1,0,0.1,0,0.2,0C49.3,17,49.3,17.1,49.3,17.1z"/>
					<path fill="#4F4F4F" d="M12.1,60.5l0.1,0.9C12.1,61.1,12.1,60.8,12.1,60.5z"/>
					<path fill="#4F4F4F" d="M12.4,131.4l0,0.2C12.4,131.5,12.4,131.4,12.4,131.4z"/>
					<path fill="#4F4F4F" d="M12.1,63.9c0.1,0.2,0.2,0.3,0.3,0.5c0,0-0.1,0.1-0.1,0.1L12.1,63.9z"/>
					<path fill="#4F4F4F" d="M29.3,161.6L29.3,161.6L29.3,161.6z"/>
					<path fill="#4F4F4F" d="M35,162.5c-0.8,0-0.4-0.5-0.6-0.7c-1-0.1-0.5,0.4-0.8,0.6c-0.6-0.1-1.1-0.6-1.5-0.5
						c0,0.1-0.1,0.1,0,0.2c-0.6-0.4-1.9,0-2.7-0.5c-0.1,0-0.1,0.1-0.1,0.1c0.1-0.2,0.1-0.5,0.1-0.7c-0.4,0-0.7-0.3-0.8,0
						c0.2,0,0.2,0.1,0.3,0.2l-0.4-0.1c-0.3,0.4,0.5,0.2,0.5,0.5c-0.8-0.2-1.6-0.5-2.2-0.4c-0.1,0.4,1.4,0.2,0.6,0.6l0.9-0.2
						c-0.7,0.7,0.5,0-0.1,0.7c-0.6,0.1-0.9,0-1.3-0.1c-0.4-0.1-0.7-0.1-1.4-0.1c-0.3-0.3,0.1-0.3-0.1-0.6c-0.8-0.3-1.2-0.1-1.6,0
						c-0.3,0.2-0.7,0.4-1.2-0.1c-0.2-0.4-0.2-0.9-1.2-1l0.1,0.6c-1.2-0.5-0.4-0.9-1.7-1.2c0.1,0.3,0.8,0.6,0.6,0.6
						c-0.9,0-0.4-0.5-1-0.8l-0.3,0.3c-1.1-0.8-2.1-1.9-3-3c0,0.1,0,0.4-0.3,0.3c-1.1-1.5-2.4-3.2-3.3-4.9l0.2-0.8
						c0-0.2-0.2-0.3-0.3-0.1c-0.3-0.7,0.2-0.1,0.3-0.5c0-0.4-0.3-0.5-0.4-0.2c0-0.3,0-0.7,0.1-1.1c0-0.4,0.1-0.9,0.1-1.3
						c0.1-0.8,0.1-1.6-0.1-2.2l-0.1,0.2c-0.2-0.9,0.8-1,0.4-1.9l-0.1,0.2c-0.2-2,0.2-4.2-0.4-5.7c0.5-0.3-0.2-2,0.5-2.1
						c-0.4-1.1-0.5-0.8-0.8-2.4c0-0.4,0.5-0.6,0.6-1.2l-0.4,0l0.4-0.7l-0.5-0.4l0.1-0.5c0,0.2,0.2,0.4,0.3,0.4
						c0.2-0.8-0.3-1.9-0.5-1.9l0.3-1.8c-0.2,0-0.2,0.3-0.3,0.6c0.4-1-0.4-0.2,0-1.1c0.1,0.1,0.2-0.1,0.3-0.1
						c-0.2-0.4-0.2-1.5-0.1-2.2l-0.3,0.1c-0.1-1.4,0.1-2.9,0.1-4.4c0.1,0.5,0.6,0.4,0.7,0l-0.4-0.2c0.3-0.3,0.2,0.5,0.5-0.1
						c0-0.6-0.5-0.4-0.6-0.1l0.1-0.7c-0.1,0-0.2,0.1-0.4,0.2c0.3-0.3-0.4-1.2,0-1.6l-0.1,0c0-1.5,0.1-2.2,0.2-3.4
						c0.4,0,0.3-0.5,0.6-0.9c-0.1-0.9-0.4-1.9-0.4-3c0.2-0.8,0.3-0.2,0.5-0.6c-0.3-0.1-0.3-1.2-0.5-0.6c0.1-1.3,0.1-1.7,0.3-3.3
						c0.1,0.2,0.2,0.4,0.3,0.3c0.1-0.3-0.1-0.7-0.3-0.6l0,0.1c0.5-1.9-1-4.3-0.3-5.8l0,0.1l0.4-1.5c-0.1-0.7-0.2,0.4-0.5-0.1
						c0.6-1.7-0.1-2.6,0.3-4c-1-1.1,0.1-3.8-0.6-5.2l0.2,0.1c0.2-0.4-0.1-0.4-0.2-0.7c0.2,0,0.2,0.4,0.3,0.2
						c0.3-3.1-0.3-6.5-0.5-9.7c-0.1-1.2,1.2-0.7,0.6-2.1L12,78.1c0.5-2.4,0-4.9,0.4-7.2c-0.1,0.1-0.2,0.1-0.2,0.4
						c-0.3-0.5,0-1.8,0.2-1.8c0-0.4-0.2-0.1-0.4-0.3c-0.2-0.5,0.4-1.2,0.1-1.5c-0.1,0-0.1,0.1-0.1,0.2c0.2-0.3,0-1.5,0.3-1.2
						c-0.2-0.9,0.2-1.7-0.1-2.4c0.4-0.5-0.2-1.5,0.4-1.6c-0.6,0.1-0.5-1.5-0.2-2.1c-0.2,0.2-0.2-0.5-0.4-0.3c0-0.6,0.1-1.2,0.4-1.1
						c-0.7-1.2,0.6-2.3-0.3-3c0.3-1.9,0.5-3.6,0.7-5.3c-0.6,0.1-0.1,1.9-0.7,1.8c0.2-1.6,0.7-2.5,0.6-4.1c-0.1-0.4-0.3,0.2-0.4,0.4
						c0.2-1.6-0.1-3.1,0.3-4.5c-0.1,0-0.1,0.2-0.2,0.3c0-0.3-0.1-0.6,0.2-0.6l-0.1,0.3c0.4,0.4,0.8-1.1,1-1.2
						c-0.8,0.5-0.2-1.4-1.2-0.6c0.1-0.2,0.2-0.4,0.4-0.4c-0.1-0.3-0.2-0.4-0.4-0.1c0.1-1,0.4-0.6,0.4-1.6c-0.1,0-0.2,0.2-0.3,0.3
						c0.3-0.5,0.5-0.9,0.4-1.7c-0.1,0-0.2,0-0.2,0.2c0-1.3,0.7-2.2,0.4-3.7c-0.6,0.4-0.2-0.5-0.7-0.6l0.1-0.8l0.2,0.3
						c0-0.7,0.3-1.3,0.2-1.9l-0.2,0.5l0.1-1.3l0.2,0.7c0.2-0.7,0.6,0.1,0.5-0.8c0,0.2,0-0.7-0.3-1l0,0c0.2-0.3,0.3-0.7,0.2-1.2
						c-0.1-0.1-0.5,0.1-0.6,0c0.2-0.2,0.2-0.6,0.3-1c0.1-0.4,0.2-0.9,0.5-1c-0.1,0.1-0.4,0.1-0.4,0c0,0,0.1-0.1,0.2-0.1
						c0.1-0.1,0.2-0.1,0.2-0.1c0-0.3,0-0.4-0.3-0.4c0.2-1,0.5,0.5,0.6-0.7c-0.1,0.1-0.1,0-0.2,0.2c0.3-1.2,1.1-2,1.5-3
						c-0.2-0.5-0.6,0.7-0.8,0.2c0.9-1.4,2.5-2.3,3.6-3.3L18,20.7c0.3,0.2,0.4,0,0.7-0.4c0.2-0.3,0.5-0.7,0.9-0.8
						c-0.2,0.1-0.4-0.2-0.3-0.1c0.8-0.7,2-1,3.5-1.2l-0.2-0.1c0.5-0.4,1.5-0.5,2.2-0.8c0.2,0.1,0.6,0.1,0.4,0.4
						c0.9-0.7,2-0.6,2.9-0.4c0.9,0.2,1.8,0.3,2.6-0.1c-0.2,0-0.5-0.2-0.3-0.2l1.5,0.2c-0.1,0.3-0.2,0.2-0.5,0.4
						c0.2,0.2,0.6,0.3,1,0.3c-0.7-0.2,0-0.5,0.3-0.6c0,0.1,0,0.2,0,0.3c0.8-0.5,0.1,0.6,1.2,0.2l-0.1-0.2c0.4,0.1,0.8,0.3,1.2,0.2
						c0.2-0.3-0.4-0.2-0.4-0.4c0.6,0,1.2,0.7,1.7,0.3c-0.3-0.1-0.6-0.1-0.9-0.2c0.6-0.4,0.7-0.3,1.1-0.4l0,0l1-0.2L37,17.2
						c0.7,0.9,1.5,0.2,2.5,0.8c-1-0.6-0.2-0.3-0.2-0.7c0.3-0.1,0.6-0.2,0.5-0.3c0.5,0.3,0.8-0.2,1.5,0.2c0-0.1,0.5,0,0.4-0.3
						c0.6,0.1-0.1,0.2-0.1,0.4c0.9,0.4,2.2-0.5,3.6,0.1c1.2,0.2,1.4,0.7,2.5,0.9c0.4-0.2-0.3-0.5-0.3-0.5c0.6-0.2,1-0.2,1.6,0
						c-0.1-0.1,0-0.2,0.2-0.3c0.4,0,0.3,0.5,0.9,0.3c-0.1-0.1-0.2-0.4-0.4-0.5c0.5,0.1,1.1,0.4,1.6,0.5c0.1-0.2-0.3-0.3-0.5-0.5
						c0.6,0.1,1.6,0.2,1.8,0.5L52,17.7c0.2,0,0.1-0.3-0.1-0.4c-0.5-0.3-0.8,0.1-0.8,0.2l0.4,0.1c-0.4,0.7-1.6-0.1-2.4-0.1l0.3,0.5
						l-0.8-0.4c-0.2,0.1-0.3,0.4,0.1,0.5c-0.6,0.3-0.5-0.2-1,0.1c-0.1,0,0,0.1,0,0.1l-0.6-0.2c0.1,0.1-0.1,0.4,0.2,0.3
						c-1,0.3-1.6-0.4-2,0l0.1,0c-1.4-0.2-0.1-0.4-1.2-0.9l-0.7,1l-0.1-0.4c-0.1,0-0.4,0-0.4,0.2c-0.5-0.3,0.1-0.2-0.2-0.4
						c-0.7,0.4-1.9-0.2-2,0.5c-0.2-0.3,0.7-0.2-0.1-0.4c-0.2,0.7-0.8-0.1-1.5,0.2c0.2,0.3,0.8,0.2,0.2,0.5c-0.4-0.6-1.2,0.1-1.7,0
						c0-0.5-1.1-0.2-2-0.4c0.1,0.2-1.7,0.3-2.5,0.4l0,0.1c-0.2-0.5-1-0.4-1.6-0.5c0,0.3,0.1,0.4,0.5,0.5l-0.6,0
						c-0.1-0.2-0.3-0.2-0.7-0.3l0.1,0.4c-0.8,0-1.6-0.4-2.5-0.2c-0.1-0.3,0.8-0.9-0.3-1.1c0,0.2-0.1,0.5,0.2,0.6
						c-0.1,0-0.3-0.1-0.5-0.1l0.4,0.3c-0.5,0.1-0.2-0.3-0.6-0.2c0,0.3-0.3,0.2-0.2,0.4c0.1,0,0.3-0.1,0.5,0c-0.4,0-0.9,0.2-1,0.4
						c0-0.1,0-0.3-0.3-0.4c-0.7,0-0.2,0.3-0.6,0.5c-0.2-0.2-0.6,0.1-0.7-0.3c-0.2,0-0.2,0.2-0.3,0.3c-0.4-0.1-1.7,0.3-1.4-0.2l0.1,0
						c0,0,0,0-0.1,0l0,0l0,0c-1.3,0-2.4,1-3.5,1.5l0.1,0.1c-0.7,0.3-1.4,0.8-2,1c-0.2,0.1-0.2,0.5-0.1,0.6c-0.4,0.3-0.6,0.3-1,1
						c0.5-0.3,0,0.3,0.5-0.3c-0.4,0.6-0.3,0.8-1.1,1.2c0.4,0,0,0.7-0.2,0.9l0.1-0.5c-0.3,0.3-0.4,0.6-0.5,0.9l0.5,0
						c-0.1,0.7-0.5,1.2-0.9,1.7c-0.2,0.3-0.3,0.5-0.4,0.8c-0.1,0.3,0,0.6,0.1,0.9c-0.4,0.3-0.1-0.8-0.5-0.5c0,0.3,0.1,0.7,0.2,1
						c0.1,0.3,0.3,0.5,0.3,0.6c0.1,0.4-0.1,0.7-0.2,0.9c-0.2,0.2-0.3,0.5-0.3,1c-0.2-0.1-0.6-0.3-0.7,0.5c0.1,0.7,0.6,0.9,0.8,0.4
						c0-0.2,0-0.3-0.1-0.3c0.1-0.2,0.1-0.5,0.3-0.3L15,32.3c0.2,0.4,0.1,1.4,0.4,1.1c-0.1,0.5-0.3,0.2-0.3-0.2
						c0.2,0.9,0,1.5,0.2,2.4c-0.1-0.2-0.3-0.3-0.3-0.1c0.2,1.4-0.3,0.6-0.4,1.6c0.2,0.5,0.6-0.2,0.4,0.8c0.2,0.6,0.4,0.1,0.5-0.1
						c-0.3,0.9,0.2,1.6,0.2,2.1l0.1-0.5c-0.1,0.3-0.1,0.5-0.1,0.7l-0.3-0.3c0.1,0.3,0.1,0.5,0.2,0.5c-0.2,0.3-0.5-0.2-0.8,0.3
						c0.2,0.4-0.2,1.1,0.2,1.2c-0.1-1.1,0.4,0.1,0.5-0.8c0,0.2,0,0.4,0,0.7c0,0,0.1,0,0.1-0.1c0.4,1.1-0.5,0.5-0.5,1.6
						c0.2-0.1,0.4,0.3,0.4,0.4c0-0.5-0.4-0.2-0.6,0.2c0.2,0.7-0.1,0.8-0.1,1.2l-0.1-0.4c-0.2,0.1-0.2,0.5-0.3,1
						c0.2,0,0.1-0.5,0.2-0.3c-0.4,0.6,0.4,1.3,0.1,2c0.2,0.4,0.4,0,0.5,0.4c-0.3,0.9,0.3,0.9,0.1,1.9c-0.3-0.3-0.2-0.3-0.5,0.3
						l0.2-1.5l-0.4,1c0-0.5,0.2-1,0.1-1.2c-0.3,0.5-0.2,0.4-0.4,0.2c0.5,0.6-0.3,1.2,0,1.9l0.8,0c0.3,1.1-0.4,1.9-0.2,3.3l-0.1-0.4
						c-0.3,0.2,0,0.9-0.2,1.3c0.3,0,0.3,0.2,0.5,0.4c-0.2,0,0,1-0.5,1.2l0.3,0.6c0.1,1.1-0.7,1.3-0.6,2.4c0.3-0.3,0.5,0.2,0.7-0.6
						c0,0.4,0,0.7-0.1,0.7c0.2,0.2-0.3,1-0.1,1.3c-0.1,0.2-0.4,0.2-0.4,0.6c0.1,0,0.1,0,0.1,0c-0.1,0-0.2,0.6-0.5,0.3
						c0.8,1.1-0.1,3.1,0.6,4.1c-0.1,0.8-0.2,1.7-0.2,2.5c0.1,0,0.1,0,0.1-0.1c0.2,1-0.7,0.6-0.5,1.7c0.4,0.6,0.2-0.6,0.4-0.2
						c0.8,0.2-0.1,1.4,0.4,2.1l0-0.2c0.3,0.6-0.3,1.4-0.3,2.4c0,0,0.1,0,0.1,0c-0.4,0.6-0.6,1.9-0.7,2.8c0.3-0.3,0.2-0.4,0.5-0.2
						c0,0.4-0.5-0.1-0.6,0.7c0.2,0.3,0.3,0.9,0.7,0.9l0-0.8c0.5,0.4,0,1,0.1,1.4l0.2-0.1c-0.1,1.2-0.6,1.2-0.5,2.5l-0.2-0.1
						c-0.5,0.7,0.3,0.6-0.1,1.3l0.5,0.2c-0.1,0.5-0.5,1.6-0.6,2.4c0.4-0.5,0.6-1.4,0.8-2c0,0.5,0,1.5-0.3,1.8c0-0.2,0.2-0.4,0.1-0.6
						c-0.4,0.6-0.6,1.3-0.6,2.2c1-0.2,0.2,2.4,1,3c-0.4,1.6,0.2,3.2,0.1,5c-0.8-0.7,0,0.5-0.8,0.4c-0.1,0.4,0,0.6,0,0.6l0.5,1.3
						c0.2,0.3,0.2-0.4,0.4-0.4c0.1,0.9,0.3,0.4,0.5,1c-0.3-0.1-0.4,0.3-0.3,0.9l-0.4-0.8c-0.4,1.3,0.7,1.1,0.2,2.5l0.2-0.4
						c-0.1,0.7,0,2.5-0.6,3.2c0.1,0.1,0.3,0.3,0.4,0c0.1,1.6-0.7,3.7-0.3,4.9l0.2-0.1c-0.1,0.3-0.4,0.5-0.2,0.9c0.1,0,0.2-0.1,0.2,0
						c-0.1,0.2-0.3,0.8-0.2,1.2l0.2-0.3c0.3,1.6-0.5,2.5-0.7,3.8c0.6,0,0.8,1.3,0.8,1.9l0.1,0c0.1,1.9-0.5,3.2-0.7,4.9
						c0.6,1.1,0.3,3.6,0.6,5.3c-0.1-0.3-0.4,0-0.5,0.3c0.1,0.4-0.4,1.1,0.1,1.1l0-0.1c0.5,0.3,0.4,1.1,0.4,1.8l-0.7,0.1
						c1,1.7-0.4,4.4,0.5,5.4c-0.2,0.4-0.2,0.9-0.3,1.3l0.4,0c0.1,1.1,0.1,1.7,0.1,3.1l0.3-0.3c0,0.8-1.1,1-1.1,1.7l0.5,0.2
						c0,1.4,0.5,2.8,0,4.1c0.1,0,0.2-0.1,0.3-0.3c0,0.6,0.4,2.5-0.4,2.3c0.5,0,0,1.4-0.2,2.2l0.4-0.1c-0.5,0.6-0.6,0.6-0.7,1.5
						c0.1,0.2,0.3,0.1,0.2-0.1c0.2,0.6-0.3,0.5,0,1.3l0.2-0.3c0.1,0.6,0,0.6-0.1,1c-0.1,0.5,0.5,1.2,0.8,1.1c-0.2,0.2-0.3,0.6,0,0.9
						c0.1,0,0.1-0.2,0.1-0.3c0.4,0.4,0.5,0.8,0.6,1.2c0.1,0.4,0.2,0.7,0.6,0.9c0.1-0.1,0.2-0.1,0.2,0c-0.3-0.3-0.5-0.6-0.7-0.9
						c-0.2-0.2-0.3-0.3-0.3-0.3c0.3-0.2,0.7,0.3,0.8-0.3c0.1,0.6,0.2,1.7,0.8,2c0,0,0.1,0,0.1,0l0-0.1c0.1,0.1,0.2,0.2,0.3,0.3
						c0.2,0.1,0.3,0.2,0.5,0.3c0.2-0.2,0.7,0.4,1,0.6c-0.2,0.3,0.2,0.5-0.4,0.5c0.1,0,0-0.1-0.2-0.2c0,0-0.1-0.1-0.1-0.1l0,0
						c-0.2-0.2-0.4-0.3-0.7-0.6c0.1,0.3,0.2,0.6,0.7,0.7c0,0.3,0,0.6,0.1,0.8c0.4-0.1,0.8,0,1.1,0c0.4,0,0.7,0,0.8-0.1
						c0.4,0.4,1,0.6,1.5,0.9c0.5,0.3,1,0.6,1.2,1c0.3,0.2,0.4-0.1,0.5-0.2c-0.2-0.1-0.4-0.1-0.4-0.3c0.6,0.3,1.8,0.4,1.9,0.9
						c0.8-0.1-0.4-0.5,0.7-0.3l-0.1-0.2c1-0.3,2,0,2.9,0.2c0.9,0.3,1.9,0.5,3.2,0c-0.2,0.1-0.3,0.1-0.3,0.2c2.9-0.4,5.9,0.4,8.7-0.3
						c0.8-0.1,0.9,0.2,1.4,0.4l0.2-0.4l0.8,0.5c1.2,0.3,2-1,3.5-0.3l-0.2,0.3c0.5,0,1.7,0.2,1.6-0.1c0.1,0,0.2,0.3,0.4,0.1l0-0.2
						L50,160c1-0.1-0.2-0.8,1.3-0.9c0.6,0.1,1.6,0.6,1.4,0.7c-0.2,0-0.6,0.1-0.6,0.3l0.5,0.1c0.1,0.6,0.5,1.2-0.8,1.6l-0.9-0.4
						l-0.3,0.3l0.7,0c-0.4,0.3-0.7,0-1-0.1c-0.1,0.2-0.2,0.3-0.4,0.3l-0.9-0.6c-0.1,0.2,0.4,0.5-0.2,0.6c-0.4-0.3,0.4-0.5-0.3-0.7
						c-0.4,0.3-0.3,0.5-0.8,0.3c-0.1,0.2,0,0.3,0.2,0.3c-0.4-0.2-1.2-0.1-1.4-0.4c-0.4,0.3-1.5-0.1-1.4,0.5
						c-0.1-0.1-0.8-0.4-1.2-0.5c0.7,0.7-1.5,0-1.3,0.8c-0.5-0.6-2-0.3-2.9-0.6c0.1,0,0.2,0.1,0.2,0.1c-0.5,0.1-0.7,0.2-1,0.4
						c-0.1-0.5-0.9-0.6-1.4-0.9c-0.7,0.5,0.4,0.6,0.2,1.1c0-0.4-1.1-0.4-0.9-0.8c-0.5,0.3-0.4,0.1-0.7,0.6c-0.1-0.6-0.5-0.1-0.9-0.5
						c-0.7,0.3-0.2,0.6-1,0.4C34.3,162.3,35,162.5,35,162.5z M16.4,156.7L16.4,156.7c0.1,0.1,0.2,0.2,0.3,0.3
						C16.6,157,16.5,156.9,16.4,156.7z M15.3,155.4c0.1,0.2,0.3,0.4,0.5,0.6c0.1,0,0.2-0.2,0.1-0.3
						C15.8,155.8,15.5,155.5,15.3,155.4z M19.4,156.1c-0.1-0.2-0.2-0.2-0.3-0.1c0.1,0.1,0.2,0.2,0.3,0.3c0,0,0,0,0,0.1
						C19.4,156.2,19.4,156.1,19.4,156.1z"/>
					<path fill="#4F4F4F" d="M19.4,156.7C19.4,156.7,19.4,156.8,19.4,156.7C19.4,156.8,19.4,156.8,19.4,156.7
						C19.3,156.7,19.3,156.7,19.4,156.7C19.4,156.6,19.4,156.7,19.4,156.7z"/>
					<path fill="#4F4F4F" d="M23.8,19L23.8,19C23.8,19,23.8,19,23.8,19C23.8,19,23.8,19,23.8,19z"/>
					<polygon fill="#4F4F4F" points="12.2,133.2 12.3,133.2 12.2,133.3 					"/>
					<path fill="#4F4F4F" d="M32.4,17.3c0,0,0-0.1,0.1-0.1C32.6,17.2,32.5,17.3,32.4,17.3z"/>
					<path fill="#4F4F4F" d="M36.3,17.2l0.5-0.1C36.6,17.2,36.4,17.2,36.3,17.2z"/>
					<path fill="#4F4F4F" d="M39.2,17c0,0.1,0,0.1,0.1,0.2l0,0L39.2,17z"/>
					<path fill="#4F4F4F" d="M12.5,44.9c0,0,0,0.1,0,0.1C12.4,45.3,12.4,45.1,12.5,44.9z"/>
					<path fill="#4F4F4F" d="M13.3,31c-0.1,0.1-0.1,0.3-0.2,0.4C13.1,31.2,13.1,31,13.3,31z"/>
					<polygon fill="#4F4F4F" points="12.1,60.4 12.1,60.4 12.1,60.5 					"/>
					<path fill="#4F4F4F" d="M13.2,32.1c-0.1-0.2-0.1-0.5,0-0.6C13.2,31.6,13.2,31.9,13.2,32.1z"/>
					<path fill="#4F4F4F" d="M51.9,16.9l0.1,0c0,0,0,0,0,0.1L51.9,16.9z"/>
					<path fill="#4F4F4F" d="M52.1,16.9l0.2,0C52.1,17,52.1,17,52.1,16.9z"/>
					<path fill="#4F4F4F" d="M52.5,17L52.2,17C52.3,17,52.5,16.9,52.5,17z"/>
					<path fill="#4F4F4F" d="M48,17l0-0.1C48,16.9,48,17,48,17z"/>
					<path fill="#4F4F4F" d="M46.8,17c0.3,0,0.7-0.3,1.1-0.2l0,0.1C47.8,16.7,47.1,17.2,46.8,17z"/>
					<path fill="#4F4F4F" d="M41.9,18.6l1-0.1c-0.2,0.1-0.4,0.3,0,0.4C41.7,19.3,43.2,18.6,41.9,18.6z"/>
					<path fill="#4F4F4F" d="M38.9,18.8c0.5,0.1,0,0.2,0,0.3C38.5,19,38.5,19,38.9,18.8z"/>
					<path fill="#4F4F4F" d="M18.2,22.4l0.3,0.2C18.2,22.9,18.4,22.5,18.2,22.4z"/>
					<polygon fill="#4F4F4F" points="14.4,24.8 14.4,24.3 14.7,24.3 					"/>
					<path fill="#4F4F4F" d="M15.7,27.9l0.1-0.1c0,0-0.3,0.5-0.3,0.5c0,0,0-0.1,0.1-0.2C15.6,28,15.7,27.9,15.7,27.9z"/>
					<path fill="#4F4F4F" d="M15.2,64.7l-0.4-0.1C14.9,64.3,15.4,64.2,15.2,64.7z"/>
					<path fill="#4F4F4F" d="M14.8,80.7c0.2,0.2,0.3,0.6,0.1,0.9C14.9,81.3,14.8,80.9,14.8,80.7z"/>
					<polygon fill="#4F4F4F" points="15.5,128.9 15.6,128.6 15.5,129.2 					"/>
				</g>
			</g>
		</g>
	</g>
</g>
<g>
	<polygon fill="#353535" points="65.2,161.4 59.1,166 53,170.6 53,161.4 53,152.2 59.1,156.8 	"/>
	<g>
		<g>
			<g>
				<g>
					<path fill="#4F4F4F" d="M64.9,161.1c0,0,0.1,0.1,0,0.1l-0.2-0.1L64.9,161.1z"/>
					<path fill="#4F4F4F" d="M64.8,161.7c-0.1,0-0.3-0.1-0.4-0.3c0.2,0.1,0.1,0,0.3,0.1c0.1,0,0.1-0.1,0-0.2c0,0,0.1-0.1,0.2,0
						C65,161.5,64.9,161.6,64.8,161.7C64.7,161.6,64.7,161.6,64.8,161.7z"/>
					<path fill="#4F4F4F" d="M59.4,166.1L59.4,166.1C59.5,166,59.4,166.1,59.4,166.1z"/>
					<path fill="#4F4F4F" d="M56.1,168.7C56.1,168.7,56.1,168.7,56.1,168.7C56.1,168.8,56.1,168.8,56.1,168.7z"/>
					<path fill="#4F4F4F" d="M55.6,169.3C55.6,169.3,55.6,169.3,55.6,169.3C55.6,169.3,55.6,169.4,55.6,169.3z"/>
					<path fill="#4F4F4F" d="M59.4,166.1l-0.1,0.1C59.3,166.1,59.4,166.1,59.4,166.1z"/>
					<path fill="#4F4F4F" d="M63.7,161.9C63.8,161.9,63.8,161.9,63.7,161.9L63.7,161.9L63.7,161.9z"/>
					<path fill="#4F4F4F" d="M61,165L61,165C61.1,165,61.1,165.1,61,165L61,165z"/>
					<path fill="#4F4F4F" d="M62.2,164.2c0,0-0.1-0.1-0.2-0.1C62.1,164.1,62.1,164.1,62.2,164.2C62.2,164.1,62.2,164.1,62.2,164.2z"
						/>
					<path fill="#4F4F4F" d="M63.9,162.6L63.9,162.6C63.9,162.6,63.9,162.6,63.9,162.6z"/>
					<path fill="#4F4F4F" d="M60.2,165.7C60.2,165.7,60.2,165.7,60.2,165.7C60.2,165.7,60.2,165.7,60.2,165.7z"/>
					<path fill="#4F4F4F" d="M63.4,161L63.4,161C63.4,161,63.4,161,63.4,161z"/>
					<polygon fill="#4F4F4F" points="65.2,161.4 65.2,161.3 65.2,161.3 					"/>
					<path fill="#4F4F4F" d="M54.4,170.5C54.4,170.5,54.4,170.5,54.4,170.5C54.5,170.5,54.5,170.5,54.4,170.5z"/>
					<path fill="#4F4F4F" d="M52.4,159.7c0.1,0.1,0.2-0.2,0.3,0C52.7,159.7,52.5,159.9,52.4,159.7z"/>
					<path fill="#4F4F4F" d="M63.7,161.9C63.7,161.9,63.7,161.9,63.7,161.9C63.7,161.9,63.7,161.9,63.7,161.9z"/>
					<polygon fill="#4F4F4F" points="52.7,159.7 52.7,159.7 52.8,159.7 					"/>
					<path fill="#4F4F4F" d="M52.4,169.1C52.4,169.1,52.4,169.1,52.4,169.1C52.4,169.1,52.4,169.1,52.4,169.1z"/>
					<path fill="#4F4F4F" d="M53.4,170.9L53.4,170.9C53.4,170.9,53.4,170.9,53.4,170.9z"/>
					<path fill="#4F4F4F" d="M52.6,167.8C52.6,167.7,52.6,167.7,52.6,167.8L52.6,167.8C52.6,167.7,52.6,167.7,52.6,167.8z"/>
					<polygon fill="#4F4F4F" points="52.6,166.5 52.6,166.5 52.6,166.6 					"/>
					<path fill="#4F4F4F" d="M60.4,158.6c0,0,0.1,0,0.1-0.1C60.5,158.6,60.6,158.8,60.4,158.6z"/>
					<path fill="#4F4F4F" d="M63.8,161.9C63.8,161.9,63.7,161.9,63.8,161.9L63.8,161.9C63.8,161.9,63.8,161.9,63.8,161.9z"/>
					<path fill="#4F4F4F" d="M53.8,167.7l0-0.2C53.8,167.6,53.8,167.6,53.8,167.7z"/>
					<path fill="#4F4F4F" d="M53.9,153.6L53.9,153.6C53.9,153.7,53.9,153.7,53.9,153.6z"/>
					<path fill="#4F4F4F" d="M53.8,166.9c-0.1,0-0.1-0.1-0.1-0.1c0,0,0,0,0,0L53.8,166.9z"/>
					<path fill="#4F4F4F" d="M60.6,158.5L60.6,158.5L60.6,158.5z"/>
					<path fill="#4F4F4F" d="M61.4,159.6c-0.2-0.1,0.1-0.2,0.1-0.3c-0.1-0.2-0.2,0.1-0.3,0.1c-0.1-0.1,0-0.3-0.1-0.4
						c0,0-0.1,0-0.1,0.1c0-0.2-0.3-0.3-0.4-0.5c0,0,0,0,0,0c0.1-0.1,0.2-0.1,0.2-0.2c-0.1-0.1,0-0.2-0.2-0.1c0,0,0,0.1,0,0.1l0-0.1
						c-0.2,0.1,0.1,0.1,0,0.2c-0.1-0.2-0.2-0.4-0.3-0.4c-0.1,0.1,0.2,0.2,0,0.3l0.2,0.1c-0.3,0.1,0.1,0.1-0.2,0.2
						c-0.2-0.1-0.2-0.3-0.4-0.4c0-0.1,0.1-0.1,0.1-0.2c-0.2-0.4-0.5,0.2-0.6-0.2c0-0.1,0.1-0.4-0.1-0.4l-0.1,0.2
						c-0.2-0.1,0.1-0.3-0.2-0.4c0,0.1,0.1,0.2,0.1,0.2c-0.2,0,0-0.2-0.1-0.3l-0.1,0.1c-0.2-0.2-0.4-0.5-0.6-0.7c0,0.1,0,0.1-0.1,0.1
						c-0.3-0.3-0.7-0.5-1-0.6l0-0.2c0,0-0.1,0-0.1,0.1c-0.2,0,0.1-0.1,0-0.2c-0.1-0.1-0.1,0-0.1,0.1c-0.1-0.3-0.4-0.7-0.7-0.7l0,0.1
						c-0.2-0.1,0-0.4-0.2-0.4l0,0c-0.4-0.2-0.7-0.6-1.1-0.7c0.1-0.2-0.4-0.2-0.2-0.5c-0.3,0-0.4,0-0.4,0.1c0,0,0-0.2,0-0.3l0,0.2
						c0,0,0-0.3,0-0.3c0,0,0,0.3,0,0.3l0-0.1c0,0,0-0.1,0-0.2c-0.1-0.2-0.1,0.1,0,0.2c0,0-0.2-0.3-0.2-0.3c0.1,0.1,0.1,0.2,0.1,0.3
						c-0.2-0.4,0.2,0.3,0,0l0,0c0,0,0-0.1-0.1-0.1c0,0-0.1-0.1-0.1-0.1c0.1,0.2,0.1,0.3,0.1,0.3l0.1,0.2c0,0.1-0.1,0-0.1,0.1
						c-0.1,0-0.3-0.1-0.3-0.1l0.2,0.1c-0.1,0-0.1-0.1-0.2,0c0,0.1,0.2,0.1,0.3,0.1l-0.1,0c0.1,0,0.1,0,0.2,0c-0.1-0.1,0.2,0.2,0,0.3
						l0.1,0c0,0.4-0.1,0.5-0.1,0.8c-0.2,0-0.1,0.1-0.2,0.2c0.1,0.2,0.2,0.4,0.2,0.7c-0.1,0.2-0.1,0.1-0.2,0.1c0.1,0,0.1,0.3,0.2,0.1
						c0,0.3,0,0.4-0.1,0.8c-0.1,0-0.1-0.1-0.1-0.1c0,0.1,0.1,0.2,0.1,0.1l0,0c-0.2,0.4,0.4,1,0.1,1.3l0,0l-0.2,0.4
						c0,0.2,0.1-0.1,0.2,0c-0.2,0.4,0,0.6-0.1,0.9c0.4,0.2,0,0.9,0.2,1.2l-0.1,0c-0.1,0.1,0.1,0.1,0.1,0.2c-0.1,0-0.1-0.1-0.1,0
						c-0.1,0.7,0.1,1.5,0.2,2.2c0,0.3-0.5,0.2-0.3,0.5l0.2-0.1c-0.2,0.5,0,1.1-0.2,1.7c0,0,0.1,0,0.1-0.1c0.1,0.1,0,0.4-0.1,0.4
						c0,0.1,0.1,0,0.2,0.1c0.1,0.1-0.2,0.3,0,0.3c0,0,0,0,0.1-0.1c-0.1,0.1,0,0.3-0.1,0.3c0.1,0.2-0.1,0.4,0,0.5
						c-0.2,0.1,0.1,0.3-0.2,0.4c0.3,0,0.2,0.4,0.1,0.5c0.1,0,0.1,0.1,0.2,0.1c0,0.1-0.1,0.3-0.2,0.3c0.3,0.3-0.2,0.5,0.1,0.7
						c0,0.1-0.1,0.1-0.1,0.2c0,0-0.1,0.1-0.1,0.1c0,0.1-0.1,0.2-0.1,0.4c0.3-0.3,0-0.2,0.3-0.4c-0.1,0.1-0.3,0.5-0.3,0.6
						c0,0,0.1-0.2,0.2-0.3c0,0.1,0,0.1,0,0.2c0.1,0,0.1-0.1,0.2,0c0,0,0-0.1,0-0.1c0,0,0-0.1,0,0.1l0,0c-0.1,0.3,0,0.4,0.1,0.5
						c0-0.4,0.2-0.2,0.1-0.7c0,0,0,0.1,0,0.2c0,0,0-0.1,0-0.2c0.1,0,0.1,0.2,0.2,0.1c0,0-0.1-0.1-0.1-0.1c0.1,0.1,0.2,0.1,0.3,0
						c0,0,0-0.1-0.1,0c0.3-0.2,0.6-0.1,0.8-0.4c-0.2-0.1,0-0.1-0.1-0.3l0.2-0.1l0,0.1c0.1-0.1,0.3-0.1,0.4-0.2l-0.1,0l0.3-0.1
						l-0.1,0.2c0.2,0,0.1,0.2,0.3,0c0,0,0.1-0.1,0.1-0.2l0,0c0.1,0,0.2,0,0.3-0.1c0-0.1-0.2-0.2-0.2-0.2c0.2,0.1,0.3-0.2,0.5-0.1
						c-0.1,0-0.1-0.1-0.1-0.1l0.1,0.1c0-0.1,0-0.1,0-0.2c0.2-0.2,0.1,0.3,0.2,0c0,0,0,0-0.1,0c0.2-0.2,0.5-0.2,0.6-0.4
						c-0.1-0.2-0.2,0.1-0.2-0.1c0.3-0.2,0.7-0.2,1-0.5l0,0.1c0.2,0.2,0.1-0.3,0.3-0.3c0,0-0.1-0.1-0.1-0.1c0.2-0.2,0.4-0.2,0.7-0.4
						l-0.1,0c0.1-0.1,0.3-0.2,0.4-0.4c0.1,0,0.1,0,0.2,0.1c0.1-0.6,0.8-0.3,0.9-0.9c0,0-0.1,0-0.1,0l0.3-0.1c0.1,0.1,0,0.1,0,0.2
						c0.1,0,0.2,0,0.3,0c-0.2,0-0.1-0.2-0.1-0.3c0,0,0.1,0.1,0.1,0.1c0-0.3,0.2,0.2,0.3-0.1l-0.1,0c0.1,0,0.2,0,0.3-0.1
						c-0.1-0.1-0.1,0-0.2-0.1c0.1-0.1,0.4,0.1,0.4-0.1c-0.1,0-0.1,0.1-0.2,0.1c0-0.2,0-0.2,0.1-0.3l0,0l0.1-0.2l0,0.1
						c0.4,0.2,0.3-0.2,0.7-0.1c-0.3-0.1-0.1-0.1-0.2-0.2c0-0.1,0.1-0.2,0-0.2c0.2,0,0.1-0.2,0.3-0.1c0,0,0.1-0.1,0-0.2
						c0.1-0.1,0,0.1,0.1,0.1c0.3,0,0.3-0.5,0.7-0.5c0.3-0.1,0.4,0,0.7,0c0-0.1-0.2-0.1-0.2-0.1c0.1-0.1,0.2-0.2,0.3-0.2
						c0,0-0.1-0.1-0.1-0.1c0.1-0.1,0.2,0.1,0.2,0c-0.1,0-0.1-0.1-0.2-0.1c0.1,0,0.3,0,0.4-0.1c0-0.1-0.1-0.1-0.2-0.1
						c0.1-0.1,0.3-0.2,0.5-0.1l0,0.1c0,0-0.1-0.1-0.1-0.1c-0.2,0-0.1,0.1-0.1,0.2l0.1,0c0.1,0.3-0.3,0.2-0.5,0.3l0.2,0.1l-0.3,0
						c0,0.1,0.1,0.2,0.2,0.2c0,0.2-0.1,0-0.2,0.2c0,0,0,0,0,0l-0.1,0c0,0,0.1,0.1,0.1,0.1c-0.1,0.2-0.4,0.1-0.4,0.3l0,0
						c-0.3,0.1-0.1-0.1-0.4-0.1l0.1,0.4l-0.1-0.1c0,0-0.1,0.1,0,0.1c-0.2,0,0-0.1-0.2-0.1c0,0.2-0.4,0.2-0.3,0.4
						c-0.1-0.1,0.1-0.2-0.1-0.1c0.1,0.3-0.2,0.1-0.2,0.3c0.1,0.1,0.2-0.1,0.2,0.1c-0.2-0.2-0.2,0.2-0.3,0.2
						c-0.1-0.2-0.3,0.1-0.5,0.2c0.1,0-0.2,0.3-0.3,0.5l0,0c-0.2-0.1-0.3,0-0.4,0.1c0.1,0.1,0.1,0.1,0.2,0.1l-0.1,0.1
						c-0.1,0-0.1,0-0.2,0l0.1,0.1c-0.1,0.1-0.4,0.1-0.5,0.3c-0.1-0.1-0.1-0.4-0.3-0.4c0,0.1,0.1,0.2,0.2,0.2c0,0-0.1,0-0.1,0l0.2,0
						c0,0.1-0.1-0.1-0.2,0c0.1,0.1,0,0.1,0.1,0.2c0,0,0-0.1,0.1-0.1c-0.1,0.1-0.1,0.2-0.1,0.3c0-0.1-0.1-0.1-0.2-0.1
						c-0.1,0.1,0,0.1,0,0.3c-0.1,0-0.1,0.1-0.2,0c0,0,0,0.1,0,0.1c-0.1,0-0.4,0.2-0.4,0l0,0l0,0l0,0l0,0c-0.3,0.1-0.4,0.5-0.7,0.6
						l0,0c-0.2,0.1-0.3,0.2-0.5,0.2c0,0,0,0.2,0,0.2c-0.1,0-0.2,0-0.3,0.2c0.2,0,0,0.1,0.2,0c-0.1,0.1-0.1,0.2-0.3,0.2
						c0.1,0.1,0,0.2-0.1,0.2l0-0.2c-0.1,0-0.1,0.1-0.2,0.2l0.1,0.1c-0.2,0.4-0.8,0.1-0.7,0.6c-0.2,0,0.1-0.2-0.1-0.3
						c-0.1,0.1-0.1,0.4-0.1,0.5c-0.1,0.2-0.3-0.1-0.5,0.1c0-0.1-0.1-0.2-0.3-0.2c-0.1,0.1,0,0.3,0.1,0.3c0,0,0,0,0-0.1
						c0.1,0,0.1,0,0.1,0.1l-0.1,0c0,0.1-0.2,0.2-0.1,0.3c-0.1,0-0.1-0.1-0.1-0.1c-0.1,0.2-0.3,0.2-0.4,0.4c0-0.1,0-0.1,0-0.1
						c-0.2,0.3-0.2,0-0.4,0.1c0,0.2,0.2,0.2,0,0.2c-0.1,0.1,0.1,0.2,0.2,0.2c-0.2,0-0.2,0.3-0.3,0.4l0.1,0c-0.1,0-0.1,0-0.2,0.1
						c0,0,0-0.2,0-0.2c0,0-0.1,0.1-0.1,0.2c-0.1,0-0.1-0.2-0.3-0.2c-0.1,0.1-0.3,0.1-0.3,0.4c0.3-0.3,0,0.2,0.3,0
						c-0.1,0-0.1,0.1-0.2,0.2c0,0,0,0,0,0c-0.3,0.5-0.2-0.1-0.5,0.2c0,0.1-0.1,0.3-0.2,0.3c0.2-0.1,0.1-0.3,0-0.3
						c-0.2,0.3-0.2,0.1-0.3,0.2l0.1-0.1c0-0.1-0.1,0-0.2,0c-0.1,0.1,0.1,0,0,0.1c0-0.2-0.4,0.6-0.6,0.5c-0.2,0.2-0.2,0.4-0.3,0.5
						c0,0,0,0,0,0c0.1-0.4-0.2-0.1-0.1-0.6c0.1-0.1,0.1-0.1,0.2-0.5l-0.1,0.7l0.2-0.7c0,0.1-0.1,0.5-0.1,0.5
						c0.1-0.4,0.1-0.3,0.2-0.4c-0.2,0.2,0.1-0.6,0-0.5l-0.3,0.5c-0.1-0.1,0-0.4,0-0.6c0.1-0.3,0.1-0.5,0.1-0.7l0.1,0.1
						c0.1-0.1,0-0.3,0.1-0.5c-0.1,0.1-0.2,0-0.2-0.1c0.1,0,0-0.4,0.2-0.4l-0.1-0.1c-0.1-0.3,0.3-0.3,0.3-0.5c-0.1,0.1-0.2,0-0.3,0.1
						c0-0.1,0-0.2,0.1-0.2c-0.1,0,0.1-0.2,0-0.3c0,0,0.2,0,0.2-0.1c0,0-0.1,0-0.1,0c0.1,0,0.1-0.1,0.2-0.1c-0.3-0.3,0-0.7-0.3-0.9
						c0-0.2,0.1-0.4,0.1-0.6c0,0-0.1,0,0,0c-0.1-0.2,0.3-0.1,0.2-0.4c-0.2-0.1-0.1,0.1-0.2,0.1c-0.4,0,0-0.3-0.2-0.5l0,0
						c-0.1-0.1,0.1-0.3,0.1-0.5c0,0,0,0-0.1,0c0.2-0.1,0.2-0.4,0.3-0.6c-0.1,0.1-0.1,0.1-0.2,0.1c0-0.1,0.2,0,0.3-0.2
						c-0.1-0.1-0.1-0.2-0.3-0.2l0,0.2c-0.2-0.1,0-0.2,0-0.3l-0.1,0c0-0.3,0.2-0.3,0.2-0.6l0.1,0c0.2-0.2-0.1-0.1,0-0.3l-0.2,0
						c0.1-0.1,0.2-0.4,0.3-0.6c-0.2,0.1-0.2,0.3-0.3,0.5c0-0.1,0-0.4,0.1-0.4c0,0-0.1,0.1,0,0.1c0.2-0.1,0.3-0.3,0.3-0.5
						c-0.4,0-0.1-0.5-0.4-0.7c0.2-0.4-0.1-0.7,0-1.2c0.3,0.2,0-0.1,0.4-0.1c0-0.1,0-0.1,0-0.1l-0.2-0.3c-0.1-0.1-0.1,0.1-0.2,0.1
						c0-0.2-0.1-0.1-0.2-0.2c0.1,0,0.2-0.1,0.1-0.2l0.2,0.2c0.2-0.3-0.3-0.3-0.1-0.6l-0.1,0.1c0.1-0.2,0-0.6,0.3-0.7
						c0,0-0.1-0.1-0.2,0c0-0.4,0.3-0.8,0.1-1.1l-0.1,0c0-0.1,0.2-0.1,0.1-0.2c0,0-0.1,0-0.1,0c0,0,0.1-0.2,0.1-0.3l-0.1,0.1
						c-0.1-0.4,0.2-0.6,0.3-0.9c-0.2,0-0.3-0.3-0.4-0.4l0,0c0-0.4,0.2-0.7,0.3-1.1c-0.1-0.1-0.2-0.5-0.2-0.9c0-0.4,0-0.8-0.1-1.3
						c0,0.2,0.2,0.2,0.2,0.2c0-0.2,0.2-0.1-0.1-0.5l0,0.1c-0.2-0.4-0.2-0.7-0.2-0.9l0.1,0.1l0.3,0.6c0-0.2,0.5,0.1,0.8,0.4
						c0.3,0.3,0.6,0.6,0.7,0.4c0.1,0.2,0.3,0.3,0.4,0.5l0.1-0.2c0.4,0.3,0.4,0.3,0.7,0.5l0-0.1c0.2,0.1-0.1,0.5,0,0.6l0.2-0.2
						c0.3,0.2,0.6,0.2,0.8,0.6c0,0,0.1-0.1,0-0.1c0.1,0.1,0.6,0.2,0.3,0.4c0.1-0.2,0.3,0.2,0.4,0.4l0.1-0.1c0,0.2,0,0.3,0.1,0.5
						c0.1,0,0.1-0.1,0-0.1c0.2,0,0,0.2,0.2,0.2l0-0.1c0.1,0.1,0.1,0.1,0.1,0.3c0,0.1,0.3,0.2,0.4,0.1c0,0.1,0,0.2,0.1,0.3
						c0,0,0-0.1,0-0.1c0.3,0.1,0.2,0.4,0.5,0.4c0,0,0.1-0.1,0.1-0.1c-0.2-0.1-0.3-0.2-0.3-0.2c0.1-0.1,0.2,0,0.3-0.3
						c0,0.2,0.1,0.5,0.3,0.6c0,0,0,0,0,0l0,0c0,0,0.1,0,0.1,0.1c0.1,0,0.1,0,0.1,0.1c0.1-0.1,0.2,0.1,0.3,0.1
						c-0.1,0.1,0,0.2-0.2,0.2c0,0,0,0,0-0.1c0,0,0,0,0,0l0,0c0,0-0.1-0.1-0.2-0.1c0,0.1,0,0.2,0.2,0.2c0,0.1,0,0.2-0.1,0.3
						c0.2-0.1,0.5-0.1,0.6-0.1c0.2,0.2,0.5,0.4,0.4,0.8c0,0.1,0.1,0,0.2,0c0-0.1-0.1-0.1-0.1-0.1c0.1,0.2,0.3,0.3,0.2,0.5
						c0.2,0,0-0.2,0.2,0l0-0.1c0.6,0.1,0.4,0.9,1.1,0.9c0,0-0.1,0-0.1,0c0.6,0.2,1,1,1.7,1.1c0.2,0.1,0.1,0.2,0.1,0.3l0.1-0.1l0,0.3
						c0.1,0.3,0.6,0,0.7,0.4l-0.1,0.1c0.1,0.1,0.3,0.3,0.3,0.2c0,0,0,0.1,0,0.1l0.1-0.1l0.2,0.3c0.2,0.1,0.2-0.3,0.5-0.1
						c0.1,0.1,0.1,0.4,0.1,0.4c0,0-0.1,0-0.2,0l0.1,0.1c-0.1,0.2-0.2,0.5-0.6,0.5l-0.1-0.2l-0.1,0.1l0.1,0.1c-0.1,0-0.1-0.1-0.1-0.2
						c-0.1,0-0.1,0.1-0.2,0.1l0-0.3c-0.1,0.1-0.1,0.2-0.2,0.2c0-0.1,0.2-0.1,0.1-0.3c-0.1,0-0.2,0.1-0.2,0c-0.1,0-0.1,0.1,0,0.1
						c0-0.1-0.2-0.2-0.1-0.3c-0.2,0.1-0.2-0.2-0.4,0c0-0.1,0-0.3-0.1-0.3c0,0.3-0.3-0.2-0.4,0.1c0.1-0.3-0.3-0.4-0.4-0.6
						c0,0,0,0.1,0,0.1c-0.1-0.1-0.2,0-0.3,0c0.1-0.2,0-0.3,0-0.5c-0.2,0.1-0.1,0.3-0.2,0.4c0.1-0.1-0.1-0.3,0-0.4
						c-0.2,0-0.1,0-0.3,0.1c0.1-0.2-0.1-0.1,0-0.3c-0.2,0-0.2,0.2-0.3,0C61.3,159.4,61.4,159.6,61.4,159.6z M58.2,156.6L58.2,156.6
						C58.2,156.6,58.2,156.6,58.2,156.6C58.2,156.6,58.2,156.6,58.2,156.6z M57.9,156.4c0,0,0.1,0.1,0.1,0.1c0,0,0.1-0.1,0-0.1
						C58,156.4,57.9,156.4,57.9,156.4z M59.1,156C59.1,155.9,59.1,155.9,59.1,156C59.1,156,59.1,156,59.1,156L59.1,156
						C59.1,156,59.1,156,59.1,156z"/>
					<path fill="#4F4F4F" d="M59.1,156.2C59.1,156.2,59.1,156.2,59.1,156.2C59.1,156.2,59.1,156.2,59.1,156.2L59.1,156.2L59.1,156.2
						z"/>
					<path fill="#4F4F4F" d="M59.5,166L59.5,166C59.5,166,59.5,166,59.5,166C59.5,166,59.5,166,59.5,166z"/>
					<polygon fill="#4F4F4F" points="54,153.8 54,153.8 54,153.8 					"/>
					<path fill="#4F4F4F" d="M60.8,164.4C60.8,164.3,60.7,164.3,60.8,164.4C60.8,164.3,60.8,164.3,60.8,164.4z"/>
					<path fill="#4F4F4F" d="M61.4,163.8l0.1-0.1C61.5,163.7,61.5,163.8,61.4,163.8z"/>
					<path fill="#4F4F4F" d="M61.9,163.3C61.9,163.3,62,163.4,61.9,163.3L61.9,163.3L61.9,163.3z"/>
					<path fill="#4F4F4F" d="M53.8,169.2L53.8,169.2C53.8,169.2,53.8,169.2,53.8,169.2z"/>
					<path fill="#4F4F4F" d="M56,168c0,0-0.1,0-0.1,0C55.9,168,56,168,56,168z"/>
					<polygon fill="#4F4F4F" points="53.8,167.7 53.8,167.7 53.8,167.7 					"/>
					<path fill="#4F4F4F" d="M55.8,168.1c0-0.1,0.1-0.1,0.1-0.1C55.9,168.1,55.8,168.1,55.8,168.1z"/>
					<path fill="#4F4F4F" d="M64.2,161.5L64.2,161.5C64.2,161.5,64.3,161.5,64.2,161.5L64.2,161.5z"/>
					<path fill="#4F4F4F" d="M64.3,161.5L64.3,161.5C64.3,161.5,64.3,161.5,64.3,161.5z"/>
					<path fill="#4F4F4F" d="M64.4,161.5L64.4,161.5C64.3,161.5,64.3,161.4,64.4,161.5z"/>
					<path fill="#4F4F4F" d="M63.5,162.1L63.5,162.1C63.5,162.1,63.5,162.1,63.5,162.1z"/>
					<path fill="#4F4F4F" d="M63.3,162.3c0,0,0.1-0.2,0.1-0.2l0,0C63.4,162,63.4,162.3,63.3,162.3z"/>
					<path fill="#4F4F4F" d="M62.8,163.5l0.2-0.2c0,0.1,0,0.2,0.1,0.1C63,163.8,63.1,163.3,62.8,163.5z"/>
					<path fill="#4F4F4F" d="M62.3,164C62.4,163.9,62.4,164.1,62.3,164C62.3,164.1,62.3,164.1,62.3,164z"/>
					<path fill="#4F4F4F" d="M58.3,167.1l0.1,0.1C58.3,167.2,58.3,167.1,58.3,167.1z"/>
					<polygon fill="#4F4F4F" points="57,167.1 57.1,167 57.2,167 					"/>
					<polygon fill="#4F4F4F" points="57.2,168.2 57.2,168.2 57.1,168.3 					"/>
					<path fill="#4F4F4F" d="M52.5,166.7l0.2,0C52.6,166.8,52.4,166.8,52.5,166.7z"/>
					<path fill="#4F4F4F" d="M52.6,163c-0.1,0-0.1-0.1-0.1-0.2C52.6,162.9,52.7,163,52.6,163z"/>
					<polygon fill="#4F4F4F" points="52.7,151.1 52.6,150.9 52.8,151.1 					"/>
				</g>
			</g>
		</g>
	</g>
</g>
</svg>
