<?xml version="1.0" encoding="utf-8"?>
<!-- Generator: Adobe Illustrator 18.1.1, SVG Export Plug-In . SVG Version: 6.00 Build 0)  -->
<svg version="1.1" id="Layer_1" xmlns="http://www.w3.org/2000/svg" xmlns:xlink="http://www.w3.org/1999/xlink" x="0px" y="0px"
	 width="68.5px" height="257.8px" viewBox="0 0 68.5 257.8" enable-background="new 0 0 68.5 257.8" xml:space="preserve">
<g>
	<g>
		<g>
			<g>
				<g>
					<path fill="#4F4F4F" d="M45.4,21.6c0.1,0.1,0.1,0.4-0.3,0.3l-0.3-0.4L45.4,21.6z"/>
					<path fill="#4F4F4F" d="M42.8,22.4c-0.5-0.2-1-0.6-0.7-0.9c0.4,0.4,0.6,0.2,1,0.7c0.4,0,0.7-0.1,0.6-0.3
						c0.1,0.1,0.6-0.1,0.8,0.2c-0.5,0.3-1.1,0.3-1.8,0.1C42.6,22.2,42.8,22.3,42.8,22.4z"/>
					<path fill="#4F4F4F" d="M15.5,37.3l0-0.2C15.5,37.1,15.5,37.2,15.5,37.3z"/>
					<path fill="#4F4F4F" d="M15.7,60.5c0-0.2,0.1-0.3,0.1-0.3C15.8,60.4,15.7,60.5,15.7,60.5z"/>
					<path fill="#4F4F4F" d="M16.1,64.5c0-0.1,0-0.2,0-0.2C16.2,64.3,16.2,64.4,16.1,64.5z"/>
					<path fill="#4F4F4F" d="M15.5,37.3l0.1,0.6C15.5,37.9,15.5,37.6,15.5,37.3z"/>
					<path fill="#4F4F4F" d="M37.6,21.4c0.1,0,0.2,0.1,0.3,0.1L37.6,21.4C37.7,21.4,37.6,21.4,37.6,21.4z"/>
					<path fill="#4F4F4F" d="M18.3,27.9l0.1-0.2c0.1,0,0.1,0,0.2,0L18.3,27.9z"/>
					<path fill="#4F4F4F" d="M23.6,23.6c-0.1,0-0.3-0.3-0.4-0.4c0.1,0.1,0.3,0.2,0.4,0.2C23.7,23.4,23.7,23.5,23.6,23.6z"/>
					<path fill="#4F4F4F" d="M35.9,22.8l0.2,0C36,22.8,35.9,22.8,35.9,22.8z"/>
					<path fill="#4F4F4F" d="M16.5,32.9c0,0,0.1,0.1,0.1,0.1C16.5,33,16.5,33,16.5,32.9z"/>
					<path fill="#4F4F4F" d="M34.3,240C34.3,240,34.3,240,34.3,240C34.3,240,34.3,240,34.3,240z"/>
					<path fill="#4F4F4F" d="M43.4,238.3l-0.1,0c0-0.1,0-0.1,0-0.2L43.4,238.3z"/>
					<path fill="#4F4F4F" d="M16.6,71.7C16.6,71.7,16.6,71.7,16.6,71.7C16.6,71.5,16.6,71.6,16.6,71.7z"/>
					<path fill="#4F4F4F" d="M16.3,138.4c-0.3-0.8-0.4,1.2-0.8,0.1C15.7,138.6,16.1,137.4,16.3,138.4z"/>
					<path fill="#4F4F4F" d="M37.4,21.4l-0.3,0C37.3,21.4,37.4,21.4,37.4,21.4z"/>
					<path fill="#4F4F4F" d="M15.6,138.5L15.6,138.5l0-0.1C15.6,138.4,15.6,138.4,15.6,138.5z"/>
					<path fill="#4F4F4F" d="M16.4,88.4c-0.1,0-0.1-0.1-0.2-0.2C16.3,88.3,16.3,88.3,16.4,88.4z"/>
					<path fill="#4F4F4F" d="M15.9,76l0,0.3C15.9,76.2,15.9,76.1,15.9,76z"/>
					<path fill="#4F4F4F" d="M15.9,94.9c0,0.2,0.1,0.2,0,0.5c0,0,0,0,0-0.1C15.9,95.2,15.9,95.1,15.9,94.9z"/>
					<path fill="#4F4F4F" d="M15.9,101.7c0,0,0-0.1-0.1-0.1c0-0.1,0-0.1,0-0.2L15.9,101.7z"/>
					<path fill="#4F4F4F" d="M15.4,232.4c0.2,0.1,0.3,0.1,0.4,0.2C15.5,232.6,15.9,233.6,15.4,232.4z"/>
					<path fill="#4F4F4F" d="M37.6,21.6c0-0.1-0.1-0.1-0.2-0.2c0.1,0,0.2,0,0.2,0C37.7,21.5,37.7,21.5,37.6,21.6z"/>
					<path fill="#4F4F4F" d="M13.1,95.2l0.1,1.1C13.1,96,13.1,95.6,13.1,95.2z"/>
					<path fill="#4F4F4F" d="M13.5,183.7l0,0.2C13.4,183.9,13.4,183.8,13.5,183.7z"/>
					<path fill="#4F4F4F" d="M13.1,99.4c0.1,0.2,0.2,0.4,0.2,0.6c0,0,0,0.1-0.1,0.1L13.1,99.4z"/>
					<path fill="#4F4F4F" d="M15.8,232.6L15.8,232.6L15.8,232.6z"/>
					<path fill="#4F4F4F" d="M20.4,239.1c-0.6-0.3-0.6-0.5-0.5-0.6c0.1-0.1,0.2-0.2,0.2-0.4c-1-0.9-0.7-0.1-1.3-0.2
						c-0.3-0.4-0.5-0.7-0.6-1.1c-0.1-0.3-0.3-0.7-0.5-0.9c-0.1,0-0.2-0.1-0.2,0.1c-0.1-0.5-0.5-1-0.9-1.6c-0.3-0.6-0.7-1.2-0.6-1.7
						c-0.1,0-0.1-0.1-0.2-0.1c0.3,0,0.5,0,0.6-0.1c-0.2-0.4-0.1-0.9-0.4-1c0.1,0.3,0,0.3,0,0.5c0,0,0-0.1,0-0.3c0-0.1,0-0.3,0-0.3
						c-0.6-0.3,0.1,0.7-0.2,0.8c-0.3-1-0.3-2.1-0.6-2.8c-0.5,0,0.4,1.7-0.3,0.9c0,0,0.6,1,0.6,1c-1-0.6,0.3,0.7-0.7,0.1
						c-0.4-0.7-0.4-1.2-0.5-1.6c-0.1-0.4-0.1-0.9-0.4-1.6c0.1-0.4,0.4,0,0.5-0.4c0-2.2-1.4-1.5-1-3.2c0.2-0.4,0.8-0.6,0.5-1.7
						l-0.5,0.4c-0.1-1.5,0.7-0.8,0.3-2.3c-0.2,0.3-0.2,1.1-0.2,0.9c-0.4-1,0.3-0.7,0.3-1.4l-0.4-0.2c0.1-1.5,0.4-3.2,0.5-4.8
						c-0.1,0.1-0.3,0.4-0.4,0c0.2-2.1-0.1-4.5-0.3-6.5l0.4-0.8c0-0.2-0.2-0.3-0.2-0.1c-0.1-0.8,0.2,0,0.4-0.4c0-0.4-0.2-0.6-0.3-0.3
						c0.3-1.4,0.7-4,0.3-5.4l-0.1,0.3c-0.1-1.1,0.7-1.3,0.4-2.3l-0.1,0.2c-0.2-2.5,0.2-5.2-0.4-7.1c0.5-0.4-0.2-2.5,0.5-2.6
						c-0.4-1.4-0.5-1-0.7-3c0-0.5,0.5-0.8,0.5-1.5l-0.4,0l0.4-0.9l-0.5-0.5l0.1-0.6c0,0.2,0.2,0.5,0.3,0.5c0.2-1-0.3-2.4-0.5-2.4
						l0.3-2.3c-0.2,0.1-0.2,0.4-0.3,0.7c0.4-1.2-0.4-0.2,0-1.3c0.1,0.1,0.2-0.1,0.3-0.1c-0.2-0.6-0.2-1.8-0.1-2.8l-0.3,0.2
						c-0.1-1.7,0.1-3.6,0.1-5.5c0.1,0.7,0.6,0.5,0.6,0l-0.4-0.2c0.3-0.4,0.2,0.6,0.5-0.2c0-0.7-0.5-0.5-0.6-0.1l0.1-0.9
						c-0.1-0.1-0.2,0.2-0.3,0.2c0.3-0.4-0.4-1.5,0-2l-0.1,0c0-1.9,0.1-2.8,0.2-4.3c0.4,0,0.3-0.6,0.6-1.1c-0.1-1.1-0.4-2.4-0.4-3.8
						c0.2-1,0.3-0.3,0.5-0.7c-0.3-0.1-0.3-1.4-0.5-0.7c0.1-1.6,0.1-2.1,0.3-4.2c0.1,0.2,0.2,0.5,0.3,0.3c0.1-0.4-0.1-0.9-0.3-0.8
						l0,0.1c0.5-2.3-0.9-5.4-0.3-7.2l0,0.1l0.3-1.9c-0.1-0.9-0.2,0.5-0.4-0.1c0.5-2.1-0.1-3.3,0.3-5c-0.9-1.3,0.1-4.7-0.5-6.5
						l0.2,0.1c0.2-0.5-0.1-0.6-0.2-0.9c0.2,0,0.2,0.5,0.3,0.2c0.3-3.9-0.3-8.1-0.5-12.1c-0.1-1.5,1.1-0.8,0.6-2.7l-0.4,0.5
						c0.5-3,0-6.1,0.4-9c-0.1,0.2-0.2,0.2-0.2,0.5c-0.3-0.6,0-2.3,0.2-2.3c0-0.5-0.2-0.1-0.3-0.4c-0.2-0.6,0.4-1.5,0.1-1.9
						c0-0.1-0.1,0.2-0.1,0.3c0.1-0.4,0-1.9,0.3-1.5c-0.2-1.1,0.2-2.1-0.1-2.9c0.4-0.6-0.2-1.9,0.4-2c-0.6,0.1-0.5-1.9-0.2-2.6
						c-0.2,0.2-0.2-0.6-0.4-0.3c0-0.8,0.1-1.5,0.4-1.4c-0.7-1.4,0.5-2.9-0.3-3.7c0.3-2.3,0.5-4.5,0.6-6.6c-0.6,0.1-0.1,2.3-0.6,2.2
						c0.2-2,0.7-3.1,0.6-5.1c-0.1-0.5-0.2,0.3-0.3,0.5c0.2-2-0.1-3.8,0.3-5.6c-0.1,0-0.1,0.2-0.2,0.4c0-0.3-0.1-0.8,0.2-0.8
						l-0.1,0.3c0.4,0.6,0.8-1.4,1-1.4c-0.7,0.6-0.2-1.7-1.1-0.8c0-0.2,0.2-0.5,0.3-0.5c0-0.3-0.1-0.4-0.3-0.1
						c0.1-1.2,0.4-0.8,0.4-1.9c-0.1,0-0.2,0.2-0.3,0.3c0.2-0.6,0.5-1.1,0.4-2.1c-0.1,0.1-0.2-0.1-0.2,0.2c0-1.6,0.6-2.8,0.4-4.6
						c-0.5,0.5-0.2-0.6-0.6-0.7l0.1-1l0.2,0.4c0-0.8,0.3-1.6,0.2-2.3l-0.2,0.6l0.1-1.6l0.2,0.9c0.2-0.9,0.6,0.1,0.5-1
						c0,0.2,0-0.8-0.3-1.3l0,0c0.1-0.4,0.3-0.9,0.2-1.5c-0.1-0.2-0.5,0.1-0.6,0c0.4-0.4,0.1-2,0.5-2.5c-0.1,0.2-0.3,0.2-0.4,0.1
						l0.3-0.3c-0.1-0.4-0.2-0.5-0.3-0.4c-0.1-1.2,0.6,0.4,0.3-1c0,0.1-0.1,0.1-0.1,0.3c-0.1-1.4,0.2-2.7,0-4
						c-0.5-0.4-0.1,1.1-0.5,0.7c0.1-1.9,0.6-3.9,0.5-5.7l0.1,0.3c0.7-0.3-0.3-1.3,0-2.3c0,0.2-0.4,0.3-0.3,0.2
						c-0.1-1.2,0.2-2.5,0.4-4.4l-0.2,0.2c-0.1-0.7-0.1-2,0-2.8c0.2-0.2,0.2-0.7,0.4-0.4c-0.2-0.6-0.1-1.3-0.1-1.9
						c0.1-0.6,0.3-1.2,0.6-1.7c0.5-1.1,1-2,1.1-3.2c-0.1,0.2-0.4,0.5-0.3,0.3c0,0,0.2-0.4,0.5-0.8c0.3-0.4,0.5-0.8,0.5-0.8
						c0.2,0.3,0,0.3,0,0.8c0.3-0.1,0.6-0.5,0.9-0.9c-0.6,0.6-0.4-0.3-0.3-0.7c0,0.1,0.2,0.1,0.2,0.1c0.2-1.1,0.5,0.2,1.1-1l-0.2,0
						c0.4-0.3,0.9-0.5,1.2-0.9c-0.1-0.4-0.5,0.2-0.7,0.1c0.3-0.3,0.7-0.4,1-0.5c0.4-0.1,0.7-0.3,0.9-0.6c-0.3,0.1-0.7,0.4-1,0.5
						c0.4-0.8,0.5-0.8,1-1.1l0,0c0,0,0.3-0.2,0.6-0.4c0.3-0.2,0.6-0.3,0.6-0.3L22,22.2c0.6,0.2,1.1,0.1,1.6,0
						c0.5-0.1,1.1-0.2,1.7,0.1c-1.2-0.5-0.2-0.3-0.3-0.7c0.3-0.1,0.8-0.2,0.7-0.3c0.6,0.3,1-0.2,1.8,0.2c0-0.1,0.6,0,0.5-0.3
						c0.8,0.1-0.2,0.2-0.1,0.4c1.2,0.4,2.8-0.5,4.5,0.1c1.5,0.2,1.7,0.6,3.1,0.8c0.5-0.2-0.4-0.4-0.4-0.4c0.7-0.2,1.3-0.1,2,0
						c-0.1-0.1,0-0.2,0.2-0.3c0.6,0,0.4,0.4,1.1,0.3c-0.1-0.1-0.3-0.4-0.6-0.5c0.7,0.1,1.3,0.3,2,0.4c0.2-0.2-0.4-0.3-0.7-0.5
						c0.8,0.1,2,0.2,2.2,0.5l-0.5,0.1c0.3,0,0.1-0.3-0.1-0.3c-0.7-0.3-1,0.1-1,0.2l0.5,0.1c-0.5,0.7-2-0.1-2.9-0.1l0.4,0.5l-1-0.4
						c-0.2,0.1-0.4,0.4,0.1,0.5c-0.7,0.3-0.6-0.2-1.2,0.1c-0.1,0,0,0.1,0,0.1l-0.7-0.2c0.1,0.1-0.1,0.4,0.3,0.3
						c-1.2,0.3-2-0.4-2.5,0l0.1,0c-1.7-0.2-0.2-0.4-1.5-0.8l-0.9,0.9l-0.2-0.4c-0.2,0-0.5,0-0.5,0.2c-0.7-0.3,0.1-0.2-0.3-0.4
						c-0.9,0.3-2.3-0.2-2.5,0.4c-0.3-0.3,0.8-0.2-0.1-0.4c-0.3,0.7-1.1-0.1-1.8,0.2c0.2,0.3,1,0.2,0.2,0.5c-0.2-0.3-0.6-0.3-1-0.1
						c-0.4,0.1-0.7,0.3-1,0.3c-0.1-0.4-1.3,0.1-2.3,0.6c0.1,0-0.3,0.4-0.8,0.8c-0.4,0.4-0.9,1-1.1,1.4l0.1,0c-0.5-0.2-1,0.7-1.5,1.3
						c0.3,0.1,0.4,0.1,0.7-0.2c0,0-0.4,0.6-0.4,0.6c-0.2,0.1-0.4,0.2-0.7,0.6l0.4,0c-0.2,0.4-0.5,0.8-0.8,1.2
						c-0.2,0.4-0.5,0.9-0.6,1.5c-0.3,0-0.5-1.2-1.1,0c0.1,0.1,0.4,0.2,0.6-0.1c-0.1,0.1-0.3,0.3-0.3,0.6l0.4-0.4
						c0,0.6-0.3,0.2-0.4,0.6c0.2,0.1,0.1,0.4,0.3,0.4c0.1-0.1,0-0.4,0.2-0.5c-0.1,0.5-0.1,1.1,0,1.3c-0.1-0.1-0.3-0.1-0.4,0.3
						c-0.2,0.9,0.2,0.4,0.3,0.9c-0.2,0.2-0.1,0.8-0.5,0.8c0,0.3,0.1,0.3,0.2,0.5c-0.1,0.2-0.2,0.8-0.2,1.2c-0.1,0.4-0.1,0.7-0.3,0.5
						l0-0.1c0,0,0,0.1,0,0.1l0,0l0,0c-0.4,1.6,0.2,3.4,0,5l0.1,0c-0.1,1-0.1,2.2-0.3,2.8c0,0.3,0.2,0.7,0.4,0.6
						c-0.1,0.7-0.2,0.8,0,1.9c0.2-0.7,0.2,0.3,0.2-0.8c0.1,1,0.3,1.2,0,2.2c0.3-0.4,0.4,0.7,0.3,1.2l-0.2-0.7c0,0.5,0,1,0,1.4
						l0.4-0.2c0.5,2-0.9,3.5,0,5c-0.3,0.5-0.2-1.1-0.5-0.6c0.1,0.9,0.7,1.8,0.7,2.1c0.2,1.2-0.6,1.2-0.4,2.5
						c-0.1-0.2-0.5-0.3-0.7,0.6c0.1,0.9,0.6,1.1,0.7,0.5c0-0.2,0-0.3-0.1-0.3c0.1-0.3,0.1-0.7,0.3-0.3L15.9,60
						c0.2,0.4,0.1,1.7,0.4,1.4c-0.1,0.7-0.2,0.3-0.3-0.2c0.2,1.2,0,1.8,0.2,3c-0.1-0.2-0.3-0.4-0.3-0.2c0.2,1.8-0.3,0.8-0.3,2
						c0.2,0.7,0.5-0.2,0.3,1c0.2,0.7,0.4,0.2,0.5-0.1c-0.3,1.1,0.2,2,0.2,2.7l0.1-0.6c-0.1,0.3-0.1,0.6-0.1,0.9l-0.3-0.3
						c0.1,0.3,0.1,0.6,0.2,0.6c-0.2,0.3-0.5-0.3-0.8,0.4c0.2,0.4-0.2,1.4,0.2,1.5c-0.1-1.4,0.4,0.2,0.5-1c0,0.2,0,0.5,0,0.8
						c0,0.1,0.1,0,0.1-0.1c0.4,1.4-0.4,0.6-0.4,2c0.2-0.2,0.4,0.3,0.4,0.6c0-0.6-0.4-0.3-0.5,0.2c0.2,0.9-0.1,1-0.1,1.4l-0.1-0.5
						c-0.2,0.2-0.2,0.6-0.3,1.3c0.2,0.1,0.1-0.6,0.2-0.3c-0.4,0.7,0.4,1.6,0.1,2.5c0.1,0.4,0.4,0,0.5,0.4c-0.3,1.1,0.3,1.2,0.1,2.3
						c-0.3-0.3-0.2-0.4-0.5,0.4l0.2-1.9l-0.4,1.2c0-0.6,0.2-1.2,0.1-1.5c-0.2,0.6-0.2,0.5-0.4,0.2c0.4,0.8-0.3,1.5,0,2.4l0.7,0
						c0.3,1.3-0.4,2.4-0.2,4.1l-0.1-0.6c-0.3,0.2,0,1.1-0.2,1.6c0.2-0.1,0.3,0.3,0.5,0.5c-0.2,0,0,1.3-0.5,1.4l0.3,0.8
						c0.1,1.4-0.7,1.6-0.6,3c0.3-0.4,0.4,0.2,0.6-0.7c0,0.5,0,0.9-0.1,0.9c0.2,0.3-0.3,1.3-0.1,1.7c-0.1,0.2-0.4,0.3-0.3,0.8
						c0,0.1,0.1,0,0.1,0c-0.1,0-0.2,0.8-0.4,0.4c0.8,1.4-0.1,3.9,0.6,5.1c-0.1,1-0.2,2.2-0.2,3.1c0.1-0.1,0.1,0,0.1-0.2
						c0.2,1.2-0.7,0.8-0.5,2.2c0.4,0.7,0.2-0.7,0.4-0.3c0.8,0.2-0.1,1.7,0.4,2.6l0-0.2c0.3,0.7-0.3,1.8-0.2,3c0,0,0.1-0.1,0.1,0
						c-0.4,0.8-0.5,2.3-0.7,3.5c0.3-0.4,0.2-0.5,0.5-0.3c0,0.5-0.5-0.1-0.6,0.9c0.2,0.3,0.3,1.1,0.7,1.2l0-1c0.4,0.5,0,1.2,0.1,1.8
						l0.2-0.1c-0.1,1.5-0.6,1.5-0.5,3.1l-0.1-0.2c-0.5,0.9,0.3,0.7-0.1,1.6l0.5,0.3c-0.1,0.6-0.5,2-0.6,3c0.4-0.6,0.6-1.8,0.8-2.5
						c0,0.6,0,1.9-0.3,2.2c0-0.2,0.2-0.5,0.1-0.7c-0.4,0.7-0.6,1.6-0.6,2.7c1-0.2,0.2,2.9,1,3.8c-0.4,2,0.2,4,0.1,6.3
						c-0.7-0.8,0,0.7-0.8,0.5c0,0.5,0,0.7,0,0.8l0.5,1.6c0.2,0.4,0.2-0.5,0.3-0.5c0.1,1.2,0.3,0.5,0.5,1.3c-0.3-0.2-0.4,0.4-0.3,1.1
						l-0.4-1c-0.4,1.7,0.6,1.4,0.2,3.1l0.2-0.5c-0.1,0.9,0,3.2-0.6,4c0.1,0.2,0.3,0.4,0.4,0c0.1,2-0.7,4.6-0.3,6.1l0.2-0.2
						c-0.1,0.4-0.4,0.7-0.2,1.1c0.1,0,0.2-0.2,0.2,0c-0.1,0.2-0.3,1-0.2,1.5l0.2-0.4c0.2,2-0.5,3.1-0.6,4.7c0.5,0,0.7,1.6,0.8,2.4
						l0.1,0c0.1,2.3-0.5,4-0.7,6.1c0.6,1.3,0.2,4.5,0.6,6.7c-0.1-0.3-0.4,0.1-0.5,0.4c0.1,0.5-0.4,1.4,0.1,1.3l0-0.2
						c0.5,0.4,0.4,1.4,0.4,2.2l-0.7,0.1c1,2.1-0.4,5.5,0.5,6.7c-0.2,0.5-0.2,1.1-0.3,1.6l0.4,0c0.1,1.4,0.1,2.1,0.1,3.9l0.3-0.4
						c0,1-1,1.2-1,2.2l0.5,0.3c0,1.7,0.5,3.5,0,5.2c0.1,0,0.2-0.1,0.3-0.4c0,0.8,0.4,3.1-0.4,2.8c0.5,0,0,1.8-0.2,2.7l0.3-0.1
						c-0.4,0.8-0.6,0.8-0.7,1.9c0,0.3,0.3,0.2,0.2-0.1c0.2,0.9-0.3,0.7-0.1,1.7l0.2-0.4c0,0.9-0.1,0.8-0.4,1.3
						c-0.1,0.6,0.1,1.7,0.4,1.8c-0.2,0.1-0.4,0.6-0.4,1.1c0.1,0.1,0.2-0.1,0.2-0.2c0.2,1.5-0.4,2.2-0.1,3.2c0.1,0,0.2,0.1,0.2,0.2
						c0-1.2,0-2.1-0.1-2c0.3,0,0.4,1,0.8,0.2c-0.2,0.8-0.8,2.1-0.6,3c0,0,0.1,0.1,0.1,0.1l0-0.1c0,0.2,0,0.4-0.1,0.6
						c0.1,0.3,0.1,0.5,0.1,0.8c0.3,0.1,0.1,1.1,0.2,1.6c-0.4,0-0.3,0.6-0.6,0c0,0.1,0-0.1,0.1-0.4c0-0.1,0-0.2,0-0.2l0,0
						c0-0.3,0-0.7,0-1.2c-0.2,0.4-0.3,0.8-0.1,1.3c-0.2,0.2-0.5,0.5-0.6,0.7c0.5,0.7,0.8,1.9,1.1,2.1c-0.2,1.5-0.1,3.3-0.6,4.3
						c0,0.4,0.2,0.4,0.4,0.6c0-0.2,0-0.5,0.1-0.6c-0.1,0.8,0.3,2.3-0.1,2.6c0.4,0.9,0.3-0.6,0.5,0.7l0.1-0.2c0.7,1.2,0.8,2.3,1,3.4
						c0.2,1.1,0.7,2.3,2,3.1c-0.2-0.1-0.3-0.2-0.3-0.2c1.2,1.1,2.5,2.3,4.1,2.7c0.2,0.1,0.4,0.1,0.6,0.2l0.6,0.1c0.4,0,0.9,0,1.3,0
						c0.9,0,1.8-0.1,2.7-0.3c1-0.1,1.1,0.2,1.7,0.4l0.2-0.4l1,0.4c1.5,0.3,2.6-0.9,4.4-0.3l-0.2,0.3c0.7,0,2.1,0.1,2-0.1
						c0.1,0,0.2,0.3,0.5,0.1l0-0.2l1.7,0.3c1.3-0.1-0.2-0.8,1.7-0.8c0.7,0.1,2,0.6,1.7,0.7c-0.3,0-0.7,0.1-0.7,0.3l0.6,0.1
						c0.1,0.6,0.6,1.2-1,1.6l-1.1-0.4l-0.3,0.3l0.9,0c-0.5,0.3-0.8,0-1.2-0.1c-0.1,0.1-0.2,0.3-0.5,0.3l-1.1-0.6
						c-0.1,0.2,0.5,0.5-0.2,0.6c-0.5-0.3,0.5-0.5-0.3-0.7c-0.5,0.3-0.4,0.5-1,0.3c-0.1,0.1,0,0.2,0.3,0.3c-0.5-0.2-1.4-0.1-1.7-0.4
						c-0.5,0.3-1.8-0.1-1.8,0.5c-0.2-0.1-1-0.4-1.5-0.5c0.9,0.7-1.9,0-1.6,0.7c-0.7-0.6-2.4-0.3-3.6-0.6c0.1,0,0.2,0.1,0.3,0.1
						c-0.7,0-0.9,0.2-1.3,0.3c-0.1-0.5-1.1-0.6-1.7-0.9c-0.5,0.2-0.3,0.4-0.1,0.5c0.2,0.2,0.5,0.3,0.4,0.5c0.1-0.4-1.7-0.5-1.3-0.8
						c-0.8,0.2-0.6,0-1.1,0.3c0-0.6-0.7-0.3-1.1-0.9c-1.1-0.2-0.5,0.4-1.5-0.4c-0.3-0.1-0.2,0.1-0.1,0.2
						C20.1,238.9,20.4,239.1,20.4,239.1z M14,215.6L14,215.6c0,0.2,0,0.4,0,0.5C13.9,216,13.9,215.8,14,215.6z M14,213.6
						c0,0.2,0,0.5,0,0.9c0.1,0.1,0.2,0,0.2-0.2C14.1,214.3,14.1,213.9,14,213.6z M16.4,217.8c0-0.3,0-0.4-0.1-0.5c0,0.1,0,0.3,0,0.6
						c0,0,0,0,0,0C16.3,217.9,16.3,217.9,16.4,217.8z"/>
					<path fill="#4F4F4F" d="M15.9,218.4c0,0,0,0.1,0,0.1c0-0.1-0.1-0.1-0.1-0.2c0,0,0.1-0.1,0.1-0.1
						C15.9,218.3,15.9,218.3,15.9,218.4z"/>
					<path fill="#4F4F4F" d="M15.4,37L15.4,37C15.4,37,15.4,37,15.4,37C15.4,37,15.4,37,15.4,37z"/>
					<polygon fill="#4F4F4F" points="13.3,185.9 13.4,185.9 13.3,186.1 					"/>
					<path fill="#4F4F4F" d="M17.5,26.2c0,0,0-0.1,0-0.2C17.6,26,17.6,26.1,17.5,26.2z"/>
					<path fill="#4F4F4F" d="M21.2,22.7c0,0,0.1-0.1,0.3-0.2c0.1-0.1,0.3-0.2,0.3-0.2C21.5,22.4,21.3,22.6,21.2,22.7z"/>
					<path fill="#4F4F4F" d="M25,21.5c0,0.1,0.1,0.1,0.1,0.2l0,0L25,21.5z"/>
					<path fill="#4F4F4F" d="M13.5,75.7c0,0,0,0.1,0,0.1C13.5,76.2,13.5,76,13.5,75.7z"/>
					<path fill="#4F4F4F" d="M14.4,58.4c-0.1,0.2-0.1,0.4-0.2,0.6C14.2,58.7,14.2,58.4,14.4,58.4z"/>
					<polygon fill="#4F4F4F" points="13.1,95.1 13.1,95.1 13.1,95.2 					"/>
					<path fill="#4F4F4F" d="M14.2,59.8c-0.1-0.3-0.1-0.6,0-0.8C14.2,59.2,14.3,59.5,14.2,59.8z"/>
					<path fill="#4F4F4F" d="M40.9,21.3l0.2,0c0,0,0,0,0,0.1L40.9,21.3z"/>
					<path fill="#4F4F4F" d="M41.1,21.4l0.2,0C41.2,21.4,41.1,21.4,41.1,21.4z"/>
					<path fill="#4F4F4F" d="M41.7,21.5l-0.4-0.1C41.4,21.4,41.6,21.4,41.7,21.5z"/>
					<path fill="#4F4F4F" d="M36.1,21.5L36,21.4C36,21.4,36,21.4,36.1,21.5z"/>
					<path fill="#4F4F4F" d="M34.6,21.5c0.4,0,0.9-0.3,1.4-0.2l0,0.1C35.8,21.2,34.9,21.7,34.6,21.5z"/>
					<path fill="#4F4F4F" d="M28.4,23l1.2-0.1c-0.2,0.1-0.5,0.3,0.1,0.3C28.2,23.7,30.1,23,28.4,23z"/>
					<path fill="#4F4F4F" d="M24.6,23.3c0.6,0,0,0.2,0,0.3C24.3,23.4,24.2,23.4,24.6,23.3z"/>
					<path fill="#4F4F4F" d="M15.7,45.6l0.3-0.1C16,46.1,15.9,45.6,15.7,45.6z"/>
					<polygon fill="#4F4F4F" points="14,50.9 13.8,50.4 14.1,50.2 					"/>
					<polygon fill="#4F4F4F" points="16.3,54 16.4,53.8 16.2,54.6 					"/>
					<path fill="#4F4F4F" d="M16.2,100.5l-0.4-0.2C15.9,100,16.3,99.9,16.2,100.5z"/>
					<path fill="#4F4F4F" d="M15.8,120.5c0.2,0.2,0.3,0.8,0.1,1.1C15.9,121.2,15.7,120.7,15.8,120.5z"/>
					<polygon fill="#4F4F4F" points="16.4,180.6 16.6,180.2 16.5,181 					"/>
				</g>
			</g>
		</g>
	</g>
</g>
<g>
	<polygon fill="#353535" points="55.2,237.9 49.1,242.5 43,247.1 43,237.9 43,228.7 49.1,233.3 	"/>
	<g>
		<g>
			<g>
				<g>
					<path fill="#4F4F4F" d="M54.9,237.6c0,0,0.1,0.1,0,0.1l-0.2-0.1L54.9,237.6z"/>
					<path fill="#4F4F4F" d="M54.8,238.2c-0.1,0-0.3-0.1-0.4-0.3c0.2,0.1,0.1,0,0.3,0.1c0.1,0,0.1-0.1,0-0.2c0,0,0.1-0.1,0.2,0
						C55,238,54.9,238.1,54.8,238.2C54.7,238.1,54.7,238.1,54.8,238.2z"/>
					<path fill="#4F4F4F" d="M49.4,242.6L49.4,242.6C49.5,242.5,49.4,242.6,49.4,242.6z"/>
					<path fill="#4F4F4F" d="M46.1,245.2C46.1,245.2,46.1,245.2,46.1,245.2C46.1,245.3,46.1,245.3,46.1,245.2z"/>
					<path fill="#4F4F4F" d="M45.6,245.8C45.6,245.8,45.6,245.8,45.6,245.8C45.6,245.8,45.6,245.9,45.6,245.8z"/>
					<path fill="#4F4F4F" d="M49.4,242.6l-0.1,0.1C49.3,242.6,49.4,242.6,49.4,242.6z"/>
					<path fill="#4F4F4F" d="M53.7,238.4C53.8,238.4,53.8,238.4,53.7,238.4L53.7,238.4L53.7,238.4z"/>
					<path fill="#4F4F4F" d="M51,241.5L51,241.5C51.1,241.5,51.1,241.6,51,241.5L51,241.5z"/>
					<path fill="#4F4F4F" d="M52.2,240.7c0,0-0.1-0.1-0.2-0.1C52.1,240.6,52.1,240.6,52.2,240.7C52.2,240.6,52.2,240.6,52.2,240.7z"
						/>
					<path fill="#4F4F4F" d="M53.9,239.1L53.9,239.1C53.9,239.1,53.9,239.1,53.9,239.1z"/>
					<path fill="#4F4F4F" d="M50.2,242.2C50.2,242.2,50.2,242.2,50.2,242.2C50.2,242.2,50.2,242.2,50.2,242.2z"/>
					<path fill="#4F4F4F" d="M53.4,237.5L53.4,237.5C53.4,237.5,53.4,237.5,53.4,237.5z"/>
					<polygon fill="#4F4F4F" points="55.2,237.9 55.2,237.8 55.2,237.8 					"/>
					<path fill="#4F4F4F" d="M44.4,247C44.4,247,44.4,247,44.4,247C44.5,247,44.5,247,44.4,247z"/>
					<path fill="#4F4F4F" d="M42.4,236.2c0.1,0.1,0.2-0.2,0.3,0C42.7,236.2,42.5,236.4,42.4,236.2z"/>
					<path fill="#4F4F4F" d="M53.7,238.4C53.7,238.4,53.7,238.4,53.7,238.4C53.7,238.4,53.7,238.4,53.7,238.4z"/>
					<polygon fill="#4F4F4F" points="42.7,236.2 42.7,236.2 42.8,236.2 					"/>
					<path fill="#4F4F4F" d="M42.4,245.6C42.4,245.6,42.4,245.6,42.4,245.6C42.4,245.6,42.4,245.6,42.4,245.6z"/>
					<path fill="#4F4F4F" d="M43.4,247.4L43.4,247.4C43.4,247.4,43.4,247.4,43.4,247.4z"/>
					<path fill="#4F4F4F" d="M42.6,244.3C42.6,244.2,42.6,244.2,42.6,244.3L42.6,244.3C42.6,244.2,42.6,244.2,42.6,244.3z"/>
					<polygon fill="#4F4F4F" points="42.6,243 42.6,243 42.6,243.1 					"/>
					<path fill="#4F4F4F" d="M50.4,235.1c0,0,0.1,0,0.1-0.1C50.5,235.1,50.6,235.3,50.4,235.1z"/>
					<path fill="#4F4F4F" d="M53.8,238.4C53.8,238.4,53.7,238.4,53.8,238.4L53.8,238.4C53.8,238.4,53.8,238.4,53.8,238.4z"/>
					<path fill="#4F4F4F" d="M43.8,244.2l0-0.2C43.8,244.1,43.8,244.1,43.8,244.2z"/>
					<path fill="#4F4F4F" d="M43.9,230.1L43.9,230.1C43.9,230.2,43.9,230.2,43.9,230.1z"/>
					<path fill="#4F4F4F" d="M43.8,243.4c-0.1,0-0.1-0.1-0.1-0.1c0,0,0,0,0,0L43.8,243.4z"/>
					<path fill="#4F4F4F" d="M50.6,235L50.6,235L50.6,235z"/>
					<path fill="#4F4F4F" d="M51.4,236.1c-0.2-0.1,0.1-0.2,0.1-0.3c-0.1-0.2-0.2,0.1-0.3,0.1c-0.1-0.1,0-0.3-0.1-0.4
						c0,0-0.1,0-0.1,0.1c0-0.2-0.3-0.3-0.4-0.5c0,0,0,0,0,0c0.1-0.1,0.2-0.1,0.2-0.2c-0.1-0.1,0-0.2-0.2-0.1c0,0,0,0.1,0,0.1l0-0.1
						c-0.2,0.1,0.1,0.1,0,0.2c-0.1-0.2-0.2-0.4-0.3-0.4c-0.1,0.1,0.2,0.2,0,0.3l0.2,0.1c-0.3,0.1,0.1,0.1-0.2,0.2
						c-0.2-0.1-0.2-0.3-0.4-0.4c0-0.1,0.1-0.1,0.1-0.2c-0.2-0.4-0.5,0.2-0.6-0.2c0-0.1,0.1-0.4-0.1-0.4l-0.1,0.2
						c-0.2-0.1,0.1-0.3-0.2-0.4c0,0.1,0.1,0.2,0.1,0.2c-0.2,0,0-0.2-0.1-0.3l-0.1,0.1c-0.2-0.2-0.4-0.5-0.6-0.7c0,0.1,0,0.1-0.1,0.1
						c-0.3-0.3-0.7-0.5-1-0.6l0-0.2c0,0-0.1,0-0.1,0.1c-0.2,0,0.1-0.1,0-0.2c-0.1-0.1-0.1,0-0.1,0.1c-0.1-0.3-0.4-0.7-0.7-0.7l0,0.1
						c-0.2-0.1,0-0.4-0.2-0.4l0,0c-0.4-0.2-0.7-0.6-1.1-0.7c0.1-0.2-0.4-0.2-0.2-0.5c-0.3,0-0.4,0-0.4,0.1c0,0,0-0.2,0-0.3l0,0.2
						c0,0,0-0.3,0-0.3c0,0,0,0.3,0,0.3l0-0.1c0,0,0-0.1,0-0.2c-0.1-0.2-0.1,0.1,0,0.2c0,0-0.2-0.3-0.2-0.3c0.1,0.1,0.1,0.2,0.1,0.3
						c-0.2-0.4,0.2,0.3,0,0l0,0c0,0,0-0.1-0.1-0.1c0,0-0.1-0.1-0.1-0.1c0.1,0.2,0.1,0.3,0.1,0.3l0.1,0.2c0,0.1-0.1,0-0.1,0.1
						c-0.1,0-0.3-0.1-0.3-0.1l0.2,0.1c-0.1,0-0.1-0.1-0.2,0c0,0.1,0.2,0.1,0.3,0.1l-0.1,0c0.1,0,0.1,0,0.2,0c-0.1-0.1,0.2,0.2,0,0.3
						l0.1,0c0,0.4-0.1,0.5-0.1,0.8c-0.2,0-0.1,0.1-0.2,0.2c0.1,0.2,0.2,0.4,0.2,0.7c-0.1,0.2-0.1,0.1-0.2,0.1c0.1,0,0.1,0.3,0.2,0.1
						c0,0.3,0,0.4-0.1,0.8c-0.1,0-0.1-0.1-0.1-0.1c0,0.1,0.1,0.2,0.1,0.1l0,0c-0.2,0.4,0.4,1,0.1,1.3l0,0l-0.2,0.4
						c0,0.2,0.1-0.1,0.2,0c-0.2,0.4,0,0.6-0.1,0.9c0.4,0.2,0,0.9,0.2,1.2l-0.1,0c-0.1,0.1,0.1,0.1,0.1,0.2c-0.1,0-0.1-0.1-0.1,0
						c-0.1,0.7,0.1,1.5,0.2,2.2c0,0.3-0.5,0.2-0.3,0.5l0.2-0.1c-0.2,0.5,0,1.1-0.2,1.7c0,0,0.1,0,0.1-0.1c0.1,0.1,0,0.4-0.1,0.4
						c0,0.1,0.1,0,0.2,0.1c0.1,0.1-0.2,0.3,0,0.3c0,0,0,0,0.1-0.1c-0.1,0.1,0,0.3-0.1,0.3c0.1,0.2-0.1,0.4,0,0.5
						c-0.2,0.1,0.1,0.3-0.2,0.4c0.3,0,0.2,0.4,0.1,0.5c0.1,0,0.1,0.1,0.2,0.1c0,0.1-0.1,0.3-0.2,0.3c0.3,0.3-0.2,0.5,0.1,0.7
						c0,0.1-0.1,0.1-0.1,0.2c0,0-0.1,0.1-0.1,0.1c0,0.1-0.1,0.2-0.1,0.4c0.3-0.3,0-0.2,0.3-0.4c-0.1,0.1-0.3,0.5-0.3,0.6
						c0,0,0.1-0.2,0.2-0.3c0,0.1,0,0.1,0,0.2c0.1,0,0.1-0.1,0.2,0c0,0,0-0.1,0-0.1c0,0,0-0.1,0,0.1l0,0c-0.1,0.3,0,0.4,0.1,0.5
						c0-0.4,0.2-0.2,0.1-0.7c0,0,0,0.1,0,0.2c0,0,0-0.1,0-0.2c0.1,0,0.1,0.2,0.2,0.1c0,0-0.1-0.1-0.1-0.1c0.1,0.1,0.2,0.1,0.3,0
						c0,0,0-0.1-0.1,0c0.3-0.2,0.6-0.1,0.8-0.4c-0.2-0.1,0-0.1-0.1-0.3l0.2-0.1l0,0.1c0.1-0.1,0.3-0.1,0.4-0.2l-0.1,0l0.3-0.1
						l-0.1,0.2c0.2,0,0.1,0.2,0.3,0c0,0,0.1-0.1,0.1-0.2l0,0c0.1,0,0.2,0,0.3-0.1c0-0.1-0.2-0.2-0.2-0.2c0.2,0.1,0.3-0.2,0.5-0.1
						c-0.1,0-0.1-0.1-0.1-0.1l0.1,0.1c0-0.1,0-0.1,0-0.2c0.2-0.2,0.1,0.3,0.2,0c0,0,0,0-0.1,0c0.2-0.2,0.5-0.2,0.6-0.4
						c-0.1-0.2-0.2,0.1-0.2-0.1c0.3-0.2,0.7-0.2,1-0.5l0,0.1c0.2,0.2,0.1-0.3,0.3-0.3c0,0-0.1-0.1-0.1-0.1c0.2-0.2,0.4-0.2,0.7-0.4
						l-0.1,0c0.1-0.1,0.3-0.2,0.4-0.4c0.1,0,0.1,0,0.2,0.1c0.1-0.6,0.8-0.3,0.9-0.9c0,0-0.1,0-0.1,0l0.3-0.1c0.1,0.1,0,0.1,0,0.2
						c0.1,0,0.2,0,0.3,0c-0.2,0-0.1-0.2-0.1-0.3c0,0,0.1,0.1,0.1,0.1c0-0.3,0.2,0.2,0.3-0.1l-0.1,0c0.1,0,0.2,0,0.3-0.1
						c-0.1-0.1-0.1,0-0.2-0.1c0.1-0.1,0.4,0.1,0.4-0.1c-0.1,0-0.1,0.1-0.2,0.1c0-0.2,0-0.2,0.1-0.3l0,0l0.1-0.2l0,0.1
						c0.4,0.2,0.3-0.2,0.7-0.1c-0.3-0.1-0.1-0.1-0.2-0.2c0-0.1,0.1-0.2,0-0.2c0.2,0,0.1-0.2,0.3-0.1c0,0,0.1-0.1,0-0.2
						c0.1-0.1,0,0.1,0.1,0.1c0.3,0,0.3-0.5,0.7-0.5c0.3-0.1,0.4,0,0.7,0c0-0.1-0.2-0.1-0.2-0.1c0.1-0.1,0.2-0.2,0.3-0.2
						c0,0-0.1-0.1-0.1-0.1c0.1-0.1,0.2,0.1,0.2,0c-0.1,0-0.1-0.1-0.2-0.1c0.1,0,0.3,0,0.4-0.1c0-0.1-0.1-0.1-0.2-0.1
						c0.1-0.1,0.3-0.2,0.5-0.1l0,0.1c0,0-0.1-0.1-0.1-0.1c-0.2,0-0.1,0.1-0.1,0.2l0.1,0c0.1,0.3-0.3,0.2-0.5,0.3l0.2,0.1l-0.3,0
						c0,0.1,0.1,0.2,0.2,0.2c0,0.2-0.1,0-0.2,0.2c0,0,0,0,0,0l-0.1,0c0,0,0.1,0.1,0.1,0.1c-0.1,0.2-0.4,0.1-0.4,0.3l0,0
						c-0.3,0.1-0.1-0.1-0.4-0.1l0.1,0.4l-0.1-0.1c0,0-0.1,0.1,0,0.1c-0.2,0,0-0.1-0.2-0.1c0,0.2-0.4,0.2-0.3,0.4
						c-0.1-0.1,0.1-0.2-0.1-0.1c0.1,0.3-0.2,0.1-0.2,0.3c0.1,0.1,0.2-0.1,0.2,0.1c-0.2-0.2-0.2,0.2-0.3,0.2
						c-0.1-0.2-0.3,0.1-0.5,0.2c0.1,0-0.2,0.3-0.3,0.5l0,0c-0.2-0.1-0.3,0-0.4,0.1c0.1,0.1,0.1,0.1,0.2,0.1l-0.1,0.1
						c-0.1,0-0.1,0-0.2,0l0.1,0.1c-0.1,0.1-0.4,0.1-0.5,0.3c-0.1-0.1-0.1-0.4-0.3-0.4c0,0.1,0.1,0.2,0.2,0.2c0,0-0.1,0-0.1,0l0.2,0
						c0,0.1-0.1-0.1-0.2,0c0.1,0.1,0,0.1,0.1,0.2c0,0,0-0.1,0.1-0.1c-0.1,0.1-0.1,0.2-0.1,0.3c0-0.1-0.1-0.1-0.2-0.1
						c-0.1,0.1,0,0.1,0,0.3c-0.1,0-0.1,0.1-0.2,0c0,0,0,0.1,0,0.1c-0.1,0-0.4,0.2-0.4,0l0,0l0,0l0,0l0,0c-0.3,0.1-0.4,0.5-0.7,0.6
						l0,0c-0.2,0.1-0.3,0.2-0.5,0.2c0,0,0,0.2,0,0.2c-0.1,0-0.2,0-0.3,0.2c0.2,0,0,0.1,0.2,0c-0.1,0.1-0.1,0.2-0.3,0.2
						c0.1,0.1,0,0.2-0.1,0.2l0-0.2c-0.1,0-0.1,0.1-0.2,0.2l0.1,0.1c-0.2,0.4-0.8,0.1-0.7,0.6c-0.2,0,0.1-0.2-0.1-0.3
						c-0.1,0.1-0.1,0.4-0.1,0.5c-0.1,0.2-0.3-0.1-0.5,0.1c0-0.1-0.1-0.2-0.3-0.2c-0.1,0.1,0,0.3,0.1,0.3c0,0,0,0,0-0.1
						c0.1,0,0.1,0,0.1,0.1l-0.1,0c0,0.1-0.2,0.2-0.1,0.3c-0.1,0-0.1-0.1-0.1-0.1c-0.1,0.2-0.3,0.2-0.4,0.4c0-0.1,0-0.1,0-0.1
						c-0.2,0.3-0.2,0-0.4,0.1c0,0.2,0.2,0.2,0,0.2c-0.1,0.1,0.1,0.2,0.2,0.2c-0.2,0-0.2,0.3-0.3,0.4l0.1,0c-0.1,0-0.1,0-0.2,0.1
						c0,0,0-0.2,0-0.2c0,0-0.1,0.1-0.1,0.2c-0.1,0-0.1-0.2-0.3-0.2c-0.1,0.1-0.3,0.1-0.3,0.4c0.3-0.3,0,0.2,0.3,0
						c-0.1,0-0.1,0.1-0.2,0.2c0,0,0,0,0,0c-0.3,0.5-0.2-0.1-0.5,0.2c0,0.1-0.1,0.3-0.2,0.3c0.2-0.1,0.1-0.3,0-0.3
						c-0.2,0.3-0.2,0.1-0.3,0.2l0.1-0.1c0-0.1-0.1,0-0.2,0c-0.1,0.1,0.1,0,0,0.1c0-0.2-0.4,0.6-0.6,0.5c-0.2,0.2-0.2,0.4-0.3,0.5
						c0,0,0,0,0,0c0.1-0.4-0.2-0.1-0.1-0.6c0.1-0.1,0.1-0.1,0.2-0.5l-0.1,0.7l0.2-0.7c0,0.1-0.1,0.5-0.1,0.5
						c0.1-0.4,0.1-0.3,0.2-0.4c-0.2,0.2,0.1-0.6,0-0.5l-0.3,0.5c-0.1-0.1,0-0.4,0-0.6c0.1-0.3,0.1-0.5,0.1-0.7l0.1,0.1
						c0.1-0.1,0-0.3,0.1-0.5c-0.1,0.1-0.2,0-0.2-0.1c0.1,0,0-0.4,0.2-0.4l-0.1-0.1c-0.1-0.3,0.3-0.3,0.3-0.5c-0.1,0.1-0.2,0-0.3,0.1
						c0-0.1,0-0.2,0.1-0.2c-0.1,0,0.1-0.2,0-0.3c0,0,0.2,0,0.2-0.1c0,0-0.1,0-0.1,0c0.1,0,0.1-0.1,0.2-0.1c-0.3-0.3,0-0.7-0.3-0.9
						c0-0.2,0.1-0.4,0.1-0.6c0,0-0.1,0,0,0c-0.1-0.2,0.3-0.1,0.2-0.4c-0.2-0.1-0.1,0.1-0.2,0.1c-0.4,0,0-0.3-0.2-0.5l0,0
						c-0.1-0.1,0.1-0.3,0.1-0.5c0,0,0,0-0.1,0c0.2-0.1,0.2-0.4,0.3-0.6c-0.1,0.1-0.1,0.1-0.2,0.1c0-0.1,0.2,0,0.3-0.2
						c-0.1-0.1-0.1-0.2-0.3-0.2l0,0.2c-0.2-0.1,0-0.2,0-0.3l-0.1,0c0-0.3,0.2-0.3,0.2-0.6l0.1,0c0.2-0.2-0.1-0.1,0-0.3l-0.2,0
						c0.1-0.1,0.2-0.4,0.3-0.6c-0.2,0.1-0.2,0.3-0.3,0.5c0-0.1,0-0.4,0.1-0.4c0,0-0.1,0.1,0,0.1c0.2-0.1,0.3-0.3,0.3-0.5
						c-0.4,0-0.1-0.5-0.4-0.7c0.2-0.4-0.1-0.7,0-1.2c0.3,0.2,0-0.1,0.4-0.1c0-0.1,0-0.1,0-0.1l-0.2-0.3c-0.1-0.1-0.1,0.1-0.2,0.1
						c0-0.2-0.1-0.1-0.2-0.2c0.1,0,0.2-0.1,0.1-0.2l0.2,0.2c0.2-0.3-0.3-0.3-0.1-0.6l-0.1,0.1c0.1-0.2,0-0.6,0.3-0.7
						c0,0-0.1-0.1-0.2,0c0-0.4,0.3-0.8,0.1-1.1l-0.1,0c0-0.1,0.2-0.1,0.1-0.2c0,0-0.1,0-0.1,0c0,0,0.1-0.2,0.1-0.3l-0.1,0.1
						c-0.1-0.4,0.2-0.6,0.3-0.9c-0.2,0-0.3-0.3-0.4-0.4l0,0c0-0.4,0.2-0.7,0.3-1.1c-0.1-0.1-0.2-0.5-0.2-0.9c0-0.4,0-0.8-0.1-1.3
						c0,0.2,0.2,0.2,0.2,0.2c0-0.2,0.2-0.1-0.1-0.5l0,0.1c-0.2-0.4-0.2-0.7-0.2-0.9l0.1,0.1l0.3,0.6c0-0.2,0.5,0.1,0.8,0.4
						c0.3,0.3,0.6,0.6,0.7,0.4c0.1,0.2,0.3,0.3,0.4,0.5l0.1-0.2c0.4,0.3,0.4,0.3,0.7,0.5l0-0.1c0.2,0.1-0.1,0.5,0,0.6l0.2-0.2
						c0.3,0.2,0.6,0.2,0.8,0.6c0,0,0.1-0.1,0-0.1c0.1,0.1,0.6,0.2,0.3,0.4c0.1-0.2,0.3,0.2,0.4,0.4l0.1-0.1c0,0.2,0,0.3,0.1,0.5
						c0.1,0,0.1-0.1,0-0.1c0.2,0,0,0.2,0.2,0.2l0-0.1c0.1,0.1,0.1,0.1,0.1,0.3c0,0.1,0.3,0.2,0.4,0.1c0,0.1,0,0.2,0.1,0.3
						c0,0,0-0.1,0-0.1c0.3,0.1,0.2,0.4,0.5,0.4c0,0,0.1-0.1,0.1-0.1c-0.2-0.1-0.3-0.2-0.3-0.2c0.1-0.1,0.2,0,0.3-0.3
						c0,0.2,0.1,0.5,0.3,0.6c0,0,0,0,0,0l0,0c0,0,0.1,0,0.1,0.1c0.1,0,0.1,0,0.1,0.1c0.1-0.1,0.2,0.1,0.3,0.1
						c-0.1,0.1,0,0.2-0.2,0.2c0,0,0,0,0-0.1c0,0,0,0,0,0l0,0c0,0-0.1-0.1-0.2-0.1c0,0.1,0,0.2,0.2,0.2c0,0.1,0,0.2-0.1,0.3
						c0.2-0.1,0.5-0.1,0.6-0.1c0.2,0.2,0.5,0.4,0.4,0.8c0,0.1,0.1,0,0.2,0c0-0.1-0.1-0.1-0.1-0.1c0.1,0.2,0.3,0.3,0.2,0.5
						c0.2,0,0-0.2,0.2,0l0-0.1c0.6,0.1,0.4,0.9,1.1,0.9c0,0-0.1,0-0.1,0c0.6,0.2,1,1,1.7,1.1c0.2,0.1,0.1,0.2,0.1,0.3l0.1-0.1l0,0.3
						c0.1,0.3,0.6,0,0.7,0.4l-0.1,0.1c0.1,0.1,0.3,0.3,0.3,0.2c0,0,0,0.1,0,0.1l0.1-0.1l0.2,0.3c0.2,0.1,0.2-0.3,0.5-0.1
						c0.1,0.1,0.1,0.4,0.1,0.4c0,0-0.1,0-0.2,0l0.1,0.1c-0.1,0.2-0.2,0.5-0.6,0.5l-0.1-0.2l-0.1,0.1l0.1,0.1c-0.1,0-0.1-0.1-0.1-0.2
						c-0.1,0-0.1,0.1-0.2,0.1l0-0.3c-0.1,0.1-0.1,0.2-0.2,0.2c0-0.1,0.2-0.1,0.1-0.3c-0.1,0-0.2,0.1-0.2,0c-0.1,0-0.1,0.1,0,0.1
						c0-0.1-0.2-0.2-0.1-0.3c-0.2,0.1-0.2-0.2-0.4,0c0-0.1,0-0.3-0.1-0.3c0,0.3-0.3-0.2-0.4,0.1c0.1-0.3-0.3-0.4-0.4-0.6
						c0,0,0,0.1,0,0.1c-0.1-0.1-0.2,0-0.3,0c0.1-0.2,0-0.3,0-0.5c-0.2,0.1-0.1,0.3-0.2,0.4c0.1-0.1-0.1-0.3,0-0.4
						c-0.2,0-0.1,0-0.3,0.1c0.1-0.2-0.1-0.1,0-0.3c-0.2,0-0.2,0.2-0.3,0C51.3,235.9,51.4,236.1,51.4,236.1z M48.2,233.1L48.2,233.1
						C48.2,233.1,48.2,233.1,48.2,233.1C48.2,233.1,48.2,233.1,48.2,233.1z M47.9,232.9c0,0,0.1,0.1,0.1,0.1c0,0,0.1-0.1,0-0.1
						C48,232.9,47.9,232.9,47.9,232.9z M49.1,232.5C49.1,232.4,49.1,232.4,49.1,232.5C49.1,232.5,49.1,232.5,49.1,232.5L49.1,232.5
						C49.1,232.5,49.1,232.5,49.1,232.5z"/>
					<path fill="#4F4F4F" d="M49.1,232.7C49.1,232.7,49.1,232.7,49.1,232.7C49.1,232.7,49.1,232.7,49.1,232.7L49.1,232.7L49.1,232.7
						z"/>
					<path fill="#4F4F4F" d="M49.5,242.5L49.5,242.5C49.5,242.5,49.5,242.5,49.5,242.5C49.5,242.5,49.5,242.5,49.5,242.5z"/>
					<polygon fill="#4F4F4F" points="44,230.3 44,230.3 44,230.3 					"/>
					<path fill="#4F4F4F" d="M50.8,240.9C50.8,240.8,50.7,240.8,50.8,240.9C50.8,240.8,50.8,240.8,50.8,240.9z"/>
					<path fill="#4F4F4F" d="M51.4,240.3l0.1-0.1C51.5,240.2,51.5,240.3,51.4,240.3z"/>
					<path fill="#4F4F4F" d="M51.9,239.8C51.9,239.8,52,239.9,51.9,239.8L51.9,239.8L51.9,239.8z"/>
					<path fill="#4F4F4F" d="M43.8,245.7L43.8,245.7C43.8,245.7,43.8,245.7,43.8,245.7z"/>
					<path fill="#4F4F4F" d="M46,244.5c0,0-0.1,0-0.1,0C45.9,244.5,46,244.5,46,244.5z"/>
					<polygon fill="#4F4F4F" points="43.8,244.2 43.8,244.2 43.8,244.2 					"/>
					<path fill="#4F4F4F" d="M45.8,244.6c0-0.1,0.1-0.1,0.1-0.1C45.9,244.6,45.8,244.6,45.8,244.6z"/>
					<path fill="#4F4F4F" d="M54.2,238L54.2,238C54.2,238,54.3,238,54.2,238L54.2,238z"/>
					<path fill="#4F4F4F" d="M54.3,238L54.3,238C54.3,238,54.3,238,54.3,238z"/>
					<path fill="#4F4F4F" d="M54.4,238L54.4,238C54.3,238,54.3,237.9,54.4,238z"/>
					<path fill="#4F4F4F" d="M53.5,238.6L53.5,238.6C53.5,238.6,53.5,238.6,53.5,238.6z"/>
					<path fill="#4F4F4F" d="M53.3,238.8c0,0,0.1-0.2,0.1-0.2l0,0C53.4,238.5,53.4,238.8,53.3,238.8z"/>
					<path fill="#4F4F4F" d="M52.8,240l0.2-0.2c0,0.1,0,0.2,0.1,0.1C53,240.3,53.1,239.8,52.8,240z"/>
					<path fill="#4F4F4F" d="M52.3,240.5C52.4,240.4,52.4,240.6,52.3,240.5C52.3,240.6,52.3,240.6,52.3,240.5z"/>
					<path fill="#4F4F4F" d="M48.3,243.6l0.1,0.1C48.3,243.7,48.3,243.6,48.3,243.6z"/>
					<polygon fill="#4F4F4F" points="47,243.6 47.1,243.5 47.2,243.5 					"/>
					<polygon fill="#4F4F4F" points="47.2,244.7 47.2,244.7 47.1,244.8 					"/>
					<path fill="#4F4F4F" d="M42.5,243.2l0.2,0C42.6,243.3,42.4,243.3,42.5,243.2z"/>
					<path fill="#4F4F4F" d="M42.6,239.5c-0.1,0-0.1-0.1-0.1-0.2C42.6,239.4,42.7,239.5,42.6,239.5z"/>
					<polygon fill="#4F4F4F" points="42.7,227.6 42.6,227.4 42.8,227.6 					"/>
				</g>
			</g>
		</g>
	</g>
</g>
</svg>
