<?xml version="1.0" encoding="utf-8"?>
<!-- Generator: Adobe Illustrator 18.1.1, SVG Export Plug-In . SVG Version: 6.00 Build 0)  -->
<svg version="1.1" id="Layer_1" xmlns="http://www.w3.org/2000/svg" xmlns:xlink="http://www.w3.org/1999/xlink" x="0px" y="0px"
	 width="53.1px" height="273.4px" viewBox="0 0 53.1 273.4" enable-background="new 0 0 53.1 273.4" xml:space="preserve">
<g>
	<g>
		<g>
			<g>
				<g>
					<path fill="#4F4F4F" d="M41.5,18.8c0.1,0.1,0.1,0.2-0.3,0.2l-0.3-0.3L41.5,18.8z"/>
					<path fill="#4F4F4F" d="M38.8,19.3c-0.5-0.1-1-0.4-0.7-0.6c0.5,0.3,0.6,0.2,1.1,0.5c0.4,0,0.7-0.1,0.6-0.2
						c0.1,0.1,0.6-0.1,0.8,0.1c-0.5,0.2-1.1,0.2-1.8,0C38.7,19.2,38.8,19.3,38.8,19.3z"/>
					<path fill="#4F4F4F" d="M19.3,42.4l0-0.2C19.3,42.2,19.3,42.3,19.3,42.4z"/>
					<path fill="#4F4F4F" d="M19.5,66c0-0.2,0-0.3,0.1-0.3C19.5,65.9,19.5,66,19.5,66z"/>
					<path fill="#4F4F4F" d="M19.8,70c0-0.1,0-0.2,0-0.2C19.8,69.9,19.8,69.9,19.8,70z"/>
					<path fill="#4F4F4F" d="M19.3,42.4l0.1,0.6C19.3,43.1,19.4,42.7,19.3,42.4z"/>
					<path fill="#4F4F4F" d="M33.6,18.7c0.1,0,0.2,0,0.3,0.1L33.6,18.7C33.6,18.7,33.6,18.7,33.6,18.7z"/>
					<path fill="#4F4F4F" d="M19.6,32l0-0.2c0-0.1,0.1-0.1,0.1-0.2L19.6,32z"/>
					<path fill="#4F4F4F" d="M21.1,24.8c-0.1,0.1-0.3,0.1-0.4,0c0.1,0,0.2-0.1,0.4-0.2C21.1,24.7,21.1,24.7,21.1,24.8z"/>
					<path fill="#4F4F4F" d="M31.8,19.6l0.2,0C32,19.7,31.9,19.7,31.8,19.6z"/>
					<path fill="#4F4F4F" d="M19.6,37.7C19.7,37.7,19.7,37.8,19.6,37.7C19.7,37.8,19.7,37.8,19.6,37.7z"/>
					<path fill="#4F4F4F" d="M29,256.2C29,256.2,29,256.2,29,256.2C29.1,256.2,29.1,256.2,29,256.2z"/>
					<path fill="#4F4F4F" d="M38.5,255.3l-0.1,0c0,0,0-0.1,0-0.1L38.5,255.3z"/>
					<path fill="#4F4F4F" d="M20.1,77.4C20.1,77.3,20.1,77.3,20.1,77.4C20.1,77.1,20.1,77.2,20.1,77.4z"/>
					<path fill="#4F4F4F" d="M19.9,145c-0.2-0.8-0.3,1.2-0.5,0.1C19.5,145.2,19.8,144,19.9,145z"/>
					<path fill="#4F4F4F" d="M33.4,18.7l-0.3,0C33.2,18.7,33.3,18.7,33.4,18.7z"/>
					<path fill="#4F4F4F" d="M19.4,145.1L19.4,145.1l0-0.1C19.4,145,19.4,145,19.4,145.1z"/>
					<path fill="#4F4F4F" d="M20,94.3c0,0-0.1-0.1-0.1-0.2C19.9,94.2,19.9,94.2,20,94.3z"/>
					<path fill="#4F4F4F" d="M19.6,81.7l0,0.3C19.6,81.9,19.6,81.8,19.6,81.7z"/>
					<path fill="#4F4F4F" d="M19.6,100.9c0,0.2,0.1,0.2,0,0.5c0,0,0,0,0-0.1C19.7,101.2,19.7,101.1,19.6,100.9z"/>
					<path fill="#4F4F4F" d="M19.6,107.7c0,0,0-0.1,0-0.1c0-0.1,0-0.1,0-0.2L19.6,107.7z"/>
					<path fill="#4F4F4F" d="M17.9,240c0.1,0.1,0.1,0.2,0.2,0.3C18,240.2,17.9,241.2,17.9,240z"/>
					<path fill="#4F4F4F" d="M33.6,18.8c0-0.1-0.1-0.1-0.2-0.1C33.5,18.7,33.5,18.7,33.6,18.8C33.6,18.7,33.6,18.8,33.6,18.8z"/>
					<path fill="#4F4F4F" d="M17.8,101.2l0,1.1C17.8,102,17.8,101.6,17.8,101.2z"/>
					<path fill="#4F4F4F" d="M18,191l0,0.2C17.9,191.1,18,191.1,18,191z"/>
					<path fill="#4F4F4F" d="M17.8,105.5c0.1,0.2,0.1,0.4,0.2,0.6c0,0,0,0.1-0.1,0.1L17.8,105.5z"/>
					<path fill="#4F4F4F" d="M18.2,240.3L18.2,240.3L18.2,240.3z"/>
					<path fill="#4F4F4F" d="M17.9,247.8c-0.3-1.2,0.2-0.6,0.3-0.9c0-1.4-0.3-0.6-0.5-1.1c0.1-0.8,0.4-1.4,0.4-2
						c-0.1,0-0.1-0.2-0.1,0c0.2-0.8,0-2.4,0.3-3.4c0-0.1-0.1-0.1-0.1-0.1c0.2,0.2,0.3,0.2,0.4,0.1c0-0.5,0.2-0.9,0-1
						c0,0.3-0.1,0.3-0.1,0.4l0.1-0.5c-0.3-0.4-0.1,0.7-0.3,0.7c0.1-0.9,0.3-2.1,0.3-2.8c-0.3-0.2-0.1,1.7-0.4,0.7l0.1,1.1
						c-0.5-0.9,0,0.7-0.5-0.1c-0.1-1.5,0.1-1.7,0.1-3.1c0.2-0.3,0.2,0.1,0.4-0.2c0.3-2.1-0.7-1.6-0.3-3.2c0.2-0.4,0.6-0.6,0.4-1.7
						l-0.3,0.4c0-1.4,0.5-0.8,0.2-2.3c-0.1,0.3-0.1,1.1-0.1,0.9c-0.3-1,0.2-0.7,0.2-1.4l-0.3-0.2c0-1.5,0.3-3.2,0.3-4.9
						c-0.1,0.1-0.2,0.4-0.3,0c0.1-2.1,0-4.5-0.2-6.6l0.2-0.8c0-0.2-0.1-0.3-0.2-0.1c-0.1-0.8,0.2,0,0.3-0.4c0-0.5-0.1-0.6-0.2-0.3
						c0.2-1.4,0.5-4,0.2-5.5l-0.1,0.3c-0.1-1.2,0.5-1.3,0.3-2.4l0,0.2c-0.1-2.5,0.1-5.3-0.3-7.2c0.4-0.4-0.2-2.5,0.3-2.7
						c-0.2-1.4-0.3-1-0.5-3c0-0.5,0.3-0.8,0.4-1.5l-0.3,0l0.3-0.9l-0.3-0.5l0.1-0.6c0,0.2,0.1,0.5,0.2,0.5c0.1-1-0.2-2.4-0.3-2.4
						L18,187c-0.1,0.1-0.1,0.4-0.2,0.7c0.3-1.2-0.3-0.2,0-1.4c0.1,0.2,0.2-0.1,0.2-0.1c-0.2-0.6-0.2-1.8-0.1-2.8l-0.2,0.2
						c0-1.7,0.1-3.6,0.1-5.5c0.1,0.7,0.4,0.5,0.4,0l-0.3-0.2c0.2-0.4,0.1,0.6,0.3-0.2c0-0.7-0.3-0.5-0.4-0.1l0.1-0.9
						c-0.1-0.1-0.1,0.2-0.2,0.2c0.2-0.4-0.3-1.5,0-2l-0.1,0c0-1.9,0.1-2.8,0.1-4.4c0.2,0,0.2-0.6,0.4-1.1c-0.1-1.2-0.3-2.4-0.2-3.8
						c0.1-1,0.2-0.3,0.3-0.7c-0.2-0.1-0.2-1.5-0.4-0.7c0-1.7,0-2.1,0.2-4.2c0.1,0.2,0.1,0.5,0.2,0.4c0-0.4-0.1-0.9-0.2-0.8l0,0.1
						c0.3-2.4-0.6-5.5-0.2-7.3l0,0.1l0.2-2c0-0.9-0.2,0.5-0.3-0.1c0.4-2.1-0.1-3.3,0.2-5.1c-0.6-1.3,0-4.8-0.4-6.6l0.2,0.1
						c0.1-0.5-0.1-0.6-0.1-0.9c0.1,0,0.1,0.5,0.2,0.2c0.2-4-0.2-8.2-0.4-12.3c0-1.5,0.8-0.8,0.4-2.7l-0.3,0.5c0.3-3,0-6.1,0.3-9.1
						c-0.1,0.2-0.1,0.2-0.1,0.5c-0.2-0.6,0-2.3,0.2-2.3c0-0.5-0.2-0.1-0.2-0.4c-0.1-0.6,0.3-1.6,0.1-1.9c0-0.1-0.1,0.2-0.1,0.3
						c0.1-0.4,0-1.9,0.2-1.5c-0.1-1.1,0.1-2.1,0-3c0.3-0.6-0.1-1.9,0.2-2.1c-0.4,0.1-0.3-1.9-0.1-2.6c-0.1,0.2-0.1-0.6-0.3-0.3
						c0-0.8,0.1-1.5,0.3-1.4c-0.5-1.5,0.4-3-0.2-3.8c0.2-2.4,0.3-4.6,0.4-6.7c-0.4,0.1,0,2.4-0.4,2.3c0.2-2,0.5-3.2,0.4-5.2
						c-0.1-0.5-0.2,0.3-0.2,0.5c0.2-2,0-3.9,0.2-5.7c0,0-0.1,0.2-0.1,0.4c0-0.4-0.1-0.8,0.1-0.8l0,0.3c0.3,0.6,0.5-1.4,0.7-1.5
						c-0.5,0.6-0.1-1.8-0.8-0.8c0-0.2,0.1-0.5,0.2-0.5c0-0.3-0.1-0.5-0.2-0.1c0.1-1.3,0.3-0.8,0.3-2c-0.1,0-0.1,0.2-0.2,0.4
						c0.2-0.6,0.3-1.2,0.3-2.1c-0.1,0.1-0.1-0.1-0.1,0.2c0-1.7,0.4-2.8,0.3-4.7c-0.4,0.5-0.1-0.6-0.4-0.7l0.1-1l0.2,0.4
						c0-0.9,0.2-1.6,0.1-2.4l-0.1,0.6l0.1-1.6l0.1,0.9c0.2-0.9,0.4,0.1,0.3-1.1c0,0.2,0-0.9-0.2-1.3l0,0c0.1-0.4,0.2-0.9,0.1-1.5
						c-0.1-0.2-0.4,0.1-0.4,0c0.3-0.4,0.1-2,0.4-2.5C18.6,60,18.4,60,18.4,60l0.2-0.4c-0.1-0.4-0.1-0.5-0.2-0.4c0-1.2,0.4,0.4,0.2-1
						c0,0.1,0,0.1-0.1,0.3c-0.1-1.4,0.1-2.8,0-4.1c-0.3-0.4-0.1,1.1-0.3,0.7c0.1-1.9,0.4-3.9,0.3-5.8l0,0.3c0.4-0.3-0.2-1.4,0-2.3
						c0,0.2-0.2,0.3-0.2,0.2c-0.1-1.3,0.1-2.6,0.3-4.5l-0.1,0.2c-0.1-0.7-0.1-1.9-0.1-2.7c0.1-0.2,0.1-0.7,0.3-0.4
						c-0.7-2.5,0.4-4.7-0.2-6.9c0,0.3-0.1,0.6-0.1,0.4l0.1-1.9c0.2,0.1,0.1,0.2,0.3,0.6c0.1-0.2,0.2-0.8,0.2-1.2
						c-0.1,0.8-0.3,0-0.4-0.4c0.1,0.1,0.1-0.1,0.2,0c-0.3-1,0.4-0.2,0.2-1.5l-0.1,0.1c0-0.5,0.2-1,0.3-1.5c-0.2-0.3-0.2,0.5-0.3,0.5
						c0-0.4,0.2-0.8,0.4-1.1c0.1-0.4,0.3-0.7,0.3-1c-0.2,0.3-0.3,0.7-0.5,1c-0.1-0.8,0.1-0.9,0.2-1.5l0,0.1c0,0,0.5-1.3,0.5-1.3
						c0,0-0.1,0.3-0.1,0.3c0.5-0.3,0.8-0.7,1.1-1.1c0.3-0.4,0.7-0.8,1.3-1.1c-1.2,0.6-0.3,0-0.5-0.1c0.2-0.3,0.6-0.7,0.4-0.6
						c0.6-0.2,0.8-0.8,1.7-1c0-0.1,0.6-0.3,0.4-0.4c0.8-0.3-0.1,0.2,0,0.3c1.2-0.4,2.5-1.6,4.4-1.6c1.5-0.1,1.9,0.1,3.2,0.1
						c0.5-0.1-0.4-0.3-0.4-0.3c0.8-0.1,1.3-0.2,2-0.1c-0.1-0.1,0-0.1,0.2-0.2c0.6,0,0.4,0.3,1.1,0.2c-0.1-0.1-0.3-0.2-0.6-0.3
						c0.7,0.1,1.3,0.2,2,0.3c0.2-0.1-0.4-0.2-0.7-0.3c0.8,0.1,2,0.1,2.3,0.4l-0.5,0.1c0.3,0,0.1-0.2-0.1-0.2c-0.7-0.2-1,0.1-1,0.2
						l0.5,0.1c-0.5,0.5-2-0.1-3,0l0.4,0.4l-1-0.3c-0.2,0.1-0.4,0.3,0.1,0.3c-0.7,0.2-0.6-0.1-1.2,0.1c-0.1,0,0,0,0,0.1l-0.7-0.1
						c0.1,0.1-0.1,0.3,0.3,0.2c-1.2,0.3-2-0.1-2.4,0.3l0.1,0c-1.7,0.2-0.2-0.2-1.6-0.2c0,0-0.2,0.2-0.3,0.4
						c-0.2,0.2-0.3,0.4-0.3,0.4l-0.2-0.2c-0.2,0.1-0.5,0.2-0.4,0.3c-0.7,0.1,0.1-0.2-0.4-0.2c-0.7,0.5-2.2,0.9-2.1,1.4
						c-0.4,0,0.6-0.6-0.2-0.2c0,0.3-0.2,0.4-0.5,0.5c-0.3,0.2-0.6,0.3-0.9,0.7c0.3,0,0.8-0.5,0.4,0.1c-0.6,0-1,1.1-1.5,1.5
						c-0.3-0.2-0.9,1-1.4,2c0.1,0-0.1,0.5-0.2,1.1c-0.1,0.3-0.1,0.7-0.1,1c0,0.3,0,0.7,0.1,0.9l0.1,0c-0.3,0.2-0.3,1.3-0.3,2.1
						c0.2,0,0.3-0.2,0.3-0.6l0,0.7c-0.1,0.2-0.2,0.4-0.2,0.9l0.2-0.2c0,1-0.3,2-0.1,3.2c-0.2,0.1-0.6-1-0.7,0.3
						c0.1,0,0.3,0.1,0.4-0.2c0,0.1-0.1,0.4,0,0.6l0.2-0.5c0.1,0.6-0.2,0.3-0.1,0.8c0.2,0,0.1,0.3,0.3,0.3c0-0.1-0.1-0.4,0-0.6
						c0,0.5,0.1,1.1,0.3,1.3c-0.1,0-0.2,0-0.2,0.4c0,1,0.2,0.3,0.3,0.9c-0.1,0.2,0,0.9-0.2,0.9c0,0.3,0.1,0.3,0.2,0.4
						c-0.1,0.5,0,2.4-0.3,1.8l0-0.1c0,0,0,0.1,0,0.1v0v0c-0.2,1.7,0.1,3.4,0,5.1l0.1,0c-0.1,1-0.1,2.2-0.2,2.9
						c0,0.3,0.2,0.7,0.3,0.6c-0.1,0.7-0.2,0.8,0,1.9c0.1-0.8,0.1,0.3,0.1-0.8c0.1,1,0.2,1.2,0,2.2c0.2-0.4,0.3,0.7,0.2,1.2l-0.2-0.7
						c0,0.5,0,1,0,1.4l0.3-0.3c0.3,2-0.6,3.6,0,5.1c-0.2,0.5-0.1-1.1-0.4-0.6c0,0.9,0.4,1.9,0.4,2.2c0.2,1.3-0.4,1.2-0.3,2.5
						c-0.1-0.2-0.4-0.3-0.5,0.7c0,0.9,0.4,1.1,0.5,0.5c0-0.2,0-0.3-0.1-0.3c0-0.3,0.1-0.7,0.2-0.3l-0.1,0.1c0.1,0.5,0.1,1.7,0.3,1.4
						c-0.1,0.7-0.2,0.3-0.2-0.2c0.1,1.2,0,1.8,0.1,3c-0.1-0.2-0.2-0.4-0.2-0.2c0.1,1.8-0.2,0.8-0.2,2c0.2,0.7,0.4-0.2,0.2,1
						c0.1,0.7,0.3,0.2,0.3-0.1c-0.2,1.1,0.1,2.1,0.2,2.7l0.1-0.6c0,0.3,0,0.6,0,0.9L20,75.1c0,0.3,0,0.6,0.1,0.6
						c-0.1,0.4-0.3-0.3-0.5,0.4c0.1,0.5-0.1,1.4,0.2,1.5c-0.1-1.4,0.3,0.2,0.3-1.1c0,0.2,0,0.5,0,0.9c0,0.1,0.1,0,0.1-0.1
						c0.2,1.4-0.3,0.6-0.3,2c0.2-0.2,0.3,0.3,0.3,0.6c0-0.6-0.3-0.3-0.4,0.3c0.1,0.9-0.1,1-0.1,1.5l-0.1-0.5
						c-0.2,0.2-0.1,0.6-0.2,1.3c0.1,0.1,0.1-0.6,0.1-0.3c-0.3,0.7,0.3,1.6,0.1,2.6c0.1,0.5,0.3,0,0.4,0.4c-0.2,1.1,0.2,1.2,0,2.4
						c-0.2-0.3-0.2-0.4-0.3,0.4l0.1-1.9l-0.3,1.2c0-0.6,0.1-1.2,0.1-1.6c-0.2,0.6-0.1,0.5-0.3,0.2c0.3,0.8-0.2,1.6,0,2.5l0.5,0
						c0.2,1.4-0.3,2.4-0.1,4.2l-0.1-0.6c-0.2,0.2,0,1.1-0.1,1.7c0.2-0.1,0.2,0.3,0.3,0.6c-0.1,0,0,1.3-0.3,1.5l0.2,0.8
						c0.1,1.4-0.5,1.6-0.4,3c0.2-0.4,0.3,0.2,0.4-0.7c0,0.5,0,0.9-0.1,0.9c0.1,0.3-0.2,1.3-0.1,1.7c-0.1,0.2-0.2,0.3-0.2,0.8
						c0,0.1,0.1,0,0.1,0c-0.1,0-0.1,0.8-0.3,0.4c0.5,1.4,0,4,0.4,5.2c-0.1,1-0.1,2.2-0.1,3.1c0.1-0.1,0.1,0,0.1-0.2
						c0.2,1.3-0.5,0.8-0.3,2.2c0.3,0.7,0.1-0.8,0.2-0.3c0.6,0.2-0.1,1.7,0.2,2.7l0-0.2c0.2,0.7-0.2,1.8-0.2,3c0,0,0-0.1,0.1,0
						c-0.3,0.8-0.4,2.4-0.5,3.5c0.2-0.4,0.1-0.5,0.3-0.3c0,0.5-0.4-0.2-0.4,0.9c0.1,0.3,0.2,1.1,0.5,1.2l0-1c0.3,0.5,0,1.3,0,1.8
						l0.1-0.1c0,1.5-0.4,1.5-0.4,3.1l-0.1-0.2c-0.3,0.9,0.2,0.7-0.1,1.6l0.3,0.3c-0.1,0.6-0.3,2-0.4,3.1c0.2-0.6,0.4-1.8,0.5-2.6
						c0,0.6,0,2-0.2,2.3c0-0.2,0.1-0.5,0.1-0.8c-0.3,0.7-0.4,1.6-0.4,2.8c0.6-0.2,0.2,3,0.7,3.8c-0.2,2,0.1,4,0.1,6.4
						c-0.5-0.8,0,0.7-0.5,0.5c0,0.5,0,0.8,0,0.8l0.3,1.7c0.2,0.4,0.1-0.5,0.2-0.5c0,1.2,0.2,0.5,0.4,1.3c-0.2-0.2-0.3,0.4-0.2,1.1
						l-0.2-1c-0.3,1.7,0.4,1.5,0.2,3.1l0.2-0.5c-0.1,0.9,0,3.2-0.4,4.1c0.1,0.2,0.2,0.4,0.2,0c0.1,2.1-0.4,4.6-0.2,6.2l0.1-0.2
						c0,0.4-0.2,0.7-0.1,1.2c0.1,0,0.1-0.2,0.1,0c0,0.2-0.2,1-0.1,1.5l0.1-0.4c0.2,2-0.3,3.1-0.4,4.8c0.4,0,0.5,1.6,0.6,2.4l0.1,0
						c0,2.4-0.3,4-0.5,6.2c0.4,1.4,0.2,4.6,0.4,6.8c-0.1-0.3-0.3,0.1-0.3,0.4c0.1,0.5-0.3,1.4,0.1,1.3l0-0.2
						c0.3,0.4,0.2,1.4,0.3,2.3l-0.4,0.1c0.7,2.1-0.2,5.6,0.3,6.8c-0.1,0.5-0.1,1.2-0.2,1.7l0.2,0c0.1,1.4,0.1,2.2,0,3.9l0.2-0.4
						c0,1-0.7,1.3-0.7,2.2l0.4,0.3c0,1.7,0.3,3.5,0,5.2c0.1,0,0.2-0.1,0.2-0.4c0,0.8,0.2,3.2-0.2,2.9c0.3,0,0,1.8-0.1,2.7l0.2-0.1
						c-0.3,0.8-0.4,0.8-0.5,1.9c0,0.3,0.2,0.2,0.1-0.1c0.1,0.9-0.2,0.7-0.1,1.7l0.2-0.4c0,0.9-0.1,0.8-0.2,1.3
						c-0.1,0.6,0.1,1.7,0.3,1.8c-0.1,0.1-0.3,0.6-0.2,1.1c0.1,0.1,0.1-0.1,0.2-0.2c0.2,1.5-0.3,2.2,0,3.3c0.1,0,0.1,0.1,0.1,0.2
						c0-1.2,0-2.2,0-2.1c0.2,0,0.3,1,0.6,0.2c-0.2,0.8-0.5,2.1-0.4,3.1c0,0,0,0.1,0.1,0.1l0-0.1c0,0.2,0,0.4,0,0.6
						c0,0.3,0.1,0.5,0.1,0.8c0.2,0.1,0.1,1.1,0.1,1.6c-0.2,0-0.2,0.6-0.4,0c0,0.1,0-0.1,0-0.4c0-0.1,0-0.2,0-0.2l0,0
						c0-0.3,0-0.7,0-1.2c-0.1,0.4-0.2,0.8-0.1,1.3c-0.2,0.2-0.3,0.5-0.4,0.7c0.3,0.7,0.5,1.9,0.7,2.1c-0.1,1.5-0.1,3.5-0.5,4.4
						c-0.1,0.4,0.1,0.5,0.2,0.6c0-0.2,0-0.5,0.1-0.7c-0.1,0.8,0,2.5-0.4,2.7c0.1,1.1,0.3-0.6,0.2,0.9l0.1-0.2
						c0.5,2.9-0.8,4.6-0.2,7.8c0-0.2-0.1-0.3-0.1-0.4c0.1,0.9,0.1,1.8,0.2,2.7c0.1,0.8,0.4,1.7,0.8,2.4c0.8,1.5,2.2,2.8,3.8,3.5
						c0.9,0.4,0.9,0.6,1.4,1l0.3-0.2c0,0,0.2,0.2,0.4,0.3c0.2,0.2,0.4,0.3,0.4,0.3c0.7,0.4,1.3,0.3,2,0.4c0.3,0,0.7,0,1.1,0.1
						c0.4,0,0.8,0.1,1.2,0.2l-0.3,0.1c0.7,0,2.1,0.2,2,0c0.1,0,0.2,0.2,0.5,0.1l0-0.1l1.7,0.2c1.3-0.1-0.2-0.5,1.7-0.6
						c0.7,0.1,2,0.4,1.7,0.5c-0.3,0-0.7,0.1-0.7,0.2l0.6,0.1c0.1,0.4,0.6,0.8-1,1.1l-1.1-0.2l-0.4,0.2l0.9,0c-0.5,0.2-0.9,0-1.2-0.1
						c-0.1,0.1-0.2,0.2-0.5,0.2l-1.1-0.4c-0.1,0.2,0.5,0.3-0.2,0.4c-0.5-0.2,0.5-0.3-0.4-0.5c-0.5,0.2-0.4,0.3-1,0.2
						c-0.1,0.1,0,0.2,0.3,0.2c-0.5-0.1-1.5-0.1-1.8-0.3c-0.3,0.1-0.8,0-1.2,0c-0.4,0-0.7-0.1-0.7,0.1c-0.2-0.1-0.9-0.5-1.4-0.6
						c0.4,0.3-0.1,0.2-0.6,0.1c-0.6-0.2-1.2-0.4-1.2-0.1c-0.5-0.6-2.4-1.2-3.3-2.2c0,0.1,0.1,0.2,0.2,0.2c-0.6-0.4-0.9-0.4-1.3-0.7
						c0.1-0.2-0.1-0.4-0.3-0.8c-0.2-0.3-0.5-0.7-0.6-1c-0.8-0.5,0.1,0.7-0.4,0.7c0.1-0.1-0.1-0.4-0.3-0.7c-0.2-0.3-0.3-0.6-0.1-0.6
						c-0.5-0.5-0.4-0.4-0.8-0.6c0.3-0.3-0.3-0.6-0.2-1.3c-0.5-0.9-0.5-0.1-0.6-1.3C17.8,246.7,17.9,247.8,17.9,247.8z M18.3,223.3
						L18.3,223.3c0,0.2,0,0.4,0,0.5C18.3,223.7,18.3,223.6,18.3,223.3z M18.3,221.3c0,0.2,0,0.6,0,0.9c0.1,0.1,0.2,0,0.2-0.2
						C18.4,222.1,18.4,221.6,18.3,221.3z M20,225.6c0-0.3,0-0.4-0.1-0.5C19.9,225.3,19.9,225.4,20,225.6c-0.1,0.1-0.1,0.1-0.1,0.1
						C19.9,225.7,19.9,225.6,20,225.6z"/>
					<path fill="#4F4F4F" d="M19.7,226.2c0,0,0,0.1,0,0.1C19.6,226.2,19.6,226.2,19.7,226.2c0-0.1,0-0.1,0-0.2
						C19.7,226,19.7,226.1,19.7,226.2z"/>
					<path fill="#4F4F4F" d="M19.3,42.1L19.3,42.1C19.3,42.1,19.3,42.1,19.3,42.1C19.3,42.1,19.3,42.1,19.3,42.1z"/>
					<polygon fill="#4F4F4F" points="17.9,193.2 17.9,193.2 17.9,193.4 					"/>
					<path fill="#4F4F4F" d="M18.5,30.9c0,0,0-0.1-0.1-0.1C18.4,30.8,18.5,30.9,18.5,30.9z"/>
					<path fill="#4F4F4F" d="M19.1,26l0.3-0.7C19.2,25.6,19.2,25.8,19.1,26z"/>
					<path fill="#4F4F4F" d="M21.3,22.7c0.1,0,0.1,0,0.1,0l0,0L21.3,22.7z"/>
					<path fill="#4F4F4F" d="M18,81.4c0,0,0,0.1,0,0.1C18,81.9,18,81.7,18,81.4z"/>
					<path fill="#4F4F4F" d="M18.6,63.9c0,0.2-0.1,0.4-0.1,0.6C18.5,64.1,18.5,63.9,18.6,63.9z"/>
					<polygon fill="#4F4F4F" points="17.7,101.1 17.8,101.1 17.8,101.2 					"/>
					<path fill="#4F4F4F" d="M18.5,65.2c0-0.3,0-0.6,0-0.8C18.5,64.7,18.5,65,18.5,65.2z"/>
					<path fill="#4F4F4F" d="M36.9,18.6l0.2,0c0,0,0,0,0,0L36.9,18.6z"/>
					<path fill="#4F4F4F" d="M37.1,18.7l0.2,0C37.2,18.7,37.1,18.7,37.1,18.7z"/>
					<path fill="#4F4F4F" d="M37.7,18.7l-0.4-0.1C37.4,18.7,37.6,18.7,37.7,18.7z"/>
					<path fill="#4F4F4F" d="M32,18.8L32,18.8C31.9,18.7,32,18.7,32,18.8z"/>
					<path fill="#4F4F4F" d="M30.4,18.8c0.4-0.1,0.9-0.3,1.4-0.2l0.1,0.1C31.7,18.5,30.8,18.9,30.4,18.8z"/>
					<path fill="#4F4F4F" d="M24.7,21.6c0,0,0.3-0.2,0.5-0.3c0.3-0.1,0.5-0.3,0.5-0.3c-0.2,0.2-0.4,0.4,0.1,0.2
						C24.7,22.1,26.1,20.9,24.7,21.6z"/>
					<path fill="#4F4F4F" d="M21.8,23.9c0.5-0.4,0.1,0.1,0.2,0.1C21.6,24.2,21.5,24.3,21.8,23.9z"/>
					<path fill="#4F4F4F" d="M19.5,50.9l0.2-0.1C19.7,51.3,19.6,50.8,19.5,50.9z"/>
					<polygon fill="#4F4F4F" points="18.4,56.2 18.2,55.7 18.4,55.5 					"/>
					<polygon fill="#4F4F4F" points="19.9,59.4 20,59.2 19.9,60 					"/>
					<path fill="#4F4F4F" d="M19.8,106.5l-0.3-0.2C19.6,106,19.9,105.9,19.8,106.5z"/>
					<path fill="#4F4F4F" d="M19.6,126.9c0.1,0.2,0.2,0.8,0.1,1.1C19.6,127.5,19.5,127.1,19.6,126.9z"/>
					<polygon fill="#4F4F4F" points="20,187.9 20.1,187.4 20,188.2 					"/>
				</g>
			</g>
		</g>
	</g>
</g>
<g>
	<polygon fill="#353535" points="41.2,254.8 35.1,259.4 29.1,264 29.1,254.8 29.1,245.6 35.1,250.2 	"/>
	<g>
		<g>
			<g>
				<g>
					<path fill="#4F4F4F" d="M41,254.5c0,0,0.1,0.1,0,0.1l-0.2-0.1L41,254.5z"/>
					<path fill="#4F4F4F" d="M40.8,255.1c-0.1,0-0.3-0.1-0.4-0.3c0.2,0.1,0.1,0,0.3,0.1c0.1,0,0.1-0.1,0-0.2c0,0,0.1-0.1,0.2,0
						C41,254.9,40.9,255,40.8,255.1C40.8,255,40.8,255.1,40.8,255.1z"/>
					<path fill="#4F4F4F" d="M35.5,259.5L35.5,259.5C35.5,259.5,35.5,259.5,35.5,259.5z"/>
					<path fill="#4F4F4F" d="M32.1,262.2C32.2,262.2,32.2,262.2,32.1,262.2C32.2,262.2,32.1,262.2,32.1,262.2z"/>
					<path fill="#4F4F4F" d="M31.7,262.8C31.7,262.8,31.7,262.8,31.7,262.8C31.7,262.8,31.7,262.8,31.7,262.8z"/>
					<path fill="#4F4F4F" d="M35.5,259.5l-0.1,0.1C35.4,259.6,35.5,259.6,35.5,259.5z"/>
					<path fill="#4F4F4F" d="M39.8,255.3C39.8,255.3,39.9,255.3,39.8,255.3L39.8,255.3L39.8,255.3z"/>
					<path fill="#4F4F4F" d="M37.1,258.5L37.1,258.5C37.1,258.5,37.2,258.5,37.1,258.5L37.1,258.5z"/>
					<path fill="#4F4F4F" d="M38.3,257.6c0,0-0.1-0.1-0.2-0.1C38.1,257.5,38.2,257.5,38.3,257.6C38.2,257.6,38.2,257.6,38.3,257.6z"
						/>
					<path fill="#4F4F4F" d="M39.9,256L39.9,256C40,256,39.9,256,39.9,256z"/>
					<path fill="#4F4F4F" d="M36.3,259.1C36.3,259.2,36.3,259.2,36.3,259.1C36.3,259.2,36.3,259.2,36.3,259.1z"/>
					<path fill="#4F4F4F" d="M39.4,254.4L39.4,254.4C39.5,254.4,39.5,254.4,39.4,254.4z"/>
					<polygon fill="#4F4F4F" points="41.3,254.8 41.2,254.8 41.3,254.7 					"/>
					<path fill="#4F4F4F" d="M30.5,263.9C30.5,263.9,30.5,263.9,30.5,263.9C30.6,263.9,30.5,263.9,30.5,263.9z"/>
					<path fill="#4F4F4F" d="M28.5,253.2c0.1,0.1,0.2-0.2,0.3,0C28.7,253.1,28.6,253.3,28.5,253.2z"/>
					<path fill="#4F4F4F" d="M39.8,255.4C39.8,255.4,39.8,255.4,39.8,255.4C39.8,255.4,39.8,255.4,39.8,255.4z"/>
					<polygon fill="#4F4F4F" points="28.8,253.2 28.8,253.2 28.8,253.2 					"/>
					<path fill="#4F4F4F" d="M28.4,262.5C28.5,262.5,28.5,262.5,28.4,262.5C28.5,262.6,28.5,262.6,28.4,262.5z"/>
					<path fill="#4F4F4F" d="M29.5,264.3L29.5,264.3C29.4,264.4,29.4,264.3,29.5,264.3z"/>
					<path fill="#4F4F4F" d="M28.7,261.2C28.7,261.2,28.6,261.2,28.7,261.2L28.7,261.2C28.7,261.1,28.6,261.2,28.7,261.2z"/>
					<polygon fill="#4F4F4F" points="28.7,259.9 28.7,260 28.7,260 					"/>
					<path fill="#4F4F4F" d="M36.5,252.1c0,0,0.1,0,0.1-0.1C36.5,252.1,36.7,252.2,36.5,252.1z"/>
					<path fill="#4F4F4F" d="M39.9,255.4C39.8,255.4,39.8,255.3,39.9,255.4L39.9,255.4C39.8,255.4,39.9,255.4,39.9,255.4z"/>
					<path fill="#4F4F4F" d="M29.9,261.1l0-0.2C29.9,261,29.9,261.1,29.9,261.1z"/>
					<path fill="#4F4F4F" d="M30,247.1L30,247.1C30,247.1,30,247.1,30,247.1z"/>
					<path fill="#4F4F4F" d="M29.9,260.4c-0.1,0-0.1-0.1-0.1-0.1c0,0,0,0,0,0L29.9,260.4z"/>
					<path fill="#4F4F4F" d="M36.6,252L36.6,252L36.6,252z"/>
					<path fill="#4F4F4F" d="M37.4,253.1c-0.2-0.1,0.1-0.2,0.1-0.3c-0.1-0.2-0.2,0.1-0.3,0.1c-0.1-0.1,0-0.3-0.1-0.4
						c0,0-0.1,0-0.1,0.1c0-0.2-0.3-0.3-0.4-0.5c0,0,0,0,0,0c0.1-0.1,0.2-0.1,0.2-0.2c-0.1-0.1,0-0.2-0.2-0.1c0,0,0,0.1,0,0.1l0-0.1
						c-0.2,0.1,0.1,0.1,0,0.2c-0.1-0.2-0.2-0.4-0.3-0.4c-0.1,0.1,0.2,0.2,0,0.3l0.2,0.1c-0.3,0.1,0.1,0.1-0.2,0.2
						c-0.2-0.1-0.2-0.3-0.4-0.4c0-0.1,0.1-0.1,0.1-0.2c-0.2-0.4-0.5,0.2-0.6-0.2c0-0.1,0.1-0.4-0.1-0.4l-0.1,0.2
						c-0.2-0.1,0.1-0.3-0.2-0.4c0,0.1,0.1,0.2,0.1,0.2c-0.2,0,0-0.2-0.1-0.3l-0.1,0.1c-0.2-0.2-0.4-0.5-0.6-0.7c0,0.1,0,0.1-0.1,0.1
						c-0.3-0.3-0.7-0.5-1-0.6l0-0.2c0,0-0.1,0-0.1,0.1c-0.2,0,0.1-0.1,0-0.2c-0.1-0.1-0.1,0-0.1,0.1c-0.1-0.3-0.4-0.7-0.7-0.7l0,0.1
						c-0.2-0.1,0-0.4-0.2-0.4l0,0c-0.4-0.2-0.7-0.6-1.1-0.7c0.1-0.2-0.4-0.2-0.2-0.5c-0.3,0-0.4,0-0.4,0.1c0,0,0-0.2,0-0.3l0,0.2
						c0,0,0-0.3,0-0.3c0,0,0,0.3,0,0.3l0-0.1c0,0,0-0.1,0-0.2c-0.1-0.2-0.1,0.1,0,0.2c0,0-0.2-0.3-0.2-0.3c0.1,0.1,0.1,0.2,0.1,0.3
						c-0.2-0.4,0.2,0.3,0,0l0,0c0,0,0-0.1-0.1-0.1c0,0-0.1-0.1-0.1-0.1c0.1,0.2,0.1,0.3,0.1,0.3l0.1,0.2c0,0.1-0.1,0-0.1,0.1
						c-0.1,0-0.3-0.1-0.3-0.1l0.2,0.1c-0.1,0-0.1-0.1-0.2,0c0,0.1,0.2,0.1,0.3,0.1l-0.1,0c0.1,0,0.1,0,0.2,0c-0.1-0.1,0.2,0.2,0,0.3
						l0.1,0c0,0.4-0.1,0.5-0.1,0.8c-0.2,0-0.1,0.1-0.2,0.2c0.1,0.2,0.2,0.4,0.2,0.7c-0.1,0.2-0.1,0.1-0.2,0.1c0.1,0,0.1,0.3,0.2,0.1
						c0,0.3,0,0.4-0.1,0.8c-0.1,0-0.1-0.1-0.1-0.1c0,0.1,0.1,0.2,0.1,0.1l0,0c-0.2,0.4,0.4,1,0.1,1.3l0,0l-0.2,0.4
						c0,0.2,0.1-0.1,0.2,0c-0.2,0.4,0,0.6-0.1,0.9c0.4,0.2,0,0.9,0.2,1.2l-0.1,0c-0.1,0.1,0.1,0.1,0.1,0.2c-0.1,0-0.1-0.1-0.1,0
						c-0.1,0.7,0.1,1.5,0.2,2.2c0,0.3-0.5,0.2-0.3,0.5l0.2-0.1c-0.2,0.5,0,1.1-0.2,1.7c0,0,0.1,0,0.1-0.1c0.1,0.1,0,0.4-0.1,0.4
						c0,0.1,0.1,0,0.2,0.1c0.1,0.1-0.2,0.3,0,0.3c0,0,0,0,0.1-0.1c-0.1,0.1,0,0.3-0.1,0.3c0.1,0.2-0.1,0.4,0,0.5
						c-0.2,0.1,0.1,0.3-0.2,0.4c0.3,0,0.2,0.4,0.1,0.5c0.1,0,0.1,0.1,0.2,0.1c0,0.1-0.1,0.3-0.2,0.3c0.3,0.3-0.2,0.5,0.1,0.7
						c0,0.1-0.1,0.1-0.1,0.2c0,0-0.1,0.1-0.1,0.1c0,0.1-0.1,0.2-0.1,0.4c0.3-0.3,0-0.2,0.3-0.4c-0.1,0.1-0.3,0.5-0.3,0.6
						c0,0,0.1-0.2,0.2-0.3c0,0.1,0,0.1,0,0.2c0.1,0,0.1-0.1,0.2,0c0,0,0-0.1,0-0.1c0,0,0-0.1,0,0.1l0,0c-0.1,0.3,0,0.4,0.1,0.5
						c0-0.4,0.2-0.2,0.1-0.7c0,0,0,0.1,0,0.2c0,0,0-0.1,0-0.2c0.1,0,0.1,0.2,0.2,0.1c0,0-0.1-0.1-0.1-0.1c0.1,0.1,0.2,0.1,0.3,0
						c0,0,0-0.1-0.1,0c0.3-0.2,0.6-0.1,0.8-0.4c-0.2-0.1,0-0.1-0.1-0.3l0.2-0.1l0,0.1c0.1-0.1,0.3-0.1,0.4-0.2l-0.1,0l0.3-0.1
						l-0.1,0.2c0.2,0,0.1,0.2,0.3,0c0,0,0.1-0.1,0.1-0.2l0,0c0.1,0,0.2,0,0.3-0.1c0-0.1-0.2-0.2-0.2-0.2c0.2,0.1,0.3-0.2,0.5-0.1
						c-0.1,0-0.1-0.1-0.1-0.1l0.1,0.1c0-0.1,0-0.1,0-0.2c0.2-0.2,0.1,0.3,0.2,0c0,0,0,0-0.1,0c0.2-0.2,0.5-0.2,0.6-0.4
						c-0.1-0.2-0.2,0.1-0.2-0.1c0.3-0.2,0.7-0.2,1-0.5l0,0.1c0.2,0.2,0.1-0.3,0.3-0.3c0,0-0.1-0.1-0.1-0.1c0.2-0.2,0.4-0.2,0.7-0.4
						l-0.1,0c0.1-0.1,0.3-0.2,0.4-0.4c0.1,0,0.1,0,0.2,0.1c0.1-0.6,0.8-0.3,0.9-0.9c0,0-0.1,0-0.1,0l0.3-0.1c0.1,0.1,0,0.1,0,0.2
						c0.1,0,0.2,0,0.3,0c-0.2,0-0.1-0.2-0.1-0.3c0,0,0.1,0.1,0.1,0.1c0-0.3,0.2,0.2,0.3-0.1l-0.1,0c0.1,0,0.2,0,0.3-0.1
						c-0.1-0.1-0.1,0-0.2-0.1c0.1-0.1,0.4,0.1,0.4-0.1c-0.1,0-0.1,0.1-0.2,0.1c0-0.2,0-0.2,0.1-0.3l0,0l0.1-0.2l0,0.1
						c0.4,0.2,0.3-0.2,0.7-0.1c-0.3-0.1-0.1-0.1-0.2-0.2c0-0.1,0.1-0.2,0-0.2c0.2,0,0.1-0.2,0.3-0.1c0,0,0.1-0.1,0-0.2
						c0.1-0.1,0,0.1,0.1,0.1c0.3,0,0.3-0.5,0.7-0.5c0.3-0.1,0.4,0,0.7,0c0-0.1-0.2-0.1-0.2-0.1c0.1-0.1,0.2-0.2,0.3-0.2
						c0,0-0.1-0.1-0.1-0.1c0.1-0.1,0.2,0.1,0.2,0c-0.1,0-0.1-0.1-0.2-0.1c0.1,0,0.3,0,0.4-0.1c0-0.1-0.1-0.1-0.2-0.1
						c0.1-0.1,0.3-0.2,0.5-0.1l0,0.1c0,0-0.1-0.1-0.1-0.1c-0.2,0-0.1,0.1-0.1,0.2l0.1,0c0.1,0.3-0.3,0.2-0.5,0.3l0.2,0.1l-0.3,0
						c0,0.1,0.1,0.2,0.2,0.2c0,0.2-0.1,0-0.2,0.2c0,0,0,0,0,0l-0.1,0c0,0,0.1,0.1,0.1,0.1c-0.1,0.2-0.4,0.1-0.4,0.3l0,0
						c-0.3,0.1-0.1-0.1-0.4-0.1l0.1,0.4l-0.1-0.1c0,0-0.1,0.1,0,0.1c-0.2,0,0-0.1-0.2-0.1c0,0.2-0.4,0.2-0.3,0.4
						c-0.1-0.1,0.1-0.2-0.1-0.1c0.1,0.3-0.2,0.1-0.2,0.3c0.1,0.1,0.2-0.1,0.2,0.1c-0.2-0.2-0.2,0.2-0.3,0.2
						c-0.1-0.2-0.3,0.1-0.5,0.2c0.1,0-0.2,0.3-0.3,0.5l0,0c-0.2-0.1-0.3,0-0.4,0.1c0.1,0.1,0.1,0.1,0.2,0.1l-0.1,0.1
						c-0.1,0-0.1,0-0.2,0l0.1,0.1c-0.1,0.1-0.4,0.1-0.5,0.3c-0.1-0.1-0.1-0.4-0.3-0.4c0,0.1,0.1,0.2,0.2,0.2c0,0-0.1,0-0.1,0l0.2,0
						c0,0.1-0.1-0.1-0.2,0c0.1,0.1,0,0.1,0.1,0.2c0,0,0-0.1,0.1-0.1c-0.1,0.1-0.1,0.2-0.1,0.3c0-0.1-0.1-0.1-0.2-0.1
						c-0.1,0.1,0,0.1,0,0.3c-0.1,0-0.1,0.1-0.2,0c0,0,0,0.1,0,0.1c-0.1,0-0.4,0.2-0.4,0l0,0l0,0l0,0l0,0c-0.3,0.1-0.4,0.5-0.7,0.6
						l0,0c-0.2,0.1-0.3,0.2-0.5,0.2c0,0,0,0.2,0,0.2c-0.1,0-0.2,0-0.3,0.2c0.2,0,0,0.1,0.2,0c-0.1,0.1-0.1,0.2-0.3,0.2
						c0.1,0.1,0,0.2-0.1,0.2l0-0.2c-0.1,0-0.1,0.1-0.2,0.2l0.1,0.1c-0.2,0.4-0.8,0.1-0.7,0.6c-0.2,0,0.1-0.2-0.1-0.3
						c-0.1,0.1-0.1,0.4-0.1,0.5c-0.1,0.2-0.3-0.1-0.5,0.1c0-0.1-0.1-0.2-0.3-0.2c-0.1,0.1,0,0.3,0.1,0.3c0,0,0,0,0-0.1
						c0.1,0,0.1,0,0.1,0.1l-0.1,0c0,0.1-0.2,0.2-0.1,0.3c-0.1,0-0.1-0.1-0.1-0.1c-0.1,0.2-0.3,0.2-0.4,0.4c0-0.1,0-0.1,0-0.1
						c-0.2,0.3-0.2,0-0.4,0.1c0,0.2,0.2,0.2,0,0.2c-0.1,0.1,0.1,0.2,0.2,0.2c-0.2,0-0.2,0.3-0.3,0.4l0.1,0c-0.1,0-0.1,0-0.2,0.1
						c0,0,0-0.2,0-0.2c0,0-0.1,0.1-0.1,0.2c-0.1,0-0.1-0.2-0.3-0.2c-0.1,0.1-0.3,0.1-0.3,0.4c0.3-0.3,0,0.2,0.3,0
						c-0.1,0-0.1,0.1-0.2,0.2c0,0,0,0,0,0c-0.3,0.5-0.2-0.1-0.5,0.2c0,0.1-0.1,0.3-0.2,0.3c0.2-0.1,0.1-0.3,0-0.3
						c-0.2,0.3-0.2,0.1-0.3,0.2l0.1-0.1c0-0.1-0.1,0-0.2,0c-0.1,0.1,0.1,0,0,0.1c0-0.2-0.4,0.6-0.6,0.5c-0.2,0.2-0.2,0.4-0.3,0.5
						c0,0,0,0,0,0c0.1-0.4-0.2-0.1-0.1-0.6c0.1-0.1,0.1-0.1,0.2-0.5l-0.1,0.7l0.2-0.7c0,0.1-0.1,0.5-0.1,0.5
						c0.1-0.4,0.1-0.3,0.2-0.4c-0.2,0.2,0.1-0.6,0-0.5l-0.3,0.5c-0.1-0.1,0-0.4,0-0.6c0.1-0.3,0.1-0.5,0.1-0.7l0.1,0.1
						c0.1-0.1,0-0.3,0.1-0.5c-0.1,0.1-0.2,0-0.2-0.1c0.1,0,0-0.4,0.2-0.4l-0.1-0.1c-0.1-0.3,0.3-0.3,0.3-0.5c-0.1,0.1-0.2,0-0.3,0.1
						c0-0.1,0-0.2,0.1-0.2c-0.1,0,0.1-0.2,0-0.3c0,0,0.2,0,0.2-0.1c0,0-0.1,0-0.1,0c0.1,0,0.1-0.1,0.2-0.1c-0.3-0.3,0-0.7-0.3-0.9
						c0-0.2,0.1-0.4,0.1-0.6c0,0-0.1,0,0,0c-0.1-0.2,0.3-0.1,0.2-0.4c-0.2-0.1-0.1,0.1-0.2,0.1c-0.4,0,0-0.3-0.2-0.5l0,0
						c-0.1-0.1,0.1-0.3,0.1-0.5c0,0,0,0-0.1,0c0.2-0.1,0.2-0.4,0.3-0.6c-0.1,0.1-0.1,0.1-0.2,0.1c0-0.1,0.2,0,0.3-0.2
						c-0.1-0.1-0.1-0.2-0.3-0.2l0,0.2c-0.2-0.1,0-0.2,0-0.3l-0.1,0c0-0.3,0.2-0.3,0.2-0.6l0.1,0c0.2-0.2-0.1-0.1,0-0.3l-0.2,0
						c0.1-0.1,0.2-0.4,0.3-0.6c-0.2,0.1-0.2,0.3-0.3,0.5c0-0.1,0-0.4,0.1-0.4c0,0-0.1,0.1,0,0.1c0.2-0.1,0.3-0.3,0.3-0.5
						c-0.4,0-0.1-0.5-0.4-0.7c0.2-0.4-0.1-0.7,0-1.2c0.3,0.2,0-0.1,0.4-0.1c0-0.1,0-0.1,0-0.1l-0.2-0.3c-0.1-0.1-0.1,0.1-0.2,0.1
						c0-0.2-0.1-0.1-0.2-0.2c0.1,0,0.2-0.1,0.1-0.2l0.2,0.2c0.2-0.3-0.3-0.3-0.1-0.6l-0.1,0.1c0.1-0.2,0-0.6,0.3-0.7
						c0,0-0.1-0.1-0.2,0c0-0.4,0.3-0.8,0.1-1.1l-0.1,0c0-0.1,0.2-0.1,0.1-0.2c0,0-0.1,0-0.1,0c0,0,0.1-0.2,0.1-0.3l-0.1,0.1
						c-0.1-0.4,0.2-0.6,0.3-0.9c-0.2,0-0.3-0.3-0.4-0.4l0,0c0-0.4,0.2-0.7,0.3-1.1c-0.1-0.1-0.2-0.5-0.2-0.9c0-0.4,0-0.8-0.1-1.3
						c0,0.2,0.2,0.2,0.2,0.2c0-0.2,0.2-0.1-0.1-0.5l0,0.1c-0.2-0.4-0.2-0.7-0.2-0.9l0.1,0.1l0.3,0.6c0-0.2,0.5,0.1,0.8,0.4
						c0.3,0.3,0.6,0.6,0.7,0.4c0.1,0.2,0.3,0.3,0.4,0.5l0.1-0.2c0.4,0.3,0.5,0.3,0.7,0.5l0-0.1c0.2,0.1-0.1,0.5,0,0.6l0.2-0.2
						c0.3,0.2,0.6,0.2,0.8,0.6c0,0,0.1-0.1,0-0.1c0.1,0.1,0.6,0.2,0.3,0.4c0.1-0.2,0.3,0.2,0.4,0.4l0.1-0.1c0,0.2,0,0.3,0.1,0.5
						c0.1,0,0.1-0.1,0-0.1c0.2,0,0,0.2,0.2,0.2l0-0.1c0.1,0.1,0.1,0.1,0.1,0.3c0,0.1,0.3,0.2,0.4,0.1c0,0.1,0,0.2,0.1,0.3
						c0,0,0-0.1,0-0.1c0.3,0.1,0.2,0.4,0.5,0.4c0,0,0.1-0.1,0.1-0.1c-0.2-0.1-0.3-0.2-0.3-0.2c0.1-0.1,0.2,0,0.3-0.3
						c0,0.2,0.1,0.5,0.3,0.6c0,0,0,0,0,0l0,0c0,0,0.1,0,0.1,0.1c0.1,0,0.1,0,0.1,0.1c0.1-0.1,0.2,0.1,0.3,0.1
						c-0.1,0.1,0,0.2-0.2,0.2c0,0,0,0,0-0.1c0,0,0,0,0,0l0,0c0,0-0.1-0.1-0.2-0.1c0,0.1,0,0.2,0.2,0.2c0,0.1,0,0.2-0.1,0.3
						c0.2-0.1,0.5-0.1,0.6-0.1c0.2,0.2,0.5,0.4,0.4,0.8c0,0.1,0.1,0,0.2,0c0-0.1-0.1-0.1-0.1-0.1c0.1,0.2,0.3,0.3,0.2,0.5
						c0.2,0,0-0.2,0.2,0l0-0.1c0.6,0.1,0.4,0.9,1.1,0.9c0,0-0.1,0-0.1,0c0.6,0.2,1,1,1.7,1.1c0.2,0.1,0.1,0.2,0.1,0.3l0.1-0.1l0,0.3
						c0.1,0.3,0.6,0,0.7,0.4l-0.1,0.1c0.1,0.1,0.3,0.3,0.3,0.2c0,0,0,0.1,0,0.1l0.1-0.1l0.2,0.3c0.2,0.1,0.2-0.3,0.5-0.1
						c0.1,0.1,0.1,0.4,0.1,0.4c0,0-0.1,0-0.2,0l0.1,0.1c-0.1,0.2-0.2,0.5-0.6,0.5l-0.1-0.2l-0.1,0.1l0.1,0.1c-0.1,0-0.1-0.1-0.1-0.2
						c-0.1,0-0.1,0.1-0.2,0.1l0-0.3c-0.1,0.1-0.1,0.2-0.2,0.2c0-0.1,0.2-0.1,0.1-0.3c-0.1,0-0.2,0.1-0.2,0c-0.1,0-0.1,0.1,0,0.1
						c0-0.1-0.2-0.2-0.1-0.3c-0.2,0.1-0.2-0.2-0.4,0c0-0.1,0-0.3-0.1-0.3c0,0.3-0.3-0.2-0.4,0.1c0.1-0.3-0.3-0.4-0.4-0.6
						c0,0,0,0.1,0,0.1c-0.1-0.1-0.2,0-0.3,0c0.1-0.2,0-0.3,0-0.5c-0.2,0.1-0.1,0.3-0.2,0.4c0.1-0.1-0.1-0.3,0-0.4
						c-0.2,0-0.1,0-0.3,0.1c0.1-0.2-0.1-0.1,0-0.3c-0.2,0-0.2,0.2-0.3,0C37.4,252.9,37.4,253.1,37.4,253.1z M34.2,250L34.2,250
						C34.2,250.1,34.3,250.1,34.2,250C34.3,250.1,34.2,250.1,34.2,250z M33.9,249.8c0,0,0.1,0.1,0.1,0.1c0,0,0.1-0.1,0-0.1
						C34.1,249.8,34,249.8,33.9,249.8z M35.2,249.4C35.2,249.4,35.1,249.4,35.2,249.4C35.1,249.4,35.2,249.4,35.2,249.4L35.2,249.4
						C35.2,249.5,35.2,249.4,35.2,249.4z"/>
					<path fill="#4F4F4F" d="M35.2,249.6C35.2,249.6,35.2,249.7,35.2,249.6C35.2,249.7,35.1,249.7,35.2,249.6L35.2,249.6L35.2,249.6
						z"/>
					<path fill="#4F4F4F" d="M35.5,259.5L35.5,259.5C35.5,259.5,35.5,259.4,35.5,259.5C35.5,259.4,35.5,259.4,35.5,259.5z"/>
					<polygon fill="#4F4F4F" points="30,247.2 30,247.2 30,247.2 					"/>
					<path fill="#4F4F4F" d="M36.8,257.8C36.8,257.8,36.8,257.8,36.8,257.8C36.8,257.8,36.8,257.8,36.8,257.8z"/>
					<path fill="#4F4F4F" d="M37.5,257.2l0.1-0.1C37.5,257.2,37.5,257.2,37.5,257.2z"/>
					<path fill="#4F4F4F" d="M38,256.8C38,256.8,38,256.8,38,256.8L38,256.8L38,256.8z"/>
					<path fill="#4F4F4F" d="M29.9,262.7L29.9,262.7C29.9,262.6,29.9,262.6,29.9,262.7z"/>
					<path fill="#4F4F4F" d="M32.1,261.5c0,0-0.1,0-0.1,0C32,261.4,32,261.4,32.1,261.5z"/>
					<polygon fill="#4F4F4F" points="29.9,261.2 29.9,261.2 29.9,261.1 					"/>
					<path fill="#4F4F4F" d="M31.8,261.6c0-0.1,0.1-0.1,0.1-0.1C31.9,261.5,31.9,261.6,31.8,261.6z"/>
					<path fill="#4F4F4F" d="M40.3,254.9L40.3,254.9C40.3,254.9,40.3,254.9,40.3,254.9L40.3,254.9z"/>
					<path fill="#4F4F4F" d="M40.3,254.9L40.3,254.9C40.3,254.9,40.3,254.9,40.3,254.9z"/>
					<path fill="#4F4F4F" d="M40.4,254.9L40.4,254.9C40.4,254.9,40.4,254.9,40.4,254.9z"/>
					<path fill="#4F4F4F" d="M39.6,255.5L39.6,255.5C39.6,255.5,39.6,255.5,39.6,255.5z"/>
					<path fill="#4F4F4F" d="M39.4,255.7c0,0,0.1-0.2,0.1-0.2l0,0C39.5,255.5,39.5,255.7,39.4,255.7z"/>
					<path fill="#4F4F4F" d="M38.9,256.9l0.2-0.2c0,0.1,0,0.2,0.1,0.1C39,257.2,39.1,256.7,38.9,256.9z"/>
					<path fill="#4F4F4F" d="M38.4,257.4C38.5,257.4,38.4,257.5,38.4,257.4C38.4,257.5,38.4,257.5,38.4,257.4z"/>
					<path fill="#4F4F4F" d="M34.3,260.5l0.1,0.1C34.3,260.7,34.4,260.6,34.3,260.5z"/>
					<polygon fill="#4F4F4F" points="33.1,260.5 33.1,260.4 33.2,260.5 					"/>
					<polygon fill="#4F4F4F" points="33.3,261.7 33.3,261.7 33.2,261.7 					"/>
					<path fill="#4F4F4F" d="M28.5,260.2l0.2,0C28.7,260.3,28.5,260.3,28.5,260.2z"/>
					<path fill="#4F4F4F" d="M28.7,256.5c-0.1,0-0.1-0.1-0.1-0.2C28.7,256.3,28.7,256.4,28.7,256.5z"/>
					<polygon fill="#4F4F4F" points="28.8,244.5 28.6,244.3 28.9,244.6 					"/>
				</g>
			</g>
		</g>
	</g>
</g>
</svg>
