<?xml version="1.0" encoding="utf-8"?>
<!-- Generator: Adobe Illustrator 18.1.1, SVG Export Plug-In . SVG Version: 6.00 Build 0)  -->
<svg version="1.1" id="Layer_1" xmlns="http://www.w3.org/2000/svg" xmlns:xlink="http://www.w3.org/1999/xlink" x="0px" y="0px"
	 width="658.4px" height="214.1px" viewBox="0 0 658.4 214.1" enable-background="new 0 0 658.4 214.1" xml:space="preserve">
<g>
	<path fill="#F7F6F5" d="M110.2,42.2H9.5c-0.3,0-0.5-0.2-0.5-0.5v-32c0-0.3,0.2-0.5,0.5-0.5h100.7c0.3,0,0.5,0.2,0.5,0.5v32
		C110.7,42,110.5,42.2,110.2,42.2z"/>
	<g>
		<g>
			<g>
				<g>
					<path fill="#4F4F4F" d="M110.2,42.1c-0.2,0,0,0.1,0.3,0c0,0,0.1-0.2,0.1-0.2c0,0,0,0.1-0.1,0.2
						C110.3,42.1,110.2,42.1,110.2,42.1z"/>
					<path fill="#4F4F4F" d="M110.7,39.9c0-0.5-0.1-1-0.1-0.7c0.1,0.5,0,0.6,0.1,1.1c0,0.4,0,0.7,0,0.6c0,0.1,0,0.6,0,0.8
						C110.7,41.2,110.7,40.6,110.7,39.9C110.7,39.8,110.7,39.9,110.7,39.9z"/>
					<path fill="#4F4F4F" d="M103.1,9.2l0.2,0C103.2,9.2,103.2,9.2,103.1,9.2z"/>
					<path fill="#4F4F4F" d="M79.5,9.1c0.2,0,0.3,0,0.3,0C79.6,9.1,79.4,9.1,79.5,9.1z"/>
					<path fill="#4F4F4F" d="M75.4,9.1c0.1,0,0.2,0,0.2,0C75.6,9.1,75.5,9.1,75.4,9.1z"/>
					<path fill="#4F4F4F" d="M103.1,9.2l-0.6,0C102.4,9.2,102.8,9.2,103.1,9.2z"/>
					<path fill="#4F4F4F" d="M110.6,34.7c0,0.1,0,0.2,0,0.3L110.6,34.7L110.6,34.7z"/>
					<polygon fill="#4F4F4F" points="110.8,12.2 110.8,12.4 110.9,12.6 					"/>
					<path fill="#4F4F4F" d="M110.9,20.2c0-0.2,0-0.2-0.1-0.3C110.8,20,110.8,20.1,110.9,20.2C110.8,20.3,110.8,20.3,110.9,20.2z"/>
					<path fill="#4F4F4F" d="M110.8,32.9l0,0.2C110.8,33,110.8,33,110.8,32.9z"/>
					<path fill="#4F4F4F" d="M107.8,9.1C107.7,9.1,107.7,9.1,107.8,9.1C107.7,9.1,107.7,9.1,107.8,9.1z"/>
					<path fill="#4F4F4F" d="M100.9,42C100.9,42,100.9,42,100.9,42C101,42,101,42,100.9,42z"/>
					<path fill="#4F4F4F" d="M110.2,42.3l-0.1,0c0,0,0,0,0,0L110.2,42.3z"/>
					<path fill="#4F4F4F" d="M68.1,9C68.1,9,68.1,9,68.1,9C68.3,9,68.2,9,68.1,9z"/>
					<path fill="#4F4F4F" d="M8.7,18.1c0-0.8,0.1,1.2,0.1,0.1C8.8,18.3,8.8,17.1,8.7,18.1z"/>
					<path fill="#4F4F4F" d="M110.6,34.5l0-0.3C110.6,34.3,110.6,34.4,110.6,34.5z"/>
					<path fill="#4F4F4F" d="M8.8,18.2L8.8,18.2l0-0.1C8.8,18.1,8.8,18.1,8.8,18.2z"/>
					<path fill="#4F4F4F" d="M51.1,9c0,0,0.1,0,0.2,0C51.2,9.1,51.2,9.1,51.1,9z"/>
					<path fill="#4F4F4F" d="M63.7,9.1l-0.3,0C63.5,9.1,63.6,9.1,63.7,9.1z"/>
					<path fill="#4F4F4F" d="M44.5,9.1c-0.2,0-0.2,0-0.5,0c0,0,0,0,0.1,0C44.2,9.1,44.3,9.1,44.5,9.1z"/>
					<path fill="#4F4F4F" d="M37.6,9.1c0,0,0.1,0,0.1,0c0.1,0,0.1,0,0.2,0L37.6,9.1z"/>
					<path fill="#4F4F4F" d="M80.1,42c0.1,0,0.2,0,0.3,0C80.4,42.1,81.4,42,80.1,42z"/>
					<path fill="#4F4F4F" d="M110.6,34.7c0,0,0-0.1,0-0.2C110.6,34.5,110.6,34.6,110.6,34.7C110.6,34.7,110.6,34.7,110.6,34.7z"/>
					<path fill="#4F4F4F" d="M44.2,9.5l-1.1,0C43.4,9.5,43.8,9.5,44.2,9.5z"/>
					<path fill="#4F4F4F" d="M31.1,42.1l0.2,0C31.2,42,31.1,42,31.1,42.1z"/>
					<path fill="#4F4F4F" d="M39.9,9.5c-0.2,0-0.4,0-0.6,0c0,0-0.1,0-0.1,0L39.9,9.5z"/>
					<path fill="#4F4F4F" d="M80.5,42.1L80.5,42.1L80.5,42.1z"/>
					<path fill="#4F4F4F" d="M87.6,42c-1,0-0.5,0.1-0.7,0.1c-1.2,0-0.6,0-1-0.1c-0.8,0-1.4,0.1-1.9,0.1c0,0-0.2,0,0,0
						c-0.8,0.1-2.4,0-3.4,0.1c-0.1,0-0.1,0-0.1,0c0.2,0,0.2,0.1,0.1,0.1c-0.5,0-0.9,0-1,0c0.3,0,0.3,0,0.4,0l-0.5,0
						c-0.4-0.1,0.7,0,0.7-0.1c-0.9,0-2.1,0.1-2.8,0.1c-0.2-0.1,1.7,0,0.7-0.1l1.1,0c-0.9-0.1,0.7,0-0.1-0.1c-1.5,0-1.7,0-3.1,0
						c-0.3,0,0.1,0-0.2,0.1c-2.1,0.1-1.7-0.1-3.2-0.1c-0.4,0-0.6,0.1-1.7,0.1l0.4-0.1c-1.4,0-0.8,0.1-2.3,0.1c0.3,0,1.1,0,0.9,0
						c-1-0.1-0.7,0-1.4,0L68.3,42c-1.5,0-3.2,0-4.9,0.1c0.1,0,0.4,0,0-0.1c-2.1,0-4.6,0-6.6,0L56,42.1c-0.2,0-0.3,0-0.1,0
						c-0.8,0,0,0-0.4,0.1c-0.5,0-0.6,0-0.3,0c-1.4,0-4,0.1-5.5,0l0.3,0c-1.2,0-1.3,0.1-2.4,0.1l0.2,0c-2.5,0-5.3,0-7.2-0.1
						c-0.4,0.1-2.5,0-2.7,0.1c-1.4-0.1-1-0.1-3.1-0.1c-0.5,0-0.8,0.1-1.5,0.1l0-0.1l-0.9,0.1L31.9,42l-0.6,0c0.2,0,0.5,0,0.5,0
						c-0.5,0-1.1,0-1.6,0s-0.8,0-0.8-0.1l-2.3,0c0.1,0,0.4,0,0.7,0c-1.2,0.1-0.2-0.1-1.4,0c0.2,0-0.1,0-0.1,0c-0.6,0-1.9,0-2.8,0
						l0.2,0c-1.7,0-3.6,0-5.6,0c0.7,0,0.5,0.1,0,0.1L17.9,42c-0.4,0,0.6,0-0.2,0.1c-0.7,0-0.5-0.1-0.1-0.1l-0.9,0
						c-0.1,0,0.2,0,0.2,0c-0.4,0-1.5-0.1-2,0l0,0c-1.9,0-2.8,0-4.4,0c0,0-0.6,0-1.1,0.1c-0.2,0-0.4-0.2-0.3-0.4c0-0.3,0-0.6,0-0.9
						c0-0.6,0-1.3,0-2c0-1,0-0.3-0.1-0.7c0-0.1,0-1.5,0.1-0.7c0-1.7,0-2.1,0-4.2c0,0.2,0,0.5,0,0.4c0-0.4,0-0.9,0-0.8l0,0.1
						c-0.1-2.4,0.1-5.5,0-7.4l0,0.1l0-2c0-0.9,0,0.5,0.1-0.1c-0.1-2.1,0-3.3,0-5.1c0.1-1.3,0-4.8,0.1-6.6l0,0.1c0-0.5,0-0.6,0-0.9
						c0,0,0,0.5,0,0.2l0-0.7c0-0.2,0-0.6,0-0.7c0-0.1,0.1-0.1,0.2-0.2c0.1,0,0.1,0,0.3,0l0.8,0c1,0,2,0,3.1,0c2.1,0,4.1,0,6.2,0.1
						c1.5,0,0.8-0.2,2.7-0.1l-0.5,0.1c3-0.1,6.2,0,9.1-0.1c-0.2,0-0.2,0-0.5,0c0.3,0,0.9,0,1.4,0c0.2,0,0.5,0,0.6,0
						c0.2,0,0.3,0,0.3,0c0.5,0,0.1,0,0.4,0c0.6,0,1.6-0.1,1.9,0c0.1,0-0.2,0-0.3,0c0.4,0,1.9,0,1.5,0c1.1,0,2.1,0,3,0
						c0.6-0.1,1.9,0,2.1-0.1c-0.1,0.1,1.9,0.1,2.6,0c-0.2,0,0.6,0,0.3,0.1c0.8,0,1.5,0,1.4-0.1c1.5,0.1,3-0.1,3.8,0
						c2.4,0,4.6-0.1,6.7-0.1c-0.1,0.1-2.4,0-2.3,0.1c2,0,3.2-0.1,5.2-0.1c0.5,0-0.3,0-0.5,0c2,0,3.9,0,5.7,0c0,0-0.2,0-0.4,0
						c0.4,0,0.8,0,0.8,0l-0.3,0c-0.6-0.1,1.4-0.1,1.5-0.1c-0.6,0.1,1.8,0,0.8,0.2c0.2,0,0.5,0,0.5,0c0.3,0,0.5,0,0.1,0
						c1.3,0,0.8-0.1,2-0.1c0,0-0.2,0-0.4,0c0.6,0,1.2-0.1,2.1-0.1c-0.1,0,0.1,0-0.2,0c1.7,0,2.8-0.1,4.7-0.1c-0.5,0.1,0.6,0,0.7,0.1
						l1,0l-0.4,0c0.9,0,1.6,0,2.4,0l-0.6,0l1.6,0l-0.9,0c0.9,0-0.1-0.1,1.1-0.1c-0.2,0,0.9,0,1.3,0l0,0c0.4,0,0.9,0,1.5,0
						c0.2,0-0.1,0.1,0,0.1c0.4-0.1,2,0,2.6-0.1c-0.2,0-0.2,0-0.1,0.1l0.4,0c0.4,0,0.5,0,0.4,0c1.2,0-0.4-0.1,1,0c-0.1,0-0.1,0-0.3,0
						c1.4,0,2.8,0,4.1,0c0.4,0.1-1.1,0-0.7,0.1c1.9,0,3.9-0.1,5.8-0.1l-0.3,0c0.3-0.1,1.4,0,2.3,0c-0.2,0-0.3,0.1-0.2,0
						c1.3,0,2.6,0,4.5-0.1l-0.2,0c0.7,0,2,0,2.8,0c0.2,0,0.7,0,0.4-0.1c1.2,0.1,2.4,0,3.6,0c0.3,0,0.6,0,0.9,0
						c0.3,0,0.6-0.1,0.8,0.1c0.2,0.1,0.2,0.4,0.2,0.7c0,0.3,0,0.5,0,0.8c0-0.3,0-0.6,0-0.4l0,1.9c0-0.1,0-0.2,0.1-0.6
						c0,0.2,0,0.8,0,1.2c0-0.8-0.1,0-0.1,0.4c0-0.1,0,0.1,0,0c-0.1,1,0.1,0.2,0,1.5l0-0.1c0,0.5,0,1,0,1.5c0,0.2,0-0.5-0.1-0.6
						c0,0.8,0.1,1.5,0,2.2c0-0.3,0-0.8,0-1.1c-0.1,0.7,0,0.8,0,1.4l0-0.1l0,1.3l0-0.3c0.1,0.9,0,1.9,0.1,3.2c-0.1-1.2,0-0.2-0.1-0.3
						c0,0.3,0,0.8,0,0.7c0,0.6,0,1,0,1.9c0,0,0,0.6,0,0.5c0,0.8,0-0.2,0.1-0.1c0.1,1.2-0.1,2.8,0,4.6c0.1,1.5,0.1,1.8,0.1,3.2
						c0,0.5-0.1-0.4-0.1-0.4c0,0.8,0,1.3,0,2c0-0.1,0,0,0,0.2c0,0.6,0.1,0.4,0,1.1c0-0.1,0-0.3-0.1-0.6c0,0.7,0,1.3,0.1,2
						c0,0.2,0-0.4-0.1-0.7c0,0.8,0,2,0.1,2.3l0-0.5c0,0.3,0,0.1,0-0.1c0-0.7,0-1,0-1l0,0.5c0.1-0.5,0-2,0-3l0.1,0.4l-0.1-1
						c0-0.2,0.1-0.4,0.1,0.1c0-0.7,0-0.6,0-1.2c0-0.1,0,0,0,0l0-0.7c0,0.1,0.1-0.1,0,0.3c0-1.3-0.1-2,0-2.5l0,0.1
						c0-1.7-0.1-0.2-0.1-1.5l0.1-0.9l-0.1-0.2c0-0.2,0-0.5,0-0.5c0-0.7,0,0.1-0.1-0.3c0-0.9,0-2.4,0.1-2.6c0-0.3,0,0.8-0.1-0.1
						c0.1-0.3,0-1.1,0-1.9c0,0.2,0,1,0.1,0.2c-0.1-0.5,0-1.5,0-2.2c-0.1,0,0-1.4,0-2.6c0,0.1,0-2.1,0.1-3.1l0,0
						c-0.1-0.2-0.1-1.3-0.1-2.1c0,0,0.1,0.2,0.1,0.6l0-0.7c0-0.2,0-0.4,0-0.9l0,0.2c0-0.5,0-1,0-1.5c0-0.1,0-0.3,0-0.4
						c0-0.1,0-0.3-0.2-0.5c-0.1-0.1-0.3-0.2-0.5-0.2c-0.1,0-0.3,0-0.5,0c-0.1,0,1,0.1-0.3,0.2c0,0-0.1-0.1,0.2-0.1
						c-0.1,0-0.4,0-0.6,0l0.5,0c-0.6,0-0.3,0-0.8,0c0,0-0.3,0-0.3-0.1c0.1,0,0.4,0,0.6,0c-0.5,0-1.1,0-1.3-0.1c0,0,0,0-0.4,0.1
						c-1,0-0.3,0-0.9-0.1c-0.2,0-0.9,0-0.9,0.1c-0.3,0-0.3,0-0.4,0c-0.5,0-2.4,0-1.8,0.1l0.1,0c0,0-0.1,0-0.1,0h0h0
						c-1.7,0.1-3.4,0-5.1,0l0,0c-1,0-2.2,0-2.9,0c-0.3,0-0.7,0-0.6-0.1c-0.8,0-0.8,0-1.9,0c0.8,0-0.3,0,0.8,0c-1,0-1.2,0-2.2,0
						c0.4,0-0.7-0.1-1.2,0l0.7,0c-0.5,0-1,0-1.4,0l0.3-0.1c-2-0.1-3.6,0.1-5.1,0c-0.5,0,1.1,0,0.6,0.1c-0.9,0-1.9-0.1-2.2-0.1
						c-1.3,0-1.2,0.1-2.5,0.1c0.2,0,0.3,0.1-0.7,0.1c-0.9,0-1.1-0.1-0.5-0.1c0.2,0,0.3,0,0.3,0c0.3,0,0.7,0,0.3,0l-0.1,0
						c-0.5,0-1.7,0-1.4-0.1c-0.7,0-0.3,0,0.2,0c-1.2,0-1.8,0-3.1,0c0.2,0,0.4,0,0.2,0c-1.8,0-0.8,0-2,0c-0.7,0,0.2-0.1-1,0
						c-0.7,0-0.2-0.1,0.1-0.1c-1.1,0-2.1,0-2.7,0l0.6,0c-0.4,0-0.6,0-0.9,0l0.3,0c-0.3,0-0.6,0-0.6,0c-0.4,0,0.3,0.1-0.4,0.1
						c-0.5,0-1.4,0-1.5,0c1.4,0-0.2-0.1,1.1-0.1c-0.2,0-0.5,0-0.9,0c-0.1,0,0,0,0.1,0c-1.4,0-0.6,0.1-2.1,0.1C66.2,9,65.7,9,65.4,9
						c0.6,0,0.3,0.1-0.3,0.1c-0.9,0-1,0-1.5,0l0.5,0c-0.2,0-0.6,0-1.3,0c-0.1,0,0.6,0,0.4,0c-0.7,0.1-1.6-0.1-2.6,0
						c-0.5,0,0-0.1-0.4-0.1c-1.1,0-1.2,0-2.4,0c0.3,0,0.4,0-0.4,0.1l1.9,0l-1.2,0.1c0.6,0,1.2,0,1.6,0c-0.6,0-0.5,0-0.2,0.1
						c-0.8-0.1-1.6,0-2.5,0l0-0.1c-1.4,0-2.4,0.1-4.2,0l0.6,0c-0.2,0-1.1,0-1.7,0c0.1,0-0.3,0-0.6-0.1c0,0-1.3,0-1.5,0.1l-0.8,0
						c-1.4,0-1.6,0.1-3,0.1c0.4,0-0.2-0.1,0.7-0.1c-0.5,0-0.9,0-0.9,0c-0.3,0-1.3,0-1.7,0c-0.2,0-0.3,0.1-0.8,0c-0.1,0,0,0,0,0
						c0,0-0.8,0-0.4,0.1c-1.4-0.1-4,0-5.2-0.1c-1,0-2.2,0-3.1,0c0.1,0,0,0,0.2,0c-1.3,0-0.8,0.1-2.2,0.1c-0.7-0.1,0.8,0,0.3-0.1
						c-0.2-0.1-1.7,0-2.7-0.1l0.2,0c-0.7,0-1.8,0-3,0c0,0,0.1,0,0,0c-0.8,0.1-2.4,0.1-3.5,0.1c0.4,0,0.5,0,0.3-0.1
						c-0.5,0,0.2,0.1-0.9,0.1c-0.3,0-1.1,0-1.2-0.1l1,0c-0.5-0.1-1.3,0-1.8,0l0.1,0c-1.5,0-1.5,0.1-3.1,0.1l0.2,0
						c-0.9,0.1-0.7,0-1.6,0l-0.3-0.1c-0.6,0-2,0.1-3.1,0.1c0.6-0.1,1.8-0.1,2.6-0.1c-0.6,0-2,0-2.3,0c0.2,0,0.5,0,0.8,0
						c-0.7,0.1-1.6,0.1-2.8,0.1c0.1-0.1-0.6-0.1-1.5-0.1c-0.2,0-0.4,0-0.7,0c-0.2,0-0.6,0-0.7,0.3C8.8,9.5,8.8,9.6,8.8,9.7
						c0,0.1,0,0.2,0,0.3c0,0.2,0,0.3,0,0.4c0,2,0,4,0,6.4c0.1-0.8,0,0.7,0.1,0.5c0,0.5,0,0.8,0,0.8l-0.1,1.7c0,0.4,0-0.5,0-0.5
						c0,1.2,0,0.5-0.1,1.3c0-0.2,0.1,0.4,0,1.1l0-1c0.1,1.7-0.1,1.5,0,3.2l0-0.5c0,0.9,0,3.2,0.1,4.1c0,0.2,0,0.4,0,0
						c0,2.1,0.1,4.6,0,6.2l0-0.2c0,0.4,0,0.7,0,1.2c0,0,0-0.2,0,0c0,0.2,0,1,0,1.5l0-0.4c0,2,0.1,3.1,0.1,4.8c0,0-0.1,0.4-0.1,0.9
						l0,0.2c0,0.1,0,0.2,0,0.3c0.1,0.2,0.2,0.3,0.4,0.4c0.2,0.1,0.4,0.1,0.5,0.1c0.1,0,0.2,0,0.3,0l0,0c2.4,0,4-0.1,6.2-0.1
						c1.4,0.1,4.6,0,6.8,0.1c-0.3,0,0.1-0.1,0.4-0.1c0.5,0,1.4-0.1,1.3,0l-0.2,0c0.4,0.1,1.4,0.1,2.3,0.1l0.1-0.1
						c2.2,0.1,5.6,0,6.8,0.1c0.5,0,1.2,0,1.7,0l0,0c1.4,0,2.2,0,3.9,0l-0.4,0c1,0,1.3-0.1,2.2-0.1l0.3,0.1c1.7,0,3.5,0.1,5.2,0
						c0,0-0.1,0-0.4,0c0.8,0,3.2,0,2.9-0.1c0,0.1,1.8,0,2.7,0l-0.1,0c0.8-0.1,0.8-0.1,1.9-0.1c0.3,0,0.2,0-0.1,0c0.9,0,0.7,0,1.8,0
						l-0.4,0c0.9,0,0.8,0,1.3,0c0.6,0,1.7,0,1.8,0.1c0.1,0,0.6-0.1,1.2,0c0.1,0-0.1,0-0.2,0c1.5,0,2.2-0.1,3.3,0c0,0,0.1,0,0.2,0
						c-1.2,0-2,0-2.1,0c0,0,1,0.1,0.2,0.1c0.8,0,2.1-0.1,3.1-0.1l0.1,0l-0.1,0c0.2,0,0.4,0,0.6,0c0.3,0,0.5,0,0.8,0
						c0.1,0,1.1,0,1.6,0c0,0,0.6,0,0-0.1c0.1,0-0.1,0-0.4,0c-0.1,0-0.2,0-0.2,0l0,0c-0.3,0-0.7,0-1.2,0c0.4,0,0.8,0,1.3,0
						c0.3,0,0.5-0.1,0.7-0.1c0.7,0.1,1.9,0.1,2.1,0.1c1.5,0,3.5,0,4.4-0.1c0.4,0,0.5,0,0.6,0c-0.2,0-0.5,0-0.7,0
						c0.8,0,2.5,0,2.7-0.1c1.1,0-0.6,0.1,0.9,0l-0.2,0c2.9,0.1,4.7-0.2,7.8,0c-0.2,0-0.3,0-0.4,0c3.6,0.1,7.5-0.1,11,0
						c1,0,1.1,0,1.7-0.1l0.2,0.1l1.1-0.1c1.5,0,2.6,0.1,4.5,0l-0.2,0c0.7,0,2.2,0,2,0c0.1,0,0.2,0,0.5,0l0,0l1.7,0
						c1.3,0-0.2,0.1,1.7,0.1c0.7,0,2-0.1,1.7-0.1c-0.3,0-0.7,0-0.7,0l0.6,0c0.1-0.1,0.6-0.2-1-0.2l-1.1,0l-0.4,0l0.9,0
						c-0.5,0-0.9,0-1.2,0c-0.1,0-0.2,0-0.5,0l-1.1,0.1c-0.1,0,0.5-0.1-0.2-0.1c-0.5,0,0.5,0.1-0.4,0.1c-0.5,0-0.4-0.1-1,0
						c-0.1,0,0,0,0.3,0c-0.6,0-1.5,0-1.7,0.1c-0.5,0-1.9,0-1.8-0.1c-0.2,0-1,0.1-1.5,0.1c0.9-0.1-1.9,0-1.7-0.1
						c-0.7,0.1-2.5,0-3.7,0.1c0.1,0,0.2,0,0.3,0c-0.7,0-0.9,0-1.3,0c-0.1,0.1-1.2,0.1-1.7,0.1c-0.8-0.1,0.5-0.1,0.2-0.1
						c0,0.1-1.5,0.1-1.2,0.1c-0.6,0-0.6,0-0.9-0.1c-0.1,0.1-0.6,0-1.1,0.1c-0.9,0-0.2-0.1-1.3-0.1C86.7,42,87.6,42,87.6,42z
						 M63.4,42.1L63.4,42.1c0.2,0,0.4,0,0.5,0C63.8,42.1,63.7,42.1,63.4,42.1z M61.4,42.1c0.2,0,0.6,0,0.9,0c0.1,0,0,0-0.2,0
						C62.2,42.1,61.7,42.1,61.4,42.1z M65.7,42.5c-0.3,0-0.4,0-0.5,0C65.4,42.4,65.5,42.4,65.7,42.5c0.1,0,0.1,0,0.1,0
						C65.8,42.4,65.8,42.5,65.7,42.5z"/>
					<path fill="#4F4F4F" d="M66.3,42.4c0,0,0.1,0,0.1,0C66.3,42.4,66.3,42.4,66.3,42.4c-0.1,0-0.1,0-0.2,0
						C66.2,42.4,66.2,42.4,66.3,42.4z"/>
					<path fill="#4F4F4F" d="M103.4,9.2L103.4,9.2C103.3,9.2,103.4,9.2,103.4,9.2C103.4,9.2,103.4,9.2,103.4,9.2z"/>
					<polygon fill="#4F4F4F" points="33.3,42 33.3,42 33.5,42 					"/>
					<path fill="#4F4F4F" d="M110.6,13.3c0,0,0,0.1,0,0.1C110.6,13.5,110.6,13.4,110.6,13.3z"/>
					<path fill="#4F4F4F" d="M110.6,18.1l0,0.7C110.6,18.5,110.6,18.3,110.6,18.1z"/>
					<path fill="#4F4F4F" d="M110.6,21.9C110.6,21.9,110.6,21.9,110.6,21.9L110.6,21.9L110.6,21.9z"/>
					<path fill="#4F4F4F" d="M64,9.4c0,0-0.1,0-0.1,0C63.5,9.5,63.7,9.4,64,9.4z"/>
					<path fill="#4F4F4F" d="M81.6,9.3c-0.2,0-0.4,0-0.6,0C81.3,9.4,81.6,9.4,81.6,9.3z"/>
					<path fill="#4F4F4F" d="M44.3,9.5L44.3,9.5c0,0-0.1,0-0.1,0L44.3,9.5z"/>
					<path fill="#4F4F4F" d="M80.2,9.3c0.3,0,0.6,0,0.8,0C80.8,9.3,80.5,9.3,80.2,9.3z"/>
					<path fill="#4F4F4F" d="M110.6,38l0,0.2c0,0,0,0,0,0L110.6,38z"/>
					<path fill="#4F4F4F" d="M110.6,38.2l0,0.2C110.6,38.3,110.6,38.2,110.6,38.2z"/>
					<path fill="#4F4F4F" d="M110.6,38.8l0-0.4C110.6,38.5,110.6,38.7,110.6,38.8z"/>
					<path fill="#4F4F4F" d="M110.6,33.1L110.6,33.1C110.6,33,110.6,33.1,110.6,33.1z"/>
					<path fill="#4F4F4F" d="M110.6,31.6c0,0.4,0,0.9,0,1.4l0,0C110.5,32.8,110.6,31.9,110.6,31.6z"/>
					<path fill="#4F4F4F" d="M110.8,25.3l0,1.3c0-0.2,0-0.5,0,0.1C110.9,25.1,110.8,27,110.8,25.3z"/>
					<path fill="#4F4F4F" d="M110.8,21.4C110.8,22.1,110.9,21.4,110.8,21.4C110.8,21,110.8,20.9,110.8,21.4z"/>
					<path fill="#4F4F4F" d="M94.6,9.1L94.6,9.1C94.1,9.1,94.6,9.1,94.6,9.1z"/>
					<polygon fill="#4F4F4F" points="89.2,9.4 89.7,9.4 90,9.4 					"/>
					<polygon fill="#4F4F4F" points="86,9.1 86.3,9 85.4,9.1 					"/>
					<path fill="#4F4F4F" d="M38.9,9.1L39,9.1C39.4,9.1,39.4,9.1,38.9,9.1z"/>
					<path fill="#4F4F4F" d="M18.5,9.1c-0.2,0-0.8,0-1.1,0C17.8,9.1,18.3,9.1,18.5,9.1z"/>
					<polygon fill="#4F4F4F" points="27.9,42.5 27.5,42.5 28.3,42.5 					"/>
				</g>
			</g>
		</g>
	</g>
</g>
<g>
	<path fill="#FAFCF2" d="M645.9,206.8h-635c-1.1,0-2-0.9-2-2V37.2c0-1.1,0.9-2,2-2h635c1.7,0,3,1.3,3,3v165.6
		C648.9,205.5,647.6,206.8,645.9,206.8z"/>
	<g>
		<g>
			<g>
				<g>
					<path fill="#CBE072" d="M645.9,206.2c-0.4,0-0.5,0.1-0.2,0.2c0.2,0,0.4,0.1,0.7,0c0.3,0,0.7-0.2,1.1-0.5c0,0,0.2-0.3,0.4-0.6
						c0.1-0.3,0.2-0.6,0.2-0.6s0,0.2-0.2,0.4c-0.1,0.2-0.3,0.5-0.6,0.7c-0.3,0.2-0.6,0.3-0.9,0.4
						C646.1,206.2,645.9,206.2,645.9,206.2z"/>
					<path fill="#CBE072" d="M648.9,192.8c-0.2-2.8-0.4-5.9-0.7-4.2c0.3,2.7,0.2,3.4,0.6,6.3c0,2.4-0.1,4.1-0.2,3.7
						c0.1,0.8-0.1,3.7,0.1,4.9c0.3-3.1,0.3-6.9,0.1-11C648.7,191.7,648.8,192.6,648.9,192.8z"/>
					<path fill="#CBE072" d="M575.6,34.8l1.5,0C576.6,34.8,576.1,34.8,575.6,34.8z"/>
					<path fill="#CBE072" d="M433.3,34.6c1.1,0,1.5,0,1.6-0.1C433.9,34.6,433.1,34.6,433.3,34.6z"/>
					<path fill="#CBE072" d="M409,34.2c0.5,0,1,0,1.4,0C409.9,34.2,409.4,34.2,409,34.2z"/>
					<path fill="#CBE072" d="M575.6,34.8l-3.8-0.1C571.5,34.8,573.7,34.8,575.6,34.8z"/>
					<path fill="#CBE072" d="M648.1,161.1c0,0.8,0,1.5,0.1,2.1c0-0.7,0-1.3,0-1.9C648.1,161.2,648.1,161.2,648.1,161.1z"/>
					<path fill="#CBE072" d="M638.3,34.5l1.2,0c0.3,0,0.7-0.1,1-0.1L638.3,34.5z"/>
					<path fill="#CBE072" d="M649.7,74c0-1.1-0.3-1.5-0.4-1.9c0.1,0.6,0.2,1.4,0.2,2.4C649.6,74.5,649.6,74.4,649.7,74z"/>
					<path fill="#CBE072" d="M649.2,150.3l0,1.4C649.2,151.3,649.2,150.7,649.2,150.3z"/>
					<path fill="#CBE072" d="M603.8,34.5c-0.1,0-0.3-0.1-0.4-0.1C603.4,34.4,603.6,34.4,603.8,34.5z"/>
					<path fill="#CBE072" d="M590.1,205.5C590.1,205.5,590.2,205.6,590.1,205.5C590.4,205.5,590.5,205.5,590.1,205.5z"/>
					<path fill="#CBE072" d="M645.9,206.9l-0.8,0c-0.1,0.1-0.2,0.1-0.2,0.2L645.9,206.9z"/>
					<path fill="#CBE072" d="M364.6,33.9c0.1,0,0.1,0,0.2,0C366,33.9,365.3,33.9,364.6,33.9z"/>
					<path fill="#CBE072" d="M7.8,88.5C8,83.9,8.1,96,8.4,89C8.3,89.7,7.9,82.7,7.8,88.5z"/>
					<path fill="#CBE072" d="M648.1,159.9c0-0.6,0-1.3,0-2C648.1,158.8,648.1,159.4,648.1,159.9z"/>
					<path fill="#CBE072" d="M8.4,89L8.4,89l0-0.7C8.4,88.6,8.4,88.8,8.4,89z"/>
					<path fill="#CBE072" d="M262.2,34c0.2,0,0.6,0.1,1,0.1C263.2,34.1,263,34.1,262.2,34z"/>
					<path fill="#CBE072" d="M338.5,34.4l-1.9,0C337.3,34.4,337.9,34.4,338.5,34.4z"/>
					<path fill="#CBE072" d="M222.6,34.4c-1,0-1.4-0.1-2.8,0c0.1,0,0.3,0,0.4,0C220.7,34.4,221.4,34.4,222.6,34.4z"/>
					<path fill="#CBE072" d="M181.3,34.4c0.2,0,0.5,0,0.8,0.1c0.4,0,0.9,0,1.3,0L181.3,34.4z"/>
					<path fill="#CBE072" d="M464.8,205.7c0.9,0.1,1.5,0.2,1.9,0.3C466.1,205.7,472.2,205.6,464.8,205.7z"/>
					<path fill="#CBE072" d="M648.2,161.1c-0.1-0.2-0.1-0.6-0.1-1.2c0,0.5,0,0.9,0,1.4C648.2,161.3,648.2,161.4,648.2,161.1z"/>
					<path fill="#CBE072" d="M220.9,36.7l-6.6,0C216.2,36.6,218.6,36.6,220.9,36.7z"/>
					<path fill="#CBE072" d="M169.1,205.7l1.5,0C170,205.7,169.4,205.7,169.1,205.7z"/>
					<path fill="#CBE072" d="M194.9,36.7c-1.2-0.1-2.4-0.2-3.7-0.2c-0.3,0-0.6,0-0.8,0.1L194.9,36.7z"/>
					<path fill="#CBE072" d="M466.8,205.9C466.7,205.9,466.7,205.9,466.8,205.9C466.7,205.9,466.7,205.9,466.8,205.9z"/>
					<path fill="#CBE072" d="M509.9,205.2c-6.2,0-2.9,0.4-4.3,0.6c-7.5,0.1-3.4-0.3-6-0.5c-4.7,0.1-8.2,0.4-11.7,0.4
						c-0.3-0.1-0.9-0.1-0.1-0.2c-4.9,0.3-14.6,0-20.3,0.4c-0.4,0-0.6-0.1-0.7-0.1c0.9,0.2,1.1,0.4,0.9,0.5c-2.8,0-5.2,0.2-6.2,0
						c1.7,0,1.9-0.1,2.7-0.2l-2.9,0.1c-2.6-0.3,4-0.1,4-0.4c-5.7,0.1-12.4,0.4-16.8,0.3c-0.9-0.3,10.2-0.1,4.4-0.4l6.8,0.1
						c-5.2-0.5,4.1,0-0.6-0.5c-8.9-0.1-10,0.2-18.9,0.1c-2,0.2,0.7,0.3-1.3,0.5c-12.6,0.3-10-0.9-19.3-0.4c-2.4,0.2-3.3,0.7-10,0.4
						l2.3-0.4c-8.6,0-4.9,0.6-14,0.3c1.6-0.2,6.8-0.1,5.5-0.2c-5.9-0.3-4.1,0.2-8.6,0.2l-0.9-0.3c-9.2,0.1-19.3,0.2-29.5,0.4
						c0.6-0.1,2.3-0.2-0.1-0.3c-12.8,0.2-27.4,0-39.8-0.2l-4.7,0.3c-1.1,0-2-0.1-0.9-0.2c-4.8-0.1-0.3,0.2-2.6,0.3
						c-2.7,0-3.6-0.2-1.9-0.3c-8.5,0.2-24.3,0.5-33.2,0.2l1.8-0.1c-7-0.1-7.9,0.6-14.4,0.3l1.2-0.1c-15.2-0.1-31.9,0.1-43.5-0.3
						c-2.2,0.4-15-0.2-16,0.4c-8.7-0.3-6.2-0.4-18.4-0.6c-3.3,0-4.9,0.4-8.9,0.4l-0.1-0.3l-5.5,0.3l-2.9-0.4l-3.8,0.1
						c1.5,0,3.2,0.1,3,0.2c-3,0.1-6.5,0-9.4-0.1c-2.9-0.1-5-0.2-5.1-0.3l-14,0.3c0.3-0.1,2.6-0.2,4.5-0.2c-7.5,0.3-1.4-0.3-8.2,0
						c0.9,0.1-0.5,0.2-0.6,0.2c-3.4-0.2-11.2-0.2-16.9-0.1l1.1-0.2c-10.4-0.1-21.8,0.1-33.5,0.1c4.2,0.1,3.2,0.5-0.2,0.5l-1.4-0.3
						c-2.2,0.2,3.6,0.1-1,0.4c-4.3,0-2.9-0.4-0.4-0.5l-5.3,0.1c-0.3-0.1,0.9-0.1,1.3-0.3c-2.2,0.2-9.1-0.3-12.2,0l-0.3-0.1
						c-11.6,0.1-16.9,0.1-26.4,0.1c-0.2,0.3-3.9,0.2-6.7,0.4c-7-0.1-14.7-0.3-23.1-0.3c-5.9,0.1-1.7,0.2-4.4,0.4
						c-0.1,0-0.2-0.1-0.5-0.1c-0.2,0-0.3-0.1-0.5-0.2c-0.2-0.1-0.3-0.3-0.4-0.5c-0.1-0.2-0.1-0.3-0.1-0.8c0-1.6,0.1-2.6,0.2-0.4
						c0-10.1-0.1-12.8-0.3-25.6c-0.1,1.4-0.2,2.9-0.2,2.1c0-2.3,0.1-5.3,0.2-4.9l0,0.6c-0.4-14.3,0.7-33,0.2-44.3l0,0.6l-0.3-11.8
						c0-5.4,0.2,3.3,0.4-0.8c-0.4-12.7,0.1-20.1-0.2-30.6c0.8-8.1-0.1-28.8,0.4-39.7l-0.2,0.6c-0.2-2.8,0.1-3.4,0.1-5.5
						c-0.1,0.3-0.2,3.1-0.3,1.3c0-3,0-6,0-9c0-0.3,0.2-0.6,0.5-0.7c0.1,0,0.2,0,0.2-0.1c0,0,0.3,0,0.5,0l1.1,0c1.5,0,3.1,0,4.6,0
						c6.1,0,12.3,0.1,18.6,0.1c12.4,0.1,25,0.2,37.2,0.4c9,0,5.1-0.9,16.4-0.5l-3.2,0.3c18.1-0.4,37.1,0,54.8-0.3
						c-1.1,0.1-1.1,0.2-2.8,0.2c1.9,0.1,5.3,0.1,8.3,0.1c1.5,0,2.9-0.1,3.9-0.1c1,0,1.7-0.1,1.7-0.1c2.8,0,0.6,0.2,2.3,0.3
						c3.8,0.1,9.4-0.3,11.4-0.1c0.3,0-1.1,0.1-1.7,0.1c2.5-0.1,11.4,0,9.1-0.2c6.7,0.1,12.7-0.1,18.1,0c3.5-0.3,11.4,0.1,12.5-0.3
						c-0.5,0.5,11.7,0.4,15.9,0.2c-1.4,0.1,3.7,0.1,2,0.3c4.8,0,9.2-0.1,8.4-0.3c8.9,0.5,17.8-0.4,22.8,0.3
						c14.3-0.2,27.5-0.4,40.3-0.5c-0.5,0.5-14.2,0-13.6,0.5c12.2-0.2,19.2-0.6,31.3-0.5c3.1,0.1-1.8,0.2-2.8,0.3
						c12.2-0.2,23.5,0,34.4-0.2c0,0-1.2,0.1-2.3,0.1c2.1,0,5,0.1,4.7-0.1l-2.1,0.1c-3.4-0.3,8.5-0.6,8.9-0.8
						c-3.6,0.6,10.7,0.1,4.9,0.9c1.4,0,3.2-0.1,2.8-0.3c2.1,0,2.7,0.1,0.6,0.3c7.6-0.1,4.9-0.3,11.9-0.3c0,0.1-1.4,0.1-2.1,0.3
						c3.5-0.2,7-0.4,12.9-0.3c-0.4,0.1,0.3,0.1-1.4,0.1c10.1,0,17.1-0.5,28.2-0.3c-3.3,0.4,3.8,0.1,4.3,0.5l5.9-0.1l-2.4-0.2
						c5.2,0,9.8-0.3,14.3-0.1l-3.9,0.2l9.7-0.1l-5.5-0.1c5.3-0.2-0.6-0.5,6.4-0.4c-1.4,0,5.2,0,7.9,0.2l0,0c2.6-0.1,5.2-0.2,9.1-0.2
						c1,0.1-0.8,0.4-0.2,0.5c2.5-0.3,12.2-0.1,15.4-0.4c-1.1,0.1-1.1,0.3-0.8,0.3l2.1-0.3c2.4,0.1,2.8,0.1,2.4,0.3
						c7.2,0-2.3-0.5,6.3-0.3c-0.7,0-0.4,0.1-1.8,0.1c8.6,0.1,16.7-0.2,24.6,0c2.3,0.4-6.9,0.1-4.3,0.4c11.4-0.1,23.7-0.4,34.7-0.4
						l-2.1,0c1.5-0.5,8.2,0.3,13.8,0c-1.4,0-1.8,0.3-1.4,0.2c7.6,0.1,15.5-0.1,27-0.3l-1.4,0.1c4.5,0.1,11.8,0.1,16.6,0.1
						c1.4-0.1,4.2-0.1,2.5-0.3c14.9,0.8,28.4-0.4,41.6,0.2c-1.6,0-3.8,0.1-2.5,0.1l11.2-0.1c-0.9-0.2-1.5-0.1-3.8-0.3
						c1.4-0.1,4.6-0.2,7.4-0.2c-5.1,0.2,0,0.4,2.2,0.5c-0.4-0.1,0.4-0.1,0.2-0.2c0.4,0,0.7,0,1,0.1c0.3,0,0.5,0.1,0.6,0.1
						c0.4,0.1,0.6,0.3,0.8,0.4c0.4,0.2,0.5,0.3,0.7,0.5c0.2,0.1,0.5,0.4,0.7,1.1c0.1,0.4,0.1,0.8,0.1,1.5c0,0.6,0,1.4-0.1,2.4
						l-0.1-0.4c0.1,3,0.2,5.8,0.2,9c-0.3,1.3-0.1-3.2-0.3-3.4c0,4.5,0.5,9,0.2,13.1c0-1.9-0.1-4.7-0.1-6.6c-0.3,4.5-0.2,5-0.3,8.3
						l0-0.3l-0.1,7.7l0.1-2c0.7,5.7,0.1,11.6,0.6,19.2c-0.4-7.4-0.2-1.2-0.6-1.8c-0.1,2-0.2,4.9-0.3,4.1c0.2,3.6-0.2,6,0.2,11.2
						c-0.1,0.2,0,3.9-0.3,3.1c0.1,4.7,0.2-1.1,0.3-0.7c0.3,7.3-0.4,17.1,0.1,27.5c0.2,9,0.5,10.7,0.7,19c-0.2,2.8-0.4-2.3-0.4-2.3
						c-0.1,4.5-0.1,8,0,12.3c-0.1-0.9-0.2,0-0.3,1.3c0,3.4,0.4,2.3,0.2,6.8c-0.1-0.8-0.3-1.8-0.4-3.4c0.1,4.1,0.2,8.1,0.4,12.3
						c-0.2,1.1-0.3-2.5-0.4-4c0.1,4.7,0.2,12.2,0.4,13.7l0.1-3c0,1.7-0.2,0.9-0.3-0.4c-0.2-4,0.1-5.8,0.2-6.1l0.1,3
						c0.6-3.1-0.1-12-0.1-18l0.4,2.5l-0.3-6.2c0.1-1.3,0.3-2.2,0.4,0.8c0.2-4.3-0.1-3.8,0.1-7.5c0-0.4,0.1-0.2,0.1,0.2l-0.1-4.2
						c0.1,0.8,0.3-0.7,0.2,1.9c0.2-7.6-0.3-12.2,0-15l0,0.6c-0.1-10.5-0.3-1-0.7-8.9l0.8-5.3l-0.3-1c0-1.1,0-3.2,0.2-2.8
						c-0.2-4-0.1,0.7-0.3-1.7c0.3-5.2-0.1-14.4,0.4-15.5c-0.2-1.9-0.2,5-0.3-0.6c0.5-1.6-0.1-6.4,0.2-11.2c0.3,1.5,0.1,6,0.4,1.2
						c-0.5-2.9,0.1-9.3,0-13.3c-0.4-0.2-0.2-8.7-0.3-15.5c0.1,0.4,0.2-12.7,0.3-18.9l0.1,0.2c-0.1-0.3-0.2-0.9-0.2-1.8
						c0-0.4-0.1-1-0.3-1.6c-0.2-0.5-0.7-1.1-1.2-1.4c-0.5-0.4-1.2-0.6-2-0.6c-0.6,0-1.3,0-1.9,0c-1.3,0-2.6,0-3.8,0
						c0.2-0.2,1-0.3,3.6-0.4l-4.4,0c-1,0.1-2.4,0.2-5.3,0.2l1.1-0.3c-5.9,0-11.9,0.3-19.4,0.1c-0.4,0.3,6,0.7-2,0.9
						c-0.3-0.1-0.6-0.4,1.5-0.4c-0.7,0-2.4,0.1-3.8,0.1l3.2-0.2c-3.5-0.1-1.8,0.2-4.6,0.2c0.1-0.2-2-0.1-1.6-0.3
						c0.7,0,2.4,0.1,3.5,0c-3.1,0-6.9-0.2-8.1-0.3c0.3,0.1,0,0.3-2.3,0.3c-5.9,0-2-0.2-5.5-0.3c-1.4,0.1-5.2,0-5.3,0.3
						c-1.7,0-2-0.1-2.7-0.2c-3,0.1-14.2,0-10.8,0.4l0.8,0c-0.1,0-0.3,0-0.5,0c0,0,0,0,0,0h0c-10,0.3-20.8-0.2-30.7,0l0-0.1
						c-5.9,0.1-13.2,0.1-17.4,0.3c-1.8,0-4.1-0.2-3.4-0.3c-4.5,0.1-5,0.2-11.6,0c4.5-0.2-1.6-0.2,4.7-0.1c-5.9-0.1-7.2-0.2-13.5,0
						c2.1-0.3-4.4-0.3-7.2-0.2l4.1,0.2c-3.1,0-5.9,0-8.7,0l1.5-0.3c-12-0.4-21.7,0.7-30.8,0c-3.2,0.2,6.5,0.2,3.7,0.4
						c-5.5,0-11.3-0.5-13-0.5c-7.6-0.2-7.1,0.5-15,0.4c1,0.1,2,0.4-4,0.5c-5.5,0-6.8-0.5-3.3-0.6c1.3,0,2,0,1.9,0.1
						c1.8,0,4.1-0.1,1.9-0.2l-0.7,0.1c-2.7-0.1-10.4-0.1-8.6-0.3c-4.2,0.1-1.8,0.2,1.3,0.3c-7.1-0.2-11.1,0-18.4-0.1
						c1.2,0.1,2.2,0.2,1.1,0.2c-10.7-0.1-4.7,0.2-12,0.3c-4.1-0.2,1.5-0.4-5.8-0.3c-4.5-0.1-0.9-0.3,0.8-0.4
						c-6.7,0.2-12.4-0.2-16.3-0.2l3.5-0.1c-2.1,0.1-3.8,0.1-5.6,0.1l2,0.2c-2.1,0-3.8,0-3.8-0.1c-2.1,0.2,1.6,0.4-2.6,0.6
						c-2.7-0.1-8.4,0.1-9.3-0.2c8.6,0.1-1-0.3,6.4-0.4c-1.4,0-3.1,0-5.2,0c-0.3,0,0.3-0.1,0.9-0.1c-8.3-0.3-3.8,0.4-12.4,0.3
						c1.1-0.2-2-0.3-3.4-0.3c3.5,0,1.7,0.3-1.5,0.4c-5.5-0.1-6,0.1-8.8,0.1l3.3,0.1c-1.1,0.2-3.9,0.2-7.7,0.2
						c-0.3-0.1,3.5-0.1,2.1-0.2c-4.3,0.3-9.6-0.3-15.5-0.1c-2.7-0.1-0.3-0.3-2.7-0.4c-6.6,0.2-7.2-0.2-14.2-0.1
						c2,0.2,2.4,0.2-2.6,0.4l11.5-0.2l-7.4,0.3c3.5,0,7.3-0.1,9.4-0.1c-3.5,0.2-3.2,0.1-1.5,0.3c-4.7-0.4-9.4,0.2-14.9,0l0.2-0.6
						c-8.2-0.3-14.6,0.3-25.3,0.2l3.4,0.1c-1.4,0.2-6.6,0-10.1,0.1c0.3-0.2-1.8-0.3-3.3-0.4c0.2,0.1-7.8,0-8.8,0.4l-4.8-0.3
						c-8.6-0.1-9.9,0.6-18.2,0.5c2.5-0.2-1.3-0.4,4.3-0.5c-2.8,0-5.3,0-5.3,0.1c-1.6-0.1-7.7,0.3-10.2,0.1c-1.2,0.1-1.6,0.3-4.7,0.3
						c-0.3,0,0-0.1,0-0.1c0,0.1-4.9,0.1-2.2,0.4c-8.5-0.6-23.9,0-31.3-0.5c-6.1,0-13.3,0.1-18.8,0.1c0.4-0.1,0-0.1,1.1-0.1
						c-7.6-0.2-4.7,0.6-13.3,0.4c-4.4-0.3,4.6-0.2,1.8-0.3c-1.2-0.6-10.4,0.1-16.2-0.3l1.4,0c-4.4-0.2-10.8,0.2-18.1,0.2
						c0,0,0.4-0.1,0-0.1c-5,0.3-14.3,0.4-21.3,0.5c2.2-0.3,3.2-0.1,1.8-0.4c-3.1,0,0.9,0.4-5.3,0.5c-2-0.1-6.5-0.3-7.1-0.5l5.9,0
						c-3-0.4-7.6,0-10.7,0l0.4-0.2c-9,0.1-9.1,0.4-18.8,0.4l1,0.1c-5.3,0.4-4.4-0.2-9.7,0.1l-1.6-0.4C51,34.6,42.3,34.9,36,34.9
						c3.6-0.3,10.9-0.4,15.4-0.6c-3.5,0-11.8,0-13.6,0.2c1.4,0,3.2-0.1,4.5-0.1c-4.3,0.3-9.8,0.5-16.7,0.5c0.6-0.4-3.9-0.4-9.2-0.5
						c-1.3,0-2.7,0-4,0c-0.3,0-0.7,0-1,0l-0.5,0c-0.2,0-0.5,0-0.7,0.1c-0.9,0.2-1.6,0.9-2,1.7c-0.1,0.2-0.1,0.4-0.2,0.6
						c0,0.1,0,0.2,0,0.3l0,0.2c0,0.3,0,0.6,0,0.9c0,0.6,0,1.1-0.1,1.6c0,1-0.1,1.9-0.2,2.5c0.3,12.2-0.1,24.2-0.1,38.5
						c0.6-5,0,4.2,0.6,3.3c0,3.3,0,4.6,0,4.9L8,99.1c-0.2,2.4-0.1-3.2-0.3-2.8c0,7.3-0.3,3-0.4,7.8c0.2-1,0.3,2.5,0.2,6.7l0.3-5.8
						c0.3,10.1-0.5,8.8-0.2,19l-0.2-3.2c0.1,5.2,0,19.4,0.5,24.5c-0.1,0.9-0.2,2.2-0.3-0.2c-0.1,12.5,0.5,27.9,0.2,37.6l-0.1-1
						c0,2.3,0.3,4.1,0.1,7c-0.1-0.2-0.1-0.9-0.2,0.1c0.1,1.2,0.3,6.2,0.2,9.3l-0.2-2.6c0,3.1,0,5.8,0,8.3c0,0.3,0,0.6,0,0.9
						c0,0.1,0,0.4,0,0.6c0,0.2,0.1,0.5,0.2,0.7c0.4,0.9,1.1,1.6,2,1.9c0.2,0.1,0.4,0.1,0.7,0.1l0.3,0l0.2,0c0.3,0,0.6,0,0.9,0
						c0.6,0,1.1,0,1.7-0.1c4.4-0.1,8.6-0.3,13.8-0.4c0,0.4,9.6,0.6,14.4,0.7l-0.2,0.1c14.2,0.1,24.2-0.4,37.4-0.5
						c8.2,0.5,27.7,0.2,40.9,0.5c-2-0.1,0.3-0.3,2.7-0.4c3.1,0.1,8.5-0.3,8,0.1l-1.1,0c2.3,0.4,8.7,0.3,13.6,0.3l0.8-0.5
						c13,0.8,33.9-0.3,41,0.4c3.1-0.1,7-0.1,10.1-0.3l-0.2,0.3c8.7,0.1,13,0.1,23.7,0l-2.2,0.2c6,0,7.6-0.8,13.2-0.8l1.7,0.4
						c10.5,0,21.2,0.4,31.6,0c-0.2,0.1-0.5,0.2-2.2,0.2c5,0,19.2,0.3,17.4-0.3c0.1,0.4,10.9,0,16.6-0.1l-0.9,0.3
						c4.8-0.4,5-0.5,11.7-0.6c1.6,0,1.4,0.2-0.7,0.2c5.3,0.1,4.1-0.3,10.5-0.1l-2.4,0.2c5.4,0,5-0.1,8-0.3
						c3.4-0.1,10.3,0.1,11.1,0.3c0.7-0.2,3.7-0.4,6.9-0.3c0.4,0.1-0.7,0.2-1.3,0.2c9.1,0.2,13.5-0.3,19.8-0.1
						c0.1,0.1,0.5,0.1,1.1,0.2c-7.2,0-13.1,0-12.5,0c0,0.3,5.8,0.3,1.2,0.7c4.7-0.2,12.7-0.6,18.4-0.5c0.3,0,0.5,0,0.8,0.1l-0.6,0
						c1.3,0,2.5,0,3.6,0c1.8,0,3,0.1,4.7,0.1c0.7,0.2,6.7,0.1,9.6,0.1c-0.2-0.3,3.6-0.2,0-0.5c0.5,0-0.6,0-2.5,0c-0.4,0-1,0-1.2,0
						c0.1,0,0.1,0,0.2,0c-1.9,0-4.4,0-7.2,0c2.3-0.1,4.7-0.3,7.9-0.1c1.5-0.2,3.1-0.4,4.1-0.5c4,0.4,11.7,0.6,12.8,0.8
						c8.9-0.2,21-0.1,26.6-0.6c2.5-0.1,2.9,0.2,3.9,0.2c-1.5,0.1-3.2,0-4,0.1c5.1-0.1,15-0.1,16.2-0.4c6.4,0.2-3.6,0.3,5.2,0.3
						l-1.2,0.1c17.2,0.6,28-0.9,47.2-0.2c-1.3,0-2-0.1-2.3-0.1c21.8,0.3,44.9-0.3,66.4,0.2c6.1,0.1,6.8-0.1,10.5-0.3l1.3,0.3
						l6.4-0.3c9-0.3,15.7,0.7,27.1,0.3l-1.5-0.2c4.1,0,13-0.1,12.3,0.1c0.4,0,1.3-0.2,3-0.1l0.1,0.2l10.1-0.3
						c7.8,0.1-1.2,0.6,10.2,0.7c4.2-0.1,12.1-0.5,10.5-0.6c-1.7,0-4.4-0.1-4.5-0.3l3.9-0.1c0.7-0.5,3.7-0.9-5.8-1.3l-6.6,0.3
						l-2.1-0.2l5.6,0c-3.2-0.2-5.2,0-7.4,0.1c-0.5-0.1-1.5-0.2-2.8-0.2l-6.5,0.4c-0.8-0.2,2.9-0.4-1.5-0.5c-3.1,0.2,2.9,0.4-2.1,0.5
						c-3.2-0.2-2.3-0.4-6-0.2c-0.5-0.1,0.3-0.2,1.7-0.2c-3.3,0.1-8.8,0.1-10.5,0.3c-3.3-0.3-11.2,0.1-10.9-0.4
						c-1,0.1-5.9,0.3-8.9,0.4c5.6-0.5-11.4,0-9.9-0.6c-4.1,0.5-14.9,0.2-22.2,0.5c0.4,0,1.2-0.1,1.9-0.1c-4.1,0-5.3-0.2-8-0.3
						c-0.5,0.4-6.9,0.5-10.4,0.7c-5-0.4,3.1-0.5,1.5-0.8c0.3,0.3-8.8,0.3-7,0.6c-3.9-0.2-3.3-0.1-5.3-0.4c-0.7,0.5-3.6,0.1-6.8,0.4
						c-5.6-0.2-1.4-0.5-7.6-0.3C504.5,205.4,509.9,205.2,509.9,205.2z M364.1,206.1L364.1,206.1c1.3,0,2.3,0,3,0
						C366.5,206.1,365.6,206.1,364.1,206.1z M351.9,206.1c1.5,0,3.3,0,5.3,0c0.4,0.1,0,0.2-1.3,0.2
						C356.6,206.2,353.7,206.2,351.9,206.1z M377.8,208c-1.9,0-2.6,0-2.9-0.1c0.9,0,2,0,3.4,0c0.1,0,0.2,0,0.2,0
						C378.4,208,378.2,208,377.8,208z"/>
					<path fill="#CBE072" d="M381.3,207.7c0.3,0,0.4,0,0.8,0c-0.4,0-0.8,0-1.2-0.1c-0.2,0-0.5,0.1-0.7,0.1
						C380.6,207.7,380.9,207.7,381.3,207.7z"/>
					<path fill="#CBE072" d="M577.3,34.8l-0.3,0c0.2,0,0.4,0,0.5,0C577.4,34.8,577.4,34.8,577.3,34.8z"/>
					<polygon fill="#CBE072" points="182.7,205.6 182.7,205.6 183.8,205.6 					"/>
					<path fill="#CBE072" d="M644.8,35.8c0.1,0,0.4,0.1,0.9,0.1C645.6,35.8,645.3,35.8,644.8,35.8z"/>
					<path fill="#CBE072" d="M648.3,61.5l-0.1,4.1C648.3,63.9,648.3,62.6,648.3,61.5z"/>
					<path fill="#CBE072" d="M648.2,83.9c0,0.3,0.1,0.4,0.1,0.4c0,0,0,0,0,0L648.2,83.9z"/>
					<path fill="#CBE072" d="M340,36.3c-0.3,0-0.6,0-0.9,0C337.1,36.4,338.5,36.4,340,36.3z"/>
					<path fill="#CBE072" d="M446.1,35.7c-1.1,0-2.2,0.1-3.4,0.1C444.5,35.8,446,35.8,446.1,35.7z"/>
					<path fill="#CBE072" d="M221.6,36.7C221.6,36.7,221.6,36.7,221.6,36.7c-0.2,0-0.5,0-0.7,0L221.6,36.7z"/>
					<path fill="#CBE072" d="M437.7,35.8c1.9,0.1,3.5,0,4.9,0C441.1,35.8,439.3,35.8,437.7,35.8z"/>
					<path fill="#CBE072" d="M648.1,181.1l0,1.1c0,0,0,0,0,0.1L648.1,181.1z"/>
					<path fill="#CBE072" d="M648.1,182.3l0,1.2C648.1,182.9,648.1,182.5,648.1,182.3z"/>
					<path fill="#CBE072" d="M648.2,186l-0.1-2.5C648.1,184.4,648.1,185.4,648.2,186z"/>
					<path fill="#CBE072" d="M648.2,151.4l-0.1-0.3C648.1,151.3,648.1,151.4,648.2,151.4z"/>
					<path fill="#CBE072" d="M648.2,142.4c0,2.2-0.2,5.4-0.2,8.4l0.1,0.3C647.9,149.7,648.3,144.4,648.2,142.4z"/>
					<path fill="#CBE072" d="M649.4,104.8l-0.1,7.6c0.1-1.3,0.3-3.1,0.3,0.4C649.9,103.2,649.4,114.7,649.4,104.8z"/>
					<path fill="#CBE072" d="M649.6,81.3c0.1,4.1,0.2,0,0.2,0.2C649.7,78.9,649.7,78.3,649.6,81.3z"/>
					<path fill="#CBE072" d="M524.5,34.6l0.4-0.3C521.7,34.4,524.8,34.4,524.5,34.6z"/>
					<polygon fill="#CBE072" points="492.1,35.9 495.1,36.1 496.6,35.9 					"/>
					<polygon fill="#CBE072" points="473,34.1 474.3,34.1 469.1,34.2 					"/>
					<path fill="#CBE072" d="M188.7,34.2l0.9,0.3C191.7,34.5,192.2,34.1,188.7,34.2z"/>
					<path fill="#CBE072" d="M65.9,34.5c-1.3-0.2-4.8-0.3-6.9-0.1C61.8,34.4,64.5,34.6,65.9,34.5z"/>
					<polygon fill="#CBE072" points="150.1,208.1 147.7,208.2 152.3,208.1 					"/>
				</g>
			</g>
		</g>
	</g>
</g>
<rect x="9.7" y="18.4" fill="none" width="101.9" height="15.9"/>
<text transform="matrix(1 0 0 1 29.9822 26.9609)" font-family="'ArialMT'" font-size="12">DESCRIBE</text>
</svg>
