<?xml version="1.0" encoding="utf-8"?>
<!-- Generator: Adobe Illustrator 18.1.1, SVG Export Plug-In . SVG Version: 6.00 Build 0)  -->
<svg version="1.1" id="Layer_1" xmlns="http://www.w3.org/2000/svg" xmlns:xlink="http://www.w3.org/1999/xlink" x="0px" y="0px"
	 width="652.9px" height="202.3px" viewBox="0 0 652.9 202.3" enable-background="new 0 0 652.9 202.3" xml:space="preserve">
<g>
	<path fill="#F7F6F5" d="M108.8,30.7H7.9c-0.3,0-0.5-0.2-0.5-0.5V5.5c0-0.3,0.2-0.5,0.5-0.5h100.9c0.3,0,0.5,0.2,0.5,0.5v24.8
		C109.3,30.5,109,30.7,108.8,30.7z"/>
	<g>
		<g>
			<g>
				<g>
					<path fill="#4F4F4F" d="M108.8,30.6c-0.1,0,0,0.1,0.2,0c0,0,0.1-0.2,0.1-0.2c0,0,0,0.1-0.1,0.2
						C108.9,30.6,108.8,30.6,108.8,30.6z"/>
					<path fill="#4F4F4F" d="M109.2,28.5c0-0.4-0.1-0.9-0.1-0.7c0,0.4,0,0.5,0.1,1c0,0.4,0,0.6,0,0.6c0,0.1,0,0.6,0,0.8
						C109.2,29.7,109.2,29.1,109.2,28.5C109.2,28.4,109.2,28.5,109.2,28.5z"/>
					<path fill="#4F4F4F" d="M96.5,5l0.2,0C96.6,5,96.6,5,96.5,5z"/>
					<path fill="#4F4F4F" d="M74.1,5c0.2,0,0.2,0,0.2,0C74.2,5,74.1,5,74.1,5z"/>
					<path fill="#4F4F4F" d="M70.3,4.9c0.1,0,0.2,0,0.2,0C70.5,4.9,70.4,4.9,70.3,4.9z"/>
					<path fill="#4F4F4F" d="M96.5,5l-0.6,0C95.8,5,96.2,5,96.5,5z"/>
					<path fill="#4F4F4F" d="M109.1,23.6c0,0.1,0,0.2,0,0.3L109.1,23.6L109.1,23.6z"/>
					<path fill="#4F4F4F" d="M106.3,5l0.2,0c0,0,0.1,0,0.2,0L106.3,5z"/>
					<path fill="#4F4F4F" d="M109.4,9.9c0-0.2,0-0.2-0.1-0.3C109.3,9.7,109.3,9.8,109.4,9.9C109.4,10,109.4,9.9,109.4,9.9z"/>
					<path fill="#4F4F4F" d="M109.3,21.9l0,0.2C109.3,22,109.3,21.9,109.3,21.9z"/>
					<path fill="#4F4F4F" d="M100.9,4.9C100.9,4.9,100.9,4.9,100.9,4.9C100.8,4.9,100.9,4.9,100.9,4.9z"/>
					<path fill="#4F4F4F" d="M100,30.5C100,30.5,100,30.5,100,30.5C100.1,30.5,100.1,30.5,100,30.5z"/>
					<path fill="#4F4F4F" d="M108.8,30.8l-0.1,0c0,0,0,0,0,0L108.8,30.8z"/>
					<path fill="#4F4F4F" d="M63.4,4.9C63.4,4.9,63.4,4.9,63.4,4.9C63.6,4.8,63.5,4.8,63.4,4.9z"/>
					<path fill="#4F4F4F" d="M7.3,13.4C7.3,12.7,7.3,14.6,7.3,13.4C7.4,13.6,7.3,12.5,7.3,13.4z"/>
					<path fill="#4F4F4F" d="M109.1,23.4l0-0.3C109.1,23.2,109.1,23.3,109.1,23.4z"/>
					<path fill="#4F4F4F" d="M7.4,13.5L7.4,13.5l0-0.1C7.4,13.4,7.4,13.5,7.4,13.5z"/>
					<path fill="#4F4F4F" d="M47.3,4.9c0,0,0.1,0,0.2,0C47.4,4.9,47.4,4.9,47.3,4.9z"/>
					<path fill="#4F4F4F" d="M59.3,4.9l-0.3,0C59.1,4.9,59.2,4.9,59.3,4.9z"/>
					<path fill="#4F4F4F" d="M41.1,4.9c-0.2,0-0.2,0-0.4,0c0,0,0,0,0.1,0C40.8,4.9,40.9,4.9,41.1,4.9z"/>
					<path fill="#4F4F4F" d="M34.6,4.9c0,0,0.1,0,0.1,0c0.1,0,0.1,0,0.2,0L34.6,4.9z"/>
					<path fill="#4F4F4F" d="M80.4,30.6c0.1,0,0.2,0,0.3,0C80.6,30.6,81.5,30.6,80.4,30.6z"/>
					<path fill="#4F4F4F" d="M109.1,23.6c0,0,0-0.1,0-0.2C109.1,23.4,109.1,23.5,109.1,23.6C109.1,23.6,109.1,23.6,109.1,23.6z"/>
					<path fill="#4F4F4F" d="M40.8,5.3l-1,0C40.1,5.3,40.4,5.3,40.8,5.3z"/>
					<path fill="#4F4F4F" d="M33.9,30.6l0.2,0C34.1,30.6,34,30.6,33.9,30.6z"/>
					<path fill="#4F4F4F" d="M36.7,5.3c-0.2,0-0.4,0-0.6,0c0,0-0.1,0-0.1,0L36.7,5.3z"/>
					<path fill="#4F4F4F" d="M80.7,30.6L80.7,30.6L80.7,30.6z"/>
					<path fill="#4F4F4F" d="M87.4,30.5c-1,0-0.5,0.1-0.7,0.1c-1.2,0-0.5,0-0.9-0.1c-0.7,0-1.3,0.1-1.8,0.1c0,0-0.1,0,0,0
						c-0.8,0-2.3,0-3.2,0.1c-0.1,0-0.1,0-0.1,0c0.1,0,0.2,0.1,0.1,0.1c-0.4,0-0.8,0-1,0c0.3,0,0.3,0,0.4,0l-0.5,0
						c-0.4-0.1,0.6,0,0.6-0.1c-0.9,0-1.9,0.1-2.6,0c-0.1-0.1,1.6,0,0.7-0.1l1.1,0c-0.8-0.1,0.6,0-0.1-0.1c-1.4,0-1.6,0-3,0
						c-0.3,0,0.1,0-0.2,0.1c-2,0.1-1.6-0.1-3-0.1c-0.4,0-0.5,0.1-1.6,0.1l0.4-0.1c-1.4,0-0.8,0.1-2.2,0c0.3,0,1.1,0,0.9,0
						c-0.9,0-0.7,0-1.4,0l-0.1-0.1c-1.4,0-3,0-4.6,0.1c0.1,0,0.4,0,0,0c-2,0-4.3,0-6.2,0l-0.7,0c-0.2,0-0.3,0-0.1,0
						c-0.8,0,0,0-0.4,0c-0.4,0-0.6,0-0.3,0c-1.3,0-3.8,0.1-5.2,0l0.3,0c-1.1,0-1.2,0.1-2.3,0.1l0.2,0c-2.4,0-5,0-6.8,0
						c-0.3,0.1-2.4,0-2.5,0.1c-1.4,0-1-0.1-2.9-0.1c-0.5,0-0.8,0.1-1.4,0.1l0,0l-0.9,0l-0.5-0.1l-0.6,0c0.2,0,0.5,0,0.5,0
						c-0.5,0-1,0-1.5,0c-0.5,0-0.8,0-0.8,0l-2.2,0c0,0,0.4,0,0.7,0c-1.2,0-0.2,0-1.3,0c0.1,0-0.1,0-0.1,0c-0.5,0-1.8,0-2.7,0l0.2,0
						c-1.6,0-3.4,0-5.3,0c0.7,0,0.5,0.1,0,0.1l-0.2-0.1c-0.3,0,0.6,0-0.2,0.1c-0.7,0-0.5-0.1-0.1-0.1l-0.8,0c0,0,0.1,0,0.2,0
						c-0.3,0-1.4-0.1-1.9,0l0,0c-1.8,0-2.7,0-4.1,0c0,0-0.6,0-1.1,0.1c-1.1,0-2.3,0-3.6,0c-0.9,0-0.3,0-0.7,0.1
						c-0.1,0-1.4,0-0.7-0.1c-0.2,0-0.4,0-0.5,0c-0.1,0-0.2,0-0.2-0.1c-0.1-0.1,0-0.5-0.1-0.7c0-0.6,0-1.2,0-2.2c0,0.2,0,0.5,0,0.3
						c0-0.4,0-0.8,0-0.8l0,0.1c-0.1-2.2,0.1-5.2,0-7l0,0.1l0-1.9c0-0.9,0,0.5,0.1-0.1c-0.1-2,0-3.2,0-4.8c0.1-1.3,0-4.5,0.1-6.2
						l0,0.1c0-0.4,0-0.5,0-0.9c0,0,0,0.5,0,0.2l0-0.7l0-0.4c0-0.1,0-0.2,0-0.3c0-0.1,0.1-0.1,0.1-0.2c0.1,0,0.1,0,0.3,0l0.7,0
						c1,0,1.9,0,2.9,0c2,0,3.9,0,5.8,0.1c1.4,0,0.8-0.1,2.6-0.1l-0.5,0.1c2.8-0.1,5.8,0,8.6,0c-0.2,0-0.2,0-0.4,0c0.3,0,0.8,0,1.3,0
						c0.2,0,0.5,0,0.6,0c0.2,0,0.3,0,0.3,0c0.4,0,0.1,0,0.4,0c0.6,0,1.5,0,1.8,0c0.1,0-0.2,0-0.3,0c0.4,0,1.8,0,1.4,0c1,0,2,0,2.8,0
						c0.5,0,1.8,0,2,0c-0.1,0.1,1.8,0.1,2.5,0c-0.2,0,0.6,0,0.3,0.1c0.8,0,1.4,0,1.3,0c1.4,0.1,2.8-0.1,3.6,0c2.2,0,4.3-0.1,6.3-0.1
						c-0.1,0.1-2.2,0-2.1,0.1c1.9,0,3-0.1,4.9-0.1c0.5,0-0.3,0-0.4,0c1.9,0,3.7,0,5.4,0c0,0-0.2,0-0.4,0c0.3,0,0.8,0,0.7,0l-0.3,0
						c-0.5,0,1.3-0.1,1.4-0.1c-0.6,0.1,1.7,0,0.8,0.1c0.2,0,0.5,0,0.4,0c0.3,0,0.4,0,0.1,0c1.2,0,0.8-0.1,1.9,0c0,0-0.2,0-0.3,0
						c0.6,0,1.1-0.1,2,0c-0.1,0,0.1,0-0.2,0c1.6,0,2.7-0.1,4.4-0.1c-0.5,0.1,0.6,0,0.7,0.1l0.9,0l-0.4,0c0.8,0,1.5,0,2.2,0l-0.6,0
						l1.5,0l-0.9,0c0.8,0-0.1-0.1,1-0.1c-0.2,0,0.8,0,1.2,0l0,0c0.4,0,0.8,0,1.4,0c0.2,0-0.1,0.1,0,0.1c0.4,0,1.9,0,2.4-0.1
						c-0.2,0-0.2,0-0.1,0l0.3,0c0.4,0,0.4,0,0.4,0c1.1,0-0.4-0.1,1,0c-0.1,0-0.1,0-0.3,0c1.4,0,2.6,0,3.9,0c0.4,0.1-1.1,0-0.7,0.1
						c1.8,0,3.7-0.1,5.5-0.1l-0.3,0c0.2-0.1,1.3,0,2.2,0c-0.2,0-0.3,0-0.2,0c1.2,0,2.4,0,4.2,0l-0.2,0c0.7,0,1.8,0,2.6,0
						c0.2,0,0.7,0,0.4,0c2.3,0.1,4.5-0.1,6.5,0c-0.2,0-0.6,0-0.4,0l1.8,0c-0.1,0-0.2,0-0.6,0c0.2,0,0.7,0,1.2,0
						c-0.8,0,0,0.1,0.3,0.1c-0.1,0,0.1,0,0,0c0.9,0.1,0.2-0.1,1.4,0l-0.1,0c0.2,0,0.4,0.1,0.5,0.3c0,0.2,0,0.5,0,0.7
						c0,0.2,0-0.5-0.1-0.5c0,0.7,0.1,1.4,0,2.1c0-0.3,0-0.7,0-1c0,0.7,0,0.8,0,1.3l0-0.1l0,1.2l0-0.3c0.1,0.9,0,1.8,0.1,3
						c-0.1-1.2,0-0.2-0.1-0.3c0,0.3,0,0.8,0,0.6c0,0.6,0,0.9,0,1.8c0,0,0,0.6,0,0.5c0,0.7,0-0.2,0-0.1c0.1,1.1-0.1,2.7,0,4.3
						c0,1.4,0.1,1.7,0.1,3c0,0.4-0.1-0.4-0.1-0.4c0,0.7,0,1.3,0,1.9c0-0.1,0,0,0,0.2c0,0.5,0.1,0.4,0,1.1c0-0.1,0-0.3-0.1-0.5
						c0,0.6,0,1.3,0.1,1.9c0,0.2,0-0.4-0.1-0.6c0,0.7,0,1.9,0.1,2.1l0-0.5c0,0.3,0,0.1,0-0.1c0-0.6,0-0.9,0-1l0,0.5
						c0.1-0.5,0-1.9,0-2.8l0.1,0.4l-0.1-1c0-0.2,0.1-0.3,0.1,0.1c0-0.7,0-0.6,0-1.2c0-0.1,0,0,0,0l0-0.7c0,0.1,0-0.1,0,0.3
						c0-1.2,0-1.9,0-2.4l0,0.1c0-1.6,0-0.2-0.1-1.4l0.1-0.8l0-0.2c0-0.2,0-0.5,0-0.4c0-0.6,0,0.1-0.1-0.3c0-0.8,0-2.3,0.1-2.4
						c0-0.3,0,0.8-0.1-0.1c0.1-0.2,0-1,0-1.8c0,0.2,0,0.9,0.1,0.2c-0.1-0.5,0-1.5,0-2.1c-0.1,0,0-1.4,0-2.4c0,0,0-0.5,0-1.1
						c0-0.3,0-0.6,0-1c0-0.2-0.2-0.4-0.3-0.4c-0.2-0.1-0.3,0-0.4,0l0,0c-0.2,0.1-1.2,0-1.9,0.1c0,0,0.2,0,0.6-0.1l-0.7,0
						c-0.2,0-0.4,0-0.8,0l0.2,0c-0.9,0-1.9,0-3.1,0c-0.1,0,0.9,0.1-0.3,0.1c0,0-0.1-0.1,0.2-0.1c-0.1,0-0.4,0-0.6,0l0.5,0
						c-0.5,0-0.3,0-0.7,0c0,0-0.3,0-0.3,0c0.1,0,0.4,0,0.5,0c-0.5,0-1.1,0-1.3,0c0,0,0,0-0.4,0c-0.9,0-0.3,0-0.9-0.1
						c-0.2,0-0.8,0-0.8,0c-0.3,0-0.3,0-0.4,0C98,5,96.2,5,96.8,5l0.1,0c0,0,0,0-0.1,0h0h0c-1.6,0-3.3,0-4.8,0l0,0
						c-0.9,0-2.1,0-2.7,0c-0.3,0-0.6,0-0.5,0c-0.7,0-0.8,0-1.8,0c0.7,0-0.2,0,0.7,0c-0.9,0-1.1,0-2.1,0c0.3,0-0.7,0-1.1,0L85,5
						c-0.5,0-0.9,0-1.4,0l0.2-0.1c-1.9-0.1-3.4,0.1-4.8,0c-0.5,0,1,0,0.6,0.1c-0.9,0-1.8-0.1-2-0.1c-1.2,0-1.1,0.1-2.4,0.1
						C75.4,5,75.5,5,74.6,5c-0.9,0-1.1-0.1-0.5-0.1c0.2,0,0.3,0,0.3,0c0.3,0,0.6,0,0.3,0l-0.1,0c-0.4,0-1.6,0-1.3,0
						c-0.7,0-0.3,0,0.2,0c-1.1,0-1.7,0-2.9,0c0.2,0,0.4,0,0.2,0c-1.7,0-0.7,0-1.9,0c-0.6,0,0.2-0.1-0.9,0c-0.7,0-0.1,0,0.1-0.1
						c-1,0-2,0-2.6,0l0.6,0c-0.3,0-0.6,0-0.9,0l0.3,0c-0.3,0-0.6,0-0.6,0c-0.3,0,0.3,0.1-0.4,0.1c-0.4,0-1.3,0-1.5,0
						c1.4,0-0.1,0,1-0.1c-0.2,0-0.5,0-0.8,0c0,0,0,0,0.1,0c-1.3,0-0.6,0.1-1.9,0.1c0.2,0-0.3-0.1-0.5,0c0.5,0,0.3,0-0.2,0.1
						c-0.9,0-0.9,0-1.4,0l0.5,0c-0.2,0-0.6,0-1.2,0c-0.1,0,0.5,0,0.3,0c-0.7,0-1.5,0-2.4,0c-0.4,0,0-0.1-0.4-0.1c-1,0-1.1,0-2.2,0
						c0.3,0,0.4,0-0.4,0.1l1.8,0L54.1,5c0.5,0,1.1,0,1.5,0C55,5,55,5,55.3,5c-0.7-0.1-1.5,0-2.3,0l0-0.1c-1.3,0-2.3,0-4,0l0.5,0
						c-0.2,0-1,0-1.6,0c0.1,0-0.3,0-0.5-0.1c0,0-1.2,0-1.4,0.1l-0.7,0C44,4.9,43.8,5,42.5,5c0.4,0-0.2-0.1,0.7-0.1
						c-0.4,0-0.8,0-0.8,0c-0.3,0-1.2,0-1.6,0c-0.2,0-0.2,0-0.7,0c-0.1,0,0,0,0,0c0,0-0.8,0-0.3,0.1c-1.3-0.1-3.7,0-4.9-0.1
						c-1,0-2.1,0-3,0c0.1,0,0,0,0.2,0c-1.2,0-0.7,0.1-2.1,0.1c-0.7,0,0.7,0,0.3,0c-0.2-0.1-1.6,0-2.5,0l0.2,0c-0.7,0-1.7,0-2.8,0
						c0,0,0.1,0,0,0C24.2,5,22.7,5,21.6,5C22,5,22.1,5,21.9,5C21.4,5,22.1,5,21.1,5c-0.3,0-1,0-1.1-0.1l0.9,0c-0.5-0.1-1.2,0-1.7,0
						l0.1,0c-1.4,0-1.4,0.1-3,0.1l0.2,0c-0.8,0.1-0.7,0-1.5,0l-0.3-0.1c-0.6,0-1.9,0-2.9,0.1c0.6,0,1.7-0.1,2.4-0.1
						c-0.5,0-1.8,0-2.1,0c0.2,0,0.5,0,0.7,0C12.1,5,11.2,5,10.2,5C10.2,5,9.5,4.9,8.7,4.9c-0.2,0-0.4,0-0.6,0c-0.2,0-0.5,0-0.6,0.3
						C7.4,5.3,7.3,5.5,7.3,5.6c0,0.1,0,0.2,0,0.3c0,0.2,0,0.3,0,0.4c0,1.9,0,3.8,0,6c0.1-0.8,0,0.7,0.1,0.5c0,0.5,0,0.7,0,0.8
						l-0.1,1.6c0,0.4,0-0.5,0-0.4c0,1.1,0,0.5-0.1,1.2c0-0.2,0,0.4,0,1l0-0.9c0.1,1.6-0.1,1.4,0,3l0-0.5c0,0.8,0,3,0.1,3.8
						c0,0.1,0,0.3,0,0c0,2,0.1,4.4,0,5.9l0-0.1c0,0.4,0,0.6,0,1.1c0,0,0-0.1,0,0c0,0.1,0,0.3,0,0.6c0,0.1,0,0.3,0,0.4
						c0,0.2,0.1,0.4,0.2,0.5c0,0-0.1-0.1-0.2-0.2c-0.1-0.1,0-0.3,0-0.3c0,0.3,0.2,0.7,0.5,0.7c0.3,0,0.4,0,0.7,0c0.4,0,0.7,0,1.1,0
						c0.7,0,1.4,0,2.2-0.1c0,0.1,1.5,0.1,2.3,0.1l0,0c2.2,0,3.8-0.1,5.9-0.1c1.3,0.1,4.4,0,6.4,0.1c-0.3,0,0.1-0.1,0.4-0.1
						c0.5,0,1.3,0,1.3,0l-0.2,0c0.4,0.1,1.4,0,2.1,0l0.1-0.1c2,0.1,5.3,0,6.4,0.1c0.5,0,1.1,0,1.6,0l0,0c1.4,0,2,0,3.7,0l-0.3,0
						c0.9,0,1.2-0.1,2.1-0.1l0.3,0.1c1.7,0,3.3,0.1,5,0c0,0-0.1,0-0.3,0c0.8,0,3,0,2.7,0c0,0.1,1.7,0,2.6,0l-0.1,0
						c0.8-0.1,0.8-0.1,1.8-0.1c0.2,0,0.2,0-0.1,0c0.8,0,0.6,0,1.7,0l-0.4,0c0.9,0,0.8,0,1.3,0c0.5,0,1.6,0,1.7,0
						c0.1,0,0.6-0.1,1.1,0c0.1,0-0.1,0-0.2,0c1.4,0,2.1,0,3.1,0c0,0,0.1,0,0.2,0c-1.1,0-1.9,0-2,0c0,0,0.9,0,0.2,0.1
						c0.7,0,2-0.1,2.9-0.1l0.1,0l-0.1,0c0.2,0,0.4,0,0.6,0c0.3,0,0.5,0,0.7,0c0.1,0,1.1,0,1.5,0c0,0,0.6,0,0-0.1c0.1,0-0.1,0-0.4,0
						c-0.1,0-0.1,0-0.2,0l0,0c-0.3,0-0.7,0-1.1,0c0.4,0,0.7,0,1.2,0c0.2,0,0.5-0.1,0.6-0.1c0.6,0.1,1.8,0.1,2,0.1
						c1.4,0,3.3,0,4.2-0.1c0.4,0,0.5,0,0.6,0c-0.2,0-0.5,0-0.6,0c0.8,0,2.4,0,2.5-0.1c1,0-0.6,0.1,0.8,0l-0.2,0
						c2.7,0.1,4.4-0.1,7.4,0c-0.2,0-0.3,0-0.4,0c3.4,0.1,7.1,0,10.4,0c1,0,1.1,0,1.6,0l0.2,0l1-0.1c1.4,0,2.5,0.1,4.3,0l-0.2,0
						c0.6,0,2,0,1.9,0c0.1,0,0.2,0,0.5,0l0,0l1.6,0c1.2,0-0.2,0.1,1.6,0.1c0.7,0,1.9-0.1,1.6-0.1c-0.3,0-0.7,0-0.7,0l0.6,0
						c0.1-0.1,0.6-0.1-0.9-0.2l-1,0l-0.3,0l0.9,0c-0.5,0-0.8,0-1.2,0c-0.1,0-0.2,0-0.4,0l-1,0.1c-0.1,0,0.5-0.1-0.2-0.1
						c-0.5,0,0.5,0.1-0.3,0.1c-0.5,0-0.4-0.1-0.9,0c-0.1,0,0,0,0.3,0c-0.5,0-1.4,0-1.6,0c-0.5,0-1.8,0-1.7-0.1
						c-0.2,0-0.9,0.1-1.4,0.1c0.9-0.1-1.8,0-1.6-0.1c-0.6,0.1-2.3,0-3.5,0.1c0.1,0,0.2,0,0.3,0c-0.6,0-0.8,0-1.2,0
						c-0.1,0.1-1.1,0.1-1.6,0.1c-0.8-0.1,0.5-0.1,0.2-0.1c0,0-1.4,0-1.1,0.1c-0.6,0-0.5,0-0.8-0.1c-0.1,0.1-0.6,0-1.1,0.1
						c-0.9,0-0.2-0.1-1.2,0C86.6,30.5,87.4,30.5,87.4,30.5z M64.6,30.6L64.6,30.6c0.2,0,0.4,0,0.5,0C64.9,30.6,64.8,30.6,64.6,30.6z
						 M62.6,30.6c0.2,0,0.5,0,0.8,0c0.1,0,0,0-0.2,0C63.4,30.6,62.9,30.6,62.6,30.6z M66.7,30.9c-0.3,0-0.4,0-0.4,0
						C66.4,30.9,66.6,30.9,66.7,30.9c0.1,0,0.1,0,0.1,0C66.8,30.9,66.8,30.9,66.7,30.9z"/>
					<path fill="#4F4F4F" d="M67.2,30.9c0,0,0.1,0,0.1,0C67.3,30.9,67.2,30.9,67.2,30.9c-0.1,0-0.1,0-0.2,0
						C67.1,30.9,67.2,30.9,67.2,30.9z"/>
					<path fill="#4F4F4F" d="M96.8,5L96.8,5C96.7,5,96.8,5,96.8,5C96.8,5,96.8,5,96.8,5z"/>
					<polygon fill="#4F4F4F" points="36.1,30.5 36.1,30.6 36.2,30.5 					"/>
					<path fill="#4F4F4F" d="M107.3,5.1c0,0,0.1,0,0.1,0C107.5,5.2,107.4,5.2,107.3,5.1z"/>
					<path fill="#4F4F4F" d="M109.2,7.9l0,0.6C109.1,8.3,109.2,8.1,109.2,7.9z"/>
					<path fill="#4F4F4F" d="M109.1,11.4C109.1,11.5,109.2,11.5,109.1,11.4L109.1,11.4L109.1,11.4z"/>
					<path fill="#4F4F4F" d="M59.5,5.2c0,0-0.1,0-0.1,0C59,5.2,59.3,5.2,59.5,5.2z"/>
					<path fill="#4F4F4F" d="M76.1,5.1c-0.2,0-0.4,0-0.5,0C75.9,5.2,76.1,5.2,76.1,5.1z"/>
					<polygon fill="#4F4F4F" points="40.9,5.3 40.9,5.3 40.8,5.3 					"/>
					<path fill="#4F4F4F" d="M74.8,5.1c0.3,0,0.5,0,0.8,0C75.4,5.1,75.1,5.1,74.8,5.1z"/>
					<path fill="#4F4F4F" d="M109.1,26.7l0,0.2c0,0,0,0,0,0L109.1,26.7z"/>
					<path fill="#4F4F4F" d="M109.1,26.9l0,0.2C109.1,27,109.1,26.9,109.1,26.9z"/>
					<path fill="#4F4F4F" d="M109.1,27.5l0-0.4C109.1,27.2,109.1,27.4,109.1,27.5z"/>
					<path fill="#4F4F4F" d="M109.1,22L109.1,22C109.1,22,109.1,22,109.1,22z"/>
					<path fill="#4F4F4F" d="M109.1,20.6c0,0.3,0,0.8,0,1.3l0,0C109.1,21.8,109.2,20.9,109.1,20.6z"/>
					<path fill="#4F4F4F" d="M109.3,14.7l0,1.2c0-0.2,0-0.5,0,0.1C109.4,14.5,109.3,16.3,109.3,14.7z"/>
					<path fill="#4F4F4F" d="M109.4,11C109.4,11.7,109.4,11,109.4,11C109.4,10.7,109.4,10.6,109.4,11z"/>
					<path fill="#4F4F4F" d="M88.5,5L88.5,5C88,4.9,88.5,4.9,88.5,5z"/>
					<polygon fill="#4F4F4F" points="83.4,5.2 83.9,5.2 84.1,5.2 					"/>
					<polygon fill="#4F4F4F" points="80.4,4.9 80.6,4.9 79.8,4.9 					"/>
					<path fill="#4F4F4F" d="M35.7,4.9l0.1,0C36.2,4.9,36.3,4.9,35.7,4.9z"/>
					<path fill="#4F4F4F" d="M16.5,5c-0.2,0-0.8,0-1.1,0C15.8,4.9,16.3,4.9,16.5,5z"/>
					<polygon fill="#4F4F4F" points="31,30.9 30.6,30.9 31.3,30.9 					"/>
				</g>
			</g>
		</g>
	</g>
</g>
<g>
	<path fill="#FEF8F1" d="M644.5,196.2H10.4c-1.6,0-2.9-1.3-2.9-2.9V33c0-1.6,1.3-2.9,2.9-2.9h634.1c1.6,0,2.9,1.3,2.9,2.9v160.2
		C647.5,194.9,646.2,196.2,644.5,196.2z"/>
	<g>
		<g>
			<g>
				<g>
					<path fill="#EDA24F" d="M644.5,195.5c-0.4,0-0.5,0.1-0.2,0.2c0.2,0,0.4,0.1,0.7,0c0.3,0,0.7-0.2,1.1-0.5c0,0,0.2-0.3,0.4-0.6
						c0.1-0.3,0.2-0.6,0.2-0.6s0,0.2-0.2,0.4c-0.1,0.2-0.3,0.5-0.6,0.7c-0.3,0.2-0.6,0.3-0.9,0.4
						C644.7,195.5,644.5,195.5,644.5,195.5z"/>
					<path fill="#EDA24F" d="M647.4,182.2c-0.2-2.7-0.4-5.9-0.7-4.1c0.3,2.7,0.2,3.4,0.6,6.3c0,2.3-0.1,4.1-0.2,3.7
						c0.1,0.8-0.1,3.6,0.1,4.9c0.3-3,0.3-6.9,0.1-10.9C647.3,181.1,647.4,182,647.4,182.2z"/>
					<path fill="#EDA24F" d="M570.4,29.6l1.5,0C571.5,29.6,571,29.6,570.4,29.6z"/>
					<path fill="#EDA24F" d="M429.2,29.4c1.1,0,1.5,0,1.6-0.1C429.8,29.4,428.9,29.4,429.2,29.4z"/>
					<path fill="#EDA24F" d="M405.1,29.1c0.5,0,1,0,1.4,0C405.9,29.1,405.4,29,405.1,29.1z"/>
					<path fill="#EDA24F" d="M570.4,29.6l-3.8-0.1C566.4,29.6,568.6,29.6,570.4,29.6z"/>
					<path fill="#EDA24F" d="M646.6,150.7c0,0.8,0,1.4,0.1,2c0-0.6,0-1.3,0-1.9C646.7,150.8,646.7,150.8,646.6,150.7z"/>
					<path fill="#EDA24F" d="M632.6,29.3l1.1,0c0.3,0,0.7-0.1,1-0.1L632.6,29.3z"/>
					<path fill="#EDA24F" d="M648.2,64.3c0-1.1-0.3-1.5-0.4-1.9c0.1,0.6,0.2,1.4,0.2,2.4C648.1,64.8,648.2,64.6,648.2,64.3z"/>
					<path fill="#EDA24F" d="M647.8,140l0,1.3C647.8,141,647.8,140.4,647.8,140z"/>
					<path fill="#EDA24F" d="M598.5,29.3c-0.1,0-0.3-0.1-0.4-0.1C598,29.2,598.2,29.3,598.5,29.3z"/>
					<path fill="#EDA24F" d="M589.2,194.9C589.1,194.9,589.2,194.9,589.2,194.9C589.4,194.9,589.5,194.9,589.2,194.9z"/>
					<path fill="#EDA24F" d="M644.5,196.2l-0.8,0c-0.1,0.1-0.2,0.1-0.2,0.2L644.5,196.2z"/>
					<path fill="#EDA24F" d="M360.9,28.7c0.1,0,0.1,0,0.2,0C362.3,28.7,361.6,28.7,360.9,28.7z"/>
					<path fill="#EDA24F" d="M6.3,82.9c0.2-4.6,0.3,7.5,0.6,0.6C6.8,84.1,6.5,77.2,6.3,82.9z"/>
					<path fill="#EDA24F" d="M646.7,149.5c0-0.6,0-1.3,0-2C646.7,148.4,646.7,149,646.7,149.5z"/>
					<path fill="#EDA24F" d="M6.9,83.5L6.9,83.5l0-0.7C6.9,83.1,6.9,83.2,6.9,83.5z"/>
					<path fill="#EDA24F" d="M259.3,28.9c0.2,0,0.6,0.1,1,0.1C260.3,29,260,28.9,259.3,28.9z"/>
					<path fill="#EDA24F" d="M335,29.3l-1.9,0C333.9,29.3,334.5,29.3,335,29.3z"/>
					<path fill="#EDA24F" d="M219.9,29.3c-1,0-1.4-0.1-2.8,0c0.1,0,0.3,0,0.4,0C218.1,29.2,218.8,29.2,219.9,29.3z"/>
					<path fill="#EDA24F" d="M179,29.3c0.2,0,0.5,0,0.8,0.1c0.4,0,0.9,0,1.3,0L179,29.3z"/>
					<path fill="#EDA24F" d="M464.8,195c0.9,0.1,1.5,0.2,1.9,0.2C466,195.1,472,195,464.8,195z"/>
					<path fill="#EDA24F" d="M646.8,150.7c-0.1-0.2-0.1-0.6-0.1-1.2c0,0.5,0,0.9,0,1.4C646.7,151,646.8,151,646.8,150.7z"/>
					<path fill="#EDA24F" d="M218.3,31.4l-6.5,0C213.6,31.4,216,31.4,218.3,31.4z"/>
					<path fill="#EDA24F" d="M171.1,195.1l1.5,0C172,195,171.5,195,171.1,195.1z"/>
					<path fill="#EDA24F" d="M192.5,31.4c-1.2-0.1-2.4-0.2-3.7-0.2c-0.3,0-0.6,0-0.8,0.1L192.5,31.4z"/>
					<path fill="#EDA24F" d="M466.7,195.3C466.6,195.3,466.6,195.3,466.7,195.3C466.6,195.3,466.6,195.3,466.7,195.3z"/>
					<path fill="#EDA24F" d="M509.5,194.6c-6.2,0-2.9,0.4-4.2,0.6c-7.4,0.1-3.4-0.3-5.9-0.5c-4.6,0.1-8.2,0.4-11.6,0.4
						c-0.3-0.1-0.9-0.1-0.1-0.2c-4.9,0.3-14.5,0-20.2,0.4c-0.4,0-0.6-0.1-0.7-0.1c0.9,0.2,1.1,0.4,0.9,0.5c-2.8,0-5.2,0.2-6.2,0
						c1.7,0,1.8-0.1,2.6-0.2l-2.9,0.1c-2.6-0.3,4-0.1,4-0.4c-5.7,0.1-12.3,0.4-16.6,0.3c-0.9-0.3,10.2-0.1,4.4-0.4l6.7,0.1
						c-5.1-0.5,4.1,0-0.6-0.5c-8.9-0.1-9.9,0.2-18.7,0.1c-2,0.2,0.7,0.3-1.3,0.5c-12.6,0.3-9.9-0.8-19.1-0.4
						c-2.4,0.2-3.3,0.6-9.9,0.4l2.2-0.4c-8.6,0-4.9,0.5-13.9,0.3c1.6-0.1,6.7-0.1,5.4-0.2c-5.8-0.3-4.1,0.2-8.6,0.2l-0.9-0.3
						c-9.1,0.1-19.2,0.2-29.3,0.4c0.6-0.1,2.3-0.2-0.1-0.3c-12.8,0.2-27.2,0-39.5-0.2l-4.7,0.3c-1.1,0-2-0.1-0.8-0.2
						c-4.8-0.1-0.2,0.2-2.6,0.3c-2.7,0-3.6-0.2-1.9-0.3c-8.5,0.2-24.1,0.5-33,0.2l1.7-0.1c-6.9-0.1-7.8,0.6-14.3,0.3l1.2-0.1
						c-15.1-0.1-31.7,0.1-43.2-0.3c-2.2,0.4-14.9-0.2-15.9,0.4c-8.6-0.3-6.1-0.4-18.3-0.6c-3.2,0-4.8,0.4-8.8,0.4l-0.1-0.3l-5.4,0.3
						l-2.9-0.4l-3.8,0.1c1.5,0,3.2,0.1,2.9,0.2c-2.9,0.1-6.5,0-9.4-0.1c-2.9-0.1-5-0.2-5.1-0.3l-13.9,0.3c0.3-0.1,2.6-0.2,4.5-0.2
						c-7.4,0.3-1.3-0.3-8.1,0c0.9,0.1-0.5,0.2-0.6,0.2c-3.4-0.2-11.1-0.2-16.8-0.1l1.1-0.2c-10.3-0.1-21.7,0.1-33.2,0.1
						c4.1,0.1,3.2,0.5-0.2,0.5l-1.4-0.3c-2.2,0.2,3.5,0.1-1,0.4c-4.3,0-2.9-0.4-0.4-0.5l-5.2,0.1c-0.3-0.1,0.9-0.1,1.2-0.3
						c-2.2,0.2-9-0.3-12.1,0l-0.3-0.1c-11.5,0.1-16.8,0.1-26.2,0.1c-0.2,0.3-3.9,0.2-6.7,0.4C35,195.2,27.3,195,19,195
						c-5.8,0.1-1.7,0.2-4.3,0.4c-0.2-0.1-2.4-0.2-4-0.2c-0.2,0-0.3,0-0.4,0c-0.1,0-0.2,0-0.3-0.1c-0.2-0.1-0.3-0.1-0.3-0.2
						c-0.1-0.1,0.1,0.1,0.7,0.1c-0.7,0-1.3-0.6-1.5-1.2c-0.1-0.1-0.1-0.3-0.1-0.5l0-0.1l0-0.2l0-0.4c0-0.5,0-1,0-1.4
						c0-1.9,0-3.5,0-5.3c0-3.5-0.1-7.4-0.2-13.7c-0.1,1.4-0.1,2.9-0.2,2.1c0-2.3,0.1-5.2,0.2-4.9l0,0.6c-0.4-14.2,0.7-32.7,0.2-44
						l0,0.6L8.4,115c0-5.4,0.2,3.2,0.3-0.8c-0.4-12.6,0.1-20-0.2-30.4c0.7-8.1-0.1-28.6,0.4-39.4l-0.2,0.6c-0.2-2.8,0.1-3.4,0.1-5.5
						c-0.1,0.3-0.2,3-0.3,1.3c0-1.5,0-3,0-4.5l0-2.3l0-1.1c0-0.3,0-0.5,0.1-0.7c0.2-0.4,0.5-0.8,0.9-1c0.2-0.1,0.4-0.2,0.7-0.2
						c0.3,0,0.7,0,1.1,0c1.5,0,3,0,4.6,0c6.1,0,12.3,0.1,18.4,0.1c12.4,0.1,24.8,0.2,37,0.3c8.9,0,5.1-0.9,16.3-0.5l-3.2,0.3
						c18-0.4,36.8,0,54.4-0.3c-1.1,0.1-1.1,0.2-2.8,0.2c1.9,0.1,5.3,0.1,8.3,0.1c1.5,0,2.9-0.1,3.9-0.1c1,0,1.6-0.1,1.7-0.1
						c2.7,0,0.6,0.2,2.3,0.3c3.7,0.1,9.4-0.3,11.4-0.1c0.3,0-1,0.1-1.7,0.1c2.4-0.1,11.3,0,9-0.2c6.6,0.1,12.7-0.1,17.9,0
						c3.4-0.3,11.3,0.1,12.4-0.3c-0.5,0.4,11.6,0.4,15.8,0.1c-1.4,0.1,3.6,0.1,2,0.3c4.8,0,9.1-0.1,8.3-0.3
						c8.8,0.5,17.7-0.4,22.6,0.3c14.2-0.2,27.3-0.4,40-0.5c-0.5,0.4-14.1,0-13.5,0.5c12.1-0.2,19.1-0.6,31.1-0.5
						c3.1,0.1-1.8,0.2-2.8,0.3c12.1-0.2,23.4,0,34.1-0.2c0,0-1.2,0.1-2.3,0.1c2.1,0,4.9,0.1,4.7-0.1l-2.1,0.1
						c-3.4-0.3,8.4-0.6,8.8-0.8c-3.6,0.6,10.6,0.1,4.9,0.9c1.4,0,3.1-0.1,2.8-0.3c2.1,0,2.7,0.1,0.6,0.3c7.6-0.1,4.9-0.3,11.8-0.3
						c0,0.1-1.4,0.1-2.1,0.2c3.5-0.2,7-0.4,12.8-0.3c-0.3,0.1,0.3,0.1-1.4,0.1c10,0,17-0.5,28-0.3c-3.2,0.4,3.7,0.1,4.3,0.5l5.9-0.1
						l-2.4-0.2c5.2,0,9.7-0.3,14.2-0.1l-3.8,0.2l9.7-0.1l-5.5-0.1c5.2-0.2-0.6-0.5,6.3-0.4c-1.4,0,5.2,0,7.8,0.2l0,0
						c2.6-0.1,5.2-0.2,9-0.1c1,0.1-0.8,0.4-0.2,0.5c2.5-0.3,12.1-0.1,15.3-0.4c-1.1,0.1-1.1,0.3-0.8,0.3l2.1-0.2
						c2.4,0.1,2.7,0.1,2.4,0.3c7.2,0-2.3-0.5,6.2-0.3c-0.7,0-0.3,0.1-1.7,0.1c8.6,0.1,16.6-0.2,24.4,0c2.3,0.4-6.9,0.1-4.2,0.4
						c11.4-0.1,23.5-0.4,34.5-0.4l-2,0c1.5-0.5,8.2,0.3,13.7,0c-1.4,0-1.8,0.3-1.4,0.2c7.5,0.1,15.4-0.1,26.8-0.3l-1.4,0.1
						c4.4,0.1,11.7,0.1,16.5,0.1c1.4-0.1,4.2-0.1,2.5-0.3c14.8,0.8,28.2-0.4,41.3,0.2c-1.6,0-3.7,0.1-2.5,0.1l11.2-0.1
						c-0.9-0.2-1.5-0.1-3.8-0.3c1.4-0.1,4.6-0.2,7.3-0.2c-5,0.2,0,0.4,2.2,0.5c-0.4-0.1,0.4-0.1,0.2-0.2c2.9,0.2,3.2,0.1,3.7,0
						c0.3-0.1,0.6-0.1,1.3-0.2c0.4,0,0.9,0,1.4,0.2c0.6,0.3,1.2,0.8,1.5,1.7c0,0-0.3-0.3-0.3-0.3c0.3,0.6,0.3,1.3,0.3,2
						c0,0.7,0,1.4,0.1,2.2c0,1.5,0.1,2.9,0.1,4.6c-0.3,1.3-0.1-3.2-0.3-3.4c0,4.5,0.5,8.9,0.2,13c0-1.9-0.1-4.7-0.1-6.6
						c-0.3,4.4-0.2,5-0.3,8.3l0-0.3l-0.1,7.6l0.1-1.9c0.7,5.6,0.1,11.5,0.6,19.1c-0.4-7.4-0.2-1.2-0.5-1.8c-0.1,1.9-0.2,4.9-0.3,4.1
						c0.2,3.6-0.2,6,0.2,11.1c-0.1,0.2,0,3.8-0.2,3c0.1,4.7,0.2-1.1,0.3-0.7c0.3,7.2-0.4,16.9,0.1,27.3c0.2,8.9,0.5,10.6,0.7,18.9
						c-0.2,2.8-0.3-2.3-0.3-2.3c-0.1,4.5-0.1,7.9,0,12.2c-0.1-0.9-0.2,0-0.3,1.3c0,3.4,0.3,2.3,0.2,6.8c-0.1-0.8-0.3-1.8-0.4-3.4
						c0.1,4,0.2,8,0.4,12.2c-0.2,1.1-0.3-2.5-0.4-4c0.1,4.7,0.2,12.1,0.4,13.6l0.1-3c0,1.7-0.2,0.9-0.3-0.4c-0.2-4,0.1-5.8,0.2-6
						l0.1,3c0.6-3-0.1-11.9-0.1-17.9l0.4,2.5l-0.3-6.1c0.1-1.3,0.3-2.2,0.4,0.8c0.2-4.3-0.1-3.8,0.1-7.5c0-0.4,0.1-0.2,0.1,0.2
						l-0.1-4.2c0.1,0.8,0.3-0.7,0.2,1.9c0.2-7.5-0.3-12.1,0-14.9l0,0.6c-0.1-10.4-0.3-1-0.7-8.8l0.7-5.3l-0.3-1c0-1.1,0-3.2,0.2-2.8
						c-0.2-4-0.1,0.7-0.3-1.6c0.3-5.2-0.1-14.3,0.3-15.4c-0.2-1.9-0.2,4.9-0.3-0.6c0.5-1.6-0.1-6.4,0.1-11.1
						c0.3,1.5,0.1,5.9,0.4,1.2c-0.4-2.9,0.1-9.2,0-13.2c-0.4-0.2-0.1-8.7-0.3-15.4c0.1,0.2,0.1-2.9,0.2-6.9c0-2,0.1-4.2,0.1-6.3
						c0-1,0-2.1,0-3c0-0.5-0.1-1.1-0.3-1.6c-0.2-0.5-0.5-0.9-0.8-1.2l0.2,0.1c-0.3-0.2-0.9-0.7-1.9-0.9c-0.2,0-0.5-0.1-0.8,0
						c-0.2,0-0.5,0-0.7,0c-0.5,0-1.1,0-1.7,0c-2.3,0-5.1,0.1-7.4,0.1c0.2-0.2,1-0.3,3.6-0.4l-4.4,0c-1,0.1-2.4,0.2-5.3,0.2l1.1-0.3
						c-5.8,0-11.8,0.3-19.3,0.1c-0.4,0.3,6,0.7-2,0.9c-0.3-0.1-0.6-0.4,1.5-0.4c-0.7,0-2.4,0.1-3.8,0.1l3.2-0.2
						c-3.4-0.1-1.8,0.2-4.5,0.2c0.1-0.2-2-0.1-1.6-0.3c0.7,0,2.4,0.1,3.4,0c-3.1,0-6.8-0.1-8.1-0.3c0.3,0.1,0,0.3-2.3,0.3
						c-5.8,0-2-0.2-5.4-0.3c-1.4,0.1-5.1,0-5.2,0.3c-1.7,0-2-0.1-2.7-0.2c-3,0.1-14.1,0-10.7,0.3l0.8,0c-0.1,0-0.3,0-0.5,0
						c0,0,0,0,0,0h0c-9.9,0.3-20.6-0.2-30.4,0l0-0.1c-5.9,0.1-13.1,0.1-17.3,0.3c-1.7,0-4.1-0.2-3.4-0.3c-4.5,0.1-5,0.2-11.5,0
						c4.5-0.2-1.6-0.1,4.6-0.1c-5.8-0.1-7.2-0.2-13.4,0c2.1-0.2-4.4-0.3-7.2-0.2l4.1,0.2c-3.1,0-5.8,0-8.6,0l1.5-0.3
						c-11.9-0.4-21.5,0.7-30.6,0c-3.2,0.2,6.5,0.2,3.7,0.4c-5.5,0-11.2-0.5-12.9-0.5c-7.5-0.2-7,0.5-14.9,0.4c1,0.1,2,0.4-3.9,0.5
						c-5.5,0-6.8-0.5-3.3-0.6c1.3,0,2,0,1.9,0.1c1.8,0,4.1-0.1,1.9-0.2l-0.7,0.1c-2.7-0.1-10.3-0.1-8.5-0.3
						c-4.2,0.1-1.8,0.2,1.3,0.3c-7.1-0.2-11,0-18.3-0.1c1.2,0.1,2.2,0.2,1.1,0.2c-10.6-0.1-4.7,0.2-11.9,0.3
						c-4.1-0.2,1.5-0.4-5.8-0.3c-4.4-0.1-0.9-0.3,0.8-0.4c-6.6,0.2-12.4-0.1-16.1-0.2l3.5-0.1c-2.1,0.1-3.8,0.1-5.5,0.1l2,0.2
						c-2,0-3.8,0-3.7-0.1c-2.1,0.2,1.6,0.4-2.6,0.6c-2.7-0.1-8.3,0.1-9.2-0.2c8.6,0.1-0.9-0.3,6.3-0.4c-1.4,0-3.1,0-5.2,0
						c-0.3,0,0.3-0.1,0.8-0.1c-8.2-0.3-3.8,0.3-12.3,0.3c1.1-0.2-2-0.3-3.4-0.3c3.4,0,1.6,0.3-1.5,0.4c-5.5-0.1-5.9,0.1-8.8,0.1
						l3.3,0.1c-1.1,0.2-3.8,0.2-7.6,0.2c-0.3-0.1,3.5-0.1,2.1-0.2c-4.2,0.3-9.5-0.3-15.4-0.1c-2.7-0.1-0.3-0.3-2.7-0.4
						c-6.6,0.2-7.1-0.2-14.1-0.1c2,0.2,2.3,0.2-2.5,0.4l11.4-0.2l-7.3,0.3c3.4,0,7.3-0.1,9.3-0.1c-3.5,0.2-3.1,0.1-1.5,0.3
						c-4.7-0.4-9.3,0.2-14.8,0l0.2-0.6c-8.2-0.3-14.5,0.3-25.2,0.2l3.4,0.1c-1.4,0.2-6.6,0-10,0.1c0.3-0.2-1.8-0.3-3.3-0.4
						c0.2,0.1-7.8,0-8.7,0.4l-4.7-0.3c-8.6-0.1-9.8,0.6-18,0.5c2.5-0.2-1.3-0.3,4.3-0.5c-2.8,0-5.2,0-5.3,0.1
						c-1.6-0.1-7.6,0.3-10.2,0.1c-1.2,0.1-1.5,0.3-4.6,0.3c-0.3,0,0-0.1,0-0.1c0,0.1-4.8,0.1-2.1,0.3c-8.5-0.6-23.7,0-31.1-0.5
						c-6,0-13.2,0.1-18.7,0.1c0.3-0.1,0-0.1,1-0.1c-7.5-0.2-4.6,0.6-13.2,0.4c-4.4-0.3,4.5-0.2,1.8-0.3c-1.2-0.6-10.3,0.1-16.1-0.3
						l1.4,0c-4.4-0.2-10.7,0.2-17.9,0.2c0,0,0.3-0.1,0-0.1c-4.9,0.3-14.2,0.4-21.2,0.5c2.2-0.2,3.1-0.1,1.8-0.4
						c-3.1,0,0.9,0.4-5.3,0.5c-2-0.1-6.5-0.3-7.1-0.5l5.8,0c-3-0.4-7.6,0-10.6,0l0.4-0.2c-9,0-9.1,0.4-18.7,0.4l1,0.1
						c-5.3,0.4-4.4-0.2-9.7,0.1l-1.6-0.4c-3.5,0.1-12.2,0.4-18.4,0.4c3.5-0.3,10.8-0.4,15.3-0.6c-3.4,0-11.7,0-13.5,0.2
						c1.4,0,3.1-0.1,4.5-0.1c-4.2,0.3-9.8,0.5-16.6,0.4c0.6-0.4-3.9-0.4-9.1-0.4c-1.3,0-2.7,0-4,0c-0.3,0-0.7,0-1,0
						c-0.4,0-0.8,0.1-1.2,0.2c-0.8,0.3-1.4,0.8-1.9,1.5c-0.4,0.6-0.6,1.5-0.6,2.1c0,0.6,0,1.1-0.1,1.6c0,1-0.1,1.8-0.2,2.5
						c0.3,12.1-0.1,24.1-0.1,38.2c0.6-5,0,4.1,0.6,3.3c0,3.3,0,4.5,0,4.8l-0.4,10c-0.2,2.4-0.1-3.1-0.3-2.8c0,7.2-0.3,3-0.4,7.8
						c0.2-1,0.3,2.5,0.2,6.6l0.3-5.8c0.3,10.1-0.5,8.7-0.2,18.9L6,114.9c0.1,5.2,0,19.2,0.5,24.3c-0.1,0.9-0.2,2.1-0.3-0.2
						c-0.1,12.4,0.5,27.7,0.2,37.4l-0.1-0.9c0,2.3,0.3,4,0.1,6.9c-0.1-0.2-0.1-0.9-0.2,0.1c0.1,1.2,0.3,6.2,0.2,9.2l-0.2-2.6
						c0,0.8,0,1.5,0,2.2c0,0.4,0,0.7,0,1.1l0,0.5l0,0.3l0,0.4c0.1,2,1.7,3.5,3.5,3.8c0.2,0,0.4,0,0.7,0.1l0.5,0c0.3,0,0.6,0,0.9,0
						c0.6,0,1.2,0,1.8,0c1.2,0,2.3-0.1,3.4-0.1c4.4-0.1,8.6-0.3,13.7-0.4c0,0.4,9.5,0.6,14.3,0.6l-0.2,0.1c14.1,0.1,24-0.4,37.1-0.5
						c8.1,0.5,27.5,0.2,40.6,0.5c-2-0.1,0.3-0.3,2.6-0.4c3.1,0.1,8.5-0.3,8,0.1l-1.1,0c2.3,0.4,8.6,0.3,13.5,0.3l0.8-0.5
						c12.9,0.8,33.7-0.3,40.7,0.4c3.1-0.1,6.9-0.1,10-0.3l-0.2,0.3c8.6,0.1,12.9,0.1,23.5,0l-2.2,0.2c6,0,7.6-0.8,13.1-0.8l1.7,0.4
						c10.5,0,21,0.4,31.4,0c-0.2,0.1-0.5,0.2-2.2,0.2c4.9,0,19,0.3,17.3-0.3c0.1,0.4,10.8,0,16.4-0.1l-0.9,0.3
						c4.8-0.3,4.9-0.4,11.6-0.5c1.6,0,1.4,0.2-0.7,0.1c5.3,0.1,4.1-0.3,10.5-0.1l-2.4,0.2c5.4,0,5-0.1,8-0.3
						c3.4-0.1,10.3,0.1,11.1,0.3c0.7-0.2,3.7-0.4,6.9-0.3c0.4,0.1-0.7,0.2-1.3,0.2c9,0.2,13.5-0.3,19.7,0c0.1,0.1,0.5,0.1,1.1,0.2
						c-7.2,0-13,0-12.4,0c0,0.3,5.8,0.3,1.2,0.6c4.7-0.2,12.6-0.6,18.3-0.5c0.3,0,0.5,0,0.7,0.1l-0.6,0c1.3,0,2.5,0,3.6,0
						c1.8,0,3,0.1,4.7,0.1c0.7,0.2,6.7,0.1,9.6,0.1c-0.2-0.3,3.6-0.2,0-0.5c0.5,0-0.5,0-2.5,0c-0.4,0-0.9,0-1.2,0c0.1,0,0.1,0,0.2,0
						c-1.9,0-4.4,0-7.2,0c2.3-0.1,4.7-0.3,7.9-0.1c1.5-0.2,3.1-0.4,4-0.4c4,0.4,11.6,0.6,12.7,0.8c8.8-0.2,20.8-0.1,26.4-0.6
						c2.5-0.1,2.9,0.1,3.8,0.2c-1.5,0.1-3.2,0-4,0.1c5-0.1,14.9-0.1,16.1-0.4c6.3,0.2-3.6,0.3,5.1,0.3l-1.2,0.1
						c17.1,0.6,27.8-0.9,46.8-0.2c-1.3,0-2-0.1-2.2-0.1c21.6,0.3,44.6-0.3,65.9,0.2c6.1,0.1,6.7-0.1,10.4-0.3l1.3,0.3l6.3-0.3
						c9-0.3,15.6,0.7,26.9,0.3l-1.5-0.2c4.1,0,12.9-0.1,12.3,0.1c0.4,0,1.3-0.2,2.9-0.1l0.1,0.2l10-0.3c7.8,0.1-1.2,0.6,10.1,0.6
						c4.2-0.1,12-0.5,10.4-0.6c-1.7,0-4.3-0.1-4.5-0.3l3.9-0.1c0.7-0.5,3.7-0.9-5.8-1.2l-6.6,0.3l-2.1-0.2l5.6,0
						c-3.2-0.2-5.1,0-7.4,0.1c-0.5-0.1-1.5-0.2-2.8-0.2l-6.5,0.4c-0.8-0.2,2.9-0.4-1.4-0.5c-3,0.2,2.9,0.4-2.1,0.5
						c-3.2-0.2-2.2-0.4-5.9-0.2c-0.5-0.1,0.3-0.2,1.7-0.2c-3.3,0.1-8.7,0.1-10.4,0.3c-3.3-0.3-11.1,0.1-10.8-0.4
						c-1,0.1-5.8,0.3-8.8,0.4c5.5-0.5-11.3,0-9.9-0.6c-4.1,0.5-14.8,0.2-22.1,0.5c0.4,0,1.2-0.1,1.8-0.1c-4.1,0-5.3-0.2-7.9-0.3
						c-0.5,0.4-6.9,0.5-10.3,0.7c-5-0.4,3-0.5,1.5-0.8c0.3,0.3-8.7,0.3-7,0.6c-3.8-0.2-3.3-0.1-5.3-0.4c-0.7,0.5-3.6,0.1-6.7,0.4
						c-5.5-0.2-1.4-0.5-7.5-0.3C504.1,194.8,509.5,194.6,509.5,194.6z M364.8,195.4L364.8,195.4c1.2,0,2.3,0,3,0
						C367.1,195.4,366.3,195.4,364.8,195.4z M352.6,195.4c1.5,0,3.3,0,5.3,0c0.4,0.1,0,0.2-1.3,0.2
						C357.3,195.6,354.4,195.5,352.6,195.4z M378.3,197.4c-1.9,0-2.6,0-2.8-0.1c0.9,0,2,0,3.4,0c0.1,0,0.2,0,0.2,0
						C378.9,197.3,378.7,197.3,378.3,197.4z"/>
					<path fill="#EDA24F" d="M381.8,197c0.3,0,0.4,0,0.8,0c-0.4,0-0.8,0-1.1-0.1c-0.2,0-0.5,0.1-0.7,0.1
						C381.1,197,381.5,197,381.8,197z"/>
					<path fill="#EDA24F" d="M572.1,29.7l-0.3,0c0.2,0,0.4,0,0.5,0C572.2,29.7,572.2,29.7,572.1,29.7z"/>
					<polygon fill="#EDA24F" points="184.7,194.9 184.7,195 185.7,194.9 					"/>
					<path fill="#EDA24F" d="M639.1,30.6c0.1,0,0.4,0,0.9,0.1C639.9,30.7,639.6,30.6,639.1,30.6z"/>
					<path fill="#EDA24F" d="M646.9,51.9l-0.1,4.1C646.8,54.2,646.8,52.9,646.9,51.9z"/>
					<path fill="#EDA24F" d="M646.7,74.1c0,0.3,0.1,0.4,0.1,0.4c0,0,0,0,0,0L646.7,74.1z"/>
					<path fill="#EDA24F" d="M336.5,31.1c-0.3,0-0.6,0-0.9,0C333.7,31.2,335,31.2,336.5,31.1z"/>
					<path fill="#EDA24F" d="M441.8,30.5c-1.1,0-2.2,0.1-3.4,0.1C440.3,30.6,441.8,30.6,441.8,30.5z"/>
					<path fill="#EDA24F" d="M219,31.5C219,31.5,219,31.5,219,31.5c-0.2,0-0.5,0-0.7,0L219,31.5z"/>
					<path fill="#EDA24F" d="M433.5,30.6c1.9,0.1,3.4,0,4.9,0C436.9,30.6,435.1,30.6,433.5,30.6z"/>
					<path fill="#EDA24F" d="M646.6,170.6l0,1.1c0,0,0,0,0,0.1L646.6,170.6z"/>
					<path fill="#EDA24F" d="M646.6,171.8l0,1.2C646.7,172.4,646.7,171.9,646.6,171.8z"/>
					<path fill="#EDA24F" d="M646.7,175.5l-0.1-2.5C646.7,173.8,646.7,174.9,646.7,175.5z"/>
					<path fill="#EDA24F" d="M646.7,141.1l-0.1-0.3C646.7,141,646.7,141.1,646.7,141.1z"/>
					<path fill="#EDA24F" d="M646.7,132.2c0,2.1-0.2,5.4-0.2,8.3l0.1,0.3C646.5,139.4,646.9,134.2,646.7,132.2z"/>
					<path fill="#EDA24F" d="M647.9,94.8l-0.1,7.5c0.1-1.3,0.2-3,0.3,0.4C648.5,93.2,647.9,104.6,647.9,94.8z"/>
					<path fill="#EDA24F" d="M648.1,71.6c0,4,0.2,0,0.2,0.2C648.2,69.2,648.2,68.6,648.1,71.6z"/>
					<path fill="#EDA24F" d="M519.6,29.4l0.4-0.3C516.9,29.2,520,29.3,519.6,29.4z"/>
					<polygon fill="#EDA24F" points="487.5,30.7 490.5,30.9 492,30.7 					"/>
					<polygon fill="#EDA24F" points="468.5,28.9 469.9,28.9 464.7,29 					"/>
					<path fill="#EDA24F" d="M186.3,29l0.9,0.3C189.3,29.3,189.8,28.9,186.3,29z"/>
					<path fill="#EDA24F" d="M64.5,29.3c-1.3-0.2-4.8-0.3-6.9-0.1C60.3,29.3,63.1,29.4,64.5,29.3z"/>
					<polygon fill="#EDA24F" points="152.3,197.4 149.9,197.5 154.5,197.4 					"/>
				</g>
			</g>
		</g>
	</g>
</g>
<rect x="8.2" y="14.2" fill="none" width="100.9" height="15.9"/>
<text transform="matrix(1 0 0 1 12.6958 22.7741)" font-family="'ArialMT'" font-size="12">INTRODUCTION</text>
</svg>
