<?xml version="1.0" encoding="utf-8"?>
<!-- Generator: Adobe Illustrator 18.1.0, SVG Export Plug-In . SVG Version: 6.00 Build 0)  -->
<!DOCTYPE svg PUBLIC "-//W3C//DTD SVG 1.1//EN" "http://www.w3.org/Graphics/SVG/1.1/DTD/svg11.dtd">
<svg version="1.1" id="Layer_1" xmlns="http://www.w3.org/2000/svg" xmlns:xlink="http://www.w3.org/1999/xlink" x="0px" y="0px"
	 viewBox="0 0 960 560" enable-background="new 0 0 960 560" xml:space="preserve">
<path fill="#0046B5" d="M753.3,138.5c5.4,16.5,9.7,30.2,13.7,41.3s5.4,20.6,6.9,28.8s2.8,19.2,4,30.2c1.4,12.3,1.4,26.2,1.4,41.3
	l111.2,63.2c-8.3,48.1-23.4,92-48.1,134.5l-126.3-23.4c-30.2,42.5-67.3,72.7-109.9,93.4l4,129.1c-22,8.3-43.9,13.7-68.7,17.9
	s-48.1,6.9-71.5,8.3l-43.6-122.4c-48.1-4-94.8-20.6-137.3-48.1l-108.5,67.3c-37.1-30.2-67.3-65.9-92-108.5l83.8-98.9
	c-11.1-23.4-17.9-45.3-22-68.7c-4-20.6-5.4-45.3-4-72.7l-114-60.4c8.3-45.3,23.4-90.6,48.1-134.5l126.3,22
	c31.6-39.9,68.7-71.5,109.9-94.8l-2.8-127.7c22-8.3,45.3-13.7,70.1-19.2c22-2.8,45.3-5.4,68.7-5.4l43.9,120.8
	c48.1,5.4,93.4,20.6,135.9,48.1l109.9-67.3c38.5,33,68.7,68.7,92,108.5L753.3,138.5z"/>
</svg>
