<?xml version="1.0" encoding="utf-8"?>
<!-- Generator: Adobe Illustrator 18.1.0, SVG Export Plug-In . SVG Version: 6.00 Build 0)  -->
<!DOCTYPE svg PUBLIC "-//W3C//DTD SVG 1.1//EN" "http://www.w3.org/Graphics/SVG/1.1/DTD/svg11.dtd">
<svg version="1.1" id="Layer_1" xmlns="http://www.w3.org/2000/svg" xmlns:xlink="http://www.w3.org/1999/xlink" x="0px" y="0px"
	 viewBox="-448 249.5 62.5 63.5" enable-background="new -448 249.5 62.5 63.5" xml:space="preserve">
<path fill="#0046B5" d="M-395.5,271.9c0.4,1.2,0.7,2.2,1,3c0.3,0.8,0.4,1.5,0.5,2.1s0.2,1.4,0.3,2.2c0.1,0.9,0.1,1.9,0.1,3l8.1,4.6
	c-0.6,3.5-1.7,6.7-3.5,9.8l-9.2-1.7c-2.2,3.1-4.9,5.3-8,6.8l0.3,9.4c-1.6,0.6-3.2,1-5,1.3c-1.8,0.3-3.5,0.5-5.2,0.6l-3.2-8.9
	c-3.5-0.3-6.9-1.5-10-3.5l-7.9,4.9c-2.7-2.2-4.9-4.8-6.7-7.9l6.1-7.2c-0.8-1.7-1.3-3.3-1.6-5c-0.3-1.5-0.4-3.3-0.3-5.3l-8.3-4.4
	c0.6-3.3,1.7-6.6,3.5-9.8l9.2,1.6c2.3-2.9,5-5.2,8-6.9l-0.2-9.3c1.6-0.6,3.3-1,5.1-1.4c1.6-0.2,3.3-0.4,5-0.4l3.2,8.8
	c3.5,0.4,6.8,1.5,9.9,3.5l8-4.9c2.8,2.4,5,5,6.7,7.9L-395.5,271.9z"/>
</svg>
