<?xml version="1.0" encoding="utf-8"?>
<!-- Generator: Adobe Illustrator 18.1.0, SVG Export Plug-In . SVG Version: 6.00 Build 0)  -->
<!DOCTYPE svg PUBLIC "-//W3C//DTD SVG 1.1//EN" "http://www.w3.org/Graphics/SVG/1.1/DTD/svg11.dtd">
<svg version="1.1" id="Layer_1" xmlns="http://www.w3.org/2000/svg" xmlns:xlink="http://www.w3.org/1999/xlink" x="0px" y="0px"
	 viewBox="-432 233.9 94.1 94.1" enable-background="new -432 233.9 94.1 94.1" xml:space="preserve">
<path fill="#EC416C" d="M-351,273.3l0.2,1.3c0.6,3.2,0.8,6.3,0.6,9.2l12.3,6.2c-0.8,4-2.1,8.1-4,12.2l-13.6-2.6
	c-1.7,2.7-3.9,5.3-6.8,7.9l4.2,13.2c-2,1.2-3.9,2.3-5.8,3.3c-1.9,0.9-3.7,1.7-5.6,2.3l-7.8-11.4l-1.3,0.2c-3.1,0.6-6.2,0.7-9.2,0.5
	L-394,328c-4-0.8-8.1-2.2-12.2-4l2.6-13.6c-2.9-1.9-5.6-4.1-7.9-6.8l-13.1,4.2c-1.2-1.8-2.3-3.7-3.2-5.6c-0.9-1.9-1.7-3.9-2.4-5.8
	l11.2-7.9l-0.2-1.2c-0.6-3.1-0.7-6.1-0.5-9.2l-12.3-6.2c0.7-4.1,2.1-8.2,4-12.2l13.6,2.6c1.9-2.9,4.2-5.6,6.9-7.9l-4.4-13.1
	c1.8-1.2,3.7-2.3,5.6-3.2c1.9-0.9,3.9-1.7,5.8-2.4l7.9,11.3l1.2-0.2c3.1-0.6,6.1-0.7,9.2-0.5l6.2-12.4c4,0.8,8.1,2.1,12.2,4
	l-2.6,13.6c2.7,1.7,5.3,3.9,7.9,6.8l13.2-4.2c1.2,2,2.3,3.9,3.3,5.8c0.9,1.9,1.7,3.7,2.3,5.6L-351,273.3z"/>
</svg>
