<?xml version="1.0" encoding="utf-8"?>
<!-- Generator: Adobe Illustrator 18.1.0, SVG Export Plug-In . SVG Version: 6.00 Build 0)  -->
<!DOCTYPE svg PUBLIC "-//W3C//DTD SVG 1.1//EN" "http://www.w3.org/Graphics/SVG/1.1/DTD/svg11.dtd">
<svg version="1.1" id="Layer_1" xmlns="http://www.w3.org/2000/svg" xmlns:xlink="http://www.w3.org/1999/xlink" x="0px" y="0px"
	 viewBox="-442 243.9 74 75.1" enable-background="new -442 243.9 74 75.1" xml:space="preserve">
<path fill="#7DAC21" d="M-379.9,270.4c0.5,1.4,0.9,2.6,1.2,3.6c0.3,1,0.5,1.8,0.6,2.4c0.1,0.7,0.2,1.6,0.3,2.6
	c0.1,1,0.1,2.2,0.2,3.5l9.6,5.4c-0.7,4.1-2,8-4.1,11.6l-10.9-2c-2.6,3.6-5.8,6.3-9.4,8.1l0.3,11.1c-1.9,0.8-3.9,1.3-5.9,1.7
	c-2.1,0.4-4.2,0.6-6.2,0.7l-3.8-10.6c-4.2-0.4-8.1-1.7-11.8-4.1l-9.4,5.8c-3.2-2.6-5.9-5.7-8-9.3l7.2-8.6c-0.9-2-1.6-4-1.9-5.9
	c-0.3-1.8-0.5-3.9-0.4-6.3l-9.7-5.2c0.7-3.9,2-7.8,4.1-11.6l10.8,1.9c2.7-3.4,5.9-6.1,9.5-8.1l-0.3-10.9c1.9-0.7,3.9-1.2,6-1.6
	c2-0.4,4.1-0.6,6-0.6l3.7,10.4c4.1,0.4,8,1.8,11.7,4.1l9.5-5.7c3.3,2.8,5.9,5.9,8,9.3L-379.9,270.4z"/>
</svg>
