<?xml version="1.0" encoding="utf-8"?>
<!-- Generator: Adobe Illustrator 27.0.0, SVG Export Plug-In . SVG Version: 6.00 Build 0)  -->
<svg version="1.1" id="Layer_1" xmlns="http://www.w3.org/2000/svg" xmlns:xlink="http://www.w3.org/1999/xlink" x="0px" y="0px"
	 viewBox="0 0 101 35" style="enable-background:new 0 0 101 35;" xml:space="preserve">
<style type="text/css">
	.st0{fill:#E61E2A;}
	.st1{fill:#FFFFFF;}
</style>
<path class="st0" d="M12,0H9v2.5H3.8v5.2H0v7.6h3.8v5.2H9V23h2.7c6.3,0,11.9-5.1,11.9-11.5C23.6,5.2,18.4,0,12,0z"/>
<path class="st1" d="M73.7,1.2h9.3v1h-2.7v18.6h2.7v1h-9.3v-1h2.7V2.2h-2.7V1.2z M100.5,1.2H84l-0.3,5.4h1C85.2,2.7,86,1.8,90.3,2
	v18.8h-2.8v1h9.6v-1h-2.8V2c4.3-0.2,5.1,0.7,5.6,4.7h1L100.5,1.2z M65.2,2.5l-6.2,19.3h-1L51.9,2.5h-0.1v18.3h2.6v1h-8.9
	c-3.1,0-4.7-1.2-4.7-4.3c0-2.5-0.4-4.7-1.2-5.3c-0.9-0.7-2.8-1.2-4.5-1.1v9.8h2.7v1h-9.3v-1h2.7V2.2h-2.7v-1h9.9
	c3.4,0,7.4,0.4,7.4,4.7c0,3.5-3.7,4.3-6.5,4.6v0.1c4.8,0.7,5.9,2.6,5.9,7.6c0,0.5,0,2.7,2.7,2.7h2.9V2.2H48v-1h7.6l4.3,14.1
	l4.5-14.1h7.6v1h-2.7v18.6h2.7v1h-9.2v-1h2.6L65.2,2.5L65.2,2.5z M37.5,10c2.8,0,3.9-0.9,3.9-3.7c0-3.5-1-4.2-3.8-4.2H35V10H37.5z
	 M36.1,27.5V32c0,1.2-0.8,1.9-1.9,1.9s-1.9-0.7-1.9-1.9v-4.5c0-0.5-0.2-0.7-0.7-0.7h-1.2v1h0.5c0.2,0,0.2,0.1,0.2,0.2v4
	c0,1.8,1.2,3,3.1,3c1.8,0,3.1-1.2,3.1-3v-4c0-0.2,0.1-0.2,0.2-0.2H38v-1h-1.1C36.3,26.8,36.1,27,36.1,27.5z M44.7,27.5v4.4
	c0,0.5,0.1,1.1,0.1,1.1h0c0,0-0.4-0.7-0.7-1.1l-3.6-5.1h-1v6.8c0,0.2-0.1,0.2-0.2,0.2h-0.5v1h1.2c0.5,0,0.7-0.2,0.7-0.7v-4.4
	c0-0.5-0.1-1.1-0.1-1.1h0c0,0,0.4,0.7,0.7,1.1l3.6,5.1h1V28c0-0.2,0.1-0.2,0.2-0.2h0.5v-1h-1.1C44.9,26.8,44.7,27,44.7,27.5z
	 M47.9,27.8h0.8v6.1h-0.8v1h2.7v-1h-0.8v-6.1h0.8v-1h-2.7V27.8z M57,27.5l-1.8,5c-0.2,0.4-0.3,1.1-0.3,1.1h0c0,0-0.2-0.7-0.3-1.1
	l-1.8-5c-0.2-0.5-0.4-0.7-0.9-0.7h-0.6v1h0.2c0.2,0,0.3,0,0.4,0.2h0l2.5,6.8h1.2L58,28c0.1-0.2,0.2-0.2,0.4-0.2h0.2v-1h-0.6
	C57.4,26.8,57.2,26.9,57,27.5z M64,33.6c0,0.2-0.1,0.2-0.2,0.2h-2.3c-0.2,0-0.2-0.1-0.2-0.2v-2.3H64v-1h-2.8v-2.5h2.3
	c0.2,0,0.2,0.1,0.2,0.2v0.5h1v-1c0-0.5-0.2-0.7-0.7-0.7h-4.7v1H60l0,0v6.4c0,0.5,0.2,0.7,0.7,0.7h3.6c0.5,0,0.7-0.2,0.7-0.7v-1H64
	V33.6z M72.3,33.9h0.1v1h-0.6c-0.6,0-0.9-0.1-1.1-0.6l-1.1-2.2c-0.2-0.4-0.4-0.4-0.8-0.4h-1.1v3.2h-1.1v-7.1h-0.7v-1h3.5
	c1.4,0,2.4,0.9,2.4,2.4c0,1.4-0.9,2-1.5,2.1v0c0,0,0.2,0.1,0.3,0.4l1,1.9C71.8,33.9,72,33.9,72.3,33.9z M70.7,29.2
	c0-0.9-0.5-1.4-1.4-1.4h-1.5v2.9h1.5C70.1,30.7,70.7,30.1,70.7,29.2z M74.5,28.8c0-0.6,0.5-1.1,1.4-1.1c0.6,0,1.2,0.3,1.2,0.7v0.4
	h1.1v-0.7c0-1.1-1.4-1.5-2.3-1.5c-1.5,0-2.6,0.9-2.6,2.2c0,2.5,3.9,2.2,3.9,3.9c0,0.7-0.6,1.2-1.4,1.2c-1.2,0-2-1-2-1v0l-0.7,0.8
	c0,0,1,1.2,2.7,1.2c1.6,0,2.6-1.1,2.6-2.3C78.4,30.1,74.5,30.4,74.5,28.8z M79.6,27.8h0.8v6.1h-0.8v1h2.7v-1h-0.8v-6.1h0.8v-1h-2.7
	V27.8z M89.3,26.8h-5.6c-0.5,0-0.7,0.2-0.7,0.7v1.1h1V28c0-0.2,0.1-0.2,0.2-0.2h1.6v7.1h1.1v-7.1h1.6c0.2,0,0.2,0.1,0.2,0.2v0.5h1
	v-1.1C89.9,27,89.8,26.8,89.3,26.8z M95.5,27.4l-1.2,2c-0.3,0.5-0.5,0.9-0.5,0.9h0c0,0-0.2-0.5-0.5-0.9l-1.2-2
	c-0.3-0.5-0.5-0.6-1.1-0.6h-0.5v1h0.2c0.2,0,0.3,0,0.5,0.3l2,3.3v3.5h1.1v-3.5l2-3.3c0.1-0.2,0.3-0.3,0.5-0.3h0.2v-1h-0.5
	C96.1,26.8,95.8,26.9,95.5,27.4z"/>
</svg>
