<?xml version="1.0" encoding="utf-8"?>
<!-- Generator: Adobe Illustrator 21.0.0, SVG Export Plug-In . SVG Version: 6.00 Build 0)  -->
<svg version="1.1" id="Layer_1" xmlns="http://www.w3.org/2000/svg" xmlns:xlink="http://www.w3.org/1999/xlink" x="0px" y="0px"
	 viewBox="0 0 65.6 77.3" style="enable-background:new 0 0 65.6 77.3;" xml:space="preserve">
<style type="text/css">
	.st0{opacity:0.5;fill:#EEEEEE;enable-background:new    ;}
	.st1{clip-path:url(#SVGID_2_);fill:#A7D0EA;}
	.st2{fill:none;stroke:#A09F9F;stroke-linecap:round;stroke-linejoin:round;stroke-miterlimit:10;}
	.st3{font-family:'TrebuchetMS';}
	.st4{font-size:6.4817px;}
	.st5{opacity:0.3;fill:#A09F9F;enable-background:new    ;}
	.st6{enable-background:new    ;}
	.st7{fill:#FFFFFF;}
	.st8{font-family:'Museo-700';}
	.st9{font-size:20px;}
	.st10{fill:none;stroke:#303030;stroke-width:4;stroke-linecap:round;stroke-linejoin:round;stroke-miterlimit:10;}
</style>
<g>
	<path class="st0" d="M2.5,2.5v2.4v5.3v11.3v26.7v20.7c0,3.4,2.6,6,6,6h49c3.4,0,6-2.6,6-6V48.2V21.5V10.2V4.9V2.5H2.5z"/>
	<g>
		<g>
			<g>
				<defs>
					<path id="SVGID_1_" d="M2.5,2.5v2.4v5.3v11.3v26.7v20.7c0,3.4,2.6,6,6,6h49c3.4,0,6-2.6,6-6V48.2V21.5V10.2V4.9V2.5H2.5z"/>
				</defs>
				<clipPath id="SVGID_2_">
					<use xlink:href="#SVGID_1_"  style="overflow:visible;"/>
				</clipPath>
				<path class="st1" d="M105.3,40.7L105.3,40.7v-4.3v-2.2l0,0v-4.6c-0.5,0-1,0-1.4,0c-4.1,0-6.5-2.4-6.5-2.4
					c-0.5-0.5-1.2-0.5-1.7,0c0,0-2.4,2.4-6.5,2.4c-3.8,0-6.5-2.4-6.5-2.4c-0.5-0.5-1.2-0.5-1.7,0c0,0-2.4,2.4-6.2,2.4
					c-0.2,0-0.2,0-0.5,0l0,0c-3.6-0.2-5.8-2.4-5.8-2.4C68.3,27,68,27,67.5,27s-0.7,0-1,0.2c0,0-2.4,2.4-6.2,2.4s-6.2-2.4-6.2-2.4
					c-0.2-0.2-0.5-0.2-1-0.2s-0.7,0-1,0.2c0,0-2.2,2.2-5.8,2.4l0,0c-0.2,0-0.2,0-0.5,0c-3.8,0-6.2-2.4-6.2-2.4
					c-0.5-0.5-1.2-0.5-1.7,0c0,0-2.4,2.4-6.5,2.4c-3.8,0-6.5-2.4-6.5-2.4c-0.2-0.2-0.5-0.2-1-0.2c-0.2,0-0.7,0-1,0.2
					c0,0-2.4,2.4-6.5,2.4c-3.8,0-6.5-2.4-6.5-2.4c-0.5-0.5-1.2-0.5-1.7,0c0,0-2.4,2.4-6.5,2.4c-3.8,0-6.5-2.4-6.5-2.4
					c-0.5-0.5-1.2-0.5-1.7,0c0,0-2.4,2.4-6.5,2.4c-3.8,0-6.5-2.4-6.5-2.4c-0.5-0.5-1.2-0.5-1.7,0c0,0-2.6,2.4-6.5,2.4
					c-0.5,0-1,0-1.4,0v1l0,0v5.8v4.3V45v57.4h133.4V40.7H105.3z"/>
			</g>
		</g>
	</g>
	<text transform="matrix(1.4375 0 0 1 3.6079 29.7894)" class="st2 st3 st4">-</text>
	<text transform="matrix(1.4375 0 0 1 3.6079 37.4818)" class="st2 st3 st4">-</text>
	<text transform="matrix(1.4375 0 0 1 3.6079 45.4154)" class="st2 st3 st4">-</text>
	<text transform="matrix(1.4375 0 0 1 3.6079 53.1058)" class="st2 st3 st4">-</text>
	<text transform="matrix(1.4375 0 0 1 3.6079 60.7992)" class="st2 st3 st4">-</text>
	<text transform="matrix(1.4375 0 0 1 3.6079 22.4154)" class="st2 st3 st4">-</text>
	<ellipse class="st5" cx="32.7" cy="68" rx="23.8" ry="2.2"/>
	<text transform="matrix(1 0 0 1 22.8102 50.5556)" class="st6"><tspan x="0" y="0" class="st7 st8 st9">27</tspan><tspan x="-3.8" y="15" class="st7 st8 st9">mL</tspan></text>
</g>
<path class="st10" d="M2.5,2.5v2.4v5.3v11.3v26.7v20.7c0,3.4,2.6,6,6,6h49c3.4,0,6-2.6,6-6V48.2V21.5V10.2V4.9V2.5H2.5z"/>
</svg>
