<?xml version="1.0" encoding="utf-8"?>
<!-- Generator: Adobe Illustrator 19.0.0, SVG Export Plug-In . SVG Version: 6.00 Build 0)  -->
<svg version="1.1" id="Layer_1" xmlns="http://www.w3.org/2000/svg" xmlns:xlink="http://www.w3.org/1999/xlink" x="0px" y="0px"
	 viewBox="-159 0 291.9 792" style="enable-background:new -159 0 291.9 792;" xml:space="preserve">
<style type="text/css">
	.st0{fill:#C7D8E5;}
	.st1{clip-path:url(#SVGID_2_);fill:#C7D8E5;}
	.st2{clip-path:url(#SVGID_4_);fill:#C7D8E5;}
	.st3{fill:none;stroke:#4A494A;stroke-width:2;stroke-linejoin:round;stroke-miterlimit:10;}
	.st4{fill:none;stroke:#7D7D7D;stroke-width:2;stroke-miterlimit:10;}
	.st5{opacity:0.15;fill:#A09F9F;enable-background:new    ;}
	.st6{opacity:0.8;fill:#FFFFFF;stroke:#000000;stroke-miterlimit:10;enable-background:new    ; cursor:pointer}
	.st7{fill:#CCCCCC;stroke:#999999;stroke-miterlimit:10;}
</style>
<rect id="water" x="-125.4" y="656.9" class="st0" width="224.6" height="44.7"/>
<g>
	<g id="wave">
		<g>
			<g>
				<g>
					<g>
						<g>
							<g>
								<defs>
									<path id="SVGID_1_" d="M-125.5,496.7v8.9v19.8v41.3V665v75.9c0,12.3,10.1,22.4,22.4,22.4H76.7c12.3,0,22.4-10.1,22.4-22.4
										V665v-98.3v-41.3v-19.8v-8.9L-125.5,496.7L-125.5,496.7z"/>
								</defs>
								<clipPath id="SVGID_2_">
									<use xlink:href="#SVGID_1_"  style="overflow:visible;"/>
								</clipPath>
								<path class="st1" d="M226.7,712.1L226.7,712.1l-0.2-16.1v-7.9h0.2v-16.7c-1.6,0.2-3.2,0.4-5,0.4c-14.9,0-24.2-8.9-24.2-8.9
									c-1.6-1.6-4.4-1.6-6.2,0c0,0-8.9,8.5-23.4,8.9c-14.4-0.2-23.4-8.9-23.4-8.9c-1.6-1.6-4.4-1.6-6.2,0c0,0-8.9,8.5-23.1,8.9
									c-0.6,0-1,0-1.6,0l0,0c-13.2-1-21.4-8.7-21.4-8.7c-1-0.8-2.1-1.2-3.3-1.2c-1.2,0-2.4,0.2-3.3,1.2c0,0-8.9,8.5-23.1,8.9
									c-14.3-0.4-23.1-8.9-23.1-8.9c-1-0.8-2.1-1.2-3.3-1.2s-2.4,0.2-3.3,1.2c0,0-8.1,7.9-21.4,8.7l0,0c-0.6,0-1,0-1.6,0
									c-14.3-0.4-23.1-8.9-23.1-8.9c-1.6-1.6-4.4-1.6-6.2,0c0,0-8.9,8.5-23.4,8.9c-14.4-0.2-23.4-8.9-23.4-8.9
									c-1-1-2.1-1.2-3.3-1.2c-1.2-0.2-2.6,0.2-3.3,1.2c0,0-8.9,8.5-23.4,8.9c-14.4-0.2-23.4-8.9-23.4-8.9c-1.6-1.6-4.4-1.6-6.2,0
									c0,0-8.9,8.5-23.4,8.9c-14.4-0.2-23.4-8.9-23.4-8.9c-1.6-1.6-4.4-1.6-6.2,0c0,0-8.9,8.5-23.4,8.9
									c-14.4-0.2-23.4-8.9-23.4-8.9c-1.6-1.6-4.4-1.6-6.2,0c0,0-9.3,8.9-24.2,8.9c-1.8,0-3.6-0.2-5.1-0.4v3.3h-0.2v21.4v16.1v16.1
									v210.9H228V712.1H226.7z"/>
							</g>
						</g>
					</g>
				</g>
			</g>
		</g>
	</g>
	<g>
		<g>
			<g>
				<g>
					<g>
						<g>
							<g>
								<defs>
									<path id="SVGID_3_" d="M-125.6,516.4v8.9v19.8v41.3v98.3v75.9c0,12.3,10.1,22.4,22.4,22.4H76.5c12.3,0,22.4-10.1,22.4-22.4
										v-75.9v-98.3v-41.3v-19.8v-8.9H-125.6z"/>
								</defs>
								<clipPath id="SVGID_4_">
									<use xlink:href="#SVGID_3_"  style="overflow:visible;"/>
								</clipPath>
								<rect x="-137.4" y="701.6" class="st2" width="248.1" height="156"/>
							</g>
						</g>
					</g>
				</g>
			</g>
		</g>
	</g>
	<path class="st3" d="M-34.2,236c0,5.8,9.7,10.5,21.6,10.5S9,241.8,9,236"/>
	<g>
		<path class="st3" d="M-125.4,512.5c0-4.3,50.5-7.9,112.8-7.9"/>
		<path class="st3" d="M99.5,512.5c0-4.3-50.5-7.9-112.8-7.9"/>
	</g>
	<line class="st4" x1="-112" y1="741.2" x2="-123.4" y2="741.2"/>
	<line class="st4" x1="-112" y1="701.6" x2="-123.4" y2="701.6"/>
	<line class="st4" x1="-112" y1="662" x2="-123.4" y2="662"/>
	<line class="st4" x1="-112" y1="622.3" x2="-123.4" y2="622.3"/>
	<line class="st4" x1="-112" y1="582.7" x2="-123.4" y2="582.7"/>
	<line class="st4" x1="-112" y1="543.1" x2="-123.4" y2="543.1"/>
	<ellipse class="st5" cx="-12.8" cy="763.3" rx="87.4" ry="7.9"/>
	<path class="st3" d="M-125.1,513.3v29.8v41.3v98.3v75.9c0,12.3,10.1,22.4,22.4,22.4H77c12.3,0,22.4-10.1,22.4-22.4v-75.9v-98.3
		v-41.3v-29.8"/>
	<path class="st3" d="M9,236.5v-217C9.1,13.8-0.4,9-12.1,9s-21.2,4.8-21.2,10.5h-0.9v216.9"/>
	<path id="drip" class="st0" d="M-12.5,314.1c-5.1,0.6-14.1,20.8-14.1,27.9c0,7.9,6.3,14.3,14.1,14.3S1.6,350,1.6,342
		C1.5,335-7.5,314.7-12.5,314.1z"/>
	<g>
		<path class="st3" d="M-125.4,512.4c0,4.3,50.5,7.9,112.8,7.9"/>
		<path class="st3" d="M99.5,512.4c0,4.3-50.5,7.9-112.8,7.9"/>
	</g>
	<path class="st6" d="M9,236.5v-217C9.1,13.8-0.4,9-12.1,9s-21.2,4.8-21.2,10.5h-0.9v216.9"/>
	<path class="st3" d="M9,236c0-5.8-9.7-10.5-21.6-10.5s-21.6,4.7-21.6,10.5"/>
</g>
<path class="st7" d="M-12.6,299.6c-1.9,0-3.7,1.9-7.5,5.7L-42.7,328c-4.2,4.2-2.8,4.9,1.6,4.9h11.4v27.5c0,5.7,4.6,10.3,10.3,10.3
	h13.8c5.7,0,10.3-4.6,10.3-10.3v-27.5h11.2c4.9,0,5.9-0.8,1.7-4.9l-22.7-22.7C-8.9,301.5-10.7,299.6-12.6,299.6z"/>
</svg>
