<?xml version="1.0" encoding="utf-8"?>
<!-- Generator: Adobe Illustrator 19.0.0, SVG Export Plug-In . SVG Version: 6.00 Build 0)  -->
<svg version="1.1" id="Layer_1" xmlns="http://www.w3.org/2000/svg" xmlns:xlink="http://www.w3.org/1999/xlink" x="0px" y="0px"
	 viewBox="-434 -116 1063 792" style="enable-background:new -434 -116 1063 792;" xml:space="preserve">
<style type="text/css">
	.st0{fill:#C7D8E5;}
	.st1{clip-path:url(#SVGID_2_);fill:#C7D8E5;}
	.st2{clip-path:url(#SVGID_4_);fill:#C7D8E5;}
	.st3{fill:none;stroke:#4A494A;stroke-width:2;stroke-linejoin:round;stroke-miterlimit:10;}
	.st4{fill:none;stroke:#7D7D7D;stroke-width:2;stroke-miterlimit:10;}
	.st5{opacity:0.15;fill:#A09F9F;enable-background:new    ;}
	.st6{opacity:0.8;fill:#FFFFFF;stroke:#000000;stroke-miterlimit:10;enable-background:new    ;}
	.st7{fill:#CCCCCC;stroke:#999999;stroke-miterlimit:10;}
	.st8{fill:#B5B5B6;}
	.st9{fill:#EFEED3;stroke:#4A494A;stroke-width:2;stroke-linejoin:round;stroke-miterlimit:10;}
	.st10{fill:#FFFFFF;stroke:#C6C1A5;stroke-width:2;stroke-linejoin:round;stroke-miterlimit:10;}
	.st11{fill:#4A494A;}
	.st12{fill:#6B6B6B;}
	.st13{font-family:'TrebuchetMS';}
	.st14{font-size:23.5416px;}
	.st15{fill:#A09F9F;}
	.st16{font-size:16.7407px;}
</style>
<rect id="water" x="-328.6" y="540.9" class="st0" width="224.6" height="44.7"/>
<g>
	<g id="wave">
		<g>
			<g>
				<g>
					<g>
						<g>
							<g>
								<g>
									<g>
										<defs>
											<path id="SVGID_1_" d="M-328.7,380.7v8.9v19.8v41.3V549v75.9c0,12.3,10.1,22.4,22.4,22.4h179.8
												c12.3,0,22.4-10.1,22.4-22.4V549v-98.3v-41.3v-19.8v-8.9L-328.7,380.7L-328.7,380.7z"/>
										</defs>
										<clipPath id="SVGID_2_">
											<use xlink:href="#SVGID_1_"  style="overflow:visible;"/>
										</clipPath>
										<path class="st1" d="M23.5,596.1L23.5,596.1L23.3,580v-7.9h0.2v-16.7c-1.6,0.2-3.2,0.4-5,0.4c-14.9,0-24.2-8.9-24.2-8.9
											c-1.6-1.6-4.4-1.6-6.2,0c0,0-8.9,8.5-23.4,8.9c-14.4-0.2-23.4-8.9-23.4-8.9c-1.6-1.6-4.4-1.6-6.2,0c0,0-8.9,8.5-23.1,8.9
											c-0.6,0-1,0-1.6,0l0,0c-13.2-1-21.4-8.7-21.4-8.7c-1-0.8-2.1-1.2-3.3-1.2c-1.2,0-2.4,0.2-3.3,1.2c0,0-8.9,8.5-23.1,8.9
											c-14.3-0.4-23.1-8.9-23.1-8.9c-1-0.8-2.1-1.2-3.3-1.2c-1.2,0-2.4,0.2-3.3,1.2c0,0-8.1,7.9-21.4,8.7l0,0c-0.6,0-1,0-1.6,0
											c-14.3-0.4-23.1-8.9-23.1-8.9c-1.6-1.6-4.4-1.6-6.2,0c0,0-8.9,8.5-23.4,8.9c-14.4-0.2-23.4-8.9-23.4-8.9
											c-1-1-2.1-1.2-3.3-1.2c-1.2-0.2-2.6,0.2-3.3,1.2c0,0-8.9,8.5-23.4,8.9c-14.4-0.2-23.4-8.9-23.4-8.9
											c-1.6-1.6-4.4-1.6-6.2,0c0,0-8.9,8.5-23.4,8.9c-14.4-0.2-23.4-8.9-23.4-8.9c-1.6-1.6-4.4-1.6-6.2,0c0,0-8.9,8.5-23.4,8.9
											c-14.4-0.2-23.4-8.9-23.4-8.9c-1.6-1.6-4.4-1.6-6.2,0c0,0-9.3,8.9-24.2,8.9c-1.8,0-3.6-0.2-5.1-0.4v3.3h-0.2v21.4v16.1
											v16.1v210.9H24.8V596.1H23.5z"/>
									</g>
								</g>
							</g>
						</g>
					</g>
				</g>
			</g>
		</g>
	</g>
	<g>
		<g>
			<g>
				<g>
					<g>
						<g>
							<g>
								<g>
									<g>
										<defs>
											<path id="SVGID_3_" d="M-328.8,400.4v8.9v19.8v41.3v98.3v75.9c0,12.3,10.1,22.4,22.4,22.4h179.7
												c12.3,0,22.4-10.1,22.4-22.4v-75.9v-98.3v-41.3v-19.8v-8.9H-328.8z"/>
										</defs>
										<clipPath id="SVGID_4_">
											<use xlink:href="#SVGID_3_"  style="overflow:visible;"/>
										</clipPath>
										<rect x="-340.6" y="585.6" class="st2" width="248.1" height="156"/>
									</g>
								</g>
							</g>
						</g>
					</g>
				</g>
			</g>
		</g>
	</g>
	<path class="st3" d="M-237.4,120c0,5.8,9.7,10.5,21.6,10.5c11.9,0,21.6-4.7,21.6-10.5"/>
	<g>
		<path class="st3" d="M-328.6,396.5c0-4.3,50.5-7.9,112.8-7.9"/>
		<path class="st3" d="M-103.7,396.5c0-4.3-50.5-7.9-112.8-7.9"/>
	</g>
	<line class="st4" x1="-315.2" y1="625.2" x2="-326.6" y2="625.2"/>
	<line class="st4" x1="-315.2" y1="585.6" x2="-326.6" y2="585.6"/>
	<line class="st4" x1="-315.2" y1="546" x2="-326.6" y2="546"/>
	<line class="st4" x1="-315.2" y1="506.3" x2="-326.6" y2="506.3"/>
	<line class="st4" x1="-315.2" y1="466.7" x2="-326.6" y2="466.7"/>
	<line class="st4" x1="-315.2" y1="427.1" x2="-326.6" y2="427.1"/>
	<ellipse class="st5" cx="-216" cy="647.3" rx="87.4" ry="7.9"/>
	<path class="st3" d="M-328.3,397.3v29.8v41.3v98.3v75.9c0,12.3,10.1,22.4,22.4,22.4h179.7c12.3,0,22.4-10.1,22.4-22.4v-75.9v-98.3
		v-41.3v-29.8"/>
	<path class="st3" d="M-194.2,120.5v-217c0.1-5.7-9.4-10.5-21.1-10.5c-11.7,0-21.2,4.8-21.2,10.5h-0.9v216.9"/>
	<path id="drip" class="st0" d="M-215.7,198.1c-5.1,0.6-14.1,20.8-14.1,27.9c0,7.9,6.3,14.3,14.1,14.3s14.1-6.3,14.1-14.3
		C-201.7,219-210.7,198.7-215.7,198.1z"/>
	<g>
		<path class="st3" d="M-328.6,396.4c0,4.3,50.5,7.9,112.8,7.9"/>
		<path class="st3" d="M-103.7,396.4c0,4.3-50.5,7.9-112.8,7.9"/>
	</g>
	<path class="st6" d="M-194.2,120.5v-217c0.1-5.7-9.4-10.5-21.1-10.5c-11.7,0-21.2,4.8-21.2,10.5h-0.9v216.9"/>
	<path class="st3" d="M-194.2,120c0-5.8-9.7-10.5-21.6-10.5c-11.9,0-21.6,4.7-21.6,10.5"/>
</g>
<path class="st7" d="M-216.4,183.6c-1.9,0-3.7,1.9-7.5,5.7l-22.6,22.7c-4.2,4.2-2.8,4.9,1.6,4.9h11.4v27.5c0,5.7,4.6,10.3,10.3,10.3
	h13.8c5.7,0,10.3-4.6,10.3-10.3v-27.5h11.2c4.9,0,5.9-0.8,1.7-4.9l-22.7-22.7C-212.7,185.5-214.5,183.6-216.4,183.6z"/>
<g>
	<circle class="st8" cx="483.8" cy="247.3" r="124.9"/>
	<circle class="st9" cx="483.8" cy="234.2" r="124.9"/>
	<circle class="st10" cx="483.8" cy="234.2" r="109.7"/>
	<circle class="st11" cx="483.8" cy="234.2" r="3.8"/>
	<g>
		<text transform="matrix(1 0 0 1 473.0663 149.7129)" class="st12 st13 st14">12</text>
	</g>
	<g>
		<text transform="matrix(1 0 0 1 476.9178 334.3838)" class="st12 st13 st14">6</text>
	</g>
	<g>
		<text transform="matrix(1 0 0 1 572.1317 242.3105)" class="st12 st13 st14">3</text>
	</g>
	<g>
		<text transform="matrix(1 0 0 1 562.7489 195.5752)" class="st15 st13 st16">2</text>
	</g>
	<g>
		<text transform="matrix(1 0 0 1 532.0614 162.7915)" class="st15 st13 st16">1</text>
	</g>
	<g>
		<text transform="matrix(1 0 0 1 390.952 195.5752)" class="st15 st13 st16">10</text>
	</g>
	<g>
		<text transform="matrix(1 0 0 1 562.7489 283.4639)" class="st15 st13 st16">4</text>
	</g>
	<g>
		<text transform="matrix(1 0 0 1 395.3397 287.6494)" class="st15 st13 st16">8</text>
	</g>
	<g>
		<text transform="matrix(1 0 0 1 418.8572 162.7915)" class="st15 st13 st16">11</text>
	</g>
	<g>
		<text transform="matrix(1 0 0 1 532.0614 319.7354)" class="st15 st13 st16">5</text>
	</g>
	<g>
		<text transform="matrix(1 0 0 1 427.4324 319.7354)" class="st15 st13 st16">7</text>
	</g>
	<g>
		<text transform="matrix(1 0 0 1 381.705 242.3105)" class="st12 st13 st14">9</text>
	</g>
	<polygon id="pointer" class="st11" points="490.2,176 484.1,169.9 483.7,170.3 483.5,169.9 477.2,176 479.9,178.7 481.8,176.6 
		481.8,234.2 485.6,234.2 485.6,176.6 487.7,178.7 	"/>
</g>
</svg>
