<?xml version="1.0" encoding="utf-8"?>
<!-- Generator: Adobe Illustrator 18.1.1, SVG Export Plug-In . SVG Version: 6.00 Build 0)  -->
<svg version="1.1" id="Layer_1" xmlns="http://www.w3.org/2000/svg" xmlns:xlink="http://www.w3.org/1999/xlink" x="0px" y="0px"
	 viewBox="0 0 1024 768" enable-background="new 0 0 1024 768" xml:space="preserve">
<path fill="#F7E6C6" stroke="#303030" stroke-width="5" stroke-linejoin="round" stroke-miterlimit="10" d="M1015.9,60H869.1h-35.2
	c-3.4,0-5.5,2.2-5.5,4.8v48.1c0,2.4-2.4,4.8-5,4.8h-35.2h-35.2c-0.5,0-0.2,0-0.7,0c-3.1,0-5.3,2.2-5.3,4.8V173
	c0,0.2-0.5,0.2-0.7,0.5c-1,1.2-3.4,1.9-5.3,1.9h-70.5c-3.1,0-6,1.9-6.2,4.3c-0.7,0.7-1.4,1.7-1.4,2.9v48.1c0,2.4-1.7,4.3-4.3,4.8
	h0.2h-70.5c-0.5,0-0.7,0-1.2,0c-3.1,0-5.8,2.2-5.8,4.8v50.5c0,0.2,0,0.2,0,0.5c-1,1.2-2.9,1.9-4.8,1.9h-70.5c-2.2,0-4.8,1-5.8,2.6
	c-2.6,0.5-5.3,2.4-5.3,4.6v48.1c0,2.4-1,4.8-3.6,4.8h-70.5c-0.5,0-1,0-1.4,0c-3.1,0-6,2.2-6,4.8v50.5c0,0.2,0.2,0.2,0.2,0.5
	c-1,1.2-2.6,1.9-4.6,1.9h-70.5c-3.1,0-6.7,1.9-7,4.3c-0.7,0.7-2.2,1.7-2.2,2.9v48.1c0,2.4-1,4.3-3.6,4.8h1h-70.5c-0.5,0-0.7,0-1.2,0
	h-2.9c-3.4,0-4.3,2.2-4.3,4.8v48.1c0,2.4-3.6,4.8-6.2,4.8h-70.3c-0.5,0-1,0-1.4,0c-3.1,0-6,2.2-6,4.8V584c0,0.2,0,0.2,0,0.5
	c-1,1.2-2.6,1.9-4.6,1.9H89.1c-3.1,0-5.3,1.9-5.5,4.3c-0.7,0.7-1,1.7-1,2.9v50.7c-2.4,1.2-3.4,2.2-5.3,2.2H6.9
	c-3.4,0-5.8,2.2-5.8,4.8V709c0,2.6,2.6,4.8,5.8,4.8h923.7h4.1h81.5c2.9,0,6.2-2.2,6.2-4.8v-57.7v-15.6V64.8
	C1022.6,62.2,1019,60,1015.9,60z"/>
<g opacity="9.000000e-02">
	<path fill="#303030" d="M586.9,244.5c0.5,0,0.7,0,1.2,0h70.3c2.6-0.5,4.3-2.4,4.3-4.8v-7c0,2.4-1.7,4.3-4.3,4.8h-70.3
		c-0.5,0-0.7,0-1.2,0c-3.1,0-5.8,2.2-5.8,4.8v7C581.2,246.6,583.8,244.5,586.9,244.5z"/>
	<path fill="#303030" d="M670.4,184.4h70.5c1.9,0,4.3-0.7,5.3-1.9c0.2-0.2,0.7-0.2,0.7-0.5v-7c0,0.2-0.5,0.2-0.7,0.5
		c-1,1.2-3.4,1.9-5.3,1.9h-70.5c-3.1,0-6,1.9-6.2,4.3c-0.7,0.7-1.4,1.7-1.4,2.9v7c0-1.2,0.7-2.2,1.4-2.9
		C664.4,186.3,667.2,184.4,670.4,184.4z"/>
	<path fill="#303030" d="M500.1,304.8c1-1.7,3.6-2.6,5.8-2.6h70.5c1.9,0,3.8-0.7,4.8-1.9c0-0.2,0-0.2,0-0.5v-6.5
		c-1,1.2-2.9,1.9-4.8,1.9h-70.5c-2.2,0-4.8,1-5.8,2.6c-2.6,0.5-5.3,2.4-5.3,4.6v7C494.8,307.2,497.5,305.3,500.1,304.8z"/>
	<path fill="#303030" d="M833.9,69h35.2h146.8c2.9,0,6.3,1.9,6.5,4.3v-6.5c0.2-2.6-3.4-4.8-6.5-4.8H869.1h-35.2
		c-3.4,0-5.5,2.2-5.5,4.8v7C828.4,71.2,830.5,69,833.9,69z"/>
	<path fill="#303030" d="M752.1,126.7c0.5,0,0.2,0,0.7,0h35.2h35.2c2.6,0,5-2.4,5-4.8v-7c0,2.4-2.4,4.8-5,4.8h-35.2h-35.2
		c-0.5,0-0.2,0-0.7,0c-3.1,0-5.3,2.2-5.3,4.8v7C746.9,128.9,749,126.7,752.1,126.7z"/>
	<path fill="#303030" d="M252.2,480h2.9c0.5,0,0.7,0,1.2,0h69.5c2.6-0.5,3.6-2.4,3.6-4.8v-7c0,2.4-1,4.3-3.6,4.8h-69.5
		c-0.5,0-0.7,0-1.2,0h-2.9c-3.4,0-4.3,2.2-4.3,4.8v7C247.9,482.2,248.8,480,252.2,480z"/>
	<path fill="#303030" d="M169.9,537.7c0.5,0,1,0,1.4,0h70.3c2.6,0,6.2-2.4,6.2-4.8v-7c0,2.4-3.6,4.8-6.2,4.8h-70.3c-0.5,0-1,0-1.4,0
		c-3.1,0-6,2.2-6,4.8v7C163.9,539.9,166.8,537.7,169.9,537.7z"/>
	<path fill="#303030" d="M89.1,595.4h70.3c1.9,0,3.6-0.7,4.6-1.9c0-0.2,0-0.2,0-0.5v-6.5c-1,1.2-2.6,1.9-4.6,1.9H89.1
		c-3.1,0-5.3,1.9-5.5,4.3c-0.7,0.7-1,1.7-1,2.9v7c0-1.2,0.2-2.2,1-2.9C83.8,597.3,86,595.4,89.1,595.4z"/>
	<path fill="#303030" d="M419.3,362.3c0.5,0,1,0,1.4,0h70.5c2.6,0,3.6-2.4,3.6-4.8v-7c0,2.4-1,4.8-3.6,4.8h-70.5c-0.5,0-1,0-1.4,0
		c-3.1,0-6,2.2-6,4.8v7C413.3,364.4,416.2,362.3,419.3,362.3z"/>
	<path fill="#303030" d="M331.5,424.3c0.2-2.4,3.8-4.3,7-4.3H409c1.9,0,3.6-0.7,4.6-1.9c0-0.2-0.2-0.2-0.2-0.5v-6.3
		c-1,1-2.5,1.7-4.3,1.7h-70.5c-3.1,0-6.7,1.9-7,4.3c-0.7,0.7-2.2,1.7-2.2,2.9v7C329.4,426,330.8,425,331.5,424.3z"/>
	<path fill="#303030" d="M6.9,655.5h70.5c1.9,0,2.9-1,5.3-2.2v-7c-2.4,1.2-3.4,2.2-5.3,2.2H6.9c-3.4,0-5.8,2.2-5.8,4.8v7
		C1.1,657.7,3.5,655.5,6.9,655.5z"/>
</g>
<text transform="matrix(1 0 0 1 848.0565 95.8568)" font-family="'MuseoSans-500'" font-size="24">10,000 grams</text>
<text transform="matrix(1 0 0 1 763.1359 158.6887)" font-family="'MuseoSans-500'" font-size="24">1,000 grams</text>
<text transform="matrix(1 0 0 1 680.6175 217.7138)" font-family="'MuseoSans-500'" font-size="24">100 grams</text>
<text transform="matrix(1 0 0 1 600.5013 276.7397)" font-family="'MuseoSans-500'" font-size="24">10 grams</text>
<text transform="matrix(1 0 0 1 513.8591 335.7657)" font-family="'MuseoSans-500'" font-size="24">1 gram</text>
<text transform="matrix(1 0 0 1 436.7747 394.7906)" font-family="'MuseoSans-500'" font-size="24">1/10 gram</text>
<text transform="matrix(1 0 0 1 352.7714 453.8166)" font-family="'MuseoSans-500'" font-size="24">1/100 gram</text>
<text transform="matrix(1 0 0 1 268.7681 506.8308)" font-family="'MuseoSans-500'" font-size="24">1/1,000 gram</text>
<text transform="matrix(1 0 0 1 182.3591 569.4638)" font-family="'MuseoSans-500'" font-size="24">1/10,000 gram</text>
<text transform="matrix(1 0 0 1 100.7597 626.0851)" font-family="'MuseoSans-500'" font-size="24">1/100,000 gram</text>
<text transform="matrix(1 0 0 1 26.1343 690.1846)" font-family="'MuseoSans-500'" font-size="24">1/1,000,000 gram</text>
<text transform="matrix(1 0 0 1 779.9736 668.151)" fill="#E5B257" font-family="'Arial-BoldMT'" font-size="57.6901">Weight</text>
<g>
	
		<path fill="#666666" stroke="#303030" stroke-width="4" stroke-linecap="round" stroke-linejoin="round" stroke-miterlimit="10" d="
		M574.4,286.6l-11.4-45.3c-0.7-2.8-3.6-4.3-6.5-4.3h-7.3c0.7-3,1.1-4.3,1.1-5.9c0-5.4-4.5-10.6-9.8-10.6c-5.4,0-9.8,5.5-9.8,10.9
		c0,1.6,0.4,2.5,1.1,5.5h-7.3c-2.9,0-5.8,0.9-6.5,3.7l-11.4,46.7c-0.7,2.8,1.1,5.7,4,5.7h24.8c2.9,0,7.6,0,10.5,0h24.8
		C573.3,293,575.1,289.4,574.4,286.6z M542,230.5c0-0.9-0.7-1.7-1.7-1.7c-0.9,0-1.7,0.7-1.7,1.7c0,0.9,0.7,1.7,1.7,1.7
		C541.3,232.2,542,231.4,542,230.5z"/>
	<text transform="matrix(1 0 0 1 531.0263 274.6913)" fill="#FFFFFF" font-family="'Museo-700'" font-size="31.6222">g</text>
</g>
</svg>
