<svg id="Layer_1" data-name="Layer 1" xmlns="http://www.w3.org/2000/svg" xmlns:xlink="http://www.w3.org/1999/xlink" viewBox="0 0 1024 768"><defs><style>.cls-1,.cls-15,.cls-20{fill:none;}.cls-2{fill:#d7f2c7;stroke-width:5px;}.cls-2,.cls-20{stroke:#303030;}.cls-15,.cls-2,.cls-20{stroke-linejoin:round;}.cls-3{opacity:0.09;}.cls-4{fill:#303030;}.cls-10,.cls-12,.cls-15,.cls-16,.cls-17,.cls-18,.cls-5,.cls-7{isolation:isolate;}.cls-5,.cls-7{font-size:24px;font-family:MuseoSans-500, Museo Sans;}.cls-6,.cls-7{letter-spacing:-0.02em;}.cls-8{letter-spacing:0em;}.cls-9{letter-spacing:-0.01em;}.cls-10{font-size:57.69px;fill:#62a856;font-family:Arial-BoldMT, Arial;font-weight:700;}.cls-11{letter-spacing:-0.07em;}.cls-12{fill:#eee;opacity:0.5;}.cls-13{clip-path:url(#clip-path);}.cls-14{fill:#a7d0ea;}.cls-15{font-size:6.48px;stroke:#a09f9f;font-family:TrebuchetMS, Trebuchet MS;}.cls-15,.cls-20{stroke-linecap:round;}.cls-16{fill:#a09f9f;opacity:0.3;}.cls-18{font-size:20px;fill:#fff;font-family:Museo-700, Museo;}.cls-19{letter-spacing:0em;}.cls-20{stroke-width:4px;}</style><clipPath id="clip-path"><path class="cls-1" d="M509.5,219.6V286a5.89,5.89,0,0,0,6,6h49a5.89,5.89,0,0,0,6-6V219.6Z"/></clipPath></defs><title>Artboard 1</title><path class="cls-2" d="M1015.9,60h-182c-3.4,0-5.5,2.2-5.5,4.8v48.1a5.19,5.19,0,0,1-5,4.8H752.3a5,5,0,0,0-5.3,4.8V173c0,.2-.5.2-.7.5-1,1.2-3.4,1.9-5.3,1.9H670.5c-3.1,0-6,1.9-6.2,4.3a4.23,4.23,0,0,0-1.4,2.9v48.1a4.92,4.92,0,0,1-4.3,4.8H587.1c-3.1,0-5.8,2.2-5.8,4.8v51a6.39,6.39,0,0,1-4.8,1.9H506c-2.2,0-4.8,1-5.8,2.6-2.6.5-5.3,2.4-5.3,4.6v48.1c0,2.4-1,4.8-3.6,4.8H419.4c-3.1,0-6,2.2-6,4.8v50.5c0,.2.2.2.2.5A5.79,5.79,0,0,1,409,411H338.5c-3.1,0-6.7,1.9-7,4.3-.7.7-2.2,1.7-2.2,2.9v48.1c0,2.4-1,4.3-3.6,4.8H252.1c-3.4,0-4.3,2.2-4.3,4.8V524c0,2.4-3.6,4.8-6.2,4.8H169.9c-3.1,0-6,2.2-6,4.8v50.9a5.79,5.79,0,0,1-4.6,1.9H89.1c-3.1,0-5.3,1.9-5.5,4.3a4,4,0,0,0-1,2.9v50.7c-2.4,1.2-3.4,2.2-5.3,2.2H6.9c-3.4,0-5.8,2.2-5.8,4.8V709c0,2.6,2.6,4.8,5.8,4.8H1016.2c2.9,0,6.2-2.2,6.2-4.8V64.8C1022.6,62.2,1019,60,1015.9,60Z"/><g class="cls-3"><path class="cls-4" d="M586.9,244.5h71.5a4.92,4.92,0,0,0,4.3-4.8v-7a4.92,4.92,0,0,1-4.3,4.8H586.9c-3.1,0-5.8,2.2-5.8,4.8v7C581.2,246.6,583.8,244.5,586.9,244.5Z"/><path class="cls-4" d="M670.4,184.4h70.5c1.9,0,4.3-.7,5.3-1.9.2-.2.7-.2.7-.5v-7c0,.2-.5.2-.7.5-1,1.2-3.4,1.9-5.3,1.9H670.4c-3.1,0-6,1.9-6.2,4.3a4.23,4.23,0,0,0-1.4,2.9v7a4.23,4.23,0,0,1,1.4-2.9C664.4,186.3,667.2,184.4,670.4,184.4Z"/><path class="cls-4" d="M500.1,304.8c1-1.7,3.6-2.6,5.8-2.6h70.5a6.39,6.39,0,0,0,4.8-1.9v-7a6.39,6.39,0,0,1-4.8,1.9H505.9c-2.2,0-4.8,1-5.8,2.6-2.6.5-5.3,2.4-5.3,4.6v7C494.8,307.2,497.5,305.3,500.1,304.8Z"/><path class="cls-4" d="M833.9,69h182c2.9,0,6.3,1.9,6.5,4.3V66.8c.2-2.6-3.4-4.8-6.5-4.8h-182c-3.4,0-5.5,2.2-5.5,4.8v7C828.4,71.2,830.5,69,833.9,69Z"/><path class="cls-4" d="M752.1,126.7h71.1a5.19,5.19,0,0,0,5-4.8v-7a5.19,5.19,0,0,1-5,4.8H752.1a5,5,0,0,0-5.3,4.8v7A5.06,5.06,0,0,1,752.1,126.7Z"/><path class="cls-4" d="M252.2,480h73.6c2.6-.5,3.6-2.4,3.6-4.8v-7c0,2.4-1,4.3-3.6,4.8H252.2c-3.4,0-4.3,2.2-4.3,4.8v7C247.9,482.2,248.8,480,252.2,480Z"/><path class="cls-4" d="M169.9,537.7h71.7c2.6,0,6.2-2.4,6.2-4.8v-7c0,2.4-3.6,4.8-6.2,4.8H169.9c-3.1,0-6,2.2-6,4.8v7C163.9,539.9,166.8,537.7,169.9,537.7Z"/><path class="cls-4" d="M89.1,595.4h70.3a5.94,5.94,0,0,0,4.6-1.9v-7a5.79,5.79,0,0,1-4.6,1.9H89.1c-3.1,0-5.3,1.9-5.5,4.3a4,4,0,0,0-1,2.9v7a3.58,3.58,0,0,1,1-2.9C83.8,597.3,86,595.4,89.1,595.4Z"/><path class="cls-4" d="M419.3,362.3h71.9c2.6,0,3.6-2.4,3.6-4.8v-7c0,2.4-1,4.8-3.6,4.8H419.3c-3.1,0-6,2.2-6,4.8v7C413.3,364.4,416.2,362.3,419.3,362.3Z"/><path class="cls-4" d="M331.5,424.3c.2-2.4,3.8-4.3,7-4.3H409a5.94,5.94,0,0,0,4.6-1.9c0-.2-.2-.2-.2-.5v-6.3a6,6,0,0,1-4.3,1.7H338.6c-3.1,0-6.7,1.9-7,4.3-.7.7-2.2,1.7-2.2,2.9v7C329.4,426,330.8,425,331.5,424.3Z"/><path class="cls-4" d="M6.9,655.5H77.4c1.9,0,2.9-1,5.3-2.2v-7c-2.4,1.2-3.4,2.2-5.3,2.2H6.9c-3.4,0-5.8,2.2-5.8,4.8v7C1.1,657.7,3.5,655.5,6.9,655.5Z"/></g><text class="cls-5" transform="translate(847.57 99.23)"><tspan class="cls-6">0.</tspan><tspan x="20.28" y="0">0027 ml</tspan></text><text class="cls-5" transform="translate(764.86 157.06)"><tspan class="cls-6">0.</tspan><tspan x="20.28" y="0">027 ml</tspan></text><text class="cls-7" transform="translate(682.35 216.08)">0<tspan class="cls-8" x="14.59" y="0">.27 ml</tspan></text><text class="cls-5" transform="translate(602.23 275.11)">2<tspan class="cls-9" x="13.73" y="0">.</tspan><tspan x="19.56" y="0">7 ml</tspan></text><text class="cls-5" transform="translate(515.59 334.14)">27 ml</text><text class="cls-5" transform="translate(434.5 394.16)">270 ml </text><text class="cls-5" transform="translate(352.5 452.19)">2700 ml </text><text class="cls-5" transform="translate(268.5 511.2)">27000 ml</text><text class="cls-5" transform="translate(184.09 567.83)">270000 ml</text><text class="cls-5" transform="translate(102.49 624.46)">2700000 ml</text><text class="cls-5" transform="translate(20.65 688.55)">27000000 ml</text><text class="cls-10" transform="translate(781.7 666.52)"><tspan class="cls-11">V</tspan><tspan x="34.2" y="0">olume</tspan></text><path class="cls-12" d="M509.5,219.6V286a5.89,5.89,0,0,0,6,6h49a5.89,5.89,0,0,0,6-6V219.6Z"/><g class="cls-13"><path class="cls-14" d="M612.3,257.8h0v-6.5h0v-4.6h-1.4a9.69,9.69,0,0,1-6.5-2.4,1.15,1.15,0,0,0-1.7,0,9.69,9.69,0,0,1-6.5,2.4,10.68,10.68,0,0,1-6.5-2.4,1.15,1.15,0,0,0-1.7,0,9.38,9.38,0,0,1-6.2,2.4h-.5a9.51,9.51,0,0,1-5.8-2.4c-.2-.2-.5-.2-1-.2a1.5,1.5,0,0,0-1,.2,9.21,9.21,0,0,1-12.4,0c-.2-.2-.5-.2-1-.2a1.5,1.5,0,0,0-1,.2,9.51,9.51,0,0,1-5.8,2.4h-.5a9.38,9.38,0,0,1-6.2-2.4,1.15,1.15,0,0,0-1.7,0,9.69,9.69,0,0,1-6.5,2.4,10.68,10.68,0,0,1-6.5-2.4c-.2-.2-.5-.2-1-.2a2,2,0,0,0-1,.2,9.69,9.69,0,0,1-6.5,2.4,10.68,10.68,0,0,1-6.5-2.4,1.15,1.15,0,0,0-1.7,0,9.69,9.69,0,0,1-6.5,2.4,10.68,10.68,0,0,1-6.5-2.4,1.15,1.15,0,0,0-1.7,0,9.69,9.69,0,0,1-6.5,2.4,10.68,10.68,0,0,1-6.5-2.4,1.15,1.15,0,0,0-1.7,0,10.33,10.33,0,0,1-6.5,2.4h-1.4v1h0v71.8H611.3V257.8h1Z"/></g><text class="cls-15" transform="translate(510.61 246.89) scale(1.44 1)">-</text><text class="cls-15" transform="translate(510.61 254.59) scale(1.44 1)">-</text><text class="cls-15" transform="translate(510.61 262.52) scale(1.44 1)">-</text><text class="cls-15" transform="translate(510.61 270.21) scale(1.44 1)">-</text><text class="cls-15" transform="translate(510.61 277.9) scale(1.44 1)">-</text><text class="cls-15" transform="translate(510.61 239.52) scale(1.44 1)">-</text><ellipse class="cls-16" cx="539.7" cy="285.1" rx="23.8" ry="2.2"/><g class="cls-17"><text class="cls-18" transform="translate(529.81 267.66)"><tspan class="cls-19">2</tspan><tspan x="11.56" y="0">7</tspan></text><text class="cls-18" transform="translate(526.01 282.66)">mL</text></g><path class="cls-20" d="M509.5,219.6V286a5.89,5.89,0,0,0,6,6h49a5.89,5.89,0,0,0,6-6V219.6Z"/></svg>