<?xml version="1.0" encoding="utf-8"?>
<!-- Generator: Adobe Illustrator 18.1.1, SVG Export Plug-In . SVG Version: 6.00 Build 0)  -->
<svg version="1.1" id="Layer_1" xmlns="http://www.w3.org/2000/svg" xmlns:xlink="http://www.w3.org/1999/xlink" x="0px" y="0px"
	 viewBox="240.7 26 478.7 505.3" enable-background="new 240.7 26 478.7 505.3" xml:space="preserve">
<g>
	<circle fill="#B5B5B6" cx="480" cy="292.4" r="235.9"/>
	
		<circle fill="#EFEED3" stroke="#4A494A" stroke-width="2" stroke-linejoin="round" stroke-miterlimit="10" cx="480" cy="267.6" r="235.9"/>
	
		<circle fill="#FFFFFF" stroke="#C6C1A5" stroke-width="2" stroke-linejoin="round" stroke-miterlimit="10" cx="480" cy="267.6" r="207.1"/>
	<circle fill="#4A494A" cx="480" cy="267.6" r="7.1"/>
	<g>
		<text transform="matrix(1 0 0 1 459.6956 108.117)" fill="#6B6B6B" font-family="'TrebuchetMS'" font-size="44.4601">12</text>
	</g>
	<g>
		<text transform="matrix(1 0 0 1 466.9694 456.8813)" fill="#6B6B6B" font-family="'TrebuchetMS'" font-size="44.4601">6</text>
	</g>
	<g>
		<text transform="matrix(1 0 0 1 646.7857 282.9944)" fill="#6B6B6B" font-family="'TrebuchetMS'" font-size="44.4601">3</text>
	</g>
	<g>
		<text transform="matrix(1 0 0 1 629.0667 194.7313)" fill="#A09F9F" font-family="'TrebuchetMS'" font-size="31.6161">2</text>
	</g>
	<g>
		<text transform="matrix(1 0 0 1 571.111 132.8174)" fill="#A09F9F" font-family="'TrebuchetMS'" font-size="31.6161">1</text>
	</g>
	<g>
		<text transform="matrix(1 0 0 1 304.6152 194.7313)" fill="#A09F9F" font-family="'TrebuchetMS'" font-size="31.6161">10</text>
	</g>
	<g>
		<text transform="matrix(1 0 0 1 629.0667 360.7156)" fill="#A09F9F" font-family="'TrebuchetMS'" font-size="31.6161">4</text>
	</g>
	<g>
		<text transform="matrix(1 0 0 1 312.9034 368.6201)" fill="#A09F9F" font-family="'TrebuchetMS'" font-size="31.6161">8</text>
	</g>
	<g>
		<text transform="matrix(1 0 0 1 357.3177 132.8174)" fill="#A09F9F" font-family="'TrebuchetMS'" font-size="31.6161">11</text>
	</g>
	<g>
		<text transform="matrix(1 0 0 1 571.111 429.2173)" fill="#A09F9F" font-family="'TrebuchetMS'" font-size="31.6161">5</text>
	</g>
	<g>
		<text transform="matrix(1 0 0 1 373.5123 429.2173)" fill="#A09F9F" font-family="'TrebuchetMS'" font-size="31.6161">7</text>
	</g>
	<g>
		<text transform="matrix(1 0 0 1 287.1531 282.9944)" fill="#6B6B6B" font-family="'TrebuchetMS'" font-size="44.4601">9</text>
	</g>
	<polygon id="pointer" fill="#4A494A" points="492.1,157.7 480.6,146.2 479.8,147 479.4,146.2 467.6,157.7 472.7,162.8 476.3,158.9 
		476.3,267.6 483.4,267.6 483.4,158.9 487.3,162.8 	" />
</g>
</svg>
