<?xml version="1.0" encoding="utf-8"?>
<!-- Generator: Adobe Illustrator 21.0.2, SVG Export Plug-In . SVG Version: 6.00 Build 0)  -->
<svg version="1.1" id="Layer_1" xmlns="http://www.w3.org/2000/svg" xmlns:xlink="http://www.w3.org/1999/xlink" x="0px" y="0px"
	 viewBox="0 0 50 50" style="enable-background:new 0 0 50 50;" xml:space="preserve">
<style type="text/css">
	.st0{fill:#F66000;}
</style>
<path class="st0" d="M25,3c-8.3,0-15,6.7-15,15c0,5.1,1.9,8.1,3.8,10.2c0.9,1,1.8,1.9,2.4,2.7c0.6,0.8,0.9,1.4,0.9,2.2v5v1v4
	c0,1.6,1.4,3,3,3h1.2c0.4,1.7,2,3,3.8,3s3.4-1.3,3.8-3H30c1.6,0,3-1.4,3-3v-4v-1v-5c0-1.1,0.3-1.9,0.9-2.7s1.4-1.6,2.3-2.6
	c1.8-2,3.8-4.7,3.8-9.7C40,9.7,33.3,3,25,3z M25,5c7.2,0,13,5.8,13,13c0,4.5-1.6,6.5-3.2,8.3c-0.8,0.9-1.7,1.7-2.5,2.8
	c-0.7,1-1.3,2.3-1.3,3.9v5H19v-5c0-1.3-0.6-2.5-1.3-3.4s-1.6-1.8-2.4-2.8C13.6,24.9,12,22.6,12,18C12,10.8,17.8,5,25,5z M20.9,18
	c0,0-0.1,0-0.1,0c-0.5,0.1-0.9,0.6-0.8,1.2c0,0.2,0.1,0.4,0.3,0.6l3.7,3.7V36h2V23.4l3.7-3.7c0.4-0.4,0.4-1,0-1.4s-1-0.4-1.4,0
	L25,21.6l-3.3-3.3C21.5,18.1,21.2,17.9,20.9,18z M19,40h12v3c0,0.6-0.4,1-1,1h-7.8c-0.1,0-0.3,0-0.4,0H20c-0.6,0-1-0.4-1-1V40z
	 M23.3,46h3.4c-0.3,0.6-1,1-1.7,1S23.6,46.6,23.3,46z"/>
</svg>
