<?xml version="1.0" encoding="UTF-8"?>
<svg id="Spectrum" xmlns="http://www.w3.org/2000/svg" xmlns:xlink="http://www.w3.org/1999/xlink" viewBox="0 0 425.2 425.2">
  <defs>
    <style>
      .cls-1 {
        fill: #f655ae;
      }

      .cls-2 {
        fill: #f62a84;
      }

      .cls-3 {
        fill: #f3f8aa;
      }

      .cls-4 {
        fill: #f3fbd5;
      }

      .cls-5 {
        fill: #fb4e2a;
      }

      .cls-6 {
        fill: #f7001b;
      }

      .cls-7 {
        fill: #f70000;
      }

      .cls-8 {
        fill: #f70035;
      }

      .cls-9 {
        fill: #f70050;
      }

      .cls-10 {
        fill: #f7d6ef;
      }

      .cls-11 {
        fill: #fa558a;
      }

      .cls-12 {
        fill: #fa5578;
      }

      .cls-13 {
        fill: #fa5567;
      }

      .cls-14 {
        fill: #fa5555;
      }

      .cls-15 {
        fill: #fa2b00;
      }

      .cls-16 {
        fill: #f97fc2;
      }

      .cls-17 {
        fill: #fb7f7f;
      }

      .cls-18 {
        fill: #fb7fa8;
      }

      .cls-19 {
        fill: #fb7f9a;
      }

      .cls-20 {
        fill: #fb7f8d;
      }

      .cls-21 {
        fill: #f9fbd5;
      }

      .cls-22 {
        fill: #fc5500;
      }

      .cls-23 {
        fill: #faaadf;
      }

      .cls-24 {
        fill: #fa7fb5;
      }

      .cls-25 {
        fill: #005255;
      }

      .cls-26 {
        fill: #005615;
      }

      .cls-27 {
        fill: #00552a;
      }

      .cls-28 {
        fill: #005800;
      }

      .cls-29 {
        fill: #011828;
      }

      .cls-30 {
        fill: #00516a;
      }

      .cls-31 {
        fill: #005440;
      }

      .cls-32 {
        fill: #00507f;
      }

      .cls-33 {
        fill: #00391c;
      }

      .cls-34 {
        fill: #003b00;
      }

      .cls-35 {
        fill: #003647;
      }

      .cls-36 {
        fill: #003739;
      }

      .cls-37 {
        fill: #00382b;
      }

      .cls-38 {
        fill: #003555;
      }

      .cls-39 {
        fill: #003a0e;
      }

      .cls-40 {
        fill: #0478c7;
      }

      .cls-41 {
        fill: #052545;
      }

      .cls-42 {
        fill: #031323;
      }

      .cls-43 {
        fill: #024877;
      }

      .cls-44 {
        fill: #023050;
      }

      .cls-45 {
        fill: #031020;
      }

      .cls-46 {
        fill: #00ab55;
      }

      .cls-47 {
        fill: #00a5aa;
      }

      .cls-48 {
        fill: #00a880;
      }

      .cls-49 {
        fill: #00ad2b;
      }

      .cls-50 {
        fill: #00b000;
      }

      .cls-51 {
        fill: #007500;
      }

      .cls-52 {
        fill: #006baa;
      }

      .cls-53 {
        fill: #006d8e;
      }

      .cls-54 {
        fill: #007055;
      }

      .cls-55 {
        fill: #006e71;
      }

      .cls-56 {
        fill: #03609f;
      }

      .cls-57 {
        fill: #054070;
      }

      .cls-58 {
        fill: #050b1b;
      }

      .cls-59 {
        fill: #042b4b;
      }

      .cls-60 {
        fill: #001b23;
      }

      .cls-61 {
        fill: #001b2a;
      }

      .cls-62 {
        fill: #001c0e;
      }

      .cls-63 {
        fill: #001c15;
      }

      .cls-64 {
        fill: #001d07;
      }

      .cls-65 {
        fill: #001d00;
      }

      .cls-66 {
        fill: #001b1c;
      }

      .cls-67 {
        fill: #008a8e;
      }

      .cls-68 {
        fill: #0085d5;
      }

      .cls-69 {
        fill: #0088b2;
      }

      .cls-70 {
        fill: #008c6b;
      }

      .cls-71 {
        fill: #008f47;
      }

      .cls-72 {
        fill: #009024;
      }

      .cls-73 {
        fill: #021525;
      }

      .cls-74 {
        fill: #009300;
      }

      .cls-75 {
        fill: #007239;
      }

      .cls-76 {
        fill: #00731d;
      }

      .cls-77 {
        fill: #f42a99;
      }

      .cls-78 {
        fill: #ef00a0;
      }

      .cls-79 {
        fill: #eef47f;
      }

      .cls-80 {
        fill: #f4006b;
      }

      .cls-81 {
        fill: #f1d8ef;
      }

      .cls-82 {
        fill: #f8559c;
      }

      .cls-83 {
        fill: #f82a6d;
      }

      .cls-84 {
        fill: #f82a41;
      }

      .cls-85 {
        fill: #f82a57;
      }

      .cls-86 {
        fill: #f82a2a;
      }

      .cls-87 {
        fill: #f77fd0;
      }

      .cls-88 {
        fill: #e7f6aa;
      }

      .cls-89 {
        fill: #e8f055;
      }

      .cls-90 {
        fill: #eeaedf;
      }

      .cls-91 {
        fill: #edfad5;
      }

      .cls-92 {
        fill: #ffe3d5;
      }

      .cls-93 {
        fill: #fff;
      }

      .cls-94 {
        fill: #fffcd5;
      }

      .cls-95 {
        fill: #ffdc55;
      }

      .cls-96 {
        fill: #fff0d5;
      }

      .cls-97 {
        fill: #ffe1aa;
      }

      .cls-98 {
        fill: #ffef00;
      }

      .cls-99 {
        fill: #ffedaa;
      }

      .cls-100 {
        fill: #fff77f;
      }

      .cls-101 {
        fill: #fff6d5;
      }

      .cls-102 {
        fill: #fffaaa;
      }

      .cls-103 {
        fill: #fff455;
      }

      .cls-104 {
        fill: #ffead5;
      }

      .cls-105 {
        fill: #fff22a;
      }

      .cls-106 {
        fill: #ffe57f;
      }

      .cls-107 {
        fill: #f455c0;
      }

      .cls-108 {
        fill: #f20085;
      }

      .cls-109 {
        fill: #ffca00;
      }

      .cls-110 {
        fill: #ffd5aa;
      }

      .cls-111 {
        fill: #fd8e55;
      }

      .cls-112 {
        fill: #ffc07f;
      }

      .cls-113 {
        fill: orange;
      }

      .cls-114 {
        fill: #fc7255;
      }

      .cls-115 {
        fill: #fcd5ef;
      }

      .cls-116 {
        fill: #ffd27f;
      }

      .cls-117 {
        fill: #ffd32a;
      }

      .cls-118 {
        fill: #ffc355;
      }

      .cls-119 {
        fill: #fa5;
      }

      .cls-120 {
        fill: #ffb42a;
      }

      .cls-121 {
        fill: #fedcd5;
      }

      .cls-122 {
        fill: #fcaabc;
      }

      .cls-123 {
        fill: #fcaab3;
      }

      .cls-124 {
        fill: #fd712a;
      }

      .cls-125 {
        fill: #fcaac5;
      }

      .cls-126 {
        fill: #fcaaaa;
      }

      .cls-127 {
        fill: #fd957f;
      }

      .cls-128 {
        fill: #e5f7d5;
      }

      .cls-129 {
        fill: #fbaad6;
      }

      .cls-130 {
        fill: #fbaace;
      }

      .cls-131 {
        fill: #ebdaef;
      }

      .cls-132 {
        fill: #fdb8aa;
      }

      .cls-133 {
        fill: #fdd5eb;
      }

      .cls-134 {
        fill: #fdd5e6;
      }

      .cls-135 {
        fill: #e2ed2a;
      }

      .cls-136 {
        fill: #e3b1df;
      }

      .cls-137 {
        fill: #f22ab0;
      }

      .cls-138 {
        fill: #e5dcef;
      }

      .cls-139 {
        fill: #e685d0;
      }

      .cls-140 {
        fill: #ff952a;
      }

      .cls-141 {
        fill: #fec6aa;
      }

      .cls-142 {
        fill: #ff8000;
      }

      .cls-143 {
        fill: #feaa7f;
      }

      .cls-144 {
        fill: #fed5d9;
      }

      .cls-145 {
        fill: #fed5e2;
      }

      .cls-146 {
        fill: #fed5d5;
      }

      .cls-147 {
        fill: #fed5dd;
      }

      .cls-148 {
        fill: #7f4000;
      }

      .cls-149 {
        fill: #7f5200;
      }

      .cls-150 {
        fill: #7f4eb0;
      }

      .cls-151 {
        fill: #7fd695;
      }

      .cls-152 {
        fill: #7fd4c0;
      }

      .cls-153 {
        fill: #7fd2d5;
      }

      .cls-154 {
        fill: #7fd5aa;
      }

      .cls-155 {
        fill: #7f7700;
      }

      .cls-156 {
        fill: #7f6500;
      }

      .cls-157 {
        fill: #7dd72a;
      }

      .cls-158 {
        fill: #660550;
      }

      .cls-159 {
        fill: #63cf00;
      }

      .cls-160 {
        fill: #678aca;
      }

      .cls-161 {
        fill: #95de00;
      }

      .cls-162 {
        fill: #97df55;
      }

      .cls-163 {
        fill: #9872c0;
      }

      .cls-164 {
        fill: #6a80c0;
      }

      .cls-165 {
        fill: #7cb900;
      }

      .cls-166 {
        fill: #7e2a00;
      }

      .cls-167 {
        fill: #00a3d5;
      }

      .cls-168 {
        fill: #00a0ff;
      }

      .cls-169 {
        fill: #040d1d;
      }

      .cls-170 {
        fill: #8ab0e0;
      }

      .cls-171 {
        fill: #a10059;
      }

      .cls-172 {
        fill: #939b00;
      }

      .cls-173 {
        fill: #8820a0;
      }

      .cls-174 {
        fill: #b8e955;
      }

      .cls-175 {
        fill: #b5bfdf;
      }

      .cls-176 {
        fill: #b8e400;
      }

      .cls-177 {
        fill: #9f006b;
      }

      .cls-178 {
        fill: #a30047;
      }

      .cls-179 {
        fill: #a19ad0;
      }

      .cls-180 {
        fill: #8e1285;
      }

      .cls-181 {
        fill: #90a0d0;
      }

      .cls-182 {
        fill: #b3c5e5;
      }

      .cls-183 {
        fill: #b83cb0;
      }

      .cls-184 {
        fill: #321550;
      }

      .cls-185 {
        fill: #2fa3f2;
      }

      .cls-186 {
        fill: #324a00;
      }

      .cls-187 {
        fill: #8da8d8;
      }

      .cls-188 {
        fill: #b7c200;
      }

      .cls-189 {
        fill: #d02400;
      }

      .cls-190 {
        fill: #b06ac0;
      }

      .cls-191 {
        fill: #aa6e00;
      }

      .cls-192 {
        fill: #ab0985;
      }

      .cls-193 {
        fill: #a50;
      }

      .cls-194 {
        fill: #aa15a0;
      }

      .cls-195 {
        fill: #b1caea;
      }

      .cls-196 {
        fill: #a71d00;
      }

      .cls-197 {
        fill: #dadfef;
      }

      .cls-198 {
        fill: #aa9f00;
      }

      .cls-199 {
        fill: #afcfef;
      }

      .cls-200 {
        fill: #d7e7f7;
      }

      .cls-201 {
        fill: #acdafa;
      }

      .cls-202 {
        fill: #b295d0;
      }

      .cls-203 {
        fill: #b1e77f;
      }

      .cls-204 {
        fill: #bbeaaa;
      }

      .cls-205 {
        fill: #a83900;
      }

      .cls-206 {
        fill: #aae2d5;
      }

      .cls-207 {
        fill: #aae1e3;
      }

      .cls-208 {
        fill: #aae5aa;
      }

      .cls-209 {
        fill: #aae4b8;
      }

      .cls-210 {
        fill: #aae0f1;
      }

      .cls-211 {
        fill: #aadfff;
      }

      .cls-212 {
        fill: #aae3c6;
      }

      .cls-213 {
        fill: #c0bcdf;
      }

      .cls-214 {
        fill: #d6eafa;
      }

      .cls-215 {
        fill: #d7b5df;
      }

      .cls-216 {
        fill: #aa8700;
      }

      .cls-217 {
        fill: #ccb8df;
      }

      .cls-218 {
        fill: #cbefaa;
      }

      .cls-219 {
        fill: #cd0ba0;
      }

      .cls-220 {
        fill: #c4e92a;
      }

      .cls-221 {
        fill: #d24700;
      }

      .cls-222 {
        fill: #ddf4d5;
      }

      .cls-223 {
        fill: #dce900;
      }

      .cls-224 {
        fill: #dcf4aa;
      }

      .cls-225 {
        fill: #ce0043;
      }

      .cls-226 {
        fill: #ce0017;
      }

      .cls-227 {
        fill: #ce002c;
      }

      .cls-228 {
        fill: #ce0000;
      }

      .cls-229 {
        fill: #caef7f;
      }

      .cls-230 {
        fill: #d0ed55;
      }

      .cls-231 {
        fill: #c490d0;
      }

      .cls-232 {
        fill: #c663c0;
      }

      .cls-233 {
        fill: #d58a00;
      }

      .cls-234 {
        fill: #d58ad0;
      }

      .cls-235 {
        fill: #de5cc0;
      }

      .cls-236 {
        fill: #d5c700;
      }

      .cls-237 {
        fill: #d534b0;
      }

      .cls-238 {
        fill: #d9e2f2;
      }

      .cls-239 {
        fill: #d8e5f5;
      }

      .cls-240 {
        fill: #e0ddef;
      }

      .cls-241 {
        fill: #aed5f5;
      }

      .cls-242 {
        fill: #d56b00;
      }

      .cls-243 {
        fill: #c70085;
      }

      .cls-244 {
        fill: #cb0059;
      }

      .cls-245 {
        fill: #dcf27f;
      }

      .cls-246 {
        fill: #ca006f;
      }

      .cls-247 {
        fill: #d5efff;
      }

      .cls-248 {
        fill: #d5edfc;
      }

      .cls-249 {
        fill: #d5a800;
      }

      .cls-250 {
        fill: #d5f2d5;
      }

      .cls-251 {
        fill: #d5f0f8;
      }

      .cls-252 {
        fill: #d5f1e3;
      }

      .cls-253 {
        fill: #d5f1ea;
      }

      .cls-254 {
        fill: #d5f1dc;
      }

      .cls-255 {
        fill: #d5f0f1;
      }

      .cls-256 {
        fill: #a7e42a;
      }

      .cls-257 {
        fill: #1070d0;
      }

      .cls-258 {
        fill: #114000;
      }

      .cls-259 {
        fill: #102200;
      }

      .cls-260 {
        fill: #123575;
      }

      .cls-261 {
        fill: #1250a0;
      }

      .cls-262 {
        fill: #174393;
      }

      .cls-263 {
        fill: #1560c0;
      }

      .cls-264 {
        fill: #17051b;
      }

      .cls-265 {
        fill: #252700;
      }

      .cls-266 {
        fill: #1f2600;
      }

      .cls-267 {
        fill: #2040a0;
      }

      .cls-268 {
        fill: #211a50;
      }

      .cls-269 {
        fill: #217f00;
      }

      .cls-270 {
        fill: #22021b;
      }

      .cls-271 {
        fill: #214500;
      }

      .cls-272 {
        fill: #220e35;
      }

      .cls-273 {
        fill: #0b4b8b;
      }

      .cls-274 {
        fill: #091b3b;
      }

      .cls-275 {
        fill: #083868;
      }

      .cls-276 {
        fill: #0b091b;
      }

      .cls-277 {
        fill: #082000;
      }

      .cls-278 {
        fill: #0b1535;
      }

      .cls-279 {
        fill: #416dbd;
      }

      .cls-280 {
        fill: #428a00;
      }

      .cls-281 {
        fill: #440435;
      }

      .cls-282 {
        fill: #441050;
      }

      .cls-283 {
        fill: #4335a0;
      }

      .cls-284 {
        fill: #102050;
      }

      .cls-285 {
        fill: #072040;
      }

      .cls-286 {
        fill: #0590ef;
      }

      .cls-287 {
        fill: #075595;
      }

      .cls-288 {
        fill: #152b6b;
      }

      .cls-289 {
        fill: #161235;
      }

      .cls-290 {
        fill: #096bbb;
      }

      .cls-291 {
        fill: #0a3060;
      }

      .cls-292 {
        fill: #0b80e0;
      }

      .cls-293 {
        fill: #11071b;
      }

      .cls-294 {
        fill: #0d5dad;
      }

      .cls-295 {
        fill: #0e4080;
      }

      .cls-296 {
        fill: #431d6b;
      }

      .cls-297 {
        fill: #3495e5;
      }

      .cls-298 {
        fill: #1b3585;
      }

      .cls-299 {
        fill: #192500;
      }

      .cls-300 {
        fill: #0d2858;
      }

      .cls-301 {
        fill: #3d4c00;
      }

      .cls-302 {
        fill: #1c031b;
      }

      .cls-303 {
        fill: #1b50b0;
      }

      .cls-304 {
        fill: #195f00;
      }

      .cls-305 {
        fill: #a50012;
      }

      .cls-306 {
        fill: #a50000;
      }

      .cls-307 {
        fill: #a50023;
      }

      .cls-308 {
        fill: #a50035;
      }

      .cls-309 {
        fill: #9c45b0;
      }

      .cls-310 {
        fill: #552b00;
      }

      .cls-311 {
        fill: #554300;
      }

      .cls-312 {
        fill: #550a50;
      }

      .cls-313 {
        fill: #542485;
      }

      .cls-314 {
        fill: #88b8e8;
      }

      .cls-315 {
        fill: #99df7f;
      }

      .cls-316 {
        fill: #99be00;
      }

      .cls-317 {
        fill: #6e7400;
      }

      .cls-318 {
        fill: #85c0f0;
      }

      .cls-319 {
        fill: #89076b;
      }

      .cls-320 {
        fill: #711b85;
      }

      .cls-321 {
        fill: #710e6b;
      }

      .cls-322 {
        fill: #7fd0ff;
      }

      .cls-323 {
        fill: #7fd1ea;
      }

      .cls-324 {
        fill: #8278c0;
      }

      .cls-325 {
        fill: #7fd87f;
      }

      .cls-326 {
        fill: #555000;
      }

      .cls-327 {
        fill: #652ba0;
      }

      .cls-328 {
        fill: #639400;
      }

      .cls-329 {
        fill: #6395d5;
      }

      .cls-330 {
        fill: #290000;
      }

      .cls-331 {
        fill: #290012;
      }

      .cls-332 {
        fill: #29000d;
      }

      .cls-333 {
        fill: #290004;
      }

      .cls-334 {
        fill: #290009;
      }

      .cls-335 {
        fill: #2a9f00;
      }

      .cls-336 {
        fill: #58b5f4;
      }

      .cls-337 {
        fill: #2a2200;
      }

      .cls-338 {
        fill: #2a1500;
      }

      .cls-339 {
        fill: #2a1b00;
      }

      .cls-340 {
        fill: #54ca2a;
      }

      .cls-341 {
        fill: #4a6f00;
      }

      .cls-342 {
        fill: #2a2800;
      }

      .cls-343 {
        fill: #2a0700;
      }

      .cls-344 {
        fill: #2a0e00;
      }

      .cls-345 {
        fill: #2ab0ff;
      }

      .cls-346 {
        fill: #2ab2dc;
      }

      .cls-347 {
        fill: #2ab795;
      }

      .cls-348 {
        fill: #2ab4b8;
      }

      .cls-349 {
        fill: #2ab971;
      }

      .cls-350 {
        fill: #2abb4e;
      }

      .cls-351 {
        fill: #2abd2a;
      }

      .cls-352 {
        fill: #2d0b35;
      }

      .cls-353 {
        fill: #2d236b;
      }

      .cls-354 {
        fill: #5c7200;
      }

      .cls-355 {
        fill: #382c85;
      }

      .cls-356 {
        fill: #390735;
      }

      .cls-357 {
        fill: #316700;
      }

      .cls-358 {
        fill: #32bf00;
      }

      .cls-359 {
        fill: #3c7bcb;
      }

      .cls-360 {
        fill: #5b156b;
      }

      .cls-361 {
        fill: #3888d8;
      }

      .cls-362 {
        fill: #55c872;
      }

      .cls-363 {
        fill: #55c78e;
      }

      .cls-364 {
        fill: #55c5aa;
      }

      .cls-365 {
        fill: #55ca55;
      }

      .cls-366 {
        fill: #55c0ff;
      }

      .cls-367 {
        fill: #55c2e3;
      }

      .cls-368 {
        fill: #55c3c6;
      }

      .cls-369 {
        fill: #82c8f7;
      }

      .cls-370 {
        fill: #60a0e0;
      }

      .cls-371 {
        fill: #6257b0;
      }

      .cls-372 {
        fill: #494e00;
      }

      .cls-373 {
        fill: #553700;
      }

      .cls-374 {
        fill: #541c00;
      }

      .cls-375 {
        fill: #4560b0;
      }

      .cls-376 {
        fill: #53ad00;
      }

      .cls-377 {
        fill: #7b001a;
      }

      .cls-378 {
        fill: #7b000d;
      }

      .cls-379 {
        fill: #7b0028;
      }

      .cls-380 {
        fill: #7b0000;
      }

      .cls-381 {
        fill: #7a0035;
      }

      .cls-382 {
        fill: #5caaea;
      }

      .cls-383 {
        fill: #530e00;
      }

      .cls-384 {
        fill: #76d455;
      }

      .cls-385 {
        fill: #790042;
      }

      .cls-386 {
        fill: #52001b;
      }

      .cls-387 {
        fill: #520012;
      }

      .cls-388 {
        fill: #520009;
      }

      .cls-389 {
        fill: #520000;
      }

      .cls-390 {
        fill: #510024;
      }

      .cls-391 {
        fill: #51002c;
      }

      .cls-392 {
        fill: #770050;
      }

      .cls-393 {
        fill: #28001b;
      }

      .cls-394 {
        fill: #280016;
      }

      .cls-395 {
        fill: #7d1500;
      }

      .cls-396 {
        fill: #7b9800;
      }

      .cls-397 {
        fill: #500035;
      }

      .cls-398 {
        fill: url(#radial-gradient);
      }
    </style>
    <radialGradient id="radial-gradient" cx="212.6" cy="212.6" fx="212.6" fy="212.6" r="178.38" gradientTransform="translate(413.79 -10.83) rotate(87)" gradientUnits="userSpaceOnUse">
      <stop offset="0" stop-color="#000"/>
      <stop offset=".62" stop-color="gray"/>
      <stop offset="1" stop-color="#fff"/>
    </radialGradient>
  </defs>
  <rect class="cls-93" y="0" width="425.2" height="425.2"/>
  <g>
    <circle class="cls-398" cx="212.6" cy="212.6" r="178.39" transform="translate(-10.83 413.79) rotate(-87)"/>
    <polygon class="cls-200" points="212.6 390.98 229.03 400.39 243.57 388.27 227.15 378.9 212.6 390.98"/>
    <polygon class="cls-199" points="255.8 373.85 239.36 364.38 227.15 378.9 243.57 388.27 255.8 373.85"/>
    <polygon class="cls-170" points="224.8 352.14 212.6 366.73 227.15 378.9 239.36 364.38 224.8 352.14"/>
    <polygon class="cls-329" points="234.28 335.59 224.8 352.14 239.36 364.38 248.85 347.9 234.28 335.59"/>
    <polygon class="cls-279" points="212.6 337.49 224.8 352.14 234.28 335.59 222.08 321.02 212.6 337.49"/>
    <polygon class="cls-298" points="212.6 304.64 222.08 321.02 228.58 303.24 219.11 287.06 212.6 304.64"/>
    <polygon class="cls-288" points="222.48 268.64 219.11 287.06 228.58 303.24 231.94 284.8 222.48 268.64"/>
    <polygon class="cls-268" points="212.6 269.51 219.11 287.06 222.48 268.64 215.96 251.03 212.6 269.51"/>
    <polygon class="cls-289" points="216.01 231.96 215.96 251.03 222.48 268.64 222.58 249.87 216.01 231.96"/>
    <polygon class="cls-293" points="212.6 232.25 215.96 251.03 216.01 231.96 212.6 212.6 212.6 232.25"/>
    <polygon class="cls-214" points="243.57 388.27 261.39 394.69 273.61 380.23 255.8 373.85 243.57 388.27"/>
    <polygon class="cls-241" points="283.15 363.89 265.31 357.43 255.8 373.85 273.61 380.23 283.15 363.89"/>
    <polygon class="cls-314" points="248.85 347.9 239.36 364.38 255.8 373.85 265.31 357.43 248.85 347.9"/>
    <polygon class="cls-370" points="255.31 329.95 248.85 347.9 265.31 357.43 271.8 339.55 255.31 329.95"/>
    <polygon class="cls-359" points="234.28 335.59 248.85 347.9 255.31 329.95 240.77 317.73 234.28 335.59"/>
    <polygon class="cls-262" points="228.58 303.24 240.77 317.73 244.08 299.09 231.94 284.8 228.58 303.24"/>
    <polygon class="cls-260" points="232.06 266.08 231.94 284.8 244.08 299.09 244.19 280.34 232.06 266.08"/>
    <polygon class="cls-284" points="222.48 268.64 231.94 284.8 232.06 266.08 222.58 249.87 222.48 268.64"/>
    <polygon class="cls-278" points="219.32 231.07 222.58 249.87 232.06 266.08 228.9 247.57 219.32 231.07"/>
    <polygon class="cls-276" points="216.01 231.96 222.58 249.87 219.32 231.07 212.6 212.6 216.01 231.96"/>
    <polygon class="cls-248" points="273.61 380.23 292.27 383.45 301.79 367.08 283.15 363.89 273.61 380.23"/>
    <polygon class="cls-201" points="308.35 349.34 289.66 346.08 283.15 363.89 301.79 367.08 308.35 349.34"/>
    <polygon class="cls-318" points="271.8 339.55 265.31 357.43 283.15 363.89 289.66 346.08 271.8 339.55"/>
    <polygon class="cls-382" points="275.04 320.75 271.8 339.55 289.66 346.08 292.94 327.34 275.04 320.75"/>
    <polygon class="cls-361" points="255.31 329.95 271.8 339.55 275.04 320.75 258.6 311.24 255.31 329.95"/>
    <polygon class="cls-261" points="244.08 299.09 258.6 311.24 258.62 292.31 244.19 280.34 244.08 299.09"/>
    <polygon class="cls-295" points="241.05 261.88 244.19 280.34 258.62 292.31 255.47 273.83 241.05 261.88"/>
    <polygon class="cls-300" points="232.06 266.08 244.19 280.34 241.05 261.88 228.9 247.57 232.06 266.08"/>
    <polygon class="cls-274" points="222.43 229.62 228.9 247.57 241.05 261.88 234.73 244.2 222.43 229.62"/>
    <polygon class="cls-58" points="219.32 231.07 228.9 247.57 222.43 229.62 212.6 212.6 219.32 231.07"/>
    <polygon class="cls-247" points="301.79 367.09 320.72 367.02 327.26 349.25 308.35 349.35 301.79 367.09"/>
    <polygon class="cls-211" points="330.64 330.64 311.67 330.67 308.35 349.35 327.26 349.25 330.64 330.64"/>
    <polygon class="cls-369" points="292.94 327.34 289.66 346.08 308.35 349.35 311.67 330.67 292.94 327.34"/>
    <polygon class="cls-336" points="292.87 308.27 292.94 327.34 311.67 330.67 311.65 311.65 292.87 308.27"/>
    <polygon class="cls-297" points="275.04 320.75 292.94 327.34 292.87 308.27 275.03 301.75 275.04 320.75"/>
    <polygon class="cls-294" points="258.62 292.31 275.03 301.75 271.76 283.11 255.47 273.83 258.62 292.31"/>
    <polygon class="cls-273" points="249.18 256.19 255.47 273.83 271.76 283.11 265.45 265.45 249.18 256.19"/>
    <polygon class="cls-291" points="241.05 261.88 255.47 273.83 249.18 256.19 234.73 244.2 241.05 261.88"/>
    <polygon class="cls-285" points="225.23 227.66 234.73 244.2 249.18 256.19 239.88 239.88 225.23 227.66"/>
    <polygon class="cls-169" points="222.43 229.62 234.73 244.2 225.23 227.66 212.6 212.6 222.43 229.62"/>
    <polygon class="cls-251" points="327.26 349.25 345.89 345.9 349.25 327.26 330.64 330.64 327.26 349.25"/>
    <polygon class="cls-210" points="349.34 308.35 330.67 311.67 330.64 330.64 349.25 327.26 349.34 308.35"/>
    <polygon class="cls-322" points="311.65 311.65 311.67 330.67 330.64 330.64 330.67 311.67 311.65 311.65"/>
    <polygon class="cls-366" points="308.27 292.87 311.65 311.65 330.67 311.67 327.34 292.95 308.27 292.87"/>
    <polygon class="cls-185" points="292.88 308.27 311.65 311.65 308.27 292.87 289.56 289.56 292.88 308.27"/>
    <polygon class="cls-290" points="271.76 283.11 289.56 289.56 283.1 271.76 265.45 265.45 271.76 283.11"/>
    <polygon class="cls-287" points="256.19 249.18 265.45 265.45 283.1 271.76 273.82 255.47 256.19 249.18"/>
    <polygon class="cls-275" points="249.18 256.19 265.45 265.45 256.19 249.18 239.88 239.88 249.18 256.19"/>
    <polygon class="cls-41" points="227.66 225.24 239.88 239.88 256.19 249.18 244.2 234.73 227.66 225.24"/>
    <polygon class="cls-45" points="225.23 227.66 239.88 239.88 227.66 225.24 212.6 212.6 225.23 227.66"/>
    <polygon class="cls-255" points="349.25 327.26 367.02 320.73 367.08 301.79 349.34 308.35 349.25 327.26"/>
    <polygon class="cls-207" points="363.89 283.15 346.08 289.66 349.34 308.35 367.08 301.79 363.89 283.15"/>
    <polygon class="cls-323" points="327.34 292.95 330.67 311.67 349.34 308.35 346.08 289.66 327.34 292.95"/>
    <polygon class="cls-367" points="320.75 275.04 327.34 292.95 346.08 289.66 339.55 271.8 320.75 275.04"/>
    <polygon class="cls-345" points="308.27 292.87 327.34 292.95 320.75 275.04 301.75 275.03 308.27 292.87"/>
    <polygon class="cls-40" points="283.1 271.76 301.75 275.03 292.31 258.62 273.82 255.47 283.1 271.76"/>
    <polygon class="cls-56" points="261.88 241.05 273.82 255.47 292.31 258.62 280.34 244.19 261.88 241.05"/>
    <polygon class="cls-57" points="256.19 249.18 273.82 255.47 261.88 241.05 244.2 234.73 256.19 249.18"/>
    <polygon class="cls-59" points="229.62 222.43 244.2 234.73 261.88 241.05 247.57 228.9 229.62 222.43"/>
    <polygon class="cls-42" points="227.66 225.24 244.2 234.73 229.62 222.43 212.6 212.6 227.66 225.24"/>
    <polygon class="cls-253" points="367.08 301.79 383.45 292.27 380.22 273.61 363.89 283.15 367.08 301.79"/>
    <polygon class="cls-206" points="373.85 255.81 357.43 265.31 363.89 283.15 380.22 273.61 373.85 255.81"/>
    <polygon class="cls-153" points="339.55 271.8 346.08 289.66 363.89 283.15 357.43 265.31 339.55 271.8"/>
    <polygon class="cls-368" points="329.95 255.31 339.55 271.8 357.43 265.31 347.9 248.86 329.95 255.31"/>
    <polygon class="cls-346" points="320.75 275.04 339.55 271.8 329.95 255.31 311.24 258.6 320.75 275.04"/>
    <polygon class="cls-68" points="292.31 258.62 311.24 258.6 299.09 244.08 280.34 244.19 292.31 258.62"/>
    <polygon class="cls-52" points="266.08 232.06 280.34 244.19 299.09 244.08 284.79 231.95 266.08 232.06"/>
    <polygon class="cls-43" points="261.88 241.05 280.34 244.19 266.08 232.06 247.56 228.91 261.88 241.05"/>
    <polygon class="cls-44" points="231.07 219.32 247.56 228.91 266.08 232.06 249.87 222.58 231.07 219.32"/>
    <polygon class="cls-73" points="229.62 222.43 247.56 228.91 231.07 219.32 212.6 212.6 229.62 222.43"/>
    <polygon class="cls-252" points="380.23 273.61 394.69 261.39 388.27 243.58 373.85 255.81 380.23 273.61"/>
    <polygon class="cls-212" points="378.9 227.15 364.39 239.36 373.85 255.81 388.27 243.58 378.9 227.15"/>
    <polygon class="cls-152" points="347.9 248.86 357.43 265.31 373.85 255.81 364.39 239.36 347.9 248.86"/>
    <polygon class="cls-364" points="335.59 234.29 347.9 248.86 364.39 239.36 352.14 224.81 335.59 234.29"/>
    <polygon class="cls-348" points="329.95 255.31 347.9 248.86 335.59 234.29 317.73 240.77 329.95 255.31"/>
    <polygon class="cls-69" points="299.09 244.08 317.73 240.77 303.24 228.58 284.79 231.95 299.09 244.08"/>
    <polygon class="cls-53" points="268.64 222.48 284.79 231.95 303.24 228.58 287.06 219.12 268.64 222.48"/>
    <polygon class="cls-32" points="266.08 232.06 284.79 231.95 268.64 222.48 249.87 222.59 266.08 232.06"/>
    <polygon class="cls-38" points="231.96 216.01 249.87 222.59 268.64 222.48 251.03 215.96 231.96 216.01"/>
    <polygon class="cls-29" points="231.07 219.32 249.87 222.59 231.96 216.01 212.6 212.6 231.07 219.32"/>
    <polygon class="cls-254" points="388.28 243.58 400.39 229.03 390.98 212.6 378.9 227.15 388.28 243.58"/>
    <polygon class="cls-209" points="378.9 198.05 366.73 212.6 378.9 227.15 390.98 212.6 378.9 198.05"/>
    <polygon class="cls-154" points="352.14 224.81 364.39 239.36 378.9 227.15 366.73 212.6 352.14 224.81"/>
    <polygon class="cls-363" points="337.48 212.6 352.14 224.81 366.73 212.6 352.14 200.39 337.48 212.6"/>
    <polygon class="cls-347" points="335.59 234.29 352.14 224.81 337.48 212.6 321.02 222.09 335.59 234.29"/>
    <polygon class="cls-67" points="303.24 228.58 321.02 222.09 304.64 212.6 287.06 219.12 303.24 228.58"/>
    <polygon class="cls-55" points="269.51 212.6 287.06 219.12 304.64 212.6 287.06 206.09 269.51 212.6"/>
    <polygon class="cls-30" points="268.64 222.48 287.06 219.12 269.51 212.6 251.03 215.96 268.64 222.48"/>
    <polygon class="cls-35" points="232.26 212.6 251.03 215.96 269.51 212.6 251.03 209.24 232.26 212.6"/>
    <polygon class="cls-61" points="231.96 216.01 251.03 215.96 232.26 212.6 212.6 212.6 231.96 216.01"/>
    <polygon class="cls-250" points="390.98 212.6 400.39 196.17 388.27 181.62 378.9 198.05 390.98 212.6"/>
    <polygon class="cls-208" points="373.85 169.39 364.39 185.83 378.9 198.05 388.27 181.62 373.85 169.39"/>
    <polygon class="cls-151" points="352.14 200.39 366.73 212.6 378.9 198.05 364.39 185.83 352.14 200.39"/>
    <polygon class="cls-362" points="335.59 190.91 352.14 200.39 364.39 185.83 347.91 176.34 335.59 190.91"/>
    <polygon class="cls-349" points="337.48 212.6 352.14 200.39 335.59 190.91 321.02 203.12 337.48 212.6"/>
    <polygon class="cls-70" points="304.64 212.6 321.02 203.12 303.24 196.62 287.06 206.09 304.64 212.6"/>
    <polygon class="cls-54" points="268.64 202.72 287.06 206.09 303.24 196.62 284.8 193.26 268.64 202.72"/>
    <polygon class="cls-25" points="269.51 212.6 287.06 206.09 268.64 202.72 251.03 209.24 269.51 212.6"/>
    <polygon class="cls-36" points="231.96 209.19 251.03 209.24 268.64 202.72 249.87 202.61 231.96 209.19"/>
    <polygon class="cls-60" points="232.26 212.6 251.03 209.24 231.96 209.19 212.6 212.6 232.26 212.6"/>
    <polygon class="cls-222" points="388.28 181.63 394.69 163.81 380.23 151.59 373.85 169.39 388.28 181.63"/>
    <polygon class="cls-204" points="363.89 142.05 357.43 159.88 373.85 169.39 380.23 151.59 363.89 142.05"/>
    <polygon class="cls-325" points="347.91 176.34 364.39 185.83 373.85 169.39 357.43 159.88 347.91 176.34"/>
    <polygon class="cls-365" points="329.95 169.89 347.91 176.34 357.43 159.88 339.55 153.4 329.95 169.89"/>
    <polygon class="cls-350" points="335.59 190.91 347.91 176.34 329.95 169.89 317.73 184.43 335.59 190.91"/>
    <polygon class="cls-71" points="303.24 196.62 317.73 184.43 299.09 181.12 284.8 193.26 303.24 196.62"/>
    <polygon class="cls-75" points="266.08 193.13 284.8 193.26 299.09 181.12 280.34 181.01 266.08 193.13"/>
    <polygon class="cls-31" points="268.64 202.72 284.8 193.26 266.08 193.13 249.87 202.62 268.64 202.72"/>
    <polygon class="cls-37" points="231.07 205.88 249.87 202.62 266.08 193.13 247.57 196.29 231.07 205.88"/>
    <polygon class="cls-66" points="231.96 209.19 249.87 202.62 231.07 205.88 212.6 212.6 231.96 209.19"/>
    <polygon class="cls-128" points="380.23 151.59 383.45 132.93 367.09 123.41 363.89 142.05 380.23 151.59"/>
    <polygon class="cls-218" points="349.34 116.85 346.08 135.53 363.89 142.05 367.09 123.41 349.34 116.85"/>
    <polygon class="cls-315" points="339.55 153.4 357.43 159.88 363.89 142.05 346.08 135.53 339.55 153.4"/>
    <polygon class="cls-384" points="320.75 150.16 339.55 153.4 346.08 135.53 327.35 132.25 320.75 150.16"/>
    <polygon class="cls-351" points="329.95 169.89 339.55 153.4 320.75 150.16 311.24 166.6 329.95 169.89"/>
    <polygon class="cls-72" points="299.09 181.12 311.24 166.6 292.31 166.58 280.34 181.01 299.09 181.12"/>
    <polygon class="cls-76" points="261.88 184.14 280.34 181.01 292.31 166.58 273.83 169.73 261.88 184.14"/>
    <polygon class="cls-27" points="266.08 193.13 280.34 181.01 261.88 184.14 247.57 196.3 266.08 193.13"/>
    <polygon class="cls-33" points="229.62 202.77 247.57 196.3 261.88 184.14 244.2 190.47 229.62 202.77"/>
    <polygon class="cls-63" points="231.07 205.88 247.57 196.3 229.62 202.77 212.6 212.6 231.07 205.88"/>
    <polygon class="cls-91" points="367.09 123.41 367.02 104.47 349.25 97.94 349.35 116.85 367.09 123.41"/>
    <polygon class="cls-224" points="330.64 94.56 330.67 113.53 349.35 116.85 349.25 97.94 330.64 94.56"/>
    <polygon class="cls-203" points="327.35 132.25 346.08 135.53 349.35 116.85 330.67 113.53 327.35 132.25"/>
    <polygon class="cls-162" points="308.27 132.33 327.35 132.25 330.67 113.53 311.65 113.55 308.27 132.33"/>
    <polygon class="cls-340" points="320.75 150.16 327.35 132.25 308.27 132.33 301.76 150.17 320.75 150.16"/>
    <polygon class="cls-74" points="292.31 166.58 301.76 150.17 283.11 153.44 273.83 169.73 292.31 166.58"/>
    <polygon class="cls-51" points="256.2 176.02 273.83 169.73 283.11 153.44 265.46 159.75 256.2 176.02"/>
    <polygon class="cls-26" points="261.88 184.14 273.83 169.73 256.2 176.02 244.2 190.47 261.88 184.14"/>
    <polygon class="cls-39" points="227.66 199.96 244.2 190.47 256.2 176.02 239.88 185.32 227.66 199.96"/>
    <polygon class="cls-62" points="229.62 202.77 244.2 190.47 227.66 199.96 212.6 212.6 229.62 202.77"/>
    <polygon class="cls-4" points="349.25 97.94 345.9 79.3 327.26 75.95 330.64 94.56 349.25 97.94"/>
    <polygon class="cls-88" points="308.35 75.86 311.67 94.53 330.64 94.56 327.26 75.95 308.35 75.86"/>
    <polygon class="cls-229" points="311.65 113.55 330.67 113.53 330.64 94.56 311.67 94.53 311.65 113.55"/>
    <polygon class="cls-174" points="292.88 116.93 311.65 113.55 311.67 94.53 292.95 97.85 292.88 116.93"/>
    <polygon class="cls-157" points="308.27 132.32 311.65 113.55 292.88 116.93 289.56 135.64 308.27 132.32"/>
    <polygon class="cls-335" points="283.11 153.44 289.56 135.64 271.76 142.09 265.46 159.75 283.11 153.44"/>
    <polygon class="cls-269" points="249.18 169 265.46 159.75 271.76 142.09 255.47 151.37 249.18 169"/>
    <polygon class="cls-28" points="256.2 176.02 265.46 159.75 249.18 169 239.88 185.32 256.2 176.02"/>
    <polygon class="cls-34" points="225.24 197.54 239.88 185.32 249.18 169 234.73 181 225.24 197.54"/>
    <polygon class="cls-64" points="227.66 199.96 239.88 185.32 225.24 197.54 212.6 212.6 227.66 199.96"/>
    <polygon class="cls-21" points="327.27 75.95 320.73 58.18 301.79 58.11 308.35 75.85 327.27 75.95"/>
    <polygon class="cls-3" points="283.15 61.31 289.66 79.12 308.35 75.85 301.79 58.11 283.15 61.31"/>
    <polygon class="cls-245" points="292.95 97.85 311.67 94.53 308.35 75.85 289.66 79.12 292.95 97.85"/>
    <polygon class="cls-230" points="275.04 104.45 292.95 97.85 289.66 79.12 271.8 85.64 275.04 104.45"/>
    <polygon class="cls-256" points="292.87 116.93 292.95 97.85 275.04 104.45 275.03 123.44 292.87 116.93"/>
    <polygon class="cls-376" points="271.76 142.09 275.03 123.44 258.62 132.89 255.47 151.37 271.76 142.09"/>
    <polygon class="cls-280" points="241.05 163.31 255.47 151.37 258.62 132.89 244.19 144.86 241.05 163.31"/>
    <polygon class="cls-304" points="249.18 169 255.47 151.37 241.05 163.31 234.73 181 249.18 169"/>
    <polygon class="cls-258" points="222.43 195.58 234.73 181 241.05 163.31 228.9 177.63 222.43 195.58"/>
    <polygon class="cls-65" points="225.24 197.54 234.73 181 222.43 195.58 212.6 212.6 225.24 197.54"/>
    <polygon class="cls-94" points="301.79 58.11 292.27 41.75 273.61 44.97 283.15 61.31 301.79 58.11"/>
    <polygon class="cls-102" points="255.81 51.35 265.31 67.77 283.15 61.31 273.61 44.97 255.81 51.35"/>
    <polygon class="cls-79" points="271.8 85.64 289.66 79.12 283.15 61.31 265.31 67.77 271.8 85.64"/>
    <polygon class="cls-89" points="255.31 95.25 271.8 85.64 265.31 67.77 248.86 77.29 255.31 95.25"/>
    <polygon class="cls-220" points="275.04 104.45 271.8 85.64 255.31 95.25 258.6 113.96 275.04 104.45"/>
    <polygon class="cls-165" points="258.62 132.89 258.6 113.96 244.08 126.11 244.19 144.86 258.62 132.89"/>
    <polygon class="cls-328" points="232.06 159.12 244.19 144.86 244.08 126.11 231.95 140.4 232.06 159.12"/>
    <polygon class="cls-357" points="241.05 163.31 244.19 144.86 232.06 159.12 228.91 177.63 241.05 163.31"/>
    <polygon class="cls-271" points="219.32 194.13 228.91 177.63 232.06 159.12 222.58 175.33 219.32 194.13"/>
    <polygon class="cls-277" points="222.43 195.58 228.91 177.63 219.32 194.13 212.6 212.6 222.43 195.58"/>
    <polygon class="cls-101" points="273.62 44.97 261.39 30.51 243.58 36.92 255.81 51.35 273.62 44.97"/>
    <polygon class="cls-99" points="227.15 46.3 239.36 60.81 255.81 51.35 243.58 36.92 227.15 46.3"/>
    <polygon class="cls-100" points="248.86 77.29 265.31 67.77 255.81 51.35 239.36 60.81 248.86 77.29"/>
    <polygon class="cls-103" points="234.29 89.61 248.86 77.29 239.36 60.81 224.81 73.05 234.29 89.61"/>
    <polygon class="cls-135" points="255.31 95.25 248.86 77.29 234.29 89.61 240.77 107.47 255.31 95.25"/>
    <polygon class="cls-316" points="244.08 126.11 240.77 107.47 228.58 121.96 231.95 140.4 244.08 126.11"/>
    <polygon class="cls-396" points="222.48 156.55 231.95 140.4 228.58 121.96 219.12 138.14 222.48 156.55"/>
    <polygon class="cls-341" points="232.06 159.12 231.95 140.4 222.48 156.55 222.59 175.33 232.06 159.12"/>
    <polygon class="cls-186" points="216.01 193.24 222.59 175.33 222.48 156.55 215.96 174.17 216.01 193.24"/>
    <polygon class="cls-259" points="219.32 194.13 222.59 175.33 216.01 193.24 212.6 212.6 219.32 194.13"/>
    <polygon class="cls-96" points="243.58 36.92 229.03 24.8 212.6 34.21 227.15 46.3 243.58 36.92"/>
    <polygon class="cls-97" points="198.05 46.3 212.6 58.47 227.15 46.3 212.6 34.21 198.05 46.3"/>
    <polygon class="cls-106" points="224.81 73.05 239.36 60.81 227.15 46.3 212.6 58.47 224.81 73.05"/>
    <polygon class="cls-95" points="212.6 87.72 224.81 73.05 212.6 58.47 200.39 73.05 212.6 87.72"/>
    <polygon class="cls-105" points="234.29 89.61 224.81 73.05 212.6 87.72 222.09 104.17 234.29 89.61"/>
    <polygon class="cls-188" points="228.58 121.96 222.09 104.17 212.6 120.56 219.12 138.14 228.58 121.96"/>
    <polygon class="cls-172" points="212.6 155.69 219.12 138.14 212.6 120.56 206.09 138.14 212.6 155.69"/>
    <polygon class="cls-354" points="222.48 156.55 219.12 138.14 212.6 155.69 215.96 174.17 222.48 156.55"/>
    <polygon class="cls-301" points="212.6 192.94 215.96 174.17 212.6 155.69 209.24 174.17 212.6 192.94"/>
    <polygon class="cls-299" points="216.01 193.24 215.96 174.17 212.6 192.94 212.6 212.6 216.01 193.24"/>
    <polygon class="cls-104" points="212.6 34.21 196.17 24.8 181.63 36.92 198.05 46.3 212.6 34.21"/>
    <polygon class="cls-110" points="169.39 51.35 185.83 60.81 198.05 46.3 181.63 36.92 169.39 51.35"/>
    <polygon class="cls-116" points="200.39 73.05 212.6 58.47 198.05 46.3 185.83 60.81 200.39 73.05"/>
    <polygon class="cls-118" points="190.91 89.61 200.39 73.05 185.83 60.81 176.34 77.29 190.91 89.61"/>
    <polygon class="cls-117" points="212.6 87.71 200.39 73.05 190.91 89.61 203.12 104.17 212.6 87.71"/>
    <polygon class="cls-236" points="212.6 120.56 203.12 104.17 196.62 121.96 206.09 138.14 212.6 120.56"/>
    <polygon class="cls-198" points="202.72 156.55 206.09 138.14 196.62 121.96 193.26 140.4 202.72 156.55"/>
    <polygon class="cls-317" points="212.6 155.69 206.09 138.14 202.72 156.55 209.24 174.17 212.6 155.69"/>
    <polygon class="cls-372" points="209.19 193.24 209.24 174.17 202.72 156.55 202.61 175.33 209.19 193.24"/>
    <polygon class="cls-266" points="212.6 192.94 209.24 174.17 209.19 193.24 212.6 212.6 212.6 192.94"/>
    <polygon class="cls-92" points="181.63 36.92 163.81 30.51 151.59 44.97 169.4 51.35 181.63 36.92"/>
    <polygon class="cls-141" points="142.05 61.3 159.88 67.77 169.4 51.35 151.59 44.97 142.05 61.3"/>
    <polygon class="cls-112" points="176.34 77.29 185.83 60.81 169.4 51.35 159.88 67.77 176.34 77.29"/>
    <polygon class="cls-119" points="169.89 95.25 176.34 77.29 159.88 67.77 153.4 85.64 169.89 95.25"/>
    <polygon class="cls-120" points="190.91 89.61 176.34 77.29 169.89 95.25 184.43 107.47 190.91 89.61"/>
    <polygon class="cls-249" points="196.62 121.96 184.43 107.47 181.12 126.11 193.26 140.4 196.62 121.96"/>
    <polygon class="cls-216" points="193.14 159.12 193.26 140.4 181.12 126.11 181.01 144.85 193.14 159.12"/>
    <polygon class="cls-155" points="202.72 156.55 193.26 140.4 193.14 159.12 202.62 175.33 202.72 156.55"/>
    <polygon class="cls-326" points="205.88 194.13 202.62 175.33 193.14 159.12 196.3 177.63 205.88 194.13"/>
    <polygon class="cls-265" points="209.19 193.24 202.62 175.33 205.88 194.13 212.6 212.6 209.19 193.24"/>
    <polygon class="cls-121" points="151.59 44.97 132.93 41.75 123.41 58.11 142.05 61.3 151.59 44.97"/>
    <polygon class="cls-132" points="116.85 75.85 135.53 79.12 142.05 61.3 123.41 58.11 116.85 75.85"/>
    <polygon class="cls-143" points="153.4 85.64 159.88 67.77 142.05 61.3 135.53 79.12 153.4 85.64"/>
    <polygon class="cls-111" points="150.16 104.45 153.4 85.64 135.53 79.12 132.25 97.85 150.16 104.45"/>
    <polygon class="cls-140" points="169.89 95.25 153.4 85.64 150.16 104.45 166.6 113.96 169.89 95.25"/>
    <polygon class="cls-233" points="181.12 126.11 166.6 113.96 166.58 132.89 181.01 144.85 181.12 126.11"/>
    <polygon class="cls-191" points="184.15 163.31 181.01 144.85 166.58 132.89 169.73 151.37 184.15 163.31"/>
    <polygon class="cls-156" points="193.14 159.12 181.01 144.85 184.15 163.31 196.3 177.63 193.14 159.12"/>
    <polygon class="cls-311" points="202.77 195.57 196.3 177.63 184.15 163.31 190.47 181 202.77 195.57"/>
    <polygon class="cls-342" points="205.88 194.13 196.3 177.63 202.77 195.57 212.6 212.6 205.88 194.13"/>
    <polygon class="cls-146" points="123.41 58.11 104.48 58.18 97.94 75.95 116.85 75.85 123.41 58.11"/>
    <polygon class="cls-126" points="94.56 94.56 113.53 94.53 116.85 75.85 97.94 75.95 94.56 94.56"/>
    <polygon class="cls-127" points="132.25 97.85 135.53 79.12 116.85 75.85 113.53 94.53 132.25 97.85"/>
    <polygon class="cls-114" points="132.33 116.93 132.25 97.85 113.53 94.53 113.55 113.55 132.33 116.93"/>
    <polygon class="cls-124" points="150.16 104.45 132.25 97.85 132.33 116.93 150.17 123.44 150.16 104.45"/>
    <polygon class="cls-242" points="166.58 132.89 150.17 123.44 153.44 142.09 169.73 151.37 166.58 132.89"/>
    <polygon class="cls-193" points="176.02 169 169.73 151.37 153.44 142.09 159.75 159.74 176.02 169"/>
    <polygon class="cls-149" points="184.15 163.31 169.73 151.37 176.02 169 190.47 180.99 184.15 163.31"/>
    <polygon class="cls-373" points="199.96 197.54 190.47 180.99 176.02 169 185.32 185.32 199.96 197.54"/>
    <polygon class="cls-337" points="202.77 195.57 190.47 180.99 199.96 197.54 212.6 212.6 202.77 195.57"/>
    <polygon class="cls-144" points="97.94 75.94 79.3 79.3 75.95 97.93 94.56 94.56 97.94 75.94"/>
    <polygon class="cls-123" points="75.85 116.85 94.53 113.53 94.56 94.56 75.95 97.93 75.85 116.85"/>
    <polygon class="cls-17" points="113.55 113.55 113.53 94.53 94.56 94.56 94.53 113.53 113.55 113.55"/>
    <polygon class="cls-14" points="116.93 132.32 113.55 113.55 94.53 113.53 97.85 132.25 116.93 132.32"/>
    <polygon class="cls-5" points="132.33 116.93 113.55 113.55 116.93 132.32 135.64 135.63 132.33 116.93"/>
    <polygon class="cls-221" points="153.44 142.09 135.64 135.63 142.09 153.44 159.75 159.74 153.44 142.09"/>
    <polygon class="cls-205" points="169 176.02 159.75 159.74 142.09 153.44 151.37 169.72 169 176.02"/>
    <polygon class="cls-148" points="176.02 169 159.75 159.74 169 176.02 185.32 185.32 176.02 169"/>
    <polygon class="cls-310" points="197.54 199.96 185.32 185.32 169 176.02 181 190.47 197.54 199.96"/>
    <polygon class="cls-339" points="199.96 197.54 185.32 185.32 197.54 199.96 212.6 212.6 199.96 197.54"/>
    <polygon class="cls-147" points="75.95 97.93 58.18 104.47 58.11 123.4 75.86 116.85 75.95 97.93"/>
    <polygon class="cls-122" points="61.31 142.05 79.12 135.54 75.86 116.85 58.11 123.4 61.31 142.05"/>
    <polygon class="cls-20" points="97.85 132.25 94.53 113.53 75.86 116.85 79.12 135.54 97.85 132.25"/>
    <polygon class="cls-13" points="104.45 150.16 97.85 132.25 79.12 135.54 85.64 153.4 104.45 150.16"/>
    <polygon class="cls-86" points="116.93 132.32 97.85 132.25 104.45 150.16 123.44 150.17 116.93 132.32"/>
    <polygon class="cls-189" points="142.09 153.44 123.44 150.17 132.89 166.58 151.37 169.72 142.09 153.44"/>
    <polygon class="cls-196" points="163.31 184.14 151.37 169.72 132.89 166.58 144.86 181.01 163.31 184.14"/>
    <polygon class="cls-166" points="169 176.02 151.37 169.72 163.31 184.14 181 190.47 169 176.02"/>
    <polygon class="cls-374" points="195.58 202.77 181 190.47 163.31 184.14 177.63 196.29 195.58 202.77"/>
    <polygon class="cls-338" points="197.54 199.96 181 190.47 195.58 202.77 212.6 212.6 197.54 199.96"/>
    <polygon class="cls-145" points="58.11 123.4 41.75 132.93 44.97 151.59 61.31 142.05 58.11 123.4"/>
    <polygon class="cls-125" points="51.35 169.39 67.77 159.88 61.31 142.05 44.97 151.59 51.35 169.39"/>
    <polygon class="cls-19" points="85.64 153.4 79.12 135.54 61.31 142.05 67.77 159.88 85.64 153.4"/>
    <polygon class="cls-12" points="95.25 169.88 85.64 153.4 67.77 159.88 77.29 176.34 95.25 169.88"/>
    <polygon class="cls-84" points="104.45 150.15 85.64 153.4 95.25 169.88 113.96 166.6 104.45 150.15"/>
    <polygon class="cls-228" points="132.89 166.58 113.96 166.6 126.11 181.12 144.86 181.01 132.89 166.58"/>
    <polygon class="cls-306" points="159.12 193.13 144.86 181.01 126.11 181.12 140.4 193.25 159.12 193.13"/>
    <polygon class="cls-395" points="163.31 184.14 144.86 181.01 159.12 193.13 177.63 196.29 163.31 184.14"/>
    <polygon class="cls-383" points="194.13 205.87 177.63 196.29 159.12 193.13 175.33 202.61 194.13 205.87"/>
    <polygon class="cls-344" points="195.58 202.77 177.63 196.29 194.13 205.87 212.6 212.6 195.58 202.77"/>
    <polygon class="cls-134" points="44.97 151.58 30.51 163.81 36.93 181.62 51.35 169.39 44.97 151.58"/>
    <polygon class="cls-130" points="46.3 198.05 60.81 185.84 51.35 169.39 36.93 181.62 46.3 198.05"/>
    <polygon class="cls-18" points="77.29 176.34 67.77 159.88 51.35 169.39 60.81 185.84 77.29 176.34"/>
    <polygon class="cls-11" points="89.61 190.91 77.29 176.34 60.81 185.84 73.05 200.39 89.61 190.91"/>
    <polygon class="cls-85" points="95.25 169.88 77.29 176.34 89.61 190.91 107.47 184.43 95.25 169.88"/>
    <polygon class="cls-226" points="126.11 181.12 107.47 184.43 121.96 196.61 140.4 193.25 126.11 181.12"/>
    <polygon class="cls-305" points="156.55 202.71 140.4 193.25 121.96 196.61 138.14 206.08 156.55 202.71"/>
    <polygon class="cls-380" points="159.12 193.13 140.4 193.25 156.55 202.71 175.33 202.61 159.12 193.13"/>
    <polygon class="cls-389" points="193.24 209.18 175.33 202.61 156.55 202.71 174.17 209.24 193.24 209.18"/>
    <polygon class="cls-343" points="194.13 205.87 175.33 202.61 193.24 209.18 212.6 212.6 194.13 205.87"/>
    <polygon class="cls-133" points="36.92 181.62 24.81 196.17 34.21 212.6 46.3 198.05 36.92 181.62"/>
    <polygon class="cls-129" points="46.3 227.15 58.47 212.6 46.3 198.05 34.21 212.6 46.3 227.15"/>
    <polygon class="cls-24" points="73.05 200.39 60.81 185.84 46.3 198.05 58.47 212.6 73.05 200.39"/>
    <polygon class="cls-82" points="87.72 212.6 73.05 200.39 58.47 212.6 73.05 224.81 87.72 212.6"/>
    <polygon class="cls-83" points="89.61 190.91 73.05 200.39 87.72 212.6 104.18 203.11 89.61 190.91"/>
    <polygon class="cls-227" points="121.96 196.61 104.18 203.11 120.56 212.6 138.14 206.08 121.96 196.61"/>
    <polygon class="cls-307" points="155.69 212.6 138.14 206.08 120.56 212.6 138.14 219.11 155.69 212.6"/>
    <polygon class="cls-378" points="156.55 202.71 138.14 206.08 155.69 212.6 174.17 209.23 156.55 202.71"/>
    <polygon class="cls-388" points="192.94 212.6 174.17 209.23 155.69 212.6 174.17 215.96 192.94 212.6"/>
    <polygon class="cls-330" points="193.24 209.18 174.17 209.23 192.94 212.6 212.6 212.6 193.24 209.18"/>
    <polygon class="cls-115" points="34.21 212.6 24.8 229.03 36.92 243.57 46.3 227.15 34.21 212.6"/>
    <polygon class="cls-23" points="51.35 255.8 60.81 239.36 46.3 227.15 36.92 243.57 51.35 255.8"/>
    <polygon class="cls-16" points="73.05 224.81 58.47 212.6 46.3 227.15 60.81 239.36 73.05 224.81"/>
    <polygon class="cls-1" points="89.61 234.28 73.05 224.81 60.81 239.36 77.29 248.85 89.61 234.28"/>
    <polygon class="cls-2" points="87.72 212.6 73.05 224.81 89.61 234.28 104.17 222.08 87.72 212.6"/>
    <polygon class="cls-225" points="120.56 212.6 104.17 222.08 121.96 228.58 138.14 219.11 120.56 212.6"/>
    <polygon class="cls-308" points="156.55 222.48 138.14 219.11 121.96 228.58 140.4 231.94 156.55 222.48"/>
    <polygon class="cls-377" points="155.69 212.6 138.14 219.11 156.55 222.48 174.17 215.96 155.69 212.6"/>
    <polygon class="cls-387" points="193.24 216.01 174.17 215.96 156.55 222.48 175.33 222.58 193.24 216.01"/>
    <polygon class="cls-333" points="192.94 212.6 174.17 215.96 193.24 216.01 212.6 212.6 192.94 212.6"/>
    <polygon class="cls-10" points="36.92 243.57 30.51 261.39 44.97 273.61 51.35 255.8 36.92 243.57"/>
    <polygon class="cls-90" points="61.31 283.15 67.77 265.31 51.35 255.8 44.97 273.61 61.31 283.15"/>
    <polygon class="cls-87" points="77.29 248.85 60.81 239.36 51.35 255.8 67.77 265.31 77.29 248.85"/>
    <polygon class="cls-107" points="95.25 255.31 77.29 248.85 67.77 265.31 85.64 271.8 95.25 255.31"/>
    <polygon class="cls-77" points="89.61 234.28 77.29 248.85 95.25 255.31 107.47 240.76 89.61 234.28"/>
    <polygon class="cls-244" points="121.96 228.58 107.47 240.76 126.11 244.08 140.4 231.94 121.96 228.58"/>
    <polygon class="cls-178" points="159.12 232.06 140.4 231.94 126.11 244.08 144.85 244.18 159.12 232.06"/>
    <polygon class="cls-379" points="156.55 222.48 140.4 231.94 159.12 232.06 175.33 222.58 156.55 222.48"/>
    <polygon class="cls-386" points="194.13 219.32 175.33 222.58 159.12 232.06 177.63 228.9 194.13 219.32"/>
    <polygon class="cls-334" points="193.24 216.01 175.33 222.58 194.13 219.32 212.6 212.6 193.24 216.01"/>
    <polygon class="cls-81" points="44.97 273.61 41.75 292.27 58.11 301.79 61.3 283.15 44.97 273.61"/>
    <polygon class="cls-136" points="75.85 308.35 79.12 289.66 61.3 283.15 58.11 301.79 75.85 308.35"/>
    <polygon class="cls-139" points="85.64 271.8 67.77 265.31 61.3 283.15 79.12 289.66 85.64 271.8"/>
    <polygon class="cls-235" points="104.45 275.04 85.64 271.8 79.12 289.66 97.85 292.94 104.45 275.04"/>
    <polygon class="cls-137" points="95.25 255.31 85.64 271.8 104.45 275.04 113.95 258.59 95.25 255.31"/>
    <polygon class="cls-246" points="126.11 244.08 113.95 258.59 132.89 258.62 144.85 244.18 126.11 244.08"/>
    <polygon class="cls-171" points="163.31 241.05 144.85 244.18 132.89 258.62 151.37 255.47 163.31 241.05"/>
    <polygon class="cls-381" points="159.12 232.06 144.85 244.18 163.31 241.05 177.63 228.9 159.12 232.06"/>
    <polygon class="cls-390" points="195.58 222.43 177.63 228.9 163.31 241.05 181 234.73 195.58 222.43"/>
    <polygon class="cls-332" points="194.13 219.32 177.63 228.9 195.58 222.43 212.6 212.6 194.13 219.32"/>
    <polygon class="cls-131" points="58.11 301.79 58.18 320.72 75.95 327.26 75.85 308.35 58.11 301.79"/>
    <polygon class="cls-215" points="94.56 330.64 94.53 311.67 75.85 308.35 75.95 327.26 94.56 330.64"/>
    <polygon class="cls-234" points="97.85 292.94 79.12 289.66 75.85 308.35 94.53 311.67 97.85 292.94"/>
    <polygon class="cls-232" points="116.93 292.87 97.85 292.94 94.53 311.67 113.55 311.65 116.93 292.87"/>
    <polygon class="cls-237" points="104.45 275.04 97.85 292.94 116.93 292.87 123.44 275.02 104.45 275.04"/>
    <polygon class="cls-243" points="132.89 258.62 123.44 275.02 142.09 271.76 151.37 255.47 132.89 258.62"/>
    <polygon class="cls-177" points="169 249.18 151.37 255.47 142.09 271.76 159.74 265.45 169 249.18"/>
    <polygon class="cls-385" points="163.31 241.05 151.37 255.47 169 249.18 181 234.73 163.31 241.05"/>
    <polygon class="cls-391" points="197.54 225.23 181 234.73 169 249.18 185.32 239.88 197.54 225.23"/>
    <polygon class="cls-331" points="195.58 222.43 181 234.73 197.54 225.23 212.6 212.6 195.58 222.43"/>
    <polygon class="cls-138" points="75.94 327.26 79.3 345.9 97.93 349.25 94.56 330.64 75.94 327.26"/>
    <polygon class="cls-217" points="116.85 349.34 113.53 330.67 94.56 330.64 97.93 349.25 116.85 349.34"/>
    <polygon class="cls-231" points="113.55 311.65 94.53 311.67 94.56 330.64 113.53 330.67 113.55 311.65"/>
    <polygon class="cls-190" points="132.32 308.26 113.55 311.65 113.53 330.67 132.25 327.34 132.32 308.26"/>
    <polygon class="cls-183" points="116.93 292.87 113.55 311.65 132.32 308.26 135.64 289.56 116.93 292.87"/>
    <polygon class="cls-192" points="142.09 271.76 135.64 289.56 153.44 283.1 159.74 265.45 142.09 271.76"/>
    <polygon class="cls-319" points="176.02 256.19 159.74 265.45 153.44 283.1 169.72 273.82 176.02 256.19"/>
    <polygon class="cls-392" points="169 249.18 159.74 265.45 176.02 256.19 185.32 239.88 169 249.18"/>
    <polygon class="cls-397" points="199.96 227.66 185.32 239.88 176.02 256.19 190.47 244.2 199.96 227.66"/>
    <polygon class="cls-394" points="197.54 225.23 185.32 239.88 199.96 227.66 212.6 212.6 197.54 225.23"/>
    <polygon class="cls-240" points="97.93 349.25 104.47 367.02 123.4 367.08 116.85 349.34 97.93 349.25"/>
    <polygon class="cls-213" points="142.05 363.89 135.54 346.08 116.85 349.34 123.4 367.08 142.05 363.89"/>
    <polygon class="cls-202" points="132.25 327.34 113.53 330.67 116.85 349.34 135.54 346.08 132.25 327.34"/>
    <polygon class="cls-163" points="150.16 320.75 132.25 327.34 135.54 346.08 153.4 339.55 150.16 320.75"/>
    <polygon class="cls-309" points="132.32 308.26 132.25 327.34 150.16 320.75 150.17 301.75 132.32 308.26"/>
    <polygon class="cls-180" points="153.44 283.1 150.17 301.75 166.58 292.31 169.72 273.82 153.44 283.1"/>
    <polygon class="cls-321" points="184.14 261.88 169.72 273.82 166.58 292.31 181.01 280.34 184.14 261.88"/>
    <polygon class="cls-158" points="176.02 256.19 169.72 273.82 184.14 261.88 190.47 244.2 176.02 256.19"/>
    <polygon class="cls-281" points="202.77 229.62 190.47 244.2 184.14 261.88 196.29 247.56 202.77 229.62"/>
    <polygon class="cls-393" points="199.96 227.66 190.47 244.2 202.77 229.62 212.6 212.6 199.96 227.66"/>
    <polygon class="cls-197" points="123.4 367.08 132.93 383.45 151.59 380.22 142.05 363.89 123.4 367.08"/>
    <polygon class="cls-175" points="169.39 373.84 159.89 357.43 142.05 363.89 151.59 380.22 169.39 373.84"/>
    <polygon class="cls-179" points="153.4 339.55 135.54 346.08 142.05 363.89 159.89 357.43 153.4 339.55"/>
    <polygon class="cls-324" points="169.89 329.95 153.4 339.55 159.89 357.43 176.34 347.9 169.89 329.95"/>
    <polygon class="cls-150" points="150.16 320.75 153.4 339.55 169.89 329.95 166.6 311.24 150.16 320.75"/>
    <polygon class="cls-320" points="166.58 292.31 166.6 311.24 181.12 299.09 181.01 280.34 166.58 292.31"/>
    <polygon class="cls-360" points="193.13 266.08 181.01 280.34 181.12 299.09 193.25 284.8 193.13 266.08"/>
    <polygon class="cls-312" points="184.14 261.88 181.01 280.34 193.13 266.08 196.29 247.56 184.14 261.88"/>
    <polygon class="cls-356" points="205.87 231.07 196.29 247.56 193.13 266.08 202.61 249.86 205.87 231.07"/>
    <polygon class="cls-270" points="202.77 229.62 196.29 247.56 205.87 231.07 212.6 212.6 202.77 229.62"/>
    <polygon class="cls-238" points="151.58 380.23 163.81 394.69 181.62 388.27 169.39 373.84 151.58 380.23"/>
    <polygon class="cls-182" points="198.05 378.9 185.84 364.38 169.39 373.84 181.62 388.27 198.05 378.9"/>
    <polygon class="cls-181" points="176.34 347.9 159.89 357.43 169.39 373.84 185.84 364.38 176.34 347.9"/>
    <polygon class="cls-164" points="190.91 335.58 176.34 347.9 185.84 364.38 200.39 352.15 190.91 335.58"/>
    <polygon class="cls-371" points="169.89 329.95 176.34 347.9 190.91 335.58 184.43 317.73 169.89 329.95"/>
    <polygon class="cls-313" points="181.12 299.09 184.43 317.73 196.61 303.24 193.25 284.8 181.12 299.09"/>
    <polygon class="cls-296" points="202.71 268.64 193.25 284.8 196.61 303.24 206.08 287.06 202.71 268.64"/>
    <polygon class="cls-282" points="193.13 266.08 193.25 284.8 202.71 268.64 202.61 249.86 193.13 266.08"/>
    <polygon class="cls-352" points="209.18 231.96 202.61 249.86 202.71 268.64 209.24 251.03 209.18 231.96"/>
    <polygon class="cls-302" points="205.87 231.07 202.61 249.86 209.18 231.96 212.6 212.6 205.87 231.07"/>
    <polygon class="cls-239" points="181.62 388.27 196.17 400.39 212.6 390.98 198.05 378.9 181.62 388.27"/>
    <polygon class="cls-195" points="227.15 378.9 212.6 366.73 198.05 378.9 212.6 390.98 227.15 378.9"/>
    <polygon class="cls-187" points="200.39 352.15 185.84 364.38 198.05 378.9 212.6 366.73 200.39 352.15"/>
    <polygon class="cls-160" points="212.6 337.48 200.39 352.15 212.6 366.73 224.81 352.15 212.6 337.48"/>
    <polygon class="cls-375" points="190.91 335.58 200.39 352.15 212.6 337.48 203.11 321.02 190.91 335.58"/>
    <polygon class="cls-355" points="196.61 303.24 203.11 321.02 212.6 304.64 206.08 287.06 196.61 303.24"/>
    <polygon class="cls-353" points="212.6 269.51 206.08 287.06 212.6 304.64 219.11 287.06 212.6 269.51"/>
    <polygon class="cls-184" points="202.71 268.64 206.08 287.06 212.6 269.51 209.23 251.03 202.71 268.64"/>
    <polygon class="cls-272" points="212.6 232.25 209.23 251.03 212.6 269.51 215.96 251.03 212.6 232.25"/>
    <polygon class="cls-264" points="209.18 231.96 209.23 251.03 212.6 232.25 212.6 212.6 209.18 231.96"/>
    <polygon class="cls-49" points="299.09 181.12 317.73 184.43 329.95 169.89 311.24 166.6 299.09 181.12"/>
    <polygon class="cls-46" points="303.24 196.62 321.02 203.12 335.59 190.91 317.73 184.43 303.24 196.62"/>
    <polygon class="cls-48" points="304.64 212.6 321.02 222.09 337.48 212.6 321.02 203.12 304.64 212.6"/>
    <polygon class="cls-47" points="303.24 228.58 317.73 240.77 335.59 234.29 321.02 222.09 303.24 228.58"/>
    <polygon class="cls-167" points="299.09 244.08 311.24 258.6 329.95 255.31 317.73 240.77 299.09 244.08"/>
    <polygon class="cls-168" points="292.31 258.62 301.75 275.03 320.75 275.04 311.24 258.6 292.31 258.62"/>
    <polygon class="cls-286" points="283.1 271.76 289.56 289.56 308.27 292.87 301.75 275.03 283.1 271.76"/>
    <polygon class="cls-292" points="271.76 283.11 275.03 301.75 292.87 308.27 289.56 289.56 271.76 283.11"/>
    <polygon class="cls-257" points="258.62 292.31 258.6 311.24 275.04 320.75 275.03 301.75 258.62 292.31"/>
    <polygon class="cls-263" points="244.08 299.09 240.77 317.73 255.31 329.95 258.6 311.24 244.08 299.09"/>
    <polygon class="cls-303" points="228.58 303.24 222.08 321.02 234.28 335.59 240.77 317.73 228.58 303.24"/>
    <polygon class="cls-267" points="212.6 304.64 203.11 321.02 212.6 337.48 222.08 321.02 212.6 304.64"/>
    <polygon class="cls-283" points="196.61 303.24 184.43 317.73 190.91 335.58 203.11 321.02 196.61 303.24"/>
    <polygon class="cls-327" points="181.12 299.09 166.6 311.24 169.89 329.95 184.43 317.73 181.12 299.09"/>
    <polygon class="cls-173" points="166.58 292.31 150.17 301.75 150.16 320.75 166.6 311.24 166.58 292.31"/>
    <polygon class="cls-194" points="153.44 283.1 135.64 289.56 132.32 308.26 150.17 301.75 153.44 283.1"/>
    <polygon class="cls-219" points="142.09 271.76 123.44 275.02 116.93 292.87 135.64 289.56 142.09 271.76"/>
    <polygon class="cls-78" points="132.89 258.62 113.95 258.59 104.45 275.04 123.44 275.02 132.89 258.62"/>
    <polygon class="cls-108" points="126.11 244.08 107.47 240.76 95.25 255.31 113.95 258.59 126.11 244.08"/>
    <polygon class="cls-80" points="121.96 228.58 104.17 222.08 89.61 234.28 107.47 240.76 121.96 228.58"/>
    <polygon class="cls-9" points="120.56 212.6 104.18 203.11 87.72 212.6 104.17 222.08 120.56 212.6"/>
    <polygon class="cls-8" points="121.96 196.61 107.47 184.43 89.61 190.91 104.18 203.11 121.96 196.61"/>
    <polygon class="cls-6" points="126.11 181.12 113.96 166.6 95.25 169.88 107.47 184.43 126.11 181.12"/>
    <polygon class="cls-50" points="292.31 166.58 311.24 166.6 320.75 150.16 301.76 150.17 292.31 166.58"/>
    <polygon class="cls-7" points="132.89 166.58 123.44 150.17 104.45 150.16 113.96 166.6 132.89 166.58"/>
    <polygon points="216.51 212.94 232.26 212.6 216.52 212.26 231.96 209.19 216.39 211.58 231.07 205.88 216.16 210.94 229.62 202.77 215.82 210.34 227.66 199.96 215.38 209.82 225.23 197.54 214.85 209.38 222.43 195.58 214.26 209.04 219.32 194.13 213.62 208.8 216.01 193.24 212.94 208.68 212.6 192.94 212.26 208.68 209.19 193.24 211.58 208.8 205.88 194.13 210.94 209.03 202.77 195.58 210.34 209.38 199.96 197.54 209.82 209.82 197.54 199.96 209.38 210.34 195.58 202.77 209.04 210.94 194.13 205.88 208.8 211.58 193.24 209.19 208.68 212.26 192.94 212.6 208.68 212.94 193.24 216.01 208.8 213.62 194.13 219.32 209.04 214.26 195.58 222.43 209.38 214.85 197.54 225.23 209.82 215.38 199.96 227.66 210.34 215.82 202.77 229.62 210.94 216.16 205.88 231.07 211.58 216.39 209.18 231.96 212.26 216.51 212.6 232.25 212.94 216.51 216.01 231.96 213.61 216.4 219.32 231.07 214.26 216.16 222.43 229.62 214.85 215.82 225.23 227.66 215.38 215.38 227.66 225.23 215.82 214.85 229.62 222.43 216.16 214.26 231.07 219.32 216.39 213.62 231.95 216.01 216.51 212.94"/>
    <polygon class="cls-15" points="142.09 153.44 135.64 135.63 116.93 132.32 123.44 150.17 142.09 153.44"/>
    <polygon class="cls-22" points="153.44 142.09 150.17 123.44 132.33 116.93 135.64 135.63 153.44 142.09"/>
    <polygon class="cls-142" points="166.58 132.89 166.6 113.96 150.16 104.45 150.17 123.44 166.58 132.89"/>
    <polygon class="cls-113" points="181.12 126.11 184.43 107.47 169.89 95.25 166.6 113.96 181.12 126.11"/>
    <polygon class="cls-109" points="196.62 121.96 203.12 104.17 190.91 89.61 184.43 107.47 196.62 121.96"/>
    <polygon class="cls-98" points="212.6 120.56 222.09 104.17 212.6 87.72 203.12 104.17 212.6 120.56"/>
    <polygon class="cls-223" points="228.58 121.96 240.77 107.47 234.29 89.61 222.09 104.17 228.58 121.96"/>
    <polygon class="cls-176" points="244.08 126.11 258.6 113.96 255.31 95.25 240.77 107.47 244.08 126.11"/>
    <polygon class="cls-161" points="258.62 132.89 275.03 123.44 275.04 104.45 258.6 113.96 258.62 132.89"/>
    <polygon class="cls-159" points="271.76 142.09 289.56 135.64 292.88 116.93 275.03 123.44 271.76 142.09"/>
    <polygon class="cls-358" points="283.11 153.44 301.76 150.17 308.27 132.33 289.56 135.64 283.11 153.44"/>
  </g>
</svg>