<?xml version="1.0" encoding="utf-8"?>
<!-- Generator: Adobe Illustrator 21.0.2, SVG Export Plug-In . SVG Version: 6.00 Build 0)  -->
<svg version="1.1" id="Layer_1" xmlns="http://www.w3.org/2000/svg" xmlns:xlink="http://www.w3.org/1999/xlink" x="0px" y="0px"
	 viewBox="0 0 50 50" style="enable-background:new 0 0 50 50;" xml:space="preserve">
<style type="text/css">
	.st0{fill:#0068AF;}
</style>
<path class="st0" d="M12,2C8.7,2,6,4.7,6,8v34.4c0,3.2,2.8,5.6,6,5.6h32v-2H12c-2.2,0-4-1.6-4-3.6c0-2,1.8-3.4,4-3.4h32V2H12z M12,4
	h30v33H12c-1.5,0-2.9,0.5-4,1.4V8C8,5.8,9.8,4,12,4z M19.3,13L14,28.4V29h2v-0.2l0.9-2.8h7.1l0.9,2.8V29h2v-0.6L21.7,13H19.3z
	 M20.5,15.6l2.9,8.4h-5.7L20.5,15.6z M32,17c-0.9,0-1.7,0.3-2.3,0.9S29,19.3,29,20h2c0-0.4,0.1-0.6,0.2-0.7S31.5,19,32,19
	c0.4,0,0.5,0.1,0.7,0.3S33,20,33,20.5v0.7c-0.3-0.1-0.6-0.2-1-0.2h-1c-1.6,0-3,1.4-3,3v2c0,1.6,1.4,3,3,3h1c0.8,0,1.5-0.3,2-0.8
	c0.5,0.5,1.2,0.8,2,0.8v-2c-0.6,0-1-0.4-1-1v-0.5V24v-3.5c0-0.8-0.2-1.7-0.7-2.4S33,17,32,17z M31,23h1c0.6,0,1,0.4,1,1v1.5V26
	c0,0.6-0.4,1-1,1h-1c-0.6,0-1-0.4-1-1v-2C30,23.4,30.4,23,31,23z"/>
</svg>
