<svg xmlns="http://www.w3.org/2000/svg" viewBox="0 0 284.41 178.99"><defs><style>.cls-1{fill:#fff;}.cls-1,.cls-2{stroke:#000;stroke-miterlimit:10;stroke-width:6px;}.cls-2{fill:none;}</style></defs><g id="Layer_2" data-name="Layer 2"><g id="Layer_1-2" data-name="Layer 1"><rect class="cls-1" x="27.62" y="3" width="229.17" height="162.99" rx="14"/><rect class="cls-1" x="46.42" y="17.45" width="191.58" height="115.14" rx="14"/><circle class="cls-1" cx="142.21" cy="60.37" r="24.12"/><path class="cls-2" d="M106,132.59c0-16.8,6.28-31.63,15.83-40.43,5.81-5.36,12.83,7.93,20.4,7.93S156.68,86.75,162.46,92c9.64,8.79,16,23.68,16,40.56"/><circle class="cls-1" cx="142.21" cy="10.95" r="4.83"/><path class="cls-1" d="M176,153.56a3.76,3.76,0,0,1-3.3,2.1H111.75a3.77,3.77,0,0,1-3.31-2.1H3C3,165.9,8.43,176,15.06,176H269.35c6.64,0,12.06-10.09,12.06-22.43Z"/></g></g></svg>