<?xml version="1.0" encoding="utf-8"?>
<!-- Generator: Adobe Illustrator 19.0.0, SVG Export Plug-In . SVG Version: 6.00 Build 0)  -->
<svg version="1.1" id="Layer_1" xmlns="http://www.w3.org/2000/svg" xmlns:xlink="http://www.w3.org/1999/xlink" x="0px" y="0px"
	 viewBox="196 -5 568 571" style="enable-background:new 196 -5 568 571;" xml:space="preserve">
<style type="text/css">
	.st0{display:none;}
	.st1{display:inline;}
	.st2{fill:#FFFFFF;}
	.st3{fill:none;stroke:#4A494A;stroke-width:3;stroke-miterlimit:10;}
	.st4{fill:#CB2027;stroke:#4A494A;stroke-width:3;stroke-linejoin:round;stroke-miterlimit:10;}
	.st5{fill:none;stroke:#C9C9C9;stroke-width:3;stroke-miterlimit:10;}
	.st6{fill:#ABDFE9;}
	.st7{fill:#666766;}
	.st8{fill:#FFFFFF;stroke:#4A494A;stroke-width:3;stroke-miterlimit:10;}
	.st9{fill:#E5E5E4;}
	.st10{fill:none;stroke:#4A494A;stroke-width:3;stroke-linecap:round;stroke-miterlimit:10;}
	.st11{fill:#C9C9C9;}
	.st12{fill:#E5E5E4;stroke:#4A494A;stroke-width:3;stroke-miterlimit:10;}
</style>
<g id="reference" class="st0">
	<g id="ocVzZ8.tif" class="st1">
	</g>
	<g id="w3lq9X.tif" class="st1">
	</g>
</g>
<g id="syringe">
	<g>
		<path class="st2" d="M652.8,190.6c-2.7-2.7-6.9-6.9-9.6-9.6l-64-64c-2.7-2.7-7.1-7.1-9.6-9.6c-2.7-2.7-6.9-2.5-9.6,0.2L548.8,119
			c-2.7,2.7-2.7,7.1-0.2,9.6c2.7,2.7,2.5,6.9-0.2,9.6l-227.2,227c-2.7,2.7-2.7,7.1,0,9.8l13.7,13.7c2.7,2.7,2.7,7.1,0,9.8l-1.5,1.5
			c-2.7,2.7-2.7,7.1,0,9.8l16.7,16.7c2.7,2.7,7.1,2.7,9.8,0l1.5-1.5c2.7-2.7,7.1-2.7,9.8,0l13.7,13.7c2.7,2.7,7.1,2.7,9.8,0
			l227.1-226.9c2.7-2.7,7.1-2.7,9.6-0.2c2.7,2.7,6.9,2.5,9.6-0.2l11.3-11.3C655.3,197.5,655.3,193,652.8,190.6z"/>
		<path class="st3" d="M652.8,190.6c-2.7-2.7-6.9-6.9-9.6-9.6l-64-64c-2.7-2.7-7.1-7.1-9.6-9.6c-2.7-2.7-6.9-2.5-9.6,0.2L548.8,119
			c-2.7,2.7-2.7,7.1-0.2,9.6c2.7,2.7,2.5,6.9-0.2,9.6l-227.2,227c-2.7,2.7-2.7,7.1,0,9.8l13.7,13.7c2.7,2.7,2.7,7.1,0,9.8l-1.5,1.5
			c-2.7,2.7-2.7,7.1,0,9.8l16.7,16.7c2.7,2.7,7.1,2.7,9.8,0l1.5-1.5c2.7-2.7,7.1-2.7,9.8,0l13.7,13.7c2.7,2.7,7.1,2.7,9.8,0
			l227.1-226.9c2.7-2.7,7.1-2.7,9.6-0.2c2.7,2.7,6.9,2.5,9.6-0.2l11.3-11.3C655.3,197.5,655.3,193,652.8,190.6z"/>
	</g>
	<polygon class="st4" points="300.8,442.5 317.2,459.2 355.3,429.8 330.2,404.7 	"/>
	<path class="st5" d="M584.1,121.9L477.7,228.4c-8.1,8.1-7.4,22.1,1.7,31.2l20.8,20.8c9.1,9.1,23.1,9.8,31.2,1.7l106.5-106.5
		L584.1,121.9z"/>
	<path class="st6" d="M454.4,250.2L343.3,361.3c-7.8,7.8-8.6,17.4-2.5,23.5l8.8,11l-10.3,12.8l12.5,12l11-12.3l13.2,9.8
		c6.1,6.1,14.7,6.4,22.8-1.5l111.2-111L454.4,250.2z"/>
	<g>
		
			<rect x="401.9" y="400.6" transform="matrix(0.7071 0.7071 -0.7071 0.7071 405.8712 -173.4489)" class="st7" width="20.8" height="5.2"/>
		
			<rect x="427.9" y="374.6" transform="matrix(0.7071 0.7071 -0.7071 0.7071 395.0784 -199.46)" class="st7" width="20.8" height="5.2"/>
		
			<rect x="453.9" y="348.5" transform="matrix(0.7071 0.7071 -0.7071 0.7071 384.2857 -225.4711)" class="st7" width="20.8" height="5.2"/>
		
			<rect x="479.9" y="322.5" transform="matrix(0.7071 0.7071 -0.7071 0.7071 373.493 -251.4823)" class="st7" width="20.8" height="5.2"/>
	</g>
	<polygon class="st8" points="721,74.6 685.4,39 584.1,121.9 638.1,175.9 	"/>
	<g>
		<path class="st9" d="M747,105.7c-5.4,5.4-14.2,5.4-19.6,0l-73.1-73.1c-5.4-5.4-5.4-14.2,0-19.6l5.2-5.2c5.4-5.4,14.2-5.4,19.6,0
			l73.1,73.1c5.4,5.4,5.4,14.2,0,19.6L747,105.7z"/>
		<path class="st3" d="M747,105.7c-5.4,5.4-14.2,5.4-19.6,0l-73.1-73.1c-5.4-5.4-5.4-14.2,0-19.6l5.2-5.2c5.4-5.4,14.2-5.4,19.6,0
			l73.1,73.1c5.4,5.4,5.4,14.2,0,19.6L747,105.7z"/>
	</g>
	<line class="st10" x1="309.2" y1="450.8" x2="203.7" y2="556.3"/>
	<path class="st11" d="M484.8,221.3l-7.1,7.1c-8.1,8.1-7.4,22.1,1.7,31.2l20.8,20.8c9.1,9.1,23.1,9.8,31.2,1.7l7.1-7.1L484.8,221.3z
		"/>
	<polygon class="st12" points="727.9,71.1 743.6,52 708,16.4 688.9,32.1 	"/>
</g>
</svg>
