<?xml version="1.0" encoding="utf-8"?>
<!-- Generator: Adobe Illustrator 18.1.1, SVG Export Plug-In . SVG Version: 6.00 Build 0)  -->
<svg version="1.1" id="Layer_1" xmlns="http://www.w3.org/2000/svg" xmlns:xlink="http://www.w3.org/1999/xlink" x="0px" y="0px"
	 viewBox="0 0 261 345.9" enable-background="new 0 0 261 345.9" xml:space="preserve">
<g>
	<path fill="#EDE9E4" stroke="#565656" stroke-width="4" stroke-miterlimit="10" d="M211.6,63c-5.5,0-9.6-3.7-9.6-9.2V11
		c-1.6-0.4-3.2-1-4.6-1H18c-5.5,0-10,4.9-10,10.4v306c0,5.5,4.5,9.6,10,9.6h225c5.5,0,10-4.1,10-9.6V65.6c0-0.7-0.1-1.7-0.2-2.7
		H211.6z"/>
	<g>
		<path fill="#F9F9F9" d="M247.4,65c5.5,0,6.8-3.3,2.9-7.1l-44.3-43.7c-3.9-3.8-6.9-2.6-6.9,2.9v37.7c0,5.5,4.1,10.2,9.6,10.2H247.4
			z"/>
		<path fill="none" stroke="#565656" stroke-width="4" stroke-linejoin="round" stroke-miterlimit="10" d="M247.4,65
			c5.5,0,6.8-3.3,2.9-7.1l-44.3-43.7c-3.9-3.8-6.9-2.6-6.9,2.9v37.7c0,5.5,4.1,10.2,9.6,10.2H247.4z"/>
	</g>
	<rect x="30.8" y="83.6" fill="#C97518" width="197.2" height="36.1"/>
	<rect x="30.8" y="263.6" fill="#C97518" width="197.2" height="36.1"/>
	<rect x="30.8" y="129.3" fill="#E5CFC3" width="197.2" height="58.6"/>
	<rect x="30.8" y="197.3" fill="#E5CFC3" width="197.2" height="57.1"/>
	<rect x="39.9" y="138.5" fill="#388C62" width="179" height="4.8"/>
	<rect x="30.8" y="63.5" fill="#565656" width="122" height="4.8"/>
	<rect x="30.8" y="63.5" fill="#565656" width="122" height="4.8"/>
	<rect x="39.9" y="150.5" fill="#7FBA9B" width="179" height="4.8"/>
	<rect x="39.9" y="162.5" fill="#7FBA9B" width="179" height="4.8"/>
	<rect x="39.9" y="174.5" fill="#7FBA9B" width="112.9" height="4.8"/>
	<rect x="39.9" y="205.5" fill="#388C62" width="179" height="4.8"/>
	<rect x="39.9" y="217.5" fill="#7FBA9B" width="179" height="4.8"/>
	<rect x="39.9" y="229.5" fill="#7FBA9B" width="179" height="4.8"/>
	<rect x="39.9" y="241.5" fill="#7FBA9B" width="158.7" height="4.8"/>
	<path fill="none" stroke="#93572E" stroke-width="3" stroke-linecap="round" stroke-linejoin="round" stroke-miterlimit="10" d="
		M27,96.2c-5.3,3.6-10,12.9-10,23.8c0,10.9,4.7,20.2,10,23.8"/>
	
		<polygon fill="#93572E" stroke="#93572E" stroke-width="3" stroke-linecap="round" stroke-linejoin="round" stroke-miterlimit="10" points="
		24,146.8 29.3,139.8 33.5,148.6 	"/>
	<path fill="none" stroke="#93572E" stroke-width="3" stroke-linecap="round" stroke-linejoin="round" stroke-miterlimit="10" d="
		M27,166.2c-5.3,3.6-10,12.9-10,23.8c0,10.9,4.7,20.2,10,23.8"/>
	
		<polygon fill="#93572E" stroke="#93572E" stroke-width="3" stroke-linecap="round" stroke-linejoin="round" stroke-miterlimit="10" points="
		24,216.8 29.3,209.8 33.5,218.6 	"/>
	<path fill="none" stroke="#93572E" stroke-width="3" stroke-linecap="round" stroke-linejoin="round" stroke-miterlimit="10" d="
		M27,236.2c-5.3,3.6-10,12.9-10,23.8c0,10.9,4.7,20.2,10,23.8"/>
	
		<polygon fill="#93572E" stroke="#93572E" stroke-width="3" stroke-linecap="round" stroke-linejoin="round" stroke-miterlimit="10" points="
		24,286.8 29.3,279.8 33.5,288.6 	"/>
</g>
</svg>
