<?xml version="1.0" encoding="utf-8"?>
<!-- Generator: Adobe Illustrator 18.1.1, SVG Export Plug-In . SVG Version: 6.00 Build 0)  -->
<!DOCTYPE svg PUBLIC "-//W3C//DTD SVG 1.1//EN" "http://www.w3.org/Graphics/SVG/1.1/DTD/svg11.dtd">
<svg version="1.1" id="Layer_1" xmlns="http://www.w3.org/2000/svg" xmlns:xlink="http://www.w3.org/1999/xlink" x="0px" y="0px"
	 viewBox="92 15.7 480 424.6" enable-background="new 92 15.7 480 424.6" xml:space="preserve">
<path fill="#EB4F76" d="M92,71.1v258.5c0,31.4,24,55.4,55.4,55.4h92.3V348h-92.3c-11.1,0-18.5-7.4-18.5-18.5V71.1
	c0-11.1,7.4-18.5,18.5-18.5h369.2c11.1,0,18.5,7.4,18.5,18.5v258.5c0,11.1-7.4,18.5-18.5,18.5h-92.3v36.9h92.3
	c31.4,0,55.4-24,55.4-55.4V71.1c0-31.4-24-55.4-55.4-55.4H147.4C116,15.7,92,39.7,92,71.1z"/>
<path fill="#EB4F76" d="M452,292.6c0,0,5.5,18.5-18.5,18.5c-5.5,0-24,0-46.2,0v110.8c0,11.1-7.4,18.5-18.5,18.5h-73.8
	c-11.1,0-18.5-7.4-18.5-18.5V311.1c-22.2,0-40.6,0-46.2,0c-24,0-18.5-18.5-18.5-18.5l120-138.5L452,292.6z"/>
</svg>
