<?xml version="1.0" encoding="utf-8"?>
<!-- Generator: Adobe Illustrator 18.1.1, SVG Export Plug-In . SVG Version: 6.00 Build 0)  -->
<svg version="1.1" id="Layer_1" xmlns="http://www.w3.org/2000/svg" xmlns:xlink="http://www.w3.org/1999/xlink" x="0px" y="0px"
	 viewBox="0 0 41.7 43.6" enable-background="new 0 0 41.7 43.6" xml:space="preserve">
<g>
	
		<path fill="#666666" stroke="#303030" stroke-width="3" stroke-linecap="round" stroke-linejoin="round" stroke-miterlimit="10" d="
		M40.2,38.8l-6.5-26c-0.4-1.6-2.1-2.8-3.7-2.8h-4.2c0.4-1,0.6-1.9,0.6-2.9c0-3-2.5-5.7-5.6-5.7s-5.6,2.8-5.6,5.8
		c0,0.9,0.2,1.8,0.6,2.8h-4.2c-1.6,0-3.3,1-3.7,2.6L1.6,39c-0.4,1.6,0.6,3.1,2.3,3.1h14.1c1.6,0,4.3,0,5.9,0h14.1
		C39.5,42.1,40.6,40.4,40.2,38.8z M21.8,7.4c0-0.5-0.4-0.9-0.9-0.9s-0.9,0.4-0.9,0.9s0.4,0.9,0.9,0.9S21.8,7.9,21.8,7.4z"/>
	<text transform="matrix(1 0 0 1 15.4839 32.4375)" fill="#FFFFFF" font-family="'Museo-700'" font-size="18.2807">g</text>
</g>
</svg>
