<?xml version="1.0" encoding="utf-8"?>
<!-- Generator: Adobe Illustrator 18.1.1, SVG Export Plug-In . SVG Version: 6.00 Build 0)  -->
<svg version="1.1" id="Layer_1" xmlns="http://www.w3.org/2000/svg" xmlns:xlink="http://www.w3.org/1999/xlink" x="0px" y="0px"
	 viewBox="0 0 276.9 294.6" enable-background="new 0 0 276.9 294.6" xml:space="preserve">
<g>
	<path fill="none" stroke="#4A494A" stroke-width="2" stroke-linejoin="round" stroke-miterlimit="10" d="M25.7,17.6
		c0-4.3,50.5-7.9,112.8-7.9"/>
	<path fill="none" stroke="#4A494A" stroke-width="2" stroke-linejoin="round" stroke-miterlimit="10" d="M250.5,17.6
		c0-4.3-50.5-7.9-112.8-7.9"/>
</g>
<g>
	<g>
		<g>
			<g>
				<g>
					<defs>
						<path id="SVGID_1_" d="M26.2,18.9v8.9v19.8v41.3v98.3v75.9c0,12.3,10.1,22.4,22.4,22.4h179.8c12.3,0,22.4-10.1,22.4-22.4
							v-75.9V88.9V47.6V27.8v-8.9H26.2z"/>
					</defs>
					<clipPath id="SVGID_2_">
						<use xlink:href="#SVGID_1_"  overflow="visible"/>
					</clipPath>
					<path id="water" clip-path="url(#SVGID_2_)" fill="#C7D8E5" d="M378.4,234.3L378.4,234.3l-0.2-16.1v-7.9h0.2v-16.7
						c-1.6,0.2-3.2,0.4-5,0.4c-14.9,0-24.2-8.9-24.2-8.9c-1.6-1.6-4.4-1.6-6.2,0c0,0-8.9,8.5-23.4,8.9c-14.4-0.2-23.4-8.9-23.4-8.9
						c-1.6-1.6-4.4-1.6-6.2,0c0,0-8.9,8.5-23.1,8.9c-0.6,0-1,0-1.6,0l0,0c-13.2-1-21.4-8.7-21.4-8.7c-1-0.8-2.1-1.2-3.3-1.2
						c-1.2,0-2.4,0.2-3.3,1.2c0,0-8.9,8.5-23.1,8.9c-14.3-0.4-23.1-8.9-23.1-8.9c-1-0.8-2.1-1.2-3.3-1.2s-2.4,0.2-3.3,1.2
						c0,0-8.1,7.9-21.4,8.7l0,0c-0.6,0-1,0-1.6,0c-14.3-0.4-23.1-8.9-23.1-8.9c-1.6-1.6-4.4-1.6-6.2,0c0,0-8.9,8.5-23.4,8.9
						c-14.4-0.2-23.4-8.9-23.4-8.9c-1-1-2.1-1.2-3.3-1.2c-1.2-0.2-2.6,0.2-3.3,1.2c0,0-8.9,8.5-23.4,8.9C41,193.8,32,185.1,32,185.1
						c-1.6-1.6-4.4-1.6-6.2,0c0,0-8.9,8.5-23.4,8.9c-14.4-0.2-23.4-8.9-23.4-8.9c-1.6-1.6-4.4-1.6-6.2,0c0,0-8.9,8.5-23.4,8.9
						c-14.4-0.2-23.4-8.9-23.4-8.9c-1.6-1.6-4.4-1.6-6.2,0c0,0-9.3,8.9-24.2,8.9c-1.8,0-3.6-0.2-5.1-0.4v3.3h-0.2v21.4v16.1v16.1
						v210.9h489.4V234.3H378.4z"/>
				</g>
			</g>
		</g>
	</g>
</g>
<line fill="none" stroke="#7D7D7D" stroke-width="2" stroke-miterlimit="10" x1="39" y1="246.3" x2="27.7" y2="246.3"/>
<line fill="none" stroke="#7D7D7D" stroke-width="2" stroke-miterlimit="10" x1="39" y1="206.7" x2="27.7" y2="206.7"/>
<line fill="none" stroke="#7D7D7D" stroke-width="2" stroke-miterlimit="10" x1="39" y1="167.1" x2="27.7" y2="167.1"/>
<line fill="none" stroke="#7D7D7D" stroke-width="2" stroke-miterlimit="10" x1="39" y1="127.4" x2="27.7" y2="127.4"/>
<line fill="none" stroke="#7D7D7D" stroke-width="2" stroke-miterlimit="10" x1="39" y1="87.8" x2="27.7" y2="87.8"/>
<line fill="none" stroke="#7D7D7D" stroke-width="2" stroke-miterlimit="10" x1="39" y1="48.2" x2="27.7" y2="48.2"/>
<ellipse opacity="0.15" fill="#A09F9F" enable-background="new    " cx="138.3" cy="268.4" rx="87.4" ry="7.9"/>
<path fill="none" stroke="#4A494A" stroke-width="2" stroke-linejoin="round" stroke-miterlimit="10" d="M25.9,18.4v29.8v41.3v98.3
	v75.9c0,12.3,10.1,22.4,22.4,22.4h179.8c12.3,0,22.4-10.1,22.4-22.4v-75.9V89.5V48.2V18.4"/>
<g>
	<path fill="none" stroke="#4A494A" stroke-width="2" stroke-linejoin="round" stroke-miterlimit="10" d="M25.7,17.5
		c0,4.3,50.5,7.9,112.8,7.9"/>
	<path fill="none" stroke="#4A494A" stroke-width="2" stroke-linejoin="round" stroke-miterlimit="10" d="M250.6,17.5
		c0,4.3-50.5,7.9-112.8,7.9"/>
</g>
</svg>
