<?xml version="1.0" encoding="utf-8"?>
<!-- Generator: Adobe Illustrator 19.0.1, SVG Export Plug-In . SVG Version: 6.00 Build 0)  -->
<!DOCTYPE svg PUBLIC "-//W3C//DTD SVG 1.1//EN" "http://www.w3.org/Graphics/SVG/1.1/DTD/svg11.dtd">
<svg version="1.1" id="Layer_1" xmlns="http://www.w3.org/2000/svg" xmlns:xlink="http://www.w3.org/1999/xlink" x="0px" y="0px"
	 viewBox="-258 85 122 312" enable-background="new -258 85 122 312" xml:space="preserve">
<g>
	<g>
		<defs>
			<rect id="SVGID_1_" x="-245.8" y="139.7" width="98.1" height="130.6"/>
		</defs>
		<clipPath id="SVGID_2_">
			<use xlink:href="#SVGID_1_"  overflow="visible"/>
		</clipPath>
		<path id="water" clip-path="url(#SVGID_2_)" fill="#C7D8E5" d="M-196.7,267.1L-196.7,267.1c-27,0-49-7.9-49-32.8v-90.1
			c0-24.8,22.1-32.8,49-32.8l0,0c27,0,49,7.9,49,32.8v90.1C-147.7,259.2-169.8,267.1-196.7,267.1z"/>
	</g>
</g>
<path id="up_drop" fill="#C7D8E5" d="M-197.2,292.1c-0.8,0.1-2.1,3.2-2.1,4.2c0,1.2,0.9,2.2,2.1,2.2s2.2-0.9,2.2-2.2
	C-195.1,295.2-196.5,292.2-197.2,292.1z"/>
<path fill="#C7D8E5" d="M-203.2,311.7v12.1c0,3.1,2.5,5.6,6,5.6s6-2.5,6-5.6v-12.1H-203.2z"/>
<path fill="none" stroke="#4D4D4D" stroke-width="2" stroke-miterlimit="10" d="M-197,273.9L-197,273.9c-29.6,0-53.8-8.3-53.8-34.4
	v-94.6c0-26.1,24.2-34.4,53.8-34.4l0,0c29.6,0,53.8,8.3,53.8,34.4v94.6C-143.2,265.6-167.4,273.9-197,273.9z"/>
<path fill="#C1272D" stroke="#4D4D4D" stroke-width="2" stroke-miterlimit="10" d="M-204.7,274.7v3.3c0,3,3.4,4,7.5,4
	c4.1,0,7.5-1,7.5-4v-3.3H-204.7z"/>
<path fill="#C7D8E5" stroke="#4D4D4D" stroke-width="2" stroke-miterlimit="10" d="M-195.4,340.4l-3.5,2.3c0,0-0.1,0-0.1-0.1v-12.8
	c0,0,0-0.1,0.1-0.1h3.5c0,0,0.1,0,0.1,0.1L-195.4,340.4C-195.4,340.3-195.4,340.4-195.4,340.4z"/>
<path fill="none" stroke="#4D4D4D" stroke-width="2" stroke-miterlimit="10" d="M-197.2,329.7L-197.2,329.7c-2.9,0-5.3-2.4-5.3-5.3
	v-27.8c0-2.9,2.4-5.3,5.3-5.3l0,0c2.9,0,5.3,2.4,5.3,5.3v27.8C-191.9,327.3-194.3,329.7-197.2,329.7z"/>
<circle fill="#FFFFFF" stroke="#4D4D4D" stroke-width="2" stroke-miterlimit="10" cx="-197" cy="100.1" r="10.4"/>
<circle fill="#FFFFFF" stroke="#4D4D4D" stroke-width="2" stroke-miterlimit="10" cx="-197" cy="100.1" r="5.8"/>
<g opacity="0.35">
	<path fill="#FFFFFF" d="M-229,234.3c0,1.6-0.9,2.8-2,2.8s-2-1.3-2-2.8v-82.4c0-1.6,0.9-2.8,2-2.8s2,1.3,2,2.8V234.3z"/>
</g>
<g opacity="0.8">
	<path fill="none" stroke="#666766" stroke-miterlimit="10" d="M-155.2,151.2h-9.1c-0.3,0-0.5-0.2-0.5-0.5l0,0
		c0-0.3,0.2-0.5,0.5-0.5h9.1c0.3,0,0.5,0.2,0.5,0.5l0,0C-154.8,151-155,151.2-155.2,151.2z"/>
	<path fill="none" stroke="#666766" stroke-miterlimit="10" d="M-155.2,158.5h-6.6c-0.3,0-0.5-0.2-0.5-0.5l0,0
		c0-0.3,0.2-0.5,0.5-0.5h6.6c0.3,0,0.5,0.2,0.5,0.5l0,0C-154.8,158.2-155,158.5-155.2,158.5z"/>
	<path fill="none" stroke="#666766" stroke-miterlimit="10" d="M-155.2,165.7h-6.6c-0.3,0-0.5-0.2-0.5-0.5l0,0
		c0-0.3,0.2-0.5,0.5-0.5h6.6c0.3,0,0.5,0.2,0.5,0.5l0,0C-154.8,165.5-155,165.7-155.2,165.7z"/>
	<path fill="none" stroke="#666766" stroke-miterlimit="10" d="M-155.2,172.9h-6.6c-0.3,0-0.5-0.2-0.5-0.5l0,0
		c0-0.3,0.2-0.5,0.5-0.5h6.6c0.3,0,0.5,0.2,0.5,0.5l0,0C-154.8,172.7-155,172.9-155.2,172.9z"/>
	<path fill="none" stroke="#666766" stroke-miterlimit="10" d="M-155.2,180.1h-9.1c-0.3,0-0.5-0.2-0.5-0.5l0,0
		c0-0.3,0.2-0.5,0.5-0.5h9.1c0.3,0,0.5,0.2,0.5,0.5l0,0C-154.8,179.9-155,180.1-155.2,180.1z"/>
	<path fill="none" stroke="#666766" stroke-miterlimit="10" d="M-155.2,187.3h-6.6c-0.3,0-0.5-0.2-0.5-0.5l0,0
		c0-0.3,0.2-0.5,0.5-0.5h6.6c0.3,0,0.5,0.2,0.5,0.5l0,0C-154.8,187.1-155,187.3-155.2,187.3z"/>
	<path fill="none" stroke="#666766" stroke-miterlimit="10" d="M-155.2,194.5h-6.6c-0.3,0-0.5-0.2-0.5-0.5l0,0
		c0-0.3,0.2-0.5,0.5-0.5h6.6c0.3,0,0.5,0.2,0.5,0.5l0,0C-154.8,194.3-155,194.5-155.2,194.5z"/>
	<path fill="none" stroke="#666766" stroke-miterlimit="10" d="M-155.2,201.7h-6.6c-0.3,0-0.5-0.2-0.5-0.5l0,0
		c0-0.3,0.2-0.5,0.5-0.5h6.6c0.3,0,0.5,0.2,0.5,0.5l0,0C-154.8,201.5-155,201.7-155.2,201.7z"/>
	<path fill="none" stroke="#666766" stroke-miterlimit="10" d="M-155.2,208.9h-9.1c-0.3,0-0.5-0.2-0.5-0.5l0,0
		c0-0.3,0.2-0.5,0.5-0.5h9.1c0.3,0,0.5,0.2,0.5,0.5l0,0C-154.8,208.7-155,208.9-155.2,208.9z"/>
	<path fill="none" stroke="#666766" stroke-miterlimit="10" d="M-155.2,237.8h-9.1c-0.3,0-0.5-0.2-0.5-0.5l0,0
		c0-0.3,0.2-0.5,0.5-0.5h9.1c0.3,0,0.5,0.2,0.5,0.5l0,0C-154.8,237.6-155,237.8-155.2,237.8z"/>
	<path fill="none" stroke="#666766" stroke-miterlimit="10" d="M-155.2,216.2h-6.6c-0.3,0-0.5-0.2-0.5-0.5l0,0
		c0-0.3,0.2-0.5,0.5-0.5h6.6c0.3,0,0.5,0.2,0.5,0.5l0,0C-154.8,215.9-155,216.2-155.2,216.2z"/>
	<path fill="none" stroke="#666766" stroke-miterlimit="10" d="M-155.2,223.4h-6.6c-0.3,0-0.5-0.2-0.5-0.5l0,0
		c0-0.3,0.2-0.5,0.5-0.5h6.6c0.3,0,0.5,0.2,0.5,0.5l0,0C-154.8,223.2-155,223.4-155.2,223.4z"/>
	<path fill="none" stroke="#666766" stroke-miterlimit="10" d="M-155.2,230.6h-6.6c-0.3,0-0.5-0.2-0.5-0.5l0,0
		c0-0.3,0.2-0.5,0.5-0.5h6.6c0.3,0,0.5,0.2,0.5,0.5l0,0C-154.8,230.4-155,230.6-155.2,230.6z"/>
</g>

<polyline fill="#C7D8E5" stroke="#4D4D4D" stroke-width="2" stroke-miterlimit="10" points="-199,292.3 -199,283 -195.4,283 
	-195.4,292.3 "/>
</svg>
