<?xml version="1.0" encoding="utf-8"?>
<!-- Generator: Adobe Illustrator 18.1.1, SVG Export Plug-In . SVG Version: 6.00 Build 0)  -->
<!DOCTYPE svg PUBLIC "-//W3C//DTD SVG 1.1//EN" "http://www.w3.org/Graphics/SVG/1.1/DTD/svg11.dtd">
<svg version="1.1" id="Layer_1" xmlns="http://www.w3.org/2000/svg" xmlns:xlink="http://www.w3.org/1999/xlink" x="0px" y="0px"
	 viewBox="0 0 368.9 109.3" enable-background="new 0 0 368.9 109.3" xml:space="preserve">
<text transform="matrix(1 0 0 1 26.4236 31.455)"><tspan x="0" y="0" fill="#7EAB2F" font-family="'Museo-500'" font-size="15">Ess</tspan><tspan x="22.1" y="0" fill="#7EAB2F" font-family="'Museo-500'" font-size="15">a</tspan><tspan x="30.1" y="0" fill="#7EAB2F" font-family="'Museo-500'" font-size="15">y</tspan></text>
<g>
	<defs>
		<rect id="SVGID_1_" x="3.4" y="0" width="368.4" height="109.3"/>
	</defs>
	<clipPath id="SVGID_2_">
		<use xlink:href="#SVGID_1_"  overflow="visible"/>
	</clipPath>
	<path clip-path="url(#SVGID_2_)" fill="#7EAB2F" d="M18.6,54.7c0,0-1,0-1,1v2c0,0,0,1,1,1h40c0,0,1,0,1-1v-2c0,0,0-1-1-1H18.6z"/>
	<path clip-path="url(#SVGID_2_)" fill="#7EAB2F" d="M18.6,65.1c0,0-1,0-1,1v2c0,0,0,1,1,1h40c0,0,1,0,1-1v-2c0,0,0-1-1-1H18.6z"/>
	<path clip-path="url(#SVGID_2_)" fill="#7EAB2F" d="M18.6,75.6c0,0-1,0-1,1v2c0,0,0,1,1,1h40c0,0,1,0,1-1v-2c0,0,0-1-1-1H18.6z"/>
	<path clip-path="url(#SVGID_2_)" fill="#7EAB2F" d="M67.6,54.7c0,0-1,0-1,1v2c0,0,0,1,1,1h6c0,0,1,0,1-1v-2c0,0,0-1-1-1H67.6z"/>
	<path clip-path="url(#SVGID_2_)" fill="#7EAB2F" d="M67.6,65.1c0,0-1,0-1,1v2c0,0,0,1,1,1h6c0,0,1,0,1-1v-2c0,0,0-1-1-1H67.6z"/>
	<path clip-path="url(#SVGID_2_)" fill="#7EAB2F" d="M67.6,75.6c0,0-1,0-1,1v2c0,0,0,1,1,1h6c0,0,1,0,1-1v-2c0,0,0-1-1-1H67.6z"/>
	<path clip-path="url(#SVGID_2_)" fill="none" stroke="#7EAB2F" stroke-width="3" d="M9.9,1.5c0,0-5,0-5,5v96.3c0,0,0,5,5,5h73.5
		c0,0,5,0,5-5V6.5c0,0,0-5-5-5H9.9z"/>
</g>
<text transform="matrix(1 0 0 1 160.7273 31.455)"><tspan x="0" y="0" fill="#EB4F76" font-family="'Museo-500'" font-size="15">R</tspan><tspan x="9.2" y="0" fill="#EB4F76" font-family="'Museo-500'" font-size="15">eport</tspan></text>
<g>
	<defs>
		<rect id="SVGID_3_" x="3.4" y="0" width="368.4" height="109.3"/>
	</defs>
	<clipPath id="SVGID_4_">
		<use xlink:href="#SVGID_3_"  overflow="visible"/>
	</clipPath>
	<path clip-path="url(#SVGID_4_)" fill="#EB4F76" d="M157.1,54.7c0,0-1,0-1,1v2c0,0,0,1,1,1h40c0,0,1,0,1-1v-2c0,0,0-1-1-1H157.1z"
		/>
	<path clip-path="url(#SVGID_4_)" fill="#EB4F76" d="M157.1,65.1c0,0-1,0-1,1v2c0,0,0,1,1,1h40c0,0,1,0,1-1v-2c0,0,0-1-1-1H157.1z"
		/>
	<path clip-path="url(#SVGID_4_)" fill="#EB4F76" d="M157.1,75.6c0,0-1,0-1,1v2c0,0,0,1,1,1h40c0,0,1,0,1-1v-2c0,0,0-1-1-1H157.1z"
		/>
	<path clip-path="url(#SVGID_4_)" fill="#EB4F76" d="M206.1,54.7c0,0-1,0-1,1v2c0,0,0,1,1,1h6c0,0,1,0,1-1v-2c0,0,0-1-1-1H206.1z"/>
	<path clip-path="url(#SVGID_4_)" fill="#EB4F76" d="M206.1,65.1c0,0-1,0-1,1v2c0,0,0,1,1,1h6c0,0,1,0,1-1v-2c0,0,0-1-1-1H206.1z"/>
	<path clip-path="url(#SVGID_4_)" fill="#EB4F76" d="M206.1,75.6c0,0-1,0-1,1v2c0,0,0,1,1,1h6c0,0,1,0,1-1v-2c0,0,0-1-1-1H206.1z"/>
	<path clip-path="url(#SVGID_4_)" fill="none" stroke="#EB4F76" stroke-width="3" d="M148.4,1.5c0,0-5,0-5,5v96.3c0,0,0,5,5,5h73.5
		c0,0,5,0,5-5V6.5c0,0,0-5-5-5H148.4z"/>
</g>
<text transform="matrix(1 0 0 1 288.4744 31.455)"><tspan x="0" y="0" fill="#9DD8F2" font-family="'Museo-500'" font-size="15">R</tspan><tspan x="9.2" y="0" fill="#9DD8F2" font-family="'Museo-500'" font-size="15">eﬂection</tspan></text>
<g>
	<defs>
		<rect id="SVGID_5_" x="3.4" y="0" width="368.4" height="109.3"/>
	</defs>
	<clipPath id="SVGID_6_">
		<use xlink:href="#SVGID_5_"  overflow="visible"/>
	</clipPath>
	<path clip-path="url(#SVGID_6_)" fill="#9DD8F2" d="M295.2,54.7c0,0-1,0-1,1v2c0,0,0,1,1,1h40c0,0,1,0,1-1v-2c0,0,0-1-1-1H295.2z"
		/>
	<path clip-path="url(#SVGID_6_)" fill="#9DD8F2" d="M295.2,65.1c0,0-1,0-1,1v2c0,0,0,1,1,1h40c0,0,1,0,1-1v-2c0,0,0-1-1-1H295.2z"
		/>
	<path clip-path="url(#SVGID_6_)" fill="#9DD8F2" d="M295.2,75.6c0,0-1,0-1,1v2c0,0,0,1,1,1h40c0,0,1,0,1-1v-2c0,0,0-1-1-1H295.2z"
		/>
	<path clip-path="url(#SVGID_6_)" fill="#9DD8F2" d="M344.2,54.7c0,0-1,0-1,1v2c0,0,0,1,1,1h6c0,0,1,0,1-1v-2c0,0,0-1-1-1H344.2z"/>
	<path clip-path="url(#SVGID_6_)" fill="#9DD8F2" d="M344.2,65.1c0,0-1,0-1,1v2c0,0,0,1,1,1h6c0,0,1,0,1-1v-2c0,0,0-1-1-1H344.2z"/>
	<path clip-path="url(#SVGID_6_)" fill="#9DD8F2" d="M344.2,75.6c0,0-1,0-1,1v2c0,0,0,1,1,1h6c0,0,1,0,1-1v-2c0,0,0-1-1-1H344.2z"/>
	<path clip-path="url(#SVGID_6_)" fill="none" stroke="#9DD8F2" stroke-width="3" d="M286.5,1.5c0,0-5,0-5,5v96.3c0,0,0,5,5,5H360
		c0,0,5,0,5-5V6.5c0,0,0-5-5-5H286.5z"/>
</g>
</svg>
