<svg xmlns="http://www.w3.org/2000/svg" viewBox="0 0 238.52 174.49"><defs><style>.cls-1{fill:#fff;}.cls-1,.cls-2{stroke:#000;stroke-miterlimit:10;stroke-width:6px;}.cls-2{fill:none;}</style></defs><g id="Layer_2" data-name="Layer 2"><g id="Layer_1-2" data-name="Layer 1"><path class="cls-1" d="M209.32,162.42h0c-7.86-2.23-12.56-10.85-10.44-19.15l7.54-29.58c2.12-8.3,10.29-13.26,18.15-11h0c7.86,2.23,12.56,10.85,10.44,19.15l-7.54,29.58C225.35,159.7,217.19,164.66,209.32,162.42Z"/><path class="cls-1" d="M183.09,170.71h0c-11.54-3.28-18.44-15.94-15.33-28.13l11.43-44.8c3.1-12.18,15.09-19.47,26.63-16.18h0c11.55,3.28,18.45,15.93,15.34,28.12l-11.43,44.8C206.62,166.7,194.63,174,183.09,170.71Z"/><path class="cls-1" d="M14,102.67h0c7.87-2.24,16,2.72,18.15,11l7.54,29.58c2.12,8.3-2.58,16.92-10.44,19.15h0c-7.86,2.24-16-2.72-18.15-11L3.51,121.82C1.39,113.52,6.09,104.9,14,102.67Z"/><path class="cls-1" d="M55.43,170.71h0c11.54-3.28,18.45-15.94,15.34-28.13L59.34,97.78C56.23,85.6,44.24,78.31,32.7,81.6h0c-11.55,3.28-18.45,15.93-15.34,28.12l11.43,44.8C31.9,166.7,43.89,174,55.43,170.71Z"/><path class="cls-2" d="M44.06,126.15l-9.23-35.3C34.83,42.33,72.09,3,118.05,3s83.22,39.33,83.22,87.85l-6.81,35.3m-136-96.68c-2.45,8.29,10.23,11,10.23,11A66.08,66.08,0,0,1,166,39s7.27.73,11.62-9.56"/></g></g></svg>