<svg xmlns="http://www.w3.org/2000/svg" viewBox="0 0 207.52 252.88"><defs><style>.cls-1{fill:#fff;stroke:#000;stroke-miterlimit:10;stroke-width:6px;}</style></defs><g id="Layer_2" data-name="Layer 2"><g id="Layer_1-2" data-name="Layer 1"><rect class="cls-1" x="4.23" y="161.65" width="106.39" height="17.19" transform="translate(137.2 9.26) rotate(45)"/><rect class="cls-1" x="0.09" y="71.8" width="143.34" height="17.19" transform="translate(179.35 86.5) rotate(135)"/><path class="cls-1" d="M57.43,233.92c0-19.38,22.53-35.09,50.32-35.09s50.33,15.71,50.33,35.09"/><circle class="cls-1" cx="23.67" cy="127.78" r="20.67"/><path class="cls-1" d="M170.71,47.85c7.42,7.08,8.77,17.72-3.34,30.42S143.09,92.07,135.66,85"/><line class="cls-1" x1="174.13" y1="86.39" x2="190.5" y2="102"/><line class="cls-1" x1="186.68" y1="65.41" x2="207.1" y2="68.32"/><line class="cls-1" x1="154.19" y1="99.48" x2="158.07" y2="119.73"/><path class="cls-1" d="M129.48,15.35a7.05,7.05,0,0,0-.51-.6L118.21,4.49a5.43,5.43,0,0,0-7.65.18L89.48,26.77a5.42,5.42,0,0,0,.19,7.65l10.76,10.26a5.7,5.7,0,0,0,.62.48c-7.72,18.51-4.71,39.51,9.34,52.92,5.32,5.06,25.69-11.74,43.79-30.72s33.91-40.12,28.6-45.19C168.72,8.77,147.6,6.76,129.48,15.35Z"/><rect class="cls-1" x="44.35" y="233.92" width="126.81" height="15.96" rx="4"/></g></g></svg>