<svg xmlns="http://www.w3.org/2000/svg" viewBox="0 0 155.64 199.91"><defs><style>.cls-1{fill:#fff;}.cls-2,.cls-3{fill:none;stroke:#000;stroke-miterlimit:10;}.cls-2{stroke-width:6px;}.cls-3{stroke-width:10px;}</style></defs><g id="Layer_2" data-name="Layer 2"><g id="Layer_1-2" data-name="Layer 1"><path class="cls-1" d="M141.57,82.81h0c-3.53,0-6.68.68-8.71,2.43h-2.49a11.09,11.09,0,0,0-10.92-9.41c-6.09,0-11.06,2-11.06,8.06V79.58A11.09,11.09,0,0,0,97.32,68.52h0A11.09,11.09,0,0,0,86.26,79.58v5.66h0l-.12-51.89a11.07,11.07,0,0,0-22.13,0V96.78s-8.13-14-16.11-7.31c-9,7.5-6.21,51-2,58.74s19.51,18.85,20.84,25.06,2.66,23.61,2.66,23.61l67.61-.83a105.24,105.24,0,0,1,3.13-16.9c2.71-10,12.51-14.75,12.51-32.71V93.88A11.1,11.1,0,0,0,141.57,82.81Z"/><path class="cls-2" d="M64,132.27V33.35A11.1,11.1,0,0,1,75.06,22.29h0A11.1,11.1,0,0,1,86.13,33.35l.13,55.33"/><path class="cls-2" d="M108.39,91.12V79.58A11.09,11.09,0,0,0,97.32,68.52h0A11.09,11.09,0,0,0,86.26,79.58v9.1"/><path class="cls-2" d="M108.39,88.79v-4.9c0-6.08,5-8.06,11.06-8.06h0a11.1,11.1,0,0,1,11.06,11.06V92"/><path class="cls-2" d="M64,96.78s-8.13-14-16.11-7.31c-9,7.5-6.21,51-2,58.74s19.51,18.85,20.84,25.06,2.66,23.61,2.66,23.61l67.61-.83a105.24,105.24,0,0,1,3.13-16.9c2.71-10,12.51-14.75,12.51-32.71V93.88a11.1,11.1,0,0,0-11.07-11.07h0c-6.08,0-11.06,2-11.06,8.07v6.23"/><line class="cls-3" y1="5" x2="94.44" y2="5"/><line class="cls-3" y1="32.49" x2="47.22" y2="32.49"/><line class="cls-3" y1="59.98" x2="44.78" y2="59.98"/></g></g></svg>