<svg xmlns="http://www.w3.org/2000/svg" viewBox="0 0 172.38 162.86"><defs><style>.cls-1{fill:#fff;}.cls-1,.cls-2{stroke:#000;stroke-miterlimit:10;stroke-width:6px;}.cls-2{fill:none;}</style></defs><g id="Layer_2" data-name="Layer 2"><g id="Layer_1-2" data-name="Layer 1"><path class="cls-1" d="M89.79,159.86H10a7,7,0,0,1-7-7V10a7,7,0,0,1,7-7H110.17a7,7,0,0,1,7,7V129.93Z"/><path class="cls-2" d="M89.79,159.86V136.93a7,7,0,0,1,7-7h20.38"/><path class="cls-1" d="M167.11,37.16,93.4,104.32c-2.84,2.59-30,9.72-32.73,6.73-3.1-3.41,6.89-29.38,9.74-32l73.7-67.16a7,7,0,0,1,9.89.46l13.57,14.89A7,7,0,0,1,167.11,37.16Z"/><rect class="cls-1" x="145.5" y="16.48" width="0.44" height="34.14" rx="0.22" transform="translate(15.41 106.9) rotate(-42.34)"/><path class="cls-1" d="M70.41,79.08s6.06-.8,15.7,9.76c6.61,7.25,7.49,15.59,7.29,15.47"/><line class="cls-1" x1="80.69" y1="82.9" x2="140.63" y2="28.29"/><line class="cls-1" x1="90.72" y1="93.91" x2="150.66" y2="39.3"/><path d="M73,110.78c-5.35.7-10.74.87-11.86-.35-1.36-1.49-.49-7.52.9-13.06C63.23,92.57,78.31,110.08,73,110.78Z"/></g></g></svg>