<svg xmlns="http://www.w3.org/2000/svg" viewBox="0 0 74.46 72.98"><defs><style>.cls-1,.cls-2{fill:none;stroke:#222160;stroke-width:2.34px;}.cls-1{stroke-miterlimit:10;}.cls-2{stroke-linejoin:round;}.cls-3{fill:#e61e2a;}</style></defs><g id="Layer_2" data-name="Layer 2"><g id="icons"><path class="cls-1" d="M28.28,49.66a13.56,13.56,0,1,1-27.11,0H28.28Z"/><path class="cls-1" d="M73.29,49.66a13.56,13.56,0,1,1-27.11,0Z"/><line class="cls-1" x1="15" y1="26.93" x2="59.75" y2="26.93"/><line class="cls-1" x1="64.22" y1="71.81" x2="10.32" y2="71.81"/><line class="cls-1" x1="37.35" y1="71.81" x2="37.35" y2="26.93"/><polyline class="cls-2" points="28.08 49.66 14.72 26.93 1.18 49.66"/><polyline class="cls-2" points="73.29 49.66 59.75 26.93 46.19 49.66"/></g><g id="Layer_2-2" data-name="Layer 2"><path class="cls-3" d="M35.12,0V2h-4V6.05h-3v6h3v4.09h4v2h2.13a9.31,9.31,0,0,0,9.36-9A9.11,9.11,0,0,0,37.54,0Z"/></g></g></svg>