<svg id="Layer_1" data-name="Layer 1" xmlns="http://www.w3.org/2000/svg" viewBox="0 0 150 150"><defs><style>.cls-1{fill:#c60;}.cls-2{fill:#fc0;}.cls-3{fill:#ff9;}</style></defs><title>ideas</title><rect class="cls-1" x="64.47" y="113.13" width="22.66" height="4.23" rx="2.11" ry="2.11"/><path class="cls-2" d="M110.08,66.46c0-18.38-15.3-33.28-34.23-33.28S41.74,48.08,41.74,66.46A33,33,0,0,0,54,91.83a12.56,12.56,0,0,1,4.68,9.67h0a12.34,12.34,0,0,0,12.34,12.34h9.75a12.34,12.34,0,0,0,12.34-12.34h0a12.56,12.56,0,0,1,4.67-9.67A33,33,0,0,0,110.08,66.46Z"/><path class="cls-3" d="M104.2,67.08c0-15.22-12.67-27.56-28.35-27.56S47.61,51.86,47.61,67.08a27.3,27.3,0,0,0,10.19,21c2.41,2,5.69,4.89,5.69,8h0c0,5.64,2.76,12.94,8.41,12.94H80c5.64,0,8.41-7.29,8.41-12.94h0c0-3.12,3.27-6,5.68-8A27.3,27.3,0,0,0,104.2,67.08Z"/><rect class="cls-1" x="65.18" y="117.97" width="21.23" height="4.23" rx="2.11" ry="2.11"/><rect class="cls-1" x="65.78" y="122.79" width="20.02" height="4.26" rx="2.13" ry="2.13"/><path class="cls-1" d="M75.81,133.1c4.63,0,8.48-1.73,9.21-4.05a.6.6,0,0,0-.49-.81H67.09a.6.6,0,0,0-.49.81C67.34,131.37,71.18,133.1,75.81,133.1Z"/><path class="cls-2" d="M77.62,110.23l-.54-18.31,4-2.72c8-5.53,13.41-15.95,10-19.3-4.44-4.53-11.42,1.18-13.59,11-.63,3.08-2.27,3.17-2.27,0,0-2.72-3.72-8.79-5.8-9.52-4.35-1.45-6.89.91-6.89,6.43,0,4.89,2.63,8.88,7.52,11.78,3.62,2.17,4.08,2.81,4.62,6.62.27,2.27.54,8.07.54,12.87"/><path class="cls-3" d="M88.95,72.44c1.81,2.72-1.09,7.07-11.51,17.13-1.63,1.54-1.81,1.54-5.53-1.27-4.62-3.44-6.8-6.71-6.8-10.33.09-8.79,5.53-4.26,8.16,6.71.54,2.63,1.36,4.8,1.72,4.8,1.45,0,3.53-3.35,5-8.16,1.72-5.44,5.53-11.15,7.16-10.6A4,4,0,0,1,88.95,72.44Z"/><rect class="cls-2" x="30.18" y="50.43" width="5.44" height="5.44" rx="1.15" ry="1.15"/><rect class="cls-2" x="47.61" y="27.74" width="5.44" height="5.44" rx="1.15" ry="1.15"/><rect class="cls-2" x="73.83" y="16.9" width="5.44" height="5.44" rx="1.15" ry="1.15"/><rect class="cls-2" x="99.2" y="27.74" width="5.44" height="5.44" rx="1.15" ry="1.15"/><rect class="cls-2" x="114.38" y="49.09" width="5.44" height="5.44" rx="1.15" ry="1.15"/></svg>