<svg id="Layer_1" data-name="Layer 1" xmlns="http://www.w3.org/2000/svg" viewBox="0 0 150 150"><defs><style>.cls-1{fill:#396;}.cls-2{fill:#f66;}.cls-3{fill:#fff;}</style></defs><title>images</title><rect class="cls-1" x="77.61" y="48.39" width="60.66" height="50.91" rx="2.55" ry="2.55" transform="translate(7.38 -9.77) rotate(5.37)"/><rect class="cls-2" x="15.17" y="48.63" width="62.83" height="52.74" rx="2.55" ry="2.55" transform="translate(-18.87 15.75) rotate(-16)"/><path class="cls-3" d="M129.5,90.32l-.27,2.86-45.82-4.3,3.23-34.37,2.86.27-3,31.5ZM99.34,73,98.27,84.5,92.54,84,93.61,72.5ZM109,62.39,106.86,85.3l-5.73-.54,2.15-22.91Zm8.05,6.54-1.61,17.18-5.73-.54,1.61-17.18Zm9.4-7.78L124,86.92l-5.73-.54,2.42-25.78Z"/><path class="cls-3" d="M64,50.47,18.83,63.42a1,1,0,0,0-.64,1.16L28,98.88a1,1,0,0,0,1.16.64L74.33,86.58A1,1,0,0,0,75,85.42l-9.84-34.3A1,1,0,0,0,64,50.47Z"/><path class="cls-2" d="M32.29,65.18a5.65,5.65,0,0,1-5.48,9.87,5.65,5.65,0,0,1,5.48-9.87Z"/><polygon class="cls-2" points="66.96 71.11 70.58 83.75 30.86 95.14 29.31 89.72 35.75 78.11 41.56 81.33 51.86 62.74 66.96 71.11"/></svg>