<svg id="Layer_1" data-name="Layer 1" xmlns="http://www.w3.org/2000/svg" viewBox="0 0 150 150"><defs><style>.cls-1{fill:#c96;}.cls-2,.cls-3{fill:#fff;}.cls-3{font-size:16.59px;font-family:Arial-BoldMT, Arial;font-weight:700;}</style></defs><title>numerics</title><rect class="cls-1" x="7.61" y="53.55" width="134.77" height="42.91" rx="2.69" ry="2.69"/><rect class="cls-2" x="15.92" y="56.25" width="1.58" height="11.71" rx="0.79" ry="0.79"/><rect class="cls-2" x="54.56" y="56.25" width="1.58" height="11.71" rx="0.79" ry="0.79"/><rect class="cls-2" x="35.24" y="56.25" width="1.58" height="9.56" rx="0.79" ry="0.79"/><rect class="cls-2" x="22.36" y="56.25" width="1.58" height="8.19" rx="0.79" ry="0.79"/><rect class="cls-2" x="28.8" y="56.25" width="1.58" height="8.19" rx="0.79" ry="0.79"/><rect class="cls-2" x="41.68" y="56.25" width="1.58" height="8.19" rx="0.79" ry="0.79"/><rect class="cls-2" x="48.12" y="56.25" width="1.58" height="8.19" rx="0.79" ry="0.79"/><rect class="cls-2" x="93.2" y="56.25" width="1.58" height="11.71" rx="0.79" ry="0.79"/><rect class="cls-2" x="73.88" y="56.25" width="1.58" height="9.56" rx="0.79" ry="0.79"/><rect class="cls-2" x="61" y="56.25" width="1.58" height="8.19" rx="0.79" ry="0.79"/><rect class="cls-2" x="67.44" y="56.25" width="1.58" height="8.19" rx="0.79" ry="0.79"/><rect class="cls-2" x="80.32" y="56.25" width="1.58" height="8.19" rx="0.79" ry="0.79"/><rect class="cls-2" x="86.76" y="56.25" width="1.58" height="8.19" rx="0.79" ry="0.79"/><rect class="cls-2" x="131.83" y="56.25" width="1.58" height="11.71" rx="0.79" ry="0.79"/><rect class="cls-2" x="112.51" y="56.25" width="1.58" height="9.56" rx="0.79" ry="0.79"/><rect class="cls-2" x="99.64" y="56.25" width="1.58" height="8.19" rx="0.79" ry="0.79"/><rect class="cls-2" x="106.07" y="56.25" width="1.58" height="8.19" rx="0.79" ry="0.79"/><rect class="cls-2" x="118.95" y="56.25" width="1.58" height="8.19" rx="0.79" ry="0.79"/><rect class="cls-2" x="125.39" y="56.25" width="1.58" height="8.19" rx="0.79" ry="0.79"/><text class="cls-3" transform="translate(12.61 85.41)">0</text><text class="cls-3" transform="translate(49.92 85.41)">1</text><text class="cls-3" transform="translate(89.49 85.41)">2</text><text class="cls-3" transform="translate(127.7 85.41)">3</text></svg>