<?xml version="1.0" encoding="utf-8"?>
<!-- Generator: Adobe Illustrator 19.0.0, SVG Export Plug-In . SVG Version: 6.00 Build 0)  -->
<svg version="1.1" id="Layer_1" xmlns="http://www.w3.org/2000/svg" xmlns:xlink="http://www.w3.org/1999/xlink" x="0px" y="0px"
	 viewBox="211 43 535 469" style="enable-background:new 211 43 535 469;" xml:space="preserve">
<style type="text/css">
	.st0{display:none;}
	.st1{display:inline;}
	.st2{fill:#FFFFFF;stroke:#4A494A;stroke-width:3;stroke-miterlimit:10;}
	.st3{fill:#F2EC5A;}
	.st4{fill:#E8E8E8;}
	.st5{fill:none;stroke:#BABABA;stroke-width:2;stroke-miterlimit:10;}
	.st6{font-family:'ArialMT';}
	.st7{font-size:36.7937px;}
	.st8{font-family:'PTMono-Bold';}
	.st9{font-size:29.435px;}
	.st10{fill:#15499A;}
</style>
<g id="reference" class="st0">
	<g id="ocVzZ8.tif" class="st1">
	</g>
	<g id="w3lq9X.tif" class="st1">
	</g>
</g>
<g id="prescription_page">
	<rect x="219.1" y="50" class="st2" width="519.8" height="456"/>
	<rect x="237" y="302" class="st3" width="487.6" height="49.8"/>
	<rect x="732" y="53" class="st4" width="3.9" height="449.1"/>
	<line class="st5" x1="237" y1="219.3" x2="724.7" y2="219.3"/>
	<line class="st5" x1="237" y1="290.9" x2="724.7" y2="290.9"/>
	<line class="st5" x1="237" y1="362.5" x2="724.7" y2="362.5"/>
	<line class="st5" x1="237" y1="434.2" x2="724.7" y2="434.2"/>
	<path d="M285.1,120.2l11.3-16.7h-10.5l-6.6,10.8l-7.8-11.8c2-0.7,3.4-2,4.7-3.7c1.2-1.7,2-3.9,2-6.6c0-3.2-1-6.1-3.2-8.1
		c-2.2-2.2-4.9-3.2-8.8-3.2H249v34.3h8.8v-11.5h4.4l0,0h-0.5l11.3,16.7l-12,17.7h10.5l7.4-11.5l7.4,11.5h10.5L285.1,120.2z
		 M257.9,95.7v-7.4h7.1c1.2,0,2.2,0.2,2.9,1c0.7,0.7,1.2,1.5,1.2,2.7s-0.5,2-1.2,2.7s-1.7,1-2.9,1C265,95.7,257.9,95.7,257.9,95.7z"
		/>
	<text transform="matrix(1 0 0 1 249.0576 270.678)" class="st6 st7">PRESCRIPTION:</text>
	<text transform="matrix(1 0 0 1 328.7774 340.213)" class="st8 st7">PETHIDINE 50mg</text>
	<text transform="matrix(1 0 0 1 429.3459 100.0471)" class="st6 st9">PATIENT NAME:</text>
	<text transform="matrix(1 0 0 1 429.3459 137.8808)" class="st10 st8 st9">JANE DOE</text>
</g>
</svg>
