<?xml version="1.0" encoding="utf-8"?>
<!-- Generator: Adobe Illustrator 21.0.2, SVG Export Plug-In . SVG Version: 6.00 Build 0)  -->
<svg version="1.1" id="Layer_1" xmlns="http://www.w3.org/2000/svg" xmlns:xlink="http://www.w3.org/1999/xlink" x="0px" y="0px"
	 viewBox="0 0 50 50" style="enable-background:new 0 0 50 50;" xml:space="preserve">
<style type="text/css">
	.st0{fill:#318400;}
</style>
<path class="st0" d="M35.1,1.5c-0.2,0-0.4,0.1-0.6,0.3L1.9,34.4c-0.4,0.4-0.4,1,0,1.4L14.1,48c0.4,0.4,1,0.4,1.4,0c0,0,0,0,0,0
	l32.6-32.6c0.4-0.4,0.4-1,0-1.4L35.9,1.8c0-0.1-0.1-0.1-0.2-0.2C35.6,1.5,35.4,1.5,35.1,1.5C35.1,1.5,35.1,1.5,35.1,1.5z M35.2,3.9
	L46,14.8L14.8,45.9L4,35.1l2.8-2.8l2.4,2.4l1.4-1.4l-2.4-2.4l2.6-2.6l5.4,5.4l1.4-1.4l-5.4-5.4l2.6-2.6l2.4,2.4l1.4-1.4l-2.4-2.4
	l2.6-2.6l5.4,5.4l1.4-1.4l-5.4-5.4l2.6-2.6l2.4,2.4l1.4-1.4l-2.4-2.4l2.6-2.6l5.4,5.4l1.4-1.4l-5.4-5.4l2.6-2.6l2.4,2.4l1.4-1.4
	l-2.4-2.4L35.2,3.9z"/>
</svg>
