<?xml version="1.0" encoding="utf-8"?>
<!-- Generator: Adobe Illustrator 19.1.0, SVG Export Plug-In . SVG Version: 6.00 Build 0)  -->
<!DOCTYPE svg PUBLIC "-//W3C//DTD SVG 1.1//EN" "http://www.w3.org/Graphics/SVG/1.1/DTD/svg11.dtd">
<svg version="1.1" id="Layer_1" xmlns="http://www.w3.org/2000/svg" xmlns:xlink="http://www.w3.org/1999/xlink" x="0px" y="0px"
	 viewBox="0 0 152.3 122.5" enable-background="new 0 0 152.3 122.5" xml:space="preserve">
<g>
	<g>
		<g>
			<rect x="1.2" y="1.2" fill="#FFFFFF" stroke="#9BD8F3" stroke-width="2" stroke-miterlimit="10" width="30" height="30"/>
			<rect x="91.2" y="1.2" fill="#FFFFFF" stroke="#9BD8F3" stroke-width="2" stroke-miterlimit="10" width="30" height="30"/>
			<rect x="61.2" y="1.2" fill="#FFFFFF" stroke="#9BD8F3" stroke-width="2" stroke-miterlimit="10" width="30" height="30"/>
			<rect x="31.2" y="1.2" fill="#FFFFFF" stroke="#9BD8F3" stroke-width="2" stroke-miterlimit="10" width="30" height="30"/>
			<rect x="121.2" y="1.2" fill="#FFFFFF" stroke="#9BD8F3" stroke-width="2" stroke-miterlimit="10" width="30" height="30"/>
		</g>
		<g>
			<rect x="1.2" y="31.2" fill="#FFFFFF" stroke="#9BD8F3" stroke-width="2" stroke-miterlimit="10" width="30" height="30"/>
			<rect x="91.2" y="31.2" fill="#FFFFFF" stroke="#9BD8F3" stroke-width="2" stroke-miterlimit="10" width="30" height="30"/>
			<rect x="61.2" y="31.2" fill="#FFFFFF" stroke="#9BD8F3" stroke-width="2" stroke-miterlimit="10" width="30" height="30"/>
			<rect x="31.2" y="31.2" fill="#FFFFFF" stroke="#9BD8F3" stroke-width="2" stroke-miterlimit="10" width="30" height="30"/>
			<rect x="121.2" y="31.2" fill="#FFFFFF" stroke="#9BD8F3" stroke-width="2" stroke-miterlimit="10" width="30" height="30"/>
		</g>
		<g>
			<rect x="1.2" y="61.2" fill="#FFFFFF" stroke="#9BD8F3" stroke-width="2" stroke-miterlimit="10" width="30" height="30"/>
			<rect x="91.2" y="61.2" fill="#FFFFFF" stroke="#9BD8F3" stroke-width="2" stroke-miterlimit="10" width="30" height="30"/>
			<rect x="61.2" y="61.2" fill="#FFFFFF" stroke="#9BD8F3" stroke-width="2" stroke-miterlimit="10" width="30" height="30"/>
			<rect x="31.2" y="61.2" fill="#FFFFFF" stroke="#9BD8F3" stroke-width="2" stroke-miterlimit="10" width="30" height="30"/>
			<rect x="121.2" y="61.2" fill="#FFFFFF" stroke="#9BD8F3" stroke-width="2" stroke-miterlimit="10" width="30" height="30"/>
		</g>
		<g>
			<rect x="1.2" y="91.2" fill="#FFFFFF" stroke="#9BD8F3" stroke-width="2" stroke-miterlimit="10" width="30" height="30"/>
			<rect x="91.2" y="91.2" fill="#FFFFFF" stroke="#9BD8F3" stroke-width="2" stroke-miterlimit="10" width="30" height="30"/>
			<rect x="61.2" y="91.2" fill="#FFFFFF" stroke="#9BD8F3" stroke-width="2" stroke-miterlimit="10" width="30" height="30"/>
			<rect x="31.2" y="91.2" fill="#FFFFFF" stroke="#9BD8F3" stroke-width="2" stroke-miterlimit="10" width="30" height="30"/>
			<rect x="121.2" y="91.2" fill="#FFFFFF" stroke="#9BD8F3" stroke-width="2" stroke-miterlimit="10" width="30" height="30"/>
		</g>
	</g>
	<g>
		<path fill="#C7D8E5" d="M16.2,5.6c-2.6,0.3-7.1,10.5-7.1,14.1c0,4,3.2,7.2,7.1,7.2s7.1-3.2,7.1-7.2C23.3,16.1,18.7,5.9,16.2,5.6z"
			/>
		<path fill="#C7D8E5" d="M136.2,5.6c-2.6,0.3-7.1,10.5-7.1,14.1c0,4,3.2,7.2,7.1,7.2c3.9,0,7.1-3.2,7.1-7.2
			C143.3,16.1,138.7,5.9,136.2,5.6z"/>
		<path fill="#C7D8E5" d="M76.2,5.6c-2.6,0.3-7.1,10.5-7.1,14.1c0,4,3.2,7.2,7.1,7.2c3.9,0,7.1-3.2,7.1-7.2
			C83.3,16.1,78.7,5.9,76.2,5.6z"/>
		<path fill="#C7D8E5" d="M106.2,5.6c-2.6,0.3-7.1,10.5-7.1,14.1c0,4,3.2,7.2,7.1,7.2s7.1-3.2,7.1-7.2
			C113.3,16.1,108.7,5.9,106.2,5.6z"/>
		<path fill="#C7D8E5" d="M46.2,5.6c-2.6,0.3-7.1,10.5-7.1,14.1c0,4,3.2,7.2,7.1,7.2s7.1-3.2,7.1-7.2C53.3,16.1,48.7,5.9,46.2,5.6z"
			/>
	</g>
	<g>
		<path fill="#C7D8E5" d="M16.2,95.6c-2.6,0.3-7.1,10.5-7.1,14.1c0,4,3.2,7.2,7.1,7.2s7.1-3.2,7.1-7.2
			C23.3,106.1,18.7,95.9,16.2,95.6z"/>
		<path fill="#C7D8E5" d="M136.2,95.6c-2.6,0.3-7.1,10.5-7.1,14.1c0,4,3.2,7.2,7.1,7.2c3.9,0,7.1-3.2,7.1-7.2
			C143.3,106.1,138.7,95.9,136.2,95.6z"/>
		<path fill="#C7D8E5" d="M76.2,95.6c-2.6,0.3-7.1,10.5-7.1,14.1c0,4,3.2,7.2,7.1,7.2c3.9,0,7.1-3.2,7.1-7.2
			C83.3,106.1,78.7,95.9,76.2,95.6z"/>
		<path fill="#C7D8E5" d="M106.2,95.6c-2.6,0.3-7.1,10.5-7.1,14.1c0,4,3.2,7.2,7.1,7.2s7.1-3.2,7.1-7.2
			C113.3,106.1,108.7,95.9,106.2,95.6z"/>
		<path fill="#C7D8E5" d="M46.2,95.6c-2.6,0.3-7.1,10.5-7.1,14.1c0,4,3.2,7.2,7.1,7.2s7.1-3.2,7.1-7.2
			C53.3,106.1,48.7,95.9,46.2,95.6z"/>
	</g>
	<g>
		<path fill="#C7D8E5" d="M16.2,35.6c-2.6,0.3-7.1,10.5-7.1,14.1c0,4,3.2,7.2,7.1,7.2s7.1-3.2,7.1-7.2
			C23.3,46.1,18.7,35.9,16.2,35.6z"/>
		<path fill="#C7D8E5" d="M136.2,35.6c-2.6,0.3-7.1,10.5-7.1,14.1c0,4,3.2,7.2,7.1,7.2c3.9,0,7.1-3.2,7.1-7.2
			C143.3,46.1,138.7,35.9,136.2,35.6z"/>
		<path fill="#C7D8E5" d="M76.2,35.6c-2.6,0.3-7.1,10.5-7.1,14.1c0,4,3.2,7.2,7.1,7.2c3.9,0,7.1-3.2,7.1-7.2
			C83.3,46.1,78.7,35.9,76.2,35.6z"/>
		<path fill="#C7D8E5" d="M106.2,35.6c-2.6,0.3-7.1,10.5-7.1,14.1c0,4,3.2,7.2,7.1,7.2s7.1-3.2,7.1-7.2
			C113.3,46.1,108.7,35.9,106.2,35.6z"/>
		<path fill="#C7D8E5" d="M46.2,35.6c-2.6,0.3-7.1,10.5-7.1,14.1c0,4,3.2,7.2,7.1,7.2s7.1-3.2,7.1-7.2
			C53.3,46.1,48.7,35.9,46.2,35.6z"/>
	</g>
	<g>
		<path fill="#C7D8E5" d="M16.2,65.6c-2.6,0.3-7.1,10.5-7.1,14.1c0,4,3.2,7.2,7.1,7.2s7.1-3.2,7.1-7.2
			C23.3,76.1,18.7,65.9,16.2,65.6z"/>
		<path fill="#C7D8E5" d="M136.2,65.6c-2.6,0.3-7.1,10.5-7.1,14.1c0,4,3.2,7.2,7.1,7.2c3.9,0,7.1-3.2,7.1-7.2
			C143.3,76.1,138.7,65.9,136.2,65.6z"/>
		<path fill="#C7D8E5" d="M76.2,65.6c-2.6,0.3-7.1,10.5-7.1,14.1c0,4,3.2,7.2,7.1,7.2c3.9,0,7.1-3.2,7.1-7.2
			C83.3,76.1,78.7,65.9,76.2,65.6z"/>
		<path fill="#C7D8E5" d="M106.2,65.6c-2.6,0.3-7.1,10.5-7.1,14.1c0,4,3.2,7.2,7.1,7.2s7.1-3.2,7.1-7.2
			C113.3,76.1,108.7,65.9,106.2,65.6z"/>
		<path fill="#C7D8E5" d="M46.2,65.6c-2.6,0.3-7.1,10.5-7.1,14.1c0,4,3.2,7.2,7.1,7.2s7.1-3.2,7.1-7.2
			C53.3,76.1,48.7,65.9,46.2,65.6z"/>
	</g>
</g>
</svg>
