<?xml version="1.0" encoding="utf-8"?>
<!-- Generator: Adobe Illustrator 19.0.1, SVG Export Plug-In . SVG Version: 6.00 Build 0)  -->
<!DOCTYPE svg PUBLIC "-//W3C//DTD SVG 1.1//EN" "http://www.w3.org/Graphics/SVG/1.1/DTD/svg11.dtd">
<svg version="1.1" id="Layer_1" xmlns="http://www.w3.org/2000/svg" xmlns:xlink="http://www.w3.org/1999/xlink" x="0px" y="0px"
	 viewBox="-201 111 556.5 340" style="enable-background:new -201 111 556.5 340;" xml:space="preserve">
<style type="text/css">
	.st0{fill:#C7D8E5;}
	.st1{fill:none;stroke:#49494A;stroke-width:2;stroke-miterlimit:10;}
	.st2{opacity:0.25;}
	.st3{fill:#FFFFFF;}
	.st4{fill:#FFFFFF;stroke:#49494A;stroke-width:2;stroke-miterlimit:10;}
	.st5{fill:#A0A09F;}
	.st6{fill:#154899;}
	.st7{fill:#8C8B8B;}
	.st8{opacity:0.25;fill:#FFFFFF;enable-background:new    ;}
	.st9{fill:#999999;stroke:#000000;stroke-width:3;stroke-miterlimit:10;}
	.st10{fill:#B3B3B3;stroke:#000000;stroke-width:3;stroke-miterlimit:10;}
	.st11{fill:#7AC943;stroke:#000000;stroke-width:3;stroke-miterlimit:10;}
	.st12{fill:#C7B299;stroke:#000000;stroke-width:3;stroke-miterlimit:10;}
	.st13{fill:#666666;stroke:#000000;stroke-width:3;stroke-miterlimit:10;}
	.st14{fill:#333333;stroke:#000000;stroke-width:3;stroke-miterlimit:10;}
	.st15{fill:#E47E30;stroke:#000000;stroke-width:3;stroke-miterlimit:10;}
</style>
<g id="bottles">
	<g>
		<path class="st0" d="M-52.5,300.8h-2.2V294h-25.6v6.6h-1.4c-2.5,0.3-4.5,2.4-4.5,5v2.8v2.5v47.4c0,2.8,2.3,5,5,5h27.4
			c2.8,0,5-2.3,5-5v-47.4v-2.5v-2.8C-48.8,303.3-50.3,301.3-52.5,300.8z"/>
		<path class="st1" d="M-50.7,296.7v-3.8h-33.8v3.8c-3,0.3-5.4,2.8-5.4,5.9v59.1c0,3.3,2.7,6,6,6h32.6c3.3,0,6-2.7,6-6v-59.1
			C-45.2,299.6-47.7,297-50.7,296.7z"/>
		<g class="st2">
			<path class="st3" d="M-82.2,354.8c0,1.6-0.5,2.8-1.1,2.8s-1.1-1.3-1.1-2.8v-47.3c0-1.6,0.5-2.8,1.1-2.8s1.1,1.3,1.1,2.8V354.8z"
				/>
		</g>
		<rect x="-89.8" y="316.6" class="st4" width="44.5" height="31.9"/>
		<g>
			<path class="st5" d="M-46.2,290.5c0-1.6-1.3-2.8-2.8-2.8h-37c-1.6,0-2.8,1.3-2.8,2.8v0.5c0,1.6,1.3,2.8,2.8,2.8h37
				c1.6,0,2.8-1.3,2.8-2.8C-46.2,291-46.2,290.5-46.2,290.5z"/>
		</g>
		<rect x="-89.2" y="329" class="st6" width="43.3" height="6"/>
		<rect x="-89.2" y="344.5" class="st6" width="43.3" height="1"/>
		<path class="st7" d="M-47.5,292.4h-40.1c-0.7,0-1.3-0.6-1.3-1.3v0.9c0,0.7,0.6,1.3,1.3,1.3h40.1c0.7,0,1.3-0.6,1.3-1.3v-0.9
			C-46.2,291.8-46.8,292.4-47.5,292.4z"/>
		<g>
			<path class="st1" d="M-46.2,290.5c0-1.6-1.3-2.8-2.8-2.8h-37c-1.6,0-2.8,1.3-2.8,2.8v0.5c0,1.6,1.3,2.8,2.8,2.8h37
				c1.6,0,2.8-1.3,2.8-2.8C-46.2,291-46.2,290.5-46.2,290.5z"/>
		</g>
		<ellipse class="st8" cx="-67.6" cy="360.5" rx="9.4" ry="1.3"/>
	</g>
	<g>
		<path class="st0" d="M-2.1,300.8h-2.2V294h-25.6v6.6h-1.4c-2.5,0.3-4.5,2.4-4.5,5v2.8v2.5v47.4c0,2.8,2.3,5,5,5h27.4
			c2.8,0,5-2.3,5-5v-47.4v-2.5v-2.8C1.7,303.3,0.2,301.3-2.1,300.8z"/>
		<path class="st1" d="M-0.2,296.7v-3.8H-34v3.8c-3,0.3-5.4,2.8-5.4,5.9v59.1c0,3.3,2.7,6,6,6h32.6c3.3,0,6-2.7,6-6v-59.1
			C5.2,299.6,2.8,297-0.2,296.7z"/>
		<g class="st2">
			<path class="st3" d="M-31.8,354.8c0,1.6-0.5,2.8-1.1,2.8s-1.1-1.3-1.1-2.8v-47.3c0-1.6,0.5-2.8,1.1-2.8s1.1,1.3,1.1,2.8V354.8z"
				/>
		</g>
		<rect x="-39.3" y="316.6" class="st4" width="44.5" height="31.9"/>
		<g>
			<path class="st5" d="M4.3,290.5c0-1.6-1.3-2.8-2.8-2.8h-37c-1.6,0-2.8,1.3-2.8,2.8v0.5c0,1.6,1.3,2.8,2.8,2.8h37
				c1.6,0,2.8-1.3,2.8-2.8C4.3,291,4.3,290.5,4.3,290.5z"/>
		</g>
		<rect x="-38.7" y="329" class="st6" width="43.3" height="6"/>
		<rect x="-38.7" y="344.5" class="st6" width="43.3" height="1"/>
		<path class="st7" d="M3,292.4h-40.1c-0.7,0-1.3-0.6-1.3-1.3v0.9c0,0.7,0.6,1.3,1.3,1.3H3c0.7,0,1.3-0.6,1.3-1.3v-0.9
			C4.3,291.8,3.8,292.4,3,292.4z"/>
		<g>
			<path class="st1" d="M4.3,290.5c0-1.6-1.3-2.8-2.8-2.8h-37c-1.6,0-2.8,1.3-2.8,2.8v0.5c0,1.6,1.3,2.8,2.8,2.8h37
				c1.6,0,2.8-1.3,2.8-2.8C4.3,291,4.3,290.5,4.3,290.5z"/>
		</g>
		<ellipse class="st8" cx="-17" cy="360.5" rx="9.4" ry="1.3"/>
	</g>
</g>
<g id="bottle">
	<path class="st0" d="M95.9,385.1h-2.2v-6.6H68.2v6.6h-1.4c-2.5,0.3-4.5,2.4-4.5,5v2.8v2.5v47.4c0,2.8,2.3,5,5,5h27.4
		c2.8,0,5-2.3,5-5v-47.4v-2.5V390C99.7,387.6,98.2,385.7,95.9,385.1z"/>
	<path class="st1" d="M97.8,381v-3.8H64.2v3.8c-3,0.3-5.4,2.8-5.4,5.9V446c0,3.3,2.7,6,6,6h32.6c3.3,0,6-2.7,6-6v-59.1
		C103.2,384,100.8,381.3,97.8,381z"/>
	<g class="st2">
		<path class="st3" d="M66.2,439.2c0,1.6-0.5,2.8-1.1,2.8s-1.1-1.3-1.1-2.8V392c0-1.6,0.5-2.8,1.1-2.8s1.1,1.3,1.1,2.8V439.2z"/>
	</g>
	<rect x="58.8" y="401" class="st4" width="44.5" height="31.9"/>
	<g>
		<path class="st5" d="M102.3,374.8c0-1.6-1.3-2.8-2.8-2.8h-37c-1.6,0-2.8,1.3-2.8,2.8v0.5c0,1.6,1.3,2.8,2.8,2.8h37
			c1.6,0,2.8-1.3,2.8-2.8V374.8z"/>
	</g>
	<rect x="59.2" y="413.5" class="st6" width="43.3" height="6"/>
	<rect x="59.2" y="428.8" class="st6" width="43.3" height="1"/>
	<path class="st7" d="M100.9,376.7H60.8c-0.7,0-1.3-0.6-1.3-1.3v0.9c0,0.7,0.6,1.3,1.3,1.3h40.1c0.7,0,1.3-0.6,1.3-1.3v-0.8
		C102.3,376.3,101.7,376.7,100.9,376.7z"/>
	<g>
		<path class="st1" d="M102.3,374.8c0-1.6-1.3-2.8-2.8-2.8h-37c-1.6,0-2.8,1.3-2.8,2.8v0.5c0,1.6,1.3,2.8,2.8,2.8h37
			c1.6,0,2.8-1.3,2.8-2.8V374.8z"/>
	</g>
	<ellipse class="st8" cx="80.9" cy="444.8" rx="9.4" ry="1.3"/>
</g>
<g id="machine">
	<path class="st9" d="M80.1,258.3L80.1,258.3c-2.6,0-4.7-2.1-4.7-4.7V204c0-2.6,2.1-4.7,4.7-4.7l0,0c2.6,0,4.7,2.1,4.7,4.7v49.7
		C84.7,256.2,82.6,258.3,80.1,258.3z"/>
	<path class="st9" d="M41,232L41,232c2.2,1.6,5.4,1.1,7-1.2l15.7-22c1.6-2.2,1.1-5.4-1.2-7l0,0c-2.2-1.6-5.4-1.1-7,1.2l-15.7,22
		C38.2,227.3,38.8,230.4,41,232z"/>
	<path id="left_hand" class="st9" d="M61.8,255.4L61.8,255.4c2.3-1.5,3-4.6,1.5-6.9l-14.6-22.7c-1.5-2.3-4.6-3-6.9-1.5l0,0
		c-2.3,1.5-3,4.6-1.5,6.9l14.6,22.7C56.3,256.2,59.5,256.9,61.8,255.4z"/>
	<circle class="st9" cx="44.8" cy="228.8" r="5.2"/>
	<path class="st9" d="M119.6,232L119.6,232c-2.2,1.6-5.4,1.1-7-1.2l-15.7-22c-1.6-2.2-1.1-5.4,1.2-7l0,0c2.2-1.6,5.4-1.1,7,1.2
		l15.7,22C122.3,227.3,121.8,230.4,119.6,232z"/>
	<path id="right_hand" class="st9" d="M98.8,255.4L98.8,255.4c-2.3-1.5-3-4.6-1.5-6.9l14.6-22.7c1.5-2.3,4.6-3,6.9-1.5l0,0
		c2.3,1.5,3,4.6,1.5,6.9l-14.6,22.7C104.2,256.2,101.2,256.9,98.8,255.4z"/>
	<circle class="st9" cx="115.8" cy="228.8" r="5.2"/>
	<circle class="st9" cx="79.8" cy="228.8" r="5.2"/>
	<path class="st9" d="M107.8,204.3H51.8c-3.8,0-7-3.2-7-7l0,0c0-3.8,3.1-7,7-7h56.1c3.9,0,7,3.1,7,7l0,0
		C114.8,201.2,111.8,204.3,107.8,204.3z"/>
	<path class="st10" d="M90.8,190.3H68.2c-6.6,0-12-5.4-12-12V128c0-6.6,5.4-12,12-12h22.5c6.6,0,12,5.4,12,12v50.3
		C102.8,184.9,97.3,190.3,90.8,190.3z"/>
	<circle id="flash" class="st11" cx="91.7" cy="178.4" r="4.1"/>
</g>
<g id="box">
	<rect x="-99.2" y="338.8" class="st12" width="111.4" height="31.6"/>
	<polygon class="st12" points="12.1,338.8 -99.2,338.8 -104.4,327.7 17.2,327.7 	"/>
</g>
<g>
	<path class="st10" d="M295.2,451h-436c-22,0-40-18-40-40l0,0c0-22,18-40,40-40h436c22,0,40,18,40,40l0,0
		C335.2,433,317.2,451,295.2,451z"/>
	<circle class="st13" cx="-142.6" cy="411.1" r="38.1"/>
	<circle class="st13" cx="-33" cy="411.1" r="38.1"/>
	<circle class="st13" cx="76.8" cy="411.1" r="38.1"/>
	<circle class="st13" cx="186.4" cy="411.1" r="38.1"/>
	<circle class="st13" cx="297.1" cy="411" r="38.1"/>
	<circle class="st14" cx="-142.6" cy="411.1" r="9.1"/>
	<circle class="st14" cx="-32.7" cy="411.1" r="9.1"/>
	<circle class="st14" cx="76.3" cy="411.1" r="9.1"/>
	<circle class="st14" cx="186.4" cy="411.1" r="9.1"/>
	<circle class="st14" cx="297.4" cy="411.1" r="9.1"/>
</g>
</svg>
