<?xml version="1.0" encoding="utf-8"?>
<!-- Generator: Adobe Illustrator 18.1.1, SVG Export Plug-In . SVG Version: 6.00 Build 0)  -->
<!DOCTYPE svg PUBLIC "-//W3C//DTD SVG 1.1//EN" "http://www.w3.org/Graphics/SVG/1.1/DTD/svg11.dtd">
<svg version="1.1" id="Layer_1" xmlns="http://www.w3.org/2000/svg" xmlns:xlink="http://www.w3.org/1999/xlink" x="0px" y="0px"
	 viewBox="411 0 135 560" enable-background="new 411 0 135 560" xml:space="preserve">
<g id="push-handle">
	<path fill="none" stroke="#C8C8C8" stroke-width="3" stroke-miterlimit="10" d="M458.6,180.4v78.9c0,6,5.5,10.9,12.2,10.9h15.5
		c6.7,0,12.2-4.9,12.2-10.9v-78.9H458.6z"/>
	<polygon fill="#FFFFFF" stroke="#49494A" stroke-width="2" stroke-miterlimit="10" points="491.8,112.2 465.4,112.2 458.6,180.4 
		498.6,180.4 	"/>
	<g>
		<path fill="#E5E5E4" d="M513,114.1c0,4-3.3,7.3-7.3,7.3h-54.2c-4,0-7.3-3.3-7.3-7.3v-3.9c0-4,3.3-7.3,7.3-7.3h54.2
			c4,0,7.3,3.3,7.3,7.3V114.1z"/>
		<path fill="none" stroke="#49494A" stroke-width="2" stroke-miterlimit="10" d="M513,114.1c0,4-3.3,7.3-7.3,7.3h-54.2
			c-4,0-7.3-3.3-7.3-7.3v-3.9c0-4,3.3-7.3,7.3-7.3h54.2c4,0,7.3,3.3,7.3,7.3V114.1z"/>
	</g>
	<path fill="#C8C8C8" d="M458.6,254.1v5.3c0,6,5.5,10.9,12.2,10.9h15.5c6.7,0,12.2-4.9,12.2-10.9v-5.3H458.6z"/>
	<polygon fill="#E5E5E4" stroke="#49494A" stroke-width="2" stroke-miterlimit="10" points="493.1,108.3 491.8,95.5 465.4,95.5 
		464.2,108.3 	"/>
</g>
<g>
	<g>
		<g>
			<defs>
				<path id="SVGID_1_" d="M504.8,401.2v-13h-50.3v13c-9.2,0-12.8,5.6-12.8,11.5v108.1c0,6.3,4.6,11.5,10.2,11.5h55.7
					c5.6,0,10.2-5.1,10.2-11.5V412.7C517.6,406.7,514.3,401.2,504.8,401.2z"/>
			</defs>
			<clipPath id="SVGID_2_">
				<use xlink:href="#SVGID_1_"  overflow="visible"/>
			</clipPath>
			<rect id="bottle-ml" x="437.8" y="387.7" clip-path="url(#SVGID_2_)" fill="#C7D8E5" width="82.5" height="148.9"/>
		</g>
	</g>
	<path fill="none" stroke="#49494A" stroke-width="2" stroke-miterlimit="10" d="M514.3,393.7v-8.1h-71v8.1
		c-6.3,0.7-11.3,6-11.3,12.5v124.2c0,6.9,5.6,12.6,12.6,12.6H513c6.9,0,12.6-5.6,12.6-12.6V406.1
		C525.6,399.7,520.6,394.4,514.3,393.7z"/>
	<g opacity="0.25">
		<path fill="#FFFFFF" d="M448,519c0,1.6-1,2.7-2.3,2.7c-1.3,0-2.3-1.3-2.3-2.7V413.3c0-1.6,1.1-2.7,2.3-2.7c1.2,0,2.3,1.3,2.3,2.7
			V519z"/>
	</g>
	<rect x="432" y="435.5" fill="#FFFFFF" stroke="#49494A" stroke-width="2" stroke-miterlimit="10" width="93.5" height="67.1"/>
	<g>
		<path fill="#A0A09F" d="M523.6,377.5c0-1.6-1.3-2.7-2.7-2.7h-84.2c-1.6,0-2.7,1.3-2.7,2.7v7.5c0,1.6,1.3,2.7,2.7,2.7h84.3
			c1.6,0,2.7-1.3,2.7-2.7L523.6,377.5L523.6,377.5z"/>
	</g>
	<rect x="433.3" y="461.6" fill="#154899" width="90.9" height="12.6"/>
	<rect x="433.3" y="494.1" fill="#154899" width="90.9" height="2.1"/>
	<text transform="matrix(1 0 0 1 437.6267 454.9659)" fill="#231F20" font-family="'ArialMT'" font-size="15.7122">Googacillin</text>
	<text transform="matrix(1 0 0 1 439.3445 488.3536)" fill="#A0A09F" font-family="'ArialMT'" font-size="13.7482">25mg/10ml</text>
	<path fill="#8C8B8B" d="M520.8,384.7h-84.2c-1.6,0-2.7-1.3-2.7-2.7v2c0,1.6,1.3,2.7,2.7,2.7h84.3c1.6,0,2.7-1.3,2.7-2.7v-2
		C523.6,383.5,522.4,384.7,520.8,384.7z"/>
	<g>
		<path fill="none" stroke="#49494A" stroke-width="2" stroke-miterlimit="10" d="M523.6,377.5c0-1.6-1.3-2.7-2.7-2.7h-84.2
			c-1.6,0-2.7,1.3-2.7,2.7v7.5c0,1.6,1.3,2.7,2.7,2.7h84.3c1.6,0,2.7-1.3,2.7-2.7L523.6,377.5L523.6,377.5z"/>
	</g>
	<ellipse opacity="0.25" fill="#FFFFFF" enable-background="new    " cx="478.7" cy="527.7" rx="19.8" ry="2.7"/>
</g>
<g>
	<g>
		<g>
			<defs>
				<path id="SVGID_3_" d="M500.9,127.5h-44.3h-5.8v15.7h5.8c0,0,0,139.6,0,165.2c0,2.3,1.8,6.8,3.9,7.7c4.2,1.8,11.7,2.6,11.7,2.6
					l1.9,8.5h10.1l-0.8-8.5c0,0,12.8-1.8,15-3.1c2.1-1.3,2.4-3.7,2.4-5.9c0-25.8,0-166.5,0-166.5h5.8v-15.7H500.9z"/>
			</defs>
			<clipPath id="SVGID_4_">
				<use xlink:href="#SVGID_3_"  overflow="visible"/>
			</clipPath>
			<rect id="ml" x="428.4" y="328.4" clip-path="url(#SVGID_4_)" fill="#C7D8E5" width="105.2" height="174.8"/>
		</g>
	</g>
	<g>
		<path fill="none" stroke="#49494A" stroke-width="2" stroke-miterlimit="10" d="M509.4,129.7c-1.9,0-5.1,0-7.2,0h-47.3
			c-2.1,0-5.3,0-7.2,0s-3.5,1.7-3.5,3.6v8.5c0,2.1,1.5,3.6,3.5,3.6s3.5,1.7,3.5,3.6v168.1c0,2.1,1.7,3.6,3.6,3.6h10.3
			c2.1,0,3.6,1.7,3.6,3.6v1.2c0,2.1,1.7,3.6,3.6,3.6h12.5c2.1,0,3.6-1.7,3.6-3.6v-1.2c0-2.1,1.7-3.6,3.6-3.6h10.3
			c2.1,0,3.6-1.7,3.6-3.6v-168c0-2.1,1.5-3.6,3.5-3.6s3.7-1.7,3.7-3.7v-8.3C513,131.4,511.3,129.7,509.4,129.7z"/>
	</g>
	<polygon fill="#CA2027" stroke="#49494A" stroke-width="2" stroke-linejoin="round" stroke-miterlimit="10" points="472.5,353.3 
		484.7,353.3 487.8,328.4 469.3,328.4 	"/>
	
		<line fill="none" stroke="#49494A" stroke-width="2" stroke-linecap="round" stroke-miterlimit="10" x1="478.6" y1="353.3" x2="478.6" y2="396.1"/>
	<g>
		<rect x="495.6" y="305.9" fill="#676767" width="9.1" height="2.7"/>
		<rect x="495.6" y="280.2" fill="#676767" width="9.1" height="2.7"/>
		<rect x="495.6" y="254.5" fill="#676767" width="9.1" height="2.7"/>
		<rect x="495.6" y="228.8" fill="#676767" width="9.1" height="2.7"/>
		<rect x="495.6" y="203" fill="#676767" width="9.1" height="2.7"/>
		<text transform="matrix(1 0 0 1 485.1813 310.1684)" fill="#676767" font-family="'Arial-BoldMT'" font-size="11.6208">2</text>
		<text transform="matrix(1 0 0 1 485.1802 284.6933)" fill="#676767" font-family="'Arial-BoldMT'" font-size="11.6208">4</text>
		<text transform="matrix(1 0 0 1 485.1812 259.2183)" fill="#676767" font-family="'Arial-BoldMT'" font-size="11.6208">6</text>
		<text transform="matrix(1 0 0 1 485.1812 233.7431)" fill="#676767" font-family="'Arial-BoldMT'" font-size="11.6208">8</text>
		<text transform="matrix(1 0 0 1 465.1536 208.2679)" fill="#676767" font-family="'Arial-BoldMT'" font-size="11.6208">10ml</text>
	</g>
</g>
</svg>
