<?xml version="1.0" encoding="utf-8"?>
<!-- Generator: Adobe Illustrator 19.1.0, SVG Export Plug-In . SVG Version: 6.00 Build 0)  -->
<!DOCTYPE svg PUBLIC "-//W3C//DTD SVG 1.1//EN" "http://www.w3.org/Graphics/SVG/1.1/DTD/svg11.dtd">
<svg version="1.1" id="Layer_1" xmlns="http://www.w3.org/2000/svg" xmlns:xlink="http://www.w3.org/1999/xlink" x="0px" y="0px"
	 viewBox="-135 169 1379 223" enable-background="new -135 169 1379 223" xml:space="preserve">
<g>
	<path fill="#A6D8F2" stroke="#333333" stroke-width="2" stroke-miterlimit="10" d="M76.7,382.3h-193c-2.8,0-5-2.2-5-5v-193
		c0-2.8,2.2-5,5-5h193c2.8,0,5,2.2,5,5v193C81.7,380.1,79.4,382.3,76.7,382.3z"/>
	<path fill="#BEDB39" stroke="#333333" stroke-width="2" stroke-miterlimit="10" d="M82,281H-20V179.3h97c2.8,0,5,2.2,5,5V281z"/>
	<line fill="none" stroke="#333333" stroke-width="2" stroke-miterlimit="10" x1="-121" y1="281" x2="82" y2="281"/>
	<line fill="none" stroke="#333333" stroke-width="2" stroke-miterlimit="10" x1="-20" y1="179" x2="-20" y2="382"/>
	<text transform="matrix(1 0 0 1 -79.6668 235.0002)" fill="#FFFFFF" font-family="'ArialMT'" font-size="21px">¼</text>
	<text transform="matrix(1 0 0 1 22.6665 235)" fill="#FFFFFF" font-family="'ArialMT'" font-size="21px">¼</text>
	<text transform="matrix(1 0 0 1 -79.667 337.6667)" fill="#FFFFFF" font-family="'ArialMT'" font-size="21px">¼</text>
	<text transform="matrix(1 0 0 1 22.6664 337.6665)" fill="#FFFFFF" font-family="'ArialMT'" font-size="21px">¼</text>
</g>
<g>
	<path fill="#CB9EE5" stroke="#333333" stroke-width="2" stroke-miterlimit="10" d="M306.7,382.3h-193c-2.8,0-5-2.2-5-5v-193
		c0-2.8,2.2-5,5-5h193c2.8,0,5,2.2,5,5v193C311.7,380.1,309.4,382.3,306.7,382.3z"/>
	<line fill="none" stroke="#333333" stroke-width="2" stroke-miterlimit="10" x1="109" y1="281" x2="312" y2="281"/>
	<line fill="none" stroke="#333333" stroke-width="2" stroke-miterlimit="10" x1="210" y1="179" x2="210" y2="382"/>
	<path fill="#BEDB39" stroke="#333333" stroke-width="2" stroke-miterlimit="10" d="M210.7,281h-102v-96.7c0-2.8,2.2-5,5-5h97V281z"
		/>
	<path fill="#BEDB39" stroke="#333333" stroke-width="2" stroke-miterlimit="10" d="M210.7,382.7h-97c-2.8,0-5-2.2-5-5V281h102
		V382.7z"/>
	<text transform="matrix(1 0 0 1 150.3332 235.0002)" fill="#FFFFFF" font-family="'ArialMT'" font-size="21px">¼</text>
	<text transform="matrix(1 0 0 1 252.6665 235)" fill="#FFFFFF" font-family="'ArialMT'" font-size="21px">¼</text>
	<text transform="matrix(1 0 0 1 150.333 337.6667)" fill="#FFFFFF" font-family="'ArialMT'" font-size="21px">¼</text>
	<text transform="matrix(1 0 0 1 252.6664 337.6665)" fill="#FFFFFF" font-family="'ArialMT'" font-size="21px">¼</text>
</g>
<g>
	<path fill="#F9BE70" stroke="#333333" stroke-width="2" stroke-miterlimit="10" d="M536.7,382.3h-193c-2.8,0-5-2.2-5-5v-193
		c0-2.8,2.2-5,5-5h193c2.8,0,5,2.2,5,5v193C541.7,380.1,539.4,382.3,536.7,382.3z"/>
	<path fill="#CB9EE5" stroke="#333333" stroke-width="2" stroke-miterlimit="10" d="M440,281H338.7v-96.7c0-2.8,2.2-5,5-5H440V281z"
		/>
	<line fill="none" stroke="#333333" stroke-width="2" stroke-miterlimit="10" x1="339" y1="281" x2="542" y2="281"/>
	<line fill="none" stroke="#333333" stroke-width="2" stroke-miterlimit="10" x1="440" y1="179" x2="440" y2="382"/>
	<text transform="matrix(1 0 0 1 380.3331 235.0002)" fill="#FFFFFF" font-family="'ArialMT'" font-size="21px">¼</text>
	<text transform="matrix(1 0 0 1 482.6665 235)" fill="#FFFFFF" font-family="'ArialMT'" font-size="21px">¼</text>
	<text transform="matrix(1 0 0 1 380.333 337.6667)" fill="#FFFFFF" font-family="'ArialMT'" font-size="21px">¼</text>
	<text transform="matrix(1 0 0 1 482.6664 337.6665)" fill="#FFFFFF" font-family="'ArialMT'" font-size="21px">¼</text>
</g>
<g>
	<path fill="#A6D8F2" stroke="#333333" stroke-width="2" stroke-miterlimit="10" d="M766.7,382h-193c-2.8,0-5-2.2-5-5V184
		c0-2.8,2.2-5,5-5h193c2.8,0,5,2.2,5,5v193C771.7,379.8,769.4,382,766.7,382z"/>
	<path fill="#BEDB39" stroke="#333333" stroke-width="2" stroke-miterlimit="10" d="M772,280.6H670V178.9h97c2.8,0,5,2.2,5,5V280.6z
		"/>
	<line fill="none" stroke="#333333" stroke-width="2" stroke-miterlimit="10" x1="569" y1="280.6" x2="772" y2="280.6"/>
	<line fill="none" stroke="#333333" stroke-width="2" stroke-miterlimit="10" x1="670" y1="178.6" x2="670" y2="381.6"/>
	<text transform="matrix(1 0 0 1 610.3332 234.6502)" fill="#FFFFFF" font-family="'ArialMT'" font-size="21px">¼</text>
	<text transform="matrix(1 0 0 1 712.6665 234.65)" fill="#FFFFFF" font-family="'ArialMT'" font-size="21px">¼</text>
	<text transform="matrix(1 0 0 1 610.333 337.3167)" fill="#FFFFFF" font-family="'ArialMT'" font-size="21px">¼</text>
	<text transform="matrix(1 0 0 1 712.6664 337.3165)" fill="#FFFFFF" font-family="'ArialMT'" font-size="21px">¼</text>
</g>
<g>
	<path fill="#CB9EE5" stroke="#333333" stroke-width="2" stroke-miterlimit="10" d="M996.7,382h-193c-2.8,0-5-2.2-5-5V184
		c0-2.8,2.2-5,5-5h193c2.8,0,5,2.2,5,5v193C1001.7,379.8,999.4,382,996.7,382z"/>
	<line fill="none" stroke="#333333" stroke-width="2" stroke-miterlimit="10" x1="799" y1="280.6" x2="1002" y2="280.6"/>
	<line fill="none" stroke="#333333" stroke-width="2" stroke-miterlimit="10" x1="900" y1="178.6" x2="900" y2="381.6"/>
	<path fill="#BEDB39" stroke="#333333" stroke-width="2" stroke-miterlimit="10" d="M900.7,280.6h-102v-96.7c0-2.8,2.2-5,5-5h97
		V280.6z"/>
	<path fill="#BEDB39" stroke="#333333" stroke-width="2" stroke-miterlimit="10" d="M900.7,382.4h-97c-2.8,0-5-2.2-5-5v-96.7h102
		V382.4z"/>
	<text transform="matrix(1 0 0 1 840.3333 234.6502)" fill="#FFFFFF" font-family="'ArialMT'" font-size="21px">¼</text>
	<text transform="matrix(1 0 0 1 942.6665 234.65)" fill="#FFFFFF" font-family="'ArialMT'" font-size="21px">¼</text>
	<text transform="matrix(1 0 0 1 840.333 337.3167)" fill="#FFFFFF" font-family="'ArialMT'" font-size="21px">¼</text>
	<text transform="matrix(1 0 0 1 942.6664 337.3165)" fill="#FFFFFF" font-family="'ArialMT'" font-size="21px">¼</text>
</g>
<g>
	<path fill="#F9BE70" stroke="#333333" stroke-width="2" stroke-miterlimit="10" d="M1226.7,382h-193c-2.8,0-5-2.2-5-5V184
		c0-2.8,2.2-5,5-5h193c2.8,0,5,2.2,5,5v193C1231.7,379.8,1229.4,382,1226.7,382z"/>
	<path fill="#CB9EE5" stroke="#333333" stroke-width="2" stroke-miterlimit="10" d="M1130,280.6h-101.3v-96.7c0-2.8,2.2-5,5-5h96.3
		V280.6z"/>
	<line fill="none" stroke="#333333" stroke-width="2" stroke-miterlimit="10" x1="1029" y1="280.6" x2="1232" y2="280.6"/>
	<line fill="none" stroke="#333333" stroke-width="2" stroke-miterlimit="10" x1="1130" y1="178.6" x2="1130" y2="381.6"/>
	<text transform="matrix(1 0 0 1 1070.3331 234.6502)" fill="#FFFFFF" font-family="'ArialMT'" font-size="21px">¼</text>
	<text transform="matrix(1 0 0 1 1172.6665 234.65)" fill="#FFFFFF" font-family="'ArialMT'" font-size="21px">¼</text>
	<text transform="matrix(1 0 0 1 1070.333 337.3167)" fill="#FFFFFF" font-family="'ArialMT'" font-size="21px">¼</text>
	<text transform="matrix(1 0 0 1 1172.6664 337.3165)" fill="#FFFFFF" font-family="'ArialMT'" font-size="21px">¼</text>
</g>
</svg>
