<?xml version="1.0" encoding="utf-8"?>
<!-- Generator: Adobe Illustrator 19.0.0, SVG Export Plug-In . SVG Version: 6.00 Build 0)  -->
<svg version="1.1" id="Layer_1" xmlns="http://www.w3.org/2000/svg" xmlns:xlink="http://www.w3.org/1999/xlink" x="0px" y="0px"
	 viewBox="0 0 205 205" style="enable-background:new 0 0 205 205;" xml:space="preserve">
<style type="text/css">
	.st0{fill:#E8EAEA;}
	.st1{fill:#9E9E9E;stroke:#303030;stroke-width:4;stroke-linecap:round;stroke-linejoin:round;stroke-miterlimit:10;}
	.st2{fill:#838383;stroke:#303030;stroke-width:4;stroke-linecap:round;stroke-linejoin:round;stroke-miterlimit:10;}
</style>
<g id="XMLID_22_">
	<circle id="XMLID_41_" class="st0" cx="102.5" cy="102.5" r="100"/>
	<g id="XMLID_37_">
		<path id="XMLID_38_" class="st1" d="M53.2,122.8h-19c-9.4,0-17-7.6-17-17v-3.3c0-9.4,7.6-17,17-17h19c9.4,0,17,7.6,17,17v3.3
			C70.2,115.2,62.5,122.8,53.2,122.8z M34.2,95.5c-3.9,0-7,3.1-7,7v3.3c0,3.9,3.1,7,7,7h19c3.9,0,7-3.1,7-7v-3.3c0-3.9-3.1-7-7-7
			H34.2z"/>
	</g>
	<g id="XMLID_33_">
		<path id="XMLID_34_" class="st1" d="M113.2,122.8h-19c-9.4,0-17-7.6-17-17v-3.3c0-9.4,7.6-17,17-17h19c9.4,0,17,7.6,17,17v3.3
			C130.2,115.2,122.5,122.8,113.2,122.8z M94.2,95.5c-3.9,0-7,3.1-7,7v3.3c0,3.9,3.1,7,7,7h19c3.9,0,7-3.1,7-7v-3.3c0-3.9-3.1-7-7-7
			H94.2z"/>
	</g>
	<path id="XMLID_32_" class="st2" d="M90.4,109.7H55.7c-3.1,0-5.6-2.5-5.6-5.6v0c0-3.1,2.5-5.6,5.6-5.6h34.7c3.1,0,5.6,2.5,5.6,5.6
		v0C95.9,107.2,93.5,109.7,90.4,109.7z"/>
	<g id="XMLID_28_">
		<path id="XMLID_29_" class="st1" d="M173.2,122.8h-19c-9.4,0-17-7.6-17-17v-3.3c0-9.4,7.6-17,17-17h19c9.4,0,17,7.6,17,17v3.3
			C190.2,115.2,182.5,122.8,173.2,122.8z M154.2,95.5c-3.9,0-7,3.1-7,7v3.3c0,3.9,3.1,7,7,7h19c3.9,0,7-3.1,7-7v-3.3
			c0-3.9-3.1-7-7-7H154.2z"/>
	</g>
	<path id="XMLID_27_" class="st2" d="M150.4,109.7h-34.7c-3.1,0-5.6-2.5-5.6-5.6v0c0-3.1,2.5-5.6,5.6-5.6h34.7
		c3.1,0,5.6,2.5,5.6,5.6v0C155.9,107.2,153.5,109.7,150.4,109.7z"/>
</g>
</svg>
