<?xml version="1.0" encoding="utf-8"?>
<!-- Generator: Adobe Illustrator 17.0.2, SVG Export Plug-In . SVG Version: 6.00 Build 0)  -->
<!DOCTYPE svg PUBLIC "-//W3C//DTD SVG 1.1//EN" "http://www.w3.org/Graphics/SVG/1.1/DTD/svg11.dtd">
<svg version="1.1" id="Layer_1" xmlns="http://www.w3.org/2000/svg" xmlns:xlink="http://www.w3.org/1999/xlink" x="0px" y="0px"
	 width="504px" height="504px" viewBox="0 0 504 504" enable-background="new 0 0 504 504" xml:space="preserve">
<circle cx="252" cy="252" r="234"/>
<g>
	<path fill="#181818" d="M256,256"/>
</g>
<g>
	<path fill="#FFFFFF" d="M190.5,350.3c-13-15.8-19.4-35-19.4-57.6H203c1.4,15.7,4.3,27.2,8.8,34.3c7.9,12.8,22.2,19.2,42.9,19.2
		c16.1,0,29-4.3,38.7-12.9c9.7-8.6,14.6-19.7,14.6-33.3c0-16.7-5.1-28.5-15.4-35.1c-10.2-6.7-24.5-10-42.7-10c-2,0-4.1,0-6.2,0.1
		c-2.1,0.1-4.2,0.1-6.4,0.3v-27c3.2,0.3,5.8,0.6,8,0.7c2.1,0.1,4.5,0.2,7,0.2c11.4,0,20.8-1.8,28.2-5.4
		c12.9-6.3,19.3-17.7,19.3-33.9c0-12.1-4.3-21.4-12.9-28c-8.6-6.6-18.6-9.8-30-9.8c-20.4,0-34.5,6.8-42.3,20.4
		c-4.3,7.5-6.7,18.1-7.3,31.9h-30.2c0-18.1,3.6-33.5,10.9-46.2c12.4-22.6,34.3-33.9,65.7-33.9c24.8,0,44,5.5,57.5,16.5
		s20.4,27,20.4,47.9c0,14.9-4,27-12.1,36.3c-5,5.8-11.4,10.3-19.3,13.6c12.8,3.5,22.8,10.3,30,20.3s10.8,22.3,10.8,36.7
		c0,23.2-7.6,42.1-22.9,56.7c-15.3,14.6-36.9,21.9-65,21.9C224.3,374,203.4,366.1,190.5,350.3z"/>
</g>
</svg>
