<?xml version="1.0" encoding="utf-8"?>
<!-- Generator: Adobe Illustrator 17.0.2, SVG Export Plug-In . SVG Version: 6.00 Build 0)  -->
<!DOCTYPE svg PUBLIC "-//W3C//DTD SVG 1.1//EN" "http://www.w3.org/Graphics/SVG/1.1/DTD/svg11.dtd">
<svg version="1.1" id="Layer_1" xmlns="http://www.w3.org/2000/svg" xmlns:xlink="http://www.w3.org/1999/xlink" x="0px" y="0px"
	 width="504px" height="504px" viewBox="0 0 504 504" enable-background="new 0 0 504 504" xml:space="preserve">
<circle cx="252" cy="252" r="234"/>
<g>
	<path fill="#181818" d="M256,256"/>
</g>
<g>
	<path fill="#FFFFFF" d="M179.2,317c7.7-15.9,22.8-30.3,45.1-43.3l33.4-19.3c15-8.7,25.5-16.1,31.5-22.3
		c9.5-9.6,14.3-20.7,14.3-33.1c0-14.5-4.3-26.1-13-34.6c-8.7-8.5-20.3-12.8-34.8-12.8c-21.5,0-36.3,8.1-44.5,24.4
		c-4.4,8.7-6.8,20.8-7.3,36.3H172c0.3-21.7,4.3-39.4,12-53.1c13.6-24.1,37.5-36.2,71.9-36.2c28.5,0,49.4,7.7,62.5,23.1
		c13.2,15.4,19.7,32.6,19.7,51.5c0,19.9-7,37-21.1,51.1c-8.1,8.2-22.7,18.2-43.7,29.9l-23.8,13.2c-11.4,6.3-20.3,12.2-26.8,17.9
		c-11.6,10.1-18.9,21.3-21.9,33.6h136V373h-171C167,351.5,171.5,332.9,179.2,317z"/>
</g>
</svg>
