<?xml version="1.0" encoding="utf-8"?>
<!-- Generator: Adobe Illustrator 18.1.1, SVG Export Plug-In . SVG Version: 6.00 Build 0)  -->
<!DOCTYPE svg PUBLIC "-//W3C//DTD SVG 1.1//EN" "http://www.w3.org/Graphics/SVG/1.1/DTD/svg11.dtd">
<svg version="1.1" id="Layer_1" xmlns="http://www.w3.org/2000/svg" xmlns:xlink="http://www.w3.org/1999/xlink" x="0px" y="0px"
	 viewBox="-306 228 26 26" enable-background="new -306 228 26 26" xml:space="preserve">
<path d="M-280,249.5v-14c0-1.7-1.3-3-3-3h-5v2h5c0.6,0,1,0.4,1,1v14c0,0.6-0.4,1-1,1h-20c-0.6,0-1-0.4-1-1v-14c0-0.6,0.4-1,1-1h5v-2
	h-5c-1.7,0-3,1.3-3,3v14c0,1.7,1.3,3,3,3h20C-281.3,252.5-280,251.2-280,249.5z"/>
<path d="M-299.5,237.5c0,0-0.3-1,1-1c0.3,0,1.3,0,2.5,0v-6c0-0.6,0.4-1,1-1h4c0.6,0,1,0.4,1,1v6c1.2,0,2.2,0,2.5,0c1.3,0,1,1,1,1
	l-6.5,7.5L-299.5,237.5z"/>
</svg>
