<?xml version="1.0" encoding="utf-8"?>
<!-- Generator: Adobe Illustrator 18.1.1, SVG Export Plug-In . SVG Version: 6.00 Build 0)  -->
<!DOCTYPE svg PUBLIC "-//W3C//DTD SVG 1.1//EN" "http://www.w3.org/Graphics/SVG/1.1/DTD/svg11.dtd">
<svg version="1.1" id="Layer_1" xmlns="http://www.w3.org/2000/svg" xmlns:xlink="http://www.w3.org/1999/xlink" x="0px" y="0px"
	 viewBox="69 36.7 480 424.7" enable-background="new 69 36.7 480 424.7" xml:space="preserve">
<path fill="#005DBB" d="M549,405.9V147.5c0-31.4-24-55.4-55.4-55.4h-92.3V129h92.3c11.1,0,18.5,7.4,18.5,18.5V406
	c0,11.1-7.4,18.5-18.5,18.5H124.4c-11.1,0-18.5-7.4-18.5-18.5V147.5c0-11.1,7.4-18.5,18.5-18.5h92.3V92.1h-92.3
	c-31.4,0-55.4,24-55.4,55.4V406c0,31.4,24,55.4,55.4,55.4h369.2C525,461.3,549,437.3,549,405.9z"/>
<path fill="#005DBB" d="M189,184.4c0,0-5.5-18.5,18.5-18.5c5.5,0,24,0,46.2,0V55.2c0-11.1,7.4-18.5,18.5-18.5H346
	c11.1,0,18.5,7.4,18.5,18.5V166c22.2,0,40.6,0,46.2,0c24,0,18.5,18.5,18.5,18.5L309,322.8L189,184.4z"/>
</svg>
