<?xml version="1.0" encoding="utf-8"?>
<!-- Generator: Adobe Illustrator 19.0.0, SVG Export Plug-In . SVG Version: 6.00 Build 0)  -->
<svg version="1.1" id="accessibility" xmlns="http://www.w3.org/2000/svg" xmlns:xlink="http://www.w3.org/1999/xlink" x="0px"
	 y="0px" viewBox="-455 257 48 48" style="enable-background:new -455 257 48 48;" width="24" height="24" xml:space="preserve">
<style type="text/css">
	.st0{fill:#CCCCCC;}
	.st1{fill:#FFFFFF;}
	.st2{fill:none;stroke:#FFFFFF;stroke-width:2;}
</style>
<path class="st0" d="M-431,262c-10.5,0-19,8.5-19,19s8.5,19,19,19c10.5,0,19-8.5,19-19S-420.5,262-431,262z"/>
<g>
	<path class="st1" d="M-431,269.5c1.5,0,2.8,1.3,2.8,2.8c0,1.6-1.2,2.8-2.8,2.8s-2.8-1.3-2.8-2.8
		C-433.8,270.8-432.5,269.5-431,269.5z M-422.8,277.4c-1.7,0.3-3.5,0.4-5.2,0.5c-0.6,0-1,0.4-1,0.8c-0.2,5.4,2,11.9,2.1,11.9
		c0.2,0.5-0.1,1.1-0.6,1.3c-0.1,0-0.2,0.1-0.3,0.1c-0.4,0-0.8-0.3-0.9-0.7c-0.1-0.2-0.9-2.9-1.6-6.4c-0.2-0.9-0.8-0.8-0.9,0
		c-0.6,3.5-1.6,6.2-1.6,6.4c-0.1,0.4-0.5,0.7-0.9,0.7c-0.1,0-0.2,0-0.3-0.1c-0.5-0.2-0.8-0.8-0.6-1.3c0-0.1,2.2-6.5,2.1-11.9
		c0-0.4-0.4-0.7-1-0.8c-3.1-0.1-5.2-0.4-5.4-0.4c-0.5-0.1-0.9-0.6-0.9-1.1c0.1-0.5,0.6-0.9,1.1-0.9c0.1,0,8.6,1,15.9-0.2
		c0.5-0.1,1.1,0.3,1.1,0.8C-421.8,276.8-422.2,277.4-422.8,277.4z"/>
	<circle class="st2" cx="-431" cy="281" r="15"/>
</g>
</svg>
