<!-- Generator: Adobe Illustrator 19.1.0, SVG Export Plug-In  -->
<svg version="1.1"
	 xmlns="http://www.w3.org/2000/svg" xmlns:xlink="http://www.w3.org/1999/xlink" xmlns:a="http://ns.adobe.com/AdobeSVGViewerExtensions/3.0/"
	 x="0px" y="0px" width="36.4px" height="981.4px" viewBox="0 0 36.4 981.4" style="enable-background:new 0 0 36.4 981.4;"
	 xml:space="preserve">
<style type="text/css">
	.st0{fill:#676767;}
	.st1{fill:#515151;}
</style>
<defs>
</defs>
<g>
	<g>
		<g>
			<g>
				<g>
					<path class="st0" d="M1.8,980.2c-0.5,0.1-0.2,0.3,1.3,0.2l1.1-0.3L1.8,980.2z"/>
					<path class="st0" d="M11.8,980.8c1.8-0.2,3.8-0.4,2.6-0.7c-1.7,0.3-2.2,0.2-4,0.6c-1.5,0-2.6-0.1-2.3-0.2
						c-0.5,0.1-2.3-0.1-3.1,0.1c1.9,0.3,4.4,0.3,7,0.1C12.5,980.7,11.9,980.8,11.8,980.8z"/>
					<path class="st0" d="M35.3,853.2l0,0.9C35.2,853.9,35.3,853.6,35.3,853.2z"/>
					<path class="st0" d="M35.4,763c0,0.7,0,1,0.1,1C35.5,763.4,35.5,762.9,35.4,763z"/>
					<path class="st0" d="M35.8,747.6c0,0.3,0,0.6,0,0.9C35.8,748.2,35.8,747.9,35.8,747.6z"/>
					<path class="st0" d="M35.3,853.2l0.1-2.4C35.3,850.7,35.3,852.1,35.3,853.2z"/>
					<path class="st0" d="M30.5,977c-0.3,0.3-0.6,0.6-0.9,0.8C29.9,977.6,30.2,977.4,30.5,977C30.5,977.1,30.5,977.1,30.5,977z"/>
					<path class="st0" d="M35.5,893l0,0.7c0,0.2,0.1,0.4,0.1,0.6L35.5,893z"/>
					<path class="st0" d="M35.6,923.5c0-0.7-0.3-0.9-0.4-1.2c0.1,0.4,0.2,0.9,0.2,1.5C35.4,923.8,35.5,923.7,35.6,923.5z"/>
					<path class="st0" d="M34.8,971.9l-0.2,0.9C34.6,972.6,34.7,972.2,34.8,971.9z"/>
					<path class="st0" d="M35.6,871.2c0-0.1,0.1-0.2,0.1-0.3C35.7,870.9,35.6,871,35.6,871.2z"/>
					<path class="st0" d="M32.8,18.4C32.8,18.4,32.8,18.3,32.8,18.4C32.8,18.2,32.7,18.2,32.8,18.4z"/>
					<path class="st0" d="M1.8,10.3l0.5,0c0.1-0.1,0.1-0.1,0.1-0.2L1.8,10.3z"/>
					<path class="st0" d="M36.2,719.5c0,0.1,0,0.1,0,0.1C36.2,720.3,36.2,719.9,36.2,719.5z"/>
					<path class="st0" d="M36,460.8c-0.3,2.9-0.3-4.8-0.6-0.4C35.5,460,35.8,464.4,36,460.8z"/>
					<path class="st0" d="M31,976.5c0.3-0.3,0.5-0.6,0.8-0.9C31.5,976.1,31.2,976.3,31,976.5z"/>
					<path class="st0" d="M35.4,460.4L35.4,460.4l0,0.5C35.3,460.7,35.4,460.6,35.4,460.4z"/>
					<path class="st0" d="M36,654.5c0,0.1-0.1,0.4-0.1,0.7C35.9,655.2,35.9,655,36,654.5z"/>
					<path class="st0" d="M35.6,702.9l0-1.2C35.6,702.2,35.6,702.6,35.6,702.9z"/>
					<path class="st0" d="M35.6,629.4c0-0.7,0.1-0.9,0-1.8c0,0.1,0,0.2,0,0.3C35.6,628.3,35.6,628.7,35.6,629.4z"/>
					<path class="st0" d="M35.6,603.3c0,0.1,0,0.3-0.1,0.5c0,0.3,0,0.6,0,0.8L35.6,603.3z"/>
					<path class="st0" d="M33.6,97.2c0.1-0.6,0.2-0.9,0.3-1.2C33.7,96.4,33.6,92.6,33.6,97.2z"/>
					<path class="st0" d="M30.6,977.1c0.1-0.1,0.2-0.3,0.4-0.6c-0.2,0.2-0.4,0.4-0.6,0.6C30.4,977.2,30.5,977.2,30.6,977.1z"/>
					<path class="st0" d="M33.4,628.4l0-4.2C33.4,625.4,33.4,626.9,33.4,628.4z"/>
					<path class="st0" d="M33.7,284.8l0-1C33.6,284.2,33.6,284.5,33.7,284.8z"/>
					<path class="st0" d="M33.4,611.9c0.1-0.7,0.2-1.5,0.2-2.3c0-0.2,0-0.4-0.1-0.5L33.4,611.9z"/>
					<path class="st0" d="M33.9,96C33.9,96,33.9,96,33.9,96C33.9,96,33.9,96,33.9,96z"/>
					<path class="st0" d="M33.2,68.6c0,4,0.4,1.9,0.6,2.7c0.1,4.7-0.3,2.2-0.5,3.8c0.1,2.9,0.4,5.2,0.4,7.4
						c-0.1,0.2-0.1,0.6-0.2,0.1c0.3,3.1,0,9.3,0.4,12.9c0,0.3-0.1,0.4-0.1,0.5c0.2-0.6,0.4-0.7,0.5-0.6c0,1.8,0.2,3.3,0,4
						c0-1.1-0.1-1.2-0.2-1.7l0.1,1.9c-0.3,1.7-0.1-2.5-0.4-2.5c0.1,3.6,0.4,7.8,0.3,10.6c-0.3,0.6-0.1-6.5-0.4-2.8l0.1-4.3
						c-0.5,3.3,0-2.6-0.5,0.4c-0.1,5.7,0.2,6.3,0.1,12c0.2,1.3,0.3-0.4,0.5,0.9c0.3,8-0.9,6.3-0.4,12.2c0.2,1.5,0.7,2.1,0.4,6.3
						l-0.4-1.4c0,5.5,0.6,3.1,0.3,8.9c-0.2-1-0.1-4.3-0.2-3.5c-0.3,3.7,0.2,2.6,0.2,5.5l-0.3,0.6c0.1,5.8,0.2,12.3,0.4,18.7
						c-0.1-0.4-0.2-1.5-0.3,0c0.2,8.1,0,17.4-0.2,25.2l0.3,3c0,0.7-0.1,1.3-0.2,0.5c-0.1,3.1,0.2,0.2,0.3,1.6c0,1.7-0.2,2.3-0.3,1.2
						c0.2,5.4,0.5,15.4,0.2,21.1l-0.1-1.1c-0.1,4.4,0.6,5,0.3,9.1L34,221c-0.1,9.6,0.1,20.2-0.3,27.6c0.4,1.4-0.2,9.5,0.4,10.1
						c-0.3,5.5-0.4,3.9-0.6,11.7c0,2.1,0.4,3.1,0.4,5.6l-0.3,0.1l0.3,3.5l-0.4,1.8l0.1,2.4c0-1,0.1-2,0.2-1.9c0.1,1.9,0,4.2-0.1,6
						c-0.1,1.8-0.2,3.2-0.3,3.2l0.3,8.9c-0.1-0.2-0.2-1.7-0.2-2.9c0.3,4.7-0.3,0.9,0,5.2c0.1-0.6,0.2,0.3,0.2,0.4
						c-0.2,2.2-0.2,7.1-0.1,10.7l-0.2-0.7c-0.1,6.6,0.1,13.8,0.1,21.2c0.1-2.6,0.5-2,0.5,0.1l-0.3,0.9c0.2,1.4,0.1-2.3,0.4,0.6
						c0,2.8-0.4,1.9-0.5,0.3l0.1,3.3c-0.1,0.2-0.1-0.6-0.3-0.8c0.2,1.4-0.3,5.8,0,7.8l-0.1,0.2c0,7.4,0.1,10.7,0.1,16.7
						c0.3,0.1,0.2,2.5,0.4,4.3c-0.1,4.4-0.3,9.3-0.3,14.6c0.1,3.7,0.2,1.1,0.4,2.8c-0.3,0.3-0.2,5.6-0.4,2.8c0,6.4,0.1,8.1,0.3,16.2
						c0.1-0.9,0.2-1.9,0.2-1.3c0,1.5-0.1,3.3-0.2,3.1l0-0.4c0.4,9.1-0.7,20.9-0.2,28.1l0-0.4l0.3,7.5c0,3.4-0.2-2.1-0.4,0.5
						c0.4,8.1-0.1,12.7,0.2,19.4c-0.8,5.1,0.1,18.2-0.4,25.2l0.2-0.4c0.2,1.8-0.1,2.2-0.1,3.5c0.1-0.2,0.2-1.9,0.3-0.8
						c0.2,15.2-0.3,31.4-0.4,46.9c0,5.7,0.9,3.2,0.5,10.4l-0.3-2c0.4,11.5,0,23.5,0.3,34.8c-0.1-0.7-0.2-0.7-0.2-1.8
						c-0.2,2.4,0,8.8,0.2,8.8c0,1.8-0.2,0.4-0.3,1.5c-0.1,2.4,0.3,6,0.1,7.3c0,0.2-0.1-0.7-0.1-1.1c0.1,1.6,0,7.2,0.2,5.8
						c-0.1,4.2,0.1,8.1,0,11.4c0.3,2.2-0.1,7.2,0.3,7.9c-0.5-0.3-0.4,7.4-0.2,10.1c-0.1-0.9-0.1,2.3-0.3,1.3c0,3,0.1,5.8,0.3,5.3
						c-0.5,5.6,0.4,11.3-0.3,14.4c0.2,9.1,0.4,17.4,0.5,25.6c-0.5-0.3,0-9-0.5-8.7c0.2,7.7,0.6,12.2,0.5,19.8
						c-0.1,2-0.2-1.1-0.3-1.8c0.2,7.7,0,14.9,0.2,21.8c0,0-0.1-0.8-0.1-1.5c0,1.4-0.1,3.1,0.1,3l-0.1-1.3c0.3-2.2,0.6,5.4,0.8,5.6
						c-0.6-2.3-0.1,6.8-0.9,3.1c0,0.9,0.1,2,0.3,1.8c0,1.3-0.1,1.7-0.3,0.4c0.1,4.8,0.3,3.1,0.3,7.5c-0.1,0-0.1-0.9-0.3-1.4
						c0.2,2.2,0.4,4.5,0.3,8.2c-0.1-0.2-0.1,0.2-0.1-0.9c0,6.4,0.5,10.9,0.3,17.9c-0.4-2.1-0.1,2.4-0.5,2.7l0.1,3.8l0.2-1.5
						c0,3.3,0.3,6.2,0.1,9l-0.2-2.4l0.1,6.2l0.1-3.5c0.2,3.3,0.5-0.4,0.4,4c0-0.9,0,3.3-0.2,5l0,0c0.1,1.6,0.2,3.3,0.2,5.7
						c-0.1,0.6-0.4-0.5-0.5-0.1c0.3,1.6,0.1,7.7,0.4,9.8c-0.1-0.7-0.3-0.7-0.3-0.5l0.3,1.3c-0.1,1.5-0.1,1.7-0.3,1.5
						c0,4.6,0.5-1.5,0.3,4c0-0.4-0.1-0.2-0.1-1.1c-0.1,5.5,0.2,10.6,0,15.6c-0.4,1.5-0.1-4.4-0.4-2.7c0.1,7.2,0.5,15,0.4,22l0-1.3
						c0.5,1-0.3,5.2,0,8.8c0-0.9-0.3-1.1-0.2-0.9c-0.1,4.8,0.1,9.8,0.3,17.1l-0.1-0.9c-0.1,2.8-0.1,7.5-0.1,10.5
						c0.1,0.9,0.1,2.7,0.3,1.6c-0.8,9.4,0.4,18-0.2,26.4c0-1-0.1-2.4-0.1-1.6l0.1,7.1c0.2-0.6,0.1-0.9,0.3-2.4
						c0.1,0.9,0.2,2.9,0.2,4.7c-0.2-3.2-0.4,0-0.5,1.4c0.1-0.2,0.1,0.2,0.2,0.1c-0.4,3.7,0.5,0.6,0.2,5.7l-0.1-0.3
						c0.1,1.9,0.2,3.7,0.2,5.7c-0.3,0.9-0.1-2-0.3-2.2c0,2.9,0.5,5.7,0.2,8.3c-0.1-1.2-0.1-3-0.1-4.2c-0.3,2.8-0.2,3.2-0.3,5.3
						l0-0.2l-0.1,4.9l0.1-1.2c0.7,3.6,0.1,7.3,0.6,12.2c-0.4-4.7-0.2-0.8-0.6-1.1c-0.1,1.2-0.2,3.1-0.3,2.6c0.2,2.3-0.2,3.8,0.2,7.1
						c-0.1,0.1,0,2.5-0.3,1.9c0.1,3,0.2-0.7,0.3-0.5c0.3,4.6-0.4,10.8,0.1,17.4c0.1,2.9,0.2,4.5,0.3,6.2c0.1,0.8,0.1,1.6,0.2,2.6
						c0,0.9,0.2,2,0,3.3c-0.2,0.9-0.2,0.5-0.2-0.1c0-0.6,0-1.4,0-1.4c-0.1,1.4-0.4,2.6-0.8,3.7c-0.4,1.1-0.9,2.2-1.7,3.2
						c0.2-0.5-0.1,0-0.7,0.4c-0.3,0.4-0.6,0.6-0.8,0.8c-0.2,0.2-0.3,0.4-0.5,0.5c-0.3,0.3-0.7,0.7-2,1.3c0.2-0.1,0.4-0.3,0.6-0.6
						c0.3-0.2,0.6-0.5,0.9-0.8c-1.9,1.5-4.2,2.5-6.8,2.6c-0.7-0.1,1.5-0.3,2.4-0.6c-0.3,0.1-0.7,0.1-1.1,0.2
						c-0.4,0.1-0.8,0.1-1.2,0.1c-0.9,0-1.8,0.1-2.6,0.1c-1.7,0.1-3.1,0.1-3.6,0.3l1.9,0.1c-1.1,0-0.6-0.2,0.2-0.3
						c2.6-0.2,3.7,0.1,3.8,0.2l-1.9,0.1c1,0.2,2.9,0.4,5-0.2c2.1-0.6,4-1.9,5.3-3.2c0,0-0.2,0.3-0.4,0.7c-0.2,0.4-0.5,0.7-0.5,0.7
						s0.7-0.7,1.3-1.4c0.1-0.2,0.3-0.4,0.4-0.6c0.1-0.2,0.2-0.4,0.3-0.5c0.2-0.3,0.3-0.5,0.3-0.5c0.5-0.6,1.1-1,0,0.6
						c0.9-1.1,1.1-1.7,1.3-2.2c0.2-0.5,0.4-1,0.8-2.1c0.1-0.2,0.1-0.1,0,0.1c0,0,0.1-0.2,0.1-0.4c0-0.3,0.1-0.6,0.1-0.9
						c0-0.7,0-1.4,0-1.4c0.1,0.5,0.3-0.5,0.2,1.2c0.2-1.3,0.1-2.3,0.1-3.3c0-1,0-1.9-0.1-2.6c-0.1-1.6-0.1-2.7,0-3.6l0,0.4
						c-0.1-6.7-0.3-0.6-0.7-5.6l0.8-3.4l-0.3-0.7c0-0.7,0-2,0.2-1.8c-0.2-2.6-0.1,0.4-0.3-1c0.3-3.3-0.1-9.1,0.4-9.9
						c-0.2-1.2-0.2,3.2-0.3-0.4c0.5-1-0.1-4.1,0.2-7.1c0.3,0.9,0.1,3.8,0.4,0.8c-0.5-1.8,0.1-5.9,0-8.4c-0.4-0.1-0.2-5.5-0.3-9.8
						c0.1,0.3,0.2-8,0.3-12l0.1,0.1c-0.4-0.8-0.3-4.9-0.4-7.9c0.2,0.1,0.3,0.7,0.4,2.3l0-2.8c-0.1-0.7-0.2-1.5-0.2-3.4l0.3,0.7
						c0-3.7-0.3-7.5-0.1-12.3c-0.3-0.3-0.7,3.8-0.9-1.3c0.1-0.2,0.4-0.4,0.4,1c0-0.4-0.1-1.6-0.1-2.4l0.2,2c0.1-2.2-0.2-1.1-0.2-2.9
						c0.2,0,0.1-1.3,0.3-1c0,0.4-0.1,1.5,0,2.2c0-2,0.2-4.4,0.3-5.1c-0.1,0.2-0.3,0-0.3-1.4c0-3.7,0.2-1.3,0.3-3.5
						c-0.1-0.9,0-3.3-0.3-3.3c0-1.1,0.1-1.3,0.2-1.7c-0.1-1.9,0-9-0.4-6.8l0,0.5c0-0.1,0-0.2,0-0.3c0,0,0,0,0,0v0
						c-0.3-6.3,0.2-13.2,0-19.4l0.1,0c-0.1-3.8-0.1-8.4-0.3-11c0-1.1,0.2-2.6,0.3-2.1c-0.1-2.9-0.2-3.2,0-7.3c0.2,2.9,0.2-1,0.1,3
						c0.1-3.7,0.2-4.6,0-8.6c0.3,1.4,0.3-2.8,0.2-4.6l-0.2,2.6c0-2,0-3.7,0-5.5l0.3,1c0.4-7.6-0.7-13.8,0-19.6
						c-0.2-2-0.2,4.1-0.4,2.3c0-3.5,0.5-7.2,0.5-8.3c0.2-4.8-0.5-4.5-0.4-9.5c-0.1,0.6-0.4,1.3-0.5-2.5c0-3.5,0.5-4.3,0.6-2.1
						c0,0.8,0,1.2-0.1,1.2c0,1.1,0.1,2.6,0.2,1.2l-0.1-0.5c0.1-1.7,0.1-6.6,0.3-5.4c-0.1-2.7-0.2-1.1-0.3,0.8c0.2-4.5,0-7,0.1-11.7
						c-0.1,0.7-0.2,1.4-0.2,0.7c0.1-6.8-0.2-3-0.3-7.6c0.2-2.6,0.4,0.9,0.3-3.7c0.1-2.8,0.3-0.6,0.4,0.5c-0.2-4.2,0.2-7.9,0.2-10.3
						l0.1,2.2c-0.1-1.3-0.1-2.4-0.1-3.5l-0.2,1.3c0-1.3,0-2.4,0.1-2.4c-0.2-1.3-0.4,1-0.6-1.6c0.1-1.7-0.1-5.3,0.2-5.9
						c-0.1,5.5,0.3-0.6,0.4,4c0-0.9,0-2,0-3.3c0-0.2,0.1,0.2,0.1,0.5c0.3-5.2-0.4-2.4-0.3-7.8c0.2,0.7,0.3-1.3,0.3-2.1
						c0,2.2-0.3,1-0.4-1c0.1-3.5-0.1-3.8-0.1-5.6l-0.1,2.1c-0.2-0.7-0.2-2.4-0.2-4.9c0.1-0.2,0.1,2.2,0.2,1.3
						c-0.3-2.7,0.3-6.1,0.1-9.9c0.1-1.7,0.3-0.2,0.4-1.7c-0.2-4.2,0.2-4.6,0.1-9c-0.2,1.3-0.2,1.5-0.4-1.6l0.2,7.3l-0.3-4.7
						c0,2.2,0.1,4.6,0.1,6c-0.2-2.2-0.1-2-0.3-0.9c0.4-3-0.2-6,0-9.4l0.6,0.1c0.3-5.2-0.3-9.3-0.2-16.1l-0.1,2.2
						c-0.2-0.9,0-4.2-0.1-6.4c0.2,0.2,0.3-1.2,0.4-2.1c-0.1,0.1,0-5-0.4-5.6l0.3-3c0.1-5.5-0.6-6.3-0.5-11.5
						c0.2,1.6,0.4-0.8,0.5,2.7c0-1.8,0-3.3-0.1-3.4c0.1-1-0.3-4.9-0.1-6.5c-0.1-0.7-0.3-1-0.3-3c0-0.2,0.1,0,0.1,0
						c-0.1,0-0.1-3.1-0.4-1.4c0.6-5.4,0-15.1,0.5-19.9c-0.1-3.8-0.1-8.5-0.1-11.9c0.1,0.2,0.1,0,0.1,0.7c0.2-4.8-0.6-3-0.4-8.4
						c0.3-2.8,0.2,2.9,0.3,1.2c0.6-0.8-0.1-6.6,0.3-10.3l0,0.9c0.2-2.8-0.2-6.9-0.2-11.5c0,0,0.1,0.2,0.1,0
						c-0.3-3.1-0.4-9.1-0.5-13.5c0.3,1.4,0.1,2,0.4,1.2c0-2-0.4,0.6-0.5-3.4c0.1-1.3,0.3-4.1,0.5-4.5l0,3.7c0.4-1.9,0-4.8,0-6.8
						l0.2,0.3c-0.1-5.7-0.4-5.8-0.4-11.9l-0.1,0.6c-0.4-3.4,0.2-2.8-0.1-6.2l0.4-1c-0.1-2.2-0.4-7.8-0.5-11.7
						c0.3,2.3,0.4,6.9,0.6,9.8c0-2.2,0-7.5-0.2-8.6c0,0.9,0.1,2,0.1,2.9c-0.3-2.7-0.5-6.2-0.5-10.6c0.8,0.8,0.2-11.4,0.8-14.6
						c-0.3-7.7,0.1-15.4,0.1-24.4c-0.6,3.2,0-2.6-0.6-2.1c0-2.1,0-2.9,0-3.1l0.4-6.4c0.2-1.5,0.1,2,0.3,1.8c0-4.6,0.3-1.9,0.4-5
						c-0.2,0.6-0.3-1.6-0.2-4.2l-0.3,3.7c-0.3-6.4,0.5-5.6,0.2-12l0.2,2c-0.1-3.3,0-12.3-0.5-15.5c0.1-0.6,0.2-1.4,0.3,0.1
						c0.1-7.9-0.5-17.7-0.2-23.9l0.1,0.6c0-1.5-0.3-2.6-0.1-4.4c0.1,0.1,0.1,0.6,0.2-0.1c-0.1-0.8-0.3-3.9-0.2-5.9l0.2,1.7
						c0.2-7.8-0.4-11.9-0.5-18.4c0.4,0,0.6-6.1,0.7-9.1l0.1,0.1c0.1-9-0.4-15.3-0.5-23.7c0.5-5.2,0.2-17.6,0.5-25.9
						c-0.1,1.3-0.3-0.2-0.4-1.7c0.1-2-0.3-5.4,0.1-5.1l0,0.7c0.4-1.5,0.3-5.5,0.3-8.6l-0.5-0.5c0.8-8.2-0.3-21.5,0.4-26
						c-0.1-2-0.1-4.4-0.3-6.4l0.3,0.1c0.1-5.5,0.1-8.2,0-15l0.2,1.4c0-3.8-0.8-4.8-0.8-8.4l0.4-1.1c0-6.7,0.4-13.4,0-20
						c0.1,0.1,0.2,0.3,0.2,1.4c0-3.1,0.3-12.2-0.3-11c0.4-0.1,0-6.9-0.1-10.5l0.3,0.6c-0.4-3-0.5-3.1-0.6-7.4c0-1,0.2-0.9,0.2,0.5
						c0.1-3.4-0.3-2.6-0.1-6.7l0.2,1.5c0-3.5-0.1-3.2-0.3-5.1c-0.1-2.2,0.1-6.6,0.3-7.1c-0.2-0.5-0.4-2.4-0.3-4.4
						c0.1-0.3,0.2,0.5,0.2,0.8c0.2-5.8-0.3-8.6-0.1-12.6c0.1-0.1,0.1-0.3,0.2-0.7c0,4.6,0,8.3,0,7.9c0.3,0,0.3-3.7,0.7-0.8
						c-0.2-3-0.6-8.1-0.5-11.7c0-0.2,0-0.3,0.1-0.5l0,0.4c0-0.8,0-1.6,0-2.3c0-1.2,0.1-1.9,0.1-3c0.2-0.4,0.1-4.3,0.1-6.1
						c-0.3,0.2-0.2-2.3-0.5,0c0-0.3,0,0.3,0,1.6c0,0.3,0,0.6,0,0.8c0,0,0-0.1,0-0.1c0,1.2,0,2.8,0,4.6c-0.1-1.5-0.3-3-0.1-5
						c-0.2-0.9-0.4-2-0.5-2.6c0.4-2.5,0.6-7.4,0.8-8.1c-0.2-5.6-0.1-13.3-0.6-16.8c-0.1-1.6,0.2-1.8,0.2-2.4c0.1,0.9,0,2,0.1,2.5
						c-0.1-3.2-0.1-9.5-0.4-10.3c0.2-4,0.3,2.3,0.3-3.3l0.1,0.8c0.6-10.9-0.9-17.8-0.2-29.9c0,0.8-0.1,1.3-0.1,1.4
						c0.3-13.8-0.3-28.5,0.2-42.1c0.1-3.9-0.1-4.3-0.3-6.7l0.3-0.8l-0.3-4c-0.1-1.4,0-2.8,0-4.1c0-0.7,0.1-1.3,0.1-2
						c0-0.7,0-1.4-0.1-2.1c-0.2-1.4-0.6-2.8-1.4-4.2c-0.8-1.4-2-2.7-3.6-3.7c0,0,0.7,0.7,0.7,0.8c-1-0.9-2.9-2-4.6-2.4
						c-1.7-0.5-3.1-0.5-2.8-0.6c-0.3,0-0.9,0.2-1.9,0.1l-0.1-0.2L15,10c-5-0.1,0.8-0.6-6.5-0.7C5.9,9.4,0.9,9.8,1.9,9.9
						c1.1,0,2.8,0.1,2.9,0.3l-2.5,0.1C1.8,10.7,0,11.2,6,11.5l4.2-0.3l1.4,0.2l-3.5,0c2,0.2,3.3,0,4.7-0.1c0.3,0.1,0.9,0.2,1.8,0.2
						l4.1-0.4c0.5,0.2-1.9,0.4,0.9,0.5c1.9-0.2-1.9-0.4,1.3-0.5c2,0.2,1.5,0.3,3.6,0.4c0.3,0.2-0.2,0.1-1,0.1c1,0,2.2,0.2,3.3,0.6
						c1.1,0.4,2,0.9,2.5,1.1c0.7,0.6,2,1.7,2.7,2.9c0.8,1.1,1.1,2.2,0.9,2.2c0.2,0.3,0.5,1,0.8,2c0.1,0.5,0.2,1,0.2,1.5
						c0,0.5,0,1.1,0.1,1.6c-0.5-3.5,0,7.2-0.6,6.3c0.5,2.6,0.2,9.4,0.5,14.1c0-0.3-0.1-0.8-0.1-1.2c0,2.6-0.2,3.4-0.3,5
						c0.4,0.3,0.5,4.4,0.7,6.6c-0.4,3.2-0.5-1.9-0.8-0.9c0.3-0.2,0.3,5.6,0.6,4.5c-0.2,2.4-0.1,2.1-0.4,3.4c0.5,0.4,0.1,2.3,0.4,4.3
						c-0.2,3.5-0.5,0.9-0.3,4.8C33.4,72.1,33.2,68.6,33.2,68.6z M34.1,161.1L34.1,161.1c0-0.8,0-1.5,0-1.9
						C34,159.6,34,160.1,34.1,161.1z M34.1,168.8c0-0.9,0-2.1,0-3.4c0.1-0.3,0.2,0,0.2,0.8C34.2,165.9,34.1,167.7,34.1,168.8z
						 M36,152.4c0,1.2,0,1.6-0.1,1.8c0-0.6,0-1.3,0-2.2c0,0,0-0.1,0-0.1C35.9,152,36,152.2,36,152.4z"/>
					<path class="st0" d="M35.6,150.2c0-0.2,0-0.3,0-0.5c0,0.3,0,0.5-0.1,0.7c0,0.1,0.1,0.3,0.1,0.4
						C35.6,150.6,35.6,150.4,35.6,150.2z"/>
					<path class="st0" d="M35.2,854.3l0-0.2c0,0.1,0,0.3,0,0.3C35.2,854.4,35.2,854.4,35.2,854.3z"/>
					<polygon class="st0" points="33.5,276.1 33.6,276.1 33.5,275.4 					"/>
					<path class="st0" d="M34.3,897.1c0,0.1-0.1,0.2-0.1,0.6C34.2,897.7,34.2,897.4,34.3,897.1z"/>
					<path class="st0" d="M34.2,915.6l-0.1,2.6C34.1,917.1,34.2,916.3,34.2,915.6z"/>
					<path class="st0" d="M34.1,929.8c0,0.2,0.1,0.2,0.1,0.3c0,0,0,0,0,0L34.1,929.8z"/>
					<path class="st0" d="M33.7,703.9c0-0.2,0-0.4,0-0.5C33.7,702.1,33.7,702.9,33.7,703.9z"/>
					<path class="st0" d="M34.4,771.1c-0.1-0.7-0.1-1.4-0.1-2.2C34.2,770.2,34.2,771.1,34.4,771.1z"/>
					<path class="st0" d="M33.4,628.8C33.4,628.8,33.4,628.8,33.4,628.8c0-0.2,0-0.3,0-0.5L33.4,628.8z"/>
					<path class="st0" d="M34.2,765.8c-0.1,1.2,0,2.2,0,3.1C34.3,768,34.3,766.8,34.2,765.8z"/>
					<path class="st0" d="M19.2,980l-0.7,0c0,0,0,0-0.1,0L19.2,980z"/>
					<path class="st0" d="M18.5,980l-0.8,0C18,980.1,18.3,980.1,18.5,980z"/>
					<path class="st0" d="M16.1,980.1l1.6-0.1C17.1,980.1,16.5,980.1,16.1,980.1z"/>
					<path class="st0" d="M33.6,972.3l0-0.2C33.5,972.2,33.6,972.3,33.6,972.3z"/>
					<path class="st0" d="M34,966.9c0,0.7-0.1,1.5-0.1,2.5c-0.1,0.8-0.2,1.7-0.4,2.6l0,0.2c0-0.4,0.3-1.3,0.4-2.4
						C34.1,968.7,34.1,967.5,34,966.9z"/>
					<path class="st0" d="M35.3,943l-0.1,4.8c0.1-0.8,0.3-1.9,0.3,0.2C35.8,942,35.2,949.3,35.3,943z"/>
					<path class="st0" d="M35.4,928.2c0.1,2.6,0.2,0,0.2,0.1C35.6,926.6,35.5,926.2,35.4,928.2z"/>
					<path class="st0" d="M35.4,820.8l0.3,0.3C35.7,819.1,35.6,821.1,35.4,820.8z"/>
					<polygon class="st0" points="34.1,800.3 34,802.2 34.2,803.2 					"/>
					<polygon class="st0" points="35.9,788.2 36,789.1 35.9,785.7 					"/>
					<path class="st0" d="M35.9,607.9l-0.3,0.6C35.6,609.9,35.9,610.2,35.9,607.9z"/>
					<path class="st0" d="M35.5,530.1c0.2-0.8,0.3-3,0.1-4.4C35.6,527.5,35.5,529.2,35.5,530.1z"/>
					<polygon class="st0" points="36,296.7 36.1,298.3 36.1,295.4 					"/>
				</g>
			</g>
		</g>
	</g>
</g>
<g>
	<polygon class="st1" points="12.5,0.8 12.5,21.1 0.8,11 	"/>
	<g>
		<g>
			<g>
				<g>
					<path class="st0" d="M12.8,1.2c0-0.1-0.1-0.2-0.2-0.1l0.1,0.2L12.8,1.2z"/>
					<path class="st0" d="M12.2,1.2c0,0.1,0.1,0.4,0.3,0.5c-0.1-0.2,0-0.2-0.1-0.5c0-0.1,0.2,0,0.2,0.1c0-0.1,0.1,0,0.1-0.2
						c-0.2-0.1-0.3,0-0.3,0.2C12.2,1.3,12.2,1.2,12.2,1.2z"/>
					<path class="st0" d="M6.4,5.7L6.4,5.7C6.4,5.6,6.4,5.6,6.4,5.7z"/>
					<path class="st0" d="M2.9,8.5C2.9,8.5,2.9,8.4,2.9,8.5C2.9,8.5,2.9,8.5,2.9,8.5z"/>
					<path class="st0" d="M2.2,8.8C2.2,8.8,2.2,8.8,2.2,8.8C2.2,8.8,2.1,8.8,2.2,8.8z"/>
					<path class="st0" d="M6.4,5.7l-0.1,0C6.3,5.7,6.3,5.7,6.4,5.7z"/>
					<path class="st0" d="M11.8,2.3C11.8,2.3,11.8,2.2,11.8,2.3L11.8,2.3L11.8,2.3z"/>
					<path class="st0" d="M7.8,4.2L7.8,4.2c0-0.1,0-0.1,0-0.1L7.8,4.2z"/>
					<path class="st0" d="M8.9,3.2c0,0,0.1,0.2,0.1,0.3C9,3.4,9,3.3,9,3.3C9,3.2,8.9,3.2,8.9,3.2z"/>
					<path class="st0" d="M11,1.9L11,1.9C11,1.8,11,1.8,11,1.9z"/>
					<path class="st0" d="M6.9,4.9C6.9,4.9,6.9,4.8,6.9,4.9C6.9,4.9,6.9,4.9,6.9,4.9z"/>
					<path class="st0" d="M11.5,2.6C11.5,2.6,11.5,2.6,11.5,2.6C11.5,2.6,11.5,2.6,11.5,2.6z"/>
					<polygon class="st0" points="12.6,0.8 12.6,0.8 12.7,0.9 					"/>
					<path class="st0" d="M0.7,9.7C0.7,9.7,0.7,9.7,0.7,9.7C0.7,9.7,0.7,9.7,0.7,9.7z"/>
					<path class="st0" d="M9.2,19.4c0-0.2,0.3,0,0.3-0.3C9.5,19.2,9.2,19.2,9.2,19.4z"/>
					<path class="st0" d="M11.7,2.3C11.7,2.3,11.7,2.3,11.7,2.3C11.7,2.3,11.7,2.3,11.7,2.3z"/>
					<path class="st0" d="M9.5,19.1L9.5,19.1L9.5,19.1C9.5,19.1,9.5,19.1,9.5,19.1z"/>
					<path class="st0" d="M1.9,13.1C1.9,13.1,1.9,13,1.9,13.1C1.9,13,1.9,13.1,1.9,13.1z"/>
					<path class="st0" d="M0.1,10.8L0,10.8C0.1,10.8,0.1,10.8,0.1,10.8z"/>
					<path class="st0" d="M3,13.7C3,13.7,3,13.8,3,13.7L3,13.7C3.1,13.8,3,13.7,3,13.7z"/>
					<polygon class="st0" points="4,14.6 4,14.5 4,14.5 					"/>
					<path class="st0" d="M11.6,6.6c0.1,0,0.1,0,0.2-0.1C11.7,6.5,11.6,6.3,11.6,6.6z"/>
					<path class="st0" d="M11.7,2.2C11.7,2.2,11.7,2.3,11.7,2.2L11.7,2.2C11.7,2.2,11.7,2.2,11.7,2.2z"/>
					<path class="st0" d="M4.2,12.5l0.1,0.2C4.3,12.6,4.2,12.5,4.2,12.5z"/>
					<path class="st0" d="M11.6,15.9L11.6,15.9C11.6,15.9,11.6,15.9,11.6,15.9z"/>
					<path class="st0" d="M4.8,13c0,0.1,0,0.1,0,0.2c0,0,0,0,0.1,0L4.8,13z"/>
					<path class="st0" d="M11.8,6.5L11.8,6.5L11.8,6.5z"/>
					<path class="st0" d="M11.3,5.1c0,0.2,0.3,0.1,0.4,0.1c0.1,0.2-0.2,0.1-0.3,0.2c0.1,0.1,0.3,0.3,0.3,0.4c0,0-0.1,0-0.1,0
						c0.2,0.2,0,0.5,0.3,0.6c0,0,0,0-0.1,0c0.1,0,0.3,0,0.4,0c0,0.1,0.2,0.2,0,0.2c0-0.1-0.1-0.1-0.1-0.1l0.1,0.1
						c-0.3,0.1-0.1-0.1-0.3-0.1c0.1,0.2,0.3,0.4,0.2,0.5c-0.3,0-0.1-0.3-0.3-0.1l0.1-0.2c-0.4,0.2,0-0.1-0.4,0
						c-0.1,0.3,0.1,0.3,0.1,0.6c0.1,0.1,0.2,0,0.4,0c0.3,0.4-0.6,0.3-0.3,0.6c0.2,0.1,0.5,0.1,0.3,0.3l-0.3-0.1
						c0,0.3,0.4,0.2,0.2,0.4c-0.1-0.1-0.1-0.2-0.1-0.2c-0.2,0.2,0.2,0.1,0.2,0.3l-0.3,0c0,0.3,0.2,0.6,0.3,0.9c-0.1,0-0.2-0.1-0.2,0
						c0.1,0.4,0,0.9-0.2,1.3l0.2,0.1c0,0-0.1,0.1-0.1,0c-0.1,0.2,0.1,0,0.2,0.1c0,0.1-0.1,0.1-0.2,0.1c0.2,0.3,0.4,0.8,0.2,1.1
						l-0.1-0.1c-0.1,0.2,0.5,0.2,0.2,0.5l0,0c-0.1,0.5,0.1,1-0.2,1.4c0.3,0.1-0.1,0.5,0.3,0.5c-0.2,0.3-0.3,0.2-0.4,0.6
						c0,0.1,0.3,0.2,0.3,0.3l-0.2,0l0.2,0.2l-0.3,0.1l0.1,0.1c0,0,0.1-0.1,0.2-0.1c0.1,0.2-0.2,0.5-0.3,0.5l0.2,0.4
						c-0.1,0-0.1-0.1-0.2-0.1c0.2,0.2-0.2,0,0,0.3c0.1,0,0.1,0,0.2,0c-0.1,0.1-0.1,0.4-0.1,0.5l-0.2,0c0,0.3,0.1,0.7,0.1,1.1
						c0.1-0.1,0.4-0.1,0.4,0l-0.2,0c0.2,0.1,0.1-0.1,0.3,0c0,0.1-0.3,0-0.4,0l0.1,0.1c-0.1,0-0.1,0-0.2,0c0.2,0.1-0.2,0,0,0.1
						l-0.1,0c0,0,0.1,0.1,0.1,0.2c0.2,0.2,0.2,0.2,0.3,0.5c-0.1,0-0.2-0.2-0.2-0.1c0.1,0.3,0.2,0.4,0.3,0.7
						c-0.2-0.4-0.2-0.3-0.3-0.6c0,0,0,0,0,0c0,0,0,0,0,0.2c0.1,0.2,0.1,0.2,0.1,0.3c0,0-0.1-0.2-0.1-0.4l0,0c0,0.2-0.2-0.1-0.2-0.4
						c-0.1-0.2,0-0.3-0.1-0.2l0,0c0,0-0.2,0.1-0.2,0.1c0-0.1,0.1-0.1,0.2-0.2c-0.4,0-0.4-0.4-0.8-0.5c0.2-0.6-0.7-0.6-0.7-1.1
						l-0.1,0.1c-0.2,0,0-0.1-0.1-0.2c-0.1,0.1,0,0.2-0.1,0.2c-0.7-0.4-1.1-1.2-1.6-1.8c-0.2-0.2-0.6,0.4-0.6-0.1l0.2-0.1
						c-0.6-0.2-0.9-0.8-1.5-1c0.1,0,0.1-0.1,0.2,0c0-0.2-0.3-0.3-0.4-0.2C5.6,14,5.7,14,5.7,13.9c0-0.2-0.4,0-0.3-0.2
						c0,0,0.1,0,0.1,0c-0.1,0-0.3-0.3-0.3,0c-0.1-0.2-0.4-0.2-0.4-0.4c-0.2,0.1-0.2-0.3-0.4-0.1c0.2-0.2-0.1-0.4-0.3-0.4
						c0.1,0,0-0.2,0.1-0.2c-0.1-0.1-0.3-0.1-0.4,0c0.1-0.5-0.6-0.1-0.4-0.6c-0.2-0.1-0.4-0.2-0.6-0.3c-0.2-0.1-0.4-0.2-0.5-0.2
						c0.1-0.1,0.1-0.1,0.2,0c0.1,0.1,0.2,0.1,0.3,0c-0.1,0-0.2-0.1-0.3-0.1c0,0-0.1,0-0.2,0c-0.1,0-0.2,0-0.2-0.1c0,0,0.2,0,0.2-0.1
						C2.1,11.1,2.1,11,2,11c0,0,0,0,0-0.1c0,0,0.1,0,0.1,0c0,0,0.1,0-0.1-0.1l0,0c-0.4,0-0.5-0.2-0.6-0.3c0.4,0.2,0.3-0.1,0.8,0.2
						c0,0-0.1-0.1-0.2-0.1c0.1,0,0.1,0,0.2,0.1c0-0.1-0.2-0.2-0.1-0.2c0.1,0.1,0.1,0.1,0.1,0.1c-0.1-0.1-0.1-0.3,0.1-0.4
						c0,0,0.1,0.1,0,0.1c0.2-0.2,0.2-0.6,0.5-0.8c0.1,0.3,0.2,0,0.4,0.2l0.1-0.2L3.2,9.6c0.1-0.1,0.1-0.4,0.3-0.4l0,0.2l0.2-0.2
						l-0.2,0c0-0.2-0.2-0.3,0-0.3c0,0.1,0.1-0.1,0.3,0l0,0c0-0.1,0-0.2,0.1-0.3c0.1,0,0.2,0.3,0.2,0.3C4,8.6,4.4,8.6,4.3,8.3
						c0,0.1,0.1,0.2,0.1,0.2L4.3,8.3c0.1,0,0.1,0,0.2,0.1c0.2-0.1-0.3-0.2,0-0.3c0,0,0,0,0,0.1c0.3-0.1,0.3-0.4,0.6-0.5
						C5.4,7.8,5,7.9,5.2,8c0.2-0.3,0.3-0.7,0.7-0.9l-0.1,0c-0.2-0.3,0.3,0,0.3-0.3C6.1,6.9,6.3,7,6.2,7c0.2-0.1,0.3-0.4,0.5-0.7
						l0,0.1c0.2,0,0.3-0.2,0.5-0.3c0-0.1,0-0.2-0.1-0.2C7.9,6,7.6,5,8.2,5.1c0,0,0,0.1,0,0.1l0.2-0.3c-0.1-0.1-0.1,0-0.2-0.1
						c0-0.1,0-0.2,0.1-0.3c0,0.2,0.2,0.2,0.3,0.2c0,0-0.1-0.1-0.1-0.1c0.3,0.1-0.2-0.3,0.1-0.3l0,0.1c0-0.1,0-0.2,0.1-0.3
						c0.2,0.1,0,0.1,0.1,0.3C8.9,4.3,8.8,3.9,9,4C9,4.1,9,4.1,8.9,4.2c0.3,0.1,0.2,0,0.3,0l0,0l0.3-0.1l-0.1,0
						C9.2,3.6,9.7,3.8,9.6,3.4c0,0.4,0.1,0.2,0.2,0.4c0.1,0,0.2,0,0.2,0.1c0-0.2,0.2,0,0.2-0.3c0.1,0.1,0.1-0.1,0.2,0.1
						c0.1-0.1-0.1-0.1-0.2-0.2c0-0.3,0.6-0.1,0.6-0.6C11,2.5,10.9,2.3,11,2c0.1,0,0.1,0.2,0.1,0.2c0.2,0,0.2-0.1,0.3-0.3
						c0,0.1,0.1,0.1,0.2,0.1c0.1-0.1-0.1-0.2,0.1-0.3c0,0.1,0.1,0.2,0.1,0.3c0.1-0.1,0.1-0.3,0.1-0.5C12,1.8,12,1.9,12,2
						c0.1-0.1,0.2-0.3,0.1-0.5l-0.1,0c0,0,0.1,0.1,0.1,0.2c0,0.2-0.2,0.1-0.2,0l0-0.1c-0.4-0.3-0.2,0.3-0.4,0.4l-0.1-0.3l0,0.3
						c-0.1,0-0.2-0.1-0.2-0.2c-0.2,0,0,0.2-0.2,0.1c0,0,0,0,0,0l0,0.2c0-0.1-0.2-0.2-0.1-0.2c-0.3,0-0.1,0.4-0.4,0.3l0,0
						c-0.2,0.3,0.1,0.2,0.1,0.6l-0.5-0.3l0.1,0.2c0,0-0.1,0-0.1,0c0,0.2,0.1,0.1,0.1,0.2c-0.3,0-0.3,0.4-0.5,0.1
						c0.1,0.2,0.2,0,0.2,0.2C9.5,2.8,9.7,3.3,9.5,3.2C9.4,3.1,9.6,3,9.3,3C9.5,3.3,9.1,3.1,9,3.3c0.2,0.2-0.1,0.3-0.2,0.5
						c0-0.1-0.4,0.2-0.6,0.2l0,0c0.2,0.2,0,0.3-0.1,0.5C7.9,4.3,7.9,4.2,7.9,4.1L7.8,4.2c0,0.1,0,0.2,0,0.2L7.7,4.2
						C7.5,4.4,7.6,4.7,7.3,4.7C7.4,4.9,7.8,5,7.7,5.3C7.6,5.2,7.5,5.1,7.5,5c0,0,0,0.1-0.1,0.1l0-0.2c-0.1,0,0.1,0.1,0,0.2
						C7.3,5,7.2,5,7.2,5c0,0,0.1,0,0.1-0.1c-0.1,0-0.2,0.1-0.3,0C7,4.9,7.1,5,7,5.1C6.9,5.2,6.8,5,6.7,5c0,0.1-0.1,0.1,0,0.3
						c0,0-0.1,0-0.2-0.1c0,0.1-0.3,0.3-0.1,0.4l0,0l0,0l0,0l0,0C6.4,6,5.9,6,5.7,6.3l0-0.1C5.6,6.4,5.4,6.5,5.4,6.7
						c0,0-0.2,0-0.2-0.1c-0.1,0.1,0,0.2-0.3,0.3c0-0.2-0.1-0.1,0-0.2C4.8,6.8,4.7,6.7,4.7,7C4.6,6.8,4.4,6.9,4.4,7l0.2,0
						C4.5,7.1,4.4,7.2,4.3,7.2L4.2,7C3.7,7,4,7.8,3.5,7.6c0,0.2,0.2,0,0.3,0.2c-0.2,0.1-0.5-0.1-0.6,0C2.9,7.8,3.3,8.2,3,8.3
						c0.1,0,0.3,0.2,0.2,0.4C3.1,8.8,2.8,8.6,2.8,8.4c0,0,0.1,0,0.1,0c0-0.1,0.1-0.1-0.1-0.2l0,0.1c-0.1,0-0.3,0.2-0.4,0
						c0,0.2,0.1,0.1,0.2,0.1C2.4,8.5,2.4,8.7,2.2,8.8c0.1,0,0.2,0.1,0.1,0.1C2,9,2.3,9.1,2.2,9.3C2,9.3,2,9,1.9,9.2
						C1.7,9.3,1.7,9.1,1.7,9c0,0.3-0.4,0.2-0.5,0.2l0-0.1c0,0.1-0.1,0.1-0.1,0.1l0.2,0.1c-0.1,0-0.1,0.1-0.2,0
						c0,0.2,0.3,0.2,0.2,0.4c-0.2,0-0.2,0.3-0.5,0.2c0.4-0.2-0.3-0.1,0-0.4c0,0.1-0.1,0.1-0.2,0.2c0,0,0,0,0-0.1
						C0.1,9.9,0.8,10,0.4,10.3c-0.1-0.1-0.4,0-0.4,0c0.2-0.1,0.3,0,0.3,0.1c-0.3,0.2-0.1,0.2-0.2,0.3l0.2-0.1c0.1,0.1,0,0.1,0,0.2
						c-0.2,0,0-0.1-0.1-0.1c0.1,0,0,0.1-0.1,0.1c0,0.1-0.1,0.2,0.2,0.3c0,0.1-0.3,0.1-0.3,0.2c0.5,0.2,0.1,0.3,0.6,0.5
						c0.1-0.2,0-0.1,0.4-0.1l-0.6-0.3c0,0,0.6,0.1,0.5,0.1c-0.1-0.1-0.4-0.2-0.4-0.3c0.3,0.1,0.2,0.1,0.3,0
						c-0.1,0.2,0.4,0.2,0.4,0.4l-0.4,0.2c0.1,0.2,0.3,0.3,0.5,0.4c0.1,0,0.3,0.1,0.4,0.2l0-0.1c0.1-0.1,0.2,0.1,0.3,0.1
						c-0.1,0.1-0.1,0.2-0.1,0.3c0.1-0.1,0.2,0.2,0.4,0l0,0.2c0.2,0.2,0.5-0.1,0.7,0.1c-0.2,0.1-0.1,0.2-0.4,0.2
						c0.1,0.1,0.1,0.1,0.2,0.1c0,0.1,0.3,0,0.3,0.2c0.1,0,0.2-0.1,0.2-0.1c0,0,0,0.1,0,0.1c0-0.1,0.2,0,0.2-0.2
						c-0.1,0.5,0.6,0.5,0.5,0.9c0.2,0.1,0.4,0.2,0.5,0.3c0,0,0,0.1-0.1,0c0.1,0.3,0.4-0.2,0.5,0.1c-0.1,0.3-0.2,0-0.2,0.1
						c-0.3,0.4,0.3,0.2,0.2,0.5l-0.1,0c0,0.2,0.4,0.1,0.5,0.3c0,0,0,0,0,0.1c0.3-0.1,0.6,0,0.8,0.1c-0.2,0.1-0.1,0-0.2,0.2
						c0.1,0,0.2-0.3,0.4-0.2c0,0.1,0,0.3-0.1,0.5l-0.1-0.1c-0.1,0.3,0.2,0.2,0.2,0.3l-0.1,0.1c0.2,0.2,0.4-0.1,0.7,0.2l0-0.1
						c0.3-0.1,0,0.2,0.3,0.2l-0.2,0.3c0.1,0,0.5,0,0.7,0.1c-0.2,0.1-0.5,0-0.7,0c0.1,0.1,0.3,0.2,0.4,0.2c-0.1,0-0.1,0-0.1-0.1
						c0.3-0.1,0.5-0.1,0.6,0.1c-0.4,0.4,0.3,0.5,0.2,0.9C8.6,18.5,8.7,19,9,19.3c0.2-0.4,0.1,0.1,0.4-0.3c0.1,0,0.1,0.1,0.1,0.1
						l0.1,0.4c0,0.2-0.1,0-0.2,0.1c0.2,0.2-0.1,0.2,0,0.4c0.1-0.1,0.2-0.1,0.3,0l0-0.3c0.2,0,0.2,0.1,0.2,0.2c0,0.1,0,0.1,0,0.2
						c0,0.1,0.1,0.1,0.3,0.2l-0.2,0c0.3,0.1,0.9,0.8,1.2,0.5c0,0.1,0.1,0.3,0,0.3c0.3,0.3,0.6,0.4,0.8,0.5c0.2,0.1,0.4,0.2,0.7,0.6
						l0,0.2c0.1,0,0-0.3,0.2,0.1c0,0.1,0,0.2,0.1,0.2c0,0,0.1-0.2,0.3,0.1l0,0.2c0.1,0.1,0.2,0.2,0.3,0.3c0-0.6-0.3-1.5-0.4-1.9
						c0.3,0.6,0.4,0.2,0.5-0.1l0,0.1c0-0.8-0.3-1.7-0.4-2.3c0.4-0.5,0.1-1,0.4-1.5c-0.1,0.1-0.3,0-0.3-0.1c0.1-0.1-0.2-0.3,0.1-0.3
						l0,0c0.3-0.1,0.2-0.3,0.2-0.4l-0.4,0c0.6-0.4-0.2-1.1,0.3-1.3c-0.1-0.1-0.1-0.2-0.2-0.3l0.2,0c0.1-0.3,0.1-0.4,0-0.8l0.2,0.1
						c0-0.2-0.6-0.2-0.6-0.4l0.3-0.1c0-0.3,0.3-0.7,0-1c0,0,0.1,0,0.2,0.1c0-0.2,0.2-0.6-0.2-0.6c0.3,0,0-0.3-0.1-0.5l0.2,0
						c-0.3-0.2-0.3-0.2-0.4-0.4c0-0.1,0.2,0,0.1,0c0.1-0.2-0.2-0.1-0.1-0.3l0.1,0.1c0-0.2-0.1-0.2-0.2-0.3c-0.1-0.1,0.1-0.3,0.2-0.4
						c-0.1,0-0.3-0.1-0.2-0.2c0.1,0,0.1,0,0.1,0c0.1-0.3-0.2-0.4,0-0.6c0.1,0,0.1,0,0.1,0c0,0.2,0,0.4,0,0.4c0.2,0,0.2-0.2,0.5,0
						c-0.1-0.1-0.5-0.4-0.4-0.6c0,0,0,0,0.1,0l0,0c0,0,0-0.1,0-0.1c0-0.1,0.1-0.1,0.1-0.1c0.2,0,0.1-0.2,0.1-0.3
						c-0.2,0-0.2-0.1-0.4,0c0,0,0,0,0,0.1c0,0,0,0,0,0l0,0c0,0.1,0,0.1,0,0.2C13,9.4,13,9.3,13.1,9.2c-0.1,0-0.3-0.1-0.3-0.1
						C13,9,13.2,8.7,13.4,8.7c-0.1-0.3-0.1-0.7-0.5-0.8c-0.1-0.1,0.1-0.1,0.2-0.1c0,0,0,0.1,0.1,0.1c-0.1-0.2,0-0.5-0.3-0.5
						C13,7.1,13.1,7.4,13,7.2l0.1,0c0.4-0.5-0.7-0.9-0.1-1.5c0,0-0.1,0.1-0.1,0.1c0.3-0.7-0.2-1.4,0.2-2.1c0.1-0.2-0.1-0.2-0.2-0.3
						l0.2,0l-0.3-0.2c-0.2-0.3,0.6-0.5,0.2-0.9l-0.2,0c0-0.1-0.1-0.4,0.1-0.4c0,0-0.2,0-0.1-0.1l0.1,0l-0.2-0.3
						c0.1-0.2,0.5,0,0.5-0.3c0-0.1-0.3-0.4-0.4-0.3c0,0.1-0.1,0.1-0.2,0.1l-0.1-0.1c-0.3,0-0.7-0.1-1,0.2l0.2,0.2l-0.2,0.1l0-0.2
						c-0.2,0.1,0,0.2,0.1,0.2c-0.1,0-0.2,0-0.2,0.1l0.3,0.2c-0.1,0-0.3-0.1-0.3,0c0.2,0.1,0.3-0.1,0.4,0.1c-0.2,0.1-0.3,0.1-0.2,0.2
						c-0.1,0-0.1,0-0.2-0.1c0.1,0.1,0,0.3,0.2,0.3c-0.2,0.1,0.1,0.4-0.3,0.3c0.1,0,0.3,0.2,0.3,0.3c-0.4-0.2,0,0.4-0.4,0.3
						c0.4,0.1,0.2,0.5,0.4,0.7c0,0-0.1,0-0.1-0.1c0,0.1-0.1,0.2-0.2,0.3c0.3,0,0.4,0.2,0.5,0.3c-0.3,0.2-0.3-0.1-0.6,0
						c0.2,0,0.2,0.3,0.4,0.2c-0.2,0.1-0.1,0.1-0.3,0.2c0.4,0,0.1,0.1,0.3,0.2c-0.2,0.2-0.3,0-0.2,0.2C11.4,5.3,11.3,5.1,11.3,5.1z
						 M11.9,9.7L11.9,9.7C11.9,9.7,11.9,9.7,11.9,9.7C11.9,9.7,11.9,9.7,11.9,9.7z M11.9,10.1c0,0,0-0.1,0-0.2c0.1,0,0.1,0,0.1,0
						C12.1,10,12,10.1,11.9,10.1z M13.4,9.3C13.4,9.4,13.4,9.4,13.4,9.3C13.3,9.4,13.3,9.3,13.4,9.3l-0.1,0
						C13.3,9.3,13.4,9.3,13.4,9.3z"/>
					<path class="st0" d="M13.1,9.2C13.1,9.2,13.1,9.2,13.1,9.2C13.1,9.2,13.1,9.2,13.1,9.2L13.1,9.2L13.1,9.2z"/>
					<path class="st0" d="M6.5,5.6L6.5,5.6C6.5,5.6,6.5,5.6,6.5,5.6C6.5,5.7,6.5,5.6,6.5,5.6z"/>
					<polygon class="st0" points="11.5,15.5 11.6,15.5 11.5,15.5 					"/>
					<path class="st0" d="M8.6,4.8C8.6,4.8,8.6,4.8,8.6,4.8C8.6,4.8,8.6,4.8,8.6,4.8z"/>
					<path class="st0" d="M9.3,4.2l0.1,0C9.4,4.2,9.3,4.2,9.3,4.2z"/>
					<path class="st0" d="M9.9,3.8C9.9,3.8,9.9,3.8,9.9,3.8L9.9,3.8L9.9,3.8z"/>
					<path class="st0" d="M2.1,10.9C2.1,10.9,2.1,10.9,2.1,10.9C2.2,10.9,2.1,10.9,2.1,10.9z"/>
					<path class="st0" d="M3.7,8.8c0,0.1,0,0.1,0,0.1C3.8,9,3.8,8.9,3.7,8.8z"/>
					<polygon class="st0" points="4.1,12.5 4.1,12.5 4.2,12.5 					"/>
					<path class="st0" d="M3.6,9.1c0.1,0,0.1,0,0.1-0.1C3.7,9,3.6,9,3.6,9.1z"/>
					<path class="st0" d="M12.3,1.9L12.3,1.9C12.3,1.9,12.3,1.9,12.3,1.9L12.3,1.9z"/>
					<path class="st0" d="M12.3,1.8L12.3,1.8C12.3,1.8,12.3,1.8,12.3,1.8z"/>
					<path class="st0" d="M12.3,1.7L12.3,1.7C12.3,1.8,12.4,1.8,12.3,1.7z"/>
					<path class="st0" d="M11.5,2.4L11.5,2.4C11.5,2.5,11.5,2.5,11.5,2.4z"/>
					<path class="st0" d="M11.3,2.6c0.1,0,0.2,0,0.3-0.1l0-0.1C11.6,2.6,11.3,2.5,11.3,2.6z"/>
					<path class="st0" d="M9.8,2.7L10,2.6c-0.1,0-0.2-0.1-0.1-0.2C9.5,2.4,10,2.5,9.8,2.7z"/>
					<path class="st0" d="M9.1,3.1C9.2,3,9.1,3,9,3C9,3.1,9,3.1,9.1,3.1z"/>
					<path class="st0" d="M5.1,6.6L5,6.5C4.9,6.5,5,6.5,5.1,6.6z"/>
					<polygon class="st0" points="5,8 5.1,8.1 5,7.9 					"/>
					<polygon class="st0" points="3.6,7.4 3.6,7.3 3.6,7.5 					"/>
					<path class="st0" d="M3.7,14.5l0.1-0.2C3.8,14.3,3.6,14.5,3.7,14.5z"/>
					<path class="st0" d="M6.8,16.9c0,0.1,0,0.2,0.1,0.2C6.9,17,6.9,16.9,6.8,16.9z"/>
					<polygon class="st0" points="13.4,16.5 13.5,16.6 13.5,16.5 					"/>
				</g>
			</g>
		</g>
	</g>
</g>
</svg>
