<?xml version="1.0" encoding="utf-8"?>
<!-- Generator: Adobe Illustrator 18.1.1, SVG Export Plug-In . SVG Version: 6.00 Build 0)  -->
<svg version="1.1" id="Layer_1" xmlns="http://www.w3.org/2000/svg" xmlns:xlink="http://www.w3.org/1999/xlink" x="0px" y="0px"
	 width="70.1px" height="495.3px" viewBox="0 0 70.1 495.3" enable-background="new 0 0 70.1 495.3" xml:space="preserve">
<g>
	<g>
		<g>
			<g>
				<g>
					<path fill="#4F4F4F" d="M42.4,20.1c0.3,0.1,0.1,0.3-0.6,0.3L41.3,20L42.4,20.1z"/>
					<path fill="#4F4F4F" d="M37.5,20.8c-0.8-0.2-1.8-0.5-1.3-0.8c0.8,0.3,1,0.2,1.9,0.6c0.7,0,1.3-0.1,1.1-0.2
						c0.3,0.1,1.1-0.1,1.5,0.1c-0.9,0.3-2.1,0.3-3.4,0.1C37.2,20.6,37.5,20.7,37.5,20.8z"/>
					<path fill="#4F4F4F" d="M16.4,74.1l0-0.5C16.4,73.7,16.4,73.9,16.4,74.1z"/>
					<path fill="#4F4F4F" d="M16.6,117.7c0-0.3,0-0.5,0.1-0.5C16.6,117.5,16.6,117.7,16.6,117.7z"/>
					<path fill="#4F4F4F" d="M17,125.1c0-0.2,0-0.3,0-0.4C17,124.8,17,125,17,125.1z"/>
					<path fill="#4F4F4F" d="M16.4,74.1l0.1,1.2C16.4,75.3,16.4,74.6,16.4,74.1z"/>
					<path fill="#4F4F4F" d="M27.8,19.9c0.2,0,0.4,0,0.6,0.1C28.3,20,28.1,20,27.8,19.9C27.9,19.9,27.9,19.9,27.8,19.9z"/>
					<path fill="#4F4F4F" d="M16.7,54.8l0-0.4c0-0.1,0.1-0.2,0.1-0.3L16.7,54.8z"/>
					<path fill="#4F4F4F" d="M16.7,40.1c0,0.3-0.3,0.4-0.4,0.6c0.1-0.2,0.2-0.4,0.2-0.7C16.6,39.9,16.6,40,16.7,40.1z"/>
					<path fill="#4F4F4F" d="M24.6,21.2c0,0,0.4,0,0.4,0C24.9,21.2,24.7,21.2,24.6,21.2z"/>
					<path fill="#4F4F4F" d="M16.7,65.4c0,0,0.1,0.1,0.1,0.1C16.8,65.5,16.8,65.5,16.7,65.4z"/>
					<path fill="#4F4F4F" d="M28.3,471.5C28.3,471.5,28.3,471.4,28.3,471.5C28.4,471.5,28.4,471.5,28.3,471.5z"/>
					<path fill="#4F4F4F" d="M45.4,470l-0.2,0c0-0.1-0.1-0.1-0.1-0.2L45.4,470z"/>
					<path fill="#4F4F4F" d="M17.3,138.7C17.3,138.7,17.3,138.7,17.3,138.7C17.4,138.3,17.4,138.5,17.3,138.7z"/>
					<path fill="#4F4F4F" d="M17.1,263.8c-0.3-1.4-0.3,2.3-0.6,0.2C16.6,264.2,16.9,262,17.1,263.8z"/>
					<path fill="#4F4F4F" d="M27.5,20c-0.2,0-0.4,0-0.6,0C27.1,19.9,27.3,19.9,27.5,20z"/>
					<path fill="#4F4F4F" d="M16.5,264L16.5,264l0-0.2C16.5,263.8,16.5,263.9,16.5,264z"/>
					<path fill="#4F4F4F" d="M17.2,170.1c-0.1-0.1-0.1-0.2-0.1-0.3C17.1,169.8,17.1,169.9,17.2,170.1z"/>
					<path fill="#4F4F4F" d="M16.7,146.7l0,0.6C16.7,147.1,16.7,146.9,16.7,146.7z"/>
					<path fill="#4F4F4F" d="M16.7,182.3c0,0.3,0.1,0.4,0,0.9c0,0,0-0.1,0-0.1C16.8,182.8,16.8,182.6,16.7,182.3z"/>
					<path fill="#4F4F4F" d="M16.7,194.9c0-0.1,0-0.2-0.1-0.2c0-0.1,0-0.3,0-0.4L16.7,194.9z"/>
					<path fill="#4F4F4F" d="M14.6,439.5c0.1,0.3,0.2,0.4,0.3,0.6C14.7,439.9,14.6,441.8,14.6,439.5z"/>
					<path fill="#4F4F4F" d="M27.8,20.1C27.8,20,27.7,20,27.5,20c0.1,0,0.3,0,0.4,0C27.9,20,27.9,20.1,27.8,20.1z"/>
					<path fill="#4F4F4F" d="M14.4,182.8l0,2C14.4,184.2,14.4,183.5,14.4,182.8z"/>
					<path fill="#4F4F4F" d="M14.7,348.9l0,0.5C14.6,349.2,14.6,349,14.7,348.9z"/>
					<path fill="#4F4F4F" d="M14.4,190.7c0.1,0.4,0.2,0.7,0.2,1.1c0,0.1,0,0.2-0.1,0.2L14.4,190.7z"/>
					<path fill="#4F4F4F" d="M14.9,440.1L14.9,440.1L14.9,440.1z"/>
					<path fill="#4F4F4F" d="M14.2,453.4c0-1.9,0.4-0.9,0.6-1.3c0.1-2.3-0.3-1.1-0.5-1.8c0.1-1.4,0.5-2.5,0.4-3.6
						c-0.1-0.1-0.1-0.3-0.2,0c0.3-1.5,0-4.5,0.4-6.2c0-0.1-0.1-0.2-0.1-0.2c0.2,0.3,0.4,0.3,0.5,0.3c0-0.9,0.2-1.6,0-1.9
						c0,0.5-0.1,0.6-0.2,0.8l0.1-0.9c-0.4-0.8-0.1,1.2-0.4,1.2c0.1-1.8,0.4-3.8,0.3-5.1c-0.4-0.3-0.1,3.1-0.4,1.3l0.1,2.1
						c-0.6-1.6,0,1.3-0.6-0.2c-0.1-2.7,0.2-3.1,0.1-5.8c0.2-0.6,0.3,0.2,0.5-0.4c0.4-3.9-0.9-3.1-0.4-5.9c0.2-0.7,0.7-1,0.5-3.1
						l-0.4,0.7c0-2.6,0.6-1.5,0.3-4.3c-0.2,0.5-0.1,2.1-0.2,1.7c-0.3-1.8,0.2-1.3,0.2-2.7l-0.4-0.3c0.1-2.8,0.3-5.9,0.4-9
						c-0.1,0.2-0.2,0.7-0.3,0c0.2-3.9,0-8.4-0.3-12.2l0.3-1.5c0-0.3-0.1-0.6-0.2-0.3c-0.1-1.5,0.2-0.1,0.3-0.8
						c0-0.8-0.2-1.1-0.3-0.6c0.3-2.6,0.6-7.4,0.2-10.2l-0.1,0.5c-0.1-2.1,0.6-2.4,0.3-4.4l-0.1,0.4c-0.1-4.7,0.1-9.8-0.3-13.3
						c0.4-0.7-0.2-4.6,0.4-4.9c-0.3-2.7-0.4-1.9-0.6-5.6c0-1,0.4-1.5,0.5-2.7l-0.3,0l0.3-1.7l-0.4-0.9l0.1-1.2c0,0.5,0.1,1,0.2,0.9
						c0.1-1.8-0.2-4.4-0.4-4.5l0.3-4.3c-0.1,0.1-0.2,0.8-0.3,1.4c0.3-2.3-0.3-0.4,0-2.5c0.1,0.3,0.2-0.2,0.3-0.2
						c-0.2-1-0.2-3.4-0.1-5.2l-0.2,0.3c-0.1-3.2,0.1-6.7,0.1-10.3c0.1,1.3,0.5,1,0.5-0.1l-0.3-0.4c0.2-0.7,0.1,1.1,0.4-0.3
						c0-1.3-0.4-0.9-0.5-0.1l0.1-1.6c-0.1-0.1-0.2,0.3-0.3,0.4c0.2-0.7-0.3-2.8,0-3.8l-0.1-0.1c0-3.6,0.1-5.2,0.1-8.1
						c0.3-0.1,0.2-1.2,0.5-2.1c-0.1-2.1-0.3-4.5-0.3-7.1c0.1-1.8,0.3-0.5,0.4-1.3c-0.3-0.1-0.2-2.7-0.4-1.4c0-3.1,0.1-3.9,0.3-7.8
						c0.1,0.4,0.2,0.9,0.3,0.7c0-0.7-0.1-1.6-0.2-1.5l0,0.2c0.4-4.4-0.8-10.1-0.2-13.6l0,0.2l0.3-3.6c0-1.7-0.2,1-0.4-0.2
						c0.5-3.9-0.1-6.2,0.2-9.4c-0.8-2.5,0.1-8.8-0.5-12.2l0.2,0.2c0.2-0.9-0.1-1-0.2-1.7c0.1,0.1,0.2,0.9,0.3,0.4
						c0.2-7.3-0.3-15.2-0.4-22.7c-0.1-2.8,1-1.6,0.5-5l-0.3,1c0.4-5.6,0-11.4,0.3-16.8c-0.1,0.3-0.2,0.3-0.2,0.9
						c-0.3-1.1,0-4.2,0.2-4.3c0-0.8-0.2-0.2-0.3-0.7c-0.1-1.2,0.3-2.9,0.1-3.5c0-0.1-0.1,0.3-0.1,0.5c0.1-0.8,0-3.5,0.3-2.8
						c-0.1-2,0.1-3.9,0-5.5c0.3-1.1-0.2-3.5,0.3-3.8c-0.5,0.1-0.4-3.6-0.2-4.9c-0.1,0.4-0.1-1.1-0.3-0.6c0-1.5,0.1-2.8,0.3-2.6
						c-0.6-2.7,0.5-5.5-0.3-7c0.3-4.4,0.4-8.4,0.5-12.4c-0.5,0.1,0,4.4-0.5,4.2c0.2-3.7,0.6-5.9,0.5-9.6c-0.1-1-0.2,0.5-0.3,0.9
						c0.2-3.7,0-7.2,0.2-10.5c0,0-0.1,0.4-0.1,0.7c0-0.7-0.1-1.5,0.1-1.4l-0.1,0.6c0.3,1,0.7-2.6,0.8-2.7c-0.6,1.1-0.2-3.3-0.9-1.5
						c0-0.4,0.1-1,0.3-0.9c0-0.6-0.1-0.8-0.3-0.2c0.1-2.3,0.3-1.5,0.3-3.6c-0.1,0-0.1,0.4-0.3,0.7c0.2-1.1,0.4-2.2,0.3-4
						c-0.1,0.1-0.1-0.1-0.1,0.4c0-3.1,0.5-5.3,0.3-8.6c-0.5,1-0.2-1.2-0.5-1.3l0.1-1.8l0.2,0.7c0-1.6,0.3-3,0.2-4.4l-0.2,1.2l0.1-3
						l0.1,1.7c0.2-1.6,0.5,0.2,0.4-1.9c0,0.4,0-1.6-0.2-2.4l0,0c0.1-0.8,0.3-1.6,0.2-2.8c-0.1-0.3-0.4,0.2-0.5,0
						c0.3-0.8,0.1-3.7,0.4-4.7c-0.1,0.3-0.3,0.3-0.3,0.2l0.3-0.7c-0.1-0.7-0.1-0.8-0.3-0.7c0-2.2,0.5,0.7,0.3-1.9
						c0,0.2-0.1,0.1-0.1,0.5c-0.1-2.6,0.2-5.1,0-7.5c-0.4-0.7-0.1,2.1-0.4,1.3c0.1-3.5,0.5-7.3,0.4-10.6l0,0.6
						c0.6-0.5-0.3-2.5,0-4.2c0,0.4-0.3,0.6-0.2,0.4c-0.1-2.3,0.1-4.7,0.3-8.3l-0.1,0.4c-0.1-1.4-0.1-3.6-0.1-5.1
						c0.1-0.4,0.1-1.3,0.3-0.8c-0.8-4.6,0.4-8.7-0.2-12.7c0,0.5-0.1,1.2-0.1,0.8l0.1-3.4c0.2,0.3,0.1,0.5,0.3,1.2
						c0.1-0.4,0.3-1.4,0.3-2.3c-0.2,1.5-0.4,0-0.5-0.7c0.1,0.1,0.2-0.1,0.2-0.1C15.1,51,16,52.5,15.7,50l-0.1,0.1
						c0.1-0.9,0.2-1.8,0.2-2.8c-0.3-0.4-0.1,1-0.4,1c0-1.4,0.5-2.7,0.3-4c-0.1,0.6-0.1,1.4-0.2,2c-0.3-1.4-0.2-1.5-0.3-2.6l0,0.1
						l-0.2-2.4l0.1,0.6c0.7-1.7,0.1-3.5,0.6-5.9c-0.5,2.3-0.3,0.4-0.6,0.6c-0.1-0.6-0.2-1.5-0.3-1.3c0.3-1.1-0.2-1.9,0.2-3.4
						c-0.1,0,0-1.2-0.2-1c0.2-1.5,0.1,0.4,0.3,0.2c0.2-1.2,0.3-2.5,0.7-4c0.4-1.4,1.2-3,2.6-4.1c1.1-1,1.9-1.4,2.7-1.6
						c0.8-0.3,1.5-0.5,2.8-0.7c0.4-0.2,0.2-0.2-0.1-0.2c-0.3,0-0.7,0.1-0.7,0.1c1.3-0.6,2.5-0.5,3.8-0.4c-0.3-0.1,0-0.2,0.4-0.3
						c1.1,0,0.7,0.4,2.1,0.2c-0.2-0.1-0.5-0.3-1.1-0.4c1.2,0.1,2.5,0.3,3.8,0.4c0.3-0.2-0.8-0.3-1.2-0.4c1.4,0.1,3.7,0.2,4.2,0.4
						l-0.9,0.1c0.5,0,0.3-0.2-0.1-0.3c-1.2-0.2-1.8,0.1-1.9,0.2l0.9,0.1c-0.9,0.6-3.7-0.1-5.5-0.1l0.8,0.4l-1.9-0.4
						c-0.4,0.1-0.7,0.4,0.2,0.4c-0.7,0.1-1,0.1-1.2,0.1c-0.3,0-0.5-0.1-1,0.2c-0.1,0.1-0.1,0.1,0.1,0.1c0,0-0.3,0-0.6,0
						c-0.3,0.1-0.6,0.1-0.6,0.1c0.3,0-0.1,0.4,0.6,0.1c-2,0.8-3.4,1.2-3.9,2l0.2-0.1c-1.2,1-1.3,1-1.3,0.9c-0.1-0.1-0.1-0.3-1,0.6
						c0,0-0.1,0.4-0.1,0.9c0,0.5,0,0.9,0,0.9l-0.4,0.1c-0.1,0.3-0.4,0.9-0.2,0.8c-0.6,1.1-0.1-0.3-0.5,0.3c-0.1,0.8-0.4,1.8-0.5,2.8
						c-0.1,0.9-0.1,1.7,0.2,1.9c-0.2,0.6-0.2-1.5-0.4,0.2c0.6,0.5-0.1,2,0.2,3.4c0.3-0.4,0.1-1.8,0.4-0.4c-0.5,0.9,0.1,2.8,0,4.1
						c-0.4,0.1-0.2,2.7-0.3,4.7c0.1-0.1,0.2,3.9,0.4,5.8l0.1-0.1c-0.4,0.4-0.3,2.4-0.4,3.8c0.2-0.1,0.3-0.3,0.4-1.1l0,1.4
						c-0.1,0.3-0.2,0.7-0.2,1.6l0.3-0.3c0,1.8-0.3,3.6-0.1,6c-0.3,0.1-0.8-1.8-0.9,0.6c0.1,0.1,0.4,0.2,0.5-0.5
						c0,0.2-0.1,0.8-0.1,1.2l0.2-1c0.1,1.1-0.2,0.6-0.2,1.4c0.2,0,0.1,0.6,0.3,0.5c0-0.2-0.1-0.7,0-1.1c0,1,0.2,2.1,0.3,2.5
						c-0.1-0.1-0.3,0-0.3,0.7c0,1.8,0.3,0.6,0.4,1.7c-0.1,0.4,0,1.6-0.3,1.6c0,0.5,0.1,0.6,0.2,0.8c-0.1,0.9,0,4.4-0.4,3.3l0-0.2
						c0,0,0,0.1,0,0.2c0,0,0,0,0,0v0c-0.3,3.1,0.2,6.4,0,9.4l0.1,0c-0.1,1.8-0.1,4-0.3,5.3c0,0.5,0.2,1.3,0.3,1
						c-0.1,1.4-0.2,1.5,0,3.5c0.2-1.4,0.2,0.5,0.1-1.4c0.1,1.8,0.3,2.2,0,4.1c0.3-0.7,0.3,1.4,0.3,2.2l-0.2-1.3c0,1,0,1.8,0,2.7
						l0.4-0.5c0.4,3.7-0.7,6.6,0,9.5c-0.2,1-0.2-2-0.5-1.1c0,1.7,0.6,3.5,0.6,4c0.2,2.3-0.5,2.2-0.4,4.6c-0.1-0.3-0.5-0.6-0.6,1.2
						c0,1.7,0.5,2.1,0.6,1c0-0.4,0-0.6-0.1-0.6c0-0.5,0.1-1.3,0.2-0.6l-0.1,0.2c0.1,0.8,0.1,3.2,0.3,2.6c-0.1,1.3-0.2,0.5-0.3-0.4
						c0.2,2.2,0,3.4,0.1,5.6c-0.1-0.4-0.2-0.7-0.2-0.3c0.2,3.3-0.2,1.4-0.3,3.7c0.2,1.3,0.5-0.5,0.3,1.8c0.1,1.4,0.3,0.3,0.4-0.3
						c-0.2,2,0.2,3.8,0.2,5l0.1-1.1c-0.1,0.6-0.1,1.2-0.1,1.7l-0.3-0.6c0,0.6,0,1.2,0.1,1.2c-0.2,0.7-0.4-0.5-0.6,0.8
						c0.1,0.8-0.1,2.6,0.2,2.9c-0.1-2.6,0.3,0.3,0.4-1.9c0,0.4,0,1,0,1.6c0,0.1,0.1-0.1,0.1-0.3c0.3,2.5-0.4,1.2-0.4,3.8
						c0.2-0.3,0.4,0.6,0.3,1c0-1.1-0.3-0.5-0.5,0.5c0.1,1.7-0.1,1.8-0.1,2.7l-0.1-1c-0.2,0.3-0.2,1.2-0.2,2.4
						c0.1,0.1,0.1-1.1,0.2-0.6c-0.3,1.3,0.3,2.9,0.1,4.8c0.1,0.8,0.4,0.1,0.4,0.8c-0.2,2,0.3,2.2,0.1,4.3c-0.3-0.6-0.2-0.7-0.4,0.8
						l0.2-3.5l-0.4,2.3c0-1.1,0.2-2.2,0.1-2.9c-0.2,1.1-0.1,1-0.4,0.5c0.4,1.5-0.2,2.9,0,4.6L17,159c0.3,2.5-0.3,4.5-0.2,7.8
						l-0.1-1.1c-0.2,0.4,0,2-0.1,3.1c0.2-0.1,0.3,0.6,0.4,1c-0.2-0.1,0,2.4-0.4,2.7l0.3,1.5c0.1,2.6-0.6,3-0.5,5.6
						c0.2-0.8,0.4,0.4,0.5-1.3c0,0.9,0,1.6-0.1,1.6c0.1,0.5-0.3,2.4-0.1,3.1c-0.1,0.4-0.3,0.5-0.3,1.4c0,0.1,0.1,0,0.1,0
						c-0.1,0-0.1,1.5-0.4,0.7c0.7,2.6,0,7.3,0.5,9.6c-0.1,1.9-0.1,4.1-0.2,5.8c0.1-0.1,0.1,0,0.1-0.3c0.2,2.3-0.6,1.4-0.4,4.1
						c0.3,1.4,0.2-1.4,0.3-0.6c0.7,0.4-0.1,3.2,0.3,5l0-0.4c0.2,1.4-0.3,3.3-0.2,5.5c0,0,0.1-0.1,0.1,0c-0.4,1.5-0.5,4.4-0.6,6.5
						c0.3-0.7,0.1-1,0.4-0.6c0,1-0.4-0.3-0.5,1.6c0.1,0.6,0.3,2,0.6,2.2l0-1.8c0.4,0.9,0,2.3,0.1,3.3l0.2-0.1
						c-0.1,2.8-0.5,2.8-0.4,5.8l-0.1-0.3c-0.4,1.6,0.2,1.4-0.1,3l0.4,0.5c-0.1,1.1-0.4,3.8-0.5,5.7c0.3-1.1,0.5-3.3,0.7-4.7
						c0,1.1,0,3.6-0.2,4.2c0-0.4,0.1-1,0.1-1.4c-0.3,1.3-0.5,3-0.5,5.1c0.8-0.4,0.2,5.5,0.8,7.1c-0.3,3.7,0.1,7.4,0.1,11.8
						c-0.6-1.5,0,1.3-0.7,1c0,1,0,1.4,0,1.5l0.4,3.1c0.2,0.7,0.1-1,0.3-0.9c0,2.2,0.3,0.9,0.4,2.4c-0.2-0.3-0.3,0.8-0.2,2l-0.3-1.8
						c-0.3,3.1,0.5,2.7,0.2,5.8l0.2-1c-0.1,1.6,0,5.9-0.5,7.5c0.1,0.3,0.3,0.7,0.3,0c0.1,3.8-0.6,8.6-0.2,11.5l0.2-0.3
						c0,0.7-0.3,1.2-0.1,2.1c0.1,0,0.2-0.3,0.2,0c-0.1,0.4-0.3,1.9-0.2,2.9l0.2-0.8c0.2,3.7-0.4,5.8-0.5,8.9c0.5,0,0.6,2.9,0.7,4.4
						l0.1-0.1c0.1,4.4-0.4,7.4-0.6,11.5c0.5,2.5,0.2,8.5,0.5,12.5c-0.1-0.6-0.4,0.1-0.4,0.8c0.1,0.9-0.3,2.6,0.1,2.5l0-0.3
						c0.4,0.7,0.3,2.7,0.3,4.2l-0.6,0.3c0.8,4-0.3,10.4,0.4,12.6c-0.1,1-0.1,2.1-0.3,3.1l0.3-0.1c0.1,2.7,0.1,4,0,7.3l0.2-0.7
						c0,1.9-0.9,2.3-0.9,4l0.4,0.5c0,3.2,0.4,6.5,0,9.7c0.1-0.1,0.2-0.1,0.2-0.7c0,1.5,0.3,5.9-0.3,5.3c0.4,0,0,3.3-0.1,5.1l0.3-0.3
						c-0.4,1.5-0.5,1.5-0.6,3.6c0,0.5,0.2,0.4,0.2-0.2c0.2,1.6-0.3,1.3-0.1,3.2l0.2-0.7c0,1.7-0.1,1.5-0.3,2.5
						c-0.1,1.1,0.1,3.2,0.3,3.4c-0.2,0.2-0.4,1.1-0.3,2.1c0.1,0.1,0.2-0.2,0.2-0.4c0.2,2.8-0.3,4.2-0.1,6.1c0.1,0,0.1,0.2,0.2,0.3
						c0-2.2,0-4,0-3.8c0.3,0,0.3,1.8,0.7,0.4c-0.2,1.4-0.6,3.9-0.5,5.6c0,0.1,0.1,0.2,0.1,0.2l0-0.2c0,0.4,0,0.8,0,1.1
						c0,0.6,0.1,0.9,0.1,1.4c0.2,0.2,0.1,2.1,0.1,2.9c-0.3-0.1-0.2,1.1-0.5,0c0,0.1,0-0.2,0-0.8c0-0.1,0-0.3,0-0.4c0,0,0,0,0,0.1
						c0-0.6,0-1.4,0-2.2c-0.2,0.7-0.3,1.4-0.1,2.4c-0.2,0.5-0.4,1-0.5,1.2c0.4,1.2,0.6,3.6,0.9,3.9c-0.2,2.7-0.1,6.4-0.7,8.1
						c-0.1,0.8,0.2,0.9,0.2,1.2c0.1-0.4,0-1,0.1-1.2c-0.1,1.6-0.1,4.6-0.4,5c0.2,2,0.4-1.1,0.3,1.6l0.1-0.4c0.6,5.3-1,8.6-0.2,14.5
						c0-0.4-0.1-0.6-0.1-0.7c0.2,3.3,0.1,6.8,0,10.2c0,1.7-0.1,3.4,0.4,4.9c0.5,1.5,1.3,3,2.4,4c0.3,0.3,0.6,0.5,0.7,0.7
						c0.2,0.2,0.4,0.3,0.5,0.5c0.3,0.3,0.5,0.6,0.9,0.9l0.5-0.1c0,0,1.5,1.1,1.5,1c1.3,0.5,2.4,0.3,3.7,0.1c1.3-0.2,2.7-0.3,4.4,0
						l-0.5,0.2c1.3,0,4,0.1,3.8-0.1c0.1,0,0.4,0.2,0.9,0.1l0-0.2l3.1,0.3c2.4-0.1-0.4-0.7,3.1-0.7c1.3,0.1,3.7,0.5,3.2,0.6
						c-0.5,0-1.3,0.1-1.4,0.3l1.2,0.1c0.2,0.5,1.1,1-1.8,1.3l-2-0.3l-0.7,0.2l1.7,0c-1,0.2-1.6,0-2.3-0.1c-0.2,0.1-0.4,0.2-0.9,0.3
						l-2-0.5c-0.2,0.2,0.9,0.4-0.4,0.5c-0.9-0.2,0.9-0.4-0.7-0.6c-1,0.2-0.7,0.4-1.8,0.2c-0.2,0.1,0.1,0.2,0.5,0.3
						c-1-0.2-2.7-0.1-3.2-0.3c-1,0.3-3.4-0.1-3.3,0.4c-0.3-0.1-1.8-0.3-2.8-0.4c0.9,0.3,0,0.3-1.2,0.2c-1.2-0.1-2.4-0.7-2.3-0.3
						c-0.6-0.5-1.7-1.1-2.8-2c-1.1-0.9-2.1-2.1-2.6-3.3c0,0.1,0.1,0.4,0.3,0.6c-0.8-1.1-1.1-1.5-1.5-2.3c0.1-0.2,0.1-0.8,0-1.5
						c0-0.3-0.1-0.7-0.1-1.1c0-0.4,0-0.7,0-1c-0.3-0.8-0.4-0.6-0.5-0.1c-0.1,0.4-0.1,1-0.3,0.7c0.2,0,0.1-0.7,0.2-1.4
						c0-0.7,0.1-1.2,0.3-1c-0.2-1.2-0.1-1-0.5-1.6c0.5-0.2,0.1-1.1,0.4-2.1c-0.3-1.7-0.5-0.4-0.3-2.3
						C14.4,451.7,14.2,453.4,14.2,453.4z M15.1,408.7L15.1,408.7c0,0.4,0,0.7,0,0.9C15.1,409.4,15.1,409.1,15.1,408.7z M15.1,404.9
						c0,0.5,0,1,0,1.6c0.1,0.1,0.2,0,0.2-0.4C15.2,406.4,15.2,405.5,15.1,404.9z M17.2,412.9c0-0.6,0-0.8-0.1-0.9c0,0.3,0,0.6,0,1
						c0,0,0,0.1,0,0.1C17.1,413,17.1,413,17.2,412.9z"/>
					<path fill="#4F4F4F" d="M16.8,413.9c0,0.1,0,0.1,0,0.2c0-0.1,0-0.2-0.1-0.4c0-0.1,0.1-0.1,0.1-0.2
						C16.8,413.7,16.8,413.8,16.8,413.9z"/>
					<path fill="#4F4F4F" d="M16.3,73.5L16.3,73.5C16.3,73.5,16.3,73.5,16.3,73.5C16.3,73.5,16.3,73.5,16.3,73.5z"/>
					<polygon fill="#4F4F4F" points="14.5,353.1 14.6,353.1 14.5,353.4 					"/>
					<path fill="#4F4F4F" d="M15.3,52.8c0,0-0.1-0.1-0.1-0.3C15.3,52.6,15.3,52.7,15.3,52.8z"/>
					<path fill="#4F4F4F" d="M15.2,43.9l-0.1-1.3C15.2,43.2,15.2,43.6,15.2,43.9z"/>
					<path fill="#4F4F4F" d="M15.1,37c0.1-0.1,0.1-0.1,0.1-0.1c0,0,0,0,0,0L15.1,37z"/>
					<path fill="#4F4F4F" d="M14.7,146.3c0,0.1,0,0.2,0,0.3C14.7,147.1,14.7,146.7,14.7,146.3z"/>
					<path fill="#4F4F4F" d="M15.4,113.8c-0.1,0.3-0.1,0.7-0.1,1C15.3,114.2,15.3,113.8,15.4,113.8z"/>
					<path fill="#4F4F4F" d="M14.4,182.5L14.4,182.5c0,0.1,0,0.1,0,0.2L14.4,182.5z"/>
					<path fill="#4F4F4F" d="M15.3,116.3c-0.1-0.6,0-1.1,0-1.5C15.3,115.3,15.4,115.8,15.3,116.3z"/>
					<path fill="#4F4F4F" d="M34,19.9l0.3,0c0,0,0,0,0,0L34,19.9z"/>
					<path fill="#4F4F4F" d="M34.3,19.9l0.4,0C34.5,20,34.4,20,34.3,19.9z"/>
					<path fill="#4F4F4F" d="M35.5,20L34.7,20C35,20,35.3,19.9,35.5,20z"/>
					<path fill="#4F4F4F" d="M24.8,20.1L24.7,20C24.7,20,24.8,20,24.8,20.1z"/>
					<path fill="#4F4F4F" d="M21.9,20.8c0.6-0.3,1.6-0.9,2.7-0.9l0.1,0.1c-0.2,0-0.8,0.1-1.3,0.3C22.8,20.5,22.2,20.8,21.9,20.8z"/>
					<path fill="#4F4F4F" d="M16.5,30.7c0,0,0-0.1,0-0.3c0-0.2,0-0.5,0.1-0.8c0.1-0.3,0.1-0.5,0.1-0.8c0-0.2,0.1-0.3,0.1-0.3
						c0,0.4,0,0.9,0.3,0c-0.2,1.4-0.2,1.2-0.3,1.1C16.8,29.4,16.6,29.3,16.5,30.7z"/>
					<path fill="#4F4F4F" d="M16.6,37.8c0.1-1.2,0.2,0,0.2-0.1C16.7,38.6,16.7,38.8,16.6,37.8z"/>
					<path fill="#4F4F4F" d="M16.6,89.7l0.3-0.1C16.8,90.6,16.7,89.6,16.6,89.7z"/>
					<polygon fill="#4F4F4F" points="15.2,99.6 15,98.7 15.2,98.3 					"/>
					<polygon fill="#4F4F4F" points="17.1,105.5 17.1,105.1 17,106.7 					"/>
					<path fill="#4F4F4F" d="M17,192.6l-0.3-0.3C16.7,191.7,17.1,191.6,17,192.6z"/>
					<path fill="#4F4F4F" d="M16.7,230.3c0.2,0.4,0.3,1.5,0.1,2.1C16.7,231.5,16.6,230.7,16.7,230.3z"/>
					<polygon fill="#4F4F4F" points="17.2,343.1 17.3,342.3 17.2,343.8 					"/>
				</g>
			</g>
		</g>
	</g>
</g>
<g>
	<polygon fill="#353535" points="58.2,470.8 52.1,475.4 46,480 46,470.8 46,461.6 52.1,466.2 	"/>
	<g>
		<g>
			<g>
				<g>
					<path fill="#4F4F4F" d="M57.9,470.5c0,0,0.1,0.1,0,0.1l-0.2-0.1L57.9,470.5z"/>
					<path fill="#4F4F4F" d="M57.8,471c-0.1,0-0.3-0.1-0.4-0.3c0.2,0.1,0.1,0,0.3,0.1c0.1,0,0.1-0.1,0-0.2c0,0,0.1-0.1,0.2,0
						C58,470.9,57.9,471,57.8,471C57.7,471,57.7,471,57.8,471z"/>
					<path fill="#4F4F4F" d="M52.4,475.4L52.4,475.4C52.5,475.4,52.4,475.4,52.4,475.4z"/>
					<path fill="#4F4F4F" d="M49.1,478.1C49.1,478.1,49.1,478.1,49.1,478.1C49.1,478.1,49.1,478.1,49.1,478.1z"/>
					<path fill="#4F4F4F" d="M48.6,478.7C48.6,478.7,48.6,478.7,48.6,478.7C48.6,478.7,48.6,478.7,48.6,478.7z"/>
					<path fill="#4F4F4F" d="M52.4,475.4l-0.1,0.1C52.3,475.5,52.4,475.5,52.4,475.4z"/>
					<path fill="#4F4F4F" d="M56.7,471.3C56.8,471.2,56.8,471.2,56.7,471.3L56.7,471.3L56.7,471.3z"/>
					<path fill="#4F4F4F" d="M54,474.4L54,474.4C54.1,474.4,54.1,474.4,54,474.4L54,474.4z"/>
					<path fill="#4F4F4F" d="M55.2,473.6c0,0-0.1-0.1-0.2-0.1C55.1,473.5,55.1,473.5,55.2,473.6C55.2,473.5,55.2,473.5,55.2,473.6z"
						/>
					<path fill="#4F4F4F" d="M56.9,472L56.9,472C56.9,472,56.9,472,56.9,472z"/>
					<path fill="#4F4F4F" d="M53.2,475.1C53.2,475.1,53.2,475.1,53.2,475.1C53.2,475.1,53.2,475.1,53.2,475.1z"/>
					<path fill="#4F4F4F" d="M56.4,470.3L56.4,470.3C56.4,470.3,56.4,470.3,56.4,470.3z"/>
					<polygon fill="#4F4F4F" points="58.2,470.7 58.2,470.7 58.2,470.6 					"/>
					<path fill="#4F4F4F" d="M47.4,479.9C47.4,479.9,47.4,479.9,47.4,479.9C47.5,479.9,47.5,479.9,47.4,479.9z"/>
					<path fill="#4F4F4F" d="M45.4,469.1c0.1,0.1,0.2-0.2,0.3,0C45.7,469.1,45.5,469.3,45.4,469.1z"/>
					<path fill="#4F4F4F" d="M56.7,471.3C56.7,471.3,56.7,471.3,56.7,471.3C56.7,471.3,56.7,471.3,56.7,471.3z"/>
					<polygon fill="#4F4F4F" points="45.7,469.1 45.7,469.1 45.8,469.1 					"/>
					<path fill="#4F4F4F" d="M45.4,478.5C45.4,478.5,45.4,478.5,45.4,478.5C45.4,478.5,45.4,478.5,45.4,478.5z"/>
					<path fill="#4F4F4F" d="M46.4,480.3L46.4,480.3C46.4,480.3,46.4,480.3,46.4,480.3z"/>
					<path fill="#4F4F4F" d="M45.6,477.1C45.6,477.1,45.6,477.1,45.6,477.1L45.6,477.1C45.6,477.1,45.6,477.1,45.6,477.1z"/>
					<polygon fill="#4F4F4F" points="45.6,475.9 45.6,475.9 45.6,475.9 					"/>
					<path fill="#4F4F4F" d="M53.4,468c0,0,0.1,0,0.1-0.1C53.5,468,53.6,468.1,53.4,468z"/>
					<path fill="#4F4F4F" d="M56.8,471.3C56.8,471.3,56.7,471.3,56.8,471.3L56.8,471.3C56.8,471.3,56.8,471.3,56.8,471.3z"/>
					<path fill="#4F4F4F" d="M46.8,477.1l0-0.2C46.8,476.9,46.8,477,46.8,477.1z"/>
					<path fill="#4F4F4F" d="M46.9,463L46.9,463C46.9,463,46.9,463,46.9,463z"/>
					<path fill="#4F4F4F" d="M46.8,476.3c-0.1,0-0.1-0.1-0.1-0.1c0,0,0,0,0,0L46.8,476.3z"/>
					<path fill="#4F4F4F" d="M53.6,467.9L53.6,467.9L53.6,467.9z"/>
					<path fill="#4F4F4F" d="M54.4,469c-0.2-0.1,0.1-0.2,0.1-0.3c-0.1-0.2-0.2,0.1-0.3,0.1c-0.1-0.1,0-0.3-0.1-0.4
						c0,0-0.1,0-0.1,0.1c0-0.2-0.3-0.3-0.4-0.5c0,0,0,0,0,0c0.1-0.1,0.2-0.1,0.2-0.2c-0.1-0.1,0-0.2-0.2-0.1c0,0,0,0.1,0,0.1l0-0.1
						c-0.2,0.1,0.1,0.1,0,0.2c-0.1-0.2-0.2-0.4-0.3-0.4c-0.1,0.1,0.2,0.2,0,0.3l0.2,0.1c-0.3,0.1,0.1,0.1-0.2,0.2
						c-0.2-0.1-0.2-0.3-0.4-0.4c0-0.1,0.1-0.1,0.1-0.2c-0.2-0.4-0.5,0.2-0.6-0.2c0-0.1,0.1-0.4-0.1-0.4l-0.1,0.2
						c-0.2-0.1,0.1-0.3-0.2-0.4c0,0.1,0.1,0.2,0.1,0.2c-0.2,0,0-0.2-0.1-0.3l-0.1,0.1c-0.2-0.2-0.4-0.5-0.6-0.7c0,0.1,0,0.1-0.1,0.1
						c-0.3-0.3-0.7-0.5-1-0.6l0-0.2c0,0-0.1,0-0.1,0.1c-0.2,0,0.1-0.1,0-0.2c-0.1-0.1-0.1,0-0.1,0.1c-0.1-0.3-0.4-0.7-0.7-0.7l0,0.1
						c-0.2-0.1,0-0.4-0.2-0.4l0,0c-0.4-0.2-0.7-0.6-1.1-0.7c0.1-0.2-0.4-0.2-0.2-0.5c-0.3,0-0.4,0-0.4,0.1c0,0,0-0.2,0-0.3l0,0.2
						c0,0,0-0.3,0-0.3c0,0,0,0.3,0,0.3l0-0.1c0,0,0-0.1,0-0.2c-0.1-0.2-0.1,0.1,0,0.2c0,0-0.2-0.3-0.2-0.3c0.1,0.1,0.1,0.2,0.1,0.3
						c-0.2-0.4,0.2,0.3,0,0l0,0c0,0,0-0.1-0.1-0.1c0,0-0.1-0.1-0.1-0.1c0.1,0.2,0.1,0.3,0.1,0.3l0.1,0.2c0,0.1-0.1,0-0.1,0.1
						c-0.1,0-0.3-0.1-0.3-0.1l0.2,0.1c-0.1,0-0.1-0.1-0.2,0c0,0.1,0.2,0.1,0.3,0.1l-0.1,0c0.1,0,0.1,0,0.2,0c-0.1-0.1,0.2,0.2,0,0.3
						l0.1,0c0,0.4-0.1,0.5-0.1,0.8c-0.2,0-0.1,0.1-0.2,0.2c0.1,0.2,0.2,0.4,0.2,0.7c-0.1,0.2-0.1,0.1-0.2,0.1c0.1,0,0.1,0.3,0.2,0.1
						c0,0.3,0,0.4-0.1,0.8c-0.1,0-0.1-0.1-0.1-0.1c0,0.1,0.1,0.2,0.1,0.1l0,0c-0.2,0.4,0.4,1,0.1,1.3l0,0l-0.2,0.4
						c0,0.2,0.1-0.1,0.2,0c-0.2,0.4,0,0.6-0.1,0.9c0.4,0.2,0,0.9,0.2,1.2l-0.1,0c-0.1,0.1,0.1,0.1,0.1,0.2c-0.1,0-0.1-0.1-0.1,0
						c-0.1,0.7,0.1,1.5,0.2,2.2c0,0.3-0.5,0.2-0.3,0.5l0.2-0.1c-0.2,0.5,0,1.1-0.2,1.7c0,0,0.1,0,0.1-0.1c0.1,0.1,0,0.4-0.1,0.4
						c0,0.1,0.1,0,0.2,0.1c0.1,0.1-0.2,0.3,0,0.3c0,0,0,0,0.1-0.1c-0.1,0.1,0,0.3-0.1,0.3c0.1,0.2-0.1,0.4,0,0.5
						c-0.2,0.1,0.1,0.3-0.2,0.4c0.3,0,0.2,0.4,0.1,0.5c0.1,0,0.1,0.1,0.2,0.1c0,0.1-0.1,0.3-0.2,0.3c0.3,0.3-0.2,0.5,0.1,0.7
						c0,0.1-0.1,0.1-0.1,0.2c0,0-0.1,0.1-0.1,0.1c0,0.1-0.1,0.2-0.1,0.4c0.3-0.3,0-0.2,0.3-0.4c-0.1,0.1-0.3,0.5-0.3,0.6
						c0,0,0.1-0.2,0.2-0.3c0,0.1,0,0.1,0,0.2c0.1,0,0.1-0.1,0.2,0c0,0,0-0.1,0-0.1c0,0,0-0.1,0,0.1l0,0c-0.1,0.3,0,0.4,0.1,0.5
						c0-0.4,0.2-0.2,0.1-0.7c0,0,0,0.1,0,0.2c0,0,0-0.1,0-0.2c0.1,0,0.1,0.2,0.2,0.1c0,0-0.1-0.1-0.1-0.1c0.1,0.1,0.2,0.1,0.3,0
						c0,0,0-0.1-0.1,0c0.3-0.2,0.6-0.1,0.8-0.4c-0.2-0.1,0-0.1-0.1-0.3l0.2-0.1l0,0.1c0.1-0.1,0.3-0.1,0.4-0.2l-0.1,0l0.3-0.1
						l-0.1,0.2c0.2,0,0.1,0.2,0.3,0c0,0,0.1-0.1,0.1-0.2l0,0c0.1,0,0.2,0,0.3-0.1c0-0.1-0.2-0.2-0.2-0.2c0.2,0.1,0.3-0.2,0.5-0.1
						c-0.1,0-0.1-0.1-0.1-0.1l0.1,0.1c0-0.1,0-0.1,0-0.2c0.2-0.2,0.1,0.3,0.2,0c0,0,0,0-0.1,0c0.2-0.2,0.5-0.2,0.6-0.4
						c-0.1-0.2-0.2,0.1-0.2-0.1c0.3-0.2,0.7-0.2,1-0.5l0,0.1c0.2,0.2,0.1-0.3,0.3-0.3c0,0-0.1-0.1-0.1-0.1c0.2-0.2,0.4-0.2,0.7-0.4
						l-0.1,0c0.1-0.1,0.3-0.2,0.4-0.4c0.1,0,0.1,0,0.2,0.1c0.1-0.6,0.8-0.3,0.9-0.9c0,0-0.1,0-0.1,0l0.3-0.1c0.1,0.1,0,0.1,0,0.2
						c0.1,0,0.2,0,0.3,0c-0.2,0-0.1-0.2-0.1-0.3c0,0,0.1,0.1,0.1,0.1c0-0.3,0.2,0.2,0.3-0.1l-0.1,0c0.1,0,0.2,0,0.3-0.1
						c-0.1-0.1-0.1,0-0.2-0.1c0.1-0.1,0.4,0.1,0.4-0.1c-0.1,0-0.1,0.1-0.2,0.1c0-0.2,0-0.2,0.1-0.3l0,0l0.1-0.2l0,0.1
						c0.4,0.2,0.3-0.2,0.7-0.1c-0.3-0.1-0.1-0.1-0.2-0.2c0-0.1,0.1-0.2,0-0.2c0.2,0,0.1-0.2,0.3-0.1c0,0,0.1-0.1,0-0.2
						c0.1-0.1,0,0.1,0.1,0.1c0.3,0,0.3-0.5,0.7-0.5c0.3-0.1,0.4,0,0.7,0c0-0.1-0.2-0.1-0.2-0.1c0.1-0.1,0.2-0.2,0.3-0.2
						c0,0-0.1-0.1-0.1-0.1c0.1-0.1,0.2,0.1,0.2,0c-0.1,0-0.1-0.1-0.2-0.1c0.1,0,0.3,0,0.4-0.1c0-0.1-0.1-0.1-0.2-0.1
						c0.1-0.1,0.3-0.2,0.5-0.1l0,0.1c0,0-0.1-0.1-0.1-0.1c-0.2,0-0.1,0.1-0.1,0.2l0.1,0c0.1,0.3-0.3,0.2-0.5,0.3l0.2,0.1l-0.3,0
						c0,0.1,0.1,0.2,0.2,0.2c0,0.2-0.1,0-0.2,0.2c0,0,0,0,0,0l-0.1,0c0,0,0.1,0.1,0.1,0.1c-0.1,0.2-0.4,0.1-0.4,0.3l0,0
						c-0.3,0.1-0.1-0.1-0.4-0.1l0.1,0.4l-0.1-0.1c0,0-0.1,0.1,0,0.1c-0.2,0,0-0.1-0.2-0.1c0,0.2-0.4,0.2-0.3,0.4
						c-0.1-0.1,0.1-0.2-0.1-0.1c0.1,0.3-0.2,0.1-0.2,0.3c0.1,0.1,0.2-0.1,0.2,0.1c-0.2-0.2-0.2,0.2-0.3,0.2
						c-0.1-0.2-0.3,0.1-0.5,0.2c0.1,0-0.2,0.3-0.3,0.5l0,0c-0.2-0.1-0.3,0-0.4,0.1c0.1,0.1,0.1,0.1,0.2,0.1l-0.1,0.1
						c-0.1,0-0.1,0-0.2,0l0.1,0.1c-0.1,0.1-0.4,0.1-0.5,0.3c-0.1-0.1-0.1-0.4-0.3-0.4c0,0.1,0.1,0.2,0.2,0.2c0,0-0.1,0-0.1,0l0.2,0
						c0,0.1-0.1-0.1-0.2,0c0.1,0.1,0,0.1,0.1,0.2c0,0,0-0.1,0.1-0.1c-0.1,0.1-0.1,0.2-0.1,0.3c0-0.1-0.1-0.1-0.2-0.1
						c-0.1,0.1,0,0.1,0,0.3c-0.1,0-0.1,0.1-0.2,0c0,0,0,0.1,0,0.1c-0.1,0-0.4,0.2-0.4,0l0,0l0,0l0,0l0,0c-0.3,0.1-0.4,0.5-0.7,0.6
						l0,0c-0.2,0.1-0.3,0.2-0.5,0.2c0,0,0,0.2,0,0.2c-0.1,0-0.2,0-0.3,0.2c0.2,0,0,0.1,0.2,0c-0.1,0.1-0.1,0.2-0.3,0.2
						c0.1,0.1,0,0.2-0.1,0.2l0-0.2c-0.1,0-0.1,0.1-0.2,0.2l0.1,0.1c-0.2,0.4-0.8,0.1-0.7,0.6c-0.2,0,0.1-0.2-0.1-0.3
						c-0.1,0.1-0.1,0.4-0.1,0.5c-0.1,0.2-0.3-0.1-0.5,0.1c0-0.1-0.1-0.2-0.3-0.2c-0.1,0.1,0,0.3,0.1,0.3c0,0,0,0,0-0.1
						c0.1,0,0.1,0,0.1,0.1l-0.1,0c0,0.1-0.2,0.2-0.1,0.3c-0.1,0-0.1-0.1-0.1-0.1c-0.1,0.2-0.3,0.2-0.4,0.4c0-0.1,0-0.1,0-0.1
						c-0.2,0.3-0.2,0-0.4,0.1c0,0.2,0.2,0.2,0,0.2c-0.1,0.1,0.1,0.2,0.2,0.2c-0.2,0-0.2,0.3-0.3,0.4l0.1,0c-0.1,0-0.1,0-0.2,0.1
						c0,0,0-0.2,0-0.2c0,0-0.1,0.1-0.1,0.2c-0.1,0-0.1-0.2-0.3-0.2c-0.1,0.1-0.3,0.1-0.3,0.4c0.3-0.3,0,0.2,0.3,0
						c-0.1,0-0.1,0.1-0.2,0.2c0,0,0,0,0,0c-0.3,0.5-0.2-0.1-0.5,0.2c0,0.1-0.1,0.3-0.2,0.3c0.2-0.1,0.1-0.3,0-0.3
						c-0.2,0.3-0.2,0.1-0.3,0.2l0.1-0.1c0-0.1-0.1,0-0.2,0c-0.1,0.1,0.1,0,0,0.1c0-0.2-0.4,0.6-0.6,0.5c-0.2,0.2-0.2,0.4-0.3,0.5
						c0,0,0,0,0,0c0.1-0.4-0.2-0.1-0.1-0.6c0.1-0.1,0.1-0.1,0.2-0.5l-0.1,0.7l0.2-0.7c0,0.1-0.1,0.5-0.1,0.5
						c0.1-0.4,0.1-0.3,0.2-0.4c-0.2,0.2,0.1-0.6,0-0.5l-0.3,0.5c-0.1-0.1,0-0.4,0-0.6c0.1-0.3,0.1-0.5,0.1-0.7l0.1,0.1
						c0.1-0.1,0-0.3,0.1-0.5c-0.1,0.1-0.2,0-0.2-0.1c0.1,0,0-0.4,0.2-0.4l-0.1-0.1c-0.1-0.3,0.3-0.3,0.3-0.5c-0.1,0.1-0.2,0-0.3,0.1
						c0-0.1,0-0.2,0.1-0.2c-0.1,0,0.1-0.2,0-0.3c0,0,0.2,0,0.2-0.1c0,0-0.1,0-0.1,0c0.1,0,0.1-0.1,0.2-0.1c-0.3-0.3,0-0.7-0.3-0.9
						c0-0.2,0.1-0.4,0.1-0.6c0,0-0.1,0,0,0c-0.1-0.2,0.3-0.1,0.2-0.4c-0.2-0.1-0.1,0.1-0.2,0.1c-0.4,0,0-0.3-0.2-0.5l0,0
						c-0.1-0.1,0.1-0.3,0.1-0.5c0,0,0,0-0.1,0c0.2-0.1,0.2-0.4,0.3-0.6c-0.1,0.1-0.1,0.1-0.2,0.1c0-0.1,0.2,0,0.3-0.2
						c-0.1-0.1-0.1-0.2-0.3-0.2l0,0.2c-0.2-0.1,0-0.2,0-0.3l-0.1,0c0-0.3,0.2-0.3,0.2-0.6l0.1,0c0.2-0.2-0.1-0.1,0-0.3l-0.2,0
						c0.1-0.1,0.2-0.4,0.3-0.6c-0.2,0.1-0.2,0.3-0.3,0.5c0-0.1,0-0.4,0.1-0.4c0,0-0.1,0.1,0,0.1c0.2-0.1,0.3-0.3,0.3-0.5
						c-0.4,0-0.1-0.5-0.4-0.7c0.2-0.4-0.1-0.7,0-1.2c0.3,0.2,0-0.1,0.4-0.1c0-0.1,0-0.1,0-0.1l-0.2-0.3c-0.1-0.1-0.1,0.1-0.2,0.1
						c0-0.2-0.1-0.1-0.2-0.2c0.1,0,0.2-0.1,0.1-0.2l0.2,0.2c0.2-0.3-0.3-0.3-0.1-0.6l-0.1,0.1c0.1-0.2,0-0.6,0.3-0.7
						c0,0-0.1-0.1-0.2,0c0-0.4,0.3-0.8,0.1-1.1l-0.1,0c0-0.1,0.2-0.1,0.1-0.2c0,0-0.1,0-0.1,0c0,0,0.1-0.2,0.1-0.3l-0.1,0.1
						c-0.1-0.4,0.2-0.6,0.3-0.9c-0.2,0-0.3-0.3-0.4-0.4l0,0c0-0.4,0.2-0.7,0.3-1.1c-0.1-0.1-0.2-0.5-0.2-0.9c0-0.4,0-0.8-0.1-1.3
						c0,0.2,0.2,0.2,0.2,0.2c0-0.2,0.2-0.1-0.1-0.5l0,0.1c-0.2-0.4-0.2-0.7-0.2-0.9l0.1,0.1l0.3,0.6c0-0.2,0.5,0.1,0.8,0.4
						c0.3,0.3,0.6,0.6,0.7,0.4c0.1,0.2,0.3,0.3,0.4,0.5l0.1-0.2c0.4,0.3,0.4,0.3,0.7,0.5l0-0.1c0.2,0.1-0.1,0.5,0,0.6l0.2-0.2
						c0.3,0.2,0.6,0.2,0.8,0.6c0,0,0.1-0.1,0-0.1c0.1,0.1,0.6,0.2,0.3,0.4c0.1-0.2,0.3,0.2,0.4,0.4l0.1-0.1c0,0.2,0,0.3,0.1,0.5
						c0.1,0,0.1-0.1,0-0.1c0.2,0,0,0.2,0.2,0.2l0-0.1c0.1,0.1,0.1,0.1,0.1,0.3c0,0.1,0.3,0.2,0.4,0.1c0,0.1,0,0.2,0.1,0.3
						c0,0,0-0.1,0-0.1c0.3,0.1,0.2,0.4,0.5,0.4c0,0,0.1-0.1,0.1-0.1c-0.2-0.1-0.3-0.2-0.3-0.2c0.1-0.1,0.2,0,0.3-0.3
						c0,0.2,0.1,0.5,0.3,0.6c0,0,0,0,0,0l0,0c0,0,0.1,0,0.1,0.1c0.1,0,0.1,0,0.1,0.1c0.1-0.1,0.2,0.1,0.3,0.1
						c-0.1,0.1,0,0.2-0.2,0.2c0,0,0,0,0-0.1c0,0,0,0,0,0l0,0c0,0-0.1-0.1-0.2-0.1c0,0.1,0,0.2,0.2,0.2c0,0.1,0,0.2-0.1,0.3
						c0.2-0.1,0.5-0.1,0.6-0.1c0.2,0.2,0.5,0.4,0.4,0.8c0,0.1,0.1,0,0.2,0c0-0.1-0.1-0.1-0.1-0.1c0.1,0.2,0.3,0.3,0.2,0.5
						c0.2,0,0-0.2,0.2,0l0-0.1c0.6,0.1,0.4,0.9,1.1,0.9c0,0-0.1,0-0.1,0c0.6,0.2,1,1,1.7,1.1c0.2,0.1,0.1,0.2,0.1,0.3l0.1-0.1l0,0.3
						c0.1,0.3,0.6,0,0.7,0.4l-0.1,0.1c0.1,0.1,0.3,0.3,0.3,0.2c0,0,0,0.1,0,0.1l0.1-0.1l0.2,0.3c0.2,0.1,0.2-0.3,0.5-0.1
						c0.1,0.1,0.1,0.4,0.1,0.4c0,0-0.1,0-0.2,0l0.1,0.1c-0.1,0.2-0.2,0.5-0.6,0.5l-0.1-0.2l-0.1,0.1l0.1,0.1c-0.1,0-0.1-0.1-0.1-0.2
						c-0.1,0-0.1,0.1-0.2,0.1l0-0.3c-0.1,0.1-0.1,0.2-0.2,0.2c0-0.1,0.2-0.1,0.1-0.3c-0.1,0-0.2,0.1-0.2,0c-0.1,0-0.1,0.1,0,0.1
						c0-0.1-0.2-0.2-0.1-0.3c-0.2,0.1-0.2-0.2-0.4,0c0-0.1,0-0.3-0.1-0.3c0,0.3-0.3-0.2-0.4,0.1c0.1-0.3-0.3-0.4-0.4-0.6
						c0,0,0,0.1,0,0.1c-0.1-0.1-0.2,0-0.3,0c0.1-0.2,0-0.3,0-0.5c-0.2,0.1-0.1,0.3-0.2,0.4c0.1-0.1-0.1-0.3,0-0.4
						c-0.2,0-0.1,0-0.3,0.1c0.1-0.2-0.1-0.1,0-0.3c-0.2,0-0.2,0.2-0.3,0C54.3,468.8,54.4,469,54.4,469z M51.2,466L51.2,466
						C51.2,466,51.2,466,51.2,466C51.2,466,51.2,466,51.2,466z M50.9,465.7c0,0,0.1,0.1,0.1,0.1c0,0,0.1-0.1,0-0.1
						C51,465.8,50.9,465.7,50.9,465.7z M52.1,465.3C52.1,465.3,52.1,465.3,52.1,465.3C52.1,465.3,52.1,465.4,52.1,465.3L52.1,465.3
						C52.1,465.4,52.1,465.4,52.1,465.3z"/>
					<path fill="#4F4F4F" d="M52.1,465.6C52.1,465.6,52.1,465.6,52.1,465.6C52.1,465.6,52.1,465.6,52.1,465.6L52.1,465.6L52.1,465.6
						z"/>
					<path fill="#4F4F4F" d="M52.5,475.4L52.5,475.4C52.5,475.4,52.5,475.4,52.5,475.4C52.5,475.4,52.5,475.4,52.5,475.4z"/>
					<polygon fill="#4F4F4F" points="47,463.2 47,463.1 47,463.2 					"/>
					<path fill="#4F4F4F" d="M53.8,473.7C53.8,473.7,53.7,473.7,53.8,473.7C53.8,473.7,53.8,473.7,53.8,473.7z"/>
					<path fill="#4F4F4F" d="M54.4,473.2l0.1-0.1C54.5,473.1,54.5,473.1,54.4,473.2z"/>
					<path fill="#4F4F4F" d="M54.9,472.7C54.9,472.7,55,472.7,54.9,472.7L54.9,472.7L54.9,472.7z"/>
					<path fill="#4F4F4F" d="M46.8,478.6L46.8,478.6C46.8,478.6,46.8,478.6,46.8,478.6z"/>
					<path fill="#4F4F4F" d="M49,477.4c0,0-0.1,0-0.1,0C48.9,477.4,49,477.3,49,477.4z"/>
					<polygon fill="#4F4F4F" points="46.8,477.1 46.8,477.1 46.8,477.1 					"/>
					<path fill="#4F4F4F" d="M48.8,477.5c0-0.1,0.1-0.1,0.1-0.1C48.9,477.4,48.8,477.5,48.8,477.5z"/>
					<path fill="#4F4F4F" d="M57.2,470.9L57.2,470.9C57.2,470.9,57.3,470.9,57.2,470.9L57.2,470.9z"/>
					<path fill="#4F4F4F" d="M57.3,470.9L57.3,470.9C57.3,470.9,57.3,470.9,57.3,470.9z"/>
					<path fill="#4F4F4F" d="M57.4,470.8L57.4,470.8C57.3,470.8,57.3,470.8,57.4,470.8z"/>
					<path fill="#4F4F4F" d="M56.5,471.5L56.5,471.5C56.5,471.4,56.5,471.5,56.5,471.5z"/>
					<path fill="#4F4F4F" d="M56.3,471.6c0,0,0.1-0.2,0.1-0.2l0,0C56.4,471.4,56.4,471.7,56.3,471.6z"/>
					<path fill="#4F4F4F" d="M55.8,472.9l0.2-0.2c0,0.1,0,0.2,0.1,0.1C56,473.1,56.1,472.7,55.8,472.9z"/>
					<path fill="#4F4F4F" d="M55.3,473.4C55.4,473.3,55.4,473.4,55.3,473.4C55.3,473.5,55.3,473.5,55.3,473.4z"/>
					<path fill="#4F4F4F" d="M51.3,476.5l0.1,0.1C51.3,476.6,51.3,476.5,51.3,476.5z"/>
					<polygon fill="#4F4F4F" points="50,476.5 50.1,476.3 50.2,476.4 					"/>
					<polygon fill="#4F4F4F" points="50.2,477.6 50.2,477.6 50.1,477.7 					"/>
					<path fill="#4F4F4F" d="M45.5,476.1l0.2,0C45.6,476.2,45.4,476.2,45.5,476.1z"/>
					<path fill="#4F4F4F" d="M45.6,472.4c-0.1,0-0.1-0.1-0.1-0.2C45.6,472.3,45.7,472.4,45.6,472.4z"/>
					<polygon fill="#4F4F4F" points="45.7,460.5 45.6,460.3 45.8,460.5 					"/>
				</g>
			</g>
		</g>
	</g>
</g>
</svg>
