<?xml version="1.0" encoding="utf-8"?>
<!-- Generator: Adobe Illustrator 18.1.1, SVG Export Plug-In . SVG Version: 6.00 Build 0)  -->
<svg version="1.1" id="Layer_1" xmlns="http://www.w3.org/2000/svg" xmlns:xlink="http://www.w3.org/1999/xlink" x="0px" y="0px"
	 width="46.6px" height="1255.4px" viewBox="0 0 46.6 1255.4" enable-background="new 0 0 46.6 1255.4" xml:space="preserve">
<g>
	<g>
		<g>
			<g>
				<g>
					<g>
						<path fill="#4F4F4F" d="M22.4,22.7c-0.7-0.1-0.3-0.3,1.5-0.2l1.3,0.3L22.4,22.7z"/>
						<path fill="#4F4F4F" d="M33.4,25.5c0.6,0.9,1.1,1.9,1.2,2.6c0.2,0.7,0.1,1-0.3,0.4c-0.3-0.9-0.5-1.5-0.9-2
							c-0.3-0.6-0.7-1.1-1.4-2c-1.4-1.2-2.7-1.5-2.4-1.2c-0.3-0.1-0.9-0.4-1.6-0.5c-0.7-0.2-1.4-0.3-1.9-0.4
							c1.1-0.1,2.5,0.1,3.7,0.7c1.3,0.6,2.5,1.5,3.4,2.8C33.8,26.2,33.5,25.7,33.4,25.5z"/>
						<path fill="#4F4F4F" d="M36.4,200.5l0-1.1C36.3,199.7,36.3,200.1,36.4,200.5z"/>
						<path fill="#4F4F4F" d="M36.5,309.3c0-0.8,0-1.2,0.1-1.2C36.6,308.9,36.6,309.5,36.5,309.3z"/>
						<path fill="#4F4F4F" d="M36.9,327.9c0-0.4,0-0.7,0-1.1C36.9,327.2,36.9,327.6,36.9,327.9z"/>
						<path fill="#4F4F4F" d="M36.4,200.5l0.1,2.9C36.4,203.6,36.4,201.9,36.4,200.5z"/>
						<path fill="#4F4F4F" d="M35,49.1c0-0.6,0-1.1,0.1-1.6C35.1,48,35.1,48.5,35,49.1C35.1,49,35.1,49.1,35,49.1z"/>
						<path fill="#4F4F4F" d="M36.6,152.5l0-0.9c0-0.3,0.1-0.5,0.1-0.7L36.6,152.5z"/>
						<path fill="#4F4F4F" d="M36.7,115.7c0,0.8-0.3,1.1-0.4,1.4c0.1-0.5,0.2-1.1,0.2-1.8C36.5,115.3,36.6,115.5,36.7,115.7z"/>
						<path fill="#4F4F4F" d="M36.2,57.4l0-1C36.2,56.6,36.2,57.1,36.2,57.4z"/>
						<path fill="#4F4F4F" d="M36.7,178.9c0,0.1,0.1,0.2,0.1,0.3C36.7,179.2,36.7,179.1,36.7,178.9z"/>
						<path fill="#4F4F4F" d="M34.6,1208.5C34.6,1208.5,34.6,1208.5,34.6,1208.5C34.6,1208.7,34.6,1208.8,34.6,1208.5z"/>
						<path fill="#4F4F4F" d="M20.4,1240.1l0.6,0c0.1,0.1,0.1,0.1,0.1,0.2L20.4,1240.1z"/>
						<path fill="#4F4F4F" d="M37.3,361.9c0-0.1,0-0.1,0-0.2C37.3,360.9,37.3,361.4,37.3,361.9z"/>
						<path fill="#4F4F4F" d="M37.1,674c-0.3-3.5-0.3,5.8-0.6,0.4C36.6,675,36.9,669.6,37.1,674z"/>
						<path fill="#4F4F4F" d="M35.1,50.1c0,0.5,0,1,0,1.5C35.1,50.9,35.1,50.4,35.1,50.1z"/>
						<path fill="#4F4F4F" d="M36.5,674.5L36.5,674.5l0-0.5C36.4,674.1,36.4,674.3,36.5,674.5z"/>
						<path fill="#4F4F4F" d="M37.1,440.2c0-0.2-0.1-0.5-0.1-0.8C37,439.5,37,439.7,37.1,440.2z"/>
						<path fill="#4F4F4F" d="M36.7,381.9l0,1.4C36.7,382.8,36.7,382.3,36.7,381.9z"/>
						<path fill="#4F4F4F" d="M36.7,470.5c0,0.8,0.1,1.1,0,2.1c0-0.1,0-0.2,0-0.3C36.7,472,36.7,471.4,36.7,470.5z"/>
						<path fill="#4F4F4F" d="M36.7,502.1c0-0.2,0-0.4-0.1-0.6c0-0.3,0-0.7,0-1L36.7,502.1z"/>
						<path fill="#4F4F4F" d="M34.7,1112.7c0.1,0.7,0.2,1.1,0.3,1.5C34.8,1113.6,34.7,1118.3,34.7,1112.7z"/>
						<path fill="#4F4F4F" d="M35.2,49.1c-0.1,0.2-0.1,0.5-0.1,0.9c0-0.4,0-0.7,0-1C35.1,48.9,35.2,48.9,35.2,49.1z"/>
						<path fill="#4F4F4F" d="M34.5,471.8l0,5C34.5,475.4,34.5,473.6,34.5,471.8z"/>
						<path fill="#4F4F4F" d="M34.7,886.4l0,1.2C34.7,887.1,34.7,886.7,34.7,886.4z"/>
						<path fill="#4F4F4F" d="M34.5,491.7c0.1,0.9,0.2,1.8,0.2,2.8c0,0.2,0,0.4-0.1,0.6L34.5,491.7z"/>
						<path fill="#4F4F4F" d="M35,1114.1C35,1114.1,35,1114.1,35,1114.1C35,1114.1,35,1114.1,35,1114.1z"/>
						<path fill="#4F4F4F" d="M34.3,1147.1c0-4.8,0.4-2.2,0.6-3.3c0.1-5.7-0.3-2.6-0.5-4.6c0.1-3.6,0.4-6.3,0.4-8.9
							c-0.1-0.2-0.1-0.7-0.2-0.1c0.3-3.8,0-11.2,0.4-15.6c0-0.3-0.1-0.5-0.1-0.6c0.2,0.7,0.4,0.8,0.5,0.7c0-2.1,0.2-4,0-4.8
							c0,1.3-0.1,1.4-0.2,2l0.1-2.2c-0.3-2-0.1,3.1-0.4,3.1c0.1-4.4,0.4-9.5,0.3-12.8c-0.3-0.7-0.1,7.8-0.4,3.4l0.1,5.2
							c-0.5-4,0,3.2-0.5-0.5c-0.1-6.8,0.2-7.6,0.1-14.4c0.2-1.5,0.3,0.5,0.5-1c0.3-9.7-0.9-7.6-0.4-14.7c0.2-1.8,0.7-2.6,0.4-7.6
							l-0.4,1.7c0-6.6,0.6-3.8,0.3-10.7c-0.2,1.2-0.1,5.2-0.2,4.2c-0.3-4.5,0.2-3.2,0.2-6.6l-0.3-0.7c0.1-7,0.2-14.8,0.4-22.6
							c-0.1,0.4-0.2,1.8-0.3-0.1c0.2-9.8,0-21-0.2-30.5l0.3-3.6c0-0.8-0.1-1.6-0.2-0.7c-0.1-3.7,0.2-0.2,0.3-2
							c0-2.1-0.2-2.8-0.3-1.4c0.2-6.5,0.5-18.6,0.2-25.4l-0.1,1.3c-0.1-5.3,0.6-6,0.3-11l-0.1,1c-0.1-11.6,0.1-24.4-0.3-33.3
							c0.4-1.7-0.2-11.5,0.4-12.2c-0.3-6.6-0.4-4.7-0.6-14.1c0-2.5,0.4-3.7,0.4-6.8l-0.3-0.1l0.3-4.2l-0.4-2.2l0.1-2.9
							c0,1.2,0.1,2.4,0.2,2.3c0.1-2.3,0-5-0.1-7.2c-0.1-2.2-0.2-3.9-0.3-3.9l0.3-10.7c-0.1,0.2-0.2,2-0.2,3.4c0.3-5.7-0.3-1,0-6.3
							c0.1,0.7,0.2-0.4,0.2-0.5c-0.2-2.6-0.2-8.5-0.1-12.9l-0.2,0.8c-0.1-7.9,0.1-16.7,0.1-25.6c0.1,3.2,0.5,2.5,0.5-0.2l-0.3-1
							c0.2-1.7,0.1,2.7,0.4-0.7c0-3.3-0.4-2.2-0.5-0.3l0.1-4c-0.1-0.2-0.1,0.7-0.3,1c0.2-1.7-0.3-7,0-9.4l-0.1-0.2
							c0-8.9,0.1-12.9,0.1-20.2c0.3-0.1,0.2-3,0.4-5.1c-0.1-5.3-0.3-11.2-0.3-17.6c0.1-4.5,0.2-1.3,0.4-3.3
							c-0.3-0.3-0.2-6.7-0.4-3.4c0-7.7,0.1-9.8,0.3-19.6c0.1,1.1,0.2,2.2,0.2,1.6c0-1.8-0.1-4-0.2-3.8l0,0.5
							c0.4-10.9-0.7-25.2-0.2-33.9l0,0.5l0.3-9c0-4.2-0.2,2.5-0.4-0.6c0.4-9.7-0.1-15.4,0.2-23.4c-0.8-6.2,0.1-22-0.4-30.4l0.2,0.5
							c0.2-2.2-0.1-2.6-0.1-4.2c0.1,0.2,0.2,2.3,0.3,1c0.2-18.3-0.3-37.8-0.4-56.6c0-6.9,0.9-3.9,0.5-12.6l-0.3,2.5
							c0.4-13.9,0-28.4,0.3-41.9c-0.1,0.8-0.2,0.8-0.2,2.2c-0.1-1.4-0.1-4.1-0.1-6.4s0.2-4.2,0.3-4.3c0-2.1-0.2-0.5-0.3-1.8
							c-0.1-2.9,0.3-7.2,0.1-8.8c0-0.3-0.1,0.8-0.1,1.3c0.1-1.9,0-8.7,0.2-6.9c-0.1-5.1,0.1-9.7,0-13.8c0.3-2.7-0.1-8.7,0.3-9.6
							c-0.5,0.4-0.4-8.9-0.2-12.2c-0.1,1.1-0.1-2.8-0.3-1.5c0-3.7,0.1-7,0.3-6.4c-0.5-6.8,0.4-13.6-0.3-17.4
							c0.2-10.9,0.4-21,0.5-30.9c-0.5,0.4,0,10.9-0.5,10.4c0.2-9.3,0.6-14.7,0.5-23.9c-0.1-2.4-0.2,1.4-0.3,2.2
							c0.2-9.3,0-18,0.2-26.3c0,0-0.1,0.9-0.1,1.8c0-1.6-0.1-3.8,0.1-3.6l-0.1,1.6c0.3,2.6,0.6-6.5,0.8-6.8
							c-0.6,2.8-0.1-8.2-0.9-3.8c0-1.1,0.1-2.4,0.3-2.2c0-1.6-0.1-2.1-0.3-0.5c0.1-5.8,0.3-3.8,0.3-9.1c-0.1,0-0.1,1.1-0.3,1.6
							c0.2-2.7,0.4-5.4,0.3-9.9c-0.1,0.3-0.1-0.3-0.1,1.1c0-7.7,0.5-13.1,0.3-21.6c-0.4,2.5-0.1-2.9-0.5-3.3l0.1-4.5l0.2,1.8
							c0-4,0.3-7.5,0.1-10.9l-0.2,3l0.1-7.4l0.1,4.2c0.2-4,0.5,0.4,0.4-4.9c0,1.1,0-4-0.2-6l0,0c0.1-2,0.2-4,0.2-6.9
							c-0.1-0.8-0.4,0.6-0.5,0.1c0.3-1.9,0.1-9.3,0.4-11.8c-0.1,0.8-0.3,0.9-0.3,0.6l0.3-1.6c-0.1-1.8-0.1-2.1-0.3-1.8
							c0-5.5,0.5,1.8,0.3-4.8c0,0.5-0.1,0.3-0.1,1.3c-0.1-6.6,0.2-12.8,0-18.8c-0.4-1.8-0.1,5.3-0.4,3.3c0.1-8.7,0.5-18.1,0.4-26.6
							l0,1.6c0.5-1.2-0.3-6.3,0-10.6c0,1-0.3,1.4-0.2,1.1c-0.1-5.8,0.1-11.9,0.3-20.6l-0.1,1.1c-0.1-3.4-0.1-9-0.1-12.7
							c0.1-1.1,0.1-3.2,0.3-1.9c-0.8-11.4,0.4-21.7-0.2-31.8c0,1.2-0.1,2.9-0.1,1.9l0.1-8.6c0.2,0.7,0.1,1.1,0.3,2.9
							c0.1-1.1,0.2-3.5,0.2-5.6c-0.2,3.9-0.4,0-0.5-1.7c0.1,0.3,0.1-0.3,0.2-0.2c-0.4-4.5,0.5-0.8,0.2-6.9l-0.1,0.3
							c0.1-2.3,0.2-4.4,0.2-6.9c-0.3-1-0.1,2.4-0.3,2.6c0-3.5,0.5-6.9,0.2-10c0,1.5-0.1,3.6-0.2,5.1c-0.3-3.4-0.2-3.8-0.3-6.4l0,0.3
							l-0.1-5.9l0.1,1.5c0.7-4.4,0.1-8.9,0.6-14.7c-0.4,5.7-0.3,0.9-0.6,1.4c-0.1-1.5-0.2-3.8-0.3-3.1c0.2-2.8-0.2-4.6,0.2-8.5
							c-0.1-0.2,0-3-0.3-2.3c0.1-3.6,0.2,0.9,0.3,0.5c0.3-5.6-0.4-13,0.1-21c0.2-6.9,0.5-8.2,0.7-14.5c-0.2-2.2-0.4,1.8-0.4,1.8
							c-0.1-3.5-0.1-6.1,0-9.4c-0.1,0.7-0.2,0-0.3-1c0-2.6,0.4-1.8,0.2-5.2c-0.1,0.6-0.3,1.4-0.4,2.6c0.1-3.1,0.2-6.2,0.4-9.4
							c-0.2-0.9-0.3,1.9-0.4,3.1c0-1.8,0.1-4.1,0.1-6.2c0-1,0.1-1.9,0.1-2.7c0-0.7,0.1-1.3,0.1-1.5c0,0,0,0.1,0.1,0.3
							c0,0.2,0,0.5,0.1,0.8c0,0.6,0.1,1.2,0.1,1.2c0-1.3-0.2-0.7-0.3,0.3c-0.2,3.1,0.1,4.5,0.2,4.6l0.1-2.3
							c0.6,2.3-0.1,9.2-0.1,13.8l0.4-1.9l-0.3,4.7c0.1,1,0.3,1.7,0.4-0.6c0.2,3.3-0.1,2.9,0.1,5.8c0,0.3,0.1,0.2,0.1-0.1l-0.1,3.2
							c0.1-0.6,0.3,0.5,0.2-1.4c0.2,5.8-0.3,9.3,0,11.5l0-0.5c-0.1,8-0.3,0.8-0.7,6.8l0.8,4.1l-0.3,0.8c0,0.8,0,2.5,0.2,2.2
							c-0.2,3.1-0.1-0.5-0.3,1.3c0.3,4-0.1,11,0.4,11.9c-0.2,1.4-0.2-3.8-0.3,0.4c0.5,1.2-0.1,4.9,0.2,8.6c0.3-1.1,0.1-4.6,0.4-0.9
							c-0.5,2.2,0.1,7.1,0,10.2c-0.4,0.1-0.2,6.7-0.3,11.8c0.1-0.3,0.2,9.7,0.3,14.5l0.1-0.1c-0.4,0.9-0.3,5.9-0.4,9.5
							c0.2-0.1,0.3-0.8,0.4-2.7l0,3.4c-0.1,0.8-0.2,1.9-0.2,4.1l0.3-0.9c0,4.5-0.3,9.1-0.1,14.9c-0.3,0.3-0.7-4.6-0.9,1.5
							c0.1,0.2,0.4,0.5,0.4-1.2c0,0.5-0.1,1.9-0.1,2.9l0.2-2.4c0.1,2.6-0.2,1.4-0.2,3.5c0.2,0,0.1,1.6,0.3,1.3c0-0.5-0.1-1.8,0-2.6
							c0,2.4,0.2,5.3,0.3,6.2c-0.1-0.2-0.3,0-0.3,1.7c0,4.5,0.2,1.5,0.3,4.2c-0.1,1.1,0,4-0.3,4c0,1.3,0.1,1.6,0.2,2.1
							c-0.1,2.3,0,10.9-0.4,8.3l0-0.6c0,0.1,0,0.2,0,0.4c0,0,0,0,0,0v0c-0.3,7.6,0.2,15.9,0,23.5l0.1,0c-0.1,4.5-0.1,10.1-0.3,13.3
							c0,1.3,0.2,3.2,0.3,2.6c-0.1,3.5-0.2,3.8,0,8.8c0.2-3.5,0.2,1.2,0.1-3.6c0.1,4.5,0.2,5.5,0,10.3c0.3-1.6,0.3,3.4,0.2,5.5
							l-0.2-3.2c0,2.4,0,4.5,0,6.6l0.3-1.2c0.4,9.2-0.7,16.6,0,23.6c-0.2,2.4-0.2-5-0.4-2.8c0,4.2,0.5,8.6,0.5,10
							c0.2,5.8-0.5,5.4-0.4,11.5c-0.1-0.8-0.4-1.5-0.5,3c0,4.2,0.5,5.2,0.6,2.5c0-1,0-1.5-0.1-1.5c0-1.4,0.1-3.2,0.2-1.5l-0.1,0.5
							c0.1,2.1,0.1,7.9,0.3,6.6c-0.1,3.2-0.2,1.4-0.3-1c0.2,5.4,0,8.5,0.1,14.1c-0.1-0.9-0.2-1.7-0.2-0.8c0.1,8.2-0.2,3.6-0.3,9.2
							c0.2,3.2,0.4-1.1,0.3,4.5c0.1,3.4,0.3,0.7,0.4-0.6c-0.2,5.1,0.2,9.5,0.2,12.4l0.1-2.7c-0.1,1.6-0.1,2.9-0.1,4.3l-0.2-1.5
							c0,1.6,0,2.9,0.1,2.9c-0.2,1.6-0.4-1.2-0.6,2c0.1,2.1-0.1,6.4,0.2,7.1c-0.1-6.6,0.3,0.7,0.4-4.9c0,1.1,0,2.4,0,4
							c0,0.2,0.1-0.2,0.1-0.7c0.3,6.3-0.4,2.9-0.4,9.5c0.2-0.8,0.3,1.5,0.3,2.6c0-2.6-0.3-1.3-0.4,1.2c0.1,4.2-0.1,4.6-0.1,6.8
							l-0.1-2.5c-0.2,0.9-0.2,3-0.2,5.9c0.1,0.3,0.1-2.7,0.2-1.6c-0.3,3.3,0.3,7.4,0.1,11.9c0.1,2.1,0.3,0.2,0.4,2
							c-0.2,5.1,0.2,5.5,0.1,10.8c-0.2-1.5-0.2-1.8-0.4,2l0.2-8.8l-0.3,5.6c0-2.7,0.2-5.6,0.1-7.2c-0.2,2.7-0.1,2.4-0.3,1.1
							c0.4,3.6-0.2,7.2,0,11.4l0.6-0.1c0.3,6.3-0.3,11.2-0.2,19.4l-0.1-2.6c-0.2,1.1,0,5.1-0.1,7.7c0.2-0.2,0.3,1.4,0.4,2.5
							c-0.1-0.1,0,6-0.4,6.7l0.3,3.7c0.1,6.6-0.6,7.5-0.5,13.9c0.2-1.9,0.4,1,0.5-3.3c0,2.1,0,4-0.1,4.1c0.1,1.2-0.3,5.9-0.1,7.8
							c-0.1,0.9-0.3,1.2-0.3,3.6c0,0.3,0.1,0,0.1,0c-0.1,0-0.1,3.7-0.4,1.6c0.6,6.5,0,18.3,0.5,24c0,4.6-0.1,10.2-0.1,14.4
							c0.1-0.3,0.1,0,0.1-0.8c0.2,5.8-0.6,3.6-0.4,10.2c0.3,3.4,0.2-3.5,0.3-1.4c0.7,0.9-0.1,8,0.3,12.4l0-1.1
							c0.2,3.4-0.2,8.3-0.2,13.8c0,0,0.1-0.3,0.1,0c-0.3,3.8-0.4,11-0.5,16.3c0.3-1.7,0.1-2.4,0.4-1.4c0,2.4-0.4-0.7-0.5,4.1
							c0.1,1.6,0.3,5,0.5,5.5l0-4.5c0.4,2.3,0,5.8,0,8.2l0.2-0.3c-0.1,6.9-0.4,7-0.4,14.4l-0.1-0.8c-0.4,4.1,0.2,3.4-0.1,7.4
							l0.4,1.2c-0.1,2.7-0.4,9.4-0.5,14.2c0.3-2.7,0.4-8.3,0.6-11.8c0,2.7,0,9-0.2,10.4c0-1.1,0.1-2.4,0.1-3.5
							c-0.3,3.3-0.5,7.5-0.5,12.8c0.8-0.9,0.2,13.8,0.8,17.6c-0.3,9.3,0.1,18.5,0.1,29.4c-0.6-3.9,0,3.2-0.6,2.5c0,2.5,0,3.5,0,3.7
							l0.4,7.7c0.2,1.8,0.1-2.4,0.3-2.2c0,5.6,0.3,2.3,0.4,6c-0.2-0.8-0.3,1.9-0.2,5.1l-0.3-4.5c-0.3,7.8,0.5,6.7,0.2,14.5l0.2-2.5
							c-0.1,4,0,14.8-0.5,18.7c0.1,0.7,0.2,1.6,0.3-0.1c0.1,9.6-0.5,21.3-0.2,28.8l0.1-0.7c0,1.8-0.3,3.1-0.1,5.4
							c0.1-0.1,0.1-0.7,0.2,0.1c-0.1,0.9-0.3,4.8-0.2,7.1l0.2-2c0.2,9.4-0.4,14.4-0.5,22.2c0.4,0,0.6,7.3,0.7,11l0.1-0.1
							c0.1,10.9-0.4,18.5-0.5,28.6c0.5,6.3,0.2,21.2,0.5,31.3c-0.1-1.5-0.3,0.3-0.4,2c0.1,2.4-0.3,6.5,0.1,6.2l0-0.8
							c0.4,1.8,0.3,6.6,0.3,10.4l-0.5,0.6c0.8,9.9-0.3,26,0.4,31.4c-0.1,2.4-0.1,5.4-0.3,7.7l0.3-0.1c0.1,6.6,0.1,9.9,0,18.1
							l0.2-1.7c0,4.6-0.8,5.8-0.8,10.1L37,934c0,8.1,0.4,16.2,0,24.2c0.1-0.1,0.2-0.4,0.2-1.7c0,3.8,0.3,14.7-0.3,13.3
							c0.4,0.1,0,8.3-0.1,12.7l0.3-0.7c-0.4,3.7-0.5,3.8-0.6,8.9c0,1.2,0.2,1.1,0.2-0.5c0.1,4.1-0.3,3.2-0.1,8.1l0.2-1.8
							c0,4.2-0.1,3.8-0.3,6.1c-0.1,2.6,0.1,7.9,0.3,8.5c-0.2,0.6-0.4,2.8-0.3,5.3c0.1,0.3,0.2-0.6,0.2-1c0.2,7-0.3,10.4-0.1,15.2
							c0.1,0.1,0.1,0.4,0.2,0.8c0-5.5,0-10,0-9.6c0.3,0,0.3,4.5,0.7,0.9c-0.2,3.6-0.6,9.7-0.5,14.1c0,0.2,0,0.4,0.1,0.6l0-0.5
							c0,1,0,1.9,0,2.8c0,1.4,0.1,2.3,0.1,3.6c0.2,0.5,0.1,5.1,0.1,7.4c-0.3-0.2-0.2,2.7-0.5,0c0,0.4,0-0.4,0-1.9c0-0.3,0-0.7,0-1
							c0,0,0,0.1,0,0.2c0-1.5,0-3.4,0-5.5c-0.1,1.8-0.3,3.6-0.1,6.1c-0.2,1.1-0.4,2.4-0.5,3.1c0.4,3.1,0.6,8.9,0.8,9.8
							c-0.2,6.8-0.1,16-0.6,20.3c-0.1,1.9,0.2,2.2,0.2,2.9c0.1-1.1,0-2.4,0.1-3.1c-0.1,3.9-0.1,11.5-0.4,12.4c0.2,4.9,0.3-2.7,0.3,4
							l0.1-0.9c0.6,13.2-0.9,21.4-0.2,36.1c0-1-0.1-1.5-0.1-1.7c0.3,16.7-0.3,34.4,0.2,50.8c0.1,4.7-0.1,5.2-0.3,8l0.3,1l-0.3,4.9
							c-0.3,6.9,0.7,12,0.3,20.7l-0.2-1.1c0,3.1-0.1,10,0.1,9.4c0,0.3-0.2,1-0.1,2.3l0.2,0.1c0,0,0,0.5,0,1.2c0,0.4,0,0.8,0,1.2
							c-0.1,0.5-0.1,1-0.2,1.5c-0.1,1-0.5,2-0.8,2.6c-0.2,0.3-0.3,0.6-0.4,0.8c-0.1,0.2-0.2,0.3-0.2,0.3c-0.8,1.3-1.3,1.9-1.5,2.2
							c-0.2,0.3-0.1,0.3-0.1,0.4c0,0.1,0,0.3-0.6,0.8c-0.3,0.2-0.7,0.6-1.3,1c-0.6,0.4-1.5,0.8-2.6,1.1c-0.9,0.3-2,0.3-3,0.3
							c-1-0.1-2-0.1-2.9-0.2c-1.8-0.1-3-0.2-2.3-0.3c1.3,0,3.4-0.1,3.4-0.3l-3-0.1c-0.5-0.5-2.8-0.9,4.5-1.3c0,0,0.1,0,0.2,0
							c0.1,0,0.3,0,0.5,0c0.4,0,1,0,1.6-0.1c1.1-0.1,2.2-0.6,2.2-0.6c0,0,1.2-0.9,1.1-1c0,0-0.8,0.6-1.6,0.9
							c-0.9,0.4-1.8,0.6-1.8,0.6c2-0.7,3.2-1.3,4.5-2.3c0.2-0.3,0.5-0.9,1-1.6c0,0,0.2-0.2,0.4-0.5c0.2-0.3,0.5-0.8,0.8-1.3
							c0.5-1,0.7-2.2,0.7-2.2c-0.1-0.3-0.2,0.2-0.3,0.4c-0.1,0.2-0.1,0.1-0.1-1.4c0.2-2.3,0.4,2.2,0.5-1.6c-0.2-2.4-0.4-1.7-0.2-4.6
							c-0.1-0.4-0.2,0.2-0.2,1.3c0.1-2.5,0.1-6.7,0.3-8c-0.3-2.5,0.1-8.6-0.4-8.3c0.1-0.8,0.3-4.5,0.4-6.8c-0.5,4.3,0-8.7-0.6-7.6
							c0.5-3.2,0.2-11.4,0.5-17c0,0.3-0.1,0.9-0.1,1.4c0-3.1-0.2-4.1-0.3-6.1c0.4-0.4,0.5-5.3,0.7-7.9c-0.4-3.9-0.5,2.3-0.8,1.1
							c0.3,0.2,0.3-6.7,0.6-5.4c-0.2-2.9-0.1-2.5-0.4-4.1c0.5-0.5,0.1-2.7,0.4-5.2c-0.2-4.3-0.5-1.1-0.3-5.8
							C34.5,1143,34.3,1147.1,34.3,1147.1z M35.1,1035.6L35.1,1035.6c0,1,0,1.8,0,2.3C35.1,1037.4,35.1,1036.8,35.1,1035.6z
							 M35.1,1026.2c0,1.1,0,2.6,0,4.1c0.1,0.3,0.2,0,0.2-1C35.3,1029.9,35.2,1027.6,35.1,1026.2z M37.1,1046.1c0-1.5,0-2-0.1-2.2
							c0,0.7,0,1.5,0,2.6c0,0,0,0.1,0,0.2C37,1046.5,37.1,1046.4,37.1,1046.1z"/>
						<path fill="#4F4F4F" d="M36.7,1048.7c0,0.2,0,0.3,0,0.6c0-0.3,0-0.6-0.1-0.9c0-0.2,0.1-0.4,0.1-0.5
							C36.7,1048.2,36.7,1048.5,36.7,1048.7z"/>
						<path fill="#4F4F4F" d="M36.3,199.2l0,0.2c0-0.2,0-0.3,0-0.4C36.3,199.1,36.3,199.1,36.3,199.2z"/>
						<polygon fill="#4F4F4F" points="34.6,896.8 34.7,896.8 34.6,897.7 						"/>
						<path fill="#4F4F4F" d="M35.3,147.6c0-0.1-0.1-0.3-0.1-0.7C35.3,146.9,35.3,147.2,35.3,147.6z"/>
						<path fill="#4F4F4F" d="M35.3,125.3l-0.1-3.2C35.2,123.5,35.3,124.5,35.3,125.3z"/>
						<path fill="#4F4F4F" d="M35.1,108.1c0-0.2,0.1-0.3,0.1-0.3c0,0,0,0,0,0L35.1,108.1z"/>
						<path fill="#4F4F4F" d="M34.8,380.7c0,0.2,0,0.5,0,0.7C34.7,382.9,34.8,381.9,34.8,380.7z"/>
						<path fill="#4F4F4F" d="M35.5,299.6c0,0.9-0.1,1.7-0.1,2.6C35.3,300.7,35.3,299.6,35.5,299.6z"/>
						<path fill="#4F4F4F" d="M34.5,471.3C34.5,471.3,34.5,471.3,34.5,471.3c0,0.2,0,0.4,0,0.5L34.5,471.3z"/>
						<path fill="#4F4F4F" d="M35.3,306c-0.1-1.4,0-2.7,0-3.8C35.4,303.4,35.4,304.8,35.3,306z"/>
						<path fill="#4F4F4F" d="M35,33.8l0-0.8c0,0,0,0,0-0.1L35,33.8z"/>
						<path fill="#4F4F4F" d="M35,32.9l0-0.9C35.1,32.4,35.1,32.8,35,32.9z"/>
						<path fill="#4F4F4F" d="M35,30.2c0,0,0,0.4,0.1,0.9c0,0.4,0,0.9,0,0.9c0-0.3,0-0.6-0.1-1C35,30.7,35,30.4,35,30.2z"/>
						<path fill="#4F4F4F" d="M35.1,56.5L35,56.8C35.1,56.6,35.1,56.5,35.1,56.5z"/>
						<path fill="#4F4F4F" d="M35.1,63.4c0-1.6-0.2-4.1-0.2-6.4l0.1-0.2C34.9,57.9,35.3,61.9,35.1,63.4z"/>
						<path fill="#4F4F4F" d="M36.4,92.2l-0.1-5.8c0.1,1,0.3,2.3,0.3-0.3C36.9,93.4,36.3,84.6,36.4,92.2z"/>
						<path fill="#4F4F4F" d="M36.5,110.1c0.1-3.1,0.2,0,0.2-0.1C36.7,112,36.6,112.4,36.5,110.1z"/>
						<path fill="#4F4F4F" d="M36.5,239.6l0.3-0.3C36.8,241.7,36.7,239.3,36.5,239.6z"/>
						<polygon fill="#4F4F4F" points="35.2,264.4 35,262 35.3,260.9 						"/>
						<polygon fill="#4F4F4F" points="37,279 37.1,277.9 37,281.9 						"/>
						<path fill="#4F4F4F" d="M36.9,496.5l-0.3-0.7C36.7,494.1,37,493.8,36.9,496.5z"/>
						<path fill="#4F4F4F" d="M36.6,590.4c0.2,1,0.3,3.7,0.1,5.3C36.7,593.5,36.6,591.4,36.6,590.4z"/>
						<polygon fill="#4F4F4F" points="37.1,871.9 37.2,870 37.2,873.6 						"/>
					</g>
				</g>
			</g>
		</g>
	</g>
	<g>
		<polygon fill="#353535" points="10.1,21.5 16,16.9 22,12.3 22,21.5 22,30.6 16,26.1 		"/>
		<g>
			<g>
				<g>
					<g>
						<path fill="#4F4F4F" d="M10.3,21.8c0,0-0.1-0.1,0-0.1l0.2,0.1L10.3,21.8z"/>
						<path fill="#4F4F4F" d="M10.5,21.2c0.1,0,0.3,0.1,0.4,0.3c-0.2-0.1-0.1,0-0.3-0.1c-0.1,0-0.1,0.1,0,0.2c0,0-0.1,0.1-0.2,0
							C10.3,21.3,10.4,21.3,10.5,21.2C10.5,21.2,10.5,21.2,10.5,21.2z"/>
						<path fill="#4F4F4F" d="M15.8,16.8L15.8,16.8C15.8,16.8,15.8,16.8,15.8,16.8z"/>
						<path fill="#4F4F4F" d="M19.1,14.1C19.1,14.1,19.1,14.1,19.1,14.1C19.1,14.1,19.1,14.1,19.1,14.1z"/>
						<path fill="#4F4F4F" d="M19.6,13.5C19.6,13.5,19.6,13.5,19.6,13.5C19.6,13.5,19.6,13.5,19.6,13.5z"/>
						<path fill="#4F4F4F" d="M15.8,16.8l0.1-0.1C15.9,16.7,15.8,16.7,15.8,16.8z"/>
						<path fill="#4F4F4F" d="M11.5,21C11.5,21,11.4,21,11.5,21L11.5,21L11.5,21z"/>
						<path fill="#4F4F4F" d="M14.2,17.8L14.2,17.8C14.1,17.8,14.1,17.8,14.2,17.8L14.2,17.8z"/>
						<path fill="#4F4F4F" d="M13,18.7c0,0,0.1,0.1,0.2,0.1C13.1,18.8,13.1,18.7,13,18.7C13.1,18.7,13,18.7,13,18.7z"/>
						<path fill="#4F4F4F" d="M11.4,20.3L11.4,20.3C11.3,20.3,11.3,20.3,11.4,20.3z"/>
						<path fill="#4F4F4F" d="M15,17.1C15,17.1,15,17.1,15,17.1C15,17.1,15,17.1,15,17.1z"/>
						<path fill="#4F4F4F" d="M11.8,21.9L11.8,21.9C11.8,21.9,11.8,21.9,11.8,21.9z"/>
						<polygon fill="#4F4F4F" points="10,21.5 10,21.5 10,21.6 						"/>
						<path fill="#4F4F4F" d="M20.8,12.3C20.8,12.3,20.8,12.3,20.8,12.3C20.7,12.4,20.8,12.3,20.8,12.3z"/>
						<path fill="#4F4F4F" d="M22.8,23.1c-0.1-0.1-0.2,0.2-0.3,0C22.5,23.1,22.7,22.9,22.8,23.1z"/>
						<path fill="#4F4F4F" d="M11.5,20.9C11.5,20.9,11.5,20.9,11.5,20.9C11.5,20.9,11.5,20.9,11.5,20.9z"/>
						<polygon fill="#4F4F4F" points="22.5,23.1 22.5,23.1 22.5,23.1 						"/>
						<path fill="#4F4F4F" d="M22.8,13.8C22.8,13.8,22.8,13.7,22.8,13.8C22.8,13.7,22.8,13.7,22.8,13.8z"/>
						<path fill="#4F4F4F" d="M21.8,12L21.8,12C21.9,11.9,21.8,11.9,21.8,12z"/>
						<path fill="#4F4F4F" d="M22.6,15.1C22.6,15.1,22.7,15.1,22.6,15.1L22.6,15.1C22.6,15.1,22.6,15.1,22.6,15.1z"/>
						<polygon fill="#4F4F4F" points="22.6,16.3 22.6,16.3 22.6,16.3 						"/>
						<path fill="#4F4F4F" d="M14.8,24.2c0,0-0.1,0-0.1,0.1C14.8,24.2,14.6,24.1,14.8,24.2z"/>
						<path fill="#4F4F4F" d="M11.4,20.9C11.5,20.9,11.5,20.9,11.4,20.9L11.4,20.9C11.4,20.9,11.4,20.9,11.4,20.9z"/>
						<path fill="#4F4F4F" d="M21.4,15.1l0,0.2C21.4,15.3,21.4,15.2,21.4,15.1z"/>
						<path fill="#4F4F4F" d="M21.3,29.2L21.3,29.2C21.3,29.2,21.3,29.2,21.3,29.2z"/>
						<path fill="#4F4F4F" d="M21.4,15.9c0.1,0,0.1,0.1,0.1,0.1c0,0,0,0,0,0L21.4,15.9z"/>
						<path fill="#4F4F4F" d="M14.7,24.3L14.7,24.3L14.7,24.3z"/>
						<path fill="#4F4F4F" d="M13.9,23.2c0.2,0.1-0.1,0.2-0.1,0.3c0.1,0.2,0.2-0.1,0.3-0.1c0.1,0.1,0,0.3,0.1,0.4c0,0,0.1,0,0.1-0.1
							c0,0.2,0.3,0.3,0.4,0.5c0,0,0,0,0,0c-0.1,0.1-0.2,0.1-0.2,0.2c0.1,0.1,0,0.2,0.2,0.1c0,0,0-0.1,0-0.1l0,0.1
							c0.2-0.1-0.1-0.1,0-0.2c0.1,0.2,0.2,0.4,0.3,0.4c0.1-0.1-0.2-0.2,0-0.3l-0.2-0.1c0.3-0.1-0.1-0.1,0.2-0.2
							c0.2,0.1,0.2,0.3,0.4,0.4c0,0.1-0.1,0.1-0.1,0.2c0.2,0.4,0.5-0.2,0.6,0.2c0,0.1-0.1,0.4,0.1,0.4l0.1-0.2
							c0.2,0.1-0.1,0.3,0.2,0.4c0-0.1-0.1-0.2-0.1-0.2c0.2,0,0,0.2,0.1,0.3l0.1-0.1c0.2,0.2,0.4,0.5,0.6,0.7c0-0.1,0-0.1,0.1-0.1
							c0.3,0.3,0.7,0.5,1,0.6l0,0.2c0,0,0.1,0,0.1-0.1c0.2,0-0.1,0.1,0,0.2c0.1,0.1,0.1,0,0.1-0.1c0.1,0.3,0.4,0.7,0.7,0.7l0-0.1
							c0.2,0.1,0,0.4,0.2,0.4l0,0c0.4,0.2,0.7,0.6,1.1,0.7c-0.1,0.2,0.4,0.2,0.2,0.5c0.3,0,0.4,0,0.4-0.1c0,0,0,0.2,0,0.3l0-0.2
							c0,0,0,0.3,0,0.3c0,0,0-0.3,0-0.3l0,0.1c0,0,0,0.1,0,0.2c0.1,0.2,0.1-0.1,0-0.2c0,0,0.2,0.3,0.2,0.3c-0.1-0.1-0.1-0.2-0.1-0.3
							c0.2,0.4-0.2-0.3,0,0l0,0c0,0,0,0.1,0.1,0.1c0,0,0.1,0.1,0.1,0.1c-0.1-0.2-0.1-0.3-0.1-0.3L21.4,29c0-0.1,0.1,0,0.1-0.1
							c0.1,0,0.3,0.1,0.3,0.1l-0.2-0.1c0.1,0,0.1,0.1,0.2,0c0-0.1-0.2-0.1-0.3-0.1l0.1,0c-0.1,0-0.1,0-0.2,0c0.1,0.1-0.2-0.2,0-0.3
							l-0.1,0c0-0.4,0.1-0.5,0.1-0.8c0.2,0,0.1-0.1,0.2-0.2c-0.1-0.2-0.2-0.4-0.2-0.7c0.1-0.2,0.1-0.1,0.2-0.1
							c-0.1,0-0.1-0.3-0.2-0.1c0-0.3,0-0.4,0.1-0.8c0.1,0,0.1,0.1,0.1,0.1c0-0.1-0.1-0.2-0.1-0.1l0,0c0.2-0.4-0.4-1-0.1-1.3l0,0
							l0.2-0.4c0-0.2-0.1,0.1-0.2,0c0.2-0.4,0-0.6,0.1-0.9c-0.4-0.2,0-0.9-0.2-1.2l0.1,0c0.1-0.1-0.1-0.1-0.1-0.2
							c0.1,0,0.1,0.1,0.1,0c0.1-0.7-0.1-1.5-0.2-2.2c0-0.3,0.5-0.2,0.3-0.5l-0.2,0.1c0.2-0.5,0-1.1,0.2-1.7c0,0-0.1,0-0.1,0.1
							c-0.1-0.1,0-0.4,0.1-0.4c0-0.1-0.1,0-0.2-0.1c-0.1-0.1,0.2-0.3,0-0.3c0,0,0,0-0.1,0.1c0.1-0.1,0-0.3,0.1-0.3
							c-0.1-0.2,0.1-0.4,0-0.5c0.2-0.1-0.1-0.3,0.2-0.4c-0.3,0-0.2-0.4-0.1-0.5c-0.1,0-0.1-0.1-0.2-0.1c0-0.1,0.1-0.3,0.2-0.3
							c-0.3-0.3,0.2-0.5-0.1-0.7c0-0.1,0.1-0.1,0.1-0.2c0,0,0.1-0.1,0.1-0.1c0-0.1,0.1-0.2,0.1-0.4c-0.3,0.3,0,0.2-0.3,0.4
							c0.1-0.1,0.3-0.5,0.3-0.6c0,0-0.1,0.2-0.2,0.3c0-0.1,0-0.1,0-0.2c-0.1,0-0.1,0.1-0.2,0c0,0,0,0.1,0,0.1c0,0,0,0.1,0-0.1l0,0
							c0.1-0.3,0-0.4-0.1-0.5c0,0.4-0.2,0.2-0.1,0.7c0,0,0-0.1,0-0.2c0,0,0,0.1,0,0.2c-0.1,0-0.1-0.2-0.2-0.1c0,0,0.1,0.1,0.1,0.1
							c-0.1-0.1-0.2-0.1-0.3,0c0,0,0,0.1,0.1,0c-0.3,0.2-0.6,0.1-0.8,0.4c0.2,0.1,0,0.1,0.1,0.3L20,14.6l0-0.1
							c-0.1,0.1-0.3,0.1-0.4,0.2l0.1,0l-0.3,0.1l0.1-0.2c-0.2,0-0.1-0.2-0.3,0c0,0-0.1,0.1-0.1,0.2l0,0c-0.1,0-0.2,0-0.3,0.1
							c0,0.1,0.2,0.2,0.2,0.2c-0.2-0.1-0.3,0.2-0.5,0.1c0.1,0,0.1,0.1,0.1,0.1l-0.1-0.1c0,0.1,0,0.1,0,0.2c-0.2,0.2-0.1-0.3-0.2,0
							c0,0,0,0,0.1,0c-0.2,0.2-0.5,0.2-0.6,0.4c0.1,0.2,0.2-0.1,0.2,0.1c-0.3,0.2-0.7,0.2-1,0.5l0-0.1c-0.2-0.2-0.1,0.3-0.3,0.3
							c0,0,0.1,0.1,0.1,0.1c-0.2,0.2-0.4,0.2-0.7,0.4l0.1,0c-0.1,0.1-0.3,0.2-0.4,0.4c-0.1,0-0.1,0-0.2-0.1
							c-0.1,0.6-0.8,0.3-0.9,0.9c0,0,0.1,0,0.1,0l-0.3,0.1c-0.1-0.1,0-0.1,0-0.2c-0.1,0-0.2,0-0.3,0c0.2,0,0.1,0.2,0.1,0.3
							c0,0-0.1-0.1-0.1-0.1c0,0.3-0.2-0.2-0.3,0.1l0.1,0c-0.1,0-0.2,0-0.3,0.1c0.1,0.1,0.1,0,0.2,0.1c-0.1,0.1-0.4-0.1-0.4,0.1
							c0.1,0,0.1-0.1,0.2-0.1c0,0.2,0,0.2-0.1,0.3l0,0l-0.1,0.2l0-0.1c-0.4-0.2-0.3,0.2-0.7,0.1c0.3,0.1,0.1,0.1,0.2,0.2
							c0,0.1-0.1,0.2,0,0.2c-0.2,0-0.1,0.2-0.3,0.1c0,0-0.1,0.1,0,0.2c-0.1,0.1,0-0.1-0.1-0.1c-0.3,0-0.3,0.5-0.7,0.5
							c-0.3,0.1-0.4,0-0.7,0c0,0.1,0.2,0.1,0.2,0.1c-0.1,0.1-0.2,0.2-0.3,0.2c0,0,0.1,0.1,0.1,0.1c-0.1,0.1-0.2-0.1-0.2,0
							c0.1,0,0.1,0.1,0.2,0.1c-0.1,0-0.3,0-0.4,0.1c0,0.1,0.1,0.1,0.2,0.1c-0.1,0.1-0.3,0.2-0.5,0.1l0-0.1c0,0,0.1,0.1,0.1,0.1
							c0.2,0,0.1-0.1,0.1-0.2l-0.1,0c-0.1-0.3,0.3-0.2,0.5-0.3l-0.2-0.1l0.3,0c0-0.1-0.1-0.2-0.2-0.2c0-0.2,0.1,0,0.2-0.2
							c0,0,0,0,0,0l0.1,0c0,0-0.1-0.1-0.1-0.1c0.1-0.2,0.4-0.1,0.4-0.3l0,0c0.3-0.1,0.1,0.1,0.4,0.1L12,19.6l0.1,0.1
							c0,0,0.1-0.1,0-0.1c0.2,0,0,0.1,0.2,0.1c0-0.2,0.4-0.2,0.3-0.4c0.1,0.1-0.1,0.2,0.1,0.1c-0.1-0.3,0.2-0.1,0.2-0.3
							c-0.1-0.1-0.2,0.1-0.2-0.1c0.2,0.2,0.2-0.2,0.3-0.2c0.1,0.2,0.3-0.1,0.5-0.2c-0.1,0,0.2-0.3,0.3-0.5l0,0
							c0.2,0.1,0.3,0,0.4-0.1c-0.1-0.1-0.1-0.1-0.2-0.1l0.1-0.1c0.1,0,0.1,0,0.2,0l-0.1-0.1c0.1-0.1,0.4-0.1,0.5-0.3
							c0.1,0.1,0.1,0.4,0.3,0.4c0-0.1-0.1-0.2-0.2-0.2c0,0,0.1,0,0.1,0l-0.2,0c0-0.1,0.1,0.1,0.2,0c-0.1-0.1,0-0.1-0.1-0.2
							c0,0,0,0.1-0.1,0.1c0.1-0.1,0.1-0.2,0.1-0.3c0,0.1,0.1,0.1,0.2,0.1c0.1-0.1,0-0.1,0-0.3c0.1,0,0.1-0.1,0.2,0c0,0,0-0.1,0-0.1
							c0.1,0,0.4-0.2,0.4,0l0,0l0,0l0,0l0,0c0.3-0.1,0.4-0.5,0.7-0.6l0,0c0.2-0.1,0.3-0.2,0.5-0.2c0,0,0-0.2,0-0.2
							c0.1,0,0.2,0,0.3-0.2c-0.2,0,0-0.1-0.2,0c0.1-0.1,0.1-0.2,0.3-0.2c-0.1-0.1,0-0.2,0.1-0.2l0,0.2c0.1,0,0.1-0.1,0.2-0.2
							l-0.1-0.1c0.2-0.4,0.8-0.1,0.7-0.6c0.2,0-0.1,0.2,0.1,0.3c0.1-0.1,0.1-0.4,0.1-0.5c0.1-0.2,0.3,0.1,0.5-0.1
							c0,0.1,0.1,0.2,0.3,0.2c0.1-0.1,0-0.3-0.1-0.3c0,0,0,0,0,0.1c-0.1,0-0.1,0-0.1-0.1l0.1,0c0-0.1,0.2-0.2,0.1-0.3
							c0.1,0,0.1,0.1,0.1,0.1c0.1-0.2,0.3-0.2,0.4-0.4c0,0.1,0,0.1,0,0.1c0.2-0.3,0.2,0,0.4-0.1c0-0.2-0.2-0.2,0-0.2
							c0.1-0.1-0.1-0.2-0.2-0.2c0.2,0,0.2-0.3,0.3-0.4l-0.1,0c0.1,0,0.1,0,0.2-0.1c0,0,0,0.2,0,0.2c0,0,0.1-0.1,0.1-0.2
							c0.1,0,0.1,0.2,0.3,0.2c0.1-0.1,0.3-0.1,0.3-0.4c-0.3,0.3,0-0.2-0.3,0c0.1,0,0.1-0.1,0.2-0.2c0,0,0,0,0,0
							c0.3-0.5,0.2,0.1,0.5-0.2c0-0.1,0.1-0.3,0.2-0.3c-0.2,0.1-0.1,0.3,0,0.3c0.2-0.3,0.2-0.1,0.3-0.2l-0.1,0.1c0,0.1,0.1,0,0.2,0
							c0.1-0.1-0.1,0,0-0.1c0,0.2,0.4-0.6,0.6-0.5c0.2-0.2,0.2-0.4,0.3-0.5c0,0,0,0,0,0c-0.1,0.4,0.2,0.1,0.1,0.6
							c-0.1,0.1-0.1,0.1-0.2,0.5l0.1-0.7L22.5,12c0-0.1,0.1-0.5,0.1-0.5c-0.1,0.4-0.1,0.3-0.2,0.4c0.2-0.2-0.1,0.6,0,0.5l0.3-0.5
							c0.1,0.1,0,0.4,0,0.6c-0.1,0.3-0.1,0.5-0.1,0.7l-0.1-0.1c-0.1,0.1,0,0.3-0.1,0.5c0.1-0.1,0.2,0,0.2,0.1c-0.1,0,0,0.4-0.2,0.4
							l0.1,0.1c0.1,0.3-0.3,0.3-0.3,0.5c0.1-0.1,0.2,0,0.3-0.1c0,0.1,0,0.2-0.1,0.2c0.1,0-0.1,0.2,0,0.3c0,0-0.2,0-0.2,0.1
							c0,0,0.1,0,0.1,0c-0.1,0-0.1,0.1-0.2,0.1c0.3,0.3,0,0.7,0.3,0.9c0,0.2-0.1,0.4-0.1,0.6c0,0,0.1,0,0,0c0.1,0.2-0.3,0.1-0.2,0.4
							c0.2,0.1,0.1-0.1,0.2-0.1c0.4,0,0,0.3,0.2,0.5l0,0c0.1,0.1-0.1,0.3-0.1,0.5c0,0,0,0,0.1,0c-0.2,0.1-0.2,0.4-0.3,0.6
							c0.1-0.1,0.1-0.1,0.2-0.1c0,0.1-0.2,0-0.3,0.2c0.1,0.1,0.1,0.2,0.3,0.2l0-0.2c0.2,0.1,0,0.2,0,0.3l0.1,0
							c0,0.3-0.2,0.3-0.2,0.6l-0.1,0c-0.2,0.2,0.1,0.1,0,0.3l0.2,0c-0.1,0.1-0.2,0.4-0.3,0.6c0.2-0.1,0.2-0.3,0.3-0.5
							c0,0.1,0,0.4-0.1,0.4c0,0,0.1-0.1,0-0.1c-0.2,0.1-0.3,0.3-0.3,0.5c0.4,0,0.1,0.5,0.4,0.7c-0.2,0.4,0.1,0.7,0,1.2
							c-0.3-0.2,0,0.1-0.4,0.1c0,0.1,0,0.1,0,0.1l0.2,0.3c0.1,0.1,0.1-0.1,0.2-0.1c0,0.2,0.1,0.1,0.2,0.2c-0.1,0-0.2,0.1-0.1,0.2
							l-0.2-0.2c-0.2,0.3,0.3,0.3,0.1,0.6l0.1-0.1c-0.1,0.2,0,0.6-0.3,0.7c0,0,0.1,0.1,0.2,0c0,0.4-0.3,0.8-0.1,1.1l0.1,0
							c0,0.1-0.2,0.1-0.1,0.2c0,0,0.1,0,0.1,0c0,0-0.1,0.2-0.1,0.3l0.1-0.1c0.1,0.4-0.2,0.6-0.3,0.9c0.2,0,0.3,0.3,0.4,0.4l0,0
							c0,0.4-0.2,0.7-0.3,1.1c0.1,0.1,0.2,0.5,0.2,0.9c0,0.4,0,0.8,0.1,1.3c0-0.2-0.2-0.2-0.2-0.2c0,0.2-0.2,0.1,0.1,0.5l0-0.1
							c0.2,0.4,0.2,0.7,0.2,0.9l-0.1-0.1l-0.3-0.6c0,0.2-0.5-0.1-0.8-0.4c-0.3-0.3-0.6-0.6-0.7-0.4c-0.1-0.2-0.3-0.3-0.4-0.5
							l-0.1,0.2c-0.4-0.3-0.4-0.3-0.7-0.5l0,0.1c-0.2-0.1,0.1-0.5,0-0.6l-0.2,0.2c-0.3-0.2-0.6-0.2-0.8-0.6c0,0-0.1,0.1,0,0.1
							c-0.1-0.1-0.6-0.2-0.3-0.4c-0.1,0.2-0.3-0.2-0.4-0.4l-0.1,0.1c0-0.2,0-0.3-0.1-0.5c-0.1,0-0.1,0.1,0,0.1c-0.2,0,0-0.2-0.2-0.2
							l0,0.1c-0.1-0.1-0.1-0.1-0.1-0.3c0-0.1-0.3-0.2-0.4-0.1c0-0.1,0-0.2-0.1-0.3c0,0,0,0.1,0,0.1C16.9,27.3,17,27,16.7,27
							c0,0-0.1,0.1-0.1,0.1c0.2,0.1,0.3,0.2,0.3,0.2c-0.1,0.1-0.2,0-0.3,0.3c0-0.2-0.1-0.5-0.3-0.6c0,0,0,0,0,0l0,0
							c0,0-0.1,0-0.1-0.1c-0.1,0-0.1,0-0.1-0.1c-0.1,0.1-0.2-0.1-0.3-0.1c0.1-0.1,0-0.2,0.2-0.2c0,0,0,0,0,0.1c0,0,0,0,0,0l0,0
							c0,0,0.1,0.1,0.2,0.1c0-0.1,0-0.2-0.2-0.2c0-0.1,0-0.2,0.1-0.3c-0.2,0.1-0.5,0.1-0.6,0.1c-0.2-0.2-0.5-0.4-0.4-0.8
							c0-0.1-0.1,0-0.2,0c0,0.1,0.1,0.1,0.1,0.1c-0.1-0.2-0.3-0.3-0.2-0.5c-0.2,0,0,0.2-0.2,0l0,0.1c-0.6-0.1-0.4-0.9-1.1-0.9
							c0,0,0.1,0,0.1,0c-0.6-0.2-1-1-1.7-1.1c-0.2-0.1-0.1-0.2-0.1-0.3l-0.1,0.1l0-0.3c-0.1-0.3-0.6,0-0.7-0.4l0.1-0.1
							c-0.1-0.1-0.3-0.3-0.3-0.2c0,0,0-0.1,0-0.1l-0.1,0.1L10.4,22c-0.2-0.1-0.2,0.3-0.5,0.1c-0.1-0.1-0.1-0.4-0.1-0.4
							c0,0,0.1,0,0.2,0L10,21.5c0.1-0.2,0.2-0.5,0.6-0.5l0.1,0.2l0.1-0.1l-0.1-0.1c0.1,0,0.1,0.1,0.1,0.2c0.1,0,0.1-0.1,0.2-0.1
							l0,0.3c0.1-0.1,0.1-0.2,0.2-0.2c0,0.1-0.2,0.1-0.1,0.3c0.1,0,0.2-0.1,0.2,0c0.1,0,0.1-0.1,0-0.1c0,0.1,0.2,0.2,0.1,0.3
							c0.2-0.1,0.2,0.2,0.4,0c0,0.1,0,0.3,0.1,0.3c0-0.3,0.3,0.2,0.4-0.1c-0.1,0.3,0.3,0.4,0.4,0.6c0,0,0-0.1,0-0.1
							c0.1,0.1,0.2,0,0.3,0c-0.1,0.2,0,0.3,0,0.5c0.2-0.1,0.1-0.3,0.2-0.4c-0.1,0.1,0.1,0.3,0,0.4c0.2,0,0.1,0,0.3-0.1
							c-0.1,0.2,0.1,0.1,0,0.3c0.2,0,0.2-0.2,0.3,0C13.9,23.4,13.9,23.2,13.9,23.2z M17.1,26.3L17.1,26.3
							C17.1,26.2,17,26.2,17.1,26.3C17,26.2,17,26.2,17.1,26.3z M17.4,26.5c0,0-0.1-0.1-0.1-0.1c0,0-0.1,0.1,0,0.1
							C17.2,26.5,17.3,26.5,17.4,26.5z M16.1,26.9C16.1,26.9,16.2,26.9,16.1,26.9C16.2,26.9,16.1,26.9,16.1,26.9L16.1,26.9
							C16.1,26.8,16.1,26.9,16.1,26.9z"/>
						<path fill="#4F4F4F" d="M16.1,26.6C16.1,26.6,16.1,26.6,16.1,26.6C16.1,26.6,16.2,26.6,16.1,26.6L16.1,26.6L16.1,26.6z"/>
						<path fill="#4F4F4F" d="M15.8,16.8L15.8,16.8C15.8,16.8,15.8,16.8,15.8,16.8C15.8,16.8,15.8,16.8,15.8,16.8z"/>
						<polygon fill="#4F4F4F" points="21.2,29 21.2,29.1 21.2,29 						"/>
						<path fill="#4F4F4F" d="M14.5,18.5C14.5,18.5,14.5,18.5,14.5,18.5C14.5,18.5,14.5,18.5,14.5,18.5z"/>
						<path fill="#4F4F4F" d="M13.8,19l-0.1,0.1C13.8,19.1,13.8,19.1,13.8,19z"/>
						<path fill="#4F4F4F" d="M13.3,19.5C13.3,19.5,13.3,19.5,13.3,19.5L13.3,19.5L13.3,19.5z"/>
						<path fill="#4F4F4F" d="M21.4,13.6L21.4,13.6C21.4,13.7,21.4,13.7,21.4,13.6z"/>
						<path fill="#4F4F4F" d="M19.2,14.8c0,0,0.1,0,0.1,0C19.3,14.9,19.3,14.9,19.2,14.8z"/>
						<polygon fill="#4F4F4F" points="21.4,15.1 21.4,15.1 21.4,15.1 						"/>
						<path fill="#4F4F4F" d="M19.4,14.7c0,0.1-0.1,0.1-0.1,0.1C19.4,14.8,19.4,14.7,19.4,14.7z"/>
						<path fill="#4F4F4F" d="M11,21.3L11,21.3C11,21.4,11,21.4,11,21.3L11,21.3z"/>
						<path fill="#4F4F4F" d="M11,21.4L11,21.4C10.9,21.3,11,21.3,11,21.4z"/>
						<path fill="#4F4F4F" d="M10.8,21.4L10.8,21.4C10.9,21.4,10.9,21.4,10.8,21.4z"/>
						<path fill="#4F4F4F" d="M11.7,20.7L11.7,20.7C11.7,20.8,11.7,20.8,11.7,20.7z"/>
						<path fill="#4F4F4F" d="M11.9,20.6c0,0-0.1,0.2-0.1,0.2l0,0C11.8,20.8,11.8,20.6,11.9,20.6z"/>
						<path fill="#4F4F4F" d="M12.4,19.3l-0.2,0.2c0-0.1,0-0.2-0.1-0.1C12.2,19.1,12.2,19.5,12.4,19.3z"/>
						<path fill="#4F4F4F" d="M12.9,18.9C12.8,18.9,12.8,18.8,12.9,18.9C12.9,18.8,12.9,18.8,12.9,18.9z"/>
						<path fill="#4F4F4F" d="M17,15.8l-0.1-0.1C17,15.6,16.9,15.7,17,15.8z"/>
						<polygon fill="#4F4F4F" points="18.2,15.8 18.2,15.9 18.1,15.8 						"/>
						<polygon fill="#4F4F4F" points="18,14.6 18,14.6 18.1,14.6 						"/>
						<path fill="#4F4F4F" d="M22.8,16.1l-0.2,0C22.6,16,22.8,16,22.8,16.1z"/>
						<path fill="#4F4F4F" d="M22.6,19.8c0.1,0,0.1,0.1,0.1,0.2C22.6,19.9,22.6,19.9,22.6,19.8z"/>
						<polygon fill="#4F4F4F" points="22.5,31.8 22.7,32 22.4,31.7 						"/>
					</g>
				</g>
			</g>
		</g>
	</g>
</g>
</svg>
