<?xml version="1.0" encoding="utf-8"?>
<!-- Generator: Adobe Illustrator 18.1.1, SVG Export Plug-In . SVG Version: 6.00 Build 0)  -->
<svg version="1.1" id="Layer_1" xmlns="http://www.w3.org/2000/svg" xmlns:xlink="http://www.w3.org/1999/xlink" x="0px" y="0px"
	 width="657.8px" height="217.2px" viewBox="0 0 657.8 217.2" enable-background="new 0 0 657.8 217.2" xml:space="preserve">
<g>
	<path fill="#F7F6F5" d="M135.7,43.7H11.5c-0.3,0-0.6-0.3-0.6-0.6V11.3c0-0.3,0.3-0.6,0.6-0.6h124.1c0.3,0,0.6,0.3,0.6,0.6v31.8
		C136.2,43.4,136,43.7,135.7,43.7z"/>
	<g>
		<g>
			<g>
				<g>
					<path fill="#4F4F4F" d="M135.7,43.6C135.6,43.6,135.6,43.6,135.7,43.6c0,0,0.1,0.1,0.3-0.1c0,0,0.1-0.2,0.1-0.2
						c0,0,0,0.1-0.2,0.2C135.8,43.6,135.7,43.6,135.7,43.6z"/>
					<path fill="#4F4F4F" d="M136.2,40.9c0-0.5-0.1-1.2-0.1-0.8c0.1,0.5,0,0.7,0.1,1.2c0,0.5,0,0.8,0,0.7c0,0.2,0,0.7,0,1
						C136.2,42.4,136.2,41.7,136.2,40.9C136.2,40.7,136.2,40.9,136.2,40.9z"/>
					<path fill="#4F4F4F" d="M121.5,10.6l0.3,0C121.7,10.6,121.6,10.6,121.5,10.6z"/>
					<path fill="#4F4F4F" d="M93.8,10.6c0.2,0,0.3,0,0.3,0C93.9,10.6,93.7,10.6,93.8,10.6z"/>
					<path fill="#4F4F4F" d="M89,10.5c0.1,0,0.2,0,0.3,0C89.2,10.5,89.1,10.5,89,10.5z"/>
					<path fill="#4F4F4F" d="M121.5,10.6l-0.7,0C120.7,10.6,121.1,10.6,121.5,10.6z"/>
					<path fill="#4F4F4F" d="M136.1,34.8c0,0.2,0,0.3,0,0.4L136.1,34.8L136.1,34.8z"/>
					<polygon fill="#4F4F4F" points="133.7,10.5 133.9,10.5 134.1,10.5 					"/>
					<path fill="#4F4F4F" d="M136.4,17.8c0-0.2-0.1-0.3-0.1-0.4C136.3,17.5,136.4,17.7,136.4,17.8C136.4,17.9,136.4,17.9,136.4,17.8
						z"/>
					<path fill="#4F4F4F" d="M136.3,32.7l0,0.3C136.3,32.9,136.3,32.7,136.3,32.7z"/>
					<path fill="#4F4F4F" d="M127,10.5C127,10.5,126.9,10.5,127,10.5C126.9,10.5,126.9,10.5,127,10.5z"/>
					<path fill="#4F4F4F" d="M124.8,43.4C124.8,43.4,124.8,43.4,124.8,43.4C124.8,43.4,124.9,43.4,124.8,43.4z"/>
					<path fill="#4F4F4F" d="M135.7,43.7l-0.2,0c0,0,0,0,0,0L135.7,43.7z"/>
					<path fill="#4F4F4F" d="M80.4,10.4C80.4,10.4,80.4,10.4,80.4,10.4C80.6,10.4,80.5,10.4,80.4,10.4z"/>
					<path fill="#4F4F4F" d="M10.7,21.1c0-0.9,0.1,1.5,0.1,0.1C10.8,21.3,10.7,19.9,10.7,21.1z"/>
					<path fill="#4F4F4F" d="M136.1,34.5l0-0.4C136.1,34.3,136.1,34.4,136.1,34.5z"/>
					<path fill="#4F4F4F" d="M10.8,21.2L10.8,21.2l0-0.1C10.8,21.1,10.8,21.1,10.8,21.2z"/>
					<path fill="#4F4F4F" d="M60.4,10.5c0,0,0.1,0,0.2,0C60.6,10.5,60.5,10.5,60.4,10.5z"/>
					<path fill="#4F4F4F" d="M75.3,10.5l-0.4,0C75,10.5,75.2,10.5,75.3,10.5z"/>
					<path fill="#4F4F4F" d="M52.7,10.5c-0.2,0-0.3,0-0.5,0c0,0,0.1,0,0.1,0C52.3,10.5,52.4,10.5,52.7,10.5z"/>
					<path fill="#4F4F4F" d="M44.6,10.5c0,0,0.1,0,0.1,0c0.1,0,0.2,0,0.3,0L44.6,10.5z"/>
					<path fill="#4F4F4F" d="M100.4,43.5c0.2,0,0.3,0,0.4,0C100.6,43.5,101.8,43.5,100.4,43.5z"/>
					<path fill="#4F4F4F" d="M136.1,34.8c0,0,0-0.1,0-0.2C136.1,34.6,136.1,34.7,136.1,34.8C136.1,34.8,136.1,34.8,136.1,34.8z"/>
					<path fill="#4F4F4F" d="M52.3,11l-1.3,0C51.4,11,51.9,11,52.3,11z"/>
					<path fill="#4F4F4F" d="M42.7,43.5l0.3,0C42.9,43.5,42.8,43.5,42.7,43.5z"/>
					<path fill="#4F4F4F" d="M47.3,11c-0.2,0-0.5,0-0.7,0c-0.1,0-0.1,0-0.1,0L47.3,11z"/>
					<path fill="#4F4F4F" d="M100.7,43.5L100.7,43.5L100.7,43.5z"/>
					<path fill="#4F4F4F" d="M109.1,43.4c-1.2,0-0.6,0.1-0.8,0.1c-1.5,0-0.7-0.1-1.2-0.1c-0.9,0-1.6,0.1-2.3,0.1c-0.1,0-0.2,0,0,0
						c-1,0.1-2.8,0-4,0.1c-0.1,0-0.1,0-0.1,0c0.2,0,0.2,0.1,0.2,0.1c-0.5,0-1,0-1.2,0c0.3,0,0.4,0,0.5,0l-0.6,0
						c-0.5-0.1,0.8,0,0.8-0.1c-1.1,0-2.4,0.1-3.3,0.1c-0.2-0.1,2,0,0.9-0.1l1.3,0c-1-0.1,0.8,0-0.1-0.1c-1.7,0-1.9,0-3.7,0
						c-0.4,0,0.1,0.1-0.3,0.1c-2.5,0.1-1.9-0.2-3.8-0.1c-0.5,0-0.7,0.1-1.9,0.1l0.4-0.1c-1.7,0-1,0.1-2.7,0.1c0.3,0,1.3,0,1.1,0
						c-1.1-0.1-0.8,0-1.7,0l-0.2-0.1c-1.8,0-3.8,0-5.8,0.1c0.1,0,0.5,0,0-0.1c-2.5,0-5.3,0-7.8,0L72,43.5c-0.2,0-0.4,0-0.2,0
						c-0.9,0,0,0-0.5,0.1c-0.5,0-0.7,0-0.4,0c-1.7,0-4.7,0.1-6.5,0l0.3,0c-1.4,0-1.5,0.1-2.8,0.1l0.2,0c-3,0-6.2,0-8.5-0.1
						c-0.4,0.1-2.9,0-3.1,0.1c-1.7-0.1-1.2-0.1-3.6-0.1c-0.6,0-0.9,0.1-1.7,0.1l0-0.1l-1.1,0.1l-0.6-0.1l-0.7,0c0.3,0,0.6,0,0.6,0
						c-0.6,0-1.3,0-1.8,0s-1,0-1-0.1L38,43.5c0.1,0,0.5,0,0.9,0c-1.5,0.1-0.3-0.1-1.6,0c0.2,0-0.1,0-0.1,0c-0.7,0-2.2,0-3.3,0l0.2,0
						c-2,0-4.3,0-6.5,0c0.8,0,0.6,0.1,0,0.1l-0.3-0.1c-0.4,0,0.7,0-0.2,0.1c-0.8,0-0.6-0.1-0.1-0.1l-1,0c-0.1,0,0.2,0,0.2-0.1
						c-0.4,0-1.8-0.1-2.4,0l-0.1,0c-2.3,0-3.3,0-5.1,0c0,0.1-0.8,0-1.3,0.1c-1.4,0-2.9-0.1-4.5-0.1c-1.1,0-0.3,0-0.9,0.1
						c0,0-0.5,0-0.7-0.1c-0.2-0.1-0.2-0.3,0-0.1c-0.1-0.1-0.1-0.2-0.1-0.4c0-0.2,0-0.4,0-0.6c0-0.4,0-0.7,0-1c0-0.7,0-1.4,0-2.7
						c0,0.3,0,0.6,0,0.4c0-0.5,0-1,0-1l0,0.1c-0.1-2.8,0.1-6.4,0-8.6l0,0.1l-0.1-2.3c0-1.1,0,0.6,0.1-0.1c-0.1-2.5,0-3.9,0-6
						c0.1-1.6,0-5.6,0.1-7.7l0,0.1c0-0.6,0-0.7,0-1.1c0,0.1,0,0.6,0,0.3l0-0.9l0-0.4l0-0.2c0-0.1,0-0.1,0-0.1c0-0.1,0.1-0.2,0.2-0.2
						c0.1,0,0.2,0,0.3,0l0.9,0c1.2,0,2.4,0,3.6,0c2.4,0,4.9,0,7.3,0.1c1.8,0,1-0.2,3.2-0.1L26.1,11c3.5-0.1,7.2,0,10.7-0.1
						c-0.2,0-0.2,0-0.5,0c0.4,0,1,0,1.6,0c0.3,0,0.6,0,0.8,0c0.2,0,0.3,0,0.3,0c0.5,0,0.1,0,0.5,0.1c0.7,0,1.8-0.1,2.2,0
						c0.1,0-0.2,0-0.3,0c0.5,0,2.2,0,1.8,0c1.3,0,2.5,0,3.5,0c0.7-0.1,2.2,0,2.4-0.1c-0.1,0.1,2.3,0.1,3.1,0c-0.3,0,0.7,0,0.4,0.1
						c0.9,0,1.8,0,1.6-0.1c1.7,0.1,3.5-0.1,4.4,0c2.8,0,5.4-0.1,7.9-0.1c-0.1,0.1-2.8,0-2.7,0.1c2.4,0,3.7-0.1,6.1-0.1
						c0.6,0-0.3,0-0.6,0.1c2.4,0,4.6,0,6.7,0c0,0-0.2,0-0.4,0c0.4,0,1,0,0.9,0l-0.4,0c-0.7-0.1,1.7-0.1,1.7-0.2
						c-0.7,0.1,2.1,0,1,0.2c0.3,0,0.6,0,0.6-0.1c0.4,0,0.5,0,0.1,0.1c1.5,0,1-0.1,2.3-0.1c0,0-0.3,0-0.4,0c0.7,0,1.4-0.1,2.5-0.1
						c-0.1,0,0.1,0-0.3,0c2,0,3.3-0.1,5.5-0.1c-0.6,0.1,0.7,0,0.8,0.1l1.2,0l-0.5,0c1,0,1.9-0.1,2.8,0l-0.8,0l1.9,0l-1.1,0
						c1,0-0.1-0.1,1.2-0.1c-0.3,0,1,0,1.5,0l0,0c0.5,0,1,0,1.8,0c0.2,0-0.2,0.1,0,0.1c0.5-0.1,2.4,0,3-0.1c-0.2,0-0.2,0.1-0.2,0.1
						l0.4,0c0.5,0,0.5,0,0.5,0.1c1.4,0-0.4-0.1,1.2-0.1c-0.1,0-0.1,0-0.3,0c1.7,0,3.2,0,4.8,0c0.5,0.1-1.4,0-0.8,0.1
						c2.2,0,4.6-0.1,6.8-0.1l-0.4,0c0.3-0.1,1.6,0.1,2.7,0c-0.3,0-0.4,0.1-0.3,0c1.5,0,3,0,5.3-0.1l-0.3,0c0.9,0,2.3,0,3.2,0
						c0.3,0,0.8,0,0.5-0.1c2.9,0.2,5.5-0.1,8.1,0c-0.3,0-0.7,0-0.5,0l2.2,0c-0.2,0-0.3,0-0.7-0.1c0.3,0,0.9,0,1.4,0
						c-1,0,0,0.1,0.4,0.1c-0.1,0,0.1,0,0,0c0.6,0,0.6,0,0.7,0c0,0,0.1,0,0.2,0.1c0.1,0.1,0.3,0.3,0.2,0.7l0-0.1c0,0.6,0,1.1,0,1.8
						c-0.1,0.3,0-0.6-0.1-0.7c0,0.9,0.1,1.7,0,2.6c0-0.4,0-0.9,0-1.3c-0.1,0.9,0,1-0.1,1.6l0-0.1l0,1.5l0-0.4c0.1,1.1,0,2.3,0.1,3.8
						c-0.1-1.5,0-0.2-0.1-0.4c0,0.4,0,1-0.1,0.8c0,0.7,0,1.2,0,2.2c0,0,0,0.8,0,0.6c0,0.9,0-0.2,0.1-0.1c0.1,1.4-0.1,3.3,0,5.4
						c0.1,1.7,0.1,2.1,0.1,3.7c0,0.5-0.1-0.5-0.1-0.5c0,0.9,0,1.6,0,2.4c0-0.2,0,0-0.1,0.3c0,0.7,0.1,0.4,0,1.3
						c0-0.2-0.1-0.3-0.1-0.7c0,0.8,0,1.6,0.1,2.4c0,0.2,0-0.5-0.1-0.8c0,0.9,0,2.4,0.1,2.7l0-0.6c0,0.3,0,0.2-0.1-0.1
						c0-0.8,0-1.1,0-1.2l0,0.6c0.1-0.6,0-2.3,0-3.5l0.1,0.5l-0.1-1.2c0-0.3,0.1-0.4,0.1,0.1c0-0.8,0-0.7,0-1.5c0-0.1,0,0,0,0l0-0.8
						c0,0.2,0.1-0.1,0,0.4c0-1.5-0.1-2.4,0-2.9l0,0.1c0-2-0.1-0.2-0.1-1.7l0.1-1l-0.1-0.2c0-0.2,0-0.6,0-0.6c0-0.8,0,0.1-0.1-0.3
						c0.1-1,0-2.8,0.1-3c0-0.4,0,1-0.1-0.1c0.1-0.3,0-1.3,0-2.2c0.1,0.3,0,1.2,0.1,0.2c-0.1-0.6,0-1.8,0-2.6c-0.1,0,0-1.7-0.1-3
						c0,0.1,0-2.5,0.1-3.7l0,0c0-0.1-0.1-0.2-0.2-0.4c-0.1-0.1-0.4-0.3-0.6-0.2c-0.5,0-1,0-1.5,0c0,0,0.2-0.1,0.7-0.1l-0.9,0
						c-0.2,0-0.5,0-1,0l0.2-0.1c-1.1,0-2.3,0.1-3.8,0c-0.1,0,1.2,0.1-0.4,0.2c-0.1,0-0.1-0.1,0.3-0.1c-0.1,0-0.5,0-0.7,0l0.6,0
						c-0.7,0-0.4,0-0.9,0c0,0-0.4,0-0.3-0.1c0.1,0,0.5,0,0.7,0c-0.6,0-1.3,0-1.6-0.1c0.1,0,0,0.1-0.4,0.1c-1.1,0-0.4,0-1.1-0.1
						c-0.3,0-1,0-1,0.1c-0.3,0-0.4,0-0.5,0c-0.6,0-2.8,0-2.1,0.1l0.2,0c0,0-0.1,0-0.1,0h0h0c-1.9,0.1-4,0-6,0l0,0
						c-1.2,0-2.6,0-3.4,0.1c-0.3,0-0.8,0-0.7-0.1c-0.9,0-1,0-2.3,0c0.9,0-0.3,0,0.9,0c-1.1,0-1.4,0-2.6,0c0.4,0-0.9-0.1-1.4,0l0.8,0
						c-0.6,0-1.1,0-1.7,0l0.3-0.1c-2.3-0.1-4.2,0.1-6,0c-0.6,0,1.3,0,0.7,0.1c-1.1,0-2.2-0.1-2.5-0.1c-1.5,0-1.4,0.1-2.9,0.1
						c0.2,0,0.4,0.1-0.8,0.1c-1.1,0-1.3-0.1-0.6-0.1c0.3,0,0.4,0,0.4,0c0.3,0,0.8,0,0.4,0l-0.1,0c-0.5,0-2,0-1.7-0.1
						c-0.8,0-0.3,0,0.3,0c-1.4,0-2.2,0-3.6,0c0.2,0,0.4,0,0.2,0c-2.1,0-0.9,0-2.3,0.1c-0.8,0,0.3-0.1-1.1-0.1
						c-0.9,0-0.2-0.1,0.2-0.1c-1.3,0-2.4,0-3.2,0l0.7,0c-0.4,0-0.7,0-1.1,0l0.4,0c-0.4,0-0.7,0-0.7,0c-0.4,0,0.3,0.1-0.5,0.1
						c-0.5,0-1.6,0-1.8,0c1.7,0-0.2-0.1,1.2-0.1c-0.3,0-0.6,0-1,0c-0.1,0,0.1,0,0.2,0c-1.6-0.1-0.7,0.1-2.4,0.1
						c0.2,0-0.4-0.1-0.7-0.1c0.7,0,0.3,0.1-0.3,0.1c-1.1,0-1.2,0-1.7,0l0.6,0c-0.2,0-0.8,0-1.5,0c-0.1,0,0.7,0,0.4,0
						c-0.8,0.1-1.9-0.1-3,0c-0.5,0-0.1-0.1-0.5-0.1c-1.3,0-1.4,0-2.8,0c0.4,0,0.5,0-0.5,0.1l2.2,0l-1.4,0.1c0.7,0,1.4,0,1.8,0
						c-0.7,0-0.6,0-0.3,0.1c-0.9-0.1-1.8,0-2.9,0l0-0.1c-1.6-0.1-2.9,0.1-4.9,0l0.7,0c-0.3,0-1.3,0-2,0c0.1,0-0.4-0.1-0.6-0.1
						c0,0-1.5,0-1.7,0.1l-0.9-0.1c-1.7,0-1.9,0.1-3.5,0.1c0.5,0-0.2-0.1,0.8-0.1c-0.5,0-1,0-1,0c-0.3,0-1.5,0.1-2,0
						c-0.2,0-0.3,0.1-0.9,0.1c-0.1,0,0,0,0,0c0,0-1,0-0.4,0.1c-1.7-0.1-4.7,0-6.1-0.1c-1.2,0-2.6,0-3.7,0c0.1,0,0,0,0.2,0
						c-1.5,0-0.9,0.1-2.6,0.1c-0.9-0.1,0.9,0,0.4-0.1c-0.2-0.1-2,0-3.2-0.1l0.3,0c-0.9,0-2.1,0-3.5,0c0,0,0.1,0,0,0
						c-1,0.1-2.8,0.1-4.2,0.1c0.4,0,0.6,0,0.4-0.1c-0.6,0,0.2,0.1-1,0.1c-0.4,0-1.3-0.1-1.4-0.1l1.1,0c-0.6-0.1-1.5,0-2.1,0l0.1,0
						c-1.8,0-1.8,0.1-3.7,0.1l0.2,0c-1,0.1-0.9,0-1.9,0l-0.3-0.1c-0.7,0-2.4,0.1-3.6,0.1c0.7-0.1,2.1-0.1,3-0.1c-0.7,0-2.3,0-2.6,0
						c0.3,0,0.6,0,0.9,0c-0.8,0.1-1.9,0.1-3.3,0.1c0.1-0.1-0.8-0.1-1.8-0.1c-0.3,0-0.5,0-0.8,0c-0.1,0-0.3,0-0.4,0
						c-0.2,0.1-0.3,0.2-0.4,0.3c-0.1,0.1-0.1,0.3-0.1,0.4c0,0.1,0,0.2,0,0.3c0,0.2,0,0.4,0,0.5c0.1,2.4,0,4.7,0,7.5
						c0.1-1,0,0.8,0.1,0.6c0,0.6,0,0.9,0,1l-0.1,2c0,0.5,0-0.6-0.1-0.6c0,1.4-0.1,0.6-0.1,1.5c0-0.2,0.1,0.5,0,1.3l0.1-1.1
						c0.1,2-0.1,1.7,0,3.7l0-0.6c0,1,0,3.8,0.1,4.8c0,0.2,0,0.4-0.1,0c0,2.4,0.1,5.4,0,7.3l0-0.2c0,0.5,0.1,0.8,0,1.4c0,0,0-0.2,0,0
						c0,0.2,0.1,1.2,0,1.8l0-0.5c0,0.3,0,0.6,0,0.8c0,0.1,0,0.2,0,0.4c0,0.2,0.1,0.3,0.2,0.5c0.2,0.3,0.7,0.3,0.8,0.3
						c0.2,0,0.4,0,0.7,0c0.9,0,1.7-0.1,2.7-0.1c0,0.1,1.9,0.1,2.8,0.1l0,0c2.8,0,4.7-0.1,7.3-0.1c1.6,0.1,5.4,0,8,0.1
						c-0.4,0,0.1-0.1,0.5-0.1c0.6,0,1.7-0.1,1.6,0l-0.2,0c0.5,0.1,1.7,0.1,2.7,0.1l0.2-0.1c2.5,0.1,6.6-0.1,8,0.1c0.6,0,1.4,0,2-0.1
						l0,0.1c1.7,0,2.5,0,4.6,0l-0.4,0c1.2,0,1.5-0.2,2.6-0.2l0.3,0.1c2.1,0,4.1,0.1,6.2,0c0,0-0.1,0-0.4,0c1,0,3.7,0.1,3.4-0.1
						c0,0.1,2.1,0,3.2,0L67,43.9c0.9-0.1,1-0.1,2.3-0.1c0.3,0,0.3,0-0.1,0c1,0,0.8-0.1,2.1,0l-0.5,0c1.1,0,1,0,1.6-0.1
						c0.7,0,2,0,2.2,0.1c0.1,0,0.7-0.1,1.4-0.1c0.1,0-0.1,0-0.3,0c1.8,0,2.6-0.1,3.9,0c0,0,0.1,0,0.2,0c-1.4,0-2.3,0-2.4,0
						c0,0,1.1,0.1,0.2,0.1c0.9,0,2.5-0.1,3.6-0.1c0.1,0,0.1,0,0.1,0l-0.1,0c0.3,0,0.5,0,0.7,0c0.4,0,0.6,0,0.9,0c0.1,0,1.3,0,1.9,0
						c0-0.1,0.7,0,0-0.1c0.1,0-0.1,0-0.5,0c-0.1,0-0.2,0-0.2,0l0,0c-0.4,0-0.9,0-1.4,0c0.4,0,0.9-0.1,1.5,0c0.3,0,0.6-0.1,0.8-0.1
						c0.8,0.1,2.3,0.1,2.5,0.2c1.7,0,4.1,0,5.2-0.1c0.5,0,0.6,0,0.8,0c-0.3,0-0.6,0-0.8,0c1,0,2.9,0,3.2-0.1c1.2,0-0.7,0.1,1,0.1
						l-0.2,0c3.4,0.1,5.5-0.2,9.2,0c-0.3,0-0.4,0-0.4,0c4.2,0.1,8.8-0.1,12.9,0c1.2,0,1.3,0,2-0.1l0.3,0.1l1.2-0.1
						c1.8,0,3.1,0.1,5.3,0.1l-0.3,0c0.8,0,2.5,0,2.4,0c0.1,0,0.3,0,0.6,0l0,0l2-0.1c1.5,0-0.2,0.1,2,0.1c0.8,0,2.4-0.1,2-0.1
						c-0.3,0-0.9,0-0.9,0l0.8,0c0.1-0.1,0.7-0.2-1.1-0.2l-1.3,0.1l-0.4,0l1.1,0c-0.6,0-1,0-1.5,0c-0.1,0-0.3,0-0.5,0l-1.3,0.1
						c-0.2,0,0.6-0.1-0.3-0.1c-0.6,0,0.6,0.1-0.4,0.1c-0.6,0-0.4-0.1-1.2,0c-0.1,0,0.1,0,0.3,0c-0.6,0-1.7,0-2,0.1
						c-0.6-0.1-2.2,0-2.1-0.1c-0.2,0-1.1,0.1-1.7,0.1c1.1-0.1-2.2,0-1.9-0.1c-0.8,0.1-2.9,0-4.3,0.1c0.1,0,0.2,0,0.4,0
						c-0.8,0-1,0-1.6-0.1c-0.1,0.1-1.4,0.1-2,0.1c-1-0.1,0.6-0.1,0.3-0.2c0,0.1-1.7,0.1-1.4,0.1c-0.8,0-0.6,0-1-0.1
						c-0.1,0.1-0.7,0-1.3,0.1c-1.1,0-0.3-0.1-1.5-0.1C108.1,43.4,109.1,43.4,109.1,43.4z M80.7,43.5L80.7,43.5c0.2,0,0.5,0,0.6,0
						C81.2,43.5,81,43.5,80.7,43.5z M78.3,43.5c0.3,0,0.7,0,1,0c0.1,0,0,0-0.2,0C79.3,43.6,78.7,43.6,78.3,43.5z M83.4,43.9
						c-0.4,0-0.5,0-0.6,0c0.2,0,0.4,0,0.7,0c0,0,0,0,0,0C83.5,43.9,83.5,43.9,83.4,43.9z"/>
					<path fill="#4F4F4F" d="M84.1,43.8c0.1,0,0.1,0,0.2,0C84.1,43.8,84.1,43.8,84.1,43.8c-0.1,0-0.2,0-0.2,0
						C83.9,43.8,84,43.8,84.1,43.8z"/>
					<path fill="#4F4F4F" d="M121.8,10.6L121.8,10.6C121.8,10.6,121.9,10.6,121.8,10.6C121.8,10.6,121.8,10.6,121.8,10.6z"/>
					<polygon fill="#4F4F4F" points="45.4,43.4 45.4,43.5 45.6,43.4 					"/>
					<path fill="#4F4F4F" d="M135,10.8c0,0,0.1,0,0.2,0C135.1,10.8,135.1,10.8,135,10.8z"/>
					<path fill="#4F4F4F" d="M136.1,15.4l0,0.8C136.1,15.8,136.1,15.6,136.1,15.4z"/>
					<path fill="#4F4F4F" d="M136.1,19.7C136.1,19.8,136.1,19.8,136.1,19.7L136.1,19.7L136.1,19.7z"/>
					<path fill="#4F4F4F" d="M75.6,10.9c-0.1,0-0.1,0-0.2,0C75,10.9,75.3,10.9,75.6,10.9z"/>
					<path fill="#4F4F4F" d="M96.2,10.8c-0.2,0-0.4,0-0.7,0C95.9,10.8,96.2,10.8,96.2,10.8z"/>
					<path fill="#4F4F4F" d="M52.5,11L52.5,11c0,0-0.1,0-0.1,0L52.5,11z"/>
					<path fill="#4F4F4F" d="M94.6,10.8c0.4,0,0.7,0,1,0C95.3,10.8,94.9,10.8,94.6,10.8z"/>
					<path fill="#4F4F4F" d="M136.1,38.7l0,0.2c0,0,0,0,0,0L136.1,38.7z"/>
					<path fill="#4F4F4F" d="M136.1,38.9l0,0.2C136.1,39,136.1,38.9,136.1,38.9z"/>
					<path fill="#4F4F4F" d="M136.1,39.6l0-0.5C136.1,39.3,136.1,39.5,136.1,39.6z"/>
					<path fill="#4F4F4F" d="M136.1,32.9L136.1,32.9C136.1,32.8,136.1,32.9,136.1,32.9z"/>
					<path fill="#4F4F4F" d="M136.1,31.1c0,0.4,0,1.1,0,1.6l0,0.1C136.1,32.5,136.1,31.5,136.1,31.1z"/>
					<path fill="#4F4F4F" d="M136.3,23.8l0,1.5c0-0.3,0-0.6,0.1,0.1C136.4,23.5,136.3,25.7,136.3,23.8z"/>
					<path fill="#4F4F4F" d="M136.4,19.2C136.4,20,136.4,19.2,136.4,19.2C136.4,18.7,136.4,18.6,136.4,19.2z"/>
					<path fill="#4F4F4F" d="M111.5,10.6L111.5,10.6C111,10.5,111.6,10.5,111.5,10.6z"/>
					<polygon fill="#4F4F4F" points="105.2,10.8 105.8,10.9 106.1,10.8 					"/>
					<polygon fill="#4F4F4F" points="101.5,10.5 101.8,10.5 100.7,10.5 					"/>
					<path fill="#4F4F4F" d="M46.1,10.5l0.2,0.1C46.7,10.5,46.7,10.5,46.1,10.5z"/>
					<path fill="#4F4F4F" d="M22.1,10.5c-0.3,0-0.9-0.1-1.3,0C21.3,10.5,21.9,10.5,22.1,10.5z"/>
					<polygon fill="#4F4F4F" points="39,43.9 38.5,43.9 39.4,43.9 					"/>
				</g>
			</g>
		</g>
	</g>
</g>
<rect x="11.7" y="19.8" fill="none" width="125.9" height="15.9"/>
<text transform="matrix(1 0 0 1 34.6512 28.3984)" font-family="'ArialMT'" font-size="12">CONCLUSION</text>
<g>
	<path fill="#FDF6F7" d="M12.3,37.7h635c1.7,0,3,1.3,3,3v165.6c0,1.7-1.3,3-3,3h-635c-1.1,0-2-0.9-2-2V39.7
		C10.3,38.6,11.2,37.7,12.3,37.7z"/>
	<g>
		<g>
			<g>
				<g>
					<path fill="#EC96A8" d="M12.3,38.3c0.4,0,0.5-0.1,0.2-0.2c-0.2,0-0.4-0.1-0.6,0c-0.3,0.1-0.6,0.2-0.9,0.6c0,0-0.1,0.3-0.1,0.6
						c0.1,0.4,0.1,0.7,0.1,0.7s0-0.2,0-0.5c0-0.2,0.1-0.5,0.2-0.7c0.2-0.2,0.4-0.4,0.6-0.5C12.1,38.3,12.3,38.3,12.3,38.3z"/>
					<path fill="#EC96A8" d="M10.3,52.3c0.2,2.8,0.4,5.9,0.7,4.2c-0.3-2.7-0.2-3.4-0.6-6.3c0-2.4,0.1-4.1,0.2-3.7
						c-0.1-0.8,0.1-3.7-0.1-4.9c-0.3,3.1-0.3,6.9-0.1,11C10.5,53.4,10.4,52.5,10.3,52.3z"/>
					<path fill="#EC96A8" d="M83.8,209.7l-1.5,0C82.7,209.7,83.2,209.7,83.8,209.7z"/>
					<path fill="#EC96A8" d="M226,209.9c-1.1,0-1.5,0-1.6,0.1C225.4,210,226.3,210,226,209.9z"/>
					<path fill="#EC96A8" d="M250.3,210.3c-0.5,0-1,0-1.4,0C249.4,210.3,250,210.3,250.3,210.3z"/>
					<path fill="#EC96A8" d="M83.8,209.7l3.8,0.1C87.8,209.7,85.6,209.8,83.8,209.7z"/>
					<path fill="#EC96A8" d="M11.1,84c0-0.8,0-1.5-0.1-2.1c0,0.7,0,1.3,0,1.9C11.1,83.9,11.1,83.9,11.1,84z"/>
					<path fill="#EC96A8" d="M21.1,210l-1.2,0c-0.3,0-0.7,0.1-1,0.1L21.1,210z"/>
					<path fill="#EC96A8" d="M9.5,171.1c0,1.1,0.3,1.5,0.4,1.9c-0.1-0.6-0.2-1.4-0.2-2.4C9.6,170.6,9.6,170.7,9.5,171.1z"/>
					<path fill="#EC96A8" d="M10,94.8l0-1.4C9.9,93.8,10,94.4,10,94.8z"/>
					<path fill="#EC96A8" d="M55.5,210.1c0.1,0,0.3,0.1,0.4,0.1C55.9,210.1,55.8,210.1,55.5,210.1z"/>
					<path fill="#EC96A8" d="M68,39C68.1,39,68,39,68,39C67.8,39,67.7,39,68,39z"/>
					<path fill="#EC96A8" d="M12.3,37.6l0.8,0c0.1-0.1,0.2-0.1,0.2-0.2L12.3,37.6z"/>
					<path fill="#EC96A8" d="M294.7,210.6c-0.1,0-0.1,0-0.2,0C293.4,210.7,294,210.7,294.7,210.6z"/>
					<path fill="#EC96A8" d="M651.4,155.5c-0.3,4.6-0.3-7.5-0.6-0.6C650.9,154.3,651.3,161.2,651.4,155.5z"/>
					<path fill="#EC96A8" d="M11.1,85.2c0,0.6,0,1.3,0,2C11.1,86.3,11.1,85.7,11.1,85.2z"/>
					<path fill="#EC96A8" d="M650.8,154.9L650.8,154.9l0,0.7C650.8,155.3,650.8,155.2,650.8,154.9z"/>
					<path fill="#EC96A8" d="M397.2,210.5c-0.2,0-0.6-0.1-1-0.1C396.1,210.4,396.4,210.4,397.2,210.5z"/>
					<path fill="#EC96A8" d="M320.9,210.1l1.9,0C322,210.1,321.4,210.1,320.9,210.1z"/>
					<path fill="#EC96A8" d="M436.8,210.1c1,0,1.4,0.1,2.8,0c-0.1,0-0.3,0-0.4,0C438.6,210.1,437.9,210.1,436.8,210.1z"/>
					<path fill="#EC96A8" d="M478,210.1c-0.2,0-0.5,0-0.8-0.1c-0.4,0-0.9,0-1.3,0L478,210.1z"/>
					<path fill="#EC96A8" d="M193.3,38.9c-0.9-0.1-1.5-0.2-1.9-0.3C192.1,38.8,186,38.9,193.3,38.9z"/>
					<path fill="#EC96A8" d="M11,84c0.1,0.2,0.1,0.6,0.1,1.2c0-0.5,0-0.9,0-1.4C11,83.8,11,83.7,11,84z"/>
					<path fill="#EC96A8" d="M438.4,207.9l6.6,0C443.2,207.9,440.8,207.9,438.4,207.9z"/>
					<path fill="#EC96A8" d="M489.1,38.8l-1.5,0C488.2,38.9,488.8,38.9,489.1,38.8z"/>
					<path fill="#EC96A8" d="M464.4,207.9c1.2,0.1,2.4,0.2,3.7,0.2c0.3,0,0.6,0,0.8-0.1L464.4,207.9z"/>
					<path fill="#EC96A8" d="M191.4,38.6C191.4,38.6,191.4,38.6,191.4,38.6C191.4,38.6,191.4,38.6,191.4,38.6z"/>
					<path fill="#EC96A8" d="M148.3,39.3c6.2,0,2.9-0.4,4.3-0.6c7.5-0.1,3.4,0.3,6,0.5c4.7-0.1,8.2-0.4,11.7-0.4
						c0.3,0.1,0.9,0.1,0.1,0.2c4.9-0.3,14.6,0,20.3-0.4c0.4,0,0.6,0.1,0.7,0.1c-0.9-0.2-1.1-0.4-0.9-0.5c2.8,0,5.2-0.2,6.2,0
						c-1.7,0-1.9,0.1-2.7,0.2l2.9-0.1c2.6,0.3-4,0.1-4,0.4c5.7-0.1,12.4-0.4,16.8-0.3c0.9,0.3-10.2,0.1-4.4,0.4l-6.8-0.1
						c5.2,0.5-4.1,0,0.6,0.5c8.9,0.1,10-0.2,18.9-0.1c2-0.2-0.7-0.3,1.3-0.5c12.6-0.3,10,0.9,19.3,0.4c2.4-0.2,3.3-0.7,10-0.4
						l-2.3,0.4c8.6,0,4.9-0.6,14-0.3c-1.6,0.2-6.8,0.1-5.5,0.2c5.9,0.3,4.1-0.2,8.6-0.2l0.9,0.3c9.2-0.1,19.3-0.2,29.5-0.4
						c-0.6,0.1-2.3,0.2,0.1,0.3c12.8-0.2,27.4,0,39.8,0.2l4.7-0.3c1.1,0,2,0.1,0.9,0.2c4.8,0.1,0.3-0.2,2.6-0.3
						c2.7,0,3.6,0.2,1.9,0.3c8.5-0.2,24.3-0.5,33.2-0.2l-1.8,0.1c7,0.1,7.9-0.6,14.4-0.3l-1.2,0.1c15.2,0.1,31.9-0.1,43.5,0.3
						c2.2-0.4,15,0.2,16-0.4c8.7,0.3,6.2,0.4,18.4,0.6c3.3,0,4.9-0.4,8.9-0.4l0.1,0.3l5.5-0.3l2.9,0.4l3.8-0.1c-1.5,0-3.2-0.1-3-0.2
						c3-0.1,6.5,0,9.4,0.1c2.9,0.1,5,0.2,5.1,0.3l14-0.3c-0.3,0.1-2.6,0.2-4.5,0.2c7.5-0.3,1.4,0.3,8.2,0c-0.9-0.1,0.5-0.2,0.6-0.2
						c3.4,0.2,11.2,0.2,16.9,0.1l-1.1,0.2c10.4,0.1,21.8-0.1,33.5-0.1c-4.2-0.1-3.2-0.5,0.2-0.5l1.4,0.3c2.2-0.2-3.6-0.1,1-0.4
						c4.3,0,2.9,0.4,0.4,0.5l5.3-0.1c0.3,0.1-0.9,0.1-1.3,0.3c2.2-0.2,9.1,0.3,12.2,0l0.3,0.1c11.6-0.1,16.9-0.1,26.4-0.1
						c0.2-0.3,3.9-0.2,6.7-0.4c7,0.1,14.7,0.3,23.1,0.3c5.9-0.1,1.7-0.2,4.4-0.4c0.1,0,0.2,0.1,0.5,0.1c0.2,0,0.4,0.1,0.7,0.2
						c0.5,0.2,1,0.7,1.2,1.2c0.1,0.2,0.1,0.5,0.1,0.7c0,0.2,0,0.5,0,0.5c0,0.1,0,0.1,0-0.1c0-0.1,0-0.3,0-0.4c0-0.1,0-0.2-0.1-0.4
						c0.1,9.9,0.2,12.7,0.3,25.3c0.1-1.4,0.2-2.9,0.2-2.1c0,2.3-0.1,5.3-0.2,4.9l0-0.6c0.4,14.3-0.7,33-0.2,44.3l0-0.6l0.3,11.8
						c0,5.4-0.2-3.3-0.4,0.8c0.4,12.7-0.1,20.1,0.2,30.6c-0.8,8.1,0.1,28.8-0.4,39.7l0.2-0.6c0.2,2.8-0.1,3.4-0.1,5.5
						c0.1-0.3,0.2-3.1,0.3-1.3c0,1.5,0,3,0,4.5l0,2.3l0,1.1l0,0.6c0,0.1,0,0.2,0,0.4c-0.1,0.5-0.4,0.9-0.7,1.2
						c-0.2,0.1-0.4,0.2-0.6,0.3c-0.2,0.1-0.4,0.1-0.9,0.1c-1.5,0-3.1,0-4.6,0c-6.1,0-12.3-0.1-18.6-0.1c-12.4-0.1-25-0.2-37.2-0.4
						c-9,0-5.1,0.9-16.4,0.5l3.2-0.3c-18.1,0.4-37.1,0-54.8,0.3c1.1-0.1,1.1-0.2,2.8-0.2c-1.9-0.1-5.3-0.1-8.3-0.1
						c-1.5,0-2.9,0.1-3.9,0.1c-1,0-1.7,0.1-1.7,0.1c-2.8,0-0.6-0.2-2.3-0.3c-3.8-0.1-9.4,0.3-11.4,0.1c-0.3,0,1.1-0.1,1.7-0.1
						c-2.5,0.1-11.4,0-9.1,0.2c-6.7-0.1-12.7,0.1-18.1,0c-3.5,0.3-11.4-0.1-12.5,0.3c0.5-0.5-11.7-0.4-15.9-0.2
						c1.4-0.1-3.7-0.1-2-0.3c-4.8,0-9.2,0.1-8.4,0.3c-8.9-0.5-17.8,0.4-22.8-0.3c-14.3,0.2-27.5,0.4-40.3,0.5
						c0.5-0.5,14.2,0,13.6-0.5c-12.2,0.2-19.2,0.6-31.3,0.5c-3.1-0.1,1.8-0.2,2.8-0.3c-12.2,0.2-23.5,0-34.4,0.2
						c0,0,1.2-0.1,2.3-0.1c-2.1,0-5-0.1-4.7,0.1l2.1-0.1c3.4,0.3-8.5,0.6-8.9,0.8c3.6-0.6-10.7-0.1-4.9-0.9c-1.4,0-3.2,0.1-2.8,0.3
						c-2.1,0-2.7-0.1-0.6-0.3c-7.6,0.1-4.9,0.3-11.9,0.3c0-0.1,1.4-0.1,2.1-0.3c-3.5,0.2-7,0.4-12.9,0.3c0.4-0.1-0.3-0.1,1.4-0.1
						c-10.1,0-17.1,0.5-28.2,0.3c3.3-0.4-3.8-0.1-4.3-0.5l-5.9,0.1l2.4,0.2c-5.2,0-9.8,0.3-14.3,0.1l3.9-0.2l-9.7,0.1l5.5,0.1
						c-5.3,0.2,0.6,0.5-6.4,0.4c1.4,0-5.2,0-7.9-0.2l0,0c-2.6,0.1-5.2,0.2-9.1,0.2c-1-0.1,0.8-0.4,0.2-0.5
						c-2.5,0.3-12.2,0.1-15.4,0.4c1.1-0.1,1.1-0.3,0.8-0.3l-2.1,0.3c-2.4-0.1-2.8-0.1-2.4-0.3c-7.2,0,2.3,0.5-6.3,0.3
						c0.7,0,0.4-0.1,1.8-0.1c-8.6-0.1-16.7,0.2-24.6,0c-2.3-0.4,6.9-0.1,4.3-0.4c-11.4,0.1-23.7,0.5-34.7,0.4l2.1,0
						c-1.5,0.5-8.2-0.3-13.8,0c1.4,0,1.8-0.3,1.4-0.2c-7.6-0.1-15.5,0.1-27,0.3l1.4-0.1c-4.5-0.1-11.8-0.1-16.6-0.1
						c-1.4,0.1-4.2,0.1-2.5,0.3c-14.9-0.8-28.4,0.4-41.6-0.2c1.6,0,3.8-0.1,2.5-0.1l-11.2,0.1c0.9,0.2,1.5,0.1,3.8,0.3
						c-1.4,0.1-4.6,0.2-7.4,0.2c5.1-0.2,0-0.4-2.2-0.5c0.4,0.1-0.4,0.1-0.2,0.2c-0.7-0.1-1.3-0.1-1.7-0.1c-0.5,0-0.7,0-0.9-0.1
						c-0.4-0.1-0.5-0.2-0.7-0.3c-0.2-0.1-0.5-0.3-0.6-1c-0.1-0.7,0-2,0-4l0.1,0.4c-0.1-3-0.2-5.8-0.2-9c0.3-1.3,0.1,3.2,0.3,3.4
						c0-4.5-0.5-9-0.2-13.1c0,1.9,0.1,4.7,0.1,6.6c0.3-4.5,0.2-5,0.3-8.3l0,0.3l0.1-7.7l-0.1,2c-0.7-5.7-0.1-11.6-0.6-19.2
						c0.4,7.4,0.2,1.2,0.6,1.8c0.1-2,0.2-4.9,0.3-4.1c-0.2-3.6,0.2-6-0.2-11.2c0.1-0.2,0-3.9,0.3-3.1c-0.1-4.7-0.2,1.1-0.3,0.7
						c-0.3-7.3,0.4-17.1-0.1-27.5c-0.2-9-0.5-10.7-0.7-19c0.2-2.8,0.4,2.3,0.4,2.3c0.1-4.5,0.1-8,0-12.3c0.1,0.9,0.2,0,0.3-1.3
						c0-3.4-0.4-2.3-0.2-6.8c0.1,0.8,0.3,1.8,0.4,3.4c-0.1-4.1-0.2-8.1-0.4-12.3c0.2-1.1,0.3,2.5,0.4,4C11,69,10.9,61.5,10.6,60
						l-0.1,3c0-1.7,0.2-0.9,0.3,0.4c0.2,4-0.1,5.8-0.2,6.1l-0.1-3c-0.6,3.1,0.1,12,0.1,18L10.2,82l0.3,6.2c-0.1,1.3-0.3,2.2-0.4-0.8
						c-0.2,4.3,0.1,3.8-0.1,7.5c0,0.4-0.1,0.2-0.1-0.2l0.1,4.2c-0.1-0.8-0.3,0.7-0.2-1.9c-0.2,7.6,0.3,12.2,0,15l0-0.6
						c0.1,10.5,0.3,1,0.7,8.9l-0.8,5.3l0.3,1c0,1.1,0,3.2-0.2,2.8c0.2,4,0.1-0.7,0.3,1.7c-0.3,5.2,0.1,14.4-0.4,15.5
						c0.2,1.9,0.2-5,0.3,0.6c-0.5,1.6,0.1,6.4-0.2,11.2c-0.3-1.5-0.1-6-0.4-1.2c0.5,2.9-0.1,9.3,0,13.3c0.4,0.2,0.2,8.7,0.3,15.5
						c-0.1-0.4-0.2,12.7-0.3,18.9l-0.1-0.2c0.1,0.3,0.2,0.9,0.2,1.8c0,0.2,0,0.4,0,0.7c0,0.3,0.1,0.6,0.2,0.9
						c0.2,0.6,0.8,1.1,1.4,1.3c0.3,0.1,0.7,0.2,1,0.1c0.3,0,0.6,0,0.9,0c0.6,0,1.3,0,1.9,0c1.3,0,2.6,0,3.8,0
						c-0.2,0.2-1,0.3-3.6,0.4l4.4,0c1-0.1,2.4-0.2,5.3-0.2l-1.1,0.3c5.9,0,11.9-0.3,19.4-0.1c0.4-0.3-6-0.7,2-0.9
						c0.3,0.1,0.6,0.4-1.5,0.4c0.7,0,2.4-0.1,3.8-0.1l-3.2,0.2c3.5,0.1,1.8-0.2,4.6-0.2c-0.1,0.2,2,0.1,1.6,0.3
						c-0.7,0-2.4-0.1-3.5,0c3.1,0,6.9,0.2,8.1,0.3c-0.3-0.1,0-0.3,2.3-0.3c5.9,0,2,0.2,5.5,0.3c1.4-0.1,5.2,0,5.3-0.3
						c1.7,0,2,0.1,2.7,0.2c3-0.1,14.2,0,10.8-0.4l-0.8,0c0.1,0,0.3,0,0.5,0c0,0,0,0,0,0h0c10-0.3,20.8,0.2,30.7,0l0,0.1
						c5.9-0.1,13.2-0.1,17.4-0.3c1.8,0,4.1,0.2,3.4,0.3c4.5-0.1,5-0.2,11.6,0c-4.5,0.2,1.6,0.2-4.7,0.1c5.9,0.1,7.2,0.2,13.5,0
						c-2.1,0.3,4.4,0.3,7.2,0.2l-4.1-0.2c3.1,0,5.9,0,8.7,0l-1.5,0.3c12,0.4,21.7-0.7,30.8,0c3.2-0.2-6.5-0.2-3.7-0.4
						c5.5,0,11.3,0.5,13,0.5c7.6,0.2,7.1-0.5,15-0.4c-1-0.1-2-0.4,4-0.5c5.5,0,6.8,0.5,3.3,0.6c-1.3,0-2,0-1.9-0.1
						c-1.8,0-4.1,0.1-1.9,0.2l0.7-0.1c2.7,0.1,10.4,0.1,8.6,0.3c4.2-0.1,1.8-0.2-1.3-0.3c7.1,0.2,11.1,0,18.4,0.1
						c-1.2-0.1-2.2-0.2-1.1-0.2c10.7,0.1,4.7-0.2,12-0.3c4.1,0.2-1.5,0.4,5.8,0.3c4.5,0.1,0.9,0.3-0.8,0.4
						c6.7-0.2,12.4,0.2,16.3,0.2l-3.5,0.1c2.1-0.1,3.8-0.1,5.6-0.1l-2-0.2c2.1,0,3.8,0,3.8,0.1c2.1-0.2-1.6-0.4,2.6-0.6
						c2.7,0.1,8.4-0.1,9.3,0.2c-8.6-0.1,1,0.3-6.4,0.4c1.4,0,3.1,0,5.2,0c0.3,0-0.3,0.1-0.9,0.1c8.3,0.3,3.8-0.4,12.4-0.3
						c-1.1,0.2,2,0.3,3.4,0.3c-3.5,0-1.7-0.3,1.5-0.4c5.5,0.1,6-0.1,8.8-0.1l-3.3-0.1c1.1-0.2,3.9-0.2,7.7-0.2
						c0.3,0.1-3.5,0.1-2.1,0.2c4.3-0.3,9.6,0.3,15.5,0.1c2.7,0.1,0.3,0.3,2.7,0.4c6.6-0.2,7.2,0.2,14.2,0.1c-2-0.2-2.4-0.2,2.6-0.4
						l-11.5,0.2l7.4-0.3c-3.5,0-7.3,0.1-9.4,0.1c3.5-0.2,3.2-0.1,1.5-0.3c4.7,0.4,9.4-0.2,14.9,0l-0.2,0.6
						c8.2,0.3,14.6-0.3,25.3-0.2l-3.4-0.1c1.4-0.2,6.6,0,10.1-0.1c-0.3,0.2,1.8,0.3,3.3,0.4c-0.2-0.1,7.8,0,8.8-0.4l4.8,0.3
						c8.6,0.1,9.9-0.6,18.2-0.5c-2.5,0.2,1.3,0.4-4.3,0.5c2.8,0,5.3,0,5.3-0.1c1.6,0.1,7.7-0.3,10.2-0.1c1.2-0.1,1.6-0.3,4.7-0.3
						c0.3,0,0,0.1,0,0.1c0-0.1,4.9-0.1,2.2-0.4c8.5,0.6,23.9,0,31.3,0.5c6.1,0,13.3-0.1,18.8-0.1c-0.4,0.1,0,0.1-1.1,0.1
						c7.6,0.2,4.7-0.6,13.3-0.4c4.4,0.3-4.6,0.2-1.8,0.3c1.2,0.6,10.4-0.1,16.2,0.3l-1.4,0c4.4,0.2,10.8-0.2,18.1-0.2
						c0,0-0.4,0.1,0,0.1c5-0.3,14.3-0.4,21.3-0.5c-2.2,0.3-3.2,0.1-1.8,0.4c3.1,0-0.9-0.4,5.3-0.5c2,0.1,6.5,0.3,7.1,0.5l-5.9,0
						c3,0.4,7.6,0,10.7,0l-0.4,0.2c9-0.1,9.1-0.4,18.8-0.4l-1-0.1c5.3-0.4,4.4,0.2,9.7-0.1l1.6,0.4c3.5-0.1,12.2-0.4,18.5-0.5
						c-3.6,0.3-10.9,0.4-15.4,0.6c3.5,0,11.8,0,13.6-0.2c-1.4,0-3.2,0.1-4.5,0.1c4.3-0.3,9.8-0.5,16.7-0.5c-0.6,0.4,3.9,0.4,9.2,0.5
						c1.3,0,2.7,0,4,0c0.3,0,0.8,0,1.2-0.1c0.4-0.1,0.8-0.2,1.2-0.5c0.7-0.4,1.3-1.1,1.6-1.8c0.2-0.4,0.2-0.8,0.3-1.1
						c0-0.4,0-0.6,0-0.9c0-0.6,0-1.1,0.1-1.6c0-1,0.1-1.9,0.2-2.5c-0.3-12.2,0.1-24.2,0.1-38.5c-0.6,5,0-4.2-0.6-3.3
						c0-3.3,0-4.6,0-4.9l0.4-10c0.2-2.4,0.1,3.2,0.3,2.8c0-7.3,0.3-3,0.4-7.8c-0.2,1-0.3-2.5-0.2-6.7l-0.3,5.8
						c-0.3-10.1,0.5-8.8,0.2-19l0.2,3.2c-0.1-5.2,0-19.4-0.5-24.5c0.1-0.9,0.2-2.2,0.3,0.2c0.1-12.5-0.5-27.9-0.2-37.6l0.1,1
						c0-2.3-0.3-4.1-0.1-7c0.1,0.2,0.1,0.9,0.2-0.1c-0.1-1.2-0.3-6.2-0.2-9.3l0.2,2.6c0-1.5,0-3,0-4.3c0-0.7,0-1.4,0-2
						c0-0.3,0-0.6,0-1l0-0.5c0-0.2,0-0.4-0.1-0.7c-0.3-1.8-1.7-3.1-3.3-3.4c-0.2,0-0.4-0.1-0.6-0.1l-0.3,0l-0.2,0
						c-0.3,0-0.6,0-0.9,0c-0.6,0-1.1,0-1.7,0.1c-4.4,0.1-8.6,0.3-13.8,0.4c0-0.4-9.6-0.6-14.4-0.7l0.2-0.1
						c-14.2-0.1-24.2,0.4-37.4,0.5c-8.2-0.5-27.7-0.2-40.9-0.5c2,0.1-0.3,0.3-2.7,0.4c-3.1-0.1-8.5,0.3-8-0.1l1.1,0
						c-2.3-0.4-8.7-0.3-13.6-0.3l-0.8,0.5c-13-0.8-33.9,0.3-41-0.4c-3.1,0.1-7,0.1-10.1,0.3l0.2-0.3c-8.7-0.1-13-0.1-23.7,0l2.2-0.2
						c-6,0-7.6,0.8-13.2,0.8l-1.7-0.4c-10.5,0-21.2-0.4-31.6,0c0.2-0.1,0.5-0.2,2.2-0.2c-5,0-19.2-0.3-17.4,0.3
						c-0.1-0.4-10.9,0-16.6,0.1l0.9-0.3c-4.8,0.4-5,0.5-11.7,0.6c-1.6,0-1.4-0.2,0.7-0.2c-5.3-0.1-4.1,0.3-10.5,0.1l2.4-0.2
						c-5.4,0-5,0.1-8,0.3c-3.4,0.1-10.3-0.1-11.1-0.3c-0.7,0.2-3.7,0.4-6.9,0.3c-0.4-0.1,0.7-0.2,1.3-0.2
						c-9.1-0.2-13.6,0.3-19.8,0.1c-0.1-0.1-0.5-0.1-1.1-0.2c7.2,0,13.1,0,12.5,0c0-0.3-5.8-0.3-1.2-0.7c-4.7,0.2-12.7,0.6-18.4,0.5
						c-0.3,0-0.5,0-0.8-0.1l0.6,0c-1.3,0-2.5,0-3.6,0c-1.8,0-3-0.1-4.7-0.1c-0.7-0.2-6.7-0.1-9.6-0.1c0.2,0.3-3.6,0.2,0,0.5
						c-0.5,0,0.6,0,2.5,0c0.4,0,1,0,1.2,0c-0.1,0-0.1,0-0.2,0c1.9,0,4.4,0,7.2,0c-2.3,0.1-4.7,0.3-7.9,0.1c-1.5,0.2-3.1,0.4-4.1,0.5
						c-4-0.4-11.7-0.6-12.8-0.8c-8.9,0.2-21,0.1-26.6,0.6c-2.5,0.1-2.9-0.2-3.9-0.2c1.5-0.1,3.2,0,4-0.1c-5.1,0.1-15,0.1-16.2,0.4
						c-6.4-0.2,3.6-0.3-5.2-0.3l1.2-0.1c-17.2-0.6-28,0.9-47.2,0.2c1.3,0,2,0.1,2.3,0.1c-21.8-0.3-44.9,0.3-66.4-0.2
						c-6.1-0.1-6.8,0.1-10.5,0.3l-1.3-0.3l-6.4,0.3c-9,0.3-15.7-0.7-27.1-0.3l1.5,0.2c-4.1,0-13,0.1-12.3-0.1c-0.4,0-1.3,0.2-3,0.1
						l-0.1-0.2l-10.1,0.3c-7.8-0.1,1.2-0.6-10.2-0.7c-4.2,0.1-12.1,0.5-10.5,0.6c1.7,0,4.4,0.1,4.5,0.3L13,37.6
						c-0.7,0.5-3.7,0.9,5.8,1.3l6.6-0.3l2.1,0.2l-5.6,0c3.2,0.2,5.2,0,7.4-0.1c0.5,0.1,1.5,0.2,2.8,0.2l6.5-0.4
						c0.8,0.2-2.9,0.4,1.5,0.5c3.1-0.2-2.9-0.4,2.1-0.5c3.2,0.2,2.3,0.4,6,0.2c0.5,0.1-0.3,0.2-1.7,0.2c3.3-0.1,8.8-0.1,10.5-0.3
						c3.3,0.3,11.2-0.1,10.9,0.4c1-0.1,5.9-0.3,8.9-0.4c-5.6,0.5,11.4,0,9.9,0.6c4.1-0.5,14.9-0.2,22.2-0.5c-0.4,0-1.2,0.1-1.9,0.1
						c4.1,0,5.3,0.2,8,0.3c0.5-0.4,6.9-0.5,10.4-0.7c5,0.4-3.1,0.5-1.5,0.8c-0.3-0.3,8.8-0.3,7-0.6c3.9,0.2,3.3,0.1,5.3,0.4
						c0.7-0.5,3.6-0.1,6.8-0.4c5.6,0.2,1.4,0.5,7.6,0.3C153.7,39.1,148.3,39.3,148.3,39.3z M294.1,38.4L294.1,38.4c-1.3,0-2.3,0-3,0
						C291.7,38.4,292.6,38.4,294.1,38.4z M306.3,38.4c-1.5,0-3.3,0-5.3,0c-0.4-0.1,0-0.2,1.3-0.2C301.6,38.3,304.5,38.3,306.3,38.4z
						 M280.4,36.5c1.9,0,2.6,0,2.9,0.1c-0.9,0-2,0-3.4,0c-0.1,0-0.2,0-0.2,0C279.8,36.6,280,36.5,280.4,36.5z"/>
					<path fill="#EC96A8" d="M276.9,36.8c-0.3,0-0.4,0-0.8,0c0.4,0,0.8,0,1.2,0.1c0.2,0,0.5-0.1,0.7-0.1
						C277.6,36.8,277.2,36.8,276.9,36.8z"/>
					<path fill="#EC96A8" d="M82,209.7l0.3,0c-0.2,0-0.4,0-0.5,0C81.9,209.7,81.9,209.7,82,209.7z"/>
					<polygon fill="#EC96A8" points="475.5,39 475.5,38.9 474.4,39 					"/>
					<path fill="#EC96A8" d="M14.6,208.7c-0.1,0-0.4-0.1-0.9-0.1C13.7,208.7,14.1,208.7,14.6,208.7z"/>
					<path fill="#EC96A8" d="M10.9,183.6l0.1-4.1C10.9,181.2,10.9,182.5,10.9,183.6z"/>
					<path fill="#EC96A8" d="M11,161.1c0-0.3-0.1-0.4-0.1-0.4c0,0,0,0,0,0L11,161.1z"/>
					<path fill="#EC96A8" d="M319.3,208.2c0.3,0,0.6,0,0.9,0C322.2,208.1,320.8,208.2,319.3,208.2z"/>
					<path fill="#EC96A8" d="M213.3,208.9c1.1,0,2.2-0.1,3.4-0.1C214.8,208.7,213.3,208.7,213.3,208.9z"/>
					<path fill="#EC96A8" d="M437.7,207.9C437.7,207.9,437.7,207.9,437.7,207.9c0.2,0,0.5,0,0.7,0L437.7,207.9z"/>
					<path fill="#EC96A8" d="M221.6,208.7c-1.9-0.1-3.5,0-4.9,0C218.2,208.7,220.1,208.8,221.6,208.7z"/>
					<path fill="#EC96A8" d="M11.1,64l0-1.1c0,0,0,0,0-0.1L11.1,64z"/>
					<path fill="#EC96A8" d="M11.1,62.8l0-1.2C11.1,62.2,11.1,62.6,11.1,62.8z"/>
					<path fill="#EC96A8" d="M11,59.1l0.1,2.5C11.1,60.7,11.1,59.7,11,59.1z"/>
					<path fill="#EC96A8" d="M11,93.7l0.1,0.3C11.1,93.8,11.1,93.7,11,93.7z"/>
					<path fill="#EC96A8" d="M11,102.7c0-2.2,0.2-5.4,0.2-8.4L11.1,94C11.3,95.4,10.9,100.7,11,102.7z"/>
					<path fill="#EC96A8" d="M9.8,140.3l0.1-7.6c-0.1,1.3-0.3,3.1-0.3-0.4C9.3,141.9,9.8,130.4,9.8,140.3z"/>
					<path fill="#EC96A8" d="M9.6,163.8c-0.1-4.1-0.2,0-0.2-0.2C9.5,166.2,9.5,166.8,9.6,163.8z"/>
					<path fill="#EC96A8" d="M134.9,209.9l-0.4,0.3C137.6,210.1,134.5,210.1,134.9,209.9z"/>
					<polygon fill="#EC96A8" points="167.2,208.6 164.2,208.4 162.7,208.7 					"/>
					<polygon fill="#EC96A8" points="186.4,210.4 185,210.5 190.2,210.4 					"/>
					<path fill="#EC96A8" d="M470.7,210.3l-0.9-0.3C467.6,210.1,467.2,210.4,470.7,210.3z"/>
					<path fill="#EC96A8" d="M593.4,210c1.3,0.2,4.8,0.3,6.9,0.1C597.6,210.1,594.8,210,593.4,210z"/>
					<polygon fill="#EC96A8" points="508,36.4 510.5,36.3 505.9,36.4 					"/>
				</g>
			</g>
		</g>
	</g>
</g>
</svg>
