<?xml version="1.0" encoding="utf-8"?>
<!-- Generator: Adobe Illustrator 18.1.1, SVG Export Plug-In . SVG Version: 6.00 Build 0)  -->
<svg version="1.1" id="Layer_1" xmlns="http://www.w3.org/2000/svg" xmlns:xlink="http://www.w3.org/1999/xlink" x="0px" y="0px"
	 width="660.4px" height="409.4px" viewBox="0 0 660.4 409.4" enable-background="new 0 0 660.4 409.4" xml:space="preserve">
<g>
	<path fill="#F7F6F5" d="M136.7,39.9H12.5c-0.3,0-0.6-0.3-0.6-0.6V7.5c0-0.3,0.3-0.6,0.6-0.6h124.1c0.3,0,0.6,0.3,0.6,0.6v31.8
		C137.2,39.7,137,39.9,136.7,39.9z"/>
	<g>
		<g>
			<g>
				<g>
					<path fill="#4F4F4F" d="M136.7,39.8C136.6,39.8,136.6,39.8,136.7,39.8c0,0,0.1,0.1,0.3-0.1c0,0,0.1-0.2,0.1-0.2
						c0,0,0,0.1-0.2,0.2C136.8,39.8,136.7,39.8,136.7,39.8z"/>
					<path fill="#4F4F4F" d="M137.2,37.2c0-0.5-0.1-1.2-0.1-0.8c0.1,0.5,0,0.7,0.1,1.2c0,0.5,0,0.8,0,0.7c0,0.2,0,0.7,0,1
						C137.2,38.7,137.2,37.9,137.2,37.2C137.2,37,137.2,37.1,137.2,37.2z"/>
					<path fill="#4F4F4F" d="M122.5,6.8l0.3,0C122.7,6.9,122.6,6.9,122.5,6.8z"/>
					<path fill="#4F4F4F" d="M94.8,6.8c0.2,0,0.3,0,0.3,0C94.9,6.8,94.7,6.8,94.8,6.8z"/>
					<path fill="#4F4F4F" d="M90,6.7c0.1,0,0.2,0,0.3,0C90.2,6.7,90.1,6.7,90,6.7z"/>
					<path fill="#4F4F4F" d="M122.5,6.8l-0.7,0C121.7,6.8,122.1,6.8,122.5,6.8z"/>
					<path fill="#4F4F4F" d="M137.1,31c0,0.2,0,0.3,0,0.4L137.1,31L137.1,31z"/>
					<polygon fill="#4F4F4F" points="134.7,6.8 134.9,6.8 135.1,6.8 					"/>
					<path fill="#4F4F4F" d="M137.4,14c0-0.2-0.1-0.3-0.1-0.4C137.3,13.8,137.4,13.9,137.4,14C137.4,14.1,137.4,14.1,137.4,14z"/>
					<path fill="#4F4F4F" d="M137.3,28.9l0,0.3C137.3,29.1,137.3,29,137.3,28.9z"/>
					<path fill="#4F4F4F" d="M128,6.8C128,6.8,127.9,6.8,128,6.8C127.9,6.8,127.9,6.8,128,6.8z"/>
					<path fill="#4F4F4F" d="M125.8,39.7C125.8,39.7,125.8,39.7,125.8,39.7C125.8,39.7,125.9,39.7,125.8,39.7z"/>
					<path fill="#4F4F4F" d="M136.7,40l-0.2,0c0,0,0,0,0,0L136.7,40z"/>
					<path fill="#4F4F4F" d="M81.4,6.7C81.4,6.7,81.4,6.7,81.4,6.7C81.6,6.7,81.5,6.7,81.4,6.7z"/>
					<path fill="#4F4F4F" d="M11.7,17.3c0-0.9,0.1,1.5,0.1,0.1C11.8,17.6,11.7,16.2,11.7,17.3z"/>
					<path fill="#4F4F4F" d="M137.1,30.8l0-0.4C137.1,30.6,137.1,30.7,137.1,30.8z"/>
					<path fill="#4F4F4F" d="M11.8,17.4L11.8,17.4l0-0.1C11.8,17.3,11.8,17.4,11.8,17.4z"/>
					<path fill="#4F4F4F" d="M61.4,6.7c0,0,0.1,0,0.2,0C61.6,6.7,61.5,6.7,61.4,6.7z"/>
					<path fill="#4F4F4F" d="M76.3,6.8l-0.4,0C76,6.8,76.2,6.8,76.3,6.8z"/>
					<path fill="#4F4F4F" d="M53.7,6.8c-0.2,0-0.3,0-0.5,0c0,0,0.1,0,0.1,0C53.3,6.8,53.4,6.8,53.7,6.8z"/>
					<path fill="#4F4F4F" d="M45.6,6.8c0,0,0.1,0,0.1,0c0.1,0,0.2,0,0.3,0L45.6,6.8z"/>
					<path fill="#4F4F4F" d="M101.4,39.7c0.2,0,0.3,0,0.4,0C101.6,39.7,102.8,39.7,101.4,39.7z"/>
					<path fill="#4F4F4F" d="M137.1,31c0,0,0-0.1,0-0.2C137.1,30.9,137.1,31,137.1,31C137.1,31.1,137.1,31.1,137.1,31z"/>
					<path fill="#4F4F4F" d="M53.3,7.2l-1.3,0C52.4,7.2,52.9,7.2,53.3,7.2z"/>
					<path fill="#4F4F4F" d="M43.7,39.7l0.3,0C43.9,39.7,43.8,39.7,43.7,39.7z"/>
					<path fill="#4F4F4F" d="M48.3,7.2c-0.2,0-0.5,0-0.7,0c-0.1,0-0.1,0-0.1,0L48.3,7.2z"/>
					<path fill="#4F4F4F" d="M101.7,39.8L101.7,39.8L101.7,39.8z"/>
					<path fill="#4F4F4F" d="M110.1,39.6c-1.2,0-0.6,0.1-0.8,0.1c-1.5,0-0.7-0.1-1.2-0.1c-0.9,0-1.6,0.1-2.3,0.1c-0.1,0-0.2,0,0,0
						c-1,0.1-2.8,0-4,0.1c-0.1,0-0.1,0-0.1,0c0.2,0,0.2,0.1,0.2,0.1c-0.5,0-1,0-1.2,0c0.3,0,0.4,0,0.5,0l-0.6,0
						c-0.5-0.1,0.8,0,0.8-0.1c-1.1,0-2.4,0.1-3.3,0.1c-0.2-0.1,2,0,0.9-0.1l1.3,0c-1-0.1,0.8,0-0.1-0.1c-1.7,0-1.9,0-3.7,0
						c-0.4,0,0.1,0.1-0.3,0.1c-2.5,0.1-1.9-0.2-3.8-0.1c-0.5,0-0.7,0.1-1.9,0.1l0.4-0.1c-1.7,0-1,0.1-2.7,0.1c0.3,0,1.3,0,1.1,0
						c-1.1-0.1-0.8,0-1.7,0l-0.2-0.1c-1.8,0-3.8,0-5.8,0.1c0.1,0,0.5,0,0-0.1c-2.5,0-5.3,0-7.8,0L73,39.7c-0.2,0-0.4,0-0.2,0
						c-0.9,0,0,0-0.5,0.1c-0.5,0-0.7,0-0.4,0c-1.7,0-4.7,0.1-6.5,0l0.3,0c-1.4,0-1.5,0.1-2.8,0.1l0.2,0c-3,0-6.2,0-8.5-0.1
						c-0.4,0.1-2.9,0-3.1,0.1c-1.7-0.1-1.2-0.1-3.6-0.1c-0.6,0-0.9,0.1-1.7,0.1l0-0.1l-1.1,0.1l-0.6-0.1l-0.7,0c0.3,0,0.6,0,0.6,0
						c-0.6,0-1.3,0-1.8,0c-0.6,0-1,0-1-0.1L39,39.7c0.1,0,0.5,0,0.9,0c-1.5,0.1-0.3-0.1-1.6,0c0.2,0-0.1,0-0.1,0c-0.7,0-2.2,0-3.3,0
						l0.2,0c-2,0-4.3,0-6.5,0c0.8,0,0.6,0.1,0,0.1l-0.3-0.1c-0.4,0,0.7,0-0.2,0.1c-0.8,0-0.6-0.1-0.1-0.1l-1,0c-0.1,0,0.2,0,0.2-0.1
						c-0.4,0-1.8-0.1-2.4,0l-0.1,0c-2.3,0-3.3,0-5.1,0c0,0.1-0.8,0-1.3,0.1c-1.4,0-2.9-0.1-4.5-0.1c-1.1,0-0.3,0-0.9,0.1
						c0,0-0.5,0-0.7-0.1c-0.2-0.1-0.2-0.3,0-0.1c-0.1-0.1-0.1-0.2-0.1-0.4c0-0.2,0-0.4,0-0.6c0-0.4,0-0.7,0-1c0-0.7,0-1.4,0-2.7
						c0,0.3,0,0.6,0,0.4c0-0.5,0-1,0-1l0,0.1c-0.1-2.8,0.1-6.4,0-8.6l0,0.1l-0.1-2.3c0-1.1,0,0.6,0.1-0.1c-0.1-2.5,0-3.9,0-6
						c0.1-1.6,0-5.6,0.1-7.7l0,0.1c0-0.6,0-0.7,0-1.1c0,0.1,0,0.6,0,0.3l0-0.9l0-0.4l0-0.2c0-0.1,0-0.1,0-0.1c0-0.1,0.1-0.2,0.2-0.2
						c0.1,0,0.2,0,0.3,0l0.9,0c1.2,0,2.4,0,3.6,0c2.4,0,4.9,0,7.3,0.1c1.8,0,1-0.2,3.2-0.1l-0.6,0.1c3.5-0.1,7.2,0,10.7-0.1
						c-0.2,0-0.2,0-0.5,0c0.4,0,1,0,1.6,0c0.3,0,0.6,0,0.8,0c0.2,0,0.3,0,0.3,0c0.5,0,0.1,0,0.5,0.1c0.7,0,1.8-0.1,2.2,0
						c0.1,0-0.2,0-0.3,0c0.5,0,2.2,0,1.8,0c1.3,0,2.5,0,3.5,0c0.7-0.1,2.2,0,2.4-0.1c-0.1,0.1,2.3,0.1,3.1,0c-0.3,0,0.7,0,0.4,0.1
						c0.9,0,1.8,0,1.6-0.1c1.7,0.1,3.5-0.1,4.4,0c2.8,0,5.4-0.1,7.9-0.1c-0.1,0.1-2.8,0-2.7,0.1c2.4,0,3.7-0.1,6.1-0.1
						c0.6,0-0.3,0-0.6,0.1c2.4,0,4.6,0,6.7,0c0,0-0.2,0-0.4,0c0.4,0,1,0,0.9,0l-0.4,0C76.4,7.1,78.7,7,78.8,7c-0.7,0.1,2.1,0,1,0.2
						c0.3,0,0.6,0,0.6-0.1c0.4,0,0.5,0,0.1,0.1c1.5,0,1-0.1,2.3-0.1c0,0-0.3,0-0.4,0c0.7,0,1.4-0.1,2.5-0.1c-0.1,0,0.1,0-0.3,0
						c2,0,3.3-0.1,5.5-0.1c-0.6,0.1,0.7,0,0.8,0.1l1.2,0l-0.5,0c1,0,1.9-0.1,2.8,0l-0.8,0l1.9,0l-1.1,0c1,0-0.1-0.1,1.2-0.1
						c-0.3,0,1,0,1.5,0l0,0c0.5,0,1,0,1.8,0c0.2,0-0.2,0.1,0,0.1c0.5-0.1,2.4,0,3-0.1c-0.2,0-0.2,0.1-0.2,0.1l0.4,0
						c0.5,0,0.5,0,0.5,0.1c1.4,0-0.4-0.1,1.2-0.1c-0.1,0-0.1,0-0.3,0c1.7,0,3.2,0,4.8,0c0.5,0.1-1.4,0-0.8,0.1
						c2.2,0,4.6-0.1,6.8-0.1l-0.4,0c0.3-0.1,1.6,0.1,2.7,0c-0.3,0-0.4,0.1-0.3,0c1.5,0,3,0,5.3-0.1l-0.3,0c0.9,0,2.3,0,3.2,0
						c0.3,0,0.8,0,0.5-0.1c2.9,0.2,5.5-0.1,8.1,0c-0.3,0-0.7,0-0.5,0l2.2,0c-0.2,0-0.3,0-0.7-0.1c0.3,0,0.9,0,1.4,0
						c-1,0,0,0.1,0.4,0.1c-0.1,0,0.1,0,0,0c0.6,0,0.6,0,0.7,0c0,0,0.1,0,0.2,0.1c0.1,0.1,0.3,0.3,0.2,0.7l0-0.1c0,0.6,0,1.1,0,1.8
						c-0.1,0.3,0-0.6-0.1-0.7c0,0.9,0.1,1.7,0,2.6c0-0.4,0-0.9,0-1.3c-0.1,0.9,0,1-0.1,1.6l0-0.1l0,1.5l0-0.4c0.1,1.1,0,2.3,0.1,3.8
						c-0.1-1.5,0-0.2-0.1-0.4c0,0.4,0,1-0.1,0.8c0,0.7,0,1.2,0,2.2c0,0,0,0.8,0,0.6c0,0.9,0-0.2,0.1-0.1c0.1,1.4-0.1,3.3,0,5.4
						c0.1,1.7,0.1,2.1,0.1,3.7c0,0.5-0.1-0.5-0.1-0.5c0,0.9,0,1.6,0,2.4c0-0.2,0,0-0.1,0.3c0,0.7,0.1,0.4,0,1.3
						c0-0.2-0.1-0.3-0.1-0.7c0,0.8,0,1.6,0.1,2.4c0,0.2,0-0.5-0.1-0.8c0,0.9,0,2.4,0.1,2.7l0-0.6c0,0.3,0,0.2-0.1-0.1
						c0-0.8,0-1.1,0-1.2l0,0.6c0.1-0.6,0-2.3,0-3.5l0.1,0.5l-0.1-1.2c0-0.3,0.1-0.4,0.1,0.1c0-0.8,0-0.7,0-1.5c0-0.1,0,0,0,0l0-0.8
						c0,0.2,0.1-0.1,0,0.4c0-1.5-0.1-2.4,0-2.9l0,0.1c0-2-0.1-0.2-0.1-1.7l0.1-1l-0.1-0.2c0-0.2,0-0.6,0-0.6c0-0.8,0,0.1-0.1-0.3
						c0.1-1,0-2.8,0.1-3c0-0.4,0,1-0.1-0.1c0.1-0.3,0-1.3,0-2.2c0.1,0.3,0,1.2,0.1,0.2c-0.1-0.6,0-1.8,0-2.6c-0.1,0,0-1.7-0.1-3
						c0,0.1,0-2.5,0.1-3.7l0,0c0-0.1-0.1-0.2-0.2-0.4c-0.1-0.1-0.4-0.3-0.6-0.2c-0.5,0-1,0-1.5,0c0,0,0.2-0.1,0.7-0.1l-0.9,0
						c-0.2,0-0.5,0-1,0l0.2-0.1c-1.1,0-2.3,0.1-3.8,0c-0.1,0,1.2,0.1-0.4,0.2c-0.1,0-0.1-0.1,0.3-0.1c-0.1,0-0.5,0-0.7,0l0.6,0
						c-0.7,0-0.4,0-0.9,0c0,0-0.4,0-0.3-0.1c0.1,0,0.5,0,0.7,0c-0.6,0-1.3,0-1.6-0.1c0.1,0,0,0.1-0.4,0.1c-1.1,0-0.4,0-1.1-0.1
						c-0.3,0-1,0-1,0.1c-0.3,0-0.4,0-0.5,0c-0.6,0-2.8,0-2.1,0.1l0.2,0c0,0-0.1,0-0.1,0h0h0c-1.9,0.1-4,0-6,0l0,0
						c-1.2,0-2.6,0-3.4,0.1c-0.3,0-0.8,0-0.7-0.1c-0.9,0-1,0-2.3,0c0.9,0-0.3,0,0.9,0c-1.1,0-1.4,0-2.6,0c0.4,0-0.9-0.1-1.4,0l0.8,0
						c-0.6,0-1.1,0-1.7,0l0.3-0.1c-2.3-0.1-4.2,0.1-6,0c-0.6,0,1.3,0,0.7,0.1c-1.1,0-2.2-0.1-2.5-0.1c-1.5,0-1.4,0.1-2.9,0.1
						c0.2,0,0.4,0.1-0.8,0.1c-1.1,0-1.3-0.1-0.6-0.1c0.3,0,0.4,0,0.4,0c0.3,0,0.8,0,0.4,0l-0.1,0c-0.5,0-2,0-1.7-0.1
						c-0.8,0-0.3,0,0.3,0c-1.4,0-2.2,0-3.6,0c0.2,0,0.4,0,0.2,0c-2.1,0-0.9,0-2.3,0.1c-0.8,0,0.3-0.1-1.1-0.1
						c-0.9,0-0.2-0.1,0.2-0.1c-1.3,0-2.4,0-3.2,0l0.7,0c-0.4,0-0.7,0-1.1,0l0.4,0c-0.4,0-0.7,0-0.7,0c-0.4,0,0.3,0.1-0.5,0.1
						c-0.5,0-1.6,0-1.8,0c1.7,0-0.2-0.1,1.2-0.1c-0.3,0-0.6,0-1,0c-0.1,0,0.1,0,0.2,0c-1.6-0.1-0.7,0.1-2.4,0.1
						c0.2,0-0.4-0.1-0.7-0.1c0.7,0,0.3,0.1-0.3,0.1c-1.1,0-1.2,0-1.7,0l0.6,0c-0.2,0-0.8,0-1.5,0c-0.1,0,0.7,0,0.4,0
						c-0.8,0.1-1.9-0.1-3,0c-0.5,0-0.1-0.1-0.5-0.1c-1.3,0-1.4,0-2.8,0c0.4,0,0.5,0-0.5,0.1l2.2,0l-1.4,0.1c0.7,0,1.4,0,1.8,0
						c-0.7,0-0.6,0-0.3,0.1c-0.9-0.1-1.8,0-2.9,0l0-0.1c-1.6-0.1-2.9,0.1-4.9,0l0.7,0c-0.3,0-1.3,0-2,0c0.1,0-0.4-0.1-0.6-0.1
						c0,0-1.5,0-1.7,0.1l-0.9-0.1c-1.7,0-1.9,0.1-3.5,0.1c0.5,0-0.2-0.1,0.8-0.1c-0.5,0-1,0-1,0c-0.3,0-1.5,0.1-2,0
						c-0.2,0-0.3,0.1-0.9,0.1c-0.1,0,0,0,0,0c0,0-1,0-0.4,0.1c-1.7-0.1-4.7,0-6.1-0.1c-1.2,0-2.6,0-3.7,0c0.1,0,0,0,0.2,0
						c-1.5,0-0.9,0.1-2.6,0.1c-0.9-0.1,0.9,0,0.4-0.1c-0.2-0.1-2,0-3.2-0.1l0.3,0c-0.9,0-2.1,0-3.5,0c0,0,0.1,0,0,0
						c-1,0.1-2.8,0.1-4.2,0.1c0.4,0,0.6,0,0.4-0.1c-0.6,0,0.2,0.1-1,0.1c-0.4,0-1.3-0.1-1.4-0.1l1.1,0c-0.6-0.1-1.5,0-2.1,0l0.1,0
						c-1.8,0-1.8,0.1-3.7,0.1l0.2,0c-1,0.1-0.9,0-1.9,0l-0.3-0.1c-0.7,0-2.4,0.1-3.6,0.1c0.7-0.1,2.1-0.1,3-0.1c-0.7,0-2.3,0-2.6,0
						c0.3,0,0.6,0,0.9,0c-0.8,0.1-1.9,0.1-3.3,0.1c0.1-0.1-0.8-0.1-1.8-0.1c-0.3,0-0.5,0-0.8,0c-0.1,0-0.3,0-0.4,0
						C12.1,6.9,12,7,11.9,7.1c-0.1,0.1-0.1,0.3-0.1,0.4c0,0.1,0,0.2,0,0.3c0,0.2,0,0.4,0,0.5c0.1,2.4,0,4.7,0,7.5
						c0.1-1,0,0.8,0.1,0.6c0,0.6,0,0.9,0,1l-0.1,2c0,0.5,0-0.6-0.1-0.6c0,1.4-0.1,0.6-0.1,1.5c0-0.2,0.1,0.5,0,1.3l0.1-1.1
						c0.1,2-0.1,1.7,0,3.7l0-0.6c0,1,0,3.8,0.1,4.8c0,0.2,0,0.4-0.1,0c0,2.4,0.1,5.4,0,7.3l0-0.2c0,0.5,0.1,0.8,0,1.4c0,0,0-0.2,0,0
						c0,0.2,0.1,1.2,0,1.8l0-0.5c0,0.3,0,0.6,0,0.8c0,0.1,0,0.2,0,0.4c0,0.2,0.1,0.3,0.2,0.5c0.2,0.3,0.7,0.3,0.8,0.3
						c0.2,0,0.4,0,0.7,0c0.9,0,1.7-0.1,2.7-0.1c0,0.1,1.9,0.1,2.8,0.1l0,0c2.8,0,4.7-0.1,7.3-0.1c1.6,0.1,5.4,0,8,0.1
						c-0.4,0,0.1-0.1,0.5-0.1c0.6,0,1.7-0.1,1.6,0l-0.2,0c0.5,0.1,1.7,0.1,2.7,0.1l0.2-0.1c2.5,0.1,6.6-0.1,8,0.1c0.6,0,1.4,0,2-0.1
						l0,0.1c1.7,0,2.5,0,4.6,0l-0.4,0c1.2,0,1.5-0.2,2.6-0.2l0.3,0.1c2.1,0,4.1,0.1,6.2,0c0,0-0.1,0-0.4,0c1,0,3.7,0.1,3.4-0.1
						c0,0.1,2.1,0,3.2,0L68,40.2c0.9-0.1,1-0.1,2.3-0.1c0.3,0,0.3,0-0.1,0c1,0,0.8-0.1,2.1,0l-0.5,0c1.1,0,1,0,1.6-0.1
						c0.7,0,2,0,2.2,0.1c0.1,0,0.7-0.1,1.4-0.1c0.1,0-0.1,0-0.3,0c1.8,0,2.6-0.1,3.9,0c0,0,0.1,0,0.2,0c-1.4,0-2.3,0-2.4,0
						c0,0,1.1,0.1,0.2,0.1c0.9,0,2.5-0.1,3.6-0.1c0.1,0,0.1,0,0.1,0l-0.1,0c0.3,0,0.5,0,0.7,0c0.4,0,0.6,0,0.9,0c0.1,0,1.3,0,1.9,0
						c0-0.1,0.7,0,0-0.1c0.1,0-0.1,0-0.5,0c-0.1,0-0.2,0-0.2,0l0,0c-0.4,0-0.9,0-1.4,0c0.4,0,0.9-0.1,1.5,0c0.3,0,0.6-0.1,0.8-0.1
						c0.8,0.1,2.3,0.1,2.5,0.2c1.7,0,4.1,0,5.2-0.1c0.5,0,0.6,0,0.8,0c-0.3,0-0.6,0-0.8,0c1,0,2.9,0,3.2-0.1c1.2,0-0.7,0.1,1,0.1
						l-0.2,0c3.4,0.1,5.5-0.2,9.2,0c-0.3,0-0.4,0-0.4,0c4.2,0.1,8.8-0.1,12.9,0c1.2,0,1.3,0,2-0.1l0.3,0.1l1.2-0.1
						c1.8,0,3.1,0.1,5.3,0.1l-0.3,0c0.8,0,2.5,0,2.4,0c0.1,0,0.3,0,0.6,0l0,0l2-0.1c1.5,0-0.2,0.1,2,0.1c0.8,0,2.4-0.1,2-0.1
						c-0.3,0-0.9,0-0.9,0l0.8,0c0.1-0.1,0.7-0.2-1.1-0.2l-1.3,0.1l-0.4,0l1.1,0c-0.6,0-1,0-1.5,0c-0.1,0-0.3,0-0.5,0l-1.3,0.1
						c-0.2,0,0.6-0.1-0.3-0.1c-0.6,0,0.6,0.1-0.4,0.1c-0.6,0-0.4-0.1-1.2,0c-0.1,0,0.1,0,0.3,0c-0.6,0-1.7,0-2,0.1
						c-0.6-0.1-2.2,0-2.1-0.1c-0.2,0-1.1,0.1-1.7,0.1c1.1-0.1-2.2,0-1.9-0.1c-0.8,0.1-2.9,0-4.3,0.1c0.1,0,0.2,0,0.4,0
						c-0.8,0-1,0-1.6-0.1c-0.1,0.1-1.4,0.1-2,0.1c-1-0.1,0.6-0.1,0.3-0.2c0,0.1-1.7,0.1-1.4,0.1c-0.8,0-0.6,0-1-0.1
						c-0.1,0.1-0.7,0-1.3,0.1c-1.1,0-0.3-0.1-1.5-0.1C109.1,39.7,110.1,39.6,110.1,39.6z M81.7,39.8L81.7,39.8c0.2,0,0.5,0,0.6,0
						C82.2,39.8,82,39.8,81.7,39.8z M79.3,39.8c0.3,0,0.7,0,1,0c0.1,0,0,0-0.2,0C80.3,39.8,79.7,39.8,79.3,39.8z M84.4,40.2
						c-0.4,0-0.5,0-0.6,0c0.2,0,0.4,0,0.7,0c0,0,0,0,0,0C84.5,40.2,84.5,40.2,84.4,40.2z"/>
					<path fill="#4F4F4F" d="M85.1,40.1c0.1,0,0.1,0,0.2,0C85.1,40.1,85.1,40.1,85.1,40.1c-0.1,0-0.2,0-0.2,0
						C84.9,40.1,85,40.1,85.1,40.1z"/>
					<path fill="#4F4F4F" d="M122.8,6.9L122.8,6.9C122.8,6.9,122.9,6.9,122.8,6.9C122.8,6.9,122.8,6.9,122.8,6.9z"/>
					<polygon fill="#4F4F4F" points="46.4,39.7 46.4,39.7 46.6,39.7 					"/>
					<path fill="#4F4F4F" d="M136,7c0,0,0.1,0,0.2,0C136.1,7.1,136.1,7,136,7z"/>
					<path fill="#4F4F4F" d="M137.1,11.6l0,0.8C137.1,12.1,137.1,11.8,137.1,11.6z"/>
					<path fill="#4F4F4F" d="M137.1,16C137.1,16,137.1,16,137.1,16L137.1,16L137.1,16z"/>
					<path fill="#4F4F4F" d="M76.6,7.1c-0.1,0-0.1,0-0.2,0C76,7.2,76.3,7.2,76.6,7.1z"/>
					<path fill="#4F4F4F" d="M97.2,7c-0.2,0-0.4,0-0.7,0C96.9,7,97.2,7.1,97.2,7z"/>
					<path fill="#4F4F4F" d="M53.5,7.2L53.5,7.2c0,0-0.1,0-0.1,0L53.5,7.2z"/>
					<path fill="#4F4F4F" d="M95.6,7c0.4,0,0.7,0,1,0C96.3,7,95.9,7,95.6,7z"/>
					<path fill="#4F4F4F" d="M137.1,34.9l0,0.2c0,0,0,0,0,0L137.1,34.9z"/>
					<path fill="#4F4F4F" d="M137.1,35.1l0,0.2C137.1,35.3,137.1,35.2,137.1,35.1z"/>
					<path fill="#4F4F4F" d="M137.1,35.9l0-0.5C137.1,35.6,137.1,35.8,137.1,35.9z"/>
					<path fill="#4F4F4F" d="M137.1,29.1L137.1,29.1C137.1,29.1,137.1,29.1,137.1,29.1z"/>
					<path fill="#4F4F4F" d="M137.1,27.4c0,0.4,0,1.1,0,1.6l0,0.1C137.1,28.8,137.1,27.8,137.1,27.4z"/>
					<path fill="#4F4F4F" d="M137.3,20l0,1.5c0-0.3,0-0.6,0.1,0.1C137.4,19.7,137.3,22,137.3,20z"/>
					<path fill="#4F4F4F" d="M137.4,15.5C137.4,16.3,137.4,15.5,137.4,15.5C137.4,15,137.4,14.9,137.4,15.5z"/>
					<path fill="#4F4F4F" d="M112.5,6.8L112.5,6.8C112,6.8,112.6,6.8,112.5,6.8z"/>
					<polygon fill="#4F4F4F" points="106.2,7.1 106.8,7.1 107.1,7.1 					"/>
					<polygon fill="#4F4F4F" points="102.5,6.7 102.8,6.7 101.7,6.7 					"/>
					<path fill="#4F4F4F" d="M47.1,6.7l0.2,0.1C47.7,6.8,47.7,6.7,47.1,6.7z"/>
					<path fill="#4F4F4F" d="M23.1,6.8c-0.3,0-0.9-0.1-1.3,0C22.3,6.8,22.9,6.8,23.1,6.8z"/>
					<polygon fill="#4F4F4F" points="40,40.2 39.5,40.2 40.4,40.2 					"/>
				</g>
			</g>
		</g>
	</g>
</g>
<rect x="12.7" y="16.1" fill="none" width="125.9" height="15.9"/>
<text transform="matrix(1 0 0 1 25.6464 24.6484)" font-family="'ArialMT'" font-size="12">CONTEXTUALISE</text>
<g>
	<path fill="#FAFDFF" d="M13.9,33.9h634.5c1.9,0,3.4,1.5,3.4,3.4V215c0,1.9-1.5,3.4-3.4,3.4H13.9c-1.1,0-2.1-0.9-2.1-2.1V36
		C11.8,34.9,12.7,33.9,13.9,33.9z"/>
	<g>
		<g>
			<g>
				<g>
					<path fill="#8DCFE8" d="M13.9,34.7c0.4,0,0.5-0.1,0.2-0.2c-0.2,0-0.4-0.1-0.6,0c-0.3,0.1-0.6,0.2-0.9,0.6c0,0-0.1,0.3-0.1,0.6
						c0.1,0.4,0.2,0.7,0.2,0.7s0-0.2,0-0.5c0-0.2,0.1-0.5,0.2-0.7c0.2-0.2,0.4-0.4,0.6-0.5C13.7,34.7,13.9,34.7,13.9,34.7z"/>
					<path fill="#8DCFE8" d="M11.9,48.8c0.2,2.8,0.5,6,0.8,4.2c-0.4-2.8-0.2-3.5-0.6-6.4c0-2.4,0.1-4.2,0.3-3.8
						c-0.1-0.8,0.1-3.7-0.2-5c-0.3,3.1-0.3,7-0.1,11.1C12,49.9,12,49,11.9,48.8z"/>
					<path fill="#8DCFE8" d="M76.3,219l-1.5,0C75.2,218.9,75.7,219,76.3,219z"/>
					<path fill="#8DCFE8" d="M220.7,219.2c-1.1,0-1.6,0-1.6,0.1C220.1,219.2,221,219.2,220.7,219.2z"/>
					<path fill="#8DCFE8" d="M245.4,219.6c-0.5,0-1,0-1.5,0C244.5,219.6,245.1,219.6,245.4,219.6z"/>
					<path fill="#8DCFE8" d="M76.3,219l3.9,0.1C80.4,219,78.1,219,76.3,219z"/>
					<path fill="#8DCFE8" d="M12.8,81c0-0.8-0.1-1.5-0.1-2.1c0,0.7,0,1.3,0,2C12.7,80.9,12.8,80.9,12.8,81z"/>
					<path fill="#8DCFE8" d="M12.2,218.7c0,0-0.3-0.2-0.6-0.6c-0.3-0.3-0.4-0.7-0.4-0.7c-0.1-0.2-0.2-0.4-0.2-0.7
						c0-0.2-0.1-0.4-0.1-0.6c0,0,0,0.2,0,0.4c0,0.3,0.1,0.7,0.3,1c0.2,0.3,0.4,0.6,0.6,0.8C12,218.6,12.2,218.7,12.2,218.7z"/>
					<path fill="#8DCFE8" d="M10.9,169.4c0,1.1,0.3,1.5,0.4,1.9c-0.1-0.6-0.2-1.4-0.2-2.4C11.1,168.9,11,169,10.9,169.4z"/>
					<path fill="#8DCFE8" d="M11.5,91.9l0-1.4C11.5,90.9,11.5,91.5,11.5,91.9z"/>
					<path fill="#8DCFE8" d="M47.6,219.3c0.1,0,0.3,0.1,0.4,0.1C48,219.4,47.8,219.4,47.6,219.3z"/>
					<path fill="#8DCFE8" d="M70.5,35.4C70.6,35.4,70.5,35.4,70.5,35.4C70.3,35.4,70.2,35.4,70.5,35.4z"/>
					<path fill="#8DCFE8" d="M13.9,33.9l0.8,0c0.1-0.1,0.2-0.1,0.2-0.2L13.9,33.9z"/>
					<path fill="#8DCFE8" d="M290.6,220c-0.1,0-0.1,0-0.2,0C289.2,220,289.8,220,290.6,220z"/>
					<path fill="#8DCFE8" d="M653.1,163.8c-0.3,4.7-0.4-7.6-0.7-0.6C652.6,162.6,653,169.7,653.1,163.8z"/>
					<path fill="#8DCFE8" d="M12.7,82.2c0,0.7,0,1.3,0,2C12.8,83.3,12.8,82.7,12.7,82.2z"/>
					<path fill="#8DCFE8" d="M652.5,163.2L652.5,163.2l0,0.7C652.4,163.7,652.4,163.5,652.5,163.2z"/>
					<path fill="#8DCFE8" d="M394.6,219.8c-0.2-0.1-0.6-0.1-1.1-0.1C393.5,219.7,393.8,219.7,394.6,219.8z"/>
					<path fill="#8DCFE8" d="M317.1,219.3l1.9,0C318.2,219.4,317.6,219.3,317.1,219.3z"/>
					<path fill="#8DCFE8" d="M434.8,219.3c1,0,1.4,0.1,2.8,0c-0.1,0-0.3,0-0.4,0C436.7,219.4,436,219.4,434.8,219.3z"/>
					<path fill="#8DCFE8" d="M476.7,219.3c-0.2,0-0.5,0-0.8-0.1c-0.4,0-0.9,0-1.3,0L476.7,219.3z"/>
					<path fill="#8DCFE8" d="M197.8,35.3c-0.9-0.1-1.5-0.2-1.9-0.3C196.5,35.2,190.4,35.3,197.8,35.3z"/>
					<path fill="#8DCFE8" d="M12.6,81c0.1,0.2,0.1,0.6,0.1,1.2c0-0.5,0-0.9,0-1.4C12.7,80.7,12.6,80.7,12.6,81z"/>
					<path fill="#8DCFE8" d="M436.5,216.8l6.7,0C441.3,216.9,438.9,216.8,436.5,216.8z"/>
					<path fill="#8DCFE8" d="M498.3,35.2l-1.5,0C497.3,35.3,497.9,35.3,498.3,35.2z"/>
					<path fill="#8DCFE8" d="M462.9,216.8c1.2,0.1,2.4,0.2,3.7,0.2c0.3,0,0.6,0,0.8-0.1L462.9,216.8z"/>
					<path fill="#8DCFE8" d="M195.9,35C195.9,35,195.9,35,195.9,35C195.9,35,195.9,35,195.9,35z"/>
					<path fill="#8DCFE8" d="M152,35.7c6.3,0,3-0.4,4.3-0.6c7.6-0.1,3.5,0.3,6.1,0.5c4.7-0.1,8.3-0.5,11.9-0.5
						c0.3,0.1,0.9,0.1,0.1,0.2c5-0.3,14.8,0,20.6-0.4c0.4,0,0.7,0.1,0.8,0.1c-0.9-0.2-1.1-0.4-0.9-0.6c2.8,0,5.3-0.3,6.3,0
						c-1.7,0-1.9,0.1-2.7,0.2l3-0.1c2.7,0.4-4.1,0.1-4.1,0.4c5.8-0.1,12.6-0.5,17-0.3c0.9,0.4-10.4,0.1-4.5,0.5l-6.9-0.1
						c5.3,0.6-4.2,0,0.7,0.6c9.1,0.1,10.1-0.2,19.2-0.1c2-0.2-0.7-0.3,1.4-0.5c12.8-0.4,10.1,1,19.6,0.5c2.4-0.3,3.4-0.7,10.1-0.5
						l-2.3,0.4c8.8,0,5-0.6,14.2-0.3c-1.6,0.2-6.9,0.1-5.6,0.2c6,0.3,4.2-0.2,8.8-0.2l0.9,0.4c9.3-0.1,19.6-0.3,30-0.4
						c-0.6,0.1-2.3,0.2,0.1,0.4c13-0.2,27.8,0,40.4,0.3l4.8-0.3c1.1,0,2.1,0.2,0.9,0.2c4.9,0.1,0.3-0.2,2.6-0.3
						c2.8,0,3.7,0.2,1.9,0.3c8.7-0.3,24.7-0.6,33.8-0.3l-1.8,0.1c7.1,0.1,8-0.7,14.6-0.4l-1.3,0.1c15.4,0.1,32.4-0.2,44.2,0.3
						c2.2-0.5,15.3,0.2,16.2-0.5c8.8,0.3,6.3,0.5,18.7,0.7c3.3,0,4.9-0.4,9-0.5l0.1,0.3l5.6-0.4l3,0.4l3.8-0.1c-1.5,0-3.2-0.2-3-0.3
						c3-0.1,6.7,0,9.6,0.1s5.1,0.2,5.2,0.3l14.2-0.3c-0.3,0.1-2.7,0.2-4.6,0.3c7.6-0.4,1.4,0.4,8.3,0c-0.9-0.1,0.5-0.2,0.7-0.3
						c3.5,0.2,11.3,0.2,17.2,0.1l-1.1,0.2c10.5,0.1,22.2-0.1,34-0.1c-4.2-0.1-3.3-0.5,0.2-0.6l1.4,0.4c2.2-0.2-3.6-0.1,1-0.4
						c4.4,0,3,0.4,0.4,0.5l5.4-0.1c0.3,0.1-0.9,0.2-1.3,0.3c2.2-0.2,9.3,0.4,12.4,0l0.3,0.1c11.8-0.1,17.2-0.1,26.8-0.1
						c0.2-0.3,3.9-0.2,6.8-0.5c3.5,0.1,7.3,0.1,11.2,0.2c2,0,4,0.1,6,0.1l0.8,0c0.2,0,0.3,0,0.5,0.1c0.3,0.1,0.6,0.2,0.8,0.4
						c0.2,0.2,0.4,0.5,0.6,0.7c0.1,0.3,0.2,0.5,0.2,1c0.2,6,0.3,1.7,0.5,4.4c-0.3,0.4-0.3,8.9-0.5,4.5c0,10.2,0.1,13.1,0.3,26
						c0.1-1.4,0.2-3,0.3-2.2c0,2.3-0.1,5.3-0.3,5l0-0.6c0.4,14.5-0.8,33.5-0.2,45l0-0.6l0.3,12c0,5.5-0.2-3.3-0.4,0.8
						c0.5,12.9-0.1,20.4,0.3,31.1c-0.9,8.2,0.1,29.2-0.5,40.3l0.2-0.6c0.2,2.9-0.1,3.5-0.2,5.6c0.2-0.3,0.2-3.1,0.3-1.3
						c0,1.5,0,3,0,4.6l0,2.3l0,1.2c0,0.2,0,0.3,0,0.4c0,0.1,0,0.2-0.1,0.3c-0.1,0.5-0.4,0.9-0.8,1.1c-0.2,0.1-0.4,0.2-0.6,0.3
						c-0.1,0-0.2,0-0.4,0.1l-0.2,0l-0.3,0c-1.6,0-3.1,0-4.7,0c-6.2,0-12.5-0.1-18.9-0.1c-12.6-0.1-25.3-0.3-37.8-0.4
						c-9.1-0.1-5.2,1-16.7,0.6l3.3-0.4c-18.4,0.4-37.7,0-55.7,0.4c1.1-0.1,1.1-0.2,2.9-0.2c-1.9-0.1-5.4-0.1-8.5-0.1
						c-3.1,0.1-5.6,0.2-5.7,0.3c-2.8,0-0.7-0.2-2.4-0.3c-3.8-0.2-9.6,0.3-11.6,0.1c-0.3,0,1.1-0.1,1.8-0.1c-2.5,0.1-11.6,0-9.2,0.3
						c-6.8-0.1-12.9,0.1-18.3,0c-3.5,0.4-11.6-0.2-12.7,0.3c0.5-0.5-11.9-0.4-16.1-0.2c1.4-0.2-3.7-0.2-2-0.4
						c-4.9,0-9.4,0.1-8.5,0.4c-9-0.6-18.1,0.5-23.1-0.3c-14.5,0.3-27.9,0.5-41,0.6c0.5-0.5,14.4-0.1,13.9-0.6
						c-12.4,0.2-19.5,0.6-31.8,0.5c-3.2-0.1,1.8-0.2,2.9-0.3c-12.4,0.2-23.9,0-34.9,0.2c0,0,1.2-0.1,2.3-0.1c-2.2,0-5-0.1-4.8,0.2
						l2.1-0.1c3.5,0.3-8.6,0.7-9,0.9c3.7-0.7-10.9-0.2-5-1c-1.4,0-3.2,0.2-2.9,0.3c-2.1,0-2.8-0.1-0.6-0.3c-7.8,0.1-5,0.4-12,0.4
						c0-0.1,1.4-0.2,2.2-0.3c-3.6,0.2-7.1,0.4-13.1,0.3c0.4-0.1-0.3-0.2,1.4-0.2c-10.2,0-17.4,0.6-28.6,0.4c3.3-0.5-3.8-0.2-4.4-0.6
						l-6,0.1l2.4,0.2c-5.3,0-9.9,0.3-14.5,0.2l3.9-0.2l-9.9,0.1l5.6,0.2c-5.3,0.2,0.6,0.5-6.5,0.4c1.4,0-5.3,0-8-0.3l0,0
						c-2.6,0.1-5.3,0.3-9.2,0.2c-1-0.1,0.8-0.5,0.2-0.6c-2.6,0.4-12.4,0.1-15.6,0.5c1.1-0.1,1.1-0.3,0.8-0.4l-2.2,0.3
						c-2.4-0.1-2.8-0.1-2.4-0.3c-7.4-0.1,2.3,0.5-6.4,0.3c0.7,0,0.4-0.1,1.8-0.1c-8.8-0.1-16.9,0.2-25,0c-2.4-0.4,7-0.1,4.3-0.5
						c-11.6,0.1-24.1,0.5-35.3,0.4l2.1,0c-1.6,0.6-8.4-0.3-14.1,0c1.4,0,1.8-0.3,1.4-0.3c-7.7-0.1-15.7,0.1-27.4,0.3l1.4-0.2
						c-4.5-0.1-11.9-0.1-16.8-0.1c-1.5,0.2-4.3,0.1-2.6,0.4c-15.1-0.9-28.8,0.5-42.2-0.3c1.6,0,3.8-0.1,2.5-0.1c0,0-2.9,0-5.7,0.1
						c-0.7,0-1.4,0-2.1,0c-0.3,0-0.7,0-1,0c-0.3,0-0.6,0-0.8,0c-0.7-0.1-1-0.6-1-0.6c0.1,0.3,0.3,0.6,0.6,0.8
						c0.3,0.2,1.1,0.1,2.3,0.2c-0.4,0-0.8,0.1-1.4,0.1c-0.3,0-0.6,0.1-0.8,0c-0.3,0-0.6-0.2-0.8-0.3c-0.5-0.4-0.8-1-0.8-1.8
						c0-0.7,0-1.5,0-2.2c0.2,5.1,0.4,0,0.6-2.3c-0.1,0.4-0.2-0.4-0.2-0.2c0.5-6-0.5-1-0.2-9.1l0.1,0.4c-0.1-3-0.3-5.9-0.2-9.1
						c0.3-1.4,0.1,3.2,0.4,3.5c0-4.6-0.6-9.1-0.3-13.3c0,2,0.1,4.8,0.2,6.7c0.4-4.5,0.3-5.1,0.3-8.5l0,0.3l0.2-7.8l-0.1,2
						c-0.8-5.8-0.1-11.8-0.7-19.5c0.5,7.6,0.3,1.3,0.6,1.8c0.1-2,0.2-5,0.3-4.1c-0.3-3.7,0.2-6.1-0.2-11.3c0.1-0.2,0-3.9,0.3-3.1
						c-0.1-4.8-0.2,1.1-0.3,0.7c-0.4-7.4,0.5-17.3-0.1-27.9c-0.2-9.1-0.6-10.8-0.8-19.3c0.2-2.9,0.4,2.3,0.4,2.3
						c0.2-4.6,0.1-8.1,0-12.4c0.1,0.9,0.2,0,0.3-1.4c0-3.5-0.4-2.3-0.2-6.9c0.1,0.8,0.3,1.8,0.4,3.5c-0.1-4.1-0.3-8.2-0.4-12.4
						c0.2-1.1,0.3,2.6,0.4,4.1c-0.1-4.8-0.2-12.4-0.5-13.9l-0.1,3.1c0-1.7,0.3-0.9,0.3,0.4c0.2,4.1-0.1,5.9-0.2,6.2l-0.1-3
						c-0.6,3.1,0.1,12.2,0.1,18.3l-0.5-2.5l0.4,6.3c-0.1,1.3-0.4,2.2-0.5-0.8c-0.2,4.4,0.2,3.9-0.1,7.6c0,0.4-0.1,0.2-0.1-0.2
						l0.1,4.3c-0.1-0.8-0.3,0.7-0.3-1.9c-0.3,7.7,0.4,12.4,0,15.3l0-0.6c0.2,10.7,0.3,1,0.8,9l-0.9,5.4l0.3,1c0,1.1,0,3.3-0.2,2.9
						c0.2,4.1,0.2-0.7,0.4,1.7c-0.3,5.3,0.1,14.6-0.4,15.8c0.3,1.9,0.2-5.1,0.4,0.6c-0.6,1.6,0.1,6.5-0.2,11.4
						c-0.3-1.5-0.1-6.1-0.4-1.2c0.5,2.9-0.1,9.4,0,13.5c0.4,0.2,0.2,8.9,0.3,15.7c-0.1-0.4-0.2,12.9-0.4,19.2l-0.1-0.2
						c0.4,1.2,0.3,7.8,0.4,12.6c-0.2-0.2-0.3-1-0.5-3.6c0,0,0,1.1,0,2.2c0,0.6,0,1.1,0,1.6c0,0.6,0.2,1,0.2,1c0.3,0.7,0.9,1.4,2,1.6
						c0.3,0.1,0.6,0.1,0.8,0.1c0.2,0,0.5,0,0.8,0c0.6,0,1.2,0,1.9,0l-1.1,0.3c6,0,12-0.4,19.7-0.2c0.4-0.3-6.1-0.8,2-1
						c0.3,0.2,0.6,0.4-1.5,0.5c0.7,0,2.5-0.1,3.9-0.1l-3.3,0.3c3.5,0.1,1.8-0.2,4.6-0.2c-0.1,0.2,2.1,0.2,1.7,0.3
						c-0.7,0-2.4-0.1-3.5,0c3.2,0,7,0.2,8.2,0.3c-0.3-0.1,0-0.3,2.3-0.3c6,0,2,0.3,5.5,0.4c1.4-0.2,5.3,0,5.4-0.3
						c1.8,0,2.1,0.2,2.8,0.2c3.1-0.1,14.5,0,11-0.4l-0.8,0c0.1,0,0.3,0,0.5,0c0,0,0,0,0,0h0c10.1-0.3,21.1,0.2,31.2,0l0,0.1
						c6-0.1,13.4-0.1,17.7-0.3c1.8,0,4.2,0.2,3.4,0.3c4.6-0.1,5.1-0.2,11.7,0c-4.6,0.2,1.6,0.2-4.7,0.1c6,0.1,7.3,0.3,13.7,0
						c-2.2,0.3,4.5,0.4,7.3,0.3l-4.2-0.2c3.2,0,6,0,8.8,0l-1.5,0.4c12.2,0.5,22-0.8,31.3,0c3.2-0.3-6.6-0.2-3.7-0.5
						c5.6,0.1,11.5,0.6,13.2,0.6c7.7,0.2,7.2-0.6,15.2-0.4c-1-0.1-2-0.5,4-0.6c5.6,0,6.9,0.6,3.4,0.7c-1.3,0-2,0-1.9-0.1
						c-1.8,0-4.2,0.1-2,0.3l0.7-0.1c2.8,0.1,10.5,0.1,8.7,0.3c4.2-0.1,1.8-0.2-1.3-0.3c7.2,0.2,11.3,0,18.7,0.1
						c-1.2-0.1-2.3-0.2-1.1-0.2c10.9,0.2,4.8-0.3,12.2-0.3c4.2,0.2-1.5,0.5,5.9,0.3c4.5,0.1,1,0.4-0.8,0.5
						c6.8-0.3,12.6,0.2,16.5,0.2l-3.6,0.1c2.1-0.1,3.9-0.1,5.7-0.1l-2-0.3c2.1,0,3.9,0,3.8,0.2c2.2-0.2-1.7-0.4,2.6-0.7
						c2.8,0.1,8.5-0.1,9.5,0.2c-8.8-0.1,1,0.4-6.5,0.4c1.4,0,3.2,0,5.3,0c0.3,0-0.3,0.1-0.9,0.1c8.4,0.3,3.9-0.4,12.6-0.4
						c-1.1,0.2,2,0.4,3.4,0.3c-3.5,0-1.7-0.3,1.5-0.5c5.6,0.2,6.1-0.1,9-0.1l-3.3-0.1c1.1-0.2,3.9-0.2,7.8-0.2
						c0.3,0.2-3.5,0.1-2.1,0.2c4.3-0.4,9.8,0.4,15.8,0.1c2.8,0.1,0.3,0.4,2.7,0.5c6.7-0.3,7.3,0.3,14.4,0.1c-2-0.3-2.4-0.2,2.6-0.5
						l-11.7,0.2l7.5-0.4c-3.5,0-7.4,0.2-9.5,0.1c3.6-0.2,3.2-0.2,1.5-0.4c4.8,0.4,9.5-0.2,15.1,0l-0.2,0.7
						c8.4,0.3,14.9-0.3,25.7-0.2l-3.5-0.1c1.5-0.3,6.7,0,10.2-0.1c-0.3,0.2,1.9,0.3,3.4,0.4c-0.2-0.2,8,0,8.9-0.4l4.9,0.3
						c8.8,0.1,10-0.6,18.5-0.6c-2.5,0.2,1.3,0.4-4.4,0.6c2.8,0,5.3,0,5.4-0.1c1.6,0.1,7.8-0.3,10.4-0.1c1.2-0.1,1.6-0.3,4.7-0.3
						c0.3,0,0,0.1,0,0.1c0-0.1,5-0.2,2.2-0.4c8.7,0.7,24.3-0.1,31.8,0.5c6.1-0.1,13.6-0.1,19.1-0.2c-0.4,0.1,0,0.1-1.1,0.1
						c7.7,0.2,4.7-0.6,13.5-0.4c4.5,0.4-4.7,0.2-1.9,0.3c1.2,0.7,10.6-0.1,16.5,0.3l-1.4,0c4.5,0.2,11-0.3,18.4-0.2
						c0,0-0.4,0.1,0,0.1c5-0.4,14.6-0.5,21.6-0.6c-2.2,0.3-3.2,0.2-1.9,0.4c3.2,0-0.9-0.5,5.4-0.6c2.1,0.2,6.6,0.3,7.2,0.6l-6,0
						c3.1,0.4,7.7,0,10.9,0.1l-0.4,0.2c9.2-0.1,9.3-0.5,19.1-0.5l-1-0.1c5.4-0.4,4.5,0.2,9.9-0.1l1.6,0.4c3.6-0.1,12.4-0.4,18.8-0.5
						c-3.6,0.3-11.1,0.5-15.7,0.7c3.5,0,12,0,13.8-0.3c-1.4,0-3.2,0.2-4.6,0.1c4.3-0.4,10-0.5,17-0.5c-0.6,0.4,3.9,0.5,9.3,0.5
						c1.3,0,2.7,0,4.1,0c0.8,0,1.7-0.2,2.4-0.6c0.7-0.4,1.3-1.1,1.7-1.8c0.2-0.4,0.3-0.7,0.4-1.1c0.1-0.4,0.1-0.8,0.1-1.1
						c0-0.6,0-1.1,0.1-1.6c0-1,0.1-1.9,0.2-2.5c-0.3-12.4,0.1-24.6,0.1-39.1c-0.7,5.1,0-4.2-0.7-3.3c0-3.4,0-4.7,0-5l0.4-10.2
						c0.2-2.4,0.2,3.2,0.3,2.9c0.1-7.4,0.3-3.1,0.5-8c-0.2,1-0.4-2.6-0.3-6.8l-0.3,5.9c-0.4-10.3,0.6-8.9,0.2-19.3l0.2,3.3
						c-0.1-5.3,0-19.7-0.6-24.9c0.1-0.9,0.3-2.2,0.3,0.2c0.1-12.7-0.6-28.3-0.2-38.2l0.2,1c0-2.4-0.3-4.1-0.1-7.1
						c0.1,0.2,0.2,1,0.2-0.1c-0.1-1.3-0.3-6.3-0.2-9.5l0.2,2.7c0.1-6.2,0-11-0.2-15.5c0-0.6,0-1.1-0.1-1.7l0-0.4l0-0.2l0-0.3
						c0-0.4-0.1-0.7-0.2-1.1c-0.5-1.4-1.7-2.5-3.1-2.8c-0.4-0.1-0.7-0.1-1.1-0.1c-0.3,0-0.6,0-0.9,0c-0.6,0-1.2,0-1.8,0
						c-1.2,0-2.4,0-3.7,0.1c0-0.5-9.7-0.7-14.6-0.7l0.2-0.1c-14.5-0.1-24.6,0.4-38,0.6c-8.3-0.5-28.2-0.2-41.5-0.5
						c2,0.1-0.3,0.4-2.7,0.4c-3.1-0.1-8.7,0.3-8.2-0.1l1.1,0c-2.4-0.4-8.8-0.3-13.8-0.3l-0.8,0.6c-13.2-0.9-34.5,0.3-41.7-0.5
						c-3.2,0.1-7.1,0.1-10.3,0.3l0.2-0.3c-8.8-0.1-13.2-0.1-24.1,0l2.2-0.2c-6.1,0-7.7,0.9-13.4,0.9l-1.7-0.5
						c-10.7,0-21.5-0.4-32.1,0c0.2-0.1,0.5-0.2,2.2-0.2c-5,0-19.5-0.3-17.7,0.3c-0.1-0.4-11,0-16.8,0.1l0.9-0.3
						c-4.9,0.4-5,0.5-11.8,0.6c-1.6,0-1.4-0.3,0.7-0.2c-5.4-0.2-4.2,0.3-10.7,0.1l2.4-0.2c-5.5,0-5.1,0.1-8.1,0.3
						c-3.5,0.1-10.5-0.1-11.3-0.4c-0.7,0.2-3.8,0.4-7,0.3c-0.4-0.1,0.7-0.2,1.3-0.2c-9.3-0.2-13.8,0.4-20.1,0.1
						c-0.1-0.1-0.5-0.2-1.1-0.2c7.4,0,13.3,0,12.7,0c0-0.3-5.9-0.3-1.2-0.7c-4.8,0.2-12.9,0.7-18.7,0.6c-0.3,0-0.6-0.1-0.8-0.1
						l0.6,0c-1.3,0-2.5,0-3.7,0c-1.8,0-3-0.1-4.8-0.1c-0.7-0.2-6.8-0.1-9.8-0.1c0.2,0.3-3.6,0.3,0,0.5c-0.5,0,0.6,0,2.5-0.1
						c0.4,0,1,0,1.3,0c-0.1,0-0.1,0-0.2,0c1.9,0,4.5,0,7.4,0c-2.3,0.2-4.8,0.3-8.1,0.1c-1.5,0.2-3.2,0.4-4.1,0.5
						c-4.1-0.4-11.9-0.7-13-1c-9,0.2-21.3,0.1-27,0.7c-2.6,0.1-3-0.2-3.9-0.3c1.5-0.1,3.2-0.1,4.1-0.1c-5.1,0.2-15.2,0.1-16.5,0.5
						c-6.5-0.2,3.6-0.4-5.3-0.3l1.2-0.1c-17.5-0.7-28.5,1.1-47.9,0.2c1.3,0.1,2,0.1,2.3,0.1c-22.1-0.4-45.6,0.4-67.5-0.2
						c-6.2-0.1-6.9,0.1-10.7,0.3l-1.3-0.3L87,33.5c-9.2,0.3-15.9-0.8-27.5-0.3l1.5,0.2c-4.2,0-13.2,0.1-12.5-0.1
						c-0.4,0-1.4,0.2-3,0.1l-0.1-0.2l-10.3,0.3c-8-0.1,1.2-0.7-10.4-0.7c-4.3,0.1-12.3,0.5-10.7,0.6c1.7,0,4.4,0.1,4.6,0.3l-3.9,0.1
						c-0.7,0.5-3.8,1.1,5.9,1.4l6.8-0.3l2.2,0.3l-5.7,0c3.2,0.2,5.3,0,7.6-0.1c0.5,0.1,1.5,0.2,2.8,0.3l6.6-0.5
						c0.8,0.2-3,0.4,1.5,0.5c3.1-0.2-3-0.5,2.2-0.6c3.2,0.2,2.3,0.4,6.1,0.2c0.5,0.1-0.3,0.2-1.8,0.3c3.4-0.2,8.9-0.1,10.7-0.3
						c3.4,0.3,11.4-0.1,11.1,0.4c1.1-0.1,5.9-0.4,9-0.4c-5.7,0.6,11.6,0,10.1,0.7c4.2-0.5,15.1-0.2,22.6-0.5c-0.4,0-1.2,0.1-1.9,0.1
						c4.2,0,5.4,0.2,8.1,0.3c0.5-0.4,7-0.5,10.6-0.8c5.1,0.4-3.1,0.5-1.5,0.9c-0.3-0.4,8.9-0.4,7.2-0.7c3.9,0.3,3.4,0.1,5.4,0.5
						c0.7-0.6,3.6-0.1,6.9-0.4c5.7,0.3,1.5,0.5,7.7,0.4C157.6,35.5,152,35.7,152,35.7z M300.1,34.8L300.1,34.8c-1.3,0-2.4,0-3.1,0
						C297.7,34.8,298.6,34.8,300.1,34.8z M312.6,34.8c-1.5,0-3.4,0-5.4,0c-0.4-0.1,0-0.2,1.3-0.2C307.8,34.6,310.7,34.7,312.6,34.8z
						 M286.2,32.6c2,0,2.6,0,2.9,0.1c-0.9,0-2,0-3.4,0c-0.1,0-0.2,0-0.2,0C285.7,32.7,285.9,32.6,286.2,32.6z"/>
					<path fill="#8DCFE8" d="M282.7,33c-0.3,0-0.4,0-0.8,0c0.4,0,0.8,0,1.2,0.1c0.2,0,0.5-0.1,0.7-0.1C283.4,33,283,33,282.7,33z"/>
					<path fill="#8DCFE8" d="M74.5,218.9l0.3,0c-0.2,0-0.4,0-0.6,0C74.4,218.9,74.4,218.9,74.5,218.9z"/>
					<polygon fill="#8DCFE8" points="484.4,35.4 484.4,35.3 483.3,35.4 					"/>
					<path fill="#8DCFE8" d="M12.4,211.7c0-0.1,0.1-0.4,0.1-0.9C12.5,210.8,12.5,211.2,12.4,211.7z"/>
					<path fill="#8DCFE8" d="M12.5,182.1l0.1-4.2C12.6,179.7,12.5,181,12.5,182.1z"/>
					<path fill="#8DCFE8" d="M12.7,159.3c-0.1-0.3-0.1-0.4-0.1-0.4c0,0,0,0,0,0L12.7,159.3z"/>
					<path fill="#8DCFE8" d="M315.5,217.2c0.3,0,0.6,0,0.9,0C318.4,217.1,317,217.2,315.5,217.2z"/>
					<path fill="#8DCFE8" d="M207.8,218c1.1,0,2.3-0.1,3.5-0.2C209.4,217.8,207.9,217.8,207.8,218z"/>
					<path fill="#8DCFE8" d="M435.8,216.8C435.8,216.8,435.8,216.8,435.8,216.8c0.2,0,0.5,0,0.7,0L435.8,216.8z"/>
					<path fill="#8DCFE8" d="M216.3,217.8c-1.9-0.1-3.5,0-5,0C212.8,217.8,214.7,217.9,216.3,217.8z"/>
					<path fill="#8DCFE8" d="M12.8,60.7l0-1.1c0,0,0,0-0.1-0.1L12.8,60.7z"/>
					<path fill="#8DCFE8" d="M12.8,59.4l0-1.2C12.7,58.8,12.7,59.3,12.8,59.4z"/>
					<path fill="#8DCFE8" d="M12.7,55.7l0.1,2.6C12.7,57.3,12.7,56.2,12.7,55.7z"/>
					<path fill="#8DCFE8" d="M12.7,90.8l0.1,0.3C12.8,91,12.7,90.8,12.7,90.8z"/>
					<path fill="#8DCFE8" d="M12.7,100c0-2.2,0.2-5.5,0.2-8.5l-0.1-0.3C13,92.6,12.5,97.9,12.7,100z"/>
					<path fill="#8DCFE8" d="M11.3,138.2l0.1-7.7c-0.1,1.3-0.3,3.1-0.3-0.4C10.7,139.8,11.3,128.1,11.3,138.2z"/>
					<path fill="#8DCFE8" d="M11.1,162c-0.1-4.1-0.2,0-0.2-0.2C11,164.4,11,165,11.1,162z"/>
					<path fill="#8DCFE8" d="M128.2,219.2l-0.4,0.3C130.9,219.4,127.8,219.3,128.2,219.2z"/>
					<polygon fill="#8DCFE8" points="161,217.7 158,217.5 156.5,217.8 					"/>
					<polygon fill="#8DCFE8" points="180.5,219.7 179.1,219.8 184.4,219.7 					"/>
					<path fill="#8DCFE8" d="M469.2,219.6l-1-0.4C466.1,219.3,465.7,219.7,469.2,219.6z"/>
					<path fill="#8DCFE8" d="M593.9,219.3c1.4,0.2,4.9,0.3,7,0.1C598.1,219.4,595.3,219.2,593.9,219.3z"/>
					<polygon fill="#8DCFE8" points="517.5,32.5 520,32.4 515.2,32.5 					"/>
				</g>
			</g>
		</g>
	</g>
</g>
<g>
	<path fill="#FAFDFF" d="M11.8,226.9l634.7,0c1.8,0,3.3,1.5,3.3,3.3v169.5c0,1.8-1.5,3.3-3.3,3.3H11.8c-1.1,0-2-0.9-2-2V229
		C9.8,227.8,10.7,226.9,11.8,226.9z"/>
	<g>
		<g>
			<g>
				<g>
					<path fill="#8DCFE8" d="M11.8,227.7c0.4,0,0.5-0.1,0.2-0.2c-0.2,0-0.4-0.1-0.6,0c-0.3,0.1-0.6,0.2-0.9,0.6c0,0-0.1,0.3-0.1,0.6
						c0.1,0.4,0.2,0.7,0.2,0.7s0-0.2,0-0.5c0-0.2,0.1-0.5,0.2-0.7c0.2-0.2,0.4-0.4,0.6-0.5C11.7,227.7,11.8,227.7,11.8,227.7z"/>
					<path fill="#8DCFE8" d="M9.9,241.7c0.2,2.8,0.5,6,0.8,4.2c-0.4-2.7-0.2-3.4-0.6-6.4c0-2.4,0.1-4.1,0.3-3.7
						c-0.1-0.8,0.1-3.7-0.1-4.9c-0.3,3.1-0.3,7-0.1,11C10,242.7,9.9,241.9,9.9,241.7z"/>
					<path fill="#8DCFE8" d="M80.1,403.6l-1.5,0C79,403.6,79.5,403.6,80.1,403.6z"/>
					<path fill="#8DCFE8" d="M223.1,403.8c-1.1,0-1.5,0-1.6,0.1C222.5,403.8,223.4,403.8,223.1,403.8z"/>
					<path fill="#8DCFE8" d="M247.5,404.2c-0.5,0-1,0-1.4,0C246.7,404.2,247.2,404.2,247.5,404.2z"/>
					<path fill="#8DCFE8" d="M80.1,403.6l3.8,0.1C84.2,403.6,82,403.6,80.1,403.6z"/>
					<path fill="#8DCFE8" d="M10.8,273.5c0-0.8-0.1-1.5-0.1-2.1c0,0.7,0,1.3,0,1.9C10.7,273.4,10.7,273.4,10.8,273.5z"/>
					<path fill="#8DCFE8" d="M17.1,403.9l-1.2,0c-0.3,0-0.7,0.1-1,0.1L17.1,403.9z"/>
					<path fill="#8DCFE8" d="M9,361.1c0,1.1,0.3,1.5,0.4,1.9c-0.1-0.6-0.2-1.4-0.2-2.4C9.1,360.6,9,360.7,9,361.1z"/>
					<path fill="#8DCFE8" d="M9.5,284.3l0-1.4C9.5,283.3,9.5,283.9,9.5,284.3z"/>
					<path fill="#8DCFE8" d="M51.7,404c0.1,0,0.3,0.1,0.4,0.1C52.1,404,52,404,51.7,404z"/>
					<path fill="#8DCFE8" d="M67.9,228.4C68,228.4,67.9,228.4,67.9,228.4C67.6,228.4,67.6,228.4,67.9,228.4z"/>
					<path fill="#8DCFE8" d="M11.8,226.9l0.8,0c0.1-0.1,0.2-0.1,0.2-0.2L11.8,226.9z"/>
					<path fill="#8DCFE8" d="M292.2,404.6c-0.1,0-0.1,0-0.2,0C290.9,404.6,291.5,404.6,292.2,404.6z"/>
					<path fill="#8DCFE8" d="M651.1,349c-0.3,4.6-0.4-7.6-0.7-0.6C650.6,347.8,650.9,354.8,651.1,349z"/>
					<path fill="#8DCFE8" d="M10.7,274.7c0,0.7,0,1.3,0,2C10.7,275.8,10.7,275.2,10.7,274.7z"/>
					<path fill="#8DCFE8" d="M650.4,348.4L650.4,348.4l0,0.7C650.4,348.8,650.4,348.7,650.4,348.4z"/>
					<path fill="#8DCFE8" d="M395.2,404.4c-0.2-0.1-0.6-0.1-1-0.1C394.2,404.3,394.4,404.3,395.2,404.4z"/>
					<path fill="#8DCFE8" d="M318.5,404l1.9,0C319.6,404,319,404,318.5,404z"/>
					<path fill="#8DCFE8" d="M435,404c1,0,1.4,0.1,2.8,0c-0.1,0-0.3,0-0.4,0C436.9,404,436.2,404,435,404z"/>
					<path fill="#8DCFE8" d="M476.5,404c-0.2,0-0.5,0-0.8-0.1c-0.4,0-0.9,0-1.3,0L476.5,404z"/>
					<path fill="#8DCFE8" d="M193.9,228.2c-0.9-0.1-1.5-0.2-1.9-0.3C192.6,228.2,186.5,228.3,193.9,228.2z"/>
					<path fill="#8DCFE8" d="M10.6,273.5c0.1,0.2,0.1,0.6,0.1,1.2c0-0.5,0-0.9,0-1.4C10.7,273.3,10.6,273.2,10.6,273.5z"/>
					<path fill="#8DCFE8" d="M436.7,401.5l6.6,0C441.5,401.5,439.1,401.5,436.7,401.5z"/>
					<path fill="#8DCFE8" d="M491.3,228.2l-1.5,0C490.4,228.2,490.9,228.2,491.3,228.2z"/>
					<path fill="#8DCFE8" d="M462.8,401.5c1.2,0.1,2.4,0.2,3.7,0.2c0.3,0,0.6,0,0.8-0.1L462.8,401.5z"/>
					<path fill="#8DCFE8" d="M192,228C192,228,192,228,192,228C192,228,192,228,192,228z"/>
					<path fill="#8DCFE8" d="M148.6,228.7c6.3,0,2.9-0.4,4.3-0.6c7.5-0.1,3.5,0.3,6,0.5c4.7-0.1,8.3-0.5,11.8-0.5
						c0.3,0.1,0.9,0.1,0.1,0.2c4.9-0.3,14.7,0,20.4-0.4c0.4,0,0.6,0.1,0.8,0.1c-0.9-0.2-1.1-0.4-0.9-0.6c2.8,0,5.2-0.3,6.3,0
						c-1.7,0-1.9,0.1-2.7,0.2l2.9-0.1c2.7,0.4-4,0.1-4,0.4c5.7-0.1,12.4-0.4,16.9-0.3c0.9,0.4-10.3,0.1-4.4,0.5l-6.8-0.1
						c5.2,0.6-4.1,0,0.6,0.6c9,0.1,10-0.2,19-0.1c2-0.2-0.7-0.3,1.3-0.5c12.7-0.4,10,0.9,19.4,0.4c2.4-0.3,3.4-0.7,10-0.5l-2.3,0.4
						c8.7,0,5-0.6,14.1-0.3c-1.6,0.2-6.8,0.1-5.5,0.2c5.9,0.3,4.2-0.2,8.7-0.2l0.9,0.4c9.2-0.1,19.4-0.3,29.7-0.4
						c-0.6,0.1-2.3,0.2,0.1,0.3c12.9-0.2,27.6,0,40,0.3l4.8-0.3c1.1,0,2.1,0.1,0.9,0.2c4.9,0.1,0.3-0.2,2.6-0.3
						c2.8,0,3.6,0.2,1.9,0.3c8.6-0.3,24.4-0.6,33.4-0.2l-1.8,0.1c7,0.1,7.9-0.7,14.5-0.4l-1.2,0.1c15.3,0.1,32.1-0.2,43.8,0.3
						c2.2-0.5,15.1,0.2,16.1-0.4c8.7,0.3,6.2,0.4,18.5,0.7c3.3,0,4.9-0.4,8.9-0.5l0.1,0.3l5.5-0.4l2.9,0.4l3.8-0.1
						c-1.5,0-3.2-0.2-3-0.3c3-0.1,6.6,0,9.5,0.1s5.1,0.2,5.1,0.3l14-0.3c-0.3,0.1-2.7,0.2-4.5,0.3c7.5-0.3,1.4,0.4,8.2,0
						c-0.9-0.1,0.5-0.2,0.7-0.3c3.4,0.2,11.2,0.2,17,0.1l-1.1,0.2c10.4,0.1,22-0.1,33.6-0.1c-4.2-0.1-3.2-0.5,0.2-0.6l1.4,0.4
						c2.2-0.2-3.6-0.1,1-0.4c4.4,0,2.9,0.4,0.4,0.5l5.3-0.1c0.3,0.1-0.9,0.2-1.3,0.3c2.2-0.2,9.2,0.4,12.3,0l0.3,0.1
						c11.7-0.1,17-0.1,26.5-0.1c0.2-0.3,3.9-0.2,6.7-0.5c7,0.1,14.8,0.3,23.2,0.3c0.4,0,0.7,0,1,0c0.3,0,0.4,0,0.5,0
						c0.3,0,0.5,0.1,0.6,0.2c0.3,0.1,0.4,0.2,0.4,0.1c0,0,0-0.1,0.1-0.1c0.1,0,0.2,0.1,0.6,0.4c0,0.1,0.2,0.5,0.2,1
						c0,0.2,0,0.7,0,1.1c0,0.4,0,0.9,0,1.3c-0.1,1.6-0.1,2.6-0.2,0.4c0,10.1,0.1,12.9,0.3,25.7c0.1-1.4,0.2-2.9,0.3-2.1
						c0,2.3-0.1,5.3-0.3,4.9l0-0.6c0.4,14.4-0.8,33.1-0.2,44.6l0-0.6l0.3,11.9c0,5.5-0.2-3.3-0.4,0.8c0.5,12.8-0.1,20.2,0.2,30.7
						c-0.8,8.2,0.1,28.9-0.5,39.9l0.2-0.6c0.2,2.8-0.1,3.4-0.2,5.5c0.2-0.3,0.2-3.1,0.3-1.3c0,1.5,0,3,0,4.5l0,2.3l0,1.1l0,0.3
						l0,0.2c0,0.1,0,0.2-0.1,0.3c-0.1,0.5-0.4,0.9-0.8,1.1c-0.2,0.1-0.4,0.2-0.6,0.3c-0.1,0-0.2,0-0.3,0.1l-0.2,0l-0.3,0
						c-1.5,0-3.1,0-4.6,0c-6.2,0-12.4-0.1-18.7-0.1c-12.5-0.1-25.1-0.3-37.4-0.4c-9-0.1-5.1,1-16.5,0.5l3.2-0.4
						c-18.2,0.4-37.3,0-55.1,0.4c1.1-0.1,1.1-0.2,2.8-0.2c-1.9-0.1-5.4-0.1-8.4-0.1s-5.6,0.2-5.6,0.3c-2.8,0-0.6-0.2-2.4-0.3
						c-3.8-0.2-9.5,0.3-11.5,0.1c-0.3,0,1.1-0.1,1.8-0.1c-2.5,0.1-11.5,0-9.1,0.3c-6.7-0.1-12.8,0.1-18.2,0
						c-3.5,0.3-11.5-0.2-12.6,0.3c0.5-0.5-11.7-0.4-16-0.2c1.4-0.2-3.7-0.2-2-0.4c-4.8,0-9.3,0.1-8.4,0.4
						c-8.9-0.6-17.9,0.5-22.9-0.3c-14.4,0.3-27.6,0.5-40.6,0.6c0.5-0.5,14.3,0,13.7-0.6c-12.3,0.2-19.3,0.6-31.5,0.5
						c-3.1-0.1,1.8-0.2,2.8-0.3c-12.2,0.2-23.7,0-34.6,0.2c0,0,1.2-0.1,2.3-0.1c-2.1,0-5-0.1-4.8,0.2l2.1-0.1
						c3.4,0.3-8.5,0.7-8.9,0.9c3.6-0.6-10.8-0.2-5-1c-1.4,0-3.2,0.2-2.9,0.3c-2.1,0-2.8-0.1-0.6-0.3c-7.7,0.1-5,0.4-11.9,0.4
						c0-0.1,1.4-0.2,2.2-0.3c-3.5,0.2-7.1,0.4-13,0.3c0.4-0.1-0.3-0.2,1.4-0.2c-10.1,0-17.2,0.6-28.3,0.4c3.3-0.5-3.8-0.2-4.4-0.6
						l-6,0.1l2.4,0.2c-5.2,0-9.8,0.3-14.3,0.2l3.9-0.2l-9.8,0.1l5.5,0.2c-5.3,0.2,0.6,0.5-6.4,0.4c1.4,0-5.2,0-7.9-0.2l0,0
						c-2.6,0.1-5.2,0.3-9.1,0.2c-1-0.1,0.8-0.5,0.2-0.5c-2.5,0.3-12.2,0.1-15.5,0.5c1.1-0.1,1.1-0.3,0.8-0.3l-2.1,0.3
						c-2.4-0.1-2.8-0.1-2.4-0.3c-7.3-0.1,2.3,0.5-6.3,0.3c0.7,0,0.4-0.1,1.8-0.1c-8.7-0.1-16.8,0.2-24.7,0c-2.4-0.4,7-0.1,4.3-0.5
						c-11.5,0.1-23.8,0.5-34.9,0.4l2.1,0c-1.5,0.6-8.3-0.3-13.9,0c1.4,0,1.8-0.3,1.4-0.3c-7.6-0.1-15.6,0.1-27.1,0.3l1.4-0.2
						c-4.5-0.1-11.8-0.1-16.7-0.1c-1.4,0.2-4.2,0.1-2.5,0.3c-15-0.9-28.5,0.5-41.8-0.3c1.6,0,3.8-0.1,2.5-0.1l-11.3,0.1
						c0.9,0.3,1.5,0.2,3.9,0.4c-1.4,0.2-4.6,0.3-7.4,0.3c2.5-0.1,2.5-0.2,1.6-0.3c-0.5,0-1.1-0.1-1.9-0.1c-0.4,0-0.7,0-0.9-0.1
						c-0.2-0.1-0.4-0.2-0.6-0.3c0.2,0.2-0.3-0.1-0.3,0.1c-0.4-0.5-0.4-0.9-0.4-1.3c0-0.4,0-0.8,0-1c0-0.5-0.1-0.7-0.2-0.9
						c-0.1-0.5-0.3-1.3-0.2-5.3l0.1,0.4c-0.1-3-0.2-5.8-0.2-9.1c0.3-1.3,0.1,3.2,0.4,3.4c0-4.6-0.6-9-0.3-13.2
						c0,1.9,0.1,4.7,0.2,6.7c0.3-4.5,0.3-5,0.3-8.4l0,0.3l0.2-7.7l-0.1,2c-0.8-5.7-0.1-11.6-0.6-19.3c0.5,7.5,0.3,1.2,0.6,1.8
						c0.1-2,0.2-5,0.3-4.1c-0.3-3.6,0.2-6.1-0.2-11.2c0.1-0.2,0-3.9,0.3-3.1c-0.1-4.7-0.2,1.1-0.3,0.7c-0.4-7.3,0.4-17.2-0.1-27.6
						c-0.2-9.1-0.6-10.7-0.8-19.1c0.2-2.8,0.4,2.3,0.4,2.3c0.2-4.6,0.1-8,0-12.3c0.1,0.9,0.2,0,0.3-1.3c0-3.5-0.4-2.3-0.2-6.9
						c0.1,0.8,0.3,1.8,0.4,3.5c-0.1-4.1-0.3-8.1-0.4-12.3c0.2-1.1,0.3,2.5,0.4,4c-0.1-4.7-0.2-12.3-0.5-13.7l-0.1,3
						c0-1.7,0.3-0.9,0.3,0.4c0.2,4.1-0.1,5.9-0.2,6.1l-0.1-3C9.5,259,10.2,268,10.2,274l-0.5-2.5l0.4,6.2c-0.1,1.3-0.4,2.2-0.4-0.8
						c-0.2,4.3,0.2,3.8-0.1,7.6c0,0.4-0.1,0.2-0.1-0.2l0.1,4.2c-0.1-0.8-0.3,0.7-0.3-1.9c-0.3,7.6,0.3,12.3,0,15.1l0-0.6
						c0.2,10.6,0.3,1,0.7,8.9l-0.8,5.3l0.3,1c0,1.1,0,3.2-0.2,2.8c0.2,4.1,0.1-0.7,0.4,1.7c-0.3,5.2,0.1,14.4-0.4,15.6
						c0.3,1.9,0.2-5,0.4,0.6c-0.6,1.6,0.1,6.5-0.2,11.3c-0.3-1.5-0.1-6-0.4-1.2c0.5,2.9-0.1,9.3,0,13.4c0.4,0.2,0.2,8.8,0.3,15.6
						c-0.1-0.4-0.2,12.7-0.4,19L9,395c0.2,0.6,0.3,2.5,0.3,4.9c0,0.3,0,0.6,0,0.9c0,0.3,0,0.7,0.2,1.1c0.3,0.7,0.9,1.3,1.6,1.5
						c0.4,0.1,0.8,0.1,1.1,0.1c0.3,0,0.6,0,1,0c0.6,0,1.3,0,1.8,0c-0.1,0.1-0.4,0.2-0.9,0.3c-0.3,0-0.6,0.1-1.1,0.1
						c-0.2,0-0.5,0-0.7,0c-0.1,0-0.3,0-0.4,0c-0.2,0-0.4,0-0.6,0c0,0,0.1,0,0.3,0c0.1,0,0.2,0,0.3,0c0.1,0,0.2,0,0.3,0
						c0.4,0,1,0,1.5,0c1.1,0,2.2,0,2.2,0c1-0.1,2.4-0.2,5.3-0.2l-1.1,0.3c5.9,0,11.9-0.4,19.5-0.2c0.4-0.3-6.1-0.8,2-1
						c0.3,0.2,0.6,0.4-1.5,0.5c0.7,0,2.5-0.1,3.9-0.1l-3.2,0.3c3.5,0.1,1.8-0.2,4.6-0.2c-0.1,0.2,2.1,0.2,1.7,0.3
						c-0.7,0-2.4-0.1-3.5,0c3.1,0,6.9,0.2,8.2,0.3c-0.3-0.1,0-0.3,2.3-0.3c5.9,0,2,0.3,5.5,0.4c1.4-0.2,5.2,0,5.3-0.3
						c1.7,0,2.1,0.2,2.7,0.2c3.1-0.1,14.3,0,10.9-0.4l-0.8,0c0.1,0,0.3,0,0.5,0c0,0,0,0,0,0h0c10-0.3,20.9,0.2,30.8,0l0,0.1
						c6-0.1,13.2-0.1,17.5-0.3c1.8,0,4.2,0.2,3.4,0.3c4.5-0.1,5.1-0.2,11.6,0c-4.6,0.2,1.6,0.2-4.7,0.1c5.9,0.1,7.2,0.3,13.6,0
						c-2.2,0.3,4.4,0.4,7.3,0.3l-4.1-0.2c3.2,0,5.9,0,8.7,0l-1.5,0.4c12.1,0.4,21.8-0.8,31,0c3.2-0.3-6.6-0.2-3.7-0.5
						c5.6,0,11.4,0.6,13.1,0.6c7.6,0.2,7.1-0.5,15.1-0.4c-1-0.1-2-0.5,4-0.6c5.6,0,6.8,0.6,3.3,0.7c-1.3,0-2,0-1.9-0.1
						c-1.8,0-4.2,0.1-2,0.2l0.7-0.1c2.8,0.1,10.4,0.1,8.6,0.3c4.2-0.1,1.8-0.2-1.3-0.3c7.1,0.2,11.2,0,18.5,0.1
						c-1.2-0.1-2.2-0.2-1.1-0.2c10.8,0.2,4.7-0.2,12.1-0.3c4.1,0.2-1.5,0.5,5.9,0.3c4.5,0.1,1,0.3-0.8,0.5
						c6.7-0.3,12.5,0.2,16.3,0.2l-3.5,0.1c2.1-0.1,3.8-0.1,5.6-0.1l-2-0.3c2.1,0,3.8,0,3.8,0.2c2.1-0.2-1.6-0.4,2.6-0.7
						c2.8,0.1,8.4-0.1,9.4,0.2c-8.7-0.1,1,0.3-6.4,0.4c1.4,0,3.1,0,5.2,0c0.3,0-0.3,0.1-0.9,0.1c8.3,0.3,3.8-0.4,12.4-0.4
						c-1.1,0.2,2,0.4,3.4,0.3c-3.5,0-1.7-0.3,1.5-0.5c5.5,0.2,6-0.1,8.9-0.1l-3.3-0.1c1.1-0.2,3.9-0.2,7.7-0.2
						c0.3,0.2-3.5,0.1-2.1,0.2c4.3-0.3,9.7,0.4,15.6,0.1c2.8,0.1,0.3,0.4,2.7,0.5c6.7-0.3,7.2,0.3,14.3,0.1c-2-0.3-2.4-0.2,2.6-0.5
						l-11.5,0.2l7.4-0.4c-3.5,0-7.4,0.2-9.4,0.1c3.5-0.2,3.2-0.1,1.5-0.4c4.8,0.4,9.5-0.2,15,0l-0.2,0.7c8.3,0.3,14.7-0.3,25.5-0.2
						l-3.5-0.1c1.4-0.3,6.6,0,10.1-0.1c-0.3,0.2,1.9,0.3,3.3,0.4c-0.2-0.2,7.9,0,8.9-0.4l4.8,0.3c8.7,0.1,9.9-0.6,18.3-0.5
						c-2.5,0.2,1.3,0.4-4.3,0.6c2.8,0,5.3,0,5.3-0.1c1.6,0.1,7.7-0.3,10.3-0.1c1.2-0.1,1.6-0.3,4.7-0.3c0.3,0,0,0.1,0,0.1
						c0-0.1,4.9-0.1,2.2-0.4c8.6,0.7,24,0,31.5,0.5c6.1-0.1,13.4-0.1,18.9-0.2c-0.4,0.1,0,0.1-1.1,0.1c7.6,0.2,4.7-0.6,13.4-0.4
						c4.4,0.4-4.6,0.2-1.8,0.3c1.2,0.7,10.5-0.1,16.3,0.3l-1.4,0c4.5,0.2,10.9-0.3,18.2-0.2c0,0-0.4,0.1,0,0.1
						c5-0.4,14.4-0.5,21.4-0.6c-2.2,0.3-3.2,0.1-1.9,0.4c3.1,0-0.9-0.5,5.4-0.5c2,0.2,6.6,0.3,7.2,0.6l-5.9,0c3,0.4,7.7,0,10.8,0.1
						l-0.4,0.2c9.1-0.1,9.2-0.5,18.9-0.5l-1-0.1c5.3-0.4,4.5,0.2,9.8-0.1l1.6,0.4c3.5-0.1,12.3-0.4,18.6-0.5
						c-3.6,0.3-10.9,0.5-15.5,0.7c3.5,0,11.8,0,13.7-0.2c-1.4,0-3.2,0.1-4.6,0.1c4.3-0.3,9.9-0.5,16.8-0.5c-0.6,0.4,3.9,0.5,9.2,0.5
						c1.3,0,2.7,0,4.1,0c0.7,0,1.7-0.2,2.4-0.6c0.7-0.4,1.3-1.1,1.6-1.8c0.2-0.4,0.3-0.7,0.4-1.1c0.1-0.4,0.1-0.8,0.1-1
						c0-0.6,0-1.1,0.1-1.6c0-1,0.1-1.9,0.2-2.5c-0.3-12.3,0.1-24.4,0.1-38.7c-0.7,5.1,0-4.2-0.7-3.3c0-3.3,0-4.6,0-4.9l0.4-10.1
						c0.2-2.4,0.1,3.2,0.3,2.9c0.1-7.3,0.3-3.1,0.5-7.9c-0.2,1-0.3-2.5-0.3-6.7l-0.3,5.9c-0.4-10.2,0.6-8.8,0.2-19.1l0.2,3.3
						c-0.1-5.3,0-19.5-0.5-24.6c0.1-0.9,0.3-2.2,0.3,0.2c0.1-12.6-0.6-28.1-0.2-37.9l0.2,1c0-2.4-0.3-4.1-0.1-7
						c0.1,0.2,0.2,0.9,0.2-0.1c-0.1-1.2-0.3-6.2-0.2-9.4l0.2,2.7c0.1-3.1,0.1-5.8,0-8.3c0-0.6,0-1.2,0-1.8c0-0.3,0-0.6,0-0.9
						c0-0.3,0-0.8-0.1-1.2c-0.4-1.6-1.7-2.8-3.1-3.2c-0.4-0.1-0.7-0.2-1.1-0.2c-0.2,0-0.3,0-0.5,0l-0.4,0l-1.7,0.1
						c-1.1,0-2.2,0.1-3.3,0.1c-2.3,0.1-4.6,0.1-7.2,0.2c0-0.5-9.6-0.6-14.5-0.7l0.2-0.1c-14.3-0.1-24.3,0.4-37.6,0.6
						c-8.2-0.5-27.9-0.2-41.1-0.5c2,0.1-0.3,0.4-2.7,0.4c-3.1-0.1-8.6,0.3-8.1-0.1l1.1,0c-2.3-0.4-8.7-0.3-13.7-0.3l-0.8,0.6
						c-13-0.8-34.1,0.3-41.2-0.4c-3.1,0.1-7,0.1-10.2,0.3l0.2-0.3c-8.7-0.1-13.1-0.1-23.8,0l2.2-0.2c-6.1,0-7.7,0.9-13.3,0.9
						l-1.7-0.5c-10.6,0-21.3-0.4-31.8,0c0.2-0.1,0.5-0.2,2.2-0.2c-5,0-19.3-0.3-17.5,0.3c-0.1-0.4-10.9,0-16.7,0.1l0.9-0.3
						c-4.8,0.4-5,0.5-11.7,0.6c-1.6,0-1.4-0.2,0.7-0.2c-5.3-0.2-4.1,0.3-10.6,0.1l2.4-0.2c-5.5,0-5,0.1-8.1,0.3
						c-3.4,0.1-10.4-0.1-11.2-0.4c-0.7,0.2-3.7,0.4-7,0.3c-0.4-0.1,0.7-0.2,1.3-0.2c-9.2-0.2-13.6,0.4-19.9,0.1
						c-0.1-0.1-0.5-0.2-1.1-0.2c7.3,0,13.1,0,12.6,0c0-0.3-5.9-0.3-1.2-0.7c-4.7,0.2-12.8,0.7-18.5,0.5c-0.3,0-0.5-0.1-0.8-0.1
						l0.6,0c-1.3,0-2.5,0-3.6,0c-1.8,0-3-0.1-4.7-0.1c-0.7-0.2-6.7-0.1-9.7-0.1c0.2,0.3-3.6,0.3,0,0.5c-0.5,0,0.6,0,2.5-0.1
						c0.4,0,1,0,1.2,0c-0.1,0-0.1,0-0.2,0c1.9,0,4.4,0,7.3,0c-2.3,0.2-4.7,0.3-8,0.1c-1.5,0.2-3.2,0.4-4.1,0.5
						c-4-0.4-11.7-0.7-12.8-0.9c-9,0.2-21.1,0.1-26.7,0.7c-2.5,0.1-2.9-0.2-3.9-0.3c1.5-0.1,3.2,0,4-0.1c-5.1,0.1-15.1,0.1-16.3,0.5
						c-6.4-0.2,3.6-0.4-5.2-0.3l1.2-0.1c-17.3-0.7-28.2,1-47.4,0.2c1.3,0.1,2,0.1,2.3,0.1c-21.9-0.4-45.2,0.3-66.8-0.2
						c-6.1-0.1-6.8,0.1-10.6,0.3l-1.3-0.3l-6.4,0.4c-9.1,0.3-15.7-0.8-27.3-0.3l1.5,0.2c-4.1,0-13.1,0.1-12.4-0.1
						c-0.4,0-1.4,0.2-3,0.1l-0.1-0.2l-10.2,0.3c-7.9-0.1,1.2-0.7-10.3-0.7c-4.3,0.1-12.2,0.5-10.6,0.6c1.7,0,4.4,0.1,4.5,0.3
						l-3.9,0.1c-0.7,0.5-3.7,1,5.9,1.4l6.7-0.3l2.2,0.2l-5.6,0c3.2,0.2,5.2,0,7.5-0.1c0.5,0.1,1.5,0.2,2.8,0.3l6.6-0.5
						c0.8,0.2-2.9,0.4,1.5,0.5c3.1-0.2-2.9-0.5,2.1-0.6c3.2,0.2,2.3,0.4,6,0.2c0.5,0.1-0.3,0.2-1.8,0.3c3.3-0.2,8.8-0.1,10.6-0.3
						c3.3,0.3,11.3-0.1,10.9,0.4c1-0.1,5.9-0.4,9-0.4c-5.6,0.6,11.5,0,10,0.7c4.1-0.5,15-0.2,22.3-0.5c-0.4,0-1.2,0.1-1.9,0.1
						c4.1,0,5.3,0.2,8,0.3c0.5-0.4,7-0.5,10.4-0.8c5.1,0.4-3.1,0.5-1.5,0.9c-0.3-0.4,8.8-0.4,7.1-0.6c3.9,0.3,3.3,0.1,5.3,0.5
						c0.7-0.5,3.6-0.1,6.8-0.4c5.6,0.3,1.4,0.5,7.6,0.3C154.1,228.5,148.6,228.7,148.6,228.7z M295.2,227.8L295.2,227.8
						c-1.3,0-2.3,0-3,0C292.8,227.8,293.7,227.8,295.2,227.8z M307.5,227.8c-1.5,0-3.4,0-5.3,0c-0.4-0.1,0-0.2,1.3-0.2
						C302.8,227.6,305.7,227.7,307.5,227.8z M281.4,225.6c1.9,0,2.6,0,2.9,0.1c-0.9,0-2,0-3.4,0c-0.1,0-0.2,0-0.2,0
						C280.9,225.7,281.1,225.6,281.4,225.6z"/>
					<path fill="#8DCFE8" d="M277.9,226c-0.3,0-0.4,0-0.8,0c0.4,0,0.8,0,1.2,0.1c0.2,0,0.5-0.1,0.7-0.1
						C278.6,226,278.3,226,277.9,226z"/>
					<path fill="#8DCFE8" d="M78.4,403.5l0.3,0c-0.2,0-0.4,0-0.5,0C78.3,403.5,78.3,403.5,78.4,403.5z"/>
					<polygon fill="#8DCFE8" points="477.6,228.4 477.6,228.3 476.5,228.3 					"/>
					<path fill="#8DCFE8" d="M11,402.2c-0.1-0.1-0.2-0.2-0.3-0.5C10.6,401.7,10.7,401.9,11,402.2z"/>
					<path fill="#8DCFE8" d="M10.5,373.6l0.1-4.1C10.6,371.2,10.5,372.6,10.5,373.6z"/>
					<path fill="#8DCFE8" d="M10.7,351.1c-0.1-0.3-0.1-0.4-0.1-0.4c0,0,0,0,0,0L10.7,351.1z"/>
					<path fill="#8DCFE8" d="M316.9,401.9c0.3,0,0.6,0,0.9,0C319.9,401.8,318.5,401.8,316.9,401.9z"/>
					<path fill="#8DCFE8" d="M210.3,402.6c1.1,0,2.2-0.1,3.4-0.1C211.9,402.4,210.4,402.4,210.3,402.6z"/>
					<path fill="#8DCFE8" d="M436,401.5C436,401.5,436,401.5,436,401.5c0.2,0,0.5,0,0.7,0L436,401.5z"/>
					<path fill="#8DCFE8" d="M218.7,402.5c-1.9-0.1-3.5,0-5,0C215.3,402.5,217.1,402.5,218.7,402.5z"/>
					<path fill="#8DCFE8" d="M10.8,253.4l0-1.1c0,0,0,0,0-0.1L10.8,253.4z"/>
					<path fill="#8DCFE8" d="M10.8,252.2l0-1.2C10.7,251.5,10.7,252,10.8,252.2z"/>
					<path fill="#8DCFE8" d="M10.6,248.4l0.1,2.5C10.7,250.1,10.7,249,10.6,248.4z"/>
					<path fill="#8DCFE8" d="M10.6,283.2l0.1,0.3C10.7,283.4,10.7,283.3,10.6,283.2z"/>
					<path fill="#8DCFE8" d="M10.7,292.3c0-2.2,0.2-5.4,0.2-8.4l-0.1-0.3C10.9,285,10.5,290.2,10.7,292.3z"/>
					<path fill="#8DCFE8" d="M9.3,330.1l0.1-7.6c-0.1,1.3-0.3,3.1-0.3-0.4C8.7,331.7,9.3,320.2,9.3,330.1z"/>
					<path fill="#8DCFE8" d="M9.1,353.7c-0.1-4.1-0.2,0-0.2-0.2C9,356.1,9,356.7,9.1,353.7z"/>
					<path fill="#8DCFE8" d="M131.5,403.8l-0.4,0.3C134.2,404,131.1,404,131.5,403.8z"/>
					<polygon fill="#8DCFE8" points="164,402.3 161,402.1 159.5,402.4 					"/>
					<polygon fill="#8DCFE8" points="183.3,404.3 181.9,404.4 187.1,404.3 					"/>
					<path fill="#8DCFE8" d="M469.1,404.2l-1-0.3C466,404,465.6,404.3,469.1,404.2z"/>
					<path fill="#8DCFE8" d="M592.5,403.9c1.3,0.2,4.8,0.3,7,0.1C596.7,404,593.9,403.8,592.5,403.9z"/>
					<polygon fill="#8DCFE8" points="510.3,225.6 512.8,225.4 508.1,225.5 					"/>
				</g>
			</g>
		</g>
	</g>
</g>
</svg>
