<?xml version="1.0" encoding="utf-8"?>
<!-- Generator: Adobe Illustrator 18.1.1, SVG Export Plug-In . SVG Version: 6.00 Build 0)  -->
<!DOCTYPE svg PUBLIC "-//W3C//DTD SVG 1.1//EN" "http://www.w3.org/Graphics/SVG/1.1/DTD/svg11.dtd">
<svg version="1.1" id="Layer_1" xmlns="http://www.w3.org/2000/svg" xmlns:xlink="http://www.w3.org/1999/xlink" x="0px" y="0px"
	 viewBox="146.8 115 236.4 209.5" enable-background="new 146.8 115 236.4 209.5" xml:space="preserve">
<g>
	
		<linearGradient id="SVGID_1_" gradientUnits="userSpaceOnUse" x1="265.0283" y1="363.0194" x2="265.0283" y2="155.5111" gradientTransform="matrix(1 0 0 -1 0 480)">
		<stop  offset="0" style="stop-color:#009245"/>
		<stop  offset="0.7458" style="stop-color:#80E900"/>
	</linearGradient>
	<path fill="url(#SVGID_1_)" d="M265.9,323.9l35.7-63c0.5-0.9,0-2.2-0.9-2.2h-71.3c-0.9,0-1.5,1.3-0.9,2.2l35.7,63
		C264.5,324.7,265.5,324.7,265.9,323.9z"/>
	
		<linearGradient id="SVGID_2_" gradientUnits="userSpaceOnUse" x1="264.9783" y1="365.1003" x2="264.9783" y2="154.2664" gradientTransform="matrix(1 0 0 -1 0 480)">
		<stop  offset="0" style="stop-color:#009245"/>
		<stop  offset="0.7458" style="stop-color:#80E900"/>
	</linearGradient>
	<path fill="url(#SVGID_2_)" d="M204.8,218.3h120.4c0.4,0,0.7-0.2,0.9-0.6l16-28.3c0.5-0.9,0-2.2-0.9-2.2H188.8
		c-0.9,0-1.5,1.3-0.9,2.2l16,28.3C204.1,218.1,204.4,218.3,204.8,218.3z"/>
	
		<linearGradient id="SVGID_3_" gradientUnits="userSpaceOnUse" x1="264.9783" y1="365" x2="264.9783" y2="153.5781" gradientTransform="matrix(1 0 0 -1 0 480)">
		<stop  offset="0" style="stop-color:#009245"/>
		<stop  offset="0.7458" style="stop-color:#80E900"/>
	</linearGradient>
	<path fill="url(#SVGID_3_)" d="M383,117.2c0.5-0.9,0-2.2-0.9-2.2H265H147.9c-0.9,0-1.5,1.3-0.9,2.2l16.4,29.1
		c0.2,0.4,0.6,0.6,0.9,0.6h201.3c0.4,0,0.7-0.2,0.9-0.6L383,117.2z"/>
	
		<linearGradient id="SVGID_4_" gradientUnits="userSpaceOnUse" x1="264.951" y1="364.5857" x2="264.951" y2="153.7522" gradientTransform="matrix(1 0 0 -1 0 480)">
		<stop  offset="0" style="stop-color:#009245"/>
		<stop  offset="0.7458" style="stop-color:#80E900"/>
	</linearGradient>
	<path fill="url(#SVGID_4_)" d="M167.6,154.2l16,28.3c0.2,0.4,0.6,0.6,0.9,0.6h160.9c0.4,0,0.7-0.2,0.9-0.6l16-28.3
		c0.5-0.9,0-2.2-0.9-2.2H168.6C167.6,152,167.1,153.2,167.6,154.2z"/>
	
		<linearGradient id="SVGID_5_" gradientUnits="userSpaceOnUse" x1="264.9783" y1="364.7747" x2="264.9783" y2="153.9412" gradientTransform="matrix(1 0 0 -1 0 480)">
		<stop  offset="0" style="stop-color:#009245"/>
		<stop  offset="0.7458" style="stop-color:#80E900"/>
	</linearGradient>
	<path fill="url(#SVGID_5_)" d="M225,254.4h79.9c0.4,0,0.7-0.2,0.9-0.6l16-28.3c0.5-0.9,0-2.2-0.9-2.2H209.1c-0.9,0-1.5,1.3-0.9,2.2
		l16,28.3C224.3,254.2,224.7,254.4,225,254.4z"/>
</g>
</svg>
