<?xml version="1.0" encoding="utf-8"?>
<!-- Generator: Adobe Illustrator 18.1.1, SVG Export Plug-In . SVG Version: 6.00 Build 0)  -->
<svg version="1.1" id="Layer_1" xmlns="http://www.w3.org/2000/svg" xmlns:xlink="http://www.w3.org/1999/xlink" x="0px" y="0px"
	 viewBox="3.8 153.7 604.8 484.2" enable-background="new 3.8 153.7 604.8 484.2" xml:space="preserve">
<g>
	<g>
		<g>
			
				<rect x="4.8" y="154.7" fill="#F8FDFF" stroke="#9BD8F3" stroke-width="5" stroke-miterlimit="10" width="120.6" height="120.6"/>
			
				<rect x="366.5" y="154.7" fill="#F8FDFF" stroke="#9BD8F3" stroke-width="5" stroke-miterlimit="10" width="120.6" height="120.6"/>
			
				<rect x="245.9" y="154.7" fill="#F8FDFF" stroke="#9BD8F3" stroke-width="5" stroke-miterlimit="10" width="120.6" height="120.6"/>
			
				<rect x="125.4" y="154.7" fill="#F8FDFF" stroke="#9BD8F3" stroke-width="5" stroke-miterlimit="10" width="120.6" height="120.6"/>
			
				<rect x="487" y="154.7" fill="#F8FDFF" stroke="#9BD8F3" stroke-width="5" stroke-miterlimit="10" width="120.6" height="120.6"/>
		</g>
		<g>
			
				<rect x="4.8" y="275.2" fill="#F8FDFF" stroke="#9BD8F3" stroke-width="5" stroke-miterlimit="10" width="120.6" height="120.6"/>
			
				<rect x="366.5" y="275.2" fill="#F8FDFF" stroke="#9BD8F3" stroke-width="5" stroke-miterlimit="10" width="120.6" height="120.6"/>
			
				<rect x="245.9" y="275.2" fill="#F8FDFF" stroke="#9BD8F3" stroke-width="5" stroke-miterlimit="10" width="120.6" height="120.6"/>
			
				<rect x="125.4" y="275.2" fill="#F8FDFF" stroke="#9BD8F3" stroke-width="5" stroke-miterlimit="10" width="120.6" height="120.6"/>
			
				<rect x="487" y="275.2" fill="#F8FDFF" stroke="#9BD8F3" stroke-width="5" stroke-miterlimit="10" width="120.6" height="120.6"/>
		</g>
		<g>
			
				<rect x="4.8" y="395.8" fill="#F8FDFF" stroke="#9BD8F3" stroke-width="5" stroke-miterlimit="10" width="120.6" height="120.6"/>
			
				<rect x="366.5" y="395.8" fill="#F8FDFF" stroke="#9BD8F3" stroke-width="5" stroke-miterlimit="10" width="120.6" height="120.6"/>
			
				<rect x="245.9" y="395.8" fill="#F8FDFF" stroke="#9BD8F3" stroke-width="5" stroke-miterlimit="10" width="120.6" height="120.6"/>
			
				<rect x="125.4" y="395.8" fill="#F8FDFF" stroke="#9BD8F3" stroke-width="5" stroke-miterlimit="10" width="120.6" height="120.6"/>
			
				<rect x="487" y="395.8" fill="#F8FDFF" stroke="#9BD8F3" stroke-width="5" stroke-miterlimit="10" width="120.6" height="120.6"/>
		</g>
		<g>
			
				<rect x="4.8" y="516.4" fill="#F8FDFF" stroke="#9BD8F3" stroke-width="5" stroke-miterlimit="10" width="120.6" height="120.6"/>
			
				<rect x="366.5" y="516.4" fill="#F8FDFF" stroke="#9BD8F3" stroke-width="5" stroke-miterlimit="10" width="120.6" height="120.6"/>
			
				<rect x="245.9" y="516.4" fill="#F8FDFF" stroke="#9BD8F3" stroke-width="5" stroke-miterlimit="10" width="120.6" height="120.6"/>
			
				<rect x="125.4" y="516.4" fill="#F8FDFF" stroke="#9BD8F3" stroke-width="5" stroke-miterlimit="10" width="120.6" height="120.6"/>
			
				<rect x="487" y="516.4" fill="#F8FDFF" stroke="#9BD8F3" stroke-width="5" stroke-miterlimit="10" width="120.6" height="120.6"/>
		</g>
	</g>
	<g>
		<path fill="#C7D8E5" d="M65.1,172.4c-10.4,1.2-28.5,42.2-28.5,56.7c0,16.1,12.9,28.9,28.5,28.9s28.5-12.9,28.5-28.9
			C93.6,214.6,75.1,173.6,65.1,172.4z"/>
		<path fill="#C7D8E5" d="M547.3,172.4c-10.4,1.2-28.5,42.2-28.5,56.7c0,16.1,12.9,28.9,28.5,28.9s28.5-12.9,28.5-28.9
			C575.8,214.6,557.3,173.6,547.3,172.4z"/>
		<path fill="#C7D8E5" d="M306.2,172.4c-10.4,1.2-28.5,42.2-28.5,56.7c0,16.1,12.9,28.9,28.5,28.9c15.7,0,28.5-12.9,28.5-28.9
			C334.7,214.6,316.2,173.6,306.2,172.4z"/>
		<path fill="#C7D8E5" d="M426.8,172.4c-10.4,1.2-28.5,42.2-28.5,56.7c0,16.1,12.9,28.9,28.5,28.9c15.7,0,28.5-12.9,28.5-28.9
			C455.3,214.6,436.8,173.6,426.8,172.4z"/>
		<path fill="#C7D8E5" d="M185.6,172.4c-10.4,1.2-28.5,42.2-28.5,56.7c0,16.1,12.9,28.9,28.5,28.9s28.5-12.9,28.5-28.9
			C214.2,214.6,195.7,173.6,185.6,172.4z"/>
	</g>
	<g>
		<path fill="#C7D8E5" d="M65.1,534c-10.4,1.2-28.5,42.2-28.5,56.7c0,16.1,12.9,28.9,28.5,28.9s28.5-12.9,28.5-28.9
			C93.6,576.2,75.1,535.2,65.1,534z"/>
		<path fill="#C7D8E5" d="M547.3,534c-10.4,1.2-28.5,42.2-28.5,56.7c0,16.1,12.9,28.9,28.5,28.9s28.5-12.9,28.5-28.9
			C575.8,576.2,557.3,535.2,547.3,534z"/>
		<path fill="#C7D8E5" d="M306.2,534c-10.4,1.2-28.5,42.2-28.5,56.7c0,16.1,12.9,28.9,28.5,28.9c15.7,0,28.5-12.9,28.5-28.9
			C334.7,576.2,316.2,535.2,306.2,534z"/>
		<path fill="#C7D8E5" d="M426.8,534c-10.4,1.2-28.5,42.2-28.5,56.7c0,16.1,12.9,28.9,28.5,28.9c15.7,0,28.5-12.9,28.5-28.9
			C455.3,576.2,436.8,535.2,426.8,534z"/>
		<path fill="#C7D8E5" d="M185.6,534c-10.4,1.2-28.5,42.2-28.5,56.7c0,16.1,12.9,28.9,28.5,28.9s28.5-12.9,28.5-28.9
			C214.2,576.2,195.7,535.2,185.6,534z"/>
	</g>
	<g>
		<path fill="#C7D8E5" d="M65.1,292.9c-10.4,1.2-28.5,42.2-28.5,56.7c0,16.1,12.9,28.9,28.5,28.9s28.5-12.9,28.5-28.9
			C93.6,335.1,75.1,294.1,65.1,292.9z"/>
		<path fill="#C7D8E5" d="M547.3,292.9c-10.4,1.2-28.5,42.2-28.5,56.7c0,16.1,12.9,28.9,28.5,28.9s28.5-12.9,28.5-28.9
			C575.8,335.1,557.3,294.1,547.3,292.9z"/>
		<path fill="#C7D8E5" d="M306.2,292.9c-10.4,1.2-28.5,42.2-28.5,56.7c0,16.1,12.9,28.9,28.5,28.9c15.7,0,28.5-12.9,28.5-28.9
			C334.7,335.1,316.2,294.1,306.2,292.9z"/>
		<path fill="#C7D8E5" d="M426.8,292.9c-10.4,1.2-28.5,42.2-28.5,56.7c0,16.1,12.9,28.9,28.5,28.9c15.7,0,28.5-12.9,28.5-28.9
			C455.3,335.1,436.8,294.1,426.8,292.9z"/>
		<path fill="#C7D8E5" d="M185.6,292.9c-10.4,1.2-28.5,42.2-28.5,56.7c0,16.1,12.9,28.9,28.5,28.9s28.5-12.9,28.5-28.9
			C214.2,335.1,195.7,294.1,185.6,292.9z"/>
	</g>
	<g>
		<path fill="#C7D8E5" d="M65.1,413.5c-10.4,1.2-28.5,42.2-28.5,56.7c0,16.1,12.9,28.9,28.5,28.9s28.5-12.9,28.5-28.9
			C93.6,455.7,75.1,414.7,65.1,413.5z"/>
		<path fill="#C7D8E5" d="M547.3,413.5c-10.4,1.2-28.5,42.2-28.5,56.7c0,16.1,12.9,28.9,28.5,28.9s28.5-12.9,28.5-28.9
			C575.8,455.7,557.3,414.7,547.3,413.5z"/>
		<path fill="#C7D8E5" d="M306.2,413.5c-10.4,1.2-28.5,42.2-28.5,56.7c0,16.1,12.9,28.9,28.5,28.9c15.7,0,28.5-12.9,28.5-28.9
			C334.7,455.7,316.2,414.7,306.2,413.5z"/>
		<path fill="#C7D8E5" d="M426.8,413.5c-10.4,1.2-28.5,42.2-28.5,56.7c0,16.1,12.9,28.9,28.5,28.9c15.7,0,28.5-12.9,28.5-28.9
			C455.3,455.7,436.8,414.7,426.8,413.5z"/>
		<path fill="#C7D8E5" d="M185.6,413.5c-10.4,1.2-28.5,42.2-28.5,56.7c0,16.1,12.9,28.9,28.5,28.9s28.5-12.9,28.5-28.9
			C214.2,455.7,195.7,414.7,185.6,413.5z"/>
	</g>
</g>
</svg>
