<?xml version="1.0" encoding="utf-8"?>
<!-- Generator: Adobe Illustrator 19.1.0, SVG Export Plug-In . SVG Version: 6.00 Build 0)  -->
<!DOCTYPE svg PUBLIC "-//W3C//DTD SVG 1.1//EN" "http://www.w3.org/Graphics/SVG/1.1/DTD/svg11.dtd">
<svg version="1.1" id="Layer_1" xmlns="http://www.w3.org/2000/svg" xmlns:xlink="http://www.w3.org/1999/xlink" x="0px" y="0px"
	 viewBox="0 0 208 208" enable-background="new 0 0 208 208" xml:space="preserve">
<path fill="#A6D8F2" stroke="#333333" stroke-width="2" stroke-miterlimit="10" d="M200.7,205.3H7.7c-2.8,0-5-2.2-5-5V7.3
	c0-2.8,2.2-5,5-5h193c2.8,0,5,2.3,5,5v193C205.7,203.1,203.4,205.3,200.7,205.3z"/>
<line fill="#EEEEEE" stroke="#333333" stroke-width="2" stroke-miterlimit="10" x1="2.7" y1="104.3" x2="205.7" y2="104.3"/>
<line fill="#EEEEEE" stroke="#333333" stroke-width="2" stroke-miterlimit="10" x1="103.7" y1="2.3" x2="103.7" y2="205.3"/>
<text transform="matrix(1 0 0 1 44.3332 58.0002)" fill="#FFFFFF" font-family="'ArialMT'" font-size="21px">¼</text>
<text transform="matrix(1 0 0 1 146.6665 58)" fill="#FFFFFF" font-family="'ArialMT'" font-size="21px">¼</text>
<text transform="matrix(1 0 0 1 44.333 160.6667)" fill="#FFFFFF" font-family="'ArialMT'" font-size="21px">¼</text>
<text transform="matrix(1 0 0 1 146.6664 160.6665)" fill="#FFFFFF" font-family="'ArialMT'" font-size="21px">¼</text>
</svg>
